<?xml version="1.0" encoding="UTF-8"?>
<svg width="275px" height="203px" viewBox="0 0 275 203" version="1.1" xmlns="http://www.w3.org/2000/svg" xmlns:xlink="http://www.w3.org/1999/xlink">
    <title>ccs-supplier-logo</title>
    <g id="Page-1" stroke="none" stroke-width="1" fill="none" fill-rule="evenodd">
        <g id="ccs-supplier-logo" transform="translate(0.328125, 0.304688)">
            <path d="M50.118075,11.484012 C49.129075,6.485002 45.119075,3.960002 40.219075,3.960002 C31.804075,3.960002 28.240075,10.890012 28.240075,18.265012 C28.240075,26.333012 31.804075,33.066012 40.268075,33.066012 C46.456075,33.066012 50.020075,28.710012 50.465075,22.868012 L55.168075,22.868012 C54.277075,31.679012 48.782075,37.027012 39.872075,37.027012 C28.883075,37.027012 23.537075,28.907012 23.537075,18.612012 C23.537075,8.365002 29.378075,0 40.268075,0 C47.644075,0 53.732075,3.960002 54.821075,11.484012 L50.118075,11.484012 Z" id="Path" fill="#FFFFFF"></path>
            <path d="M58.964875,10.593712 L62.924875,10.593712 L62.924875,15.989712 L63.023875,15.989712 C65.052875,11.880712 67.874875,9.851712 72.428875,9.999712 L72.428875,14.454712 C65.647875,14.454712 63.172875,18.316712 63.172875,24.800712 L63.172875,36.185712 L58.964875,36.185712 L58.964875,10.593712 Z" id="Path" fill="#FFFFFF"></path>
            <path d="M85.321475,33.067012 C89.726475,33.067012 93.290475,29.602012 93.290475,23.414012 C93.290475,17.178012 89.726475,13.713012 85.321475,13.713012 C80.915475,13.713012 77.351475,17.178012 77.351475,23.414012 C77.351475,29.602012 80.915475,33.067012 85.321475,33.067012 Z M85.321475,10.000012 C93.438475,10.000012 97.745475,15.891012 97.745475,23.414012 C97.745475,30.889012 93.438475,36.779012 85.321475,36.779012 C77.203475,36.779012 72.896475,30.889012 72.896475,23.414012 C72.896475,15.891012 77.203475,10.000012 85.321475,10.000012 Z" id="Shape" fill="#FFFFFF"></path>
            <polygon id="Path" fill="#FFFFFF" points="125.964875 36.185712 121.509875 36.185712 116.312875 15.839712 116.213875 15.839712 111.065875 36.185712 106.511875 36.185712 98.294875 10.593712 102.947875 10.593712 108.738875 31.530712 108.837875 31.530712 113.985875 10.593712 118.589875 10.593712 123.935875 31.530712 124.034875 31.530712 129.776875 10.593712 134.132875 10.593712"></polygon>
            <path d="M136.929875,10.594012 L140.889875,10.594012 L140.889875,14.653012 L140.988875,14.653012 C142.770875,11.485012 145.641875,10.000012 149.304875,10.000012 C156.036875,10.000012 158.115875,13.862012 158.115875,19.356012 L158.115875,36.186012 L153.908875,36.186012 L153.908875,18.860012 C153.908875,15.742012 151.928875,13.713012 148.710875,13.713012 C143.612875,13.713012 141.137875,17.127012 141.137875,21.731012 L141.137875,36.186012 L136.929875,36.186012 L136.929875,10.594012 Z" id="Path" fill="#FFFFFF"></path>
            <path d="M50.118075,63.485012 C49.129075,58.487012 45.119075,55.961012 40.219075,55.961012 C31.804075,55.961012 28.240075,62.891012 28.240075,70.266012 C28.240075,78.334012 31.804075,85.067012 40.268075,85.067012 C46.456075,85.067012 50.020075,80.711012 50.465075,74.869012 L55.168075,74.869012 C54.277075,83.680012 48.782075,89.028012 39.872075,89.028012 C28.883075,89.028012 23.537075,80.908012 23.537075,70.614012 C23.537075,60.367012 29.378075,52.000012 40.268075,52.000012 C47.644075,52.000012 53.732075,55.961012 54.821075,63.485012 L50.118075,63.485012 Z" id="Path" fill="#FFFFFF"></path>
            <path d="M70.270675,85.067012 C74.675675,85.067012 78.239675,81.602012 78.239675,75.414012 C78.239675,69.178012 74.675675,65.713012 70.270675,65.713012 C65.864675,65.713012 62.300675,69.178012 62.300675,75.414012 C62.300675,81.602012 65.864675,85.067012 70.270675,85.067012 Z M70.270675,62.000012 C78.387675,62.000012 82.694675,67.891012 82.694675,75.414012 C82.694675,82.889012 78.387675,88.779012 70.270675,88.779012 C62.152675,88.779012 57.845675,82.889012 57.845675,75.414012 C57.845675,67.891012 62.152675,62.000012 70.270675,62.000012 Z" id="Shape" fill="#FFFFFF"></path>
            <path d="M86.480475,62.594012 L90.439475,62.594012 L90.439475,66.356012 L90.539475,66.356012 C92.419475,63.485012 95.291475,62.000012 98.805475,62.000012 C101.923875,62.000012 104.794875,63.239012 105.834875,66.356012 C107.566875,63.633012 110.586875,62.000012 113.853875,62.000012 C118.951875,62.000012 122.367875,64.129012 122.367875,69.424012 L122.367875,88.186012 L118.159875,88.186012 L118.159875,71.404012 C118.159875,68.237012 117.318875,65.713012 113.209875,65.713012 C109.150875,65.713012 106.527875,68.287012 106.527875,72.246012 L106.527875,88.186012 L102.319875,88.186012 L102.319875,71.404012 C102.319875,68.088012 101.280875,65.713012 97.518475,65.713012 C92.519475,65.713012 90.687475,70.317012 90.687475,72.246012 L90.687475,88.186012 L86.480475,88.186012 L86.480475,62.594012 Z" id="Path" fill="#FFFFFF"></path>
            <path d="M127.521875,62.594012 L131.481875,62.594012 L131.481875,66.356012 L131.580875,66.356012 C133.460875,63.485012 136.332875,62.000012 139.846875,62.000012 C142.964875,62.000012 145.835875,63.239012 146.875875,66.356012 C148.607875,63.633012 151.627875,62.000012 154.894875,62.000012 C159.992875,62.000012 163.408875,64.129012 163.408875,69.424012 L163.408875,88.186012 L159.200875,88.186012 L159.200875,71.404012 C159.200875,68.237012 158.359875,65.713012 154.250875,65.713012 C150.191875,65.713012 147.568875,68.287012 147.568875,72.246012 L147.568875,88.186012 L143.360875,88.186012 L143.360875,71.404012 C143.360875,68.088012 142.321875,65.713012 138.559875,65.713012 C133.560875,65.713012 131.728875,70.317012 131.728875,72.246012 L131.728875,88.186012 L127.521875,88.186012 L127.521875,62.594012 Z" id="Path" fill="#FFFFFF"></path>
            <path d="M186.314875,72.940012 C186.116875,68.930012 183.096875,65.713012 178.939875,65.713012 C174.533875,65.713012 171.909875,69.029012 171.612875,72.940012 L186.314875,72.940012 Z M190.373875,80.067012 C189.234875,85.711012 185.175875,88.779012 179.434875,88.779012 C171.266875,88.779012 167.405875,83.137012 167.157875,75.315012 C167.157875,67.643012 172.207875,62.000012 179.186875,62.000012 C188.244875,62.000012 191.016875,70.465012 190.769875,76.653012 L171.612875,76.653012 C171.464875,81.108012 173.988875,85.067012 179.582875,85.067012 C183.047875,85.067012 185.472875,83.383012 186.215875,80.067012 L190.373875,80.067012 Z" id="Shape" fill="#FFFFFF"></path>
            <path d="M194.161875,62.593712 L198.121875,62.593712 L198.121875,67.990712 L198.220875,67.990712 C200.249875,63.880712 203.070875,61.851712 207.625875,61.999712 L207.625875,66.454712 C200.843875,66.454712 198.368875,70.316712 198.368875,76.800712 L198.368875,88.185712 L194.161875,88.185712 L194.161875,62.593712 Z" id="Path" fill="#FFFFFF"></path>
            <path d="M226.879875,70.811012 C226.235875,67.594012 224.007875,65.713012 220.542875,65.713012 C214.454875,65.713012 212.573875,70.514012 212.573875,75.711012 C212.573875,80.414012 214.701875,85.067012 220.047875,85.067012 C224.107875,85.067012 226.532875,82.692012 227.076875,78.830012 L231.383875,78.830012 C230.442875,85.067012 226.532875,88.779012 220.097875,88.779012 C212.276875,88.779012 208.118875,83.334012 208.118875,75.711012 C208.118875,68.039012 212.078875,62.000012 220.196875,62.000012 C225.987875,62.000012 230.640875,64.723012 231.234875,70.811012 L226.879875,70.811012 Z" id="Path" fill="#FFFFFF"></path>
            <path d="M235.146875,88.183812 L239.353875,88.183812 L239.353875,62.591812 L235.146875,62.591812 L235.146875,88.183812 Z M235.146875,57.988812 L239.353875,57.988812 L239.353875,52.839812 L235.146875,52.839812 L235.146875,57.988812 Z" id="Shape" fill="#FFFFFF"></path>
            <path d="M260.463875,74.969012 C258.830875,76.157012 255.662875,76.207012 252.840875,76.701012 C250.068875,77.195012 247.692875,78.186012 247.692875,81.305012 C247.692875,84.076012 250.068875,85.067012 252.642875,85.067012 C258.186875,85.067012 260.463875,81.602012 260.463875,79.276012 L260.463875,74.969012 Z M267.294875,88.086012 C266.551875,88.532012 265.611875,88.779012 264.274875,88.779012 C262.096875,88.779012 260.711875,87.592012 260.711875,84.819012 C258.384875,87.541012 255.266875,88.779012 251.702875,88.779012 C247.048875,88.779012 243.237875,86.700012 243.237875,81.602012 C243.237875,75.811012 247.543875,74.573012 251.899875,73.731012 C256.552875,72.840012 260.512875,73.137012 260.512875,69.969012 C260.512875,66.307012 257.493875,65.713012 254.820875,65.713012 C251.256875,65.713012 248.632875,66.801012 248.435875,70.563012 L244.227875,70.563012 C244.475875,64.227012 249.375875,62.000012 255.067875,62.000012 C259.671875,62.000012 264.670875,63.039012 264.670875,69.029012 L264.670875,82.195012 C264.670875,84.176012 264.670875,85.067012 266.007875,85.067012 C266.354875,85.067012 266.750875,85.018012 267.294875,84.819012 L267.294875,88.086012 Z" id="Shape" fill="#FFFFFF"></path>
            <polygon id="Path" fill="#FFFFFF" points="270.407875 88.183812 274.615875 88.183812 274.615875 52.839812 270.407875 52.839812"></polygon>
            <path d="M45.713275,115.188312 C45.169275,110.139312 41.803275,107.961312 36.952275,107.961312 C32.992275,107.961312 29.032275,109.397312 29.032275,114.000312 C29.032275,118.356312 34.675275,119.000312 40.367275,120.287312 C46.010275,121.575312 51.653275,123.553312 51.653275,130.483312 C51.653275,138.008312 44.277275,141.028312 37.843275,141.028312 C29.923275,141.028312 23.240275,137.166312 23.240275,128.553312 L27.695275,128.553312 C27.695275,134.492312 32.645275,137.067312 37.991275,137.067312 C42.248275,137.067312 46.950275,135.731312 46.950275,130.631312 C46.950275,125.782312 41.308275,124.940312 35.665275,123.701312 C30.022275,122.465312 24.329275,120.830312 24.329275,114.346312 C24.329275,107.168312 30.715275,104.000312 37.150275,104.000312 C44.377275,104.000312 49.871275,107.416312 50.168275,115.188312 L45.713275,115.188312 Z" id="Path" fill="#FFFFFF"></path>
            <path d="M73.364075,124.940312 C73.166075,120.930312 70.146075,117.713312 65.988075,117.713312 C61.583075,117.713312 58.959075,121.030312 58.662075,124.940312 L73.364075,124.940312 Z M77.422075,132.067312 C76.284075,137.711312 72.225075,140.780312 66.484075,140.780312 C58.316075,140.780312 54.455075,135.137312 54.207075,127.315312 C54.207075,119.643312 59.256075,114.000312 66.236075,114.000312 C75.294075,114.000312 78.066075,122.465312 77.818075,128.653312 L58.662075,128.653312 C58.514075,133.108312 61.038075,137.067312 66.632075,137.067312 C70.097075,137.067312 72.522075,135.383312 73.265075,132.067312 L77.422075,132.067312 Z" id="Shape" fill="#FFFFFF"></path>
            <path d="M81.208975,114.593312 L85.168975,114.593312 L85.168975,119.990312 L85.267975,119.990312 C87.296975,115.880312 90.118975,113.851312 94.672975,113.999312 L94.672975,118.454312 C87.891975,118.454312 85.416975,122.316312 85.416975,128.800312 L85.416975,140.185312 L81.208975,140.185312 L81.208975,114.593312 Z" id="Path" fill="#FFFFFF"></path>
            <polygon id="Path" fill="#FFFFFF" points="109.844875 140.185312 105.339875 140.185312 95.835975 114.593312 100.538875 114.593312 107.715875 135.927312 107.814875 135.927312 114.794875 114.593312 119.199875 114.593312"></polygon>
            <path d="M121.985875,140.184312 L126.193875,140.184312 L126.193875,114.592312 L121.985875,114.592312 L121.985875,140.184312 Z M121.985875,109.989312 L126.193875,109.989312 L126.193875,104.840312 L121.985875,104.840312 L121.985875,109.989312 Z" id="Shape" fill="#FFFFFF"></path>
            <path d="M148.912875,122.811312 C148.268875,119.594312 146.041875,117.713312 142.576875,117.713312 C136.487875,117.713312 134.606875,122.514312 134.606875,127.711312 C134.606875,132.414312 136.734875,137.067312 142.081875,137.067312 C146.140875,137.067312 148.565875,134.692312 149.109875,130.830312 L153.416875,130.830312 C152.476875,137.067312 148.565875,140.780312 142.130875,140.780312 C134.309875,140.780312 130.151875,135.334312 130.151875,127.711312 C130.151875,120.039312 134.111875,114.000312 142.229875,114.000312 C148.021875,114.000312 152.673875,116.723312 153.268875,122.811312 L148.912875,122.811312 Z" id="Path" fill="#FFFFFF"></path>
            <path d="M174.890875,124.940312 C174.691875,120.930312 171.672875,117.713312 167.514875,117.713312 C163.108875,117.713312 160.486875,121.030312 160.189875,124.940312 L174.890875,124.940312 Z M178.948875,132.067312 C177.810875,137.711312 173.752875,140.780312 168.010875,140.780312 C159.843875,140.780312 155.981875,135.137312 155.733875,127.315312 C155.733875,119.643312 160.782875,114.000312 167.762875,114.000312 C176.820875,114.000312 179.592875,122.465312 179.344875,128.653312 L160.189875,128.653312 C160.041875,133.108312 162.565875,137.067312 168.159875,137.067312 C171.624875,137.067312 174.048875,135.383312 174.791875,132.067312 L178.948875,132.067312 Z" id="Shape" fill="#FFFFFF"></path>
            <polygon id="Path" fill="#006CA9" points="0 192.516312 3.467995 192.516312 3.467995 0.117187 0 0.117187"></polygon>
            <path d="M49.811275,168.012312 C49.761275,161.797312 46.480275,159.808312 40.413275,159.808312 C36.037275,159.808312 31.363275,161.845312 31.363275,166.917312 C31.363275,170.697312 34.347275,171.891312 37.330275,172.785312 L41.109275,173.929312 C45.983275,175.421312 50.656275,177.012312 50.656275,182.979312 C50.656275,186.460312 48.468275,193.917312 36.932275,193.917312 C28.976275,193.917312 23.159275,190.088312 23.556275,181.486312 L26.938275,181.486312 C26.589275,188.399312 30.717275,191.033312 37.181275,191.033312 C41.805275,191.033312 47.275275,188.745312 47.275275,183.427312 C47.275275,178.404312 42.402275,177.509312 38.474275,176.365312 L34.992275,175.322312 C30.866275,174.129312 27.982275,171.641312 27.982275,167.067312 C27.982275,159.956312 34.247275,156.922312 40.562275,156.922312 C47.773275,156.922312 53.590275,159.808312 53.193275,168.012312 L49.811275,168.012312 Z" id="Path" fill="#8A8B8A"></path>
            <path d="M72.832875,193.172312 L69.948875,193.172312 L70.843875,188.498312 L70.743875,188.498312 C68.804875,191.531312 65.422875,193.917312 61.594875,193.917312 C57.119875,193.917312 53.837875,191.928312 53.837875,187.007312 C53.837875,186.212312 53.986875,185.165312 54.234875,183.973312 L57.765875,167.515312 L60.898875,167.515312 L57.318875,184.074312 C57.119875,184.868312 56.970875,185.814312 56.970875,186.658312 C56.970875,190.040312 59.556875,191.282312 62.340875,191.282312 C66.865875,191.282312 70.992875,187.205312 72.384875,180.692312 L75.219875,167.515312 L78.351875,167.515312 L72.832875,193.172312 Z" id="Path" fill="#8A8B8A"></path>
            <path d="M83.122675,183.874312 C83.122675,188.349312 85.708675,191.283312 90.283675,191.283312 C97.493675,191.283312 101.222875,183.327312 101.222875,177.064312 C101.222875,172.688312 99.035675,169.405312 94.311675,169.405312 C87.101675,169.405312 83.122675,177.510312 83.122675,183.874312 Z M83.321675,167.516312 L86.156675,167.516312 L85.162675,172.140312 L85.261675,172.140312 C87.448675,168.758312 90.084675,166.769312 94.609675,166.769312 C101.172875,166.769312 104.355875,170.995312 104.355875,177.261312 C104.355875,185.118312 98.935675,193.918312 90.333675,193.918312 C86.305675,193.918312 82.824675,192.229312 82.128675,188.052312 L82.028675,188.052312 L78.896675,202.670312 L75.763675,202.670312 L83.321675,167.516312 Z" id="Shape" fill="#8A8B8A"></path>
            <path d="M110.171875,183.874312 C110.171875,188.349312 112.757875,191.283312 117.332875,191.283312 C124.542875,191.283312 128.272875,183.327312 128.272875,177.064312 C128.272875,172.688312 126.084875,169.405312 121.359875,169.405312 C114.149875,169.405312 110.171875,177.510312 110.171875,183.874312 Z M110.370875,167.516312 L113.205875,167.516312 L112.210875,172.140312 L112.310875,172.140312 C114.498875,168.758312 117.133875,166.769312 121.658875,166.769312 C128.222875,166.769312 131.404875,170.995312 131.404875,177.261312 C131.404875,185.118312 125.984875,193.918312 117.381875,193.918312 C113.354875,193.918312 109.873875,192.229312 109.177875,188.052312 L109.077875,188.052312 L105.945875,202.670312 L102.812875,202.670312 L110.370875,167.516312 Z" id="Shape" fill="#8A8B8A"></path>
            <polygon id="Path" fill="#8A8B8A" points="139.259875 157.668312 142.392875 157.668312 134.734875 193.171312 131.601875 193.171312"></polygon>
            <path d="M146.968875,157.668312 L150.101875,157.668312 L149.007875,162.691312 L145.874875,162.691312 L146.968875,157.668312 Z M144.830875,167.514312 L147.963875,167.514312 L142.443875,193.171312 L139.310875,193.171312 L144.830875,167.514312 Z" id="Shape" fill="#8A8B8A"></path>
            <path d="M168.698875,178.554312 C168.698875,177.859312 168.747875,177.211312 168.747875,176.565312 C168.747875,172.290312 166.063875,169.405312 161.736875,169.405312 C156.564875,169.405312 153.034875,173.780312 151.940875,178.554312 L168.698875,178.554312 Z M151.543875,181.189312 C151.443875,181.786312 151.394875,182.483312 151.394875,183.178312 C151.394875,187.804312 153.780875,191.283312 158.852875,191.283312 C162.930875,191.283312 166.063875,188.648312 167.256875,184.919312 L170.388875,184.919312 C168.698875,190.637312 164.770875,193.918312 158.703875,193.918312 C151.940875,193.918312 148.261875,189.692312 148.261875,183.030312 C148.261875,174.925312 153.333875,166.769312 162.134875,166.769312 C168.300875,166.769312 171.880875,170.797312 171.880875,176.765312 C171.880875,178.206312 171.830875,179.648312 171.631875,181.189312 L151.543875,181.189312 Z" id="Shape" fill="#8A8B8A"></path>
            <path d="M176.851875,167.514312 L179.685875,167.514312 L178.392875,173.430312 L178.492875,173.430312 C180.481875,169.751312 183.215875,167.116312 187.790875,167.164312 C188.336875,167.164312 188.934875,167.164312 189.481875,167.215312 L188.785875,170.347312 C188.188875,170.347312 187.591875,170.299312 186.995875,170.299312 C181.375875,170.398312 178.392875,174.923312 177.348875,179.745312 L174.463875,193.171312 L171.331875,193.171312 L176.851875,167.514312 Z" id="Path" fill="#8A8B8A"></path>
        </g>
    </g>
</svg>