<svg width="377" height="207" viewBox="0 0 377 207" fill="none" xmlns="http://www.w3.org/2000/svg">
<g clip-path="url(#clip0_201_26)">
<path fill-rule="evenodd" clip-rule="evenodd" d="M221.196 194.021C242.533 190.898 263.556 185.853 283.619 178.153C293.485 174.366 296.857 172.664 304.145 168.987C305.731 168.186 307.503 167.292 309.568 166.262C323.538 158.516 336.69 149.481 347.155 137.754C351.907 132.428 352.977 130.647 355.771 125.993C356.359 125.014 357.024 123.908 357.814 122.615C358.245 121.643 358.661 120.756 359.058 119.91C359.834 118.253 360.539 116.75 361.141 115.068C363.724 107.856 364.711 100.146 363.845 92.5882C363.233 87.2505 362.518 85.3035 360.979 81.1135C360.642 80.1948 360.265 79.1683 359.841 77.9746C359.371 77.0673 358.956 76.2227 358.56 75.4168C357.781 73.8337 357.076 72.3995 356.176 70.9314C349.788 60.5059 340.37 51.8734 330.039 44.8898C328.067 43.5563 326.089 42.3814 324.016 41.1494C322.952 40.5174 321.863 39.8704 320.736 39.1791C318.189 37.7724 315.606 36.4422 312.989 35.1849C314.887 36.6276 316.741 38.1639 318.524 39.6412C319.688 40.6051 320.821 41.5439 321.916 42.4151C322.042 42.5155 322.161 42.6246 322.273 42.7416C323.589 44.1251 324.787 45.3496 325.899 46.4869C330.848 51.5457 334.108 54.8778 338.567 62.7935C344.288 72.9479 347.143 84.5855 345.673 96.4365C345.422 98.4627 344.96 100.398 344.486 102.191C344.314 102.841 344.146 103.454 343.983 104.048C343.675 105.17 343.385 106.226 343.123 107.338C343.069 107.565 342.993 107.786 342.896 107.998C342.157 109.603 341.52 111.035 340.938 112.342C339.851 114.785 338.96 116.788 337.969 118.652C336.358 121.68 334.435 124.476 330.905 128.791C321.956 139.728 310.479 148.296 298.705 155.336C295.786 157.081 292.697 158.699 289.715 160.261C288.273 161.016 286.857 161.758 285.496 162.495C285.419 162.537 285.34 162.576 285.259 162.612C283.787 163.271 282.287 163.962 280.767 164.661C277.651 166.096 274.453 167.568 271.254 168.879C248.438 178.226 224.358 184.094 200.102 187.524C200.062 187.53 200.023 187.535 199.983 187.539C198.383 187.709 196.765 187.89 195.138 188.071C191.845 188.438 188.513 188.809 185.203 189.113C170.21 190.491 154.935 190.887 139.779 189.089C139.759 189.087 139.738 189.084 139.717 189.081C139.704 189.08 139.691 189.078 139.678 189.076C139.147 188.997 138.58 188.919 137.994 188.838C136.745 188.665 135.409 188.48 134.14 188.253C129.141 187.359 123.998 185.965 119.221 183.556C117.875 182.876 117.115 181.411 117.335 179.92C117.555 178.428 118.706 177.245 120.191 176.984L123.295 176.437C124.045 176.305 124.817 176.421 125.495 176.768C129.358 178.743 133.695 179.955 138.217 180.769C139.339 180.971 140.412 181.12 141.561 181.28C142.157 181.362 142.774 181.448 143.428 181.545C157.787 183.245 172.394 182.942 186.927 181.576C189.101 181.372 191.223 181.104 193.407 180.828C194.518 180.688 195.646 180.545 196.804 180.408C220.659 177.08 244.212 171.371 266.433 162.289C269.497 161.037 272.449 159.679 275.478 158.286C276.992 157.59 278.526 156.885 280.102 156.179C281.608 155.365 283.078 154.596 284.523 153.84C287.391 152.34 290.16 150.891 292.91 149.246C304.255 142.461 314.939 134.407 323.134 124.351C326.476 120.251 328.079 117.857 329.383 115.394C330.257 113.742 330.983 112.099 331.971 109.864C332.523 108.615 333.157 107.182 333.944 105.458C334.213 104.343 334.524 103.2 334.818 102.12C334.971 101.558 335.119 101.013 335.255 100.498C335.699 98.8064 336.061 97.2402 336.251 95.696C337.492 85.594 335.082 75.4959 330.035 66.4972C326.08 59.4458 323.47 56.7626 318.684 51.8434C317.599 50.7284 316.403 49.4985 315.054 48.0768C313.799 47.0706 312.617 46.0869 311.466 45.128C309.168 43.214 306.988 41.399 304.578 39.7023C292.216 30.9997 278.31 24.5497 263.81 19.7888C262.508 19.5548 261.205 19.3314 259.899 19.1183C256.661 18.5897 253.457 18.1863 250.181 17.7738C248.522 17.5649 246.844 17.3537 245.135 17.1227C224.199 14.8407 203.053 14.6968 181.993 16.1459C172.266 16.8151 167.003 17.5124 158.776 18.6025C156.848 18.858 154.757 19.135 152.407 19.4384C133.259 22.4066 114.298 26.4514 96.0585 32.6361C87.0929 35.6762 84.463 36.8615 77.9895 39.7791C76.569 40.4194 74.9634 41.143 73.0652 41.988C60.245 48.3068 48.3871 56.3329 38.3229 66.3469C33.352 71.293 31.809 73.3171 28.4597 77.7106C27.7275 78.671 26.909 79.7447 25.9495 80.9869C23.3856 84.7456 21.0427 88.6224 19.0434 92.6205C18.1361 95.954 17.892 98.2994 17.484 102.22C17.3567 103.444 17.2134 104.82 17.029 106.428C17.0831 107.651 17.1043 108.776 17.1246 109.848C17.1641 111.942 17.1999 113.834 17.4694 115.859C18.7643 125.583 22.7135 134.59 28.6977 142.474C33.3271 148.573 36.0925 150.922 41.0501 155.132C42.1713 156.085 43.4046 157.132 44.7969 158.34C46.0218 159.194 47.1912 160.034 48.337 160.857C50.63 162.505 52.8285 164.085 55.1888 165.574C71.2059 175.681 89.3167 183.12 107.655 188.229C110.977 189.155 114.276 189.912 117.662 190.69C119.38 191.085 121.12 191.484 122.898 191.914C150.218 197.494 178.291 198.487 206.109 195.884C209.439 195.573 212.698 195.138 216.035 194.692C217.729 194.466 219.443 194.237 221.196 194.021ZM266.818 12.3357C269.917 12.8738 273.305 13.5498 277.656 14.5269C294.646 18.3423 311.245 24.1839 326.608 32.67C326.654 32.6956 326.7 32.7222 326.745 32.7498C327.713 33.3437 328.735 33.9503 329.782 34.5714C331.973 35.8723 334.272 37.237 336.416 38.6827C347.331 46.0446 357.652 55.3709 364.761 66.9613C365.828 68.7003 366.795 70.6601 367.669 72.4298C368.065 73.2318 368.441 73.9948 368.799 74.6805C368.875 74.8261 368.941 74.977 368.995 75.1318C369.413 76.3103 369.796 77.3513 370.149 78.3102C371.761 82.6915 372.743 85.358 373.455 91.5957C374.452 100.329 373.301 109.159 370.343 117.36C369.626 119.348 368.664 121.393 367.794 123.244C367.398 124.084 367.022 124.884 366.697 125.62C366.632 125.765 366.558 125.905 366.475 126.04C365.662 127.359 364.972 128.501 364.353 129.526C361.437 134.353 360.09 136.584 354.838 142.44C343.547 155.03 329.552 164.549 315.14 172.515C315.096 172.539 315.052 172.563 315.007 172.585C312.951 173.608 311.174 174.503 309.572 175.31C302.184 179.032 298.51 180.883 288.286 184.803C267.598 192.734 246.005 197.905 224.204 201.105C224.167 201.11 224.13 201.115 224.093 201.119C221.227 201.447 218.672 201.75 216.312 202.03C206.163 203.234 199.593 204.014 187.256 204.495C164.524 205.382 141.692 203.772 119.342 199.191C119.302 199.183 119.262 199.174 119.222 199.164C117.588 198.769 115.909 198.383 114.207 197.992C110.715 197.189 107.129 196.365 103.65 195.397C84.7353 190.129 65.9242 182.427 49.1625 171.883C46.6195 170.283 44.1022 168.482 41.689 166.756C40.5305 165.927 39.396 165.116 38.2941 164.352C38.1912 164.281 38.0921 164.204 37.9974 164.122C36.6381 162.945 35.4068 161.903 34.2633 160.936C29.162 156.621 25.8108 153.787 20.6649 147.025C18.2055 143.793 16.0428 140.375 14.2179 136.794C14.1391 136.948 14.0484 137.097 13.9462 137.24C13.356 138.064 12.4375 138.592 11.4283 138.687L8.77889 138.936C7.04254 139.099 5.45089 137.96 5.04654 136.263L3.16986 128.389C3.12696 128.209 3.09841 128.026 3.08444 127.841C2.98727 126.557 2.88906 125.441 2.8001 124.43C2.39086 119.779 2.17719 117.351 3.15876 110.915C4.30979 103.369 6.83501 96.2723 10.1544 89.632C10.5507 88.2945 11.0361 86.8112 11.6405 85.1001C15.5917 73.9139 22.0587 63.8822 30.0058 55.2972C31.9873 53.1567 34.223 51.0968 36.3302 49.1554C37.3254 48.2386 38.2919 47.3481 39.1894 46.488C39.2854 46.3961 39.3865 46.3096 39.4923 46.2292C41.2432 44.8976 42.7409 43.7408 44.0836 42.7038C50.3327 37.8774 53.225 35.6435 62.66 30.4406C82.0226 19.763 103.121 12.8816 124.391 8.04606C124.421 8.03931 124.45 8.03296 124.48 8.02699C124.492 8.02473 124.503 8.02253 124.514 8.02039C126.355 7.67091 128.233 7.29265 130.133 6.90992C134.02 6.12694 138 5.32531 141.945 4.71342C160.467 1.84052 179.322 0.405314 198.134 0.972906C211.208 1.36738 216.418 2.0778 226.382 3.43658C228.587 3.73729 231.025 4.06976 233.833 4.43758C233.914 4.44823 233.995 4.46173 234.076 4.47806C235.878 4.84431 237.73 5.19686 239.606 5.55409C243.456 6.28703 247.41 7.03965 251.248 7.97083C256.461 9.23546 261.664 10.6819 266.818 12.3357ZM91.3767 25.9297C91.4286 25.9121 91.4807 25.8945 91.5329 25.8768C110.344 19.5092 129.794 15.3768 149.251 12.3568C149.28 12.3523 149.31 12.3481 149.339 12.3443C151.041 12.1243 152.767 11.8882 154.509 11.6501C158.049 11.1661 161.649 10.674 165.219 10.2912C173.298 9.42497 181.407 8.75655 189.532 8.32134C179.859 8.25998 170.177 8.7144 160.532 9.67195C150.251 10.6927 143.604 11.9835 134.515 13.7488C132.457 14.1485 130.274 14.5725 127.895 15.0232C115.465 17.8484 103.194 21.368 91.3767 25.9297Z" fill="black"/>
<path d="M304.622 127.172L272.235 129.084L272.856 122.746L280.009 120.334L271.602 105.243L266.941 97.4489L253.27 73.715L247.749 71.9405L249.03 65.5639L278.884 63.802L278.373 70.1332L273.539 72.5188L279.95 83.7475L284.268 91.3413L300.499 119.125L305.904 120.795L304.622 127.172ZM289.733 71.5631L285.534 69.7106L286.815 63.3339L309.178 62.0142L308.667 68.3453L302.732 70.7959L284.268 91.3413L271.602 105.243L258.638 121.595L265.475 123.181L264.193 129.558L239.077 131.04L239.698 124.703L245.639 122.362L266.941 97.4489L279.95 83.7475L289.733 71.5631Z" fill="black"/>
<path d="M171.588 70.1344L204.636 68.184L204.015 74.5216L196.525 76.8429C196.274 77.5946 195.841 79.61 195.223 82.8891C194.606 86.1681 193.981 89.9267 193.346 94.1647L192.149 101.973C191.131 108.445 191.646 113.426 193.694 116.916C195.816 120.402 199.704 121.978 205.359 121.644C209.325 121.41 212.703 119.958 215.493 117.288C218.353 114.54 220.229 110.118 221.122 104.022L222.869 92.4224C223.495 88.0374 223.98 84.3977 224.325 81.5032C224.739 78.5309 224.946 76.4184 224.946 75.1655L217.565 73.7219L218.847 67.3453L244.514 65.8305L243.893 72.1681L236.513 74.4829C236.297 75.8222 235.872 77.9844 235.237 80.9697C234.676 83.9506 234.079 87.5601 233.445 91.7982L231.535 104.402C230.206 113.103 226.901 120.152 221.618 125.549C216.332 130.872 209.539 133.779 201.24 134.268C190.885 134.879 183.301 132.49 178.487 127.099C173.743 121.631 172.08 114.065 173.5 104.401L174.839 95.257C175.465 90.872 175.95 87.2323 176.295 84.3378C176.71 81.3655 176.953 79.2508 177.026 77.9936L170.196 76.5175L171.588 70.1344Z" fill="black"/>
<path d="M120.435 138.043L121.055 131.705L128.533 129.163C128.844 128.187 129.308 126.059 129.925 122.78C130.611 119.423 131.271 115.626 131.906 111.388L133.97 97.6691C134.596 93.2841 135.081 89.6444 135.426 86.7499C135.84 83.7776 136.084 81.6629 136.157 80.4058L129.327 78.9296L130.609 72.553L163.767 70.5961L163.146 76.9337L155.655 79.255C155.353 80.3783 154.889 82.506 154.263 85.6381C153.638 88.7703 153.005 92.4187 152.367 96.5833L150.302 110.302C150.005 112.752 149.705 115.164 149.403 117.54C149.101 119.917 148.821 122.033 148.562 123.891C148.372 125.671 148.232 127.043 148.141 128.006L154.985 129.702L153.703 136.079L120.435 138.043Z" fill="black"/>
<path d="M49.6411 77.3314L82.6891 75.381L82.0682 81.7186L74.5777 84.0399C74.3273 84.7917 73.8935 86.807 73.2764 90.0861C72.6592 93.3651 72.0336 97.1237 71.3993 101.362L70.202 109.17C69.1838 115.642 69.6988 120.623 71.7472 124.113C73.869 127.599 77.7573 129.175 83.4122 128.841C87.378 128.607 90.756 127.155 93.5462 124.485C96.4055 121.737 98.2817 117.315 99.1748 111.219L100.922 99.6194C101.548 95.2344 102.033 91.5947 102.378 88.7002C102.792 85.7279 102.999 83.6154 102.999 82.3626L95.6179 80.9189L96.8997 74.5423L122.567 73.0275L121.946 79.3651L114.566 81.6799C114.35 83.0192 113.925 85.1814 113.29 88.1667C112.729 91.1477 112.132 94.7572 111.498 98.9953L109.588 111.599C108.259 120.3 104.954 127.349 99.6715 132.746C94.3848 138.069 87.5921 140.976 79.2933 141.465C68.9383 142.076 61.354 139.687 56.5404 134.296C51.796 128.828 50.1334 121.262 51.5529 111.598L52.8925 102.454C53.518 98.069 54.0033 94.4293 54.3484 91.5348C54.7625 88.5625 55.0062 86.4478 55.0794 85.1907L48.2491 83.7145L49.6411 77.3314Z" fill="black"/>
</g>
<defs>
<clipPath id="clip0_201_26">
<rect width="377" height="207" fill="white"/>
</clipPath>
</defs>
</svg>
