<svg width="585" height="765" viewBox="0 0 585 765" fill="none" xmlns="http://www.w3.org/2000/svg">
<g clip-path="url(#clip0_2_77)">
<path d="M519.358 254.653C520.84 254.752 526.04 251.69 525.06 245.842C529.284 233.385 532.426 214.98 532.621 209.809C532.735 206.774 525.259 203.987 525.259 203.987C521.3 201.59 513.934 177.887 500.235 168.178C495.009 169.004 509.597 169.516 510.159 170.021C511.2 158.345 511.544 121.836 515.746 114.923C514.633 104.147 516.51 73.4678 504.206 66.8869C470.646 67.351 392.175 68.1376 346.162 71.0487C243.27 77.1064 269.469 78.4063 181.793 80.0851C176.672 81.4016 188.018 93.5048 185.957 103.746C187.265 97.2465 194.168 191.096 191.27 195.01C194.837 193.722 191.157 241.041 202.312 253.003C208.478 258.823 184.42 335.458 192.504 337.483C279.937 355.934 453.006 380.624 514.958 375.148C511.466 375.714 520.973 355.467 520.162 351.851C518.074 342.536 529.223 256.3 519.358 254.653Z" fill="#27405B"/>
<mask id="mask0_2_77" style="mask-type:alpha" maskUnits="userSpaceOnUse" x="-238" y="-24" width="719" height="797">
<path d="M-236.66 -19.0516C-236.397 -33.8636 294.166 -6.14408 277.495 40.9662C260.825 88.0765 197.641 236.327 264.881 212.82C276.664 210.057 279.524 322.681 307.054 334.822C341.692 350.096 416.121 333.26 415.146 354.314C414.441 369.559 411.818 398.408 453.201 427.803C643.665 563.093 -238 772.351 -238 772.351C-238 772.351 -237.387 21.8347 -236.66 -19.0516Z" fill="#B7A9BD"/>
</mask>
<g mask="url(#mask0_2_77)">
<path d="M162.055 166.166C162.68 169.046 166.851 155.393 155.536 163.373C150.32 167.052 134.119 162.442 134.119 162.442C127.684 163.806 85.7815 167.796 85.0568 160.453C82.9803 162.833 88.4192 174.594 89.3122 182.179C72.6828 179.063 75.8552 181.925 76.1687 199.207C81.3911 230.429 91.6268 419.842 93.4495 472.301C85.6444 468.597 92.7669 525.855 89.7282 526.857C100.462 533.299 133.264 528.923 138.382 534.615C142.905 516.968 265.656 504.516 280.553 486.166C284.082 481.525 286.524 489.532 292.115 488.905C284.075 470.753 365.419 464.479 366.217 468.061C363.657 444.654 360.916 381.663 365.242 319.073C368.058 285.977 347.165 238.184 347.708 219.437C347.708 219.437 314.982 219.406 313.614 213.85C305.821 182.19 332.6 161.952 329.2 157.979C307.112 149.112 310.169 149.758 293.572 160.082C292.186 144.294 162.49 163.659 162.055 166.166Z" fill="#22637B"/>
</g>
<path d="M368.223 658.221C352.296 649.694 250.175 657.631 238.548 658.3C181.689 656.377 189.703 646.182 133.458 646.188C105.819 644.535 67.3153 647.568 43.1373 643.175C42.9934 641.338 43.1229 625.206 44.3281 623.135C50.1992 615.576 45.9765 602.439 57.7201 605.635C56.6031 584.971 56.7551 547.49 43.0898 534.453C40.8125 517.692 52.1834 523.005 53.6166 503.361C54.8068 496.275 59.5577 495.228 59.5916 496.275C64.5372 497.901 61.2026 492.977 60.5484 487.894C49.9652 485.188 47.8032 484.257 42.5524 482.797C30.0596 491.659 65.0705 455.226 64.871 451.26C68.7715 450.666 75.1318 454.356 77.5584 451.27C76.8622 453.134 97.8136 455.087 103.241 453.039C104.116 462.029 150.167 452.978 144.694 462.058C149.138 457.659 170.968 456.986 179.201 455.925C174.901 456.374 190.75 457.057 189.695 456.523C187.533 458.825 196.617 456.024 198.561 457.315C200.342 455.171 211.19 454.523 217.274 455.875C217.253 453.941 222.999 456.658 223.749 457.589C224.493 456.73 288.27 455.98 288.231 459.343C318.444 456.334 334.953 456.821 366.309 466.399C358.965 481.351 334.679 533.131 331.858 543.686C329.944 552.066 333.13 566.134 329.944 570.691C330.214 576.914 356.316 570.769 359.61 580.002C366.979 600.657 372.905 644.225 368.223 658.221Z" fill="#84DFC8"/>
<path d="M514.131 691.743C508.13 682.081 538.469 593.039 518.023 598.382C513.334 554.62 512.064 506.953 512.038 462.478C512.036 459.393 502.299 456.312 502.299 453.232C502.297 448.795 505.369 436.602 501.475 431.014C498.481 426.719 512.002 429.629 511.969 424.496C511.746 390.723 510.755 357.648 506.282 326.309C504.907 327.525 474.367 319.813 454.135 333.432C427.479 328.428 432.134 329.478 407.763 323.122C409.35 330.102 397.14 316.207 382.882 325.287C369.114 322.617 341.708 322.801 331.307 328.772C306.657 338.806 314.019 335.162 311.302 349.998C313.111 353.405 311.217 350.865 313.057 349.913C313.257 355.363 316.035 371.602 316.487 372.321C314.318 372.492 313.753 371.929 314.105 372.556C314.582 374.84 320.3 427.014 319.195 432.328C318.886 440.691 314.424 453.176 316.685 450.235C320.042 454.791 315.732 457.962 316.845 462.848C317.605 461.174 318.074 464.429 319.026 465.267C310.697 468.345 319.3 545.839 320.767 565.076C316.033 590.342 333.041 693.342 326.865 698.456C320.412 703.8 391.645 690.898 377.132 685.59C390.049 672.551 425.395 702.358 432.586 685.473C431.313 678.401 465.52 693.461 471.775 692.168C497.788 696.739 486.743 694.617 514.131 691.743Z" fill="#012752"/>
<path d="M240.403 140.032C223.064 146.812 204.621 145.303 189.155 157.095C180.99 157.82 177.505 159.37 173.329 166.509C162.713 169.258 159.057 177.28 154.765 186.837C151.472 197.81 136.88 203.206 136.878 213.452C139.036 221.174 130.357 227.07 127.576 233.479C124.688 242.376 124.582 250.376 119.056 257.796C116.96 281.25 72.8711 352.987 123.069 354.619C131.453 353.555 138.603 351.759 138.893 361.734C140.067 387.218 148.699 410.435 147.205 435.025C154.995 458.136 165.229 496.704 195.966 490.474C217.077 504.484 216.537 485.543 231.732 495.445C240.983 493.882 249.654 491.429 258.725 493.78C262.811 496.874 265.155 496.048 268.487 492.882C266.134 497.896 268.303 498.853 270.305 503.981C268.349 510.124 266.847 514.229 268.498 520.872C275.149 533.092 265.079 545.088 271.826 557.663C271.699 570.653 295.276 563.994 292.106 555.227C284.394 553.537 291.334 544.325 286.06 540.744C280.772 534.301 292.006 528.17 286.927 519.908C280.947 505.722 287.699 478.55 266.19 477.72C259.73 475.193 254.771 476.314 248.752 478.839C238.869 478.424 232.243 472.825 222.487 474.45C213.505 481.313 208.357 473.953 198.869 472.789C193.056 474.141 189.839 475.115 185.834 469.664C178.392 468.784 178.308 463.769 175.463 458.357C168.547 449.998 167.981 440.891 168.475 430.651C165.919 418.902 159.519 409.933 158.367 397.88C163.038 379.888 159.429 359.439 150.037 343.267C140.275 331.693 126.826 337.642 115.396 336.357C112.262 313.535 113.685 325.183 122.993 304.834C125.189 295.545 130.335 289.243 133.504 280.588C132.835 272.585 134.597 269.663 140.22 264.708C141.865 255.586 142.15 247.747 145.148 239.135C150.052 234.059 152.911 231.56 152.882 224.063C152.148 216.634 153.28 213.501 159.513 209.61C163.399 200.722 172.278 195.778 175.575 187.647C181.292 178.602 192.724 168.605 204.418 169.128C216.996 161.591 229.19 160.057 242.821 157.782C256.562 164.077 253.063 133.179 240.403 140.032Z" fill="white"/>
<path d="M353.545 6.19674C337.241 13.6881 319.266 12.2312 304.394 23.3489C296.387 23.9569 292.965 25.2071 288.841 32.3091C278.538 34.759 274.44 43.1392 270.796 52.3888C266.505 65.0345 251.144 70.5329 254.979 83.9171C246.069 96.3312 246.282 110.405 240.155 123.447C240.933 137.786 233.055 149.352 229.216 163.115C229.667 180.378 215.382 207.914 234.8 218.057C244.02 226.062 262.423 213.192 266.897 225.983C269.066 249.115 278.981 269.495 278.382 292.118C288.1 312.813 292.762 351.635 321.98 349.49C330.907 356.031 340.785 359.112 349.31 351.351C358.146 357.027 365.048 352.855 374.478 350.927C384.384 349.645 391.275 352.444 400.457 349.396C402.738 348.91 401.84 353.501 403.815 351.075C409.094 348.215 401.443 355.636 404.807 363.377C411.312 375.193 399.645 387.414 407.335 399.661C408.067 412.997 430.846 404.067 427.383 395.936C420.547 393.823 424.853 384.186 419.668 379.247C429.568 367.245 418.592 355.56 418.488 341.238C416.012 328.248 401.647 342.076 394.696 335.419C381.69 327.849 369.412 342.201 356.118 333.988C346.149 332.829 341.13 342.66 333.34 334.225C327.924 331.981 325.139 332.745 319.923 332.723C316.809 327.314 311.504 326.825 308.58 321.831C305.514 309.766 297.409 300.044 299.407 286.674C296.317 275.334 289.401 267.067 287.433 255.411C295.375 229.116 276.044 191.655 245.391 203.887C239.981 202.84 237.831 201.188 242.192 196.86C240.133 194.3 239.572 190.769 239.809 187.562C245.161 174.024 251.417 159.19 256.305 144.673C255.017 136.918 256.546 134.011 261.751 128.849C263.084 117.027 261.086 104.782 270.527 96.639C271.715 90.9808 270.536 85.7457 270.604 80.2445C278.359 74.2854 281.022 64.418 288.495 58.4249C294.547 47.3034 304.852 34.9905 319.272 35.6724C329.43 31.5962 338.048 24.9031 349.108 26.2373C354.85 22.2931 361.34 27.1728 363.955 21.7057C367.742 14.4286 361.796 1.53243 353.545 6.19674Z" fill="white"/>
<path d="M477.276 384.496C463.709 389.591 449.56 386.281 436.645 394.164C430.074 393.214 427.45 393.441 423.499 398.956C414.686 398.198 410.794 404.372 405.959 410.543C399.579 420.152 385.044 417.369 385.421 429.635C373.542 436.218 372.126 448.214 364.94 458.001C366.271 466.501 358.663 468.639 358.514 476.783C349.054 484.54 349.859 496.592 346.962 507.32C331.158 520.012 330.06 535.226 342.408 551.704C348.856 560.717 366.534 549.856 364.685 562.983C366.679 573.178 365.411 583.212 363.119 593.3C365.502 602.35 367.521 611.655 364.127 620.236C369.34 627.763 364.326 640.566 371.755 645.363C378.886 648.639 374.749 659.494 382.585 663.943C398.302 662.631 391.58 671.478 402.436 671.831C410.777 671.988 419.54 670.531 426.788 674.676C432.34 671.932 434.561 671.522 439.413 675.446C447.732 671.016 446.775 677.288 452.777 678.359C463.318 674.233 450.696 681.069 451.136 684.444C446.26 700.675 463.721 706.734 472.668 693.316C465.386 690.91 472.045 689.404 470.093 683.957C466.626 676.403 477.179 668.89 471.114 661.115C462.909 659.927 455.472 664.695 448.492 659.333C437.828 662.649 431.14 657.311 421.659 654.636C410.842 664.119 405.689 646.192 395.279 650.394C390.519 647.285 395.641 640.051 386.236 636.039C386.738 630.859 385.82 628.761 383.179 624.581C385.49 617.871 383.767 612.063 382.128 605.412C386.454 593.603 383.37 584.01 379.659 573.017C380.783 560.195 390.323 540.457 368.779 538.078C363.909 536.633 352.988 542.38 353.034 534.745C349.835 527.504 349.233 523.771 358.19 520.699C359.181 513.213 359.006 506.028 365.988 501.738C369.275 492.8 373.771 486.275 378.676 478.548C378.142 471.76 379.841 470.168 385.269 467.066C386.982 460.406 386.904 454.538 390.233 448.485C398.343 446.357 398.604 440.414 400.177 433.219C406.364 431.537 411.085 428.466 416.05 424.014C421.558 422.681 422.495 420.031 425.029 415.83C430.131 414.786 432.221 413.038 435.617 409.623C446.207 407.888 455.49 407.314 465.615 402.681C470.365 403.609 473.368 403.935 477.964 402.414C480.979 402.468 481.248 406.814 483.528 401.419C487.1 395.476 485.469 381.487 477.276 384.496Z" fill="white"/>
<path d="M306.489 141.279C299.113 141.27 299.647 146.409 301.331 149.33C330.641 195.227 422.155 208.738 440.772 146.912C441.851 143.327 442.686 139.488 443.249 135.388C451.203 77.443 319.021 92.671 306.489 141.279Z" fill="white"/>
<path d="M361.515 170.92C311.733 190.431 313.473 96.1632 366.768 115.555L361.449 125.253C377.8 132.868 395.666 157.536 361.515 170.92Z" fill="#27405B"/>
<path d="M164.744 279.225C160.249 278.901 160.353 282.056 161.252 283.909C177.131 313.148 232.32 325.339 246.34 288.464C247.152 286.326 247.827 284.023 248.347 281.548C255.7 246.577 174.483 250.143 164.744 279.225Z" fill="white"/>
<path d="M196.452 299.427C165.268 309.166 170.405 251.79 202.047 265.912L198.386 271.593C208.022 276.941 217.844 292.747 196.452 299.427Z" fill="#22637B"/>
<path d="M432.295 497.483C426.982 495.985 425.701 499.953 427.071 502.912C444.802 541.417 511.18 560.527 536.667 519.903C538.891 517.298 539.469 513.719 539.278 511.397C545.685 475.809 449.852 471.203 432.295 497.483Z" fill="white"/>
<path d="M469.558 528.105C428.023 536.552 442.238 463.176 481.21 485.587L475.735 492.435C487.464 500.611 498.051 522.311 469.558 528.105Z" fill="#012752"/>
</g>
<defs>
<clipPath id="clip0_2_77">
<rect width="585" height="765" fill="white"/>
</clipPath>
</defs>
</svg>
