<svg width="706" height="611" viewBox="0 0 706 611" fill="none" xmlns="http://www.w3.org/2000/svg">
<g clip-path="url(#clip0_38_2)">
<mask id="mask0_38_2" style="mask-type:alpha" maskUnits="userSpaceOnUse" x="-17" y="241" width="726" height="336">
<path d="M701.5 242L-16.5 247L-8.60901 572.927L9.75 570.5C9.75 570.5 20.5 526 54.5 533.75C62.5 499.25 111.5 501.75 119.25 533.062C120.938 529.875 129.5 527.312 136.375 529.75C141.875 502.5 169.5 486.5 198.75 500.25C218 460.188 276.5 473.875 279.25 516.625C285.5 512.625 297.062 510.375 306.5 512.812C318.125 480.25 368.375 477.625 379 520C389.562 511.688 408.5 513.125 417.938 521.438C431.062 497.625 467.625 495.75 482.375 520.562C493.812 516.125 506.312 522.812 509.375 530.25C510.187 529.25 511.719 528.969 512.844 529C523.844 499.438 556 503.094 567.25 523.969C559.25 461.438 645.562 464.5 641.25 520.375C652.562 521.188 658.938 530.875 659.875 539.25C662.188 539.188 666.188 540 669.312 542.875C677.688 546.312 692.25 560.5 696 571.75C695.419 580.745 708.5 574 708.5 574L701.5 242Z" fill="white"/>
<path d="M701.5 242L-16.5 247L-8.60901 572.927L9.75 570.5C9.75 570.5 20.5 526 54.5 533.75C62.5 499.25 111.5 501.75 119.25 533.062C120.938 529.875 129.5 527.312 136.375 529.75C141.875 502.5 169.5 486.5 198.75 500.25C218 460.188 276.5 473.875 279.25 516.625C285.5 512.625 297.062 510.375 306.5 512.812C318.125 480.25 368.375 477.625 379 520C389.562 511.688 408.5 513.125 417.938 521.438C431.062 497.625 467.625 495.75 482.375 520.562C493.812 516.125 506.312 522.812 509.375 530.25C510.187 529.25 511.719 528.969 512.844 529C523.844 499.438 556 503.094 567.25 523.969C559.25 461.438 645.562 464.5 641.25 520.375C652.562 521.188 658.938 530.875 659.875 539.25C662.188 539.188 666.188 540 669.312 542.875C677.688 546.312 692.25 560.5 696 571.75C695.419 580.745 708.5 574 708.5 574L701.5 242Z" stroke="#1D2445" stroke-linecap="round" stroke-linejoin="round"/>
</mask>
<g mask="url(#mask0_38_2)">
<path d="M270.669 306.83C238.161 291.428 188.631 305.418 180.878 356.348C139.246 366.493 126.816 425.005 158.76 448.637C155.249 466.035 167.379 499.449 201.261 504.325C235.143 509.202 250.165 505.074 272.327 498.858C294.489 492.642 311.766 476.312 320.135 454.362C328.277 433.043 323.026 412.848 308.383 396.825C303.979 391.995 298.685 386.846 292.622 383.612C308.237 363.226 306.733 323.834 270.669 306.83Z" fill="#1D2445" fill-opacity="0.12"/>
<path d="M270.669 306.83C238.161 291.428 188.631 305.418 180.878 356.348C139.246 366.493 126.816 425.005 158.76 448.637C155.249 466.035 167.379 499.449 201.261 504.325C235.143 509.202 250.165 505.074 272.327 498.858C294.489 492.642 311.766 476.312 320.135 454.362C328.277 433.043 323.026 412.848 308.383 396.825C303.979 391.995 298.685 386.846 292.622 383.612C308.237 363.226 306.733 323.834 270.669 306.83Z" stroke="#1D2445" stroke-width="1.035" stroke-linecap="round" stroke-linejoin="round"/>
<path d="M522.839 466.019C515.454 476 504.93 482.307 493.649 484.57C485.509 486.197 423.45 484.703 419.819 485.143C399.139 487.641 380.156 480.498 365.929 462.988C353.751 447.998 356.748 403.748 376.454 387.386C386.979 377.767 408.608 375.228 410.254 362.398C412.708 340.146 429.169 314.78 459.66 317.571C490.152 320.361 503.715 348.063 501.171 367.457C499.459 384.016 505.882 394.238 517.054 400.5C533.603 409.731 538.21 445.226 522.839 466.019Z" fill="#E3E4E8"/>
<path d="M522.839 466.019C515.454 476 504.93 482.307 493.649 484.57C485.509 486.197 423.45 484.703 419.819 485.143C399.139 487.641 380.156 480.498 365.929 462.988C353.751 447.998 356.748 403.748 376.454 387.386C386.979 377.767 408.608 375.228 410.254 362.398C412.708 340.146 429.169 314.78 459.66 317.571C490.152 320.361 503.715 348.063 501.171 367.457C499.459 384.016 505.882 394.238 517.054 400.5C533.603 409.731 538.21 445.226 522.839 466.019Z" stroke="#1D2445" stroke-width="1.035" stroke-linecap="round" stroke-linejoin="round"/>
<path d="M237.238 475.343C244.245 504.7 221.39 518.26 175.395 527.053C127.248 536.258 100.848 538.127 94.2974 530.209C85.2451 519.266 84.314 500.733 84.2821 492.737C83.4857 471.516 132.32 354.998 161.322 302.871C186.87 354.447 230.23 445.987 237.238 475.343Z" fill="white"/>
<path d="M237.238 475.343C244.245 504.7 221.39 518.26 175.395 527.053C127.248 536.258 100.848 538.127 94.2974 530.209C85.2451 519.266 84.314 500.733 84.2821 492.737C83.4857 471.516 132.32 354.998 161.322 302.871C186.87 354.447 230.23 445.987 237.238 475.343Z" stroke="#1D2445" stroke-width="1.035" stroke-linecap="round" stroke-linejoin="round"/>
<path d="M331.194 356.919C306.499 360.73 302.602 390.709 303.747 398.46C304.596 404.173 294.129 406.704 290.957 408.249C264.397 418.261 257.632 439.219 258.917 462.111C259.77 477.572 264.745 503.112 267.978 510.633C271.214 518.164 273.22 526.672 288.983 532.187C305.496 537.704 358.502 532.522 371.154 529.663C383.806 526.804 409.914 514.278 410.641 513.286C416.707 505.031 419.839 495.187 419.882 485.246C419.911 479.165 421.076 475.102 416.418 467.223C425.099 458.108 420.056 421.743 410.441 411.519C400.825 401.295 386.713 392.418 373.482 390.652C374.72 383.422 362.448 352.08 331.194 356.919Z" fill="white"/>
<path d="M331.194 356.919C306.499 360.73 302.602 390.709 303.747 398.46C304.596 404.173 294.129 406.704 290.957 408.249C264.397 418.261 257.632 439.219 258.917 462.111C259.77 477.572 264.745 503.112 267.978 510.633C271.214 518.164 273.22 526.672 288.983 532.187C305.496 537.704 358.502 532.522 371.154 529.663C383.806 526.804 409.914 514.278 410.641 513.286C416.707 505.031 419.839 495.187 419.882 485.246C419.911 479.165 421.076 475.102 416.418 467.223C425.099 458.108 420.056 421.743 410.441 411.519C400.825 401.295 386.713 392.418 373.482 390.652C374.72 383.422 362.448 352.08 331.194 356.919Z" stroke="#1D2445" stroke-width="1.035" stroke-linecap="round" stroke-linejoin="round"/>
<path d="M632.962 499.392C627.159 521.755 595.123 528.49 577.808 532.217C560.493 535.944 516.931 539.197 506.543 536.87C494.051 534.07 478.878 527.025 474.22 508.609C463.195 465.015 492.329 410.493 505.235 382.573C521.359 348.029 540.302 308.103 555.778 282.853C563.7 308.302 598.571 375.526 612.369 408.781C625.05 439.599 638.765 477.028 632.962 499.392Z" fill="white"/>
<path d="M632.962 499.392C627.159 521.755 595.123 528.49 577.808 532.217C560.493 535.944 516.931 539.197 506.543 536.87C494.051 534.07 478.878 527.025 474.22 508.609C463.195 465.015 492.329 410.493 505.235 382.573C521.359 348.029 540.302 308.103 555.778 282.853C563.7 308.302 598.571 375.526 612.369 408.781C625.05 439.599 638.765 477.028 632.962 499.392Z" stroke="#1D2445" stroke-width="1.035" stroke-linecap="round" stroke-linejoin="round"/>
<path d="M674.694 510.413C674.731 523.2 673.255 536.129 666.601 541.888C638.298 550.981 607.501 534.945 599.471 528.377C591.44 521.808 585.83 503.719 588.114 479.794C591.273 455.867 625.228 366.347 638.38 349.039C639.187 370.54 674.588 473.761 674.694 510.413Z" fill="#FFE0F3"/>
<path d="M674.694 510.413C674.731 523.2 673.255 536.129 666.601 541.888C638.298 550.981 607.501 534.945 599.471 528.377C591.44 521.808 585.83 503.719 588.114 479.794C591.273 455.867 625.228 366.347 638.38 349.039C639.187 370.54 674.588 473.761 674.694 510.413Z" stroke="#1D2445" stroke-width="1.035" stroke-linecap="round" stroke-linejoin="round"/>
<path d="M132.978 548.087C118.342 550.846 93.3118 547.904 65.4059 540.938C45.9863 534.653 16.8758 517.479 12.849 494.153C5.68211 452.951 38.2901 428.946 54.7279 425.974C57.7921 397.99 86.6966 377.633 112.289 385.43C137.187 392.928 147.755 416.303 141.575 434.841C135.679 447.377 141.155 456.839 148.968 463.545C159.702 472.577 166.069 495.108 155.357 517.57C153.724 521.181 156.066 543.733 132.978 548.087Z" fill="#FFE0F3"/>
<path d="M132.978 548.087C118.342 550.846 93.3118 547.904 65.4059 540.938C45.9863 534.653 16.8758 517.479 12.849 494.153C5.68211 452.951 38.2901 428.946 54.7279 425.974C57.7921 397.99 86.6966 377.633 112.289 385.43C137.187 392.928 147.755 416.303 141.575 434.841C135.679 447.377 141.155 456.839 148.968 463.545C159.702 472.577 166.069 495.108 155.357 517.57C153.724 521.181 156.066 543.733 132.978 548.087Z" stroke="#1D2445" stroke-width="1.035" stroke-linecap="round" stroke-linejoin="round"/>
<path d="M497.987 524.217C497.287 527.427 447.372 539.96 419.309 536.821C400.622 534.801 355.23 525.822 352.69 502.379C350.599 479.906 366.46 452.271 387.607 448.866C389.955 440.994 393.522 400.612 432.257 402.367C470.987 404.12 474.822 447.225 474.694 453.177C474.566 459.123 475.695 465.36 479.645 469.507C484.238 474.328 505.099 491.591 497.987 524.217Z" fill="#FFE0F3"/>
<path d="M497.987 524.217C497.287 527.427 447.372 539.96 419.309 536.821C400.622 534.801 355.23 525.822 352.69 502.379C350.599 479.906 366.46 452.271 387.607 448.866C389.955 440.994 393.522 400.612 432.257 402.367C470.987 404.12 474.822 447.225 474.694 453.177C474.566 459.123 475.695 465.36 479.645 469.507C484.238 474.328 505.099 491.591 497.987 524.217Z" stroke="#1D2445" stroke-width="1.035" stroke-linecap="round" stroke-linejoin="round"/>
</g>
<path d="M9.75 570.501C9.75 570.501 20.5 526.001 54.5 533.751C62.5 499.251 111.5 501.751 119.25 533.064C120.938 529.876 129.5 527.314 136.375 529.751C141.875 502.501 169.5 486.501 198.75 500.251C218 460.189 276.5 473.876 279.25 516.626C285.5 512.626 297.062 510.376 306.5 512.814C318.125 480.251 368.375 477.626 379 520.001C389.562 511.689 408.5 513.126 417.938 521.439C431.062 497.626 467.624 495.751 482.375 520.564C493.812 516.126 506.312 522.814 509.375 530.251C510.187 529.251 511.719 528.97 512.844 529.001C523.844 499.439 556 503.095 567.25 523.97C559.25 461.439 645.562 464.501 641.25 520.376C652.562 521.189 658.938 530.876 659.875 539.251C662.188 539.189 666.188 540.001 669.312 542.876C677.688 546.314 692.25 560.501 696 571.751" stroke="#1D2445" stroke-linecap="round" stroke-linejoin="round"/>
<path d="M225.883 261.25L269.327 362.673" stroke="#1C2344" stroke-width="1.89" stroke-linecap="round" stroke-linejoin="round"/>
<path d="M247.234 251.383L269.373 362.767" stroke="#1C2344" stroke-width="1.89" stroke-linecap="round" stroke-linejoin="round"/>
<path d="M260.869 264.848L269.234 362.646" stroke="#1C2344" stroke-width="1.89" stroke-linecap="round" stroke-linejoin="round"/>
<path d="M323.041 270.551L309.258 369.241" stroke="#1C2344" stroke-width="1.89" stroke-linecap="round" stroke-linejoin="round"/>
<path d="M336.416 268.238L309.341 369.202" stroke="#1C2344" stroke-width="1.89" stroke-linecap="round" stroke-linejoin="round"/>
<path d="M347.367 276.234L309.276 369.233" stroke="#1C2344" stroke-width="1.89" stroke-linecap="round" stroke-linejoin="round"/>
<path d="M257.184 280.344L276.237 351.711" stroke="#1C2344" stroke-width="1.89" stroke-linecap="round" stroke-linejoin="round"/>
<path d="M273.613 265.91L276.303 351.647" stroke="#1C2344" stroke-width="1.89" stroke-linecap="round" stroke-linejoin="round"/>
<path d="M302.723 263.684L276.182 351.568" stroke="#1C2344" stroke-width="1.89" stroke-linecap="round" stroke-linejoin="round"/>
<path d="M340.141 274.703L325.797 363.447" stroke="#1C2344" stroke-width="1.89" stroke-linecap="round" stroke-linejoin="round"/>
<path d="M358.336 290.586L325.797 363.466" stroke="#1C2344" stroke-width="1.89" stroke-linecap="round" stroke-linejoin="round"/>
<path d="M367.255 280.691L325.782 363.464" stroke="#1C2344" stroke-width="1.89" stroke-linecap="round" stroke-linejoin="round"/>
<path d="M308.07 191.358C288.28 187.799 279.027 187.421 266.47 200.2C252.471 210.421 246.749 246.423 246.82 251.877C249.61 253.507 256.061 261.836 260.004 264.632C264.228 264.877 314.838 271.339 322.533 272.327C325.555 271.408 334.246 268.786 336.397 268.149C340.376 271.389 344.351 274.049 347.416 276.292C349.289 276.571 352.6 276.822 355.635 276.94C356.92 274.238 359.606 272.878 361.09 269.94C362.882 254.297 361.787 219.342 347.189 206.622C337.484 198.011 327.839 194.915 308.07 191.358Z" fill="#1D2445"/>
<path d="M269.069 198.718C277.107 190.324 268.584 190.577 253.371 198.646C231.158 210.427 224.171 243.033 225.067 261.629C231.658 258.062 239.673 254.067 247.359 251.678C248.578 239.283 261.031 207.111 269.069 198.718Z" fill="#1D2445"/>
<path d="M266.606 202.975C254.874 216.543 247.535 245.752 247.477 251.765" stroke="white" stroke-width="0.98" stroke-linecap="round" stroke-linejoin="round"/>
<path d="M354.111 217.34C363.235 224.755 363.065 255.797 361.11 263.1" stroke="white" stroke-width="0.98" stroke-linecap="round" stroke-linejoin="round"/>
<path d="M272.69 186.575C268.488 187.309 263.004 190.137 258.834 192.663C254.029 195.573 246.465 201.152 237.403 214.48C244.418 204.765 247.843 222.716 248.943 232.347C250.053 241.988 254.95 264.399 256.923 281.354C261.036 277.82 271.031 269.335 273.605 265.739C283.92 250.518 286.578 227.696 286.554 212.082C286.257 196.788 276.391 185.933 272.69 186.575Z" fill="white"/>
<path d="M272.69 186.575C268.488 187.309 263.004 190.137 258.834 192.663C254.029 195.573 246.465 201.152 237.403 214.48C244.418 204.765 247.843 222.716 248.943 232.347C250.053 241.988 254.95 264.399 256.923 281.354C261.036 277.82 271.031 269.335 273.605 265.739C283.92 250.518 286.578 227.696 286.554 212.082C286.257 196.788 276.391 185.933 272.69 186.575Z" stroke="#1D2445" stroke-width="0.98" stroke-linecap="round" stroke-linejoin="round"/>
<path d="M350.728 196.968C344.333 204.284 359.467 222.427 359.237 235.926C359.644 245.499 371.518 266.876 367.72 280.868C365.428 284.67 357.632 293.913 354.951 296.674C355.67 290.02 356.836 272.431 356.16 267.129C360.289 242.456 362.936 233.021 360.264 225.328C357.589 217.628 358.206 205.377 350.728 196.968Z" fill="#1D2445"/>
<path d="M350.728 196.968C344.333 204.284 359.467 222.427 359.237 235.926C359.644 245.499 371.518 266.876 367.72 280.868C365.428 284.67 357.632 293.913 354.951 296.674C355.67 290.02 356.836 272.431 356.16 267.129C360.289 242.456 362.936 233.021 360.264 225.328C357.589 217.628 358.206 205.377 350.728 196.968Z" stroke="#1D2445" stroke-width="0.98" stroke-linecap="round" stroke-linejoin="round"/>
<path d="M350.807 196.45C338.812 188.066 311.251 176.757 272.717 186.546C278.764 197.951 279.635 217.141 279.264 227.448C278.588 245.389 276.129 253.848 273.417 266.213C283.829 265.97 347.082 275.444 367.476 280.808C370.904 275.015 377.706 264.95 380.352 252.988C384.474 234.427 371.53 210.479 350.807 196.45Z" fill="white"/>
<path d="M350.807 196.45C338.812 188.066 311.251 176.757 272.717 186.546C278.764 197.951 279.635 217.141 279.264 227.448C278.588 245.389 276.129 253.848 273.417 266.213C283.829 265.97 347.082 275.444 367.476 280.808C370.904 275.015 377.706 264.95 380.352 252.988C384.474 234.427 371.53 210.479 350.807 196.45Z" stroke="#1D2445" stroke-width="0.98" stroke-linecap="round" stroke-linejoin="round"/>
<path d="M273.5 266.002C282.647 254.733 315.516 239.345 341.602 245.09C367.615 250.802 370.772 269.35 367.229 280.738" stroke="#1D2445" stroke-width="0.98" stroke-linecap="round" stroke-linejoin="round"/>
<path d="M278.744 515.57C276.359 514.288 272.642 513.554 271.01 514.205C269.378 514.856 267.518 517.977 268.826 520.448C269.503 521.727 273.006 523.436 274.732 523.788C278.155 524.485 280.137 516.319 278.744 515.57Z" fill="white"/>
<path d="M278.744 515.57C276.359 514.288 272.642 513.554 271.01 514.205C269.378 514.856 267.518 517.977 268.826 520.448C269.503 521.727 273.006 523.436 274.732 523.788C278.155 524.485 280.137 516.319 278.744 515.57Z" stroke="#1D2445" stroke-width="1.05"/>
<path d="M262.256 519.568L311.23 529.014C317.993 530.319 324.534 525.893 325.839 519.13L326.213 517.188C326.724 514.541 325.22 511.918 322.677 511.022L260.415 489.333C255.952 488.037 254.672 486.786 251.258 490.883C248.595 494.079 247.826 498.239 247.826 498.239C245.921 508.114 252.381 517.663 262.256 519.568Z" fill="#1D2445"/>
<path d="M278.805 495.272C278.805 495.272 285.446 495.433 290.691 498.394C296.203 501.506 289.544 505.776 286.713 510.29C283.958 514.685 283.075 519.368 285.527 522.031C287.67 524.358 289.543 524.537 289.543 524.537C289.543 524.537 280.585 526.953 271.811 522.616C271.811 522.616 272.902 514.218 279.843 505.156C282.653 501.486 282.632 496.888 278.805 495.272Z" fill="white"/>
<path d="M278.805 495.272C278.805 495.272 285.446 495.433 290.691 498.394C296.203 501.506 289.544 505.776 286.713 510.29C283.958 514.685 283.075 519.368 285.527 522.031C287.67 524.358 289.543 524.537 289.543 524.537C289.543 524.537 280.585 526.953 271.811 522.616C271.811 522.616 272.902 514.218 279.843 505.156C282.653 501.486 282.632 496.888 278.805 495.272Z" stroke="#1D2445" stroke-width="1.05" stroke-linecap="round" stroke-linejoin="round"/>
<path d="M299.362 554.779L298.532 569.969L310.262 573.001C310.248 571.799 310.384 570.595 310.691 569.417L315.187 555.54L325.459 522.238C326.086 520.207 325.72 518 324.47 516.28L322.275 513.26C320.758 511.172 317.666 511.109 316.063 513.134L304.785 527.388C300.731 532.511 298.655 538.921 298.936 545.449L299.337 554.778L299.362 554.779Z" fill="#1D2445"/>
<path d="M313.989 567.91L312.578 567.236C311.426 566.685 310.052 567.04 309.31 568.079L306.393 572.16L309.792 573.783L313.989 567.91Z" fill="white"/>
<path d="M313.989 567.91L312.578 567.236C311.426 566.685 310.052 567.04 309.31 568.079L306.393 572.16L309.792 573.783L313.989 567.91Z" stroke="#1D2445" stroke-width="1.05" stroke-linecap="round" stroke-linejoin="round"/>
<path d="M321.665 590.454L321.867 588.637C321.97 587.717 321.597 586.808 320.88 586.224L313.086 579.885C311.609 578.684 310.599 577.002 310.233 575.134L309.508 571.442C309.342 570.597 308.788 569.88 308.011 569.51L299.993 565.681L299.177 567.391L296.786 569.733C295.231 571.256 293.963 573.046 293.042 575.019L292.542 576.36L304.843 582.421L321.665 590.454Z" fill="white"/>
<path d="M321.665 590.454L321.867 588.637C321.97 587.717 321.597 586.808 320.88 586.224L313.086 579.885C311.609 578.684 310.599 577.002 310.233 575.134L309.508 571.442C309.342 570.597 308.788 569.88 308.011 569.51L299.993 565.681L299.177 567.391L296.786 569.733C295.231 571.256 293.963 573.046 293.042 575.019L292.542 576.36L304.843 582.421L321.665 590.454Z" stroke="#1D2445" stroke-width="1.05" stroke-linecap="round" stroke-linejoin="round"/>
<path d="M320.723 592.397L291.528 578.453L292.576 576.26L321.644 590.452L320.723 592.397Z" fill="white"/>
<path d="M320.723 592.397L291.528 578.453L292.576 576.26L321.644 590.452L320.723 592.397Z" stroke="#1D2445" stroke-width="1.05" stroke-linecap="round" stroke-linejoin="round"/>
<path d="M302.414 572.484C303.445 573.712 303.286 575.542 302.059 576.574C300.831 577.605 299 577.446 297.969 576.219C296.938 574.992 297.097 573.16 298.324 572.129C299.552 571.098 301.383 571.257 302.414 572.484Z" fill="white"/>
<path d="M302.414 572.484C303.445 573.712 303.286 575.542 302.059 576.574C300.831 577.605 299 577.446 297.969 576.219C296.938 574.992 297.097 573.16 298.324 572.129C299.552 571.098 301.383 571.257 302.414 572.484Z" stroke="#1D2445" stroke-width="1.05" stroke-linecap="round" stroke-linejoin="round"/>
<path d="M271.889 386.088L272.169 390.237L287.105 407.721L271.889 386.088Z" fill="#1C2344"/>
<path d="M271.889 386.088L272.169 390.237L287.105 407.721L271.889 386.088Z" stroke="#1D2445" stroke-width="1.75" stroke-linecap="round" stroke-linejoin="round"/>
<path d="M302.611 434.891L322.74 451.731Z" fill="#1C2344"/>
<path d="M302.611 434.891L322.74 451.731" stroke="#1D2445" stroke-width="2.45" stroke-linecap="round" stroke-linejoin="round"/>
<path d="M302.611 434.891L322.74 451.731" stroke="white" stroke-width="1.05" stroke-linecap="round" stroke-linejoin="round"/>
<path d="M269.264 362.555L275.515 391.365L284.495 432.82" stroke="#1D2445" stroke-width="3.5" stroke-linecap="round" stroke-linejoin="round"/>
<path d="M269.264 362.555L275.515 391.365L284.495 432.82" stroke="white" stroke-width="1.75" stroke-linecap="round" stroke-linejoin="round"/>
<path d="M298.378 485.606C289.836 476.257 287.258 463.98 282.813 448.76C280.314 440.204 292.827 437.868 294.922 444.869C298.914 458.206 302.797 466.585 307.901 481.157C309.609 486.031 301.203 488.698 298.378 485.606Z" fill="#1D2445"/>
<path d="M299.463 476.173C297.831 477.543 296.028 481.732 297.438 484.479C298.848 487.225 302.214 488.292 305.287 486.643C308.735 484.792 316.077 477.782 316.077 477.782L310.629 468.803C310.629 468.803 303.285 472.965 299.463 476.173Z" fill="#1D2445"/>
<path d="M321.224 463.274C319.771 464.099 310.628 468.804 310.628 468.804L316.076 477.784C316.076 477.784 324.333 471.054 326.11 469.709C329.802 466.915 327.28 459.841 321.224 463.274Z" fill="white"/>
<path d="M321.224 463.274C319.771 464.099 310.628 468.804 310.628 468.804L316.076 477.784C316.076 477.784 324.333 471.054 326.11 469.709C329.802 466.915 327.28 459.841 321.224 463.274Z" stroke="#1D2445" stroke-width="1.05" stroke-linecap="round" stroke-linejoin="round"/>
<path d="M321.135 462.614C320.908 460.44 322.254 457.841 322.986 457.114C323.622 456.746 326.073 456.055 325.638 457.398C324.763 458.087 329.004 455.35 330.318 454.689C332.03 453.455 333.614 454.931 332.958 456.315C333.24 457.851 333.632 463.872 333.163 465.053C332.694 466.235 327.493 468.882 326.422 469.441" fill="white"/>
<path d="M321.135 462.614C320.908 460.44 322.254 457.841 322.986 457.114C323.622 456.746 326.073 456.055 325.638 457.398C324.763 458.087 329.004 455.35 330.318 454.689C332.03 453.455 333.614 454.931 332.958 456.315C333.24 457.851 333.632 463.872 333.163 465.053C332.694 466.235 327.493 468.882 326.422 469.441" stroke="#1C2344" stroke-width="0.84" stroke-linecap="round" stroke-linejoin="round"/>
<path d="M273 390.508L314.966 443.168Z" fill="#1C2344"/>
<path d="M273 390.508L314.966 443.168" stroke="#1D2445" stroke-width="2.45" stroke-linecap="round" stroke-linejoin="round"/>
<path d="M273 390.508L314.966 443.168" stroke="white" stroke-width="1.05" stroke-linecap="round" stroke-linejoin="round"/>
<path d="M309.262 369.316L284.923 432.434" stroke="#1D2445" stroke-width="3.5" stroke-linecap="round" stroke-linejoin="round"/>
<path d="M309.262 369.316L284.923 432.434" stroke="white" stroke-width="1.75" stroke-linecap="round" stroke-linejoin="round"/>
<path d="M314.629 443.047L332.293 466.764Z" fill="#1C2344"/>
<path d="M314.629 443.047L332.293 466.764" stroke="#1D2445" stroke-width="2.45" stroke-linecap="round" stroke-linejoin="round"/>
<path d="M314.629 443.047L332.293 466.764" stroke="white" stroke-width="1.05" stroke-linecap="round" stroke-linejoin="round"/>
<path d="M322.994 457.232C323.697 456.037 326.347 454.745 327.119 454.298C327.477 454.091 328.472 453.826 328.937 454.088C329.475 454.392 329.584 455.116 329.047 455.427C328.047 456.006 326.496 456.994 325.561 457.475" fill="white"/>
<path d="M322.994 457.232C323.697 456.037 326.347 454.745 327.119 454.298C327.477 454.091 328.472 453.826 328.937 454.088C329.475 454.392 329.584 455.116 329.047 455.427C328.047 456.006 326.496 456.994 325.561 457.475" stroke="#1C2344" stroke-width="0.84" stroke-linecap="round" stroke-linejoin="round"/>
<path d="M330.288 455.026C330.288 455.026 326.688 456.855 325.583 457.46C324.479 458.064 325.718 458.996 327.029 458.595C328.679 458.09 332.567 456.476 332.918 456.243" fill="white"/>
<path d="M330.288 455.026C330.288 455.026 326.688 456.855 325.583 457.46C324.479 458.064 325.718 458.996 327.029 458.595C328.679 458.09 332.567 456.476 332.918 456.243" stroke="#1C2344" stroke-width="0.84" stroke-linecap="round" stroke-linejoin="round"/>
<path d="M332.958 456.311C331.933 456.844 326.593 459.094 325.325 459.577C324.076 460.053 325.59 460.819 326.482 460.788C327.164 460.764 332.655 459.375 333.165 458.921C333.846 458.315 333.673 456.655 332.958 456.311Z" fill="white"/>
<path d="M332.958 456.311C331.933 456.844 326.593 459.094 325.325 459.577C324.076 460.053 325.59 460.819 326.482 460.788C327.164 460.764 332.655 459.375 333.165 458.921C333.846 458.315 333.673 456.655 332.958 456.311Z" stroke="#1C2344" stroke-width="0.84"/>
<path d="M326.331 461.211C325.35 461.506 325.943 462.74 326.893 462.705C327.843 462.67 332.71 461.855 333.369 461.474C334.027 461.092 333.76 459.215 333.131 459.124C332.502 459.033 327.313 460.915 326.331 461.211Z" fill="white"/>
<path d="M326.331 461.211C325.35 461.506 325.943 462.74 326.893 462.705C327.843 462.67 332.71 461.855 333.369 461.474C334.027 461.092 333.76 459.215 333.131 459.124C332.502 459.033 327.313 460.915 326.331 461.211Z" stroke="#1C2344" stroke-width="0.84"/>
<path d="M327.669 463.105C327.009 463.409 327.458 463.895 328.86 464.115C329.851 464.27 332.376 464.111 333.128 464.1C333.88 464.09 334.714 461.757 333.335 461.524C332.296 461.348 328.435 462.753 327.669 463.105Z" fill="white"/>
<path d="M327.669 463.105C327.009 463.409 327.458 463.895 328.86 464.115C329.851 464.27 332.376 464.111 333.128 464.1C333.88 464.09 334.714 461.757 333.335 461.524C332.296 461.348 328.435 462.753 327.669 463.105Z" stroke="#1C2344" stroke-width="0.84"/>
<path d="M262.375 490.532C262.31 490.493 262.254 490.438 262.214 490.371C262.147 490.26 262.128 490.127 262.162 490.003L264.216 482.247C264.251 482.119 264.336 482.01 264.453 481.948C264.571 481.886 264.709 481.876 264.834 481.919C265.393 482.114 278.603 486.5 286.448 469.813C293.578 454.645 294.727 444.162 289.599 441.052C288.345 440.292 286.325 440.258 283.913 440.959C279.765 442.161 274.43 445.669 272.255 450.047C272.181 450.196 272.034 450.295 271.868 450.31C270.292 450.447 268.924 450.172 267.803 449.493C266.076 448.446 265.57 446.814 265.548 446.745C265.502 446.592 265.536 446.425 265.639 446.302C266.33 445.472 282.707 426.067 294.36 433.134C302.177 437.875 305.377 452.54 293.927 473.538C284.896 490.101 277.556 494.085 262.515 490.589C262.464 490.577 262.417 490.558 262.375 490.532Z" fill="white"/>
<path d="M262.375 490.532C262.31 490.493 262.254 490.438 262.214 490.371C262.147 490.26 262.128 490.127 262.162 490.003L264.216 482.247C264.251 482.119 264.336 482.01 264.453 481.948C264.571 481.886 264.709 481.876 264.834 481.919C265.393 482.114 278.603 486.5 286.448 469.813C293.578 454.645 294.727 444.162 289.599 441.052C288.345 440.292 286.325 440.258 283.913 440.959C279.765 442.161 274.43 445.669 272.255 450.047C272.181 450.196 272.034 450.295 271.868 450.31C270.292 450.447 268.924 450.172 267.803 449.493C266.076 448.446 265.57 446.814 265.548 446.745C265.502 446.592 265.536 446.425 265.639 446.302C266.33 445.472 282.707 426.067 294.36 433.134C302.177 437.875 305.377 452.54 293.927 473.538C284.896 490.101 277.556 494.085 262.515 490.589C262.464 490.577 262.417 490.558 262.375 490.532Z" stroke="#1D2445" stroke-width="1.05"/>
<path d="M294.973 423.186C292.317 426.676 279.788 443.203 279.788 443.203L288.961 450.324C288.961 450.324 295.045 442.278 297.942 438.472C305.178 428.769 298.254 419.099 294.973 423.186Z" fill="white"/>
<path d="M294.973 423.186C292.317 426.676 279.788 443.203 279.788 443.203L288.961 450.324C288.961 450.324 295.045 442.278 297.942 438.472C305.178 428.769 298.254 419.099 294.973 423.186Z" stroke="#1D2445" stroke-width="1.05" stroke-linecap="round" stroke-linejoin="round"/>
<path d="M276.179 504.579C276.179 504.579 285.764 492.983 291.148 478.64C293.962 471.144 301.435 455.142 298.495 450.378C295.942 446.241 292.651 437.669 286.459 438.077C280.021 438.5 273.516 440.131 266.17 457.808C261.752 468.442 260.958 474.217 252.611 485.182C249.625 489.106 243.359 502.105 250.768 513.634C258.701 525.98 276.179 504.579 276.179 504.579Z" fill="#1D2445"/>
<path d="M297.537 440.69L299.985 445.219C300.863 446.844 303.069 447.14 304.345 445.806L307.662 442.34L309.228 442.617C310.22 442.793 311.053 441.865 310.772 440.897L310.37 439.511L310.377 439.502L310.339 438.992C310.296 438.421 310.613 437.885 311.134 437.649L312.684 436.948C312.843 436.876 312.986 436.774 313.106 436.648L316.418 433.187L301.546 431.353L302.151 429.944L297.167 427.803L291.486 425.362" fill="white"/>
<path d="M297.537 440.69L299.985 445.219C300.863 446.844 303.069 447.14 304.345 445.806L307.662 442.34L309.228 442.617C310.22 442.793 311.053 441.865 310.772 440.897L310.37 439.511L310.377 439.502L310.339 438.992C310.296 438.421 310.613 437.885 311.134 437.649L312.684 436.948C312.843 436.876 312.986 436.774 313.106 436.648L316.418 433.187L301.546 431.353L302.151 429.944L297.167 427.803L291.486 425.362" stroke="#1D2445" stroke-width="1.05" stroke-linecap="round" stroke-linejoin="round"/>
<path d="M301.43 434.584L299.275 436.836L293.851 431.647C290.607 428.543 290.493 423.396 293.598 420.151L296.69 416.92C301.401 411.996 309.212 411.823 314.136 416.534L315.28 417.628C320.194 422.33 320.366 430.126 315.665 435.041L314.479 436.28L312.452 434.34C309.34 431.364 304.406 431.474 301.43 434.584Z" fill="#1D2445"/>
<path d="M301.634 433.064L298.224 441.94L295.549 440.913L298.96 432.036L301.634 433.064Z" fill="#1D2445"/>
<path d="M300.699 431.45C301.56 431.821 301.957 432.821 301.586 433.682C301.214 434.543 300.215 434.94 299.354 434.568C298.492 434.197 298.096 433.198 298.468 432.337C298.839 431.475 299.838 431.078 300.699 431.45Z" fill="white"/>
<path d="M311.502 436.014L294.651 419.041L296.176 417.482L313.038 434.485L311.502 436.014Z" fill="white"/>
<path d="M309.629 438.414C309.491 438.354 309.366 438.269 309.259 438.162L306.366 435.257C306.142 435.033 306.019 434.734 306.02 434.417C306.02 434.099 306.143 433.801 306.368 433.577L308.92 431.035L314.271 436.407L313.428 437.247L310.549 438.421C310.255 438.544 309.92 438.54 309.629 438.414Z" fill="#1D2445"/>
<path d="M308.918 431.716L313.595 436.411L313.157 436.847L310.366 437.985C310.189 438.057 309.993 438.055 309.817 437.979C309.733 437.943 309.659 437.893 309.595 437.829L306.702 434.925C306.425 434.648 306.427 434.197 306.704 433.92L308.918 431.716ZM308.92 430.365L306.031 433.244C305.379 433.894 305.377 434.946 306.026 435.598L308.919 438.502C309.071 438.655 309.248 438.773 309.438 438.855C309.84 439.029 310.305 439.04 310.727 438.868L313.694 437.657L314.944 436.412L308.92 430.365Z" fill="white"/>
<path d="M309.252 439.295C309.007 439.189 308.779 439.036 308.582 438.838L305.69 435.934C305.285 435.528 305.064 434.99 305.066 434.418C305.067 433.846 305.292 433.308 305.697 432.905L306.925 431.681C307.112 431.494 307.415 431.496 307.6 431.682C307.786 431.868 307.785 432.17 307.599 432.357L306.37 433.581C306.145 433.805 306.02 434.104 306.02 434.421C306.02 434.738 306.142 435.036 306.366 435.261L309.259 438.165C309.598 438.505 310.105 438.609 310.55 438.427L313.421 437.255L314.647 435.963L313.179 434.489C312.993 434.303 312.994 434.001 313.181 433.815C313.367 433.628 313.67 433.63 313.855 433.816L315.651 435.619C315.833 435.801 315.837 436.097 315.66 436.284L314.044 437.987C313.998 438.037 313.941 438.075 313.878 438.101L310.909 439.311C310.364 439.533 309.77 439.518 309.252 439.295Z" fill="#1D2445"/>
<path d="M304.37 442.713C303.463 443.377 303.077 444.538 303.892 444.596C304.701 444.69 305.493 443.514 306 442.869C306.467 442.273 305.278 442.06 304.37 442.713Z" fill="white"/>
<path d="M304.37 442.713C303.463 443.377 303.077 444.538 303.892 444.596C304.701 444.69 305.493 443.514 306 442.869C306.467 442.273 305.278 442.06 304.37 442.713Z" stroke="#1D2445" stroke-width="1.05" stroke-linecap="round" stroke-linejoin="round"/>
<path d="M250.53 518.737C248.908 516.265 248.396 510.837 250.729 508.105C253.676 504.655 259.557 505.523 262.478 508.817C265.399 512.112 265.013 517.242 261.618 520.252C258.101 523.37 252.879 522.315 250.53 518.737Z" fill="white"/>
<path d="M250.53 518.737C248.908 516.265 248.396 510.837 250.729 508.105C253.676 504.655 259.557 505.523 262.478 508.817C265.399 512.112 265.013 517.242 261.618 520.252C258.101 523.37 252.879 522.315 250.53 518.737Z" stroke="#1D2445" stroke-width="1.05"/>
<path d="M250.109 513.854L273.133 554.886C276.713 561.243 284.025 561.675 290.383 558.094L291.431 557.483C293.78 556.16 293.947 553.407 292.985 550.889L271.108 489.959C269.21 485.716 264.492 484.737 260.443 487.017C260.443 487.017 258.241 487.766 254.518 491.515C250.795 495.263 245.175 505.091 250.109 513.854Z" fill="#1D2445"/>
<path d="M274.673 501.167C274.58 501.108 274.509 501.016 274.475 500.907L266.179 485.977C266.124 485.733 266.27 485.487 266.51 485.415L269.253 484.603C269.385 484.563 269.528 484.583 269.644 484.657C269.762 484.731 269.839 484.852 269.861 484.988L277.239 499.901C277.263 500.002 277.253 500.108 277.212 500.202C276.978 500.74 276.171 501.646 274.79 501.219C274.748 501.208 274.709 501.19 274.673 501.167Z" fill="white"/>
<path d="M274.673 501.167C274.58 501.108 274.509 501.016 274.475 500.907L266.179 485.977C266.124 485.733 266.27 485.487 266.51 485.415L269.253 484.603C269.385 484.563 269.528 484.583 269.644 484.657C269.762 484.731 269.839 484.852 269.861 484.988L277.239 499.901C277.263 500.002 277.253 500.108 277.212 500.202C276.978 500.74 276.171 501.646 274.79 501.219C274.748 501.208 274.709 501.19 274.673 501.167Z" stroke="#1D2445" stroke-width="0.7"/>
<path d="M280.69 515.715C280.69 515.715 283.28 505.318 278.978 500.465C274.677 495.613 269.786 504.01 265.543 509.147C261.413 514.148 256.906 518.947 253.239 517.865C250.033 516.92 249.352 514.931 249.352 514.931C249.352 514.931 250.175 522.883 258.793 530.21C258.793 530.21 264.268 525.419 272.43 513.851C275.734 509.168 279.043 511.751 280.69 515.715Z" fill="white"/>
<path d="M280.69 515.715C280.69 515.715 283.28 505.318 278.978 500.465C274.677 495.613 269.786 504.01 265.543 509.147C261.413 514.148 256.906 518.947 253.239 517.865C250.033 516.92 249.352 514.931 249.352 514.931C249.352 514.931 250.175 522.883 258.793 530.21C258.793 530.21 264.268 525.419 272.43 513.851C275.734 509.168 279.043 511.751 280.69 515.715Z" stroke="#1D2445" stroke-width="1.05" stroke-linecap="round" stroke-linejoin="round"/>
<path d="M273.142 546.286C266.501 546.223 259.409 548.48 254.293 552.542L246.98 558.35L246.993 558.37L235.36 565.886L236.755 578.344C237.874 577.41 239.142 576.652 240.516 576.113L255.148 570.8L287.523 560.755C290.246 559.825 294.031 557.042 292.923 554.564C291.814 552.086 290.011 549.933 285.804 548.103C281.596 546.274 279.783 546.349 273.142 546.286Z" fill="#1D2445"/>
<path d="M230.132 595.801L229.931 595.47C229.219 593.487 227.17 584.152 226.85 582.007C226.463 580.257 224.634 565.397 224.634 565.397L228.11 565.215L229.612 566.245L235.53 576.998L233.036 581.598L234.177 594.191C233.903 594.846 232.927 595.234 232.36 595.382C232.296 595.374 230.225 595.881 230.132 595.801Z" fill="white"/>
<path d="M230.132 595.801L229.931 595.47C229.219 593.487 227.17 584.152 226.85 582.007C226.463 580.257 224.634 565.397 224.634 565.397L228.11 565.215L229.612 566.245L235.53 576.998L233.036 581.598L234.177 594.191C233.903 594.846 232.927 595.234 232.36 595.382C232.296 595.374 230.225 595.881 230.132 595.801Z" stroke="#1D2445" stroke-width="1.05" stroke-linecap="round" stroke-linejoin="round"/>
<path d="M235.861 573.436L236.536 576.631C236.536 576.631 243.383 576.286 244.387 576.232C245.462 576.167 246.113 576.057 246.465 575.904C246.498 575.926 246.433 575.537 246.433 575.537C246.308 574.358 244.798 572.402 242.987 572.547L235.861 573.436Z" fill="white"/>
<path d="M235.861 573.436L236.536 576.631C236.536 576.631 243.383 576.286 244.387 576.232C245.462 576.167 246.113 576.057 246.465 575.904C246.498 575.926 246.433 575.537 246.433 575.537C246.308 574.358 244.798 572.402 242.987 572.547L235.861 573.436Z" stroke="#1D2445" stroke-width="1.05" stroke-linecap="round" stroke-linejoin="round"/>
<path d="M241.945 576.572C241.84 576.485 241.83 576.381 241.553 576.334L238.616 577.376L238.591 577.277L240.467 576.429C241.391 575.876 241.706 573.636 241.578 572.569L239.959 564.021L237.042 564.597L235.569 564.613L231.09 564.917L229.114 565.027L227.403 565.43C227.403 565.43 228.677 577.948 229.04 579.607C229.393 581.93 231.925 593.396 232.325 594.877L232.824 595.148C233.772 594.928 234.591 594.118 235.095 592.464C235.52 590.893 235.256 585.599 235.84 583.169C236.425 580.738 238.741 577.622 238.741 577.622L241.945 576.572Z" fill="white"/>
<path d="M241.945 576.572C241.84 576.485 241.83 576.381 241.553 576.334L238.616 577.376L238.591 577.277L240.467 576.429C241.391 575.876 241.706 573.636 241.578 572.569L239.959 564.021L237.042 564.597L235.569 564.613L231.09 564.917L229.114 565.027L227.403 565.43C227.403 565.43 228.677 577.948 229.04 579.607C229.393 581.93 231.925 593.396 232.325 594.877L232.824 595.148C233.772 594.928 234.591 594.118 235.095 592.464C235.52 590.893 235.256 585.599 235.84 583.169C236.425 580.738 238.741 577.622 238.741 577.622L241.945 576.572Z" stroke="#1D2445" stroke-width="1.05" stroke-linecap="round" stroke-linejoin="round"/>
<path d="M232.765 571.649C231.174 571.841 230.223 571.088 229.852 569.925C229.498 568.912 229.869 568.152 230.231 567.627C230.588 567.132 232.11 566.81 232.686 566.778C233.262 566.747 234.04 566.805 234.634 567.382C235.238 567.985 235.597 568.672 235.356 569.655C235.133 570.79 234.356 571.458 232.765 571.649Z" fill="white"/>
<path d="M232.765 571.649C231.174 571.841 230.223 571.088 229.852 569.925C229.498 568.912 229.869 568.152 230.231 567.627C230.588 567.132 232.11 566.81 232.686 566.778C233.262 566.747 234.04 566.805 234.634 567.382C235.238 567.985 235.597 568.672 235.356 569.655C235.133 570.79 234.356 571.458 232.765 571.649Z" stroke="#1D2445" stroke-width="1.05" stroke-linecap="round" stroke-linejoin="round"/>
<path d="M274.159 442.604C270.289 441.08 266.138 441.952 261.896 443.053C257.654 444.154 252.362 448.644 245.624 452.36C243.278 453.654 231.208 460.833 229.557 462.965C228.463 464.379 227.059 468.019 227.136 469.031C231.513 469.757 247.947 472.871 256.04 473.694C258.13 473.907 263.971 462.641 266.229 459.331C268.525 455.964 270.076 446.925 274.159 442.604Z" fill="white"/>
<path d="M274.159 442.604C270.289 441.08 266.138 441.952 261.896 443.053C257.654 444.154 252.362 448.644 245.624 452.36C243.278 453.654 231.208 460.833 229.557 462.965C228.463 464.379 227.059 468.019 227.136 469.031C231.513 469.757 247.947 472.871 256.04 473.694C258.13 473.907 263.971 462.641 266.229 459.331C268.525 455.964 270.076 446.925 274.159 442.604Z" stroke="#1D2445" stroke-width="1.05" stroke-linecap="round" stroke-linejoin="round"/>
<path d="M253.32 449.858C247.685 451.77 244.739 455.251 240.951 460.236C238.117 463.964 234.537 468.638 233.575 470.017C233.911 471.02 235.613 472.985 237.603 473.567C241.92 474.83 262.002 456.423 258.939 454.091C255.875 451.759 254.399 450.635 253.32 449.858Z" fill="white"/>
<path d="M253.32 449.858C247.685 451.77 244.739 455.251 240.951 460.236C238.117 463.964 234.537 468.638 233.575 470.017C233.911 471.02 235.613 472.985 237.603 473.567C241.92 474.83 262.002 456.423 258.939 454.091C255.875 451.759 254.399 450.635 253.32 449.858Z" stroke="#1D2445" stroke-width="1.05" stroke-linecap="round" stroke-linejoin="round"/>
<path d="M279.698 441.132C277.159 438.804 275.15 437.803 273.14 437.9C264.537 438.318 254.849 449.621 254.001 450.735C255.595 451.992 259.94 455.299 262.057 456.736C264.048 458.086 274.373 442.399 279.698 441.132Z" fill="white"/>
<path d="M279.698 441.132C277.159 438.804 275.15 437.803 273.14 437.9C264.537 438.318 254.849 449.621 254.001 450.735C255.595 451.992 259.94 455.299 262.057 456.736C264.048 458.086 274.373 442.399 279.698 441.132Z" stroke="#1D2445" stroke-width="1.05" stroke-linecap="round" stroke-linejoin="round"/>
<path d="M273.116 443.923C265.525 441.208 254.681 447.592 252.509 449.75C250.863 451.384 246.53 458.074 245.7 459.388C243.51 460.474 233.9 466.482 231.562 468.724C230.042 470.181 228.619 473.882 228.005 475.377C229.747 477.113 246.881 488.806 254.962 489.739C257.049 489.98 262.683 470.819 264.903 465.396C266.42 461.688 274.846 444.541 273.116 443.923Z" fill="white"/>
<path d="M273.116 443.923C265.525 441.208 254.681 447.592 252.509 449.75C250.863 451.384 246.53 458.074 245.7 459.388C243.51 460.474 233.9 466.482 231.562 468.724C230.042 470.181 228.619 473.882 228.005 475.377C229.747 477.113 246.881 488.806 254.962 489.739C257.049 489.98 262.683 470.819 264.903 465.396C266.42 461.688 274.846 444.541 273.116 443.923Z" stroke="#1D2445" stroke-width="1.05" stroke-linecap="round" stroke-linejoin="round"/>
<path d="M256.813 488.229C256.752 488.183 256.703 488.123 256.67 488.052C256.615 487.935 256.611 487.801 256.657 487.68L259.517 480.185C259.565 480.06 259.661 479.961 259.784 479.912C259.908 479.862 260.046 479.867 260.166 479.923C260.701 480.175 273.376 485.929 282.934 470.161C291.622 455.828 293.869 445.524 289.098 441.892C287.93 441.004 285.926 440.758 283.453 441.2C279.202 441.959 274.373 444.589 271.818 448.393C271.725 448.532 271.584 448.63 271.418 448.635C269.836 448.687 268.485 448.338 267.403 447.599C265.736 446.459 265.318 444.802 265.3 444.732C265.263 444.577 265.372 444.451 265.415 444.296C265.974 442.27 283.823 426.265 294.666 434.52C301.941 440.057 303.578 454.978 289.98 474.654C279.254 490.173 271.536 493.362 256.946 488.301C256.897 488.284 256.853 488.26 256.813 488.229Z" fill="white"/>
<path d="M256.813 488.229C256.752 488.183 256.703 488.123 256.67 488.052C256.615 487.935 256.611 487.801 256.657 487.68L259.517 480.185C259.565 480.06 259.661 479.961 259.784 479.912C259.908 479.862 260.046 479.867 260.166 479.923C260.701 480.175 273.376 485.929 282.934 470.161C291.622 455.828 293.869 445.524 289.098 441.892C287.93 441.004 285.926 440.758 283.453 441.2C279.202 441.959 274.373 444.589 271.818 448.393C271.725 448.532 271.584 448.63 271.418 448.635C269.836 448.687 268.485 448.338 267.403 447.599C265.736 446.459 265.318 444.802 265.3 444.732C265.263 444.577 265.372 444.451 265.415 444.296C265.974 442.27 283.823 426.265 294.666 434.52C301.941 440.057 303.578 454.978 289.98 474.654C279.254 490.173 271.536 493.362 256.946 488.301C256.897 488.284 256.853 488.26 256.813 488.229Z" stroke="#1D2445" stroke-width="1.05"/>
<path d="M276.424 367.215L276.886 374.441L290.599 391.471L276.424 367.215Z" fill="#1C2344"/>
<path d="M276.424 367.215L276.886 374.441L290.599 391.471L276.424 367.215Z" stroke="#1D2445" stroke-width="1.75" stroke-linecap="round" stroke-linejoin="round"/>
<path d="M314.984 425.543L323.231 450.096Z" fill="#1C2344"/>
<path d="M314.984 425.543L323.231 450.096" stroke="#1D2445" stroke-width="2.45" stroke-linecap="round" stroke-linejoin="round"/>
<path d="M314.984 425.543L323.231 450.096" stroke="white" stroke-width="1.05"/>
<path d="M325.688 363.426L287.843 442.006" stroke="#1D2445" stroke-width="3.5" stroke-linecap="round" stroke-linejoin="round"/>
<path d="M325.688 363.426L287.843 442.006" stroke="white" stroke-width="1.75" stroke-linecap="round" stroke-linejoin="round"/>
<path d="M276.576 351.246L279.15 376.105L287.448 441.577" stroke="#1D2445" stroke-width="3.5" stroke-linecap="round" stroke-linejoin="round"/>
<path d="M276.576 351.246L279.15 376.105L287.448 441.577" stroke="white" stroke-width="1.75" stroke-linecap="round" stroke-linejoin="round"/>
<path d="M275.846 500.279C275.633 500.254 275.413 500.198 275.193 500.109C275.049 500.051 274.942 499.926 274.907 499.774L273.444 484.462C273.523 484.223 273.773 484.085 274.017 484.148L277.027 484.921C277.161 484.957 277.273 485.046 277.334 485.168C277.396 485.291 277.402 485.435 277.35 485.563L277.884 498.96C277.899 499.062 277.882 499.165 277.832 499.256C277.807 499.305 277.183 500.431 275.846 500.279Z" fill="white"/>
<path d="M275.846 500.279C275.633 500.254 275.413 500.198 275.193 500.109C275.049 500.051 274.942 499.926 274.907 499.774L273.444 484.462C273.523 484.223 273.773 484.085 274.017 484.148L277.027 484.921C277.161 484.957 277.273 485.046 277.334 485.168C277.396 485.291 277.402 485.435 277.35 485.563L277.884 498.96C277.899 499.062 277.882 499.165 277.832 499.256C277.807 499.305 277.183 500.431 275.846 500.279Z" stroke="#1D2445" stroke-width="1.05"/>
<path d="M304.716 481.735C293.628 475.62 287.247 464.818 278.156 451.828C273.045 444.525 284.148 438.299 288.378 444.259C296.436 455.611 302.802 462.302 312.31 474.467C315.49 478.537 308.384 483.758 304.716 481.735Z" fill="#1D2445"/>
<path d="M302.542 472.661C301.517 474.53 301.359 479.088 303.669 481.136C305.98 483.183 309.503 482.955 311.768 480.303C314.31 477.327 318.606 468.13 318.606 468.13L310.27 461.741C310.27 461.741 304.938 468.285 302.542 472.661Z" fill="#1D2445"/>
<path d="M318.135 452.743C317.081 454.038 310.269 461.741 310.269 461.741L318.605 468.131C318.605 468.131 323.856 458.863 325.024 456.965C327.45 453.022 322.532 447.345 318.135 452.743Z" fill="white"/>
<path d="M318.135 452.743C317.081 454.038 310.269 461.741 310.269 461.741L318.605 468.131C318.605 468.131 323.856 458.863 325.024 456.965C327.45 453.022 322.532 447.345 318.135 452.743Z" stroke="#1D2445" stroke-width="1.05" stroke-linecap="round" stroke-linejoin="round"/>
<path d="M318.114 452.843C317.547 451.679 316.717 448.72 317.857 446.072C318.473 444.642 319.382 442.408 321.662 443.161C322.231 442.116 323 440.834 323.356 440.201C324.089 438.899 326.397 438.631 325.991 441.517C326.128 442.377 328.977 446.451 329.386 447.451C329.953 448.838 329.718 450.089 328.541 451.833C327.839 452.873 325.897 455.627 325.35 456.453" fill="white"/>
<path d="M318.114 452.843C317.547 451.679 316.717 448.72 317.857 446.072C318.473 444.642 319.382 442.408 321.662 443.161C322.231 442.116 323 440.834 323.356 440.201C324.089 438.899 326.397 438.631 325.991 441.517C326.128 442.377 328.977 446.451 329.386 447.451C329.953 448.838 329.718 450.089 328.541 451.833C327.839 452.873 325.897 455.627 325.35 456.453" stroke="#1D2445" stroke-width="1.05"/>
<path d="M277.959 374.652L315.064 425.118Z" fill="#1C2344"/>
<path d="M277.959 374.652L315.064 425.118" stroke="#1D2445" stroke-width="2.45" stroke-linecap="round" stroke-linejoin="round"/>
<path d="M277.959 374.652L315.064 425.118" stroke="white" stroke-width="1.05" stroke-linecap="round" stroke-linejoin="round"/>
<path d="M315.059 425.133L328.707 451.966Z" fill="#1C2344"/>
<path d="M315.059 425.133L328.707 451.966" stroke="#1D2445" stroke-width="2.45" stroke-linecap="round" stroke-linejoin="round"/>
<path d="M315.059 425.133L328.707 451.966" stroke="white" stroke-width="1.05" stroke-linecap="round" stroke-linejoin="round"/>
</g>
<defs>
<clipPath id="clip0_38_2">
<rect width="706" height="611" fill="white"/>
</clipPath>
</defs>
</svg>
