<svg fill="none" height="500" viewBox="0 0 850 500" width="850" xmlns="http://www.w3.org/2000/svg" xmlns:xlink="http://www.w3.org/1999/xlink"><clipPath id="a"><path d="m0 0h850v500h-850z"/></clipPath><g clip-path="url(#a)"><g fill="#000"><path d="m.100006.900047h12.199994v498.399953h-12.199994zm108.099994 260.699953h-23.5v76.6h23.5c10.1 0 17.6-3.3 22.8-9.8 5.1-6.5 7.7-16.2 7.7-28.9 0-12.2-2.6-21.6-7.8-28.1-5.3-6.6-12.8-9.8-22.7-9.8zm-37.1 88.8v-100.4h38.3c14 0 24.7 4.2 32.2 12.5 7.4 8.4 11.1 20.4 11.1 36.2 0 16.3-3.8 29-11.6 38.1-7.7 9.1-18.5 13.6-32.3 13.6zm103.9-43.1h40.1c0-6.8-1.8-12.1-5.2-15.8s-8.2-5.6-14.5-5.6c-6 0-10.8 1.8-14.3 5.5-3.5 3.6-5.5 8.9-6.1 15.9zm39.8 19.5h12.2c-1.3 8-4.8 14.4-10.5 19s-12.8 7-21.5 7c-10.1 0-18.1-3.4-24-10.2s-8.8-16.1-8.8-27.9c0-12.5 2.9-22.2 8.7-29.2s13.8-10.5 24.1-10.5c10.5 0 18.6 3.2 24.4 9.7 5.7 6.5 8.6 15.6 8.6 27.3v3.3c0 .7-.1 1.4-.2 2.1h-52.7c.1 7.7 2 13.6 5.7 17.8s8.8 6.3 15.3 6.3c5 0 9.1-1.3 12.4-3.9 3.3-2.4 5.4-6 6.3-10.8zm35.7-12.4c0 9.1 1.8 15.9 5.4 20.5s9 6.9 16.3 6.9c6.9 0 12.2-2.5 16-7.5s5.6-12.1 5.6-21.4c0-8.3-1.9-14.9-5.8-19.6-3.9-4.8-9.2-7.2-15.9-7.2-6.9 0-12.2 2.5-16 7.4-3.7 4.8-5.6 11.8-5.6 20.9zm-11.6 63.5v-100.5h12v10.3c3-4.4 6.5-7.6 10.3-9.6s8.3-3.1 13.5-3.1c9.7 0 17.5 3.5 23.3 10.5s8.7 16.4 8.7 28.2c0 11.9-2.9 21.4-8.8 28.4s-13.6 10.6-23.3 10.6c-5.1 0-9.6-.9-13.5-2.8-3.9-1.8-7.3-4.6-10.1-8.4v36.4zm123.7-37.2c-3.8 4-7.9 7-12.2 9s-9 3-13.7 3c-7.5 0-13.3-1.9-17.5-5.8s-6.3-9.3-6.3-16.1c0-6.6 2.1-11.8 6.2-15.6s10.4-6.2 18.8-7.3c2.1-.2 5-.5 8.7-1 6.2-.6 10.1-1.3 11.5-1.8s2.3-1.3 2.8-2.1c.5-.9.7-2.8.7-5.8 0-3.7-1.4-6.5-4.1-8.4s-6.8-2.8-12.3-2.8c-5.7 0-10 1.1-12.9 3.4s-4.3 5.6-4.3 10.1h-11.6v-.5c0-7.4 2.6-13.2 7.8-17.5s12.3-6.4 21.4-6.4c9.8 0 17 1.8 21.6 5.5s6.9 9.4 6.9 17.2v36.6c0 3.1.3 5.2 1 6.1s1.9 1.4 3.7 1.4c.4 0 .8 0 1.3-.1s1.1-.2 1.9-.3v9.5c-1.5.4-2.8.7-3.9.9s-2.2.2-3.2.2c-4.1 0-7.2-.9-9.2-2.7s-3.1-4.5-3.1-8zm-1.2-27.4c-3.3 1.8-8.9 3.2-16.8 4.2-2.8.4-4.9.7-6.3.9-4.5.7-7.7 2-9.6 4-2 1.9-2.9 4.7-2.9 8.3s1.1 6.4 3.4 8.4 5.5 2.9 9.7 2.9c6.6 0 12-1.7 16.2-5s6.3-7.6 6.3-12.7zm28.1 37.1v-73h11.9v13.1c1.9-4.9 4.6-8.6 7.9-11s7.4-3.7 12.3-3.7h2c.4 0 .8.1 1.2.2v13c-.4-.1-.7-.1-1.1-.1s-1 0-1.8 0c-6.5 0-11.5 1.8-15 5.4-3.4 3.6-5.1 8.8-5.1 15.6v40.6zm69-18.4c0 3.3.5 5.5 1.4 6.6s2.7 1.6 5.2 1.6c.7 0 1.6 0 2.6-.1 1 0 2.4-.1 4-.3v10.4c-2 .4-3.9.6-5.5.8s-3.1.3-4.3.3c-5.8 0-9.8-1.1-12.1-3.3s-3.5-6.2-3.5-11.9v-49h-10.9v-9.8h10.9v-20.3h12.3v20.4h13.2v9.8h-13.2zm113.2 18.4v-44.9c0-7.4-1-12.4-3-15.1s-5.5-4.1-10.4-4.1c-5.9 0-10.5 1.8-13.8 5.5s-4.9 8.8-4.9 15.4v43.2h-12.5v-44.9c0-7.4-1-12.4-3-15.1s-5.5-4.1-10.4-4.1c-5.9 0-10.5 1.9-13.8 5.6s-5 8.8-5 15.4v43.2h-12.3v-73h11.7v10.3c2.7-4.1 6-7.1 9.7-9.1s8.1-3 13.1-3c4.5 0 8.4.9 11.7 2.8 3.2 1.8 6 4.7 8.3 8.7 3.2-4 6.7-6.9 10.4-8.7 3.8-1.8 8.1-2.8 13-2.8 4.7 0 8.8.9 12.3 2.6s6.2 4.2 8.1 7.4c1 1.9 1.8 4.1 2.2 6.7.5 2.6.7 6.7.7 12.3v46zm36.6-43.1h40.1c0-6.8-1.8-12.1-5.2-15.8s-8.2-5.6-14.5-5.6c-6 0-10.8 1.8-14.3 5.5-3.4 3.6-5.5 8.9-6.1 15.9zm39.9 19.5h12.1c-1.3 8-4.8 14.4-10.5 19s-12.8 7-21.5 7c-10.1 0-18.1-3.4-24-10.2s-8.8-16.1-8.8-27.9c0-12.5 2.9-22.2 8.7-29.2s13.8-10.5 24.1-10.5c10.5 0 18.6 3.2 24.4 9.7s8.6 15.6 8.6 27.3v3.3c0 .7-.1 1.4-.2 2.1h-52.7c.1 7.7 2 13.6 5.7 17.8s8.8 6.3 15.3 6.3c5 0 9.1-1.3 12.4-3.9 3.3-2.4 5.4-6 6.4-10.8zm71 23.6v-44.9c0-7.2-1.1-12.1-3.3-14.9s-6-4.1-11.4-4.1c-6.9 0-12.2 1.9-16 5.8s-5.7 9.4-5.7 16.5v41.6h-12.3v-73h11.7v10.6c2.8-4.2 6.2-7.4 10-9.4 3.9-2 8.3-3.1 13.4-3.1 5.5 0 10.1.8 13.9 2.5s6.7 4.1 8.7 7.5c1.1 1.8 2 3.9 2.5 6.2.5 2.4.8 6.2.8 11.4v47.3zm43.1-18.4c0 3.3.5 5.5 1.4 6.6s2.7 1.6 5.2 1.6c.7 0 1.6 0 2.6-.1s2.4-.1 4-.3v10.4c-2 .4-3.9.6-5.5.8s-3.1.3-4.3.3c-5.8 0-9.8-1.1-12.1-3.3s-3.5-6.2-3.5-11.9v-49h-10.9v-9.8h10.8v-20.3h12.3v20.4h13.2v9.8h-13.2zm-688.2 165.5v-63.3h-12v-9.7h12v-10.8c0-6 1.4-10.6 4.1-13.6s6.9-4.5 12.4-4.5c.9 0 2 .1 3.3.2s3.2.4 5.8.8v11c-1.3-.2-2.4-.4-3.3-.5s-1.6-.2-2.1-.2c-2.9 0-4.9.8-6 2.4s-1.7 4.6-1.7 9.1v6.1h13.2v9.7h-13.2v63.3zm40.8-36.6c0 9 1.9 16 5.8 20.8s9.4 7.2 16.7 7.2c7.2 0 12.7-2.4 16.5-7.2s5.7-11.7 5.7-20.8c0-9-1.9-15.9-5.7-20.7s-9.3-7.2-16.5-7.2c-7.3 0-12.8 2.4-16.7 7.2-3.9 4.7-5.8 11.6-5.8 20.7zm-12.6 0c0-12.2 3.1-21.8 9.2-28.6s14.7-10.2 25.7-10.2c11.1 0 19.7 3.4 25.8 10.2s9.2 16.3 9.2 28.6-3.1 21.8-9.2 28.6-14.7 10.2-25.7 10.2c-11.1 0-19.7-3.4-25.9-10.2-6-6.7-9.1-16.3-9.1-28.6zm80.2 36.6v-73h11.9v13.1c2-4.9 4.6-8.6 7.9-11s7.4-3.7 12.3-3.7h2c.4 0 .8.1 1.2.2v13c-.4 0-.7-.1-1.1-.1s-1 0-1.8 0c-6.6 0-11.5 1.8-15 5.4-3.4 3.6-5.1 8.8-5.1 15.6v40.6zm84.5 0v-100.4h71.6v12.5h-58.1v30h53.7v11.7h-53.7v33.7h59.3v12.6zm131.7-37c0-9-1.8-15.9-5.5-20.5s-9.1-6.9-16.3-6.9c-6.9 0-12.3 2.5-16 7.5-3.8 5-5.7 12.1-5.7 21.4 0 8.3 1.9 14.9 5.8 19.6 3.9 4.8 9.2 7.2 16 7.2 6.9 0 12.2-2.5 16-7.4 3.8-4.8 5.7-11.8 5.7-20.9zm11.4-63.4v100.4h-11.9v-9.2c-3.1 3.8-6.7 6.7-10.6 8.6-4 1.9-8.3 2.9-13.1 2.9-9.7 0-17.5-3.5-23.3-10.5s-8.7-16.3-8.7-28.1c0-12 2.9-21.5 8.7-28.5 5.8-7.1 13.6-10.6 23.3-10.6 5.1 0 9.6.9 13.5 2.8s7.3 4.7 10.2 8.5v-36.3zm26.9 27.4v44.8c0 7.2 1.1 12.2 3.4 15s6.1 4.2 11.4 4.2c7.1 0 12.5-2.1 16.1-6.2 3.6-4.2 5.4-10.3 5.4-18.4v-39.3h12.3v73h-11.7v-10.9c-2.5 4.2-5.8 7.4-9.9 9.5-4 2.1-8.8 3.2-14.3 3.2-5.1 0-9.5-.9-13.3-2.6s-6.7-4.2-8.7-7.4c-1.1-1.8-2-3.9-2.5-6.2-.5-2.4-.8-6.2-.8-11.4v-47.3zm112.1 24.2c-.4-5-2.2-8.9-5.4-11.6s-7.7-4.1-13.3-4.1c-6.6 0-11.8 2.4-15.4 7.2s-5.4 11.6-5.4 20.5 1.7 15.8 5.2 20.6 8.4 7.2 14.8 7.2c5.7 0 10.3-1.5 13.7-4.4s5.6-7.2 6.4-12.9h11.7c-.6 9-3.8 15.9-9.5 21-5.7 5-13.3 7.5-22.9 7.5-10 0-17.9-3.4-23.6-10.3s-8.6-16.3-8.6-28.2c0-12.2 3-21.8 8.9-28.7 6-6.9 14.1-10.4 24.6-10.4 9.2 0 16.5 2.4 22.1 7.2 5.5 4.8 8.5 11.3 8.8 19.5zm69.3 39c-3.8 4-7.9 7-12.2 9s-9 3-13.7 3c-7.5 0-13.3-1.9-17.5-5.8s-6.3-9.3-6.3-16.1c0-6.6 2.1-11.8 6.2-15.6s10.4-6.2 18.8-7.3c2.1-.2 5-.5 8.7-1 6.2-.6 10.1-1.2 11.5-1.8 1.4-.5 2.3-1.3 2.8-2.1.5-.9.7-2.8.7-5.8 0-3.7-1.4-6.5-4.1-8.4s-6.8-2.8-12.3-2.8c-5.7 0-10 1.1-12.9 3.4s-4.3 5.6-4.3 10.1h-11.6v-.5c0-7.4 2.6-13.2 7.8-17.5s12.3-6.4 21.4-6.4c9.8 0 17 1.8 21.6 5.5s6.9 9.4 6.9 17.1v36.5c0 3.1.3 5.2 1 6.1s1.9 1.4 3.7 1.4c.4 0 .8 0 1.3-.1s1.1-.2 1.9-.3v9.5c-1.5.4-2.8.7-3.9.9s-2.2.2-3.2.2c-4.1 0-7.2-.9-9.2-2.7s-3.1-4.5-3.1-8zm-1.2-27.4c-3.3 1.8-8.9 3.2-16.8 4.2-2.1.3-4.2.6-6.3.9-4.5.7-7.7 2-9.6 4-2 1.9-2.9 4.7-2.9 8.3s1.1 6.4 3.4 8.4 5.5 2.9 9.7 2.9c6.6 0 12-1.7 16.2-5s6.3-7.6 6.3-12.7zm43.8 18.8c0 3.3.5 5.4 1.4 6.5s2.6 1.6 5.2 1.6c.7 0 1.6 0 2.6-.1 1 0 2.4-.1 4-.3v10.4c-2 .4-3.9.6-5.5.8s-3.1.3-4.3.3c-5.8 0-9.8-1.1-12.1-3.3s-3.5-6.2-3.5-11.9v-49h-10.9v-9.7h10.9v-20.4h12.2v20.4h13.2v9.7h-13.2zm23.7-68.1v-14h12.3v14zm0 86.5v-73h12.3v73zm35.8-36.6c0 9 1.9 16 5.8 20.8s9.4 7.2 16.7 7.2c7.2 0 12.7-2.4 16.5-7.2s5.7-11.7 5.7-20.8c0-9-1.9-15.9-5.7-20.7s-9.3-7.2-16.5-7.2c-7.3 0-12.8 2.4-16.7 7.2-3.9 4.7-5.8 11.6-5.8 20.7zm-12.6 0c0-12.2 3.1-21.8 9.2-28.6s14.7-10.2 25.7-10.2c11.1 0 19.7 3.4 25.8 10.2s9.2 16.3 9.2 28.6-3.1 21.8-9.2 28.6-14.7 10.2-25.7 10.2c-11.1 0-19.7-3.4-25.8-10.2-6.1-6.7-9.2-16.3-9.2-28.6zm129.6 36.6v-44.9c0-7.2-1.1-12.1-3.3-14.9s-6-4.1-11.4-4.1c-6.9 0-12.2 1.9-16 5.8s-5.7 9.4-5.7 16.5v41.6h-12.3v-73h11.7v10.6c2.8-4.2 6.2-7.4 10-9.4 3.9-2 8.3-3.1 13.4-3.1 5.5 0 10.1.8 13.9 2.5s6.7 4.1 8.7 7.5c1.1 1.8 2 3.8 2.5 6.2s.8 6.2.8 11.4v47.3zm-672.8-465.1c-1.1 2.2-2.1 3.5-2 5.1.2 1.7 1.9 2.9 2.8 4.6.8-2 2-3.5 1.9-5-.2-1.5-2.3-3.6-2.7-4.7zm29.3 0c1.1 2.2 2.1 3.5 2 5.1-.2 1.7-1.9 2.9-2.8 4.6-.8-2-2-3.5-1.9-5 .2-1.5 2.3-3.6 2.7-4.7zm-46.2-1.3c1.1 0 2-.9 2-2s-.9-2-2-2-2 .9-2 2 .9 2 2 2zm1.3 2.9c0-1.1-.9-2-2-2s-2 .9-2 2 .9 2 2 2 2-.9 2-2zm1 4.8c0-1.1-.9-2-2-2s-2 .9-2 2 .9 2 2 2 2-.9 2-2zm8.7-17.1c1.1 0 2-.9 2-2s-.9-2-2-2-2 .9-2 2 .9 2 2 2zm-5 1.5c1.1 0 2-.8 2.1-1.9 0-1.1-.8-2-1.9-2.1-.1 0-.1 0-.2 0-1.1.1-1.9 1-1.9 2.1.1 1.1.9 1.9 1.9 1.9zm-3.8 3.4c1.1 0 2-.9 2-2s-.9-2-2-2-2 .9-2 2 .9 2 2 2zm13.9-4.4c1.1 0 2-.9 2-2s-.9-2-2-2-2 .9-2 2c.1 1.1 1 2 2 2zm5 1.4c1.1 0 2-.9 2-2s-.9-2-2-2-2 .9-2 2 .9 2 2 2zm4.6 2.2c1.1 0 2-.9 2-2s-.9-2-2-2-2 .9-2 2 .9 2 2 2zm35.3 3.4c0 1.1.9 2 2 2s2-.9 2-2-.9-2-2-2-2 .9-2 2zm2.7 2.8c-1.1 0-2 .9-2 2s.9 2 2 2 2-.9 2-2-.9-2-2-2zm-1 4.8c-1.1 0-2 .9-2 2s.9 2 2 2 2-.9 2-2-.9-2-2-2zm-10.6-15.1c1.1 0 2-.9 2-2s-.9-2-2-2-2 .9-2 2 .9 2 2 2zm4.9 1.5c1 .5 2.2.1 2.7-.9s.1-2.2-.9-2.7-2.2-.1-2.7.9-.1 2.2.9 2.7zm3.9 3.4c1.1 0 2-.9 2-2s-.9-2-2-2-2 .9-2 2 .9 2 2 2zm-14-4.4c1.1 0 2-.9 2-2s-.9-2-2-2-2 .9-2 2 .9 2 2 2zm-4.9 1.4c1.1 0 2-.9 2-2s-.9-2-2-2-2 .9-2 2 .9 2 2 2zm-6.6.2c.1 1.1 1 1.9 2.1 1.9 1-.1 1.8-.9 1.9-1.9 0-1.1-.9-2-2-2s-2 .9-2 2zm-7.3 10.7h2.2v-8.5c-.8-.1-1.5-.3-2.2-.7zm6.8-9.2c-.7.3-1.4.6-2.2.7v8.5h2.2zm-4.7-9.3v-5c-2.5.5-4.4 2.5-4.9 5zm2.6 0h4.8c-.4-2.5-2.3-4.5-4.8-5zm-7.4 2.4c.7 3.4 4.1 5.5 7.4 4.7 2.4-.5 4.2-2.4 4.7-4.7zm9.5-8.3c-1.4-1.09996-2.5-2.69996-2.7-4.39996 1.6.3 3.4 1.5 4.5 2.9v-6.79999c-1.1 1.4-2.9 2.59999-4.5 2.89999.2-1.7 1.2-3.19999 2.6-4.899991h-6.6c1.4 1.700001 2.4 3.199991 2.6 4.899991-1.6-.3-3.4-1.49999-4.5-2.89999v6.79999c1.1-1.4 2.9-2.6 4.5-2.9-.2 1.7-1.3 3.3-2.7 4.39996zm7.3 136.1c-6.2-1.6-13.7-4.2-20.6-7.4v-.1c.2-1.4-.3-3-1.4-4.2s-2.5-1.9-3.9-1.9c-.6 0-1.3.1-1.9.4-1-.9-2-1.9-2.9-2.9-2.6-3.1-4.7-6.7-6.1-10.6-.8-2.3-1.4-4.6-1.8-7.1-.3 2-2.6 4.7-6.5 4.7.1-.4 0-1.4-.3-1.5-1 1.1-2.6 2.4-6.1 1.1.5 2.8 1.3 5.5 2.3 8.1 2 5.5 5.1 10.6 9 15 1.3 1.4 2.6 2.8 4 4v.8c0 1.5 1.4 3.8 3.4 4.8 1.7.8 3.5.6 5.1-.6 3 1.6 6.9 3.1 11 4.3 4.7 1.3 9.2 2 12.7 2 3 0 7.1-1.4 11-3.9 1.6-1 3.1-2.1 4.2-3.2.2-.1.3-.3.4-.4-3.1.5-7.8-.4-11.6-1.4zm-22.8-9.3-.7-.5c-1.2-.9-2.2-.9-3.3 0-.5.4-1 1-1.4 1.5l-.7.8.5.4c1.3 1 1.5 2.1 1.1 2.8-.1.3-.4.4-.7.5-.6.2-1.5-.1-2.4-.6l-.5-.3-.3.5-.2.4c-.1.2-.2.3-.3.5-.5 1-.8 1.7-.8 2.3 0 .2 0 .3.1.5.2.7.8 1 1.2 1.3h.2c.6.4 1.4.8 2 1.2-1.1.6-2.3.7-3.4.1-1.7-.8-2.8-2.8-2.8-3.8 0-1.5.7-3.4 1.9-5.3l.2-.3-.2-.3c-.3-.5-.6-1.1-.9-1.7.6.1 1.3.2 1.9.4l.3.1.2-.2c.8-.8 3.4-3.5 5.8-3.5 1.1 0 2.2.6 3.1 1.5.6.7 1 1.6 1.1 2.4-.3-.2-.7-.4-1-.7zm4 11.8c-1.5 0-2.7-1.2-2.7-2.7s1.2-2.7 2.7-2.7 2.7 1.2 2.7 2.7-1.2 2.7-2.7 2.7zm11.7 3.7c-1.4 0-2.4-1.2-2.4-2.5s1.1-2.3 2.4-2.4c1.3 0 2.4 1.1 2.4 2.4 0 1.4-1 2.5-2.4 2.5zm3.2 12.3c-.5 0-.9.1-1.3.2v-7.5c-3.7-.2-7.3-.7-10.9-1.6v9.1c-.4-.1-.9-.2-1.3-.2-2.6 0-4.2 2.2-4.2 4.2 0 1.9 1.1 3.7 2.1 4.8.5-1.2.9-2.1 1.6-2.1 1.3 0 .7 6.5 4.5 6.7-.1.3-.2.7-.2 1 0 1.6 1.3 3 3 3 1.6 0 3-1.3 3-3 0-.3-.1-.7-.2-1 3.8-.2 3.2-6.7 4.5-6.7.6 0 1.1.9 1.6 2.1 1-1.1 2.1-2.9 2.1-4.8 0-2-1.6-4.2-4.3-4.2zm-6.7 16.3c-.9 0-1.7-.7-1.7-1.7 0-.9.7-1.7 1.7-1.7.9 0 1.7.7 1.7 1.7-.1.9-.8 1.7-1.7 1.7zm8.9-9.5c-.4-.8-1.1-1.3-1.7-1.3-2.6 0-1.6 6.7-4.6 6.7-1.3 0-2-.9-2-1.8s.7-1.2.7-2-.6-1-1.3-1c-.6 0-1.3.3-1.3 1 0 .8.7 1 .7 2s-.7 1.8-2 1.8c-3 0-2-6.7-4.6-6.7-.6 0-1.2.5-1.7 1.3-.5-1-.8-1.9-.8-2.6 0-1.2.9-2.9 2.9-2.9 3.4 0 2.6 4.6 4.2 4.6.7 0 1.3-.4 1.3-1.1 0-1.3-2.4-2.6-2.4-4.5s1.7-3.5 3.6-5c1.9 1.5 3.6 3.1 3.6 5s-2.4 3.1-2.4 4.5c0 .7.5 1.1 1.2 1.1 1.6 0 .8-4.6 4.2-4.6 2 0 2.9 1.7 2.9 2.9.3.7 0 1.7-.5 2.6z"/><path d="m273.8 173.6c-.1-.4-.6-.6-1-.5-8.7 2.5-19.6-4.7-30.1-11.7-8.8-5.9-17.2-11.4-24.3-11.4-2.6 0-5 .6-7 1.7-2.5 1.4-4.4 3.5-5.5 6.4-1.2 2.9-2.5 4.9-3.5 6.5-1.2 1.9-2.1 3.3-2.1 5 0 1.4.6 2.7 1.8 3.9 1 1 2.5 2 4.6 3.1.5.2.9.4 1.3.7 1.7.8 2.8 1.4 3 2.4-3.5 1.5-7.9 2.8-13 3.7-5.7 1-12 1.5-18.7 1.5-6.6 0-12.9-.5-18.6-1.5-5.1-.9-9.6-2.1-13-3.7.1-1.5 1.2-2 3.1-2.9.5-.2.9-.4 1.4-.7 1.7-.9 3.4-1.8 4.5-2.8 1.2-1.1 1.8-2.3 1.8-3.7 0-1.7-.9-3.1-2.1-5-1-1.6-2.3-3.6-3.5-6.5s-3.1-5.1-5.6-6.4c-2-1.1-4.4-1.7-7-1.7-7.1 0-15.5 5.5-24.3 11.4-10.5 7-21.3 14.2-30.1 11.7-.4-.2-.9.1-1 .5-.2.4.1.9.5 1 2.7 1.2 5 3 7.3 4.8 3.2 2.5 6.1 4.8 9.4 4.8 3.1 0 6.4-1 10.5-3.1 3.5-1.8 7.2-4.3 10.7-6.7 6.9-4.7 14-9.6 20.8-10.1-.7.7-1.4 1.3-2 1.9-2 1.8-3.7 3.3-3.7 6.5 0 2.5.8 4.2 2 6.7.3.7.7 1.5 1.1 2.4.8 1.7 1.1 3 1.5 4.9.2.8.4 1.7.7 2.8.4 1.6 1.2 4.6 6.2 7.1 5.8 2.9 15.7 4.4 29.5 4.4s23.7-1.5 29.5-4.4c5-2.5 5.8-5.5 6.2-7.1.3-1.1.5-2 .7-2.8.5-1.8.8-3.2 1.5-4.9.6-1.2 1.1-2.2 1.6-3.1 1-1.9 1.9-3.5 1.9-5.7 0-3.1-1.8-4.8-3.9-6.7-.7-.6-1.4-1.3-2.1-2 6.8.5 13.9 5.4 20.8 10.1 3.5 2.4 7.2 4.9 10.7 6.7 4.1 2.1 7.4 3.1 10.5 3.1 3.3 0 6.2-2.3 9.4-4.8 2.3-1.7 4.6-3.6 7.3-4.8.2-.1.4-.6.3-1zm-52.5-69.9c-1-.7-2.5-2.2-3.4-3.8999-1-2.1-5.4-10.7-6-11.8-.6-.9-.9-1.8-.9-2.5 0-.9.4-1.6.9-2.3.3-.4 1.3-1.4 1.6-1.9.3-.4.5-.8.8-1-1.6-2.7-3.2-4.8-5.3-7.1-2.5-2.9-5.4-5.3-8.5-7.3 1.7-1.1 3.3-2.6 3.3-5.2 0-1.5-.6-2.7-1.7-3.7 1.7-5.6 4.9-12.3 7.6-15.3l-5.6-2.4c1.5 2.2 1.6 4.8 1.2 6.3-1.5-1-2.7-2.4-3.1-4.2-.3 1.7-1.2 4.5-2.1 6.1 1.6-.8 2.9-1.1 4.6-.4-.9 1.3-3.4 3.2-7.1 2.4-2-.5-4-1.5-3.9-3.1 0-.9.7-2 2-1.9 1.2.1 1.3 2 .9 2.8 1.6-.9 3.3-5.6.8-6.3-2-.5-3.8 2.2-4.4 4.2-.4-2.5-1.4-4.9-3.4-4.8-2.6.2-1.7 4.9-.8 6.2.2-1.7 1.1-2.6 1.8-2.5.7 0 1.6.5 1.4 2s-2.3 2.5-4.8 2.5c-2.4 0-6.5-.7-6.9-5.3 1.5.3 4 1.5 5 3-.3-2.5-.3-5.1 0-7.6-1.3 1.8-3.4 2.7-4.9 3 .4-2 2.1-4 4.1-5.3h-10.2c2 1.2 3.6 3.3 4.1 5.3-1.5-.3-3.6-1.2-4.8-3 .3 2.9.3 4.8 0 7.6 1-1.5 3.4-2.7 4.9-3-.4 4.6-4.6 5.3-6.9 5.3-2.5 0-4.6-.9-4.8-2.5-.2-1.5.8-2 1.5-2 .8-.1 1.7.8 1.8 2.5.9-1.2 1.7-6-.8-6.2-2-.1-3 2.3-3.4 4.8-.7-2.1-2.5-4.8-4.4-4.2-2.5.7-.8 5.4.8 6.3-.4-.8-.3-2.7.9-2.8 1.3-.1 1.9 1 2 1.9.1 1.5-1.9 2.6-3.9 3.1-3.7.9-6.1-1.1-7.1-2.3 1.7-.7 3-.4 4.6.4-.9-1.6-1.8-4.4-2.1-6.1-.4 1.9-1.7 3.3-3.2 4.3-.4-2.2 0-4.5 1.2-6.4l-5.6 2.4c2.7 3 5.8 9.7001 7.6 15.3001-1.1 1-1.7 2.1999-1.7 3.6999 0 2.6 1.7 4.2 3.3 5.2-3.1 2.1-6 4.5-8.5 7.3-3.9 4.4-6.9 9.4-9 14.9.8.8 4.1 4.5 4.9 5.5 1.4 1.8 2.2 3.5001 2.3 4.9001.1 2.4998.6 3.4998 2 5.2998.4.5 1 2.5 1.1 3.8h27.9v30.3c-1.1.1-2.3.4-3.2 1.5 3.2 1.3 6.3 2.5 9.4 3.4.3-2 .7-3.2 1.7-4.4 0 0-4-.4-6.2-.5v-30.3h27.2c-.1 4.1-.8 8.2-2.2 12-1.4 3.9-3.5 7.5-6.1 10.6-2.5 3-5.6 5.4-9 7.1-.5.3-.5.7-1.1.9-.5.5-1 1.4-1.3 2.5-.3.9-.5 1.5-.6 2.8 1.3.4 2 .6 3.2.9 9.6 2.4 11.9 1.7 12.5 1.3 2.2-1.7 4.2-3.6 6-5.6 3.9-4.4 6.9-9.5 9-15 2.2-5.8 3.3-12 3.3-18.4-.3-1.6-.3-1.9-.3-3.1zm-42.4 2.1h-27.9c.1-4.3.8-8.4999 2.2-12.4999 1.4-3.9 3.5-7.5 6.1-10.6 2.5-3 5.6-5.3999 9-7.0999 3.3-1.6 6.9-2.5001 10.5-2.6001v32.7999zm.5-46.4999c-9.3 0-15.7 2.7-19.4 5.2-2.2-1.3-3.1-2.5-3.1-4 0-5.3 14.9-5.8 22.5-5.8s22.5.5 22.5 5.8c0 1.5-.9 2.7-3.1 4-3.7-2.4-10.1-5.2-19.4-5.2zm1.1 46.4999v-32.7999c3.4.2 6.7 1 9.9 2.5 3.4 1.7 6.4 4.1001 9 7.1001 2.6 3.1 4.7 6.6999 6.1 10.5999 1.4 4 2.2 8.1999 2.2 12.4999z"/><path d="m203.5 100.4c.5.3.3 1.1-.3 1-.6-4.9999-2.4-9.6999-5.2-13.7999l.1-.1c.6-.2 1.1-.8 1.2-1.4-.7-.1-1.4.2-1.8.8-.2-.3-.4-.5-.6-.8-1.7-2.1-3.7-4-5.9-5.5-2-1.4-4.2-2.4-6.6-3 0-.5.7-.6 1-.1.1-.9-.7-1.3-1.1-1.1-.2.1-.4.3-.5.7-.3-.4-.8-.6-1.2-.7 0 .6.1 1 .4 1.3-.4 0-.6.2-.7.4-.2.4.1 1.2.9 1.3-.4-.3-.2-1 .3-1v10.7c-.6-.2-1.3 0-1.8.5.6.6 1.2.6 1.8.5v11.5999c-.6.1-.7-.7-.3-1-.9 0-1.2.8-1 1.2.1.3.4.5.9.4-.3.3-.5.8-.5 1.2.4 0 .9-.2 1.2-.5-.1.5.2.8.4.9.4.2 1.2-.2 1.2-1-.3.4-1 .3-1-.2h8c-.2.6 0 1.3.5 1.8.5-.6.6-1.2.5-1.8h9c0 .6-.7.7-1 .3 0 .9.8 1.2 1.2 1 .3-.1.5-.4.4-.9.3.3.8.4 1.2.4 0-.5-.2-.9-.5-1.2.5 0 .8-.2.9-.4.1-.7-.3-1.5-1.1-1.5zm-7.8-14.0999c-.2.2-.4.5-.3.8s.3.5.8.5c-.3.3-.6.7-.6 1.1.5.1 1-.1 1.3-.3-.1.5.1.8.3.9s.5.1.7 0c2.1 3.4 3.5 7.1 4.1 11.0999-.3-.2-.7-.3-1-.3 0 .5.2.9.5 1.3h-6.8c0-.4-.2-.8-.5-.9s-.6-.1-.9.3c0-.4-.2-.8999-.5-1.1999-.3.3-.5.6999-.5 1.1999-.3-.4-.6-.4-.9-.3s-.5.5-.4.9h-5.8c.3-.3.4-.7.4-1.2-.4 0-.8.1-1.2.4v-9.3999c.4.1.8-.2.9-.4.1-.3.1-.6-.3-.9.5 0 .9-.2 1.2-.5-.3-.3-.7-.5-1.2-.5.4-.3.4-.6.3-.9s-.5-.5-.9-.4v-8c.2.2.6.4 1 .4 0-.4-.1-.8-.3-1.1 1.8.6 3.6 1.5 5.3 2.6 1.9 1.2 3.7 2.9 5.3 4.8z"/><path d="m198.7 97.5c.3-.1.6-.4.8-.7-.4.1-.7-.1-.8-.1.3-.2.6 0 .3-.5s-.5-.5-.9-.2c-.3.3-2.5-.1-2.5-1.7.2.3.4.5.7.6.1 0 .2.1.3.1h.3c.2.1.4.1.6.1h.1v-.1c.4-.1.8-.4.8-.9.1-.9-.8-1.3-1.7-2.1-.3-.3-.6-.5-.9-.8-.3-.6-.1-1.2-.9-2.4-.1-.4-.1-.7-.3-1-.6 1.1-.4 2.5.5 3.4.9 1 2.8 1.9 2.8 2.8 0 .2-.2.4-.5.4-.1 0-.2 0-.3 0s-.1 0-.2-.1c-.1 0-.3-.1-.4-.2-.2-.1-.5-.3-.7-.5-.8-.8-1.5-1.8-2-2.5-.9-1.1-.5-2.3-.3-3.2.6-.9-.4-2.7-1-3.1 0 0 .1-.4 0-.9-.1.1-.4.1-.6.1-.2-.3-.2-.4-.5-.4-.4-.1-.4-.3-.4-.4-.2.2-.3.4-.5.4-.3 0-.5 0-.6.1-.2.2-.3.3-.7.2-.4 0-.4.2-.3.5 0 .2 0 .4.3.5h.1l.3.3.2-.4c.2-.1.6-.2.7.2.1.2.1.3-.2.3s-.5 0-.8.1c-.2 0-.2.3-.2.4 0 .2.2.3.7.2.4-.1 1.2-.2 1.2.2 0 1-1.1.9-1.3 2.1-.3-.2-.5-.4-.7-.6-.2-.4-.5-.7-.8-1-.2-.3-.5-.5-.8-.7-.4-.2-.4-.4-.4-.8 0-.3.1-.7.1-1 0 0-.1-.2-.1-.3-.1-.2-.4-.4-.5-.3.1.1.2.1.2.3-.1.1-.1.2-.2.2-.1.1-.1.2 0 .3v.1.2c-.1-.2-.2-.6-.4-.6 0 0-.1 0-.2 0 0-.2-.3-.4-.6-.2.1 0 .2 0 .2.1s0 .2-.1.3c0 .2.2.4.4.4h.1v.1c-.4-.2-.6 0-.6.2v.2c-.2.1-.2.3.1.5 0-.1 0-.2.1-.3h.1c0 .1.1.1.1.1s.1 0 .2-.1h.1l.1.1v.1c-.3.3-.2.5.1.6-.2.3-.7.2-.6-.3-.4.6.2 1 .8.8 0 .2 0 .6.1.7 0 0 0-.1.1-.1v.1c0 .1.1.3.3.3 0-.1 0-.2.1-.2.1.1.2.3.3.4.2.5.8 1.6 1.9 2.1-.6.3-1 .8-1.4 1.3-.3.3-.8.7-1.1.5-.1-.1-.2-.2-.3-.3s-.3-.1-.4-.1-.1 0-.2.1c-.2-.1-.5 0-.6.2.1 0 .2-.1.4.1v.2c0 .1.1.3.7.3 0 0 .1 0 .1.1-.1.1-.2.1-.3.1-.3-.1-.4-.3-.6 0 0 .1-.1.1-.1.2 0 0 0 0-.1 0-.2.1-.5.5-.2.7 0-.1 0-.3.2-.4 0 .1.1.1.1.1.2.3.4.4.8-.2 0-.1.1 0 0 0 0 .3-.3.7.1.7h.2v.1c.1.3.5.4.7.3-.1-.1-.3-.1-.4-.4h.2c.2-.2 0-.5.1-.6 0-.1.1 0 .1 0 .1.1.3.4.6.2.1-.1.2-.2.2-.4.4-.2.8-.3 1.1-.2-.1-.2.2-.5.6-.6s.6 0 .8.1c.1-.3.2-.5.4-.7-.1 1.7 2.2 1.7 2.8 2.7-.7-.3-1.5-.5-1.9-.4-.6.1-1.5.6-1.7 1.3-.1.5.4 1.4 1 1.8-.7.1-.9-.1-1.5.1 0 0 0 0-.1 0-.5.1-.6-.9-1.2-.6-.1 0-.1.1-.2.1-.2 0-.6.3-.5.5.1-.1.2-.2.4-.2v.1c0 .1 0 .2.2.2.1 0 .2-.1.2-.1s.1 0 .1.1c0 .2-.8-.1-.6.5 0 0 .1.1.1.2 0 .2.1.4.5.3-.1 0-.2-.1-.2-.2h.1s.1 0 .1-.1c0 0 .1 0 .1.1v.1s0 .2.1.2c0 .2.3.5.7.2-.1 0-.3-.1-.3-.2.1 0 .1 0 .2-.1 0 0 .1-.1.1-.2s0-.1.1-.1h.2c.1 0 .1 0 .1.1.1.1.3.3.5.2.1 0 .2-.1.2-.2.1.1.2.1.3.2-.1-.2.1-.4.6-.1l.4-.3s.5.2.7 0c.3-.3.1-.3.1-.6-.2-.5-.4-.5-.5-1-.2-.9 1-1.3 1.7-1.2.1.5.9 2 2.1 2.4.8.3 1.1-.6 1.4-.5.1 0 .1.1.1.2 0 .4 0 .7-.1.9s-.5 0-.8 0c-.1 0-.2 0-.3.1-.2 0-.5.3-.5.5.1-.1.2-.2.4-.2v.1c0 .3.4.4.6.2h.1c-.2.1-.5.5-.2.6 0 0 .1.1.2.1 0 .2.1.4.3.4-.1-.1-.1-.2 0-.4h.2c.2 0 .1-.4.4-.5 0 0 .1 0 0 0-.1.2-.1.5.1.6h.2c.1.2.3.3.6.2-.1 0-.2-.1-.3-.2.1-.1.1-.2.2-.2.2-.5-.3-.5-.3-.7 0-.3.5-.1.5-.6v-.1c.2-.1.5-.3.5-.5-.3.4-.5.4-.7.3zm-23 15.4h-.5v-.4c.1-1.6-.9-2.8-2.7-2.8-1.6 0-4.6 2-8.8 2-1.8 0-3.9-.9-5.3-1.7l-.5 1.3v-.1c0-.6-.5-1-1-1-.6 0-1.1.5-1 1.1 0 .6.5 1.1 1.1 1 .3 0 .6-.1.8-.4l-.5 1.3c.2.1.4.2.6.2-.6 6.4 4.1 14.6 12.5 17.1 1.2-.3 2.5-.1 2.5 1.2 0 .8-.4 1.2-1.2 1.2-.5 0-.8-.3-.8-.6 0-.6 1-.2 1.1-.6.1-.5-.2-.7-.8-.7s-1.5.4-1.5 1.4c0 1.2.9 1.8 1.9 1.8.9 0 2.9-.5 2.6-2.8.5 0 1-.1 1.1-.5l.1-1.3-.5-.1.4-14.7h.3c.5 0 1-.2 1-.8 0-.8-.4-1.1-.9-1.1zm-15.1 1.1 10.2 14.7c-5.5-2.1-10.9-7-10.2-14.7zm10.5 13.3-9.3-13.4h.9c.5 0 1 0 1.4-.1l7.4 10.7c-.2 1.1-.3 2-.4 2.8zm.6-4.2-6.6-9.4c.7-.2 1.4-.4 2.1-.6l4.9 7zm1.6-10.4h-.4c-.4 0-1 .2-1 .8s.4.9.9.9h.3l-.1.4c-.1.8-.3 2.2-.6 3.8l-4.2-6c1.9-.8 3.5-1.6 4.4-1.6.7 0 .9.3.7 1.7zm.6-29.5c2 0 3-.6 3-1.3 0-2.2-5.5-.8-5.5-2.2 0-.2.2-.4.4-.6h.1c2.8-.3 2.8-2.1 4.8-2.5-2.4-.3-2.7 1.5-3.7 1.6.5-.3.7-.9.7-1.1-.5.6-1.5.7-2.1 1.4-.1.1-.1.3-.1.4-.4.2-.6.5-.6.8 0 2.1 5.5.7 5.5 2.2 0 .5-1 .9-2.5.9-1.1 0-2-.8-4.1-.3 0-.3.7-1 .4-1.4.2-.1.4-.2.4-.4-.1-.1-.3-.2-.4-.2.1-.1 0-.2-.1-.3l-.1-.3c-.1-.1-.2-.2-.5-.3-.2-.1-.4-.1-.5-.1s-.3 0-.3 0c-.1 0-.3 0-.3.1-.1-.1-.2-.2-.4-.2-.1.2-.1.4-.1.6-.2 0-.4.5-.6.5.1.1.1.2.2.2-.2.3-.2.6-.4.7 0 .1.1.1.1.2-.2.4-.3 1-.3 1.3-.1-.1-.3-.3-.5-.4-.3-.2-.3-.3-.2-.7 0-.3.2-.5.2-.8 0 0 0-.2 0-.3 0-.2-.3-.3-.4-.3.1.1.2.1.1.3-.1.1-.1.1-.2.1-.1.1-.1.2 0 .3v.1.1c0-.2-.1-.5-.3-.5 0 0-.1 0-.2 0 0-.2-.2-.4-.5-.1.1 0 .2 0 .2.1-.1.1-.1.2-.1.2 0 .2.1.3.4.3h.1v.1c-.4-.2-.6 0-.6.1v.2c-.1.1-.2.3 0 .4 0-.1 0-.2.1-.2h.1l.1.1s.1 0 .3-.1h.1s.1 0 .1.1v.1c-.3.2-.3.5 0 .5 0 0 .1 0 0 .1-.1.5-.7.3-.6-.1-.4.5.1.9.7.6h.1c0 .1.1.2.1.2s0-.1.1-.1v.1c0 .1 0 .3.2.3 0-.1 0-.2.1-.2s.2.4.5.7c-.4.2-.8.3-1.2.4-.1 0-.8-.1-1 0-.3.2-1.1.5-1.3.1-.1-.1 0-.2-.1-.4-.1-.1-.2-.2-.2-.2s-.1 0-.2 0c-.1-.1-.4-.2-.5-.1.1 0 .2 0 .3.2 0 .1-.1.1-.1.2-.1.1 0 .3.5.4 0 0 .1.1 0 .1s-.2 0-.3 0c-.2-.2-.2-.4-.4-.2-.1 0-.1 0-.2.1 0 0 0 0-.1 0-.2 0-.6.2-.4.5 0-.1.1-.2.3-.2 0 .1 0 .1.1.2 0 .3.2.4.7.1.1 0 .1 0 0 0-.1.2-.5.4-.2.6 0 0 .1 0 .1.1-.1.3.3.5.4.5-.1-.1-.2-.3-.2-.4h.2c.2-.1.1-.4.3-.5h.1c0 .1.1.4.4.4s.4-.3.4-.4c.1.1.2.2.1.3.1 0 .2-.1.2-.2.1.1.1.3-.1.5.1 0 .4-.2.5-.5 0 0 .1.1.1.2.1 0 .3.1.6 0v.3l.1-.1c.1 0 0 .3.2.5.1-.7.5-.5.9-.8.1 0 .1 0 0 0 0 .1-.1.2-.2.2.2 0 .6-.2.6-.4 0-.1.1-.1.3-.2.2 0 .4 0 .5-.2 0 .1.1.3 0 .4.5 0 1-.5 1.2-.6 1-.2-.6-1 1.5-.8.2 0 .4-.1.6-.2-.2.3-.2 1 .2 1 .2 0 .4.1.5.2v.1c-.2 0-.3.1-.5.1-.5.3-.5-.8-1.1-.6l-.1.1c-.2 0-.5.3-.5.5.1-.1.2-.2.3-.2v.1c0 .1 0 .2.2.2h.2.1c0 .2-.6-.1-.5.4 0 0 .1.1.1.2 0 .2.1.3.4.2 0 0-.2-.1-.1-.2h.1s0 0 .1-.1c0 0 .1 0 .1.1l-.1.1s0 .2.1.2c0 .2.3.4.6.2-.1 0-.3 0-.3-.1 0 0 .1 0 .1-.1.1 0 .1-.1.1-.2h.1.1.1c0 .1.2.2.4.2.4-.1.1-.4.3-.5h.2c.3.1.7.1.8-.1.1-.1 0-.6-.3-.8-.2-.1 0-.3-.2-.6.3.1.6.3 1.1.3.8 0 0-.1.4-.3s.8-.1.9-.1.2.1.2.2c-.1.4 0 .4 0 .6-.1.2-.4 0-.6 0-.1 0-.2.1-.2.1-.2 0-.4.2-.4.4.1-.1.2-.1.4-.2v.1c0 .3.3.4.5.2h.1c-.2.1-.4.4-.2.5 0 0 .1 0 .1.1 0 .2.1.3.2.4 0-.1-.1-.1 0-.3h.1c.2 0 .1-.3.3-.4-.1.2-.1.4.1.5h.1c.1.2.2.3.5.1 0 0-.2-.1-.2-.2s.1-.1.1-.2c.1-.4-.2-.4-.2-.6s.4-.1.4-.5c0-.1 0-.2-.2-.3.1 0 .2 0 .3-.1-.3 0-.2-.2-.3-.4 0 0 0 0 0-.1.1-.1.2-.2.1-.4-.1.1-.4.3-.5 0 0 0 0-.2-.3-.2-.5 0-.8-.3-1.8-.5 0 .1 0 .1 0 0zm-4.6-2.5c.2.1.4.2.6.3-.3.1-.2.2-.4.2-.1-.1-.2-.4-.2-.5zm-.4-.2c-.1.2-.3.3-.4.1-.2-.1 0-.2-.2-.5.2.2.4.3.6.4zm-.6 1.3c0-.1.1-.2.2-.2s.2 0 .2-.1c.1-.1-.1-.2-.2-.3.1 0 .2-.1.1-.1-.1-.1-.2.1-.2 0s.1-.1.1-.1c.1-.1.1 0 .2 0l.5.3c.1 0 .1.1.1.1v.2c-.1 0-.1-.2-.1-.2-.1 0-.1.1 0 .2-.1-.1-.2-.1-.3 0s0 .2 0 .3v.3c0 .1-.2.3-.4.2-.3-.3-.3-.5-.2-.6zm8.4 8.9c0-.6-.7-1-2.6-1-2 0-6.3.7-6.3-.4 0-.5.9-.5 1.9-.4.1.1.2.2.4.2 2.5.7 5.5-.6 7-.2-1.8-1.4-3.3.1-5.2-.4 1.1 0 1.5-.3 1.6-.6-.9.6-2.5-.3-3.5.4-.1 0-.1.1-.2.1-1.4 0-2.5 0-2.5.9 0 1.9 5.2.8 6.9.8 1.6 0 2 .2 2 .5 0 .5-1.6.6-2.5.6-1.4 0-5.7-.7-8.3-.2.2-.4.7-1 .4-1.3.2-.1.4-.3.4-.5-.1-.1-.3-.2-.5-.2.1-.1 0-.2-.1-.3l-.1-.3c-.1-.1-.3-.3-.6-.4s-.5-.1-.6-.2c-.1 0-.3.1-.4.1s-.3 0-.3.1c-.1-.1-.3-.2-.5-.2-.1.2-.1.5-.1.7-.2 0-.5.6-.7.5.1.2.2.2.2.3-.2.3-.3.8-.5.8.1.2.2.3.3.3 0 .2 0 .5-.1.8l-.4-.2h-.1c-.1 0-.1 0-.2-.1h.2l-.2-.1c-.2-.2-.5-.5-.9-.7s-.4-.4-.4-.8.2-.7.2-1c0 0-.1-.2-.1-.3 0-.2-.3-.4-.5-.3.1.1.2.1.2.3-.1.1-.1.1-.2.2s-.1.2 0 .3v.1.2c-.1-.2-.2-.6-.4-.6 0 0-.1 0-.2 0 0-.3-.3-.5-.6-.1.1 0 .2 0 .2.1s-.1.2-.1.3c0 .3.1.3.4.4h.1v.1c-.4-.2-.6 0-.6.2v.2c-.2.1-.2.3.1.5 0-.1 0-.2.1-.3h.1l.1.1c.1 0 .1 0 .3-.1h.1s.1 0 .1.1v.1c-.3.3-.3.6.1.6.1 0 .1 0 .1.1-.1.6-.8.4-.7-.1-.4.6.2 1.1.8.8h.1c0 .1.1.2.2.2 0 0 0-.1.1-.1v.1c0 .1 0 .3.2.3 0-.1 0-.2.1-.2s.3.4.8.7c.4.2.6.6.9.3 0 .4.3.8.2.8s-1.1-.1-1.4.1c-.4.2-1.3.5-1.5.2-.1-.1-.1-.2-.2-.5-.1-.1-.2-.2-.3-.2 0 0-.1 0-.2 0-.2-.2-.5-.2-.6-.1.1 0 .2 0 .3.2 0 .1-.1.2-.1.2-.1.1 0 .3.5.5 0 0 .1.1 0 .1s-.2.1-.3 0c-.2-.2-.3-.4-.5-.3 0 0-.1.1-.2.1 0 0 0 0-.1 0-.2 0-.6.3-.5.6l.3-.3c0 .1.1.2.1.2.1.3.2.5.8.1.1-.1.1 0 0 0-.2.3-.5.5-.2.7l.1.1c-.1.3.3.6.5.6-.1-.1-.2-.3-.2-.5h.2c.3-.1.2-.5.3-.6h.1c0 .2.1.5.4.4.3 0 .5-.3.5-.5.1.1.2.2.2.4.1 0 .2-.1.2-.2.1.2.1.4-.1.6.1 0 .5-.2.5-.6 0 .1.1.1.1.2.1 0 .3.1.7 0h.1v.3l.1-.2c.1 0 0 .3.2.5.1-.9.5-.5 1.1-.9.1 0 .1 0 0 0 0 .1-.1.2-.2.3.6.1 1.5-.8 1.7-1.2.2 0 .5-.1.6 0 1.7.2.5-1.5 3.3-1.1.2 0 .5-.2.7-.3-.2.4-.2 1.1.2 1.2.2 0 .5.1.6.3v.1c-.2 0-.4.1-.5.1-.6.4-.6-.9-1.2-.6-.1 0-.1.1-.2.1-.2 0-.6.3-.5.5.1-.1.2-.2.4-.2v.1c0 .1 0 .2.2.2.1 0 .1-.1.2-.1 0 0 .1 0 .1.1 0 .2-.8-.1-.6.5 0 0 .1.1.1.2 0 .2.1.4.5.3-.1 0-.2-.1-.2-.2h.2s.1 0 .1-.1c0 0 .1 0 .1.1v.1s0 .2.1.2c0 .2.3.5.6.2-.1 0-.3 0-.3-.2.1 0 .2-.1.2-.1s.1-.1.1-.2c0 0 0-.1.1-.1h.2.1c.1.2.2.3.5.2.4-.1.1-.5.4-.6h.2c.3.1.8.1.9-.1s0-.8-.3-1c-.2-.1 0-.4-.2-.6.4.2.8.3 1.2.3.9 0 1.1-.1 1.5-.4s.9-.1 1.1-.1c.1 0 .2.1.2.2-.1.5 0 .5-.1.7s-.5 0-.7 0-.3.1-.3.1c-.2 0-.5.2-.5.5.1-.1.2-.2.4-.2v.1c0 .3.4.4.6.2h.1c-.2.1-.5.4-.2.5 0 0 .1.1.2.1 0 .2.1.4.3.4-.1-.1-.1-.2 0-.4h.2c.2 0 .1-.4.3-.5 0 0 .1 0 0 0-.1.2-.1.5.1.6h.2c.1.2.3.3.5.2 0 0-.2-.1-.2-.2s.1-.2.1-.2c.1-.5-.3-.5-.3-.7s.5-.1.5-.6c0-.1 0-.2-.2-.3.1 0 .3 0 .3-.2-.4 0-.3-.3-.3-.5v-.1c.1-.1.2-.2.2-.5-.1.2-.5.3-.6 0 0 0 0-.3-.4-.2-.6.1-1-.1-2.1-.2 1.2.5 3.1.2 3.1-.5zm-12.1-1.7c.2.1.5.2.8.3-.4.1-.3.2-.5.2-.3 0-.4-.3-.3-.5zm-.5-.2c-.1.2-.3.3-.5.2-.2-.2 0-.2-.2-.5.2 0 .6.2.7.3zm-.7 1.5c.1-.1.1-.2.2-.2s.2 0 .2-.1c.1-.2-.1-.2-.2-.3.1 0 .2-.1.1-.2s-.2.1-.3 0c0-.1.1-.1.1-.2.1-.1.1 0 .2 0l.6.3c.1 0 .1.1.1.2v.2c-.1 0-.1-.2-.2-.2s-.1.1 0 .2c-.2 0-.3-.1-.4 0s0 .2 0 .3c.1.1 0 .2 0 .3-.1.1-.2.3-.4.2-.1-.1-.1-.3 0-.5zm1.6 3.4s0 .1 0 0zm10.8 5.5c0-.6-.6-.9-2.5-.9-1.8 0-7.6.7-7.6-.4 0-.7 1.9-.4 3.3-.4.1.1.2.2.4.3 2.4.7 4.9-.9 6.6-.4-1.4-1.2-3.1.1-4.9-.2 1.1 0 2.2-.2 2.2-.5-.8.5-3.1-.4-4.1.2-.1 0-.1.1-.2.1-1.8 0-3.9-.2-3.9.8 0 1.9 6.5.8 8.1.8s1.9.2 1.9.5c0 .4-1.6.5-2.4.5-1.4 0-7.5-.8-9.9-.1.1-.4.7-1 .4-1.4.2-.1.4-.3.4-.5-.1-.1-.3-.2-.5-.2.1-.1 0-.2-.1-.3l-.1-.3c-.1-.1-.3-.2-.6-.4-.3-.1-.5-.1-.5-.1-.1 0-.3.1-.3 0-.1 0-.3 0-.3.1-.1-.1-.3-.2-.4-.2-.1.2-.1.4-.1.7-.2 0-.5.6-.7.5.1.2.1.2.2.2-.2.3-.3.7-.5.7.1.1.2.2.2.2 0 .2-.1.4-.1.6l-.2-.1c-.1 0-.3 0-.3 0-.1 0-.2 0-.3 0-.3 0-.5-.5-1-.8-.4-.2-.4-.4-.4-.8 0-.3.2-.6.1-.9 0 0-.1-.2-.1-.3-.1-.2-.3-.4-.5-.3.1.1.2.1.2.3-.1.1-.1.1-.1.2-.1.1-.1.2 0 .3v.1.1c-.1-.2-.2-.6-.4-.6 0 0-.1 0-.2 0 0-.2-.3-.4-.5-.1.1 0 .2 0 .2.1s0 .2-.1.2c0 .2.2.3.4.3h.1v.1c-.4-.2-.6 0-.6.2v.2c-.2.1-.2.3.1.5 0-.1 0-.2.1-.3l.1.1s.1 0 .2-.1h.1l.1.1v.1c-.3.3-.2.5.1.6 0 0 .1 0 .1.1 0 .5-.7.4-.7-.1-.4.6.3 1.1.8.8h.1c0 .1.1.2.2.2 0 0 0-.1.1-.1v.1c0 .1.1.3.3.3 0-.1 0-.2.1-.2s.5.7 1.2 1.1c.1 0 .4 0 .4-.2 0 .1.1.1.2.2 0 .3.2.8.2.8-.1 0-1.3-.1-1.5.1-.3.2-1.2.5-1.4.1-.1-.1-.1-.2-.2-.4-.1-.1-.2-.2-.3-.2 0 0-.1 0-.2 0-.1-.2-.5-.2-.6-.1.1 0 .3.1.3.2s-.1.2-.1.2c-.1.1 0 .3.5.5 0 0 .1.1 0 .1s-.2.1-.3 0c-.2-.2-.2-.4-.5-.3 0 0-.1 0-.2.1 0 0 0 0-.1 0-.2 0-.6.3-.4.6 0-.1.1-.2.3-.3v.2c.1.3.2.5.8.1.1 0 .1 0 0 0-.1.2-.5.5-.2.7l.1.1c-.1.3.3.6.5.5-.1-.1-.2-.3-.2-.5.1 0 .1.1.2 0 .3-.1.2-.4.3-.5h.1c0 .1.1.4.4.4s.5-.3.4-.5c.1.1.2.2.2.3.1-.1.2-.1.2-.2.1.2 0 .4-.1.6.1 0 .5-.2.5-.5 0 0 .1.1.1.2.1.1.3.1.6 0v.3l.1-.2c.1 0 0 .3.2.5.1-.8 1-.4 1.6-.7h.1c0 .1-.1.2-.2.3.2 0 .5-.1.7-.3l-.1.1.8-.4c0-.1 0-.2 0-.2.1 0 .2 0 .3-.1.5 0 .5-.4.7-.4 3 .4 1.3-1.3 4.9-1 .2 0 .2-.1.4-.2-.2.4-.2.9.2 1 .2 0 .5.1.6.3v.1c-.2 0-.3.1-.5.1-.6.4-.6-.8-1.2-.6-.1 0-.1.1-.2.1-.2 0-.6.3-.5.5.1-.1.2-.2.4-.2v.1c0 .1 0 .2.2.2.1 0 .2-.1.2-.1s.1 0 .1.1c0 .2-.7-.1-.6.5 0 0 .1.1.1.2 0 .2.1.4.5.3-.1 0-.2-.1-.2-.2h.2s.1 0 .1-.1c0 0 .1 0 .1.1v.1s0 .2.1.2c0 .2.3.5.6.2-.1 0-.3 0-.3-.2l.1-.1c.1 0 .1-.1.1-.2 0 0 0-.1.1-.1h.1.1c.1.2.2.3.5.2.4-.1.1-.5.4-.6h.2c.3.1.8.1.9-.1s0-.7-.3-.9c-.2-.1 0-.3-.2-.6.3.1.7.3 1.2.3.9 0 1.1-.1 1.4-.4.4-.3.9-.1 1-.1s.2.1.2.2c-.1.4 0 .5-.1.7s-.5 0-.7 0-.3.1-.3.1c-.2 0-.5.2-.4.5.1 0 .2-.2.4-.2v.1c0 .3.4.4.5.2h.1c-.2.1-.5.4-.2.5 0 0 .1 0 .2.1 0 .2.1.4.3.4-.1-.1-.1-.2 0-.3h.1c.2 0 .1-.4.3-.5-.1.2-.1.5.1.5h.2c.1.2.3.3.5.2-.1 0-.2-.1-.2-.2.1-.1.1-.1.1-.2.1-.5-.2-.5-.2-.6 0-.2.5-.1.5-.5 0-.1-.1-.2-.2-.3.1 0 .3 0 .3-.1-.3 0-.2-.3-.3-.5v-.1c.1-.1.2-.2.1-.5-.1.2-.5.3-.5 0 0 0 0-.2-.4-.2-.6.1-.9-.1-2-.2 1.4.4 3.3.2 3.3-.5zm-13.5-1.5c.1.1.5.2.7.3-.3.1-.3.2-.5.2s-.3-.3-.2-.5zm-.5-.2c-.1.2-.3.3-.5.1s0-.2-.2-.5c.3.2.5.3.7.4zm-.7 1.5c.1-.1.1-.2.2-.2s.2 0 .2-.1c.1-.1-.1-.2-.2-.3.1 0 .2-.1.1-.2s-.2.1-.3 0c0-.1.1-.1.1-.1.1-.1.1 0 .2 0l.6.3c.1 0 .1.1.1.2v.2c-.1 0-.1-.2-.2-.2s-.1.1 0 .2c-.1 0-.3-.1-.3 0-.1.1 0 .2 0 .3v.3c-.1.1-.2.3-.4.2-.2-.3-.1-.5-.1-.6zm41.1 14.5c.1-.2.2-.3.2-.6-.1.2-.5.4-.5 0 0 0 0-.2-.3-.2-.6.1-1.1 0-2.2-.1-.1 0-.1-.1 0-.1 1.1-.1 3-.2 3-.9 0-.6-.6-.9-2.5-.9-1.8 0-7.6.7-7.6-.4 0-.7 1.9-.4 3.3-.3.1.1.2.2.4.2 2.4.7 5.1-1.1 6.6-.7-1.9-.6-3.1.5-4.9.1 1.1 0 2.2-.2 2.2-.5-.8.5-3.1-.4-4.1.2-.1 0-.1.1-.2.1-1.8 0-3.9-.2-3.9.8 0 1.8 6.5.8 8 .8 1.6 0 1.9.2 1.9.5 0 .5-1.5.6-2.4.6-1.5 0-7.5-.8-9.9-.1.1-.4.7-1 .5-1.4.2-.1.4-.3.4-.5-.1-.1-.3-.2-.5-.2.1-.1 0-.2-.1-.3l-.1-.3c-.2-.2-.3-.3-.5-.4-.3-.1-.4-.1-.6-.1-.1 0-.3.1-.3 0-.1 0-.3 0-.3.1-.1-.1-.3-.2-.4-.2-.1.2-.1.4 0 .7-.2 0-.5.6-.7.5.1.2.1.2.2.2-.2.3-.3.7-.5.7.1.2.2.3.3.3v.6l-.3-.1c-.1 0-.3 0-.3 0-.1 0-.2 0-.3-.1-.3 0-.5-.5-1-.8-.4-.2-.4-.4-.4-.8 0-.3.2-.6.1-.9 0-.1-.1-.2-.1-.3-.1-.2-.3-.4-.5-.3.1.1.2.2.2.3-.1.1-.1.2-.2.2-.1.1-.1.2 0 .3v.1.2c-.1-.2-.2-.6-.4-.6h-.2c0-.2-.3-.4-.5-.1.1 0 .2 0 .2.1s-.1.2-.1.2c0 .2.2.3.4.3.1 0 .1 0 .1.1v.1c-.4-.2-.6 0-.6.2v.2c-.1.1-.2.3.1.5 0-.1 0-.2.1-.3l.1.1s.1 0 .2-.1h.1l.1.1v.1c-.3.3-.2.6.1.6 0 0 .1 0 .1.1 0 .5-.7.4-.7-.1-.4.6.3 1.1.8.8h.1c0 .1.1.2.2.2 0 0 0-.1.1-.1v.1c0 .1.1.3.3.3 0-.1 0-.2.1-.2s.4.8 1.2 1.2c0-.1.3-.2.4-.3 0 .1.1.3.3.3l.1-.1c0 .3.4.7.3.7s-.8-.1-1.1 0c-.3.2-1.2.5-1.5.2-.1-.1-.1-.2-.2-.4-.1-.1-.2-.2-.3-.2h.2c-.1-.1-.5-.2-.6-.1.1 0 .2 0 .3.2l-.1.2c-.1.1 0 .3.5.5 0 0 .1.1 0 .1s-.2.1-.3 0c-.2-.1-.2-.4-.5-.2 0 0-.1 0-.2.1h-.1c-.2 0-.6.3-.4.6 0-.1.2-.2.3-.3l.1.2c.1.3.2.5.7.1.1 0 .1 0 0 0-.1.2-.5.5-.2.7l.1.1v.1c0 .3.3.6.5.5-.1-.1-.2-.3-.2-.5.1 0 .1.1.2 0 .3-.1.1-.4.3-.5h.1c0 .1.1.4.4.4s.5-.3.4-.4c.1.1.2.2.1.4.1-.1.2-.1.2-.2.1.2.1.4-.1.6.3-.1.5-.3.5-.6.1 0 .1.1.1.2.1.1.3.1.6 0v.3l.1-.2c.1 0 0 .3.2.5.1-.8.5-.5 1-.8h.1c0 .1-.1.2-.2.3.2.2.9-.3.9-.6 0-.1.3-.1.5-.2.5 0 .5-.4.7-.4 3 .4 1.3-1.3 4.9-1 .2 0 .3-.2.4-.3-.2.3-.2 1 .2 1.1.2 0 .4.1.6.3v.1c-.2 0-.3.1-.5.1-.5.4-.6-.8-1.2-.6-.1 0-.1.1-.2.1-.2 0-.6.3-.5.5.1-.1.2-.2.4-.2v.1c0 .1 0 .2.2.2.1 0 .2-.1.2-.1s.1 0 .1.1c0 .2-.7-.1-.6.5 0 .1.1.1.1.2 0 .2.1.4.4.3-.1 0-.2-.1-.1-.2h.1s.1 0 .1-.1c0 0 .1 0 .1.1v.1.2c0 .2.3.5.6.2-.1 0-.3-.1-.3-.2l.2-.1c.1 0 .1-.1.1-.2s0-.1 0-.1h.2.1c.1.1.2.3.5.2.4-.1.1-.5.4-.5h.2c.3.1.8.1.8-.1.1-.2 0-.7-.3-.9-.2-.1 0-.3-.2-.6.3.1.7.3 1.2.3.9 0 1.1-.1 1.5-.4s.9-.1 1-.1.2.1.1.2c-.1.4 0 .5-.1.7s-.4 0-.7 0c-.1 0-.2 0-.3.1-.2 0-.5.2-.5.5.1-.1.2-.2.4-.2v.1c0 .3.3.4.5.2h.1c-.2.1-.5.4-.3.5l.1.1c0 .2.1.4.2.4 0-.1-.1-.2.1-.4h.7c.2 0 .1-.4.4-.5-.1.2-.2.5 0 .5h.1c.1.2.2.3.5.2-.1 0-.2-.1-.2-.2.1-.1.1-.2.1-.2.2-.5-.2-.5-.2-.6 0-.2.5-.1.5-.5 0-.1-.1-.2-.2-.3.1 0 .3 0 .3-.1-.1-.1 0-.4-.1-.6zm-13.3-3.4c.2.1.5.2.7.3-.3.1-.3.2-.5.2-.2-.1-.3-.4-.2-.5zm-.5-.3c-.1.2-.3.3-.5.2-.2-.2 0-.2-.2-.5.3.1.6.3.7.3zm-.7 1.5c.1-.1.1-.2.2-.2s.2 0 .2-.1-.1-.2-.2-.3c.1 0 .2-.1.1-.2s-.2.1-.2 0 .1-.1.1-.2h.2l.6.3c.1 0 .1.1.1.2v.2c-.1 0-.1-.2-.2-.2s-.1.1 0 .2c-.2 0-.3-.1-.4 0s0 .2.1.3v.3c-.1.1-.2.3-.4.2-.3-.1-.3-.4-.2-.5zm-.3-1.5c-.1.1 0 0 0 0zm6.5 8.4c.1.1.2.2.4.3 2.3.7 4.9-1.1 6.3-.7-1.8-.6-2.9.5-4.7.1 1 0 2.1-.2 2.1-.5-.8.5-3-.3-3.9.2-.1 0-.1.1-.1.1-1.3 0-2.3 0-2.3.8 0 1.8 4.7.7 6.2.7s1.3.2 1.3.4c0 .4-1.7.5-2.5.5-1.3 0-5.1-.7-7.5-.2.2-.4.6-.9.4-1.2.2-.1.4-.3.4-.5-.1-.1-.3-.2-.4-.2.1-.1 0-.2-.1-.3l-.1-.3c-.1-.1-.3-.3-.5-.4-.3-.1-.4-.1-.5-.2-.1 0-.3 0-.3 0-.1 0-.3 0-.3.1-.1-.1-.2-.2-.4-.2-.1.2-.1.4-.1.6-.2 0-.4.6-.6.5.1.1.1.2.2.2-.2.3-.3.7-.4.7l.2.2c-.1.2-.1.4-.1.7l-.2-.1h-.1c-.3 0-.5 0-.9-.3-.4-.2-.4-.4-.4-.7s.1-.6.1-.9c0-.1 0-.2-.1-.3-.1-.2-.3-.3-.5-.3.1.1.2.2.2.3-.1 0-.1.1-.1.2-.1.1-.1.2 0 .3v.1.1c-.1-.2-.2-.5-.4-.5h-.1c0-.2-.2-.4-.5-.1.1 0 .2 0 .2.1s-.1.2-.1.2c0 .2.2.3.4.3 0 0 .1 0 .1.1v.1c-.4-.2-.6 0-.6.2v.2c-.1.1-.2.3.1.5 0-.1 0-.2.1-.2h.1c0 .1.1.1.1.1s.1 0 .2-.1h.1l.1.1v.1c-.3.3-.2.5.1.6.1 0 .1 0 .1.1 0 .5-.7.4-.7-.1-.4.6.3 1 .8.7 0 .1.1.2.2.2 0 0 0-.1.1-.1v.1c0 .1.1.3.2.3 0-.1 0-.2.1-.2s.1-.2.7.1c0 .1.1.2.2.2l.5-.1c-.1.3.1.9 0 .9s-.8-.1-1 0c-.3.2-1.1.5-1.4.1-.1-.1-.1-.2-.2-.4-.1-.1-.2-.2-.3-.2h-.2c-.1-.1-.4-.2-.6-.1.1 0 .2 0 .3.2 0 .1-.1.1-.1.2-.1.1 0 .3.5.5 0 0 .1.1 0 .1s-.2 0-.3 0c-.2-.2-.2-.4-.5-.2 0 0-.1 0-.2.1 0 0 0 0-.1 0-.2 0-.6.3-.4.5 0-.1.2-.2.3-.2v.2c.1.3.2.5.7.1h.1c-.1.2-.5.5-.2.6l.1.1v.1c0 .3.3.5.5.5-.1-.1-.2-.3-.2-.5.1 0 .1.1.2 0 .3-.1.1-.4.3-.5h.1c0 .1.1.4.4.4s.4-.3.4-.4c.1.1.2.2.1.3 0 0 .2-.1.2-.2.1.1.1.3-.1.5.1 0 .4-.2.5-.5.1 0 .1.1.1.2.1 0 .3.1.6 0v.3l.1-.2c.1 0 0 .3.2.5.1-.8.7-.6 1.2-.9h.1c0 .1-.1.2-.2.3.5.3 1.1-.4 1.2-.8.1 0 .1-.1.1-.2 0 .1 0 .2-.1.2.5 0 .5-.4.7-.4 1.5.1.4-1.3 2.8-.9.2 0 .5-.1.6-.3-.2.3-.2 1 .2 1.1.2 0 .5.1.6.2v.1c-.2 0-.3 0-.5.1-.5.3-.5-.8-1.1-.6-.1 0-.1.1-.2.1-.2 0-.5.3-.5.5.1-.1.2-.2.4-.2v.1c0 .1 0 .2.2.2.1 0 .2-.1.2-.1s.1 0 .1.1c0 .2-.7-.1-.6.5 0 0 .1.1.1.2 0 .2.1.4.4.3-.1 0-.2-.1-.1-.2h.1s.1 0 .1-.1c0 0 .1 0 .1.1v.1s0 .2.1.2c0 .2.3.4.6.2-.1 0-.3-.1-.3-.2.1 0 .1-.1.1-.1.1 0 .1-.1.1-.2h.1.1.1c.1.1.2.3.4.2.4-.1 0-.5.3-.5h.2c.3.1.7.1.8-.1.1-.1 0-.7-.3-.9-.2-.1 0-.3-.2-.6.3.1.7.3 1.1.3.8 0 1.2-.1 1.6-.3.5-.2.9-.1 1-.1s.2.1.1.2c-.2.4-.1.5-.2.6-.1.2-.4 0-.7 0-.1 0-.2 0-.3.1-.2.1-.5.2-.5.5.1 0 .2-.2.4-.2v.1c0 .3.2.4.5.2h.1c-.2.1-.6.4-.4.5 0 0 .1 0 .1.1-.1.2 0 .4.1.4 0-.1 0-.2.1-.3h.1c.2 0 .2-.4.4-.5 0 0 .1 0 0 0-.1.2-.2.5-.1.5h.1c0 .2.2.3.5.1-.1 0-.2-.1-.2-.2l.2-.2c.2-.4-.1-.4-.1-.6.1-.2.4-.1.6-.5 0-.1 0-.2-.1-.3.1 0 .2 0 .4-.2-.3 0-.2-.2-.2-.4v-.1c.1-.1.2-.2.3-.5-.1.2-.5.3-.5 0 0 0 0-.2-.3-.2-.5 0-1.3-.1-2.3-.2-.1 0-.1-.1 0-.1 1-.1 3.1-.2 3.1-.9 0-.5-.1-.9-1.9-.9s-5.8.6-5.8-.3c.4.1 1.2.1 2.1.2zm-5.8-.1c-.1.2-.3.3-.5.1-.1-.2 0-.2-.2-.5.3.1.6.3.7.4zm.4 1c-.1 0-.1-.2-.1-.2-.1 0-.1.1 0 .2-.1 0-.3-.1-.3 0-.1.1 0 .2 0 .3.1.1 0 .2 0 .3s-.2.3-.4.2-.2-.3-.1-.4.1-.2.2-.2.2 0 .2-.1-.1-.2-.2-.3c.1 0 .2-.1.1-.2s-.2 0-.2 0c0-.1.1-.1.1-.1h.2l.6.3c.1 0 .1.1.1.2-.2-.1-.1 0-.2 0zm.3-.4c-.2 0-.3-.3-.2-.5.2.1.4.2.7.3-.4.1-.3.2-.5.2zm3.2 7.7c0 .1.2.2.4.3 2.3.6 4.9-1.1 6.3-.7-1.8-.6-2.9.5-4.7.1 1 0 2.1-.2 2.1-.5-.8.5-3-.4-3.9.2-.1 0-.1.1-.2.2-.7.2-1.3.5-1.3 1.1 0 1.5 5.8.3 5.8.8 0 .4-1.1.8-2.7.8-1.2 0-3.2-.8-5.7-.1.2-.4.7-1.1.5-1.4.2-.1.4-.2.4-.4-.1-.1-.3-.2-.4-.2.1-.1 0-.2-.1-.3 0 0-.1-.2-.1-.3-.1-.1-.2-.2-.5-.3-.2-.1-.4-.1-.5-.2-.1 0-.3.1-.3.1-.1 0-.3 0-.3.1-.1-.1-.2-.1-.4-.2-.1.2-.1.4-.1.6-.2 0-.4.5-.6.5.1.2.1.2.2.2-.2.3-.2.7-.4.7.1.1.2.2.2.2-.1.5-.1.9-.1 1.4-.4-.4-.9-1.2-1.2-1.4s-.3-.4-.3-.7.1-.5.1-.8c0-.1 0-.2-.1-.3-.1-.2-.3-.3-.4-.3.1.1.2.1.2.3-.1.1-.1.1-.1.2-.1.1-.1.2 0 .3v.1.1c-.1-.2-.2-.5-.3-.5h-.1c0-.2-.2-.4-.5-.1.1 0 .2 0 .2.1v.2c0 .2.1.3.4.3h.1v.1c-.4-.2-.5 0-.6.2v.2c-.1.1-.2.3.1.4 0-.1 0-.2.1-.2h.1l.1.1s.1 0 .2-.1h.1s.1 0 .1.1v.1c-.3.2-.2.5.1.6 0 0 .1 0 .1.1 0 .5-.7.4-.6-.1-.3.5.3 1 .7.7h.1c0 .1.1.2.2.2 0 0 0-.1.1-.1v.1c0 .1 0 .3.2.3 0-.1 0-.2.1-.2s0 .7.7 1.1c.1.4.4.6.8.6.1.3.3.5.2.5s-.9-.1-1.1 0-.5.2-.7.3v.1s0 0 0-.1c-.2 0-.4 0-.6-.1-.1-.1-.1-.2-.1-.4-.1-.1-.2-.2-.2-.2h-.2c-.1-.1-.4-.2-.5-.1.1 0 .2 0 .3.2 0 .1-.1.1-.1.2-.1.1 0 .3.5.4 0 0 .1.1 0 .1s-.2.1-.3 0c-.2-.1-.2-.4-.5-.2l-.1.1s0 0-.1 0c-.2 0-.5.2-.4.5 0-.1.1-.2.3-.2 0 .1 0 .1.1.2 0 .2.1.5.6.1.1 0 .1 0 0 0-.1.2-.5.4-.2.6 0 0 .1 0 .1.1v.1c-.1.3.3.5.4.5-.1-.1-.2-.2-.2-.4.1 0 .1.1.2 0 .2-.1.1-.4.3-.5h.1c0 .1.1.4.4.4s.4-.3.4-.4c.1.1.2.2.1.3.1 0 .2-.1.2-.2.1.1.1.3-.1.5.2-.1.4-.3.5-.5 0 .1.1.1.1.2.1.1.3.1.6 0v.3l.1-.2c.1 0 0 .3.2.5.1-.7.5-.4.9-.8.1 0 .1 0 0 0 0 .1-.1.2-.2.2.2 0 .7-.2.7-.5 0-.1.3-.4.4-1.3h.2c.6 0 .9-.5 1.5-.5-.1.2-.2.6-.2.9s.4.7.6.8c-.2 0-.3.1-.4.1-.5.3-.5-.8-1-.6-.1 0-.1.1-.1.1-.2 0-.5.2-.5.5.1-.1.2-.2.3-.2v.1c0 .1 0 .2.2.2h.2s.1 0 .1.1c0 .2-.7-.1-.5.4 0 0 .1.1.1.2 0 .2.1.3.4.2-.1-.1-.2-.1-.1-.2h.1s.1 0 .1-.1c0 0 .1 0 .1.1v.1.2c0 .2.3.4.6.2-.1 0-.3 0-.3-.1.1 0 .1 0 .1-.1 0 0 .1-.1.1-.2s0-.1 0-.1h.1c.1 0 .1 0 .1.1.1.1.2.2.4.2.4-.1.1-.4.3-.5h.2c.3.1.5.1.6 0s0-.6-.3-.8c-.2-.1.3-1.2-.6-1.7.4.1 1.7.3 1.9 0 .4.1.8.4.9.4 0 .1.1.2 0 .2-.3.2-.3.3-.5.4-.1-.1-.2-.3-.3-.3-.1-.1-.2 0-.3 0-.2 0-.5 0-.5.2.1 0 .2-.1.4 0v.1c0 .1 0 .1.1.2-.2 0-.6-.1-.5.2v.2c-.1.1-.2.3-.1.4 0-.1.1-.1.2-.2 0 .1.1.1.1.1.1.1.3-.2.5-.1-.2.1-.4.2-.3.4 0 0 0 .1.1.1-.1.1 0 .4.2.4 0-.1-.1-.2 0-.3h.2c.4-.2.1-.5.3-.6.1-.1.3.2.6 0 .1-.1.1-.2.1-.3.1.1.2.2.3.1-.2-.2 0-.3.1-.5h.1c.1 0 .3 0 .4-.2-.2 0-.6-.2-.3-.3.4-.1.5-.4.3-.6-.3-.4-.9-.4-1-.9h.2c2 0 3.2-.5 3.2-1.2-.1-1.3-5.9.1-5.9-.9-.1-.8.3-1 .7-1.1zm-4.2.2c.1.1.5.2.6.3-.3.1-.2.2-.4.2-.2-.1-.3-.4-.2-.5zm-.4-.2c-.1.1-.3.3-.4.1-.1-.1 0-.2-.2-.4.2.1.4.2.6.3zm-.7 1.3c.1-.1.1-.2.2-.2s.2 0 .2-.1-.1-.2-.2-.3c.1 0 .2-.1.1-.2s-.2 0-.2 0c0-.1.1-.1.1-.2h.2l.5.3c.1.1.1.1.1.2v.2c-.1 0 0-.2-.1-.2s-.1.1 0 .2c-.1 0-.2-.1-.3 0s0 .2.1.3v.3c0 .1-.2.3-.4.2-.3-.2-.3-.4-.3-.5zm-89.9-103.8c0-.8-.6-1.4-1.4-1.4s-1.4.7-1.4 1.5c0 .7.6 1.3 1.4 1.4.8-.1 1.4-.7 1.4-1.5zm-.5-3.8c0-.8-.6-1.4-1.4-1.4-.8.1-1.4.8-1.3 1.5s.6 1.2 1.3 1.3c.8 0 1.4-.6 1.4-1.4zm.8-1.7c.8 0 1.5-.6 1.5-1.4s-.6-1.5-1.4-1.5h-.1c-.8.1-1.4.8-1.3 1.5.1.8.6 1.4 1.3 1.4zm3.8-.2c.8 0 1.5-.6 1.5-1.4s-.6-1.5-1.4-1.5h-.1c-.8.1-1.4.8-1.3 1.5.1.8.6 1.3 1.3 1.4zm16.2-2.6c.6.6 1.5.6 2 0 .6-.6.6-1.5 0-2-.6-.6-1.5-.6-2 0-.5.5-.5 1.4 0 2zm-.3-3.1c.6-.6.6-1.5 0-2-.6-.6-1.5-.6-2 0-.6.6-.6 1.5 0 2s1.4.6 2 0zm-3.8-.6c.5-.6.5-1.5 0-2-.6-.6-1.5-.6-2 0s-.6 1.5 0 2c.5.5 1.5.5 2 0zm-3.2 2.4c.6-.6.6-1.5 0-2s-1.5-.5-2 0c-.6.6-.6 1.5 0 2 .5.6 1.4.6 2 0zm-9.1-2 1.1 2.5 1.4-1.7c.1 0 .1.1.2.1.1.8.2 2.3.2 3.1 0 1 .8 1.8 1.8 1.8s1.8-.8 1.8-1.8c0-.7-.4-1.3-.9-1.6-.7-.6-1.4-1.2-2-1.9 0-.1.1-.1.1-.2l2.4.2-1-2.6-1.8 1.5s-.1 0-.1-.1l-.1-2.6-2.5 1 1.7 2c0 .1-.1.1-.1.2zm16.5 4.5c.6.9.8 1.3.8 2-.4-.2-.9-.6-1.5-1.4l.3 3.3c.4-.6.7-1 1.2-1.2-.1 2.2-1 3.1-1.7 3.2-.8.2-1.5-.3-1.7-1.1-.2-1 .7-1.6 1.5-.7.2-2-1.5-2-2.1-1.1.8-1.9.5-3.2-1.2-4.2-1.1 1.8-.6 3 .7 4.4-1.3-.7-2.5.5-1.3 1.9.2-1.3 1.4-1 1.6 0 .2.9-.6 2-2 2.4-2 .6-2.7-.7-3.2-1.8.3-.3 1.4-.2 2.6.5l-1-3.2c-.3.9-1 1.6-2 2-.1-.9.6-2.8.6-2.8l-3.9 1.6s1.8.9 2.4 1.6c-.8.3-1.6.5-2.8 0l1.6 3c.3-1.3 1-2.2 1.5-2.3.4 1.1.9 2.5-1 3.5-1.3.6-2.7.4-3.1-.4-.5-.9.1-1.9 1.1-1.2-.2-1.8-1.8-1.8-2.3-.4 0-1.9-.5-3.1-2.5-3.6-.5 1.9.2 3.1 2.1 3.9-1.1-.1-2.3 1-.8 2.3 0-1.2 1-1.4 1.6-.5.4.6.2 1.5-.4 1.9 0 0 0 0-.1 0-.6.4-1.9.4-3.5-1.1.5-.2 1-.1 1.7 0l-2.1-2.6c.1.9.1 1.6-.1 2-.4-.5-.6-1-.8-2l-1.6 1.4c1.5.9 3.3 2.4 5.4 5.3 2.2-1.4 6.2-3.3 8.7-4.3s6.7-2.4 9.2-3c-.5-3.6-.3-5.8.2-7.6zm31.3 90.6c.6-1.5-2.2-3.2-2.6-5.4-.3-2.2-.1-4.3-2.6-7.2s-11-12-13.6-14.9c.6-.1 2.2-.4 3.7 1.1.9.9 2.7 2.6 4.4 4.3 2.3-5.8 5.1-10.1 9.1-14.5.5-.6 1-1.1 1.6-1.7-1.5.4-3.7.8-5.1 1.7-.1-2.5.1-4.5-1.6-6.1.7-3.5.1-7.7-7.8-12.9 4 1 6.4 4.6 9.5 1.8-2.8-.1-2.8-6.1-12.8-11.1 3.8-.1 6.8 6.1 11.2 2.6-4.2-.5-5.5-7.9-13-10.1 2.6.3 5.3 1.6 7.5-1.4-2.6.6-4.1-1.8-6.9-2 1.1-3.2.8-5.2-.3-7.6-1.9.1-3.9.7-5.4 1.9-.2-1.8-2.1-1.9-3.7-1.8.1.8.5 1.9-.4 2-1.3.3-5.8 1.5-9.2 2.8s-7.4 3.8-8.5 4.6c-.7.5-1.3-.6-1.7-1.2-1.2 1-2.4 2.4-1.5 3.7-1.9.2-4 .7-5.8 2.1 0 2.2 1.8 4.4 4.6 5.6-4.6 4.6-.4 8.8-4.5 12.8 5.7.2 4.7-7.7 7.6-8.9-.3 5.6-3.4 6.6-3.4 12.6 0 3.2 1.9 6.7.2 8.8 4.8-1.4 3.5-12 6.5-15.2.5 1.8.2 3.6-.4 5.4-1.7 4.9.2 11.7-2.4 13.9 4.9-.5 5.5-8.3 9.5-11.2-3.4 7.1-7 22.1-12.1 29.6-8.3 11.2-13.2 24.9-20.8 24.9-3.4 0-5.9-2.1-5.9-6.3 0-12.8 21.9-21.5 21.9-35.1 0-6-4.9-8.4-8-8.4-2.1 0-4.6 1-6.7 2.8-.8-.3-1.7-.5-2.6-.6-7.7 0-5.7 13.9-12.4 13.8 2.7 1.5 7.3-1.4 10-5.3-1.1 9-14.1 6.6-13.1 17.4 1.8-8.5 22.5-7.2 22.5-20.1 0-1.5-.7-2.7-1.8-3.6 1.6-1 3-1.4 4.4-1.4 2.5 0 4.7 1.8 4.7 5.5 0 11.4-21.8 21-21.8 35 0 2.4.7 4.3 1.8 5.9-1.5.7-3.1.4-4.4-1.2-.1 3.6 5 5.9 8.3 4.1.7.3 1.5.4 2.3.5-1 2.7-4.3 3.5-6 3.4 5.3 4.2 14.6-1.3 14.1-6.1 4.2-3.4 6.9-9.2 10-13.1-.2.9-.4 1.8-.5 2.6-3.1 5.7-6 10.7-6.9 18.2-.7 6.3-3.8 11.9-8.2 11.9-1 0-2.5-1.3-3.3-.6-1.4 1.2-.1 2.4-.1 3.6 0 1.8-3.4 3.5-3.4 9 0 2.5 1.4 5.4.9 7.1 1.4-.7 3.3-3.1 4-6.1 1.5 7.2-3.1 6.9.2 13.4.4-2.1 2.5-3 3.8-2.1s.7 1.5-.3 2.5-1.9 5.8 2.5 5.5c-.8-.5-.9-1.8 1.3-2.3 3-.6 3.9.8 7.1.8 2 0 2.5-2.6 4.1-2.6s1.6 1.2 1 2.1c2.5-.7 3-2 3-3.5 0-1.4-1.2-2.3-.3-2.9s3.8.1 2.7 2.5c1.5-.3 2.3-1.4 2.3-3.2s-2.1-2.9-4.1-2.6c-.3-1.2-2.1-1.8-3.6-1.8-3.6 0-3 2.8-5.5 2.8-3.9 0-7.7-5.1-7.7-13.7 0-4.6 4.9-5.8 8.4-7.3s9.6-5.3 13.3-11.4c2.9-4.8 3-10.1 2.6-16.4 4.9 2.8 5.5 6.9 5.5 9.9 0 3.8-2 5.4-3.6 6.1-1.3.6-1.8.4-1.9 1.1-.2 1 .5 1.5 1.1 1.9 1.8.9 1.4 2.6 1.9 4.5.5 1.8 2.1 4.8 4.9 6.9.3-1.1.2-3 0-5.4 3.8 1.9.8 9.5 8.1 9.5-1.4-.8-1-2.8-.2-3.1s1.8.5 3.2 2.5 1 1.8 4.5 1.8 1.9-1.2 3.8-1.2c1.8 0 1.7 2.1.7 3.7 3.1-.9 4-3.3 3-5.7 2.7-1.5 4.2.6 4.6 2.1 2.7-2.7 0-6-2.1-6.2.1-1-.9-2.1-2-2.1-1.1-.1-2.2-.1-3.5-.1-1.3.1-2 1.9-3.5 1.9-4.6 0-13.7-8.4-13.7-12s8.7-5.8 8.7-11.4c0-7.3-7.2-9.8-13.3-14.5 2.2-2.4 8.5-3 12.1-1.2.4-2 1.7-1.5 2.2-5.1 1.3 3.1 0 5.8 1.3 7.1 1-1.5 3.6-1.3 3.5-5.1.8 2.4-1 6.1.8 7.7.3-2 1.5-2.4 2.2-2.4s1.4.5 1.4 1.7c0 2.9-3.6 1.6-3.6 4.9 0 1.4 1.8 1.9 1.8 2.8s-1.4 2.3-3.2 1.1c.6 1.3 1.7 2.4 3.2 2.4 1.6 0 3.3-1.3 4-2.9.8 2.1.2 4.4-1.3 4.7 1.6.8 5.4 0 4.9-4.8 2.1.4 3.3 1.8 2 4.4 1.8-.4 3.4-1.3 3.4-3.1s-1.5-2.2-.8-4.1zm-41.4-66.1c-2 .2-1.9-1.7-5.5-2.6 2.5-.5 5.6-1.7 8.4-2.8.6 2.4-.3 5.2-2.9 5.4zm14.2 15c-2.6 1.1-4.6-1.1-5.1-2.7s-.9-2.8-.3-3.4c1.1-1.1 1.5-1.9.8-3.3-.8-1.6-2.4-.8-4.2-.4.8-1.5.9-2.6-.2-2.4-1.4.2-1.4 2.4-2.1 2.1-.8-.3-.3-1.5-.3-2.2 0-.9.6-1.3 1.6-1.7l7.4-2.8c1-.4 1.6-.5 2.3.1.5.5 1.7 1.1 1.3 1.8s-1.9-.8-3 0c-.9.7-.1 1.4 1.5 1.9-1.6.9-3.3 1.6-2.8 3.2.5 1.4 1.3 1.8 2.9 1.8.8 0 1.4 1.2 2.1 2.7.6 1.5.8 4.2-1.9 5.3zm.4-20.7c-2 1.6-4.6.1-5.8-1.9 2.7-1.1 5.9-2.4 8.1-3.7-2 3-.7 4.4-2.3 5.6zm166.2 107c.1 3.4 2.9 6.1 6.3 6 3.3-.1 5.9-2.7 6-6 0-3.4-2.8-6.2-6.1-6.2-3.5 0-6.2 2.8-6.2 6.2zm1.6 0c0-2.5 2.1-4.6 4.6-4.6s4.6 2 4.6 4.6c0 2.5-2 4.6-4.6 4.6s-4.6-2.1-4.6-4.6zm-24.6 5.7c-.8.5-1.3 1.3-1.5 2.3-.2 1.1.1 2.2.9 3.1.8.8 1.8 1.4 3.1 1.7 1.2.2 2.4.1 3.5-.5s1.8-1.5 2-2.5c.4-2.1-1.4-4.3-4-4.7-1.5-.4-2.9-.2-4 .6zm2.8 5.4c-1.8-.3-3-1.6-2.8-2.9.1-.5.4-1 .9-1.3.7-.5 1.7-.7 2.7-.5 1.6.3 2.8 1.4 2.8 2.6v.3c-.2 1.4-1.8 2.1-3.6 1.8zm-36.6-91.7c-1.9 1.5-2.5 4-1.3 5.6s3.8 1.6 5.7.2c1-.8 1.7-2 1.9-3.1.1-.9-.1-1.7-.6-2.4s-1.3-1.1-2.2-1.2c-1.2-.3-2.5.1-3.5.9zm-.4 3.6c0-.8.5-1.7 1.3-2.4.7-.5 1.6-.8 2.3-.7.5 0 .9.3 1.2.6.3.4.4.8.3 1.3-.1.8-.6 1.6-1.3 2.1-1.2.9-2.8 1-3.5.1-.2-.3-.3-.7-.3-1zm27 72.4c-.9.9-1.5 2.2-1.5 3.7v.1c0 1.4.5 2.7 1.4 3.6.7.7 1.6 1.1 2.5 1.1s1.8-.4 2.5-1c.9-.9 1.5-2.3 1.5-3.7 0-1.2-.3-2.4-1-3.4s-1.7-1.5-2.8-1.5c-1 .1-1.9.5-2.6 1.1zm2.4 7c-.5 0-1-.2-1.4-.6-.6-.6-1-1.6-.9-2.6 0-1 .4-2 1-2.6.4-.4.9-.6 1.4-.6 1.3 0 2.3 1.5 2.3 3.3 0 1-.4 2-1 2.6-.4.3-.9.5-1.4.5zm-32.5-56.6c-.9.3-1.7 1-2.1 1.8-.9 2 .2 4.5 2.6 5.6 1.3.6 2.8.7 4 .3.9-.3 1.7-1 2.1-1.8s.4-1.8.1-2.7c-.4-1.2-1.4-2.3-2.7-2.9s-2.8-.8-4-.3zm1.3 6c-1.6-.8-2.4-2.3-1.9-3.5.3-.6.8-.9 1.2-1 .8-.3 1.8-.2 2.8.2.9.4 1.6 1.2 1.9 2 .1.4.2 1 0 1.5-.3.6-.8.9-1.2 1-.9.3-1.9.2-2.8-.2z"/><path d="m292.2 82c2 5.5 6 7.5 9 6.1-6.8-.8-1.3-12.4-10-12.4-.5 0-1 .1-1.4.2-1.5-1.6-3.2-2.2-5.7-2.2-3.7 0-10.1 3.6-10.1 10.9 0 15.9 18.4 17.3 18.4 31.3 0 4.1-3.1 6.6-6.6 6.6-3.1 0-5.6-3.5-8.2-8.9-1.2-2.6-3.9-6.1-6.8-9.8.8.6 1.8.9 2.7 1 1 0 1.9-.3 2.6-.9s1.1-1.5 1.1-2.5v-.1c0-1.3-.5-2.6-1.5-3.6-1-1.1-2.3-1.7-3.6-1.7-1 0-1.9.3-2.6.9s-1 1.5-1.1 2.5v.1c0 .5.1 1.1.3 1.6-4-5.2-7.7-10.3-7.7-13 0-2.4 1.7-4.6 3.8-7.2l.7.4.6-.6c.7-.8 2.3-2.5 5.5-5.9l.2-.2.8-.8-2-1.6c.5-1.2 1-2.5 1.3-3.9.6 2.5 1.9 4.2 3.7 3.7-1.2-2.6 1.2-6.2-.4-12.6 1.5 2.5 3.7 3.8 5.2 3.3-4.1-3.6 1.2-8.7-4.1-16.5 1.7.6 2.9.3 3.7-.6-4.9-.7-2.6-6.9-11.1-9.1 2.1-.4 3.4-1.6 3-2.7-2.2 1.6-4.2-3-11.6-2.9-.5-2.8-3-5.7-5.9-7.1.5 2.1 0 4.1-.5 5.7l-24-23.60002c-.7-.7-1.1-.8-1.3-.6s-.2.7.3 1.2l20.6 25.90002c-1.6.5-3.1 1.2-4.7 1.8-1.1.4-1.8 1.5-1.8 2.7-3.8 1.9-7.2 4.3-8.9 5.8-1.3 1.2-2.3 1.4-1.2 4 .4 1-.9 3.4 2.1 1.6 2-1.2 6.4-3.6 7.1-2.1.4.8-1.8 1.8-3.4 2.4-1.5.6-3.1 1.7-2.9 2.3s1.4 0 1.5.6c.1.7.6 1.3 1.2 1.3s1.4-1.3 1.9-.9-.2 3.2-.7 4c2.3-.3 3.8-2.5 3.9-4.2s.5-2.2.9-2.4.8 1.9.3 3.1c1.2-.3 2.5-1.9 2.3-4.9.6-.5 1.3-.9 1.7-.9.8 0 2.3 2.2 4.6 2.2 4.1 0 6.4-3.3 6.6-4.9.2-1.3.1-2.5-.6-3.4 1.5 1.2 1.9 3 1.9 4.4 0 5.8-10.2 8.5-14.4 12.5-.2.1-.3.3-.5.4l-4.8-1.9-.3 1.1c-.8 2.7-1.6 5.3-2.5 7.9l-.3.8.4.3c-2.9 3.8-5.1 8-5.7 12.4-1.2-1.2-2.3-2.2-3.5-3.2.1-.4.2-.9.3-1.3.1-1.3-.3-2.5-1.1-3.4-.6-.7-1.4-1.1-2.2-1.1-.9 0-1.7.3-2.3.9-.2.1-.3.3-.4.4-.2-.1-.3-.3-.5-.4-1.6-1.2-3.5-2.7-4.7-4-.5-.6-1-.9-2.1-.9-.4 0-1.4 0-2.1 0s-1.1.5-1.9 1.3c-.4.3-1.5 1.2-2.7 2.1.6.6 1.2 1.2 1.7 1.9.3.3.6.7.9 1.1l.8-.6c.5-.4 1.2-.5 1.8-.5s1.5.5 2.1 1.4c2.4 3.2 4.9 6.3 7.5 9.3-.3.1-.7.2-1 .4-1.4.6-4.5.5-5.9.3-1.4-.1-1.7-.5-2.6 1-.4.6-.8 1.2-1.3 1.8s-.8 1.2.2 2.9c1.4 2.4 4.9 8.7 6.1 11.6 1.2 2.8 2.5 3.3 4.8 4.2s6.1 3.1 6.5 3.6l.2-2.2c-.7-.7-2.8-1.5-3.6-1.8s-1-.6-.1-.6c1 0 3.7 1 5.5 1.7-.6-2.1-2.6-4.5-3.8-5.8-1.6-.5-3.3-.5-3.9 0 .1.5-.3.9-.8 1-.1 0-.1 0-.2 0-.6 0-1-.5-.9-1.1.2-.6 1.2-.9 1-2.1s-1.7-1.4-2.7-1.5c-1.4-2-3-4.9-3.7-6.1s-.3-1.8.2-2.2c1.2-1 3.6.5 8.5.8 1.7.1 3.8.2 6 .3.6 5.7 2.9 11.1 10.8 13 3.9 1 7.8 3.8 9.2 7.5-15.8-.3-18.3 5.9-18.3 11.7 0 6.6 5.6 6.2 5.6 11.2 0 4.3-13.3 6.1-17.3 6.7-3.4.5-5.3 1.3-7 2.9-1.6 1.6-3.3 3.2-6.2 6.2 0 0 1.3.3 2.5.2l2.2-2.9c.7-1 1.1-1.8 1.6-1.7.4.1.1.8-.4 1.9l-1.8 3.1c7.8.5 8.3-2.4 8.3-3.5 0-1.2-1.9-2-.8-2.7s2.1-.2 3 .8 1.2 1.9 3.3 1.1c0 0 17-7 19.1-8 1.9-.9 1.4-1.7.2-2.7-1.3-1-1.5-2.7-1.5-4.5 0-5.1 3.1-6.7 8.6-6.6-.1.9-.2 1.7-.2 2.5 0 8 12.1 15.8 15.4 15.8 1.5 0 3.4-1.1 3.5 3.7.1 3.5.8 6.1.2 10.2s-1.8 4.7-4.3 6.5c-2.5 1.7-4.8 7.2-5.8 8.3 1.1.7 2.3.8 3.2-1.8.8-2.2 1.6-3.7 2.6-4.3-1 2.4-1.7 5.9-2.1 7 3.1.5 8.1-2.3 8.1-4.5s-1.7-2-1.7-3.5c0-.6.8-1.4 1.7-1.4 1.2 0 2.2 1 2.3 1.4 1.4-.7 2.2-2.1 2.2-5.3 0-1.2-.1-2.5-.1-3.9.1.2.2.4.3.5.6.9 1.6 1.5 2.8 1.6 1.1.1 2.3-.2 3.4-.9 1.2-.8 2.1-2 2.3-3.2.1-.3.1-.5.1-.8 0-.7-.2-1.3-.6-1.9-.5-.8-1.3-1.3-2.3-1.5-1.3-.3-2.7 0-3.9.8-1.1.7-1.9 1.8-2.3 3-.2-4.4-.6-8.5-.4-10.1.2-2.5.3-3.5-.6-3.9-.8-.4-1.7 1-2.9 1s-4.8-3.3-4.8-6.7c0-3.5 3.7-7.9 3.6-12.7-.1-1.5.9-2.3 1.5-.9.7 1.6 1.8 3.8 3.4 5.6-1 6 5.6 11.8 11 7.5-2.7.4-4.5-2-5.7-4.4.5.1.9.1 1.5.1h.8c1.9 2.3 7.9 2.1 9.5-3.7-1.1 1.2-3.2 2.1-4.8 1.9 2.3-1.8 3.4-4.6 3.4-7.7 0-15.1-18.3-16.9-18.3-30.6 0-5.1 4.5-8.4 7.6-8.4 1.2 0 2.1.4 2.8.9-1.2 1.2-1.8 3-1.7 5.2.5 10.9 18.2 10.3 18.5 15.5 2.4-8-10.9-5.6-11.4-16.2zm-47.2-41.6c.9-1.6 0-4.1 3-4.1 1.5 0 2.8 1.5 4.6 2-2.9.2-5.5.9-7.6 2.1zm-16.2 33.3c0 .8-.4 1.6-.9 2.2-.3.3-.7.5-1.2.5-1-.1-1.8-1.2-1.8-2.6v-.2c0-.9.4-1.7.9-2.2.3-.3.8-.5 1.2-.5.5 0 .9.3 1.1.6.5.5.8 1.3.7 2.2zm52.4 76.3c.2-.8.8-1.7 1.6-2.3.9-.6 1.9-.8 2.7-.6.4.1.9.3 1.3.8.3.5.3 1.1.2 1.5-.2.9-.8 1.7-1.6 2.3-1.5 1-3.3.9-4-.2-.2-.5-.3-1-.2-1.5zm-11-50.7c0-.5.2-1 .6-1.4.4-.3.9-.5 1.4-.5.9 0 1.8.5 2.5 1.2.7.8 1.1 1.7 1.1 2.6 0 .5-.2 1-.6 1.4-.4.3-.9.5-1.4.5-.9 0-1.8-.5-2.5-1.2s-1.1-1.7-1.1-2.6zm-30.1-34.1c.9-2.7 2.5-8 2.5-8l2.8 1.1c-.8.3-1.8 1.1-2.7 1.9.6.3 1.8.3 2.5-.2l-1.1 2.8c-.3-.4-1-1.5-1.8-1.6-.6 2.3.8 3.1 1.9 3.6 1.7.9 2.8 1 3.3.2.5-1-.6-2.3-2-1.7-.2-1.5.7-2.2 1.6-2.2.8 0 1.4.7 1.6 1.6-.1-2.4 1-4.2 3.2-4.9.8 2.3.1 3.9-1.6 5.5.9-.4 2-.3 2.4.3.5.8.3 1.9-1 2.6-.3-1.5-2.1-1.7-2.6-.7s.3 1.9 1.8 2.8c1.8 1 3.3.4 4.2-1.2-.6-.2-1.6-.1-2.6.5l1.9-3.5c.1.5.4 1.4 1.2 2 .3-.8.7-2.1.1-3.4l4 2.3c-1.4.1-2.3 1.1-2.9 1.8 1 .3 1.9.2 2.4 0l-2.1 3.3c0-1.1-.4-2.1-.8-2.5-.9 1.6-.7 3.2 1.1 4.3 1.6.9 2.7 1.1 3.3.2s-.4-2.4-1.9-1.9c-.1-1.5.8-2.2 1.8-2.1.8.1 1.3.9 1.5 1.9.6-2.3 1.6-3.7 4-4.1.5 2.2-.6 4.1-2.7 5.2.9-.3 1.8-.1 2.2.5.5.8.2 1.9-1.1 2.5-.2-1.5-1.9-1.8-2.5-.9-.4.8.2 1.7 1.8 2.7 1 .6 2.4 1.4 4.1-.2-.6-.6-1.8-.8-2.3-.8l1.9-2.4c-.1.9.6 1.9 1.1 2.3.3-1.2.4-2.4.3-3.3l2.3 1.9s-3.8 4-5.6 6.1zm24.9 62.6c-1 1.4-2.7 1.9-3.9 1.1-1.1-.8-1.2-2.6-.2-4s2.7-1.9 3.8-1.2c1.2.9 1.3 2.7.3 4.1zm7.2-11.4c-1 1.4-2.7 1.9-3.8 1.1s-1.2-2.6-.2-4 2.7-1.9 3.8-1.1c1.1.7 1.2 2.5.2 4z"/></g><path d="m0 0h14v500h-14z" fill="#004e87"/></g></svg>