<?xml version="1.0" encoding="UTF-8" standalone="no"?>
<!-- Created with Inkscape (http://www.inkscape.org/) -->

<svg
   xmlns:dc="http://purl.org/dc/elements/1.1/"
   xmlns:cc="http://creativecommons.org/ns#"
   xmlns:rdf="http://www.w3.org/1999/02/22-rdf-syntax-ns#"
   xmlns:svg="http://www.w3.org/2000/svg"
   xmlns="http://www.w3.org/2000/svg"
   xmlns:sodipodi="http://sodipodi.sourceforge.net/DTD/sodipodi-0.dtd"
   xmlns:inkscape="http://www.inkscape.org/namespaces/inkscape"
   id="svg4207"
   version="1.1"
   inkscape:version="0.48.5 r10040"
   width="1000"
   height="294.51132"
   xml:space="preserve"
   sodipodi:docname="DSP2036-184_Highways_England_Delivery_Plan_FINAL_low_res_280415.pdf"><metadata
     id="metadata4213"><rdf:RDF><cc:Work
         rdf:about=""><dc:format>image/svg+xml</dc:format><dc:type
           rdf:resource="http://purl.org/dc/dcmitype/StillImage" /><dc:title></dc:title></cc:Work></rdf:RDF></metadata><defs
     id="defs4211"><clipPath
       clipPathUnits="userSpaceOnUse"
       id="clipPath4245"><path
         d="m 0,0 595.276,0 0,841.89 L 0,841.89 0,0 z"
         id="path4247"
         inkscape:connector-curvature="0" /></clipPath><clipPath
       clipPathUnits="userSpaceOnUse"
       id="clipPath4273"><path
         d="m 0,0 595.276,0 0,841.89 L 0,841.89 0,0 z"
         id="path4275"
         inkscape:connector-curvature="0" /></clipPath><clipPath
       clipPathUnits="userSpaceOnUse"
       id="clipPath4289"><path
         d="m 0,0 595.276,0 0,841.89 L 0,841.89 0,0 z"
         id="path4291"
         inkscape:connector-curvature="0" /></clipPath><clipPath
       clipPathUnits="userSpaceOnUse"
       id="clipPath4315"><path
         d="m 0,0 595.276,0 0,841.89 L 0,841.89 0,0 z"
         id="path4317"
         inkscape:connector-curvature="0" /></clipPath><clipPath
       clipPathUnits="userSpaceOnUse"
       id="clipPath4351"><path
         d="m 0,0 595.276,0 0,841.89 L 0,841.89 0,0 z"
         id="path4353"
         inkscape:connector-curvature="0" /></clipPath><clipPath
       clipPathUnits="userSpaceOnUse"
       id="clipPath4387"><path
         d="m 0,0 595.276,0 0,841.89 L 0,841.89 0,0 z"
         id="path4389"
         inkscape:connector-curvature="0" /></clipPath><clipPath
       clipPathUnits="userSpaceOnUse"
       id="clipPath4419"><path
         d="m 0,98.049 75.868,-43.428 519.407,30.425 0,287.415 L 0,517.592 0,98.049 z"
         id="path4421"
         inkscape:connector-curvature="0" /></clipPath></defs><sodipodi:namedview
     pagecolor="#ffffff"
     bordercolor="#666666"
     borderopacity="1"
     objecttolerance="10"
     gridtolerance="10"
     guidetolerance="10"
     inkscape:pageopacity="0"
     inkscape:pageshadow="2"
     inkscape:window-width="1052"
     inkscape:window-height="1037"
     id="namedview4209"
     showgrid="false"
     fit-margin-left="0.5"
     fit-margin-bottom="0.5"
     fit-margin-top="0.5"
     fit-margin-right="0.5"
     inkscape:zoom="1.040641"
     inkscape:cx="446.89206"
     inkscape:cy="125.47638"
     inkscape:window-x="860"
     inkscape:window-y="-21"
     inkscape:window-maximized="0"
     inkscape:current-layer="g4215" /><g
     id="g4215"
     inkscape:groupmode="layer"
     inkscape:label="DSP2036-184_Highways_England_Delivery_Plan_FINAL_low_res_280415"
     transform="matrix(1.25,0,0,-1.25,-49.106627,1230.9813)"><g
       id="g4217"
       transform="matrix(4.0277102,0,0,4.0277102,205.3708,978.50057)"><path
         d="m 0,0 -8.744,1.461 0.781,-4.927 6.0654449,-2.2637932 z"
         style="fill:#002e5f;fill-opacity:1;fill-rule:nonzero;stroke:none"
         id="path4219"
         inkscape:connector-curvature="0"
         sodipodi:nodetypes="ccccc" /></g><g
       id="g4221"
       transform="matrix(4.0277102,0,0,4.0277102,218.96593,947.95684)"><path
         d="M 0,0 -4.478,-2.197 -15.149604,-6.4921633 -20.491,0.135 -3.375,7.583 z"
         style="fill:#008bcb;fill-opacity:1;fill-rule:nonzero;stroke:none"
         id="path4223"
         inkscape:connector-curvature="0"
         sodipodi:nodetypes="cccccc" /></g><g
       id="g4225"
       transform="matrix(4.0277102,0,0,4.0277102,136.43493,948.50179)"><path
         d="M 0,0 21.847,-3.182 18.477331,-12.068814 6.26,-11.189 l -7.389,0.445 z"
         style="fill:#002e5f;fill-opacity:1;fill-rule:nonzero;stroke:none"
         id="path4227"
         inkscape:connector-curvature="0"
         sodipodi:nodetypes="cccccc" /></g><g
       id="g4229"
       transform="matrix(4.0277102,0,0,4.0277102,240.91373,898.66934)"><path
         d="M 0,0 -6.975,-4.084 -20.366301,-9.8189396 -27.54,-2.854 -4.093,9.19 z"
         style="fill:#008bcb;fill-opacity:1;fill-rule:nonzero;stroke:none"
         id="path4231"
         inkscape:connector-curvature="0"
         sodipodi:nodetypes="cccccc" /></g><g
       id="g4233"
       transform="matrix(4.0277102,0,0,4.0277102,129.98938,887.17426)"><path
         d="M 0,0 29.599,-1.769 26.046641,-12.973126 10.553,-13.629 -1.486,-14.136 z"
         style="fill:#002e5f;fill-opacity:1;fill-rule:nonzero;stroke:none"
         id="path4235"
         inkscape:connector-curvature="0"
         sodipodi:nodetypes="cccccc" /></g><g
       id="g4237"
       transform="matrix(4.0277102,0,0,4.0277102,268.67271,836.31677)"><path
         d="m 0,0 -4.834,10.858 -52.019,-32.394 31.327,3.293 L 0,0 z"
         style="fill:#008bcb;fill-opacity:1;fill-rule:nonzero;stroke:none"
         id="path4239"
         inkscape:connector-curvature="0" /></g><g
       id="g4241"
       transform="matrix(4.0277102,0,0,4.0277102,-120.15559,-2269.4989)"><g
         id="g4243"
         clip-path="url(#clipPath4245)"><g
           id="g4249"
           transform="translate(112.3078,794.8946)"><path
             d="m 0,0 c -0.591,0 -1.135,-0.111 -1.634,-0.337 -0.5,-0.223 -0.913,-0.509 -1.238,-0.854 l 10e-4,-11.734 -4.555,0 0.002,22.306 4.553,0 -10e-4,-7.515 c 0.49,0.404 1.081,0.742 1.774,1.006 0.691,0.266 1.466,0.397 2.321,0.397 C 3.26,3.269 4.845,2.644 5.974,1.39 7.105,0.139 7.67,-1.721 7.67,-4.186 l 0,-8.739 -4.552,0 -10e-4,8.679 c 0,1.506 -0.259,2.591 -0.778,3.251 C 1.818,-0.331 1.039,0 0,0"
             style="fill:#002e5f;fill-opacity:1;fill-rule:nonzero;stroke:none"
             id="path4251"
             inkscape:connector-curvature="0" /></g><g
           id="g4253"
           transform="translate(123.0861,801.9835)"><path
             d="m 0,0 c 0,0.755 0.199,1.325 0.595,1.711 0.398,0.387 1.064,0.581 2.002,0.581 0.937,0 1.604,-0.194 2,-0.581 C 4.995,1.325 5.195,0.755 5.194,0 5.195,-0.775 4.995,-1.349 4.597,-1.726 4.201,-2.101 3.533,-2.29 2.598,-2.29 1.66,-2.29 0.993,-2.101 0.596,-1.726 0.198,-1.349 0,-0.775 0,0 m 0.305,-4.185 4.552,0 10e-4,-15.829 -4.554,0 0.001,15.829 z"
             style="fill:#002e5f;fill-opacity:1;fill-rule:nonzero;stroke:none"
             id="path4255"
             inkscape:connector-curvature="0" /></g><g
           id="g4257"
           transform="translate(130.6528,790.0672)"><path
             d="m 0,0 c 0.002,1.242 0.185,2.363 0.551,3.361 0.367,0.997 0.872,1.85 1.513,2.552 0.642,0.702 1.385,1.243 2.233,1.617 0.841,0.379 1.755,0.566 2.733,0.566 0.813,0 1.563,-0.126 2.244,-0.38 0.682,-0.255 1.239,-0.597 1.665,-1.023 l 0.002,1.038 4.553,0 10e-4,-14.332 c -0.002,-1.345 -0.154,-2.493 -0.459,-3.453 -0.308,-0.956 -0.789,-1.741 -1.452,-2.351 -0.662,-0.612 -1.52,-1.065 -2.567,-1.361 -1.049,-0.297 -2.318,-0.445 -3.804,-0.445 -1.038,0 -2.028,0.096 -2.964,0.276 -0.936,0.184 -1.803,0.481 -2.596,0.888 l 0.242,3.574 c 0.715,-0.51 1.503,-0.896 2.369,-1.16 0.866,-0.265 1.746,-0.397 2.643,-0.397 1.222,0 2.199,0.282 2.933,0.84 0.734,0.559 1.101,1.492 1.1,2.796 l 0.001,0.702 C 10.513,-7.122 9.956,-7.46 9.274,-7.715 8.592,-7.97 7.843,-8.097 7.029,-8.097 c -0.978,0 -1.89,0.188 -2.734,0.563 C 3.449,-7.155 2.707,-6.617 2.066,-5.912 1.423,-5.211 0.918,-4.361 0.551,-3.361 0.185,-2.365 0.001,-1.245 0,0 m 4.615,0 c 0,-1.631 0.33,-2.84 0.993,-3.637 0.662,-0.794 1.472,-1.192 2.428,-1.192 0.572,0 1.112,0.101 1.622,0.307 0.51,0.202 0.936,0.498 1.283,0.885 l 10e-4,7.274 C 10.594,4.002 10.166,4.294 9.657,4.507 9.147,4.722 8.607,4.827 8.037,4.827 7.08,4.827 6.27,4.43 5.609,3.637 4.945,2.841 4.614,1.629 4.615,0"
             style="fill:#002e5f;fill-opacity:1;fill-rule:nonzero;stroke:none"
             id="path4259"
             inkscape:connector-curvature="0" /></g><g
           id="g4261"
           transform="translate(157.1136,794.8946)"><path
             d="m 0,0 c -0.591,0 -1.136,-0.111 -1.634,-0.337 -0.501,-0.223 -0.915,-0.509 -1.24,-0.854 l 0,-11.734 -4.551,0 -0.001,22.306 4.554,0 -0.002,-7.515 c 0.49,0.404 1.08,0.742 1.774,1.006 0.691,0.266 1.466,0.397 2.321,0.397 2.039,0 3.621,-0.625 4.753,-1.879 1.128,-1.251 1.695,-3.111 1.694,-5.576 l 10e-4,-8.739 -4.554,0 10e-4,8.679 C 3.117,-2.74 2.856,-1.655 2.338,-0.995 1.818,-0.331 1.037,0 0,0"
             style="fill:#002e5f;fill-opacity:1;fill-rule:nonzero;stroke:none"
             id="path4263"
             inkscape:connector-curvature="0" /></g></g></g><g
       id="g4265"
       transform="matrix(4.0277102,0,0,4.0277102,607.08293,943.80225)"><path
         d="M 0,0 2.872,-10.51 5.805,0 l 4.646,0 -5.166,-15.829 -4.645,0 -2.688,10.175 -2.689,-10.175 -4.644,0 L -14.545,0 -9.902,0 -6.968,-10.51 -4.097,0 0,0 z"
         style="fill:#002e5f;fill-opacity:1;fill-rule:nonzero;stroke:none"
         id="path4267"
         inkscape:connector-curvature="0" /></g><g
       id="g4269"
       transform="matrix(4.0277102,0,0,4.0277102,-120.15559,-2269.4989)"><g
         id="g4271"
         clip-path="url(#clipPath4273)"><g
           id="g4277"
           transform="translate(197.4898,781.6041)"><path
             d="m 0,0 c -0.815,0 -1.58,0.11 -2.291,0.335 -0.715,0.224 -1.336,0.55 -1.865,0.978 -0.528,0.428 -0.947,0.957 -1.253,1.589 -0.306,0.631 -0.458,1.355 -0.456,2.169 -0.002,1.65 0.62,2.969 1.862,3.957 1.241,0.987 3.056,1.482 5.44,1.482 l 2.932,0 0,0.726 c -0.002,0.766 -0.227,1.301 -0.687,1.602 -0.459,0.303 -1.237,0.452 -2.338,0.452 -0.977,0 -1.935,-0.123 -2.873,-0.372 -0.937,-0.252 -1.792,-0.585 -2.566,-1.002 l -0.428,3.24 c 0.795,0.405 1.758,0.743 2.889,1.007 1.129,0.266 2.275,0.396 3.437,0.396 2.463,0 4.268,-0.463 5.409,-1.387 1.139,-0.929 1.71,-2.485 1.71,-4.662 l 10e-4,-10.144 -4.554,0 0,1.039 C 3.697,0.896 3.042,0.532 2.399,0.32 1.757,0.107 0.957,0 0,0 m 1.099,3.147 c 0.633,0 1.244,0.105 1.836,0.32 0.589,0.214 1.067,0.545 1.432,0.995 l 0.002,2.932 -2.781,0 C 0.549,7.394 -0.184,7.195 -0.611,6.798 -1.039,6.399 -1.254,5.853 -1.254,5.164 -1.252,4.468 -1.045,3.963 -0.626,3.634 -0.209,3.31 0.367,3.147 1.099,3.147"
             style="fill:#002e5f;fill-opacity:1;fill-rule:nonzero;stroke:none"
             id="path4279"
             inkscape:connector-curvature="0" /></g></g></g><g
       id="g4281"
       transform="matrix(4.0277102,0,0,4.0277102,741.39981,880.16564)"><path
         d="m 0,0 -6.355,15.8 4.766,0 3.757,-10.511 3.73,10.511 4.767,0 -8.097,-21.728 -4.769,0 L 0,0 z"
         style="fill:#002e5f;fill-opacity:1;fill-rule:nonzero;stroke:none"
         id="path4283"
         inkscape:connector-curvature="0" /></g><g
       id="g4285"
       transform="matrix(4.0277102,0,0,4.0277102,-120.15559,-2269.4989)"><g
         id="g4287"
         clip-path="url(#clipPath4289)"><g
           id="g4293"
           transform="translate(231.4497,781.6041)"><path
             d="m 0,0 c -1.081,0 -2.12,0.101 -3.116,0.304 -1,0.206 -1.926,0.521 -2.784,0.948 l 0.215,3.666 c 0.774,-0.53 1.607,-0.939 2.491,-1.221 0.886,-0.287 1.809,-0.43 2.766,-0.43 1.649,0 2.475,0.531 2.475,1.589 0,0.226 -0.048,0.43 -0.138,0.612 C 1.818,5.651 1.65,5.83 1.405,6.003 1.162,6.174 0.833,6.343 0.426,6.509 0.019,6.671 -0.49,6.842 -1.102,7.026 c -1.65,0.469 -2.851,1.117 -3.603,1.941 -0.755,0.825 -1.132,1.799 -1.131,2.918 -10e-4,1.528 0.553,2.688 1.664,3.483 1.112,0.795 2.714,1.191 4.813,1.191 0.957,0 1.881,-0.09 2.764,-0.274 0.887,-0.184 1.717,-0.437 2.492,-0.764 L 5.562,12.16 c -0.654,0.347 -1.366,0.621 -2.14,0.825 -0.774,0.202 -1.559,0.305 -2.353,0.305 -0.835,0 -1.426,-0.111 -1.772,-0.337 -0.348,-0.222 -0.519,-0.516 -0.519,-0.885 0,-0.449 0.202,-0.835 0.61,-1.162 C -0.204,10.58 0.59,10.245 1.774,9.902 2.71,9.615 3.486,9.299 4.108,8.951 4.731,8.604 5.23,8.229 5.608,7.822 5.986,7.414 6.253,6.975 6.416,6.509 6.58,6.038 6.661,5.549 6.661,5.042 6.661,3.41 6.107,2.164 4.995,1.296 3.884,0.432 2.22,0 0,0"
             style="fill:#002e5f;fill-opacity:1;fill-rule:nonzero;stroke:none"
             id="path4295"
             inkscape:connector-curvature="0" /></g><g
           id="g4297"
           transform="translate(106.75,763.8051)"><path
             d="M 0,0 C 0.087,-1.306 0.533,-2.349 1.335,-3.134 2.138,-3.916 3.226,-4.31 4.6,-4.31 c 0.812,0 1.556,0.091 2.234,0.277 0.679,0.184 1.318,0.525 1.918,1.018 L 8.991,-5.157 C 8.426,-5.509 7.769,-5.782 7.02,-5.977 6.27,-6.17 5.448,-6.266 4.548,-6.266 c -1.128,0 -2.121,0.184 -2.976,0.554 -0.853,0.371 -1.568,0.876 -2.141,1.52 -0.572,0.645 -1.004,1.402 -1.295,2.276 -0.292,0.871 -0.437,1.818 -0.437,2.842 0,1.073 0.145,2.049 0.437,2.921 0.291,0.872 0.705,1.621 1.243,2.247 0.537,0.625 1.19,1.11 1.956,1.455 0.766,0.345 1.617,0.515 2.552,0.515 0.987,0 1.868,-0.176 2.643,-0.53 C 7.306,7.183 7.958,6.686 8.488,6.041 9.015,5.397 9.416,4.631 9.691,3.74 9.964,2.849 10.102,1.877 10.102,0.819 l 0,-0.409 C 10.102,0.279 10.092,0.14 10.075,0 L 0,0 z M 7.801,1.903 C 7.711,3.19 7.327,4.212 6.651,4.97 5.972,5.726 5.051,6.107 3.887,6.107 2.723,6.107 1.807,5.726 1.136,4.97 0.466,4.212 0.087,3.19 0,1.903 l 7.801,0 z"
             style="fill:#002e5f;fill-opacity:1;fill-rule:nonzero;stroke:none"
             id="path4299"
             inkscape:connector-curvature="0" /></g><g
           id="g4301"
           transform="translate(125.2977,769.9125)"><path
             d="m 0,0 c -0.792,0 -1.503,-0.16 -2.129,-0.474 -0.625,-0.319 -1.132,-0.734 -1.519,-1.245 l 0,-10.338 -2.221,0 0,13.696 2.221,0 0,-1.11 c 0.458,0.423 1.019,0.767 1.678,1.031 0.662,0.265 1.416,0.396 2.261,0.396 1.762,0 3.152,-0.525 4.165,-1.574 1.013,-1.047 1.519,-2.614 1.519,-4.693 l 0,-7.746 -2.22,0 0,7.8 c 0,1.498 -0.312,2.581 -0.939,3.252 C 2.189,-0.334 1.251,0 0,0"
             style="fill:#002e5f;fill-opacity:1;fill-rule:nonzero;stroke:none"
             id="path4303"
             inkscape:connector-curvature="0" /></g><g
           id="g4305"
           transform="translate(143.9255,771.5518)"><path
             d="m 0,0 2.221,0 0,-12.693 c 0,-2.22 -0.514,-3.823 -1.535,-4.811 -1.022,-0.987 -2.626,-1.481 -4.812,-1.481 -1.727,0 -3.262,0.362 -4.601,1.084 l 0.159,2.273 c 0.689,-0.456 1.405,-0.806 2.154,-1.043 0.75,-0.239 1.547,-0.357 2.393,-0.357 1.375,0 2.388,0.296 3.042,0.886 0.653,0.591 0.979,1.635 0.979,3.135 l 0,0.686 c -0.46,-0.441 -1.015,-0.789 -1.668,-1.046 -0.652,-0.255 -1.382,-0.382 -2.194,-0.382 -0.846,0 -1.649,0.163 -2.405,0.489 -0.759,0.327 -1.425,0.793 -1.997,1.4 -0.574,0.609 -1.023,1.349 -1.349,2.223 -0.325,0.871 -0.489,1.854 -0.489,2.948 0,1.091 0.164,2.07 0.489,2.936 0.326,0.861 0.775,1.599 1.349,2.208 0.572,0.607 1.238,1.074 1.997,1.4 0.756,0.327 1.559,0.489 2.405,0.489 0.812,0 1.542,-0.123 2.194,-0.37 0.653,-0.249 1.208,-0.59 1.668,-1.03 L 0,0 z m 0,-3.33 c -0.407,0.563 -0.922,0.992 -1.547,1.28 -0.626,0.292 -1.337,0.438 -2.129,0.438 -0.581,0 -1.129,-0.112 -1.639,-0.332 -0.512,-0.221 -0.952,-0.542 -1.323,-0.965 -0.37,-0.421 -0.661,-0.949 -0.872,-1.586 -0.213,-0.634 -0.317,-1.366 -0.317,-2.194 0,-0.83 0.104,-1.559 0.317,-2.195 0.211,-0.635 0.502,-1.167 0.872,-1.6 0.371,-0.433 0.811,-0.758 1.323,-0.978 0.51,-0.221 1.058,-0.331 1.639,-0.331 0.792,0 1.503,0.15 2.129,0.451 0.625,0.298 1.14,0.731 1.547,1.294 l 0,6.718 z"
             style="fill:#002e5f;fill-opacity:1;fill-rule:nonzero;stroke:none"
             id="path4307"
             inkscape:connector-curvature="0" /></g></g></g><path
       d="m 482.74429,860.67233 8.94555,0 0,-77.75092 -8.94555,0 0,77.75092 z"
       style="fill:#002e5f;fill-opacity:1;fill-rule:nonzero;stroke:none"
       id="path4309"
       inkscape:connector-curvature="0" /><g
       id="g4311"
       transform="matrix(4.0277102,0,0,4.0277102,-120.15559,-2269.4989)"><g
         id="g4313"
         clip-path="url(#clipPath4315)"><g
           id="g4319"
           transform="translate(159.7056,757.5391)"><path
             d="m 0,0 c -0.758,0 -1.459,0.091 -2.101,0.277 -0.645,0.184 -1.204,0.458 -1.681,0.82 -0.475,0.361 -0.844,0.81 -1.109,1.348 -0.265,0.538 -0.397,1.167 -0.397,1.89 0,1.394 0.52,2.499 1.559,3.319 1.04,0.819 2.522,1.23 4.443,1.23 l 3.437,0 0,0.949 c 0,0.954 -0.278,1.616 -0.832,1.985 -0.556,0.37 -1.45,0.555 -2.685,0.555 -0.739,0 -1.516,-0.092 -2.326,-0.279 -0.811,-0.183 -1.535,-0.452 -2.168,-0.806 l -0.238,1.984 c 0.651,0.317 1.397,0.573 2.234,0.768 0.837,0.194 1.687,0.29 2.553,0.29 0.916,0 1.726,-0.088 2.432,-0.265 0.704,-0.175 1.3,-0.463 1.784,-0.859 0.485,-0.398 0.85,-0.917 1.097,-1.56 0.247,-0.645 0.371,-1.431 0.371,-2.367 l 0,-8.963 -2.222,0 0,1.06 C 3.677,0.914 3.081,0.571 2.369,0.341 1.653,0.114 0.863,0 0,0 m 0.212,1.956 c 0.847,0 1.616,0.14 2.313,0.423 0.696,0.281 1.238,0.705 1.626,1.269 l 0,3.33 -3.33,0 c -1.324,0 -2.293,-0.231 -2.91,-0.7 -0.616,-0.466 -0.926,-1.096 -0.926,-1.889 0,-0.847 0.3,-1.464 0.899,-1.853 0.6,-0.388 1.376,-0.58 2.328,-0.58"
             style="fill:#002e5f;fill-opacity:1;fill-rule:nonzero;stroke:none"
             id="path4321"
             inkscape:connector-curvature="0" /></g><g
           id="g4323"
           transform="translate(175.233,769.9125)"><path
             d="M 0,0 C -0.793,0 -1.503,-0.16 -2.128,-0.474 -2.754,-0.793 -3.26,-1.208 -3.647,-1.719 l 0,-10.338 -2.222,0 0,13.696 2.222,0 0,-1.11 c 0.458,0.423 1.018,0.767 1.678,1.031 0.661,0.265 1.415,0.396 2.26,0.396 1.763,0 3.152,-0.525 4.165,-1.574 1.014,-1.047 1.521,-2.614 1.521,-4.693 l 0,-7.746 -2.221,0 0,7.8 c 0,1.498 -0.313,2.581 -0.939,3.252 C 2.191,-0.334 1.251,0 0,0"
             style="fill:#002e5f;fill-opacity:1;fill-rule:nonzero;stroke:none"
             id="path4325"
             inkscape:connector-curvature="0" /></g><g
           id="g4327"
           transform="translate(193.8992,758.9152)"><path
             d="m 0,0 c -0.458,-0.426 -1.018,-0.759 -1.68,-1.006 -0.66,-0.247 -1.379,-0.37 -2.152,-0.37 -0.902,0 -1.738,0.161 -2.514,0.489 -0.776,0.325 -1.452,0.802 -2.023,1.427 -0.574,0.625 -1.024,1.379 -1.35,2.26 -0.324,0.883 -0.489,1.877 -0.489,2.989 0,1.11 0.165,2.106 0.489,2.989 0.326,0.879 0.776,1.632 1.35,2.26 0.571,0.625 1.247,1.1 2.023,1.427 0.776,0.327 1.612,0.488 2.514,0.488 0.773,0 1.492,-0.122 2.152,-0.37 0.662,-0.246 1.222,-0.582 1.68,-1.003 l 0,6.664 2.221,0 0,-19.304 L 0,-1.06 0,0 z m 0,9.306 c -0.406,0.545 -0.927,0.963 -1.56,1.255 -0.635,0.29 -1.323,0.436 -2.065,0.436 -0.615,0 -1.187,-0.111 -1.716,-0.329 -0.529,-0.222 -0.988,-0.554 -1.376,-0.991 -0.388,-0.443 -0.688,-0.984 -0.9,-1.628 -0.21,-0.644 -0.316,-1.398 -0.316,-2.26 0,-0.865 0.106,-1.621 0.316,-2.274 0.212,-0.653 0.512,-1.194 0.9,-1.628 C -6.329,1.456 -5.87,1.13 -5.341,0.909 -4.812,0.69 -4.24,0.58 -3.625,0.58 c 0.742,0 1.43,0.144 2.065,0.436 0.633,0.291 1.154,0.71 1.56,1.256 l 0,7.034 z"
             style="fill:#002e5f;fill-opacity:1;fill-rule:nonzero;stroke:none"
             id="path4329"
             inkscape:connector-curvature="0" /></g></g></g></g></svg>