<?xml version="1.0" encoding="UTF-8"?>
<svg width="924px" height="396px" viewBox="0 0 924 396" version="1.1" xmlns="http://www.w3.org/2000/svg" xmlns:xlink="http://www.w3.org/1999/xlink">
    <title>home-office-logo</title>
    <g id="Page-1" stroke="none" stroke-width="1" fill="none" fill-rule="evenodd">
        <g id="home-office-logo" transform="translate(0.461548, 0.660889)" fill-rule="nonzero">
            <polygon id="Path" fill="#7F3F98" points="6.21724894e-15 0 13.251952 0 13.251952 391.797111 6.21724894e-15 391.797111"></polygon>
            <path d="M145.003452,17.861311 L145.003452,25.735611 C149.036452,25.927711 151.917452,26.695911 153.454452,27.080011 C152.685452,22.470611 149.420452,19.013611 145.003452,17.861311 Z M140.202452,12.291611 C140.202452,14.980411 139.625452,16.708911 138.857452,17.861311 C138.857452,17.861311 140.202452,17.477211 141.930452,17.477211 C143.082452,17.477211 144.811452,17.861311 145.003452,17.861311 C144.235452,16.708911 143.659452,14.980411 143.659452,12.291611 C149.612452,12.291611 150.957452,14.980411 150.957452,17.285111 L152.109452,17.285111 L152.109452,3.841071 L150.957452,3.841071 C150.957452,6.145761 149.420452,8.834571 143.659452,8.834571 C143.659452,2.880781 146.347452,1.536381 148.652452,1.536381 L148.652452,0.3840329 L135.208452,0.3840329 L135.208452,1.536381 C137.513452,1.536381 140.202452,3.072841 140.202452,8.834571 C134.248452,8.834571 132.903452,6.145761 132.903452,3.841071 L131.751452,3.841071 L131.751452,17.285111 L132.903452,17.285111 C132.903452,14.980411 134.248452,12.291611 140.202452,12.291611 L140.202452,12.291611 Z M138.857452,17.861311 C134.632452,19.013611 131.367452,22.662711 130.407452,27.080011 C131.943452,26.695911 134.824452,25.927711 138.857452,25.735611 L138.857452,17.861311 Z M146.155452,212.800111 C146.155452,215.488111 148.460452,217.793111 151.149452,217.793111 C153.838452,217.793111 156.142452,215.488111 156.142452,212.800111 C156.142452,210.111111 153.838452,207.806111 151.149452,207.806111 C148.268452,207.998111 146.155452,210.111111 146.155452,212.800111 Z M148.652452,212.800111 C148.652452,211.455111 149.804452,210.303111 151.149452,210.303111 C152.493452,210.303111 153.646452,211.455111 153.646452,212.800111 C153.646452,214.144111 152.493452,215.296111 151.149452,215.296111 C149.612452,215.296111 148.652452,214.336111 148.652452,212.800111 Z M137.129452,147.692111 C137.129452,145.195111 135.208452,143.275111 132.711452,143.275111 L107.744452,143.275111 C105.631452,143.275111 103.903452,145.003111 103.903452,147.116111 C103.903452,148.652111 105.055452,149.805111 106.591452,149.805111 C108.128452,149.805111 109.280452,148.652111 109.280452,146.924111 C109.856452,147.500111 110.433452,147.884111 111.201452,148.268111 C110.817452,149.805111 110.433452,151.917111 110.241452,154.414111 C109.856452,153.838111 109.280452,153.646111 108.704452,153.646111 C107.744452,153.646111 106.784452,154.414111 106.784452,155.566111 C106.784452,156.527111 107.552452,157.487111 108.704452,157.487111 C109.280452,157.487111 109.856452,157.103111 110.241452,156.719111 C110.241452,158.063111 110.241452,159.408111 110.433452,160.944111 C110.049452,160.752111 109.664452,160.560111 109.280452,160.560111 C108.320452,160.560111 107.360452,161.328111 107.360452,162.481111 C107.360452,163.441111 108.128452,164.401111 109.280452,164.401111 C109.856452,164.401111 110.625452,164.017111 110.817452,163.441111 C110.817452,163.633111 110.817452,163.825111 111.009452,164.017111 C111.393452,165.169111 111.777452,166.322111 112.161452,167.282111 C111.969452,167.090111 111.585452,167.090111 111.201452,167.090111 C110.241452,167.090111 109.280452,167.858111 109.280452,169.011111 C109.280452,169.971111 110.049452,170.931111 111.201452,170.931111 C112.161452,170.931111 112.929452,170.163111 113.121452,169.395111 C113.698452,170.547111 114.466452,171.699111 115.426452,172.852111 L115.042452,172.852111 C114.082452,172.852111 113.121452,173.620111 113.121452,174.772111 C113.121452,175.925111 113.890452,176.693111 115.042452,176.693111 C116.002452,176.693111 116.963452,175.925111 116.963452,174.772111 L116.963452,174.580111 C119.843452,177.461111 123.493452,179.958111 127.910452,181.686111 L127.142452,187.448111 C127.142452,187.448111 128.870452,188.216111 131.559452,188.985111 C134.248452,189.753111 136.745452,190.137111 136.745452,190.137111 L137.129452,147.692111 Z M114.466452,149.997111 C114.466452,149.997111 114.658452,149.997111 114.850452,150.189111 L128.486452,177.845111 C111.585452,170.163111 113.313452,156.335111 114.466452,149.997111 Z M128.870452,175.733111 L116.386452,150.573111 C117.155452,150.765111 117.923452,150.765111 118.691452,150.765111 L129.446452,172.468111 L128.870452,175.733111 Z M129.638452,170.163111 L120.036452,150.573111 C120.804452,150.573111 121.380452,150.381111 121.956452,150.189111 L130.022452,166.706111 L129.638452,170.163111 Z M130.407452,164.593111 L123.108452,149.997111 C123.685452,149.805111 124.261452,149.613111 124.837452,149.229111 L130.791452,161.136111 L130.407452,164.593111 Z M131.175452,159.024111 L125.989452,148.652111 C126.565452,148.268111 127.142452,147.884111 127.526452,147.500111 L131.559452,155.566111 L131.175452,159.024111 Z M132.519452,149.421111 L131.943452,153.646111 L128.678452,146.924111 C129.062452,146.732111 129.446452,146.732111 129.830452,146.732111 C131.367452,146.540111 132.711452,147.884111 132.519452,149.421111 L132.519452,149.421111 Z M120.612452,36.490911 C120.612452,34.954411 121.956452,33.610011 123.493452,33.610011 C125.029452,33.610011 126.373452,34.954411 126.373452,36.490911 C126.373452,38.219411 125.029452,39.371711 123.493452,39.371711 C121.956452,39.563811 120.612452,38.219411 120.612452,36.490911 Z M82.392652,56.849011 C82.392652,55.312511 83.737052,53.968111 85.273552,53.968111 C87.002052,53.968111 88.154352,55.312511 88.154352,56.849011 C88.154352,58.577511 86.809952,59.729811 85.273552,59.729811 C83.737052,59.729811 82.392652,58.385411 82.392652,56.849011 Z M80.856152,49.358711 C80.856152,47.630211 82.200652,46.477911 83.737052,46.477911 C85.273552,46.477911 86.617952,47.822311 86.617952,49.358711 C86.617952,50.895211 85.273552,52.239611 83.737052,52.239611 C82.200652,52.431611 80.856152,51.087211 80.856152,49.358711 Z M81.432352,41.868511 C81.432352,40.332011 82.776752,38.987611 84.313252,38.987611 C86.041752,38.987611 87.194152,40.332011 87.194152,41.868511 C87.194152,43.404911 85.849752,44.749311 84.313252,44.749311 C82.776752,44.749311 81.432352,43.404911 81.432352,41.868511 Z M85.465552,35.338511 C85.465552,33.802011 86.809952,32.457611 88.346452,32.457611 C90.074952,32.457611 91.227352,33.802011 91.227352,35.338511 C91.227352,36.875011 89.882952,38.219411 88.346452,38.219411 C86.809952,38.411411 85.465552,37.067011 85.465552,35.338511 Z M91.611452,30.921211 C91.611452,29.384711 92.955852,28.040311 94.492252,28.040311 C96.028752,28.040311 97.373152,29.384711 97.373152,30.921211 C97.373152,32.649711 96.028752,33.802011 94.492252,33.802011 C92.955852,33.994111 91.611452,32.649711 91.611452,30.921211 Z M99.101652,29.576811 C99.101652,28.040311 100.446452,26.695911 101.982452,26.695911 C103.711452,26.695911 104.863452,28.040311 104.863452,29.576811 C104.863452,31.113211 103.519452,32.457611 101.982452,32.457611 C100.446452,32.649711 99.101652,31.305311 99.101652,29.576811 Z M106.399452,31.113211 C106.399452,29.576811 107.744452,28.232411 109.280452,28.232411 C111.009452,28.232411 112.161452,29.576811 112.161452,31.113211 C112.161452,32.649711 110.817452,33.994111 109.280452,33.994111 C107.744452,34.186211 106.399452,32.841811 106.399452,31.113211 Z M113.506452,33.994111 C113.506452,32.457611 114.850452,31.113211 116.386452,31.113211 C118.115452,31.113211 119.267452,32.457611 119.267452,33.994111 C119.267452,35.722611 117.923452,36.875011 116.386452,36.875011 C114.850452,36.875011 113.506452,35.530611 113.506452,33.994111 Z M163.248452,36.490911 C163.248452,34.954411 161.904452,33.610011 160.368452,33.610011 C158.831452,33.610011 157.487452,34.954411 157.487452,36.490911 C157.487452,38.219411 158.831452,39.371711 160.368452,39.371711 C161.904452,39.563811 163.248452,38.219411 163.248452,36.490911 Z M201.468452,56.849011 C201.468452,55.312511 200.124452,53.968111 198.587452,53.968111 C196.859452,53.968111 195.706452,55.312511 195.706452,56.849011 C195.706452,58.577511 197.051452,59.729811 198.587452,59.729811 C200.124452,59.729811 201.468452,58.385411 201.468452,56.849011 Z M203.004452,49.358711 C203.004452,47.630211 201.660452,46.477911 200.124452,46.477911 C198.587452,46.477911 197.243452,47.822311 197.243452,49.358711 C197.243452,50.895211 198.587452,52.239611 200.124452,52.239611 C201.660452,52.431611 203.004452,51.087211 203.004452,49.358711 Z M202.236452,41.868511 C202.236452,40.332011 200.892452,38.987611 199.355452,38.987611 C197.627452,38.987611 196.474452,40.332011 196.474452,41.868511 C196.474452,43.404911 197.819452,44.749311 199.355452,44.749311 C201.084452,44.749311 202.236452,43.404911 202.236452,41.868511 Z M198.395452,35.338511 C198.395452,33.802011 197.051452,32.457611 195.514452,32.457611 C193.978452,32.457611 192.633452,33.802011 192.633452,35.338511 C192.633452,36.875011 193.978452,38.219411 195.514452,38.219411 C197.051452,38.411411 198.395452,37.067011 198.395452,35.338511 Z M192.249452,30.921211 C192.249452,29.384711 190.905452,28.040311 189.368452,28.040311 C187.640452,28.040311 186.487452,29.384711 186.487452,30.921211 C186.487452,32.649711 187.832452,33.802011 189.368452,33.802011 C190.905452,33.994111 192.249452,32.649711 192.249452,30.921211 Z M184.759452,29.576811 C184.759452,28.040311 183.415452,26.695911 181.878452,26.695911 C180.150452,26.695911 178.997452,28.040311 178.997452,29.576811 C178.997452,31.113211 180.342452,32.457611 181.878452,32.457611 C183.415452,32.649711 184.759452,31.305311 184.759452,29.576811 Z M177.269452,31.113211 C177.269452,29.576811 175.924452,28.232411 174.388452,28.232411 C172.659452,28.232411 171.507452,29.576811 171.507452,31.113211 C171.507452,32.649711 172.851452,33.994111 174.388452,33.994111 C176.116452,34.186211 177.269452,32.841811 177.269452,31.113211 Z M170.163452,33.994111 C170.163452,32.457611 168.818452,31.113211 167.282452,31.113211 C165.745452,31.113211 164.401452,32.457611 164.401452,33.994111 C164.401452,35.722611 165.745452,36.875011 167.282452,36.875011 C169.010452,36.875011 170.163452,35.530611 170.163452,33.994111 Z M167.282452,78.935611 C167.282452,77.207111 165.745452,75.670611 164.017452,75.670611 C162.288452,75.670611 160.752452,77.207111 160.752452,78.935611 C160.752452,80.664111 162.288452,82.200611 164.017452,82.200611 C165.745452,82.200611 167.282452,80.664111 167.282452,78.935611 Z M145.963452,98.525511 L145.963452,135.785111 L178.997452,135.785111 L178.997452,98.525511 L145.963452,98.525511 Z M178.037452,134.824111 L146.924452,134.824111 L146.924452,99.677811 L177.845452,99.677811 L178.037452,134.824111 Z" id="Shape" fill="#FFFFFF"></path>
            <path d="M150.189452,100.830111 L148.268452,100.830111 L148.268452,133.480111 L176.693452,133.480111 L176.693452,100.830111 L158.639452,100.830111 L150.189452,100.830111 Z M174.772452,101.790111 L174.772452,102.751111 L175.732452,102.751111 L175.732452,131.559111 L174.772452,131.559111 L174.772452,132.519111 L150.189452,132.519111 L150.189452,131.559111 L149.228452,131.559111 L149.228452,102.751111 L150.189452,102.751111 L150.189452,101.790111 L174.772452,101.790111 Z" id="Shape" fill="#FFFFFF"></path>
            <path d="M173.428452,110.241111 L171.891452,111.777111 C171.891452,111.777111 171.699452,111.777111 171.699452,111.969111 L168.818452,114.658111 C167.858452,115.426111 167.666452,116.771111 168.434452,117.731111 L170.163452,120.036111 C170.355452,120.228111 170.355452,120.420111 170.355452,120.804111 C170.355452,120.996111 170.163452,121.380111 169.970452,121.380111 C169.778452,121.572111 169.586452,121.572111 169.202452,121.572111 C169.010452,121.572111 168.626452,121.380111 168.626452,121.188111 C168.626452,121.188111 166.898452,118.884111 166.129452,117.731111 L166.129452,114.466111 L170.163452,110.625111 L170.163452,107.360111 L168.818452,106.016111 L170.547452,104.287111 L163.441452,104.287111 L161.712452,106.016111 L161.712452,107.936111 C161.904452,107.744111 162.288452,107.744111 162.480452,107.744111 C163.248452,107.744111 164.017452,108.512111 164.017452,109.281111 C164.017452,110.049111 163.248452,110.817111 162.480452,110.817111 C162.288452,110.817111 161.904452,110.817111 161.712452,110.625111 L161.712452,112.930111 L159.215452,112.930111 L156.334452,108.897111 C156.719452,108.512111 156.911452,107.936111 156.911452,107.360111 C156.911452,106.208111 155.950452,105.439111 154.990452,105.439111 C154.606452,105.439111 154.222452,105.632111 153.838452,105.824111 L153.838452,109.089111 L154.030452,109.089111 L156.719452,112.930111 L158.063452,114.850111 L161.328452,114.850111 L159.599452,116.579111 L156.142452,116.579111 C155.950452,115.811111 155.182452,115.426111 154.414452,115.426111 C153.646452,115.426111 152.877452,116.003111 152.685452,116.579111 C152.685452,116.771111 152.493452,116.963111 152.493452,117.347111 C152.493452,117.731111 152.685452,118.307111 152.877452,118.499111 L160.752452,118.499111 L162.096452,120.420111 L156.719452,120.420111 L158.831452,123.301111 L159.983452,124.837111 L157.295452,124.837111 C157.103452,124.069111 156.334452,123.493111 155.374452,123.493111 C154.606452,123.493111 153.838452,124.069111 153.454452,124.837111 L153.454452,125.413111 C153.454452,125.990111 153.646452,126.374111 154.030452,126.758111 L163.825452,126.758111 L162.480452,124.837111 L161.328452,123.301111 L164.401452,123.301111 L165.553452,124.837111 L166.898452,126.758111 L171.507452,126.758111 L171.507452,128.871111 L170.931452,128.871111 C170.739452,128.102111 169.970452,127.526111 169.010452,127.526111 C168.050452,127.526111 167.474452,128.102111 167.090452,128.871111 L167.090452,129.447111 C167.090452,130.023111 167.282452,130.407111 167.666452,130.791111 L173.428452,130.791111 L173.428452,124.645111 L169.586452,124.645111 L167.666452,122.148111 C168.050452,122.533111 168.434452,122.917111 169.010452,122.917111 C169.586452,122.917111 170.163452,122.917111 170.739452,122.533111 C171.315452,122.148111 171.507452,121.572111 171.699452,120.996111 C171.699452,120.420111 171.699452,119.844111 171.315452,119.268111 L169.586452,116.963111 C169.202452,116.579111 169.394452,115.811111 169.778452,115.619111 L170.547452,114.850111 C171.315452,115.426111 172.275452,115.426111 173.043452,114.850111 C173.428452,114.466111 173.620452,114.082111 173.620452,113.506111 L173.428452,110.241111 Z M146.347452,78.935611 L141.930452,83.353011 L137.513452,78.935611 L141.930452,74.518311 L146.347452,78.935611 Z M116.578452,78.935611 C116.578452,77.207111 118.115452,75.670611 119.843452,75.670611 C121.572452,75.670611 123.108452,77.207111 123.108452,78.935611 C123.108452,80.664111 121.572452,82.200611 119.843452,82.200611 C118.115452,82.200611 116.578452,80.664111 116.578452,78.935611 Z M176.693452,162.673111 L176.693452,161.712111 C176.693452,160.368111 175.732452,159.408111 174.388452,159.408111 L166.129452,159.408111 C166.129452,158.447111 165.169452,157.487111 164.209452,157.487111 C163.633452,157.487111 163.248452,157.679111 162.864452,158.063111 L160.368452,160.560111 L174.388452,160.560111 C174.964452,160.560111 175.348452,160.944111 175.348452,161.520111 C175.348452,162.096111 174.964452,162.481111 174.388452,162.481111 L158.063452,162.481111 L158.063452,160.176111 L160.944452,157.295111 L149.612452,157.295111 L152.493452,160.176111 L152.493452,164.401111 L147.884452,160.752111 C148.268452,160.368111 148.460452,159.792111 148.460452,159.216111 C148.460452,158.063111 147.500452,157.295111 146.539452,157.295111 C146.155452,157.295111 145.579452,157.487111 145.195452,157.679111 L145.195452,161.136111 L152.301452,166.898111 L149.036452,167.858111 C148.844452,167.090111 148.076452,166.514111 147.116452,166.514111 C145.963452,166.514111 145.195452,167.474111 145.195452,168.434111 C145.195452,168.818111 145.387452,169.395111 145.579452,169.587111 L149.612452,169.587111 L167.282452,164.017111 L167.282452,166.706111 L164.977452,167.666111 C164.785452,166.706111 164.017452,166.130111 163.056452,166.130111 C161.904452,166.130111 161.136452,167.090111 161.136452,168.050111 C161.136452,168.434111 161.328452,169.011111 161.520452,169.203111 L165.937452,169.203111 L168.626452,167.858111 L170.355452,167.090111 L169.586452,165.361111 L169.586452,164.977111 L176.116452,164.977111 C176.116452,165.169111 175.924452,165.554111 175.924452,165.746111 C175.732452,166.130111 175.540452,166.706111 175.348452,167.090111 C174.964452,166.706111 174.388452,166.514111 173.812452,166.514111 C172.659452,166.514111 171.891452,167.474111 171.891452,168.434111 C171.891452,168.818111 172.083452,169.395111 172.275452,169.587111 L176.308452,169.587111 C176.885452,168.434111 177.269452,167.090111 177.461452,166.322111 C178.037452,164.593111 178.421452,163.057111 178.421452,162.481111 C178.613452,162.673111 176.693452,162.673111 176.693452,162.673111 L176.693452,162.673111 Z M155.374452,162.865111 L153.454452,160.944111 L157.295452,160.944111 L155.374452,162.865111 Z M176.885452,148.460111 C177.077452,148.076111 177.077452,147.884111 177.077452,147.500111 C177.077452,146.156111 176.116452,145.195111 174.772452,145.195111 L166.129452,145.195111 C166.129452,144.235111 165.169452,143.275111 164.209452,143.275111 C163.633452,143.275111 163.248452,143.467111 162.864452,143.851111 L160.368452,146.348111 L174.964452,146.348111 C175.540452,146.348111 175.924452,146.732111 175.924452,147.308111 C175.924452,147.884111 175.540452,148.268111 174.964452,148.268111 L158.063452,148.268111 L158.063452,145.964111 L160.944452,143.083111 L149.612452,143.083111 L152.493452,145.964111 L152.493452,150.189111 L147.884452,146.540111 C148.268452,146.156111 148.460452,145.580111 148.460452,145.195111 C148.460452,144.043111 147.500452,143.275111 146.539452,143.275111 C146.155452,143.275111 145.579452,143.467111 145.195452,143.659111 L145.195452,147.116111 L152.109452,152.686111 L148.844452,153.646111 C148.652452,152.878111 147.884452,152.302111 146.924452,152.302111 C145.771452,152.302111 145.003452,153.262111 145.003452,154.222111 C145.003452,154.606111 145.195452,155.182111 145.387452,155.567111 L149.420452,155.567111 L167.090452,149.997111 L167.090452,152.878111 L164.785452,153.646111 C164.593452,152.878111 163.825452,152.302111 162.864452,152.302111 C161.712452,152.302111 160.944452,153.262111 160.944452,154.222111 C160.944452,154.606111 161.136452,155.182111 161.328452,155.567111 L165.745452,155.567111 L170.163452,154.222111 L172.275452,153.454111 L170.547452,151.917111 L169.394452,150.765111 L177.269452,150.765111 L177.269452,152.878111 C176.885452,152.494111 176.308452,152.109111 175.732452,152.109111 C174.580452,152.109111 173.812452,153.070111 173.812452,154.030111 C173.812452,154.414111 174.004452,154.990111 174.196452,155.374111 L179.189452,155.374111 L179.189452,148.268111 L176.885452,148.460111 Z M155.374452,148.652111 L153.454452,146.732111 L157.295452,146.732111 L155.374452,148.652111 Z M169.586452,173.428111 L166.129452,173.428111 C166.129452,172.468111 165.169452,171.507111 164.209452,171.507111 C163.633452,171.507111 163.248452,171.699111 162.864452,172.083111 L160.368452,174.580111 L169.778452,174.580111 C170.355452,174.580111 170.739452,174.964111 170.739452,175.541111 C170.739452,176.117111 170.355452,176.501111 169.778452,176.501111 L158.447452,176.501111 L158.447452,174.580111 L161.328452,171.699111 L149.996452,171.699111 L152.877452,174.580111 L152.877452,179.382111 L148.268452,175.156111 C148.652452,174.772111 149.036452,174.196111 149.036452,173.620111 C149.036452,172.468111 148.076452,171.699111 147.116452,171.699111 C146.732452,171.699111 146.155452,171.891111 145.771452,172.083111 L145.771452,175.348111 L153.069452,182.070111 L153.454452,181.686111 L148.844452,187.256111 C148.460452,186.872111 147.884452,186.872111 147.500452,186.872111 C146.347452,187.064111 145.579452,188.024111 145.771452,188.985111 C145.771452,189.369111 145.963452,189.753111 146.155452,190.137111 C146.924452,190.137111 147.884452,189.945111 149.420452,189.753111 L154.606452,183.607111 C155.374452,183.415111 155.950452,183.031111 156.719452,182.839111 L158.831452,184.759111 L157.679452,185.335111 C157.103452,184.951111 156.334452,184.759111 155.758452,184.951111 C154.798452,185.335111 154.222452,186.488111 154.606452,187.448111 C154.798452,187.832111 154.990452,188.024111 155.182452,188.216111 C155.182452,188.216111 155.950452,188.024111 156.719452,187.640111 C157.487452,187.256111 158.255452,187.064111 158.255452,187.064111 C159.215452,186.680111 159.983452,186.296111 160.752452,185.912111 L160.752452,180.726111 C162.096452,179.958111 163.248452,179.190111 164.209452,178.229111 L166.129452,179.958111 C165.745452,180.342111 165.361452,180.534111 164.785452,180.918111 C164.209452,180.534111 163.441452,180.534111 162.864452,180.918111 C162.480452,181.110111 162.096452,181.686111 161.904452,182.070111 L161.904452,182.839111 C161.904452,183.031111 162.096452,183.415111 162.096452,183.607111 C162.288452,183.991111 162.672452,184.183111 163.056452,184.375111 C164.017452,183.799111 164.785452,183.223111 165.745452,182.647111 C166.321452,182.263111 167.090452,181.686111 167.666452,181.110111 L168.242452,180.534111 L168.242452,178.037111 L169.586452,178.037111 C170.931452,178.037111 171.891452,177.077111 171.891452,175.733111 C171.891452,174.580111 170.931452,173.428111 169.586452,173.428111 L169.586452,173.428111 Z M155.374452,177.077111 L153.454452,175.156111 L157.295452,175.156111 L155.374452,177.077111 Z M135.784452,129.831111 C135.976452,129.447111 135.976452,129.255111 135.976452,128.871111 C135.976452,127.526111 135.016452,126.566111 133.672452,126.566111 L125.029452,126.566111 C125.029452,125.606111 124.069452,124.645111 123.108452,124.645111 C122.532452,124.645111 122.148452,124.837111 121.764452,125.221111 L119.267452,127.718111 L133.864452,127.718111 C134.440452,127.718111 134.824452,128.102111 134.824452,128.678111 C134.824452,129.255111 134.440452,129.639111 133.864452,129.639111 L117.155452,129.639111 L117.155452,127.334111 L120.036452,124.453111 L108.704452,124.453111 L111.585452,127.334111 L111.585452,131.559111 L106.976452,127.910111 C107.360452,127.526111 107.552452,126.950111 107.552452,126.566111 C107.552452,125.413111 106.591452,124.645111 105.631452,124.645111 C105.055452,124.645111 104.671452,124.837111 104.287452,125.029111 L104.287452,128.486111 L111.201452,134.056111 L107.936452,135.016111 C107.744452,134.248111 106.976452,133.672111 106.015452,133.672111 C104.863452,133.672111 104.095452,134.632111 104.095452,135.593111 C104.095452,136.169111 104.287452,136.553111 104.479452,136.937111 L108.512452,136.937111 L126.181452,131.367111 L126.181452,134.248111 L123.877452,135.016111 C123.685452,134.248111 122.916452,133.672111 121.956452,133.672111 C120.804452,133.672111 120.036452,134.632111 120.036452,135.593111 C120.036452,136.169111 120.228452,136.553111 120.420452,136.937111 L124.453452,136.937111 L128.870452,135.593111 L130.983452,135.016111 L129.254452,133.480111 L128.102452,132.328111 L135.976452,132.328111 L135.976452,134.440111 C135.592452,134.056111 135.016452,133.672111 134.440452,133.672111 C133.287452,133.672111 132.519452,134.632111 132.519452,135.593111 C132.519452,136.169111 132.711452,136.553111 132.903452,136.937111 L137.897452,136.937111 L137.897452,129.831111 L135.784452,129.831111 Z M114.082452,130.023111 L112.161452,128.102111 L116.002452,128.102111 L114.082452,130.023111 Z M135.784452,116.195111 C135.976452,115.811111 135.976452,115.619111 135.976452,115.234111 C135.976452,113.890111 135.016452,112.930111 133.672452,112.930111 L125.029452,112.930111 C125.029452,111.969111 124.069452,111.009111 123.108452,111.009111 C122.532452,111.009111 122.148452,111.201111 121.764452,111.585111 L119.267452,114.082111 L133.672452,114.082111 C134.248452,114.082111 134.632452,114.466111 134.632452,115.042111 C134.632452,115.619111 134.248452,116.003111 133.672452,116.003111 L116.963452,116.003111 L116.963452,113.698111 L119.843452,110.817111 L108.512452,110.817111 L111.393452,113.698111 L111.393452,117.923111 L106.784452,114.274111 C107.168452,113.890111 107.360452,113.314111 107.360452,112.930111 C107.360452,111.777111 106.399452,111.009111 105.439452,111.009111 C104.863452,111.009111 104.479452,111.201111 104.095452,111.393111 L104.095452,114.850111 L111.009452,120.420111 L107.744452,121.380111 C107.552452,120.612111 106.784452,120.036111 105.823452,120.036111 C104.671452,120.036111 103.903452,120.996111 103.903452,121.956111 C103.903452,122.341111 104.095452,122.917111 104.287452,123.301111 L108.320452,123.301111 L125.989452,117.731111 L125.989452,120.612111 L123.685452,121.380111 C123.493452,120.612111 122.724452,120.036111 121.764452,120.036111 C120.612452,120.036111 119.843452,120.996111 119.843452,121.956111 C119.843452,122.341111 120.036452,122.917111 120.228452,123.301111 L124.453452,123.301111 L128.870452,121.956111 L130.983452,121.188111 L129.254452,119.652111 L128.102452,118.499111 L135.976452,118.499111 L135.976452,120.612111 C135.592452,120.228111 135.016452,119.844111 134.440452,119.844111 C133.287452,119.844111 132.519452,120.804111 132.519452,121.764111 C132.519452,122.148111 132.711452,122.725111 132.903452,123.109111 L137.897452,123.109111 L137.897452,115.811111 L135.784452,115.811111 L135.784452,116.195111 Z M114.082452,116.387111 L112.161452,114.466111 L116.002452,114.466111 L114.082452,116.387111 Z M135.784452,102.367111 C135.976452,101.982111 135.976452,101.790111 135.976452,101.406111 C135.976452,100.062011 135.016452,99.101711 133.672452,99.101711 L125.029452,99.101711 C125.029452,98.141411 124.069452,97.181111 123.108452,97.181111 C122.532452,97.181111 122.148452,97.373211 121.764452,97.757311 L119.267452,100.254011 L133.672452,100.254011 C134.248452,100.254011 134.632452,100.638111 134.632452,101.214111 C134.632452,101.790111 134.248452,102.174111 133.672452,102.174111 L116.963452,102.174111 L116.963452,99.869911 L119.843452,96.989011 L108.512452,96.989011 L111.393452,99.869911 L111.393452,104.095111 L106.784452,100.446111 C107.168452,100.062011 107.360452,99.485811 107.360452,99.101711 C107.360452,97.949311 106.399452,97.181111 105.439452,97.181111 C104.863452,97.181111 104.479452,97.373211 104.095452,97.565211 L104.095452,101.022111 L111.009452,106.592111 L107.744452,107.552111 C107.552452,106.784111 106.784452,106.208111 105.823452,106.208111 C104.671452,106.208111 103.903452,107.168111 103.903452,108.128111 C103.903452,108.704111 104.095452,109.089111 104.287452,109.473111 L108.320452,109.473111 L125.989452,103.903111 L125.989452,106.784111 L123.685452,107.552111 C123.493452,106.784111 122.724452,106.208111 121.764452,106.208111 C120.612452,106.208111 119.843452,107.168111 119.843452,108.128111 C119.843452,108.704111 120.036452,109.089111 120.228452,109.473111 L124.261452,109.473111 L128.678452,108.128111 L130.791452,107.552111 L129.062452,106.016111 L127.910452,104.863111 L135.784452,104.863111 L135.784452,106.976111 C135.400452,106.592111 134.824452,106.208111 134.248452,106.208111 C133.095452,106.208111 132.327452,107.168111 132.327452,108.128111 C132.327452,108.704111 132.519452,109.089111 132.711452,109.473111 L137.705452,109.473111 L137.705452,102.174111 L135.784452,102.367111 Z M114.082452,102.751111 L112.161452,100.830111 L116.002452,100.830111 L114.082452,102.751111 Z M195.898452,137.513111 C197.243452,137.129111 197.819452,135.785111 197.435452,134.632111 C197.243452,134.056111 196.859452,133.480111 196.282452,133.288111 C195.706452,132.904111 195.130452,132.904111 194.554452,133.096111 C193.978452,133.288111 193.402452,133.672111 193.209452,134.248111 C192.825452,134.824111 192.825452,135.400111 193.017452,135.977111 C193.402452,137.129111 194.746452,137.705111 195.898452,137.513111 Z M189.176452,142.699111 L189.560452,144.811111 L197.243452,143.659111 C197.435452,143.659111 204.925452,147.500111 204.925452,147.500111 L204.541452,144.811111 L199.163452,142.122111 C199.547452,141.738111 203.581452,138.089111 203.581452,138.089111 L203.196452,135.400111 L203.004452,135.593111 C203.004452,135.593111 197.051452,141.162111 196.859452,141.354111 C196.859452,141.546111 189.176452,142.699111 189.176452,142.699111 L189.176452,142.699111 Z M195.130452,150.189111 C195.130452,150.765111 195.322452,151.341111 195.898452,151.917111 C196.282452,152.302111 196.859452,152.686111 197.627452,152.494111 C198.203452,152.494111 198.779452,152.302111 199.355452,151.725111 C199.739452,151.341111 199.931452,150.765111 199.931452,149.997111 C199.931452,149.421111 199.739452,148.844111 199.163452,148.268111 C198.779452,147.884111 198.203452,147.500111 197.435452,147.500111 C196.090452,147.692111 195.130452,148.844111 195.130452,150.189111 L195.130452,150.189111 Z M189.752452,154.030111 L189.560452,156.143111 C189.560452,156.143111 195.514452,156.911111 195.898452,157.103111 C195.898452,157.295111 195.706452,158.831111 195.706452,158.831111 L195.706452,159.792111 C195.706452,160.752111 195.898452,161.712111 196.474452,162.481111 C197.051452,163.249111 198.011452,163.825111 199.355452,164.017111 C202.044452,164.401111 203.965452,163.057111 204.349452,160.368111 L204.925452,156.143111 L189.752452,154.030111 Z M202.044452,157.871111 C202.044452,158.063111 201.852452,159.984111 201.852452,159.984111 C201.660452,161.904111 200.124452,161.904111 199.547452,161.712111 C198.395452,161.520111 197.627452,160.752111 197.627452,159.792111 L197.627452,159.408111 C197.627452,159.408111 197.819452,157.871111 197.819452,157.487111 C198.203452,157.295111 201.852452,157.679111 202.044452,157.871111 L202.044452,157.871111 Z M188.408452,162.673111 L185.911452,169.971111 L188.024452,170.739111 C188.024452,170.739111 189.752452,165.554111 189.752452,165.361111 C189.944452,165.554111 193.402452,166.514111 193.786452,166.706111 C193.594452,167.090111 192.057452,171.699111 192.057452,171.699111 L194.170452,172.468111 C194.170452,172.468111 195.706452,167.666111 195.898452,167.474111 C196.090452,167.666111 199.547452,168.626111 199.739452,168.818111 C199.547452,169.203111 198.011452,174.004111 198.011452,174.004111 L200.124452,174.772111 L202.620452,167.474111 L188.408452,162.673111 Z M185.527452,171.315111 L184.567452,172.852111 C184.567452,172.852111 193.017452,178.229111 193.786452,178.805111 C192.825452,178.805111 180.150452,179.958111 180.150452,179.958111 L179.189452,181.494111 L191.865452,189.561111 L193.017452,187.832111 C193.017452,187.832111 184.567452,182.455111 183.799452,181.878111 C184.759452,181.878111 197.627452,180.534111 197.627452,180.534111 L198.587452,178.998111 L185.527452,171.315111 Z M180.534452,189.369111 C178.997452,189.561111 177.653452,189.945111 176.693452,188.985111 C176.308452,188.600111 175.924452,187.448111 176.885452,186.488111 C177.845452,185.528111 179.189452,185.335111 180.726452,185.528111 L181.302452,185.528111 L178.997452,183.223111 C177.461452,183.415111 176.308452,183.799111 175.348452,184.951111 C174.580452,185.720111 174.196452,186.680111 174.196452,187.640111 C174.196452,188.792111 174.580452,189.753111 175.540452,190.713111 C177.461452,192.634111 179.573452,192.250111 181.494452,191.865111 C182.838452,191.481111 183.991452,191.289111 184.951452,192.057111 C185.143452,192.442111 185.335452,192.634111 185.335452,193.018111 C185.335452,193.594111 185.143452,193.978111 184.567452,194.554111 C183.799452,195.322111 182.838452,195.707111 181.494452,195.515111 L181.110452,195.515111 L183.222452,197.627111 C184.375452,197.435111 185.335452,197.051111 186.103452,196.283111 C187.064452,195.322111 187.448452,194.362111 187.448452,193.402111 C187.448452,192.442111 187.064452,191.289111 186.103452,190.521111 C184.375452,188.600111 182.262452,188.985111 180.534452,189.369111 L180.534452,189.369111 Z M171.315452,188.600111 L164.977452,192.826111 L166.129452,194.746111 C166.129452,194.746111 170.547452,191.673111 170.931452,191.481111 C171.123452,191.673111 173.043452,194.746111 173.235452,194.938111 C173.043452,195.130111 168.818452,198.011111 168.818452,198.011111 L169.970452,199.932111 C169.970452,199.932111 174.196452,197.051111 174.388452,197.051111 C174.580452,197.243111 176.500452,200.124111 176.693452,200.508111 C176.500452,200.700111 172.083452,203.581111 172.083452,203.581111 L173.235452,205.501111 L179.573452,201.276111 L171.315452,188.600111 Z M115.810452,198.587111 C115.618452,198.395111 110.049452,194.938111 109.856452,194.746111 C110.049452,194.554111 113.313452,189.369111 113.313452,189.369111 L111.393452,188.216111 L111.393452,188.408111 L103.519452,200.892111 L105.439452,202.044111 C105.439452,202.044111 108.704452,196.859111 108.896452,196.667111 C109.088452,196.859111 114.658452,200.316111 114.850452,200.508111 C114.658452,200.700111 111.393452,205.886111 111.393452,205.886111 L113.313452,207.038111 L121.380452,194.362111 L119.459452,193.210111 C119.267452,193.210111 116.002452,198.203111 115.810452,198.587111 Z M108.128452,187.448111 C108.320452,185.528111 107.552452,183.799111 106.399452,182.455111 C103.134452,178.805111 98.717552,179.574111 95.836652,182.070111 C94.108152,183.607111 93.147852,185.528111 93.147852,187.448111 C92.955852,189.369111 93.724052,191.097111 95.068452,192.634111 C97.757252,195.707111 102.366452,195.899111 105.631452,193.018111 C106.976452,191.481111 107.936452,189.561111 108.128452,187.448111 Z M105.823452,187.448111 C105.823452,188.792111 105.055452,190.329111 103.903452,191.289111 C101.598452,193.402111 98.525552,193.402111 96.604952,191.097111 C95.644652,190.137111 95.260552,188.792111 95.452552,187.640111 C95.452552,186.296111 96.220852,184.951111 97.373152,183.799111 C98.525552,182.839111 100.062452,182.263111 101.406452,182.263111 C102.750452,182.263111 103.903452,182.839111 104.671452,183.799111 C105.439452,184.951111 105.823452,186.104111 105.823452,187.448111 L105.823452,187.448111 Z M100.254452,174.964111 C100.254452,174.964111 91.035252,179.190111 90.267052,179.574111 C90.651152,178.805111 96.604952,167.090111 96.604952,167.090111 L95.836652,165.361111 L95.644652,165.361111 L82.200652,171.699111 L83.160852,173.620111 C83.160852,173.620111 92.379652,169.395111 93.147852,169.011111 C92.763752,169.779111 86.809952,181.494111 86.809952,181.494111 L87.578252,183.031111 L101.022452,176.693111 L100.254452,174.964111 Z M80.664152,164.977111 L81.240352,167.282111 L95.644652,163.633111 L95.260552,161.328111 L95.068452,161.520111 L80.664152,164.977111 Z M88.346452,156.527111 C87.770252,156.143111 87.194052,155.951111 86.617952,156.143111 C86.041752,156.143111 85.465552,156.527111 85.081452,157.103111 C84.697352,157.679111 84.505252,158.255111 84.697352,158.831111 C84.697352,159.408111 85.081452,159.984111 85.657652,160.368111 C86.233852,160.752111 86.809952,160.944111 87.386152,160.752111 C88.730552,160.560111 89.498752,159.408111 89.306752,158.063111 C89.114652,157.295111 88.730552,156.911111 88.346452,156.527111 Z M87.386152,150.765111 C88.346452,149.421111 89.114652,148.268111 90.459052,148.268111 C90.843152,148.268111 91.227352,148.460111 91.611452,148.845111 C91.995552,149.229111 92.187652,149.805111 92.187652,150.381111 C92.187652,151.533111 91.419352,152.686111 90.074952,153.646111 L89.690852,154.030111 L92.955852,154.030111 C93.916152,152.878111 94.300252,151.725111 94.300252,150.189111 C94.300252,149.229111 93.916152,148.268111 93.339952,147.500111 C92.571752,146.732111 91.419352,146.348111 90.267052,146.348111 C87.578252,146.348111 86.425852,148.076111 85.273552,149.805111 C84.505252,150.957111 83.929152,152.109111 82.776752,152.109111 C82.392652,152.109111 82.008552,151.917111 81.816452,151.725111 C81.432352,151.341111 81.240352,150.765111 81.240352,150.189111 C81.240352,149.229111 81.816452,148.076111 82.776752,147.308111 L83.160852,147.116111 L80.280052,147.116111 C79.511752,148.076111 79.127652,149.037111 79.127652,150.189111 C79.127652,151.533111 79.511752,152.494111 80.280052,153.262111 C81.048252,154.030111 82.008552,154.414111 83.160852,154.414111 C85.081452,154.030111 86.233852,152.302111 87.386152,150.765111 L87.386152,150.765111 Z M86.425852,144.427111 C88.538552,145.003111 90.651152,144.619111 92.379652,143.659111 C93.916152,142.699111 95.068452,141.162111 95.452552,139.242111 C95.836652,137.321111 95.644652,135.400111 94.684352,133.864111 C93.724052,132.135111 91.803452,130.791111 89.690852,130.407111 C85.465552,129.255111 81.432352,131.559111 80.472052,135.593111 C80.280052,136.169111 80.280052,136.745111 80.280052,137.321111 C80.280052,138.665111 80.664152,139.818111 81.240352,140.778111 C82.584752,142.699111 84.313252,144.043111 86.425852,144.427111 L86.425852,144.427111 Z M82.968852,136.169111 C83.352952,134.824111 84.121152,133.864111 85.081452,133.096111 C86.233852,132.328111 87.770252,132.135111 89.306752,132.520111 C90.843152,132.904111 92.187552,133.864111 92.763752,135.016111 C93.339952,136.169111 93.532052,137.321111 93.339952,138.665111 C92.571752,141.354111 89.882952,142.891111 86.809952,142.122111 C83.929152,141.546111 82.200652,139.050111 82.968852,136.169111" id="Shape" fill="#FFFFFF"></path>
            <path d="M210.879452,150.765111 C210.879452,132.327111 203.773452,115.042111 190.713452,101.982111 C189.176452,100.446111 187.640452,99.101511 185.911452,97.565111 L185.911452,94.876311 C188.600452,94.684211 190.905452,92.379511 190.905452,89.690711 C190.905452,86.809911 188.600452,84.505211 185.719452,84.505211 L185.335452,84.505211 L190.329452,82.200511 L188.408452,77.975211 L195.898452,60.498011 L192.633452,59.153611 L184.951452,77.014911 L180.918452,78.935511 L183.607452,84.697211 L100.254452,84.697211 L102.942452,78.935511 L98.717552,77.014911 L91.035252,59.153611 L87.770252,60.498011 L95.260552,77.975211 L93.339952,82.200511 L98.333452,84.505211 L98.141352,84.505211 C95.260552,84.505211 92.955852,86.809911 92.955852,89.690711 C92.955852,92.379511 95.068452,94.684211 97.757252,94.876311 L97.757252,97.565111 C96.220852,98.909511 94.492352,100.446111 92.955852,101.982111 C79.895952,115.042111 72.789752,132.327111 72.789752,150.765111 C72.789752,164.977111 77.015052,178.613111 85.273552,190.329111 C93.339952,201.660111 104.287452,210.303111 117.347452,215.104111 C117.347452,215.104111 118.115452,215.296111 119.267452,215.872111 C119.459452,217.793111 120.612452,219.522111 122.340452,220.098111 C124.261452,220.866111 126.373452,220.098111 127.526452,218.753111 L127.718452,218.753111 L127.718452,238.343111 C127.718452,245.641111 133.864452,251.403111 141.546452,251.403111 C149.228452,251.403111 155.374452,245.449111 155.374452,238.343111 L155.374452,225.283111 L189.176452,209.150111 C190.329452,208.766111 191.289452,208.190111 192.249452,207.422111 C194.938452,204.925111 195.322452,201.084111 193.594452,196.091111 C196.667452,192.634111 199.355452,188.984111 201.468452,184.951111 C207.614452,174.580111 210.879452,162.865111 210.879452,150.765111 Z M174.964452,87.770111 L184.951452,89.882811 L174.964452,91.995411 L174.964452,87.770111 Z M142.890452,192.634111 L142.890452,140.778111 L182.454452,140.778111 L182.454452,150.573111 C182.454452,160.176111 180.726452,166.706111 178.229452,171.507111 C176.116452,174.964111 173.620452,178.229111 170.547452,181.110111 L169.970452,181.686111 C162.672452,188.600111 152.877452,192.441111 142.890452,192.634111 L142.890452,192.634111 Z M154.798452,194.362111 C154.030452,196.091111 153.454452,198.011111 153.069452,200.124111 C149.228452,198.779111 145.579452,197.435111 141.930452,196.091111 C146.347452,196.283111 150.765452,195.514111 154.798452,194.362111 Z M142.890452,139.049111 L142.890452,95.068311 L182.454452,95.068311 L182.454452,139.049111 L142.890452,139.049111 Z M156.719452,87.770111 L166.706452,89.882811 L156.719452,91.995411 L156.719452,87.770111 Z M138.281452,87.770111 L148.268452,89.882811 L138.281452,91.995411 L138.281452,87.770111 Z M119.651452,87.770111 L129.638452,89.882811 L119.651452,91.995411 L119.651452,87.770111 Z M101.598452,87.770111 L111.585452,89.882811 L101.598452,91.995411 L101.598452,87.770111 Z M101.598452,129.639111 L101.598452,95.068311 L141.162452,95.068311 L141.162452,139.049111 L101.598452,139.049111 L101.598452,129.639111 Z M101.598452,140.778111 L141.162452,140.778111 L141.162452,192.634111 C133.095452,192.441111 125.221452,189.945111 118.499452,185.335111 C118.307452,185.143111 117.923452,184.951111 117.731452,184.759111 L117.539452,184.567111 C117.347452,184.375111 117.155452,184.375111 116.963452,184.183111 C116.771452,183.991111 116.578452,183.799111 116.386452,183.799111 L116.194452,183.607111 C111.969452,180.342111 108.320452,176.117111 105.631452,171.315111 C103.134452,166.514111 101.598452,159.984111 101.598452,150.573111 L101.598452,140.778111 Z M120.420452,212.607111 C119.843452,212.415111 119.267452,212.223111 118.883452,212.031111 C106.591452,207.422111 96.028752,199.163111 88.538552,188.408111 C80.856252,177.461111 76.630952,164.401111 76.630952,150.765111 C76.630952,133.288111 83.352952,116.963111 95.836752,104.479111 C96.604952,103.711111 97.373152,102.943111 98.141352,102.366111 L98.141352,120.228111 C95.452552,118.307111 92.379652,116.387111 92.187652,116.195111 C92.379652,116.003111 94.684352,112.353111 94.684352,112.353111 L92.763752,111.201111 L92.763752,111.393111 L86.617952,120.612111 L88.538552,121.764111 C88.538552,121.764111 90.843252,118.307111 91.035252,117.923111 C91.227352,118.115111 95.260552,120.612111 98.141352,122.725111 L98.141352,129.062111 L85.465552,123.301111 L85.465552,123.493111 L84.505352,125.413111 L98.141352,131.751111 L98.141352,139.434111 C97.181152,143.083111 96.604952,146.924111 96.604952,150.957111 C96.604952,159.215111 98.909652,166.898111 102.750452,173.620111 C105.247452,178.421111 108.512452,181.686111 111.585452,184.567111 C112.929452,185.719111 114.274452,186.872111 115.810452,188.024111 C116.002452,188.024111 116.002452,188.216111 116.194452,188.216111 C116.386452,188.408111 116.578452,188.408111 116.771452,188.600111 C116.963452,188.792111 117.155452,188.792111 117.347452,188.984111 L117.539452,189.176111 C118.691452,189.945111 119.843452,190.713111 121.188452,191.289111 C122.916452,192.057111 125.221452,193.210111 127.910452,194.362111 L125.029452,201.468111 L123.685452,200.892111 C122.916452,200.508111 121.956452,200.892111 121.572452,201.660111 C121.188452,202.428111 121.572452,203.389111 122.340452,203.773111 L123.685452,204.349111 L120.420452,212.607111 Z M152.301452,238.535111 C152.301452,239.880111 151.917452,241.224111 151.341452,242.376111 C150.765452,243.337111 149.804452,243.913111 148.844452,243.913111 C147.500452,243.913111 146.347452,243.145111 145.963452,241.800111 C145.963452,241.608111 145.771452,241.032111 145.579452,240.072111 C145.963452,240.264111 146.347452,240.264111 146.732452,240.264111 C148.460452,240.264111 149.804452,238.919111 149.804452,237.383111 C149.804452,235.654111 148.460452,234.502111 146.732452,234.502111 C145.771452,234.502111 145.003452,234.886111 144.427452,235.462111 C143.467452,231.621111 142.506452,227.396111 142.506452,227.396111 L141.162452,227.396111 C141.162452,227.396111 140.202452,231.621111 139.241452,235.462111 C138.665452,234.886111 137.897452,234.502111 137.129452,234.502111 C135.400452,234.502111 134.248452,235.846111 134.248452,237.383111 C134.248452,239.111111 135.592452,240.264111 137.129452,240.264111 C137.513452,240.264111 137.897452,240.264111 138.281452,240.072111 C138.089452,240.840111 137.897452,241.608111 137.897452,241.800111 C137.513452,242.953111 136.360452,243.913111 135.016452,243.913111 C133.864452,243.913111 132.903452,243.337111 132.327452,242.376111 C131.751452,241.224111 131.559452,239.880111 131.559452,238.535111 L131.559452,220.098111 C137.705452,222.018111 145.387452,224.323111 152.493452,225.859111 L152.301452,238.535111 Z M153.838452,222.402111 C143.082452,220.098111 130.599452,216.065111 123.300452,213.568111 C124.069452,211.839111 125.221452,208.766111 126.565452,205.501111 L128.486452,206.270111 L128.486452,206.654111 C128.486452,209.343111 130.791452,211.647111 133.480452,211.647111 C136.168452,211.647111 138.473452,209.343111 138.473452,206.654111 C138.473452,203.965111 136.168452,201.660111 133.480452,201.660111 C131.943452,201.660111 130.791452,202.236111 129.830452,203.389111 L127.718452,202.428111 C128.870452,199.548111 129.830452,196.859111 130.599452,195.322111 C137.897452,198.395111 147.308452,202.044111 156.334452,204.925111 C165.937452,207.806111 173.620452,209.535111 179.381452,210.111111 C169.202452,215.104111 154.606452,222.018111 153.838452,222.402111 L153.838452,222.402111 Z M190.137452,204.733111 C189.176452,205.693111 186.872452,206.654111 182.070452,206.654111 C185.335452,204.349111 188.216452,201.852111 190.905452,198.971111 C191.673452,201.660111 191.481452,203.581111 190.137452,204.733111 L190.137452,204.733111 Z M176.500452,206.270111 C171.891452,205.693111 165.553452,204.157111 157.295452,201.660111 C156.911452,201.468111 156.526452,201.468111 156.142452,201.276111 C156.911452,196.475111 158.447452,193.402111 161.136452,191.865111 C165.361452,189.945111 169.202452,187.256111 172.659452,183.991111 C175.732452,181.302111 178.805452,178.037111 181.110452,173.428111 C184.951452,166.706111 187.256452,158.831111 187.256452,150.573111 C187.256452,146.732111 186.680452,142.699111 185.719452,139.049111 L185.719452,131.751111 L187.832452,137.129111 L189.944452,136.361111 C189.944452,136.361111 187.832452,131.175111 187.832452,130.983111 C188.216452,130.791111 199.739452,126.182111 199.739452,126.182111 L198.971452,124.069111 L198.779452,124.069111 L185.911452,129.254111 L185.911452,128.294111 L194.554452,116.003111 L193.786452,114.658111 L193.594452,114.658111 L185.911452,116.387111 L185.911452,101.982111 C186.680452,102.751111 187.448452,103.327111 188.216452,104.095111 C200.508452,116.387111 207.422452,132.904111 207.422452,150.381111 C207.422452,161.712111 204.541452,173.044111 198.779452,182.839111 C193.402452,192.633111 185.719452,200.508111 176.500452,206.270111 L176.500452,206.270111 Z M186.680452,123.877111 L185.911452,125.029111 L185.911452,122.725111 L186.680452,123.877111 L186.680452,123.877111 Z M186.103452,118.883111 C186.487452,118.883111 190.329452,117.923111 190.905452,117.731111 C190.521452,118.307111 188.216452,121.572111 188.024452,121.764111 C187.832452,121.572111 186.295452,119.267111 186.103452,118.883111 Z" id="Shape" fill="#FFFFFF"></path>
            <path d="M193.402452,40.140011 C190.713452,36.106811 186.295452,34.378311 183.030452,34.378311 C178.421452,34.378311 173.620452,36.298811 169.010452,38.219411 C163.825452,40.332011 158.447452,42.444711 153.069452,42.060611 C153.646452,40.140011 154.414452,38.219411 155.374452,36.682911 L152.109452,35.146511 C152.685452,33.994111 153.262452,32.649711 153.454452,31.113311 C153.069452,30.921211 148.652452,29.384811 141.546452,29.384811 C134.440452,29.384811 130.407452,30.921211 130.023452,31.113311 C130.215452,32.649711 130.599452,33.994111 131.367452,35.146511 L128.102452,36.682911 C129.062452,38.219411 129.831452,40.140011 130.407452,42.060611 C125.029452,42.636711 119.651452,40.332011 114.466452,38.219411 C109.857452,36.298811 105.055452,34.378311 100.446452,34.378311 C97.181152,34.378311 92.763852,36.106811 90.075052,40.140011 C87.962352,43.405011 86.233852,49.550811 90.843252,59.345711 L90.843252,59.153711 L97.565252,56.272811 L97.949352,57.425211 C95.836752,58.385511 93.724152,60.882211 96.220852,66.643911 C101.982452,64.147211 102.174452,60.882211 101.214452,58.769611 L102.366452,58.385511 L105.247452,64.915411 L108.128452,71.445411 L106.976452,71.829511 C106.015452,69.716911 103.519452,67.604211 97.757352,70.101011 C100.254452,75.862711 104.671452,78.167411 108.128452,78.167411 C114.082452,78.167411 118.307452,74.518311 117.731452,70.869211 C117.347452,68.180411 114.850452,67.220111 113.890452,67.412211 C112.737452,67.604211 111.969452,68.948611 112.161452,69.716911 C112.161452,69.908911 112.353452,70.101011 112.353452,70.293011 L112.161452,70.485111 C110.625452,70.293011 109.280452,69.140711 108.896452,67.604211 C108.512452,65.683611 109.857452,63.763111 111.777452,63.379011 C112.929452,63.186911 114.082452,63.571011 115.042452,64.339211 L115.426452,63.763111 C114.274452,63.186911 113.506452,62.226611 113.314452,60.882211 C112.737452,57.809311 116.194452,54.736411 116.386452,54.736411 C116.386452,54.736411 120.804452,56.272811 121.380452,59.345711 C121.572452,60.690111 121.188452,61.842511 120.420452,62.802811 L120.996452,63.186911 C121.380452,62.226611 122.340452,61.266311 123.685452,61.074311 C125.605452,60.690111 127.526452,62.034511 127.910452,63.955111 C128.294452,65.491611 127.334452,67.220111 125.989452,67.796311 L125.797452,67.604211 L125.797452,67.028111 C125.605452,66.067811 124.453452,65.299511 123.301452,65.491611 C122.340452,65.683611 120.420452,67.412211 120.996452,70.101011 C121.956452,74.710411 125.797452,77.975311 130.407452,77.975311 C135.016452,77.975311 140.010452,74.134211 140.010452,68.372411 C133.288452,68.372411 131.751452,71.445411 131.751452,74.134211 L130.407452,74.134211 L130.407452,58.769611 L131.751452,58.769611 C131.751452,61.266311 133.480452,64.531311 140.010452,64.531311 C140.010452,57.809311 136.937452,56.272811 134.248452,56.272811 L134.248452,54.928411 L149.420452,54.928411 L149.420452,56.272811 C146.924452,56.272811 143.659452,58.001311 143.659452,64.531311 C150.381452,64.531311 151.917452,61.458411 151.917452,58.769611 L153.262452,58.769611 L153.262452,74.134211 L152.301452,74.134211 C152.301452,71.637411 150.573452,68.372411 144.043452,68.372411 C144.043452,74.134211 148.844452,77.975311 153.646452,77.975311 C158.255452,77.975311 162.288452,74.710411 163.056452,70.101011 C163.633452,67.412211 161.712452,65.491611 160.752452,65.491611 C159.599452,65.299511 158.447452,66.067811 158.255452,67.028111 L158.255452,67.604211 L158.063452,67.796311 C156.719452,67.028011 155.758452,65.491611 156.142452,63.955111 C156.527452,62.034511 158.447452,60.690111 160.368452,61.074311 C161.520452,61.266311 162.480452,62.034611 163.056452,63.186911 L163.633452,62.802811 C162.864452,61.842511 162.480452,60.690111 162.672452,59.345711 C163.249452,56.272811 167.666452,54.736411 167.666452,54.736411 C167.666452,54.736411 171.315452,57.809311 170.739452,60.882211 C170.547452,62.226611 169.586452,63.186911 168.626452,63.763111 L169.010452,64.339211 C169.778452,63.571011 170.931452,63.186911 172.275452,63.379011 C174.196452,63.763111 175.540452,65.683611 175.156452,67.604211 C174.772452,69.332711 173.428452,70.485111 171.891452,70.485111 L171.699452,70.293011 C171.891452,70.101011 171.891452,69.908911 171.891452,69.716911 C172.083452,68.756611 171.315452,67.604211 170.163452,67.412211 C169.202452,67.220111 166.706452,68.180411 166.321452,70.869211 C165.745452,74.518311 170.163452,78.167411 175.924452,78.167411 C179.381452,78.167411 183.799452,75.862711 186.295452,70.101011 C180.534452,67.604211 178.037452,69.716911 177.077452,71.829511 L175.924452,71.445411 L178.805452,64.915411 L181.686452,58.385511 L182.838452,58.769611 C181.878452,60.882211 182.070452,64.147211 187.832452,66.643911 C190.329452,60.882211 188.216452,58.385511 186.103452,57.425211 L186.487452,56.272811 L193.210452,59.153711 L193.210452,59.345711 C197.243452,49.358711 195.514452,43.405011 193.402452,40.140011 L193.402452,40.140011 Z M131.751452,48.590511 C128.486452,48.590511 125.797452,50.319011 124.261452,53.007811 C122.532452,49.934911 118.691452,48.014311 115.042452,48.782611 C112.353452,49.358711 110.049452,51.279311 109.088452,53.584011 C107.552452,51.087311 104.863452,49.550811 101.790452,49.550811 C97.949352,49.550811 94.684452,52.047611 93.532052,55.504611 C91.419452,49.934911 91.419452,45.325511 93.532052,42.060611 C95.644652,38.795611 99.293752,37.835311 100.830452,37.835311 C104.863452,37.835311 109.088452,39.563811 113.506452,41.292311 C119.267452,43.597011 125.221452,46.093811 131.751452,45.133511 C131.943452,46.285811 132.135452,47.246111 132.327452,48.398511 C132.135452,48.590511 131.943452,48.590511 131.751452,48.590511 L131.751452,48.590511 Z M141.930452,30.729211 C143.659452,30.729211 145.195452,32.073611 145.387452,33.802111 C144.427452,33.033811 143.275452,32.457711 141.930452,32.457711 C140.586452,32.457711 139.433452,33.033811 138.473452,33.802111 C138.665452,32.073611 140.202452,30.729211 141.930452,30.729211 Z M141.930452,33.994111 C143.659452,33.994111 145.195452,35.338511 145.387452,37.067111 C144.427452,36.298811 143.275452,35.722711 141.930452,35.722711 C140.586452,35.722711 139.433452,36.298811 138.473452,37.067111 C138.665452,35.338511 140.202452,33.994111 141.930452,33.994111 Z M141.930452,53.392011 C140.010452,53.392011 138.473452,51.855511 138.473452,49.934911 C138.473452,48.014311 140.010452,46.477911 141.930452,46.477911 C143.851452,46.477911 145.387452,48.014311 145.387452,49.934911 C145.387452,51.855511 143.851452,53.392011 141.930452,53.392011 Z M145.195452,45.901711 C144.235452,45.133511 143.082452,44.749411 141.930452,44.749411 C140.586452,44.749411 139.625452,45.133511 138.665452,45.901711 C138.473452,45.517611 138.473452,45.133511 138.473452,44.749411 C138.473452,42.828811 140.010452,41.292311 141.930452,41.292311 C143.851452,41.292311 145.387452,42.828811 145.387452,44.749411 C145.387452,45.133511 145.387452,45.517611 145.195452,45.901711 Z M145.387452,41.100311 C144.427452,40.332011 143.275452,39.755911 141.930452,39.755911 C140.586452,39.755911 139.433452,40.332011 138.473452,41.100311 L138.473452,40.908211 C138.473452,38.987611 140.010452,37.451211 141.930452,37.451211 C143.851452,37.451211 145.387452,38.987611 145.387452,40.908211 L145.387452,41.100311 Z M190.329452,55.504611 C189.176452,52.047611 185.911452,49.550811 182.070452,49.550811 C178.997452,49.550811 176.308452,51.087311 174.772452,53.584011 C173.620452,51.279311 171.507452,49.358711 168.818452,48.782611 C164.977452,48.014311 161.328452,49.742911 159.599452,53.007811 C158.063452,50.511111 155.374452,48.590511 152.109452,48.590511 L151.533452,48.590511 C151.725452,47.630211 151.917452,46.477911 152.109452,45.325511 C158.639452,46.285811 164.593452,43.789111 170.355452,41.484411 C174.772452,39.755911 178.997452,38.027311 183.030452,38.027311 C184.567452,38.027311 188.216452,38.987611 190.329452,42.252611 C192.441452,45.325511 192.441452,49.934911 190.329452,55.504611 Z M161.136452,97.565211 L161.904452,99.101711 L162.672452,99.101711 L162.480452,99.677811 L162.672452,99.293711 L162.864452,99.293711 L163.056452,99.101711 L163.825452,97.565211 L162.480452,97.565211 L161.136452,97.565211 Z M146.540452,98.909611 L146.347452,99.101711 L146.347452,99.677811 L145.003452,99.485811 L145.003452,98.525511 L144.043452,96.797011 L144.235452,96.604911 L145.963452,97.565211 L146.924452,97.565211 L146.924452,98.909611 L146.540452,98.717611" id="Shape" fill="#FFFFFF"></path>
            <path d="M147.500452,98.525511 C147.308452,98.525511 147.116452,98.333511 147.116452,98.141411 C147.116452,97.949411 147.308452,97.757311 147.500452,97.757311 C147.692452,97.757311 147.692452,97.757311 147.884452,97.949411 L148.076452,97.949411 L148.076452,97.565311 C148.076452,96.989111 147.692452,96.605011 147.116452,96.605011 C146.539452,96.605011 146.155452,96.989111 146.155452,97.565311 C146.155452,98.141411 146.539452,98.525511 147.116452,98.525511 L147.500452,98.525511 L147.500452,98.525511 Z M145.963452,100.062011 C145.963452,99.869911 145.771452,99.677911 145.579452,99.677911 C145.387452,99.677911 145.195452,99.869911 145.195452,100.062011 C145.195452,100.254111 145.195452,100.254111 145.387452,100.446111 L145.387452,100.638111 L145.003452,100.638111 C144.427452,100.638111 144.043452,100.254111 144.043452,99.677911 C144.043452,99.101711 144.427452,98.717611 145.003452,98.717611 C145.579452,98.717611 145.963452,99.101711 145.963452,99.677911 L145.963452,100.062011 L145.963452,100.062011 Z M146.539452,135.593111 L146.347452,135.401111 L146.347452,134.824111 L145.003452,135.016111 L145.003452,135.785111 L144.043452,137.513111 L144.235452,137.897111 L145.963452,136.745111 L146.924452,136.745111 L146.924452,135.401111 L146.539452,135.593111" id="Shape" fill="#FFFFFF"></path>
            <path d="M147.500452,135.784111 C147.308452,135.784111 147.116452,135.977111 147.116452,136.169111 C147.116452,136.361111 147.308452,136.553111 147.500452,136.553111 C147.692452,136.553111 147.692452,136.553111 147.884452,136.361111 L148.076452,136.361111 L148.076452,136.745111 C148.076452,137.321111 147.692452,137.705111 147.116452,137.705111 C146.539452,137.705111 146.155452,137.321111 146.155452,136.745111 C146.155452,136.169111 146.539452,135.784111 147.116452,135.784111 L147.500452,135.784111 L147.500452,135.784111 Z M145.963452,134.440111 C145.963452,134.632111 145.771452,134.824111 145.579452,134.824111 C145.387452,134.824111 145.195452,134.632111 145.195452,134.440111 C145.195452,134.248111 145.195452,134.248111 145.387452,134.056111 L145.387452,133.864111 L145.003452,133.864111 C144.427452,133.864111 144.043452,134.248111 144.043452,134.824111 C144.043452,135.400111 144.427452,135.784111 145.003452,135.784111 C145.579452,135.784111 145.963452,135.400111 145.963452,134.824111 L145.963452,134.440111 L145.963452,134.440111 Z M178.421452,135.592111 L178.613452,135.400111 L178.613452,134.824111 L179.957452,135.016111 L179.957452,135.784111 L180.918452,137.513111 L180.726452,137.897111 L178.997452,136.745111 L178.037452,136.745111 L178.037452,135.400111 L178.421452,135.592111" id="Shape" fill="#FFFFFF"></path>
            <path d="M177.461452,135.785111 C177.653452,135.785111 177.845452,135.977111 177.845452,136.169111 C177.845452,136.361111 177.653452,136.553111 177.461452,136.553111 C177.269452,136.553111 177.269452,136.553111 177.077452,136.361111 L176.885452,136.361111 L176.885452,136.745111 C176.885452,137.321111 177.269452,137.705111 177.845452,137.705111 C178.421452,137.705111 178.805452,137.321111 178.805452,136.745111 C178.805452,136.169111 178.421452,135.785111 177.845452,135.785111 L177.461452,135.785111 L177.461452,135.785111 Z M178.997452,134.440111 C178.997452,134.632111 179.189452,134.824111 179.381452,134.824111 C179.573452,134.824111 179.766452,134.632111 179.766452,134.440111 C179.766452,134.248111 179.766452,134.248111 179.573452,134.056111 L179.573452,133.864111 L179.958452,133.864111 C180.534452,133.864111 180.918452,134.248111 180.918452,134.824111 C180.918452,135.401111 180.534452,135.785111 179.958452,135.785111 C179.381452,135.785111 178.997452,135.401111 178.997452,134.824111 L178.997452,134.440111 L178.997452,134.440111 Z M178.421452,98.909711 L178.613452,99.101711 L178.613452,99.677911 L179.958452,99.485811 L179.958452,98.525511 L180.918452,96.797011 L180.726452,96.605011 L178.997452,97.565311 L178.037452,97.565311 L178.037452,98.909711 L178.421452,98.717611" id="Shape" fill="#FFFFFF"></path>
            <path d="M177.461452,98.525511 C177.653452,98.525511 177.845452,98.333511 177.845452,98.141411 C177.845452,97.949411 177.653452,97.757311 177.461452,97.757311 C177.269452,97.757311 177.269452,97.757311 177.077452,97.949411 L176.885452,97.949411 L176.885452,97.565311 C176.885452,96.989111 177.269452,96.605011 177.845452,96.605011 C178.421452,96.605011 178.805452,96.989111 178.805452,97.565311 C178.805452,98.141411 178.421452,98.525511 177.845452,98.525511 L177.461452,98.525511 L177.461452,98.525511 Z M178.997452,100.062011 C178.997452,99.869911 179.189452,99.677911 179.381452,99.677911 C179.573452,99.677911 179.765452,99.869911 179.765452,100.062011 C179.765452,100.254111 179.765452,100.254111 179.573452,100.446111 L179.573452,100.638111 L179.957452,100.638111 C180.534452,100.638111 180.918452,100.254111 180.918452,99.677911 C180.918452,99.101711 180.534452,98.717611 179.957452,98.717611 C179.381452,98.717611 178.997452,99.101711 178.997452,99.677911 L178.997452,100.062011 Z M160.944452,101.214111 L163.825452,101.214111 L163.825452,102.367111 L160.944452,102.367111 L160.944452,101.214111 Z M161.712452,102.559111 L163.248452,102.559111 L162.672452,103.711111 L162.288452,103.711111 L161.712452,102.559111 Z" id="Shape" fill="#FFFFFF"></path>
            <path d="M164.593452,102.367111 L164.401452,102.559111 C164.209452,102.559111 164.017452,102.367111 164.017452,102.175111 C164.017452,101.982111 164.209452,101.790111 164.401452,101.790111 L164.017452,101.790111 C163.633452,101.790111 163.249452,102.175111 163.249452,102.559111 C163.249452,102.943111 163.633452,103.327111 164.017452,103.327111 C164.401452,103.327111 164.785452,102.943111 164.785452,102.559111 C164.593452,102.559111 164.593452,102.559111 164.593452,102.367111 L164.593452,102.367111 Z M160.368452,102.367111 L160.560452,102.559111 C160.752452,102.559111 160.944452,102.367111 160.944452,102.175111 C160.944452,101.982111 160.752452,101.790111 160.560452,101.790111 L160.944452,101.790111 C161.328452,101.790111 161.712452,102.175111 161.712452,102.559111 C161.712452,102.943111 161.328452,103.327111 160.944452,103.327111 C160.560452,103.327111 160.176452,102.943111 160.176452,102.559111 C160.368452,102.559111 160.368452,102.559111 160.368452,102.367111 L160.368452,102.367111 Z M163.825452,136.937111 L163.057452,135.400111 L162.480452,135.208111 L162.288452,135.208111 L162.672452,134.824111 L162.288452,135.208111 L162.096452,135.208111 L161.904452,135.400111 L161.136452,136.937111 L162.480452,136.937111 L163.825452,136.937111 Z M161.136452,131.751111 L164.017452,131.751111 L164.017452,132.904111 L161.136452,132.904111 L161.136452,131.751111 Z" id="Shape" fill="#FFFFFF"></path>
            <path d="M163.249452,131.943111 L161.712452,131.943111 L162.288452,130.599111 L162.672452,130.599111 L163.249452,131.943111 Z M160.368452,132.135111 L160.560452,131.943111 C160.752452,131.943111 160.944452,132.135111 160.944452,132.327111 C160.944452,132.519111 160.752452,132.712111 160.560452,132.712111 L160.944452,132.712111 C161.328452,132.712111 161.712452,132.327111 161.712452,131.943111 C161.712452,131.559111 161.328452,131.175111 160.944452,131.175111 C160.560452,131.175111 160.176452,131.559111 160.176452,131.943111 C160.368452,131.943111 160.368452,131.943111 160.368452,132.135111 L160.368452,132.135111 Z M164.593452,132.135111 L164.401452,131.943111 C164.209452,131.943111 164.017452,132.135111 164.017452,132.327111 C164.017452,132.519111 164.209452,132.712111 164.401452,132.712111 L164.017452,132.712111 C163.633452,132.712111 163.249452,132.327111 163.249452,131.943111 C163.249452,131.559111 163.633452,131.175111 164.017452,131.175111 C164.401452,131.175111 164.785452,131.559111 164.785452,131.943111 C164.593452,131.943111 164.593452,131.943111 164.593452,132.135111 L164.593452,132.135111 Z M179.958452,115.810111 L178.421452,116.579111 L178.421452,117.347111 L178.037452,117.155111 L178.421452,117.539111 L178.229452,117.539111 L178.421452,117.731111 L179.958452,118.499111 L179.958452,117.155111 L179.958452,115.810111 Z M174.964452,115.810111 L176.116452,115.810111 L176.116452,118.691111 L174.964452,118.691111 L174.964452,115.810111 Z M174.964452,116.387111 L174.964452,117.923111 L173.812452,117.347111 L173.812452,116.963111 L174.964452,116.387111 Z M175.732452,119.075111 L175.732452,118.883111 L175.732452,119.075111 Z" id="Shape" fill="#FFFFFF"></path>
            <path d="M175.348452,119.268111 L175.156452,119.076111 C175.156452,118.884111 175.348452,118.691111 175.540452,118.691111 C175.732452,118.691111 175.924452,118.884111 175.924452,119.076111 L175.924452,118.691111 C175.924452,118.307111 175.540452,117.923111 175.156452,117.923111 C174.772452,117.923111 174.388452,118.307111 174.388452,118.691111 C174.388452,119.076111 174.772452,119.460111 175.156452,119.460111 L175.348452,119.268111 L175.348452,119.268111 Z M175.348452,115.234111 L175.156452,115.426111 C175.156452,115.619111 175.348452,115.811111 175.540452,115.811111 C175.732452,115.811111 175.924452,115.619111 175.924452,115.426111 L175.924452,115.811111 C175.924452,116.195111 175.540452,116.579111 175.156452,116.579111 C174.772452,116.579111 174.388452,116.195111 174.388452,115.811111 C174.388452,115.426111 174.772452,115.042111 175.156452,115.042111 L175.348452,115.234111 L175.348452,115.234111 Z M145.003452,115.811111 L146.540452,116.579111 L146.540452,117.347111 L146.924452,117.155111 L146.540452,117.539111 L146.732452,117.539111 L146.540452,117.731111 L145.003452,118.499111 L145.003452,117.155111 L145.003452,115.811111 Z M148.652452,115.811111 L149.805452,115.811111 L149.805452,118.691111 L148.652452,118.691111 L148.652452,115.811111 Z M149.997452,116.387111 L149.997452,117.923111 L151.149452,117.347111 L151.149452,116.963111 L149.997452,116.387111 Z M149.228452,119.076111 L149.228452,118.884111 L149.228452,119.076111 Z" id="Shape" fill="#FFFFFF"></path>
            <path d="M149.804452,119.268111 L149.997452,119.076111 C149.997452,118.884111 149.804452,118.691111 149.612452,118.691111 C149.420452,118.691111 149.228452,118.884111 149.228452,119.076111 L149.228452,118.691111 C149.228452,118.307111 149.612452,117.923111 149.997452,117.923111 C150.381452,117.923111 150.765452,118.307111 150.765452,118.691111 C150.765452,119.076111 150.381452,119.460111 149.997452,119.460111 C149.997452,119.460111 149.804452,119.460111 149.804452,119.268111 L149.804452,119.268111 Z M149.804452,115.234111 L149.997452,115.426111 C149.997452,115.619111 149.804452,115.811111 149.612452,115.811111 C149.420452,115.811111 149.228452,115.619111 149.228452,115.426111 L149.228452,115.811111 C149.228452,116.195111 149.612452,116.579111 149.997452,116.579111 C150.381452,116.579111 150.765452,116.195111 150.765452,115.811111 C150.765452,115.426111 150.381452,115.042111 149.997452,115.042111 C149.997452,115.042111 149.804452,115.042111 149.804452,115.234111 L149.804452,115.234111 Z M93.916152,280.020111 L93.916152,328.226111 L153.069452,328.226111 L153.069452,280.020111 L168.050452,280.020111 L168.050452,392.181111 L153.069452,392.181111 L153.069452,340.902111 L93.916152,340.902111 L93.916152,392.181111 L78.935652,392.181111 L78.935652,280.020111 L93.916152,280.020111 Z M186.487452,334.948111 C188.216452,329.763111 190.713452,325.345111 193.978452,321.504111 C197.243452,317.663111 201.468452,314.590111 206.461452,312.478111 C211.455452,310.365111 217.025452,309.213111 223.363452,309.213111 C229.893452,309.213111 235.462452,310.365111 240.456452,312.478111 C245.257452,314.590111 249.482452,317.663111 252.747452,321.504111 C256.012452,325.345111 258.701452,329.763111 260.238452,334.948111 C261.966452,340.134111 262.734452,345.704111 262.734452,351.657111 C262.734452,357.611111 261.966452,363.181111 260.238452,368.366111 C258.509452,373.552111 256.012452,377.969111 252.747452,381.810111 C249.482452,385.652111 245.257452,388.532111 240.456452,390.837111 C235.654452,392.950111 229.893452,394.102111 223.363452,394.102111 C217.025452,394.102111 211.263452,392.950111 206.461452,390.837111 C201.468452,388.724111 197.435452,385.652111 193.978452,381.810111 C190.713452,377.969111 188.024452,373.552111 186.487452,368.366111 C184.759452,363.181111 183.991452,357.611111 183.991452,351.657111 C183.991452,345.704111 184.759452,340.134111 186.487452,334.948111 L186.487452,334.948111 Z M200.124452,364.717111 C201.468452,368.558111 203.197452,371.823111 205.501452,374.320111 C207.806452,376.817111 210.495452,378.930111 213.568452,380.274111 C216.641452,381.618111 219.906452,382.387111 223.363452,382.387111 C226.820452,382.387111 230.085452,381.618111 233.157452,380.274111 C236.230452,378.930111 238.919452,377.009111 241.224452,374.320111 C243.529452,371.823111 245.257452,368.558111 246.602452,364.717111 C247.946452,360.876111 248.522452,356.459111 248.522452,351.657111 C248.522452,346.664111 247.946452,342.439111 246.602452,338.597111 C245.257452,334.756111 243.529452,331.491111 241.224452,328.995111 C238.919452,326.306111 236.230452,324.385111 233.157452,323.041111 C230.085452,321.696111 226.820452,320.928111 223.363452,320.928111 C219.906452,320.928111 216.641452,321.696111 213.568452,323.041111 C210.495452,324.385111 207.806452,326.306111 205.501452,328.995111 C203.197452,331.683111 201.468452,334.756111 200.124452,338.597111 C198.779452,342.439111 198.203452,346.856111 198.203452,351.657111 C198.203452,356.459111 198.779452,360.876111 200.124452,364.717111 Z M289.238452,310.941111 L289.238452,322.849111 L289.622452,322.849111 C295.768452,313.630111 304.411452,309.021111 315.934452,309.021111 C320.928452,309.021111 325.537452,309.981111 329.570452,312.093111 C333.604452,314.206111 336.484452,317.663111 338.213452,322.849111 C340.902452,318.431111 344.551452,314.974111 348.968452,312.670111 C353.386452,310.173111 358.379452,309.021111 363.565452,309.021111 C367.598452,309.021111 371.247452,309.405111 374.704452,310.365111 C377.969452,311.325111 380.850452,312.670111 383.154452,314.590111 C385.459452,316.511111 387.380452,318.816111 388.724452,321.888111 C390.069452,324.961111 390.645452,328.418111 390.645452,332.644111 L390.645452,392.181111 L377.201452,392.181111 L377.201452,338.982111 C377.201452,336.485111 377.009452,334.180111 376.625452,331.875111 C376.240452,329.763111 375.472452,327.842111 374.320452,326.114111 C373.167452,324.577111 371.631452,323.233111 369.518452,322.273111 C367.406452,321.312111 364.909452,320.928111 361.644452,320.928111 C355.114452,320.928111 349.929452,322.849111 346.087452,326.498111 C342.246452,330.147111 340.518452,335.332111 340.518452,341.670111 L340.518452,392.181111 L327.074452,392.181111 L327.074452,338.982111 C327.074452,336.293111 326.882452,333.988111 326.305452,331.683111 C325.921452,329.571111 324.961452,327.650111 323.809452,325.922111 C322.656452,324.385111 321.120452,323.041111 319.199452,322.080111 C317.279452,321.120111 314.782452,320.736111 311.709452,320.736111 C307.868452,320.736111 304.603452,321.504111 301.722452,323.041111 C299.033452,324.577111 296.729452,326.498111 295.000452,328.610111 C293.272452,330.723111 291.927452,333.028111 291.159452,335.524111 C290.391452,337.829111 290.007452,339.750111 290.007452,341.478111 L290.007452,391.989111 L276.563452,391.989111 L276.563452,310.941111 L289.238452,310.941111 Z M466.315452,386.996111 C460.170452,391.605111 452.679452,393.910111 443.461452,393.910111 C436.931452,393.910111 431.361452,392.950111 426.560452,390.837111 C421.758452,388.724111 417.725452,385.844111 414.460452,382.002111 C411.195452,378.161111 408.698452,373.744111 407.162452,368.558111 C405.625452,363.373111 404.665452,357.611111 404.473452,351.465111 C404.473452,345.319111 405.433452,339.558111 407.354452,334.564111 C409.274452,329.379111 411.963452,324.961111 415.228452,321.120111 C418.685452,317.279111 422.718452,314.398111 427.328452,312.286111 C431.937452,310.173111 437.123452,309.213111 442.692452,309.213111 C449.991452,309.213111 455.944452,310.749111 460.746452,313.630111 C465.547452,316.703111 469.388452,320.352111 472.269452,324.961111 C475.150452,329.571111 477.071452,334.564111 478.223452,340.134111 C479.375452,345.512111 479.759452,350.697111 479.567452,355.691111 L418.685452,355.691111 C418.493452,359.340111 419.069452,362.605111 420.030452,365.870111 C420.990452,369.135111 422.526452,371.823111 424.639452,374.320111 C426.752452,376.817111 429.440452,378.737111 432.705452,380.274111 C435.970452,381.810111 439.812452,382.387111 444.229452,382.387111 C449.799452,382.387111 454.600452,381.042111 458.057452,378.545111 C461.706452,375.857111 464.011452,372.015111 465.163452,366.638111 L478.415452,366.638111 C476.302452,375.472111 472.269452,382.387111 466.315452,386.996111 L466.315452,386.996111 Z M463.050452,334.756111 C461.898452,331.875111 460.170452,329.571111 458.249452,327.458111 C456.136452,325.345111 453.832452,323.809111 450.951452,322.657111 C448.262452,321.504111 445.189452,320.928111 441.732452,320.928111 C438.275452,320.928111 435.202452,321.504111 432.321452,322.657111 C429.632452,323.809111 427.136452,325.538111 425.215452,327.650111 C423.295452,329.763111 421.566452,332.260111 420.414452,334.948111 C419.261452,337.637111 418.493452,340.710111 418.301452,343.783111 L464.971452,343.783111 C464.971452,340.710111 464.203452,337.637111 463.050452,334.756111 Z M532.383452,314.014111 C534.688452,306.908111 537.953452,300.762111 542.562452,295.192111 C546.980452,289.815111 552.741452,285.397111 559.463452,282.132111 C566.185452,278.867111 574.060452,277.331111 582.894452,277.331111 C591.729452,277.331111 599.603452,278.867111 606.325452,282.132111 C613.047452,285.397111 618.617452,289.815111 623.227452,295.192111 C627.644452,300.570111 631.101452,306.908111 633.406452,314.014111 C635.710452,321.120111 636.863452,328.418111 636.863452,336.101111 C636.863452,343.783111 635.710452,351.081111 633.406452,358.187111 C631.101452,365.293111 627.836452,371.439111 623.227452,377.009111 C618.809452,382.387111 613.047452,386.804111 606.325452,389.877111 C599.603452,393.142111 591.729452,394.678111 582.894452,394.678111 C574.060452,394.678111 566.185452,393.142111 559.463452,389.877111 C552.741452,386.612111 547.172452,382.387111 542.562452,377.009111 C538.145452,371.631111 534.688452,365.293111 532.383452,358.187111 C530.079452,351.081111 528.926452,343.783111 528.926452,336.101111 C528.926452,328.418111 530.079452,321.120111 532.383452,314.014111 Z M546.019452,352.810111 C547.556452,358.379111 549.860452,363.181111 552.933452,367.598111 C556.006452,372.015111 560.040452,375.472111 565.033452,378.161111 C570.027452,380.850111 575.788452,382.195111 582.702452,382.195111 C589.424452,382.195111 595.378452,380.850111 600.372452,378.161111 C605.365452,375.472111 609.398452,372.015111 612.471452,367.598111 C615.544452,363.181111 617.849452,358.187111 619.385452,352.810111 C620.922452,347.240111 621.498452,341.670111 621.498452,336.101111 C621.498452,330.531111 620.730452,324.961111 619.385452,319.392111 C617.849452,313.822111 615.544452,309.021111 612.471452,304.603111 C609.398452,300.186111 605.365452,296.729111 600.372452,294.040111 C595.378452,291.351111 589.616452,290.007111 582.702452,290.007111 C575.980452,290.007111 570.027452,291.351111 565.033452,294.040111 C560.040452,296.729111 556.006452,300.186111 552.933452,304.603111 C549.860452,309.021111 547.556452,314.014111 546.019452,319.392111 C544.483452,324.961111 543.907452,330.531111 543.907452,336.101111 C543.907452,341.670111 544.675452,347.240111 546.019452,352.810111 Z M642.432452,322.657111 L642.432452,310.941111 L656.068452,310.941111 L656.068452,298.842111 C656.068452,292.312111 657.989452,287.318111 661.830452,283.861111 C665.671452,280.404111 671.241452,278.675111 678.539452,278.675111 C679.883452,278.675111 681.228452,278.868111 682.764452,279.060111 C684.301452,279.252111 685.837452,279.636111 686.990452,280.020111 L686.990452,291.735111 C685.837452,291.351111 684.493452,290.967111 683.149452,290.967111 C681.804452,290.775111 680.460452,290.775111 679.307452,290.775111 C676.042452,290.775111 673.546452,291.351111 671.817452,292.696111 C670.089452,294.040111 669.128452,296.345111 669.128452,299.994111 L669.128452,311.325111 L684.877452,311.325111 L684.877452,323.041111 L669.128452,323.041111 L669.128452,392.566111 L655.684452,392.566111 L655.684452,323.041111 L642.432452,323.041111 L642.432452,322.657111 Z" id="Shape" fill="#FFFFFF"></path>
            <path d="M684.109452,322.657111 L684.109452,310.941111 L697.745452,310.941111 L697.745452,298.841111 C697.745452,292.312111 699.665452,287.318111 703.507452,283.861111 C707.348452,280.404111 712.917452,278.675111 720.216452,278.675111 C721.560452,278.675111 722.904452,278.867111 724.441452,279.060111 C725.977452,279.252111 727.514452,279.636111 728.666452,280.020111 L728.666452,291.735111 C727.514452,291.351111 726.169452,290.967111 724.825452,290.967111 C723.481452,290.775111 722.136452,290.775111 720.984452,290.775111 C717.719452,290.775111 715.222452,291.351111 713.494452,292.696111 C711.765452,294.040111 710.805452,296.345111 710.805452,299.994111 L710.805452,311.325111 L726.553452,311.325111 L726.553452,323.041111 L711.189452,323.041111 L711.189452,392.566111 L697.745452,392.566111 L697.745452,323.041111 L684.109452,323.041111 L684.109452,322.657111 Z M737.693452,296.345111 L737.693452,280.020111 L751.137452,280.020111 L751.137452,296.345111 L737.693452,296.345111 Z M751.137452,310.941111 L751.137452,392.181111 L737.693452,392.181111 L737.693452,310.941111 L751.137452,310.941111 Z M818.357452,325.153111 C815.092452,322.272111 810.483452,320.928111 804.913452,320.928111 C800.112452,320.928111 796.078452,321.888111 792.813452,323.617111 C789.548452,325.345111 787.052452,327.842111 785.131452,330.723111 C783.210452,333.604111 781.866452,337.061111 780.906452,340.902111 C780.138452,344.743111 779.561452,348.584111 779.561452,352.810111 C779.561452,356.651111 779.946452,360.300111 780.906452,363.757111 C781.866452,367.406111 783.210452,370.479111 785.131452,373.168111 C787.052452,375.857111 789.548452,378.161111 792.429452,379.890111 C795.502452,381.618111 799.151452,382.387111 803.185452,382.387111 C809.714452,382.387111 814.900452,380.658111 818.741452,377.201111 C822.390452,373.744111 824.695452,368.943111 825.655452,362.605111 L839.291452,362.605111 C837.755452,372.592111 834.106452,380.466111 828.152452,385.844111 C822.198452,391.221111 813.940452,394.102111 803.569452,394.102111 C797.423452,394.102111 791.853452,393.142111 787.244452,391.029111 C782.442452,389.109111 778.409452,386.228111 775.336452,382.579111 C772.071452,378.929111 769.766452,374.512111 768.038452,369.519111 C766.501452,364.525111 765.541452,358.955111 765.541452,352.810111 C765.541452,346.664111 766.309452,341.094111 767.846452,335.717111 C769.382452,330.339111 771.879452,325.730111 774.952452,321.888111 C778.217452,318.047111 782.058452,314.782111 787.052452,312.670111 C791.853452,310.365111 797.423452,309.213111 803.953452,309.213111 C808.562452,309.213111 812.787452,309.789111 816.821452,310.941111 C820.854452,312.093111 824.503452,313.822111 827.576452,316.127111 C830.649452,318.431111 833.145452,321.312111 835.258452,324.769111 C837.179452,328.226111 838.523452,332.452111 839.099452,337.253111 L825.271452,337.253111 C823.927452,331.875111 821.814452,327.842111 818.357452,325.153111 L818.357452,325.153111 Z M909.777452,386.996111 C903.631452,391.605111 896.140452,393.910111 886.922452,393.910111 C880.392452,393.910111 874.822452,392.950111 870.021452,390.837111 C865.219452,388.724111 861.186452,385.844111 857.921452,382.002111 C854.656452,378.161111 852.159452,373.744111 850.623452,368.558111 C849.086452,363.373111 848.126452,357.611111 847.934452,351.465111 C847.934452,345.319111 848.894452,339.558111 850.815452,334.564111 C852.735452,329.379111 855.424452,324.961111 858.689452,321.120111 C862.146452,317.279111 866.179452,314.398111 870.789452,312.286111 C875.398452,310.173111 880.584452,309.213111 886.153452,309.213111 C893.452452,309.213111 899.405452,310.749111 904.207452,313.630111 C909.008452,316.703111 912.849452,320.352111 915.730452,324.961111 C918.611452,329.571111 920.532452,334.564111 921.684452,340.134111 C922.836452,345.511111 923.221452,350.697111 923.028452,355.691111 L862.146452,355.691111 C861.954452,359.340111 862.530452,362.605111 863.491452,365.870111 C864.451452,369.135111 865.987452,371.823111 868.100452,374.320111 C870.213452,376.817111 872.901452,378.737111 876.166452,380.274111 C879.431452,381.810111 883.273452,382.387111 887.690452,382.387111 C893.260452,382.387111 898.061452,381.042111 901.518452,378.545111 C905.167452,375.857111 907.472452,372.015111 908.624452,366.638111 L921.876452,366.638111 C919.763452,375.472111 915.922452,382.387111 909.777452,386.996111 L909.777452,386.996111 Z M906.704452,334.756111 C905.551452,331.875111 903.823452,329.571111 901.902452,327.458111 C899.789452,325.345111 897.485452,323.809111 894.604452,322.657111 C891.915452,321.504111 888.842452,320.928111 885.385452,320.928111 C881.928452,320.928111 878.855452,321.504111 875.974452,322.657111 C873.286452,323.809111 870.789452,325.537111 868.868452,327.650111 C866.948452,329.763111 865.219452,332.259111 864.067452,334.948111 C862.914452,337.637111 862.146452,340.710111 861.954452,343.783111 L908.624452,343.783111 C908.624452,340.710111 907.856452,337.637111 906.704452,334.756111 Z" id="Shape" fill="#FFFFFF"></path>
        </g>
    </g>
</svg>