<?xml version="1.0" encoding="UTF-8"?>
<!-- Generator: Adobe Illustrator 18.0.0, SVG Export Plug-In . SVG Version: 6.00 Build 0)  -->
<!DOCTYPE svg PUBLIC "-//W3C//DTD SVG 1.1//EN" "http://www.w3.org/Graphics/SVG/1.1/DTD/svg11.dtd">
<svg version="1.1" id="Layer_1" xmlns="http://www.w3.org/2000/svg" xmlns:xlink="http://www.w3.org/1999/xlink" x="0px" y="0px" viewBox="0 0 450.8 166.2" enable-background="new 0 0 450.8 166.2" xml:space="preserve">
<path d="M376.9,103c-0.6,1.8-1.8,2.6-3.8,2.6h-17.1c-1.5,0-2.1-0.8-2.1-1.8c0-0.5,0.2-0.9,0.3-1.5l35.7-98.8  c0.5-1.8,1.7-2.5,3.7-2.5h18.2c2,0,3.2,0.6,3.7,2.5l35.2,98.8c0.1,0.6,0.3,1.1,0.3,1.5c0,1.1-0.6,1.8-2.1,1.8h-17.6  c-2.1,0-3.4-0.8-3.8-2.6L421,84.5h-37.8L376.9,103z M402.3,27.7l-13.6,39.2h26.9L402.3,27.7z"/>
<path d="M249.1,103.2V3.7c0-1.2-1.1-2.3-2.3-2.3h-16.5c-1.2,0-2.3,1.1-2.3,2.3v65.3L178,3.8c-1.4-1.8-2.3-2.4-4.1-2.4h-15.3  c-1.4,0-2.4,1.1-2.4,2.3v99.5c0,1.2,1.1,2.3,2.4,2.3H175c1.2,0,2.3-1.1,2.3-2.3V38.1l50,65.1c1.4,2,2.4,2.3,4.3,2.3h15.3  C248,105.5,249.1,104.4,249.1,103.2 M348.5,96.6l-7-15c-0.6-1.4-1.4-1.4-2.8-0.8c-6.6,3.5-14.2,6.1-23.7,6.1  c-18.3,0-32.4-13.8-32.4-33.6c0-19.1,14.7-33.5,32.2-33.5c9.5,0,16.5,2.9,22.9,6.1c1.2,0.6,2.4,0.5,3.1-0.9l7-14.7  c0.6-1.2,0.5-2.3-1.1-3.2C339.6,3.5,330,0,315.3,0c-31.2,0-55.8,22.9-55.8,53.3c0,32.9,21.7,53.7,55.3,53.7  c14.5,0,24.5-3.4,32.6-7.5C348.8,98.9,349.1,98,348.5,96.6"/>
<path d="M45,78.4c0,0-0.8,1.9-3,3.6c2,0.4,2.9,0.8,4.4,1.5h0c1-1.4,1.6-2.1,3.1-3.5C46.6,79.6,45,78.4,45,78.4L45,78.4z"/>
<path d="M77.8,78.4L77.8,78.4c-1.5,0.7-2.4,1-4.4,1.5c2.2,1.8,3,3.6,3,3.6h0c0,0,1.7-1.2,4.5-1.6C79.4,80.5,78.7,79.8,77.8,78.4"/>
<path d="M61.2,76.3L61.2,76.3L61.2,76.3L61.2,76.3L61.2,76.3L61.2,76.3L61.2,76.3L61.2,76.3L61.2,76.3L61.2,76.3L61.2,76.3  L61.2,76.3L61.2,76.3c0,0-1.6,1.9-4.8,3.3c2.2,1.2,3.2,1.8,4.8,3.2h0c0,0,0,0,0,0l0,0h0l0,0l0,0h0h0h0l0,0l0,0  c1.6-1.3,2.5-2,4.8-3.1C62.9,78.2,61.3,76.3,61.2,76.3"/>
<path d="M119.3,1.5H3.3c0,0-3.3,0-3.3,3.3v97.5c0,0,0,3.3,3.3,3.3h116c0,0,3.3,0,3.3-3.3V4.7C122.6,4.7,122.6,1.5,119.3,1.5   M53.7,17.9h0.4c0.8,3.1,5.7,2.9,5.7,2.9c0-4.8-4.2-5.6-4.2-5.6v-0.4h11.3v0.4c0,0-4.2,0.7-4.2,5.6c0,0,4.9,0.2,5.8-2.9h0.4v8.3  h-0.4c0,0-0.6-2.8-5.8-3.3V26c2.6,0.6,4.6,2.9,4.6,5.7c0,3.3-2.7,5.9-6,5.9c-3.3,0-6-2.6-6-5.9c0-2.8,2-5.1,4.6-5.7v-3.1  c-5.2,0.5-5.8,3.3-5.8,3.3h-0.4V17.9z M56.2,37.7c5.4,3.6,10.1,0,10.1,0s-0.9,6.9-0.9,9.9c0,3.1,1.9,8.4,1.9,8.4H55.3  c0,0,1.9-5.3,2-8.4C57.2,44.5,56.2,37.7,56.2,37.7 M14.9,59c0-0.7,0.3-1.3,0.9-1.7c-0.3-0.5-0.6-1.1-0.9-1.7c-0.2,0-0.4,0.1-0.6,0.1  c-1.5,0-2.6-1-2.6-2.3c0-1,0.7-1.8,1.7-2.2c-0.1-0.5-0.2-1.1-0.3-1.7c-1.3-0.1-2.4-1.1-2.4-2.3c0-1.2,1-2.1,2.2-2.2  c0.1-0.6,0.1-1.2,0.2-1.8c-1-0.3-1.8-1.2-1.8-2.2c0-1.3,1.2-2.3,2.7-2.3c0.3,0,0.5,0.1,0.8,0.1c0.3-0.5,0.6-1,1-1.4  c-0.5-0.4-0.8-1-0.8-1.7c0-1.3,1.2-2.3,2.7-2.3c0.8,0,1.5,0.3,1.9,0.8c0.5-0.3,1.1-0.6,1.7-0.8c0-0.1-0.1-0.2-0.1-0.4  c0-1.3,1.2-2.3,2.6-2.3c1.2,0,2.2,0.7,2.5,1.6c0.6,0,1.4-0.1,2.2,0c0.3-1,1.3-1.8,2.5-1.8c1.5,0,2.6,1,2.6,2.3c0,0,0,0,0,0  c0.6,0.1,1.3,0.3,2,0.5c0.4-0.8,1.3-1.4,2.4-1.4c1.5,0,2.6,1,2.6,2.3c0,0.2-0.1,0.4-0.1,0.6c0.7,0.2,1.3,0.4,1.9,0.6  c0.5-0.7,1.3-1.2,2.3-1.2c1.5,0,2.7,1,2.7,2.3c0,0.2-0.1,0.3-0.1,0.5c1.8,0.5,4.8,1,7.5,0.4c-1.4,1.5-5.4,2.6-8,2.5  c-2.5-0.1-3.6-0.2-7.9-1.3c-4.3-1.1-7.4-1.7-11.1-1.2c-3.6,0.5-5.7,1.7-7.5,3.8c-1.8,2.1-2.5,6.1-2.4,7.6c0.1,1.5,0.1,3.9,1.3,7.4  c1.2,3.5,3.7,7.8,3.7,7.8s-2-0.9-4.2-3c-0.4,0.2-0.8,0.3-1.2,0.3C16.1,61.4,14.9,60.3,14.9,59 M97,83.3c-4.3,1.4-7.1,1.5-7.1,1.5  c2.7,1.6,4.4,4.2,4.4,4.2l-1.5,3.1c-9.3-6-31.6-6-31.6-6s-22.2,0-31.6,6l-1.5-3.1c0,0,1.7-2.6,4.4-4.2c0,0-2.8-0.2-7.1-1.5l-7.2-15  l8.4-3.7l0.2,0.6c0,0-5,2.6-2.7,8.6c0,0,5.4-2,4.9-6.5l0.5-0.2l4.7,10l-0.5,0.2c0,0-2-3.1-8.4-1.3c0,0,5.4,7.2,13.7,3.7  c3.3-1.1,3.7-6.7,0.1-6.8c0,0-2.8-0.1-2.6,2.9c0,0-5-2.1-1.5-6c1.8-1.4,4-0.4,5.6,0.4c-1.7-2.3-4-6.4-1.7-10.5  c3.9,2.1,4.8,5.7,4.8,9.6c1.1-2.3,1.9-2.8,3.5-3.3c2.4-0.4,5.1,2.3,3,5.5c-0.6-1.2-2.8-2.1-4.2-0.4c-1.4,1.6,0.2,5,4.3,5.5  c4.1,0.5,9.4-2.1,9.6-9.4c-3.2,0.2-6.3,2.2-6.8,4.3h-0.5v-11h0.5c0,0,0.9,4.1,6.8,4.1c0-3.2-1.6-6.3-5.2-6.6v-0.5h13.7v0.5  c-3.6,0.3-5.2,3.4-5.2,6.6c5.9,0,6.8-4.1,6.8-4.1h0.5v11h-0.5c-0.5-2.2-3.6-4.1-6.8-4.3c0.2,7.3,5.5,9.9,9.6,9.4  c4.1-0.5,5.6-3.8,4.3-5.5c-1.4-1.6-3.6-0.8-4.2,0.4c-2.1-3.2,0.6-5.9,3-5.5c1.6,0.5,2.4,1,3.5,3.3c0-3.9,0.9-7.5,4.8-9.6  c2.3,4-0.1,8.1-1.7,10.5c1.6-0.8,3.8-1.8,5.6-0.4c3.6,3.9-1.5,6-1.5,6c0.2-2.9-2.6-2.9-2.6-2.9c-3.6,0.1-3.3,5.7,0.1,6.8  c8.3,3.5,13.7-3.7,13.7-3.7c-6.5-1.8-8.4,1.3-8.4,1.3l-0.5-0.2l4.7-10l0.5,0.2c-0.5,4.5,4.9,6.5,4.9,6.5c2.3-6-2.7-8.6-2.7-8.6  l0.2-0.6l8.4,3.7L97,83.3z M109.5,49.6c-0.1,0.6-0.2,1.2-0.3,1.7c1,0.3,1.7,1.2,1.7,2.2c0,1.3-1.2,2.3-2.7,2.3  c-0.2,0-0.4-0.1-0.6-0.1c-0.3,0.6-0.6,1.1-0.9,1.7c0.5,0.4,0.9,1,0.9,1.7c0,1.3-1.2,2.3-2.7,2.3c-0.5,0-0.9-0.1-1.2-0.3  c-2.2,2.1-4.2,3-4.2,3s2.4-4.3,3.7-7.8c1.2-3.5,1.2-5.8,1.3-7.4c0.1-1.5-0.6-5.5-2.4-7.6c-1.8-2.1-3.9-3.3-7.5-3.8  c-3.7-0.5-6.8,0.1-11.1,1.2c-4.3,1.1-5.4,1.2-7.9,1.3c-2.5,0.1-6.5-1-8-2.5c2.7,0.6,5.7,0.1,7.5-0.4c0-0.2-0.1-0.3-0.1-0.5  c0-1.3,1.2-2.3,2.6-2.3c1,0,1.8,0.5,2.3,1.2c0.6-0.2,1.2-0.4,1.9-0.6c-0.1-0.2-0.1-0.4-0.1-0.6c0-1.3,1.2-2.3,2.6-2.3  c1.1,0,2,0.6,2.4,1.4c0.7-0.2,1.4-0.4,2-0.5c0,0,0,0,0,0c0-1.3,1.2-2.3,2.6-2.3c1.3,0,2.2,0.8,2.5,1.8c0.9,0,1.6,0,2.2,0  c0.3-0.9,1.3-1.6,2.5-1.6c1.5,0,2.6,1,2.6,2.3c0,0.1-0.1,0.2-0.1,0.4c0.6,0.2,1.1,0.5,1.7,0.8c0.5-0.5,1.2-0.8,1.9-0.8  c1.5,0,2.6,1,2.6,2.3c0,0.7-0.3,1.2-0.8,1.7c0.4,0.4,0.7,0.9,1,1.4c0.3-0.1,0.5-0.1,0.8-0.1c1.5,0,2.6,1,2.6,2.3  c0,1-0.8,1.9-1.8,2.2c0.1,0.6,0.2,1.2,0.2,1.8c1.3,0.2,2.2,1.1,2.2,2.2C111.9,48.6,110.8,49.5,109.5,49.6"/>
<rect x="61.2" y="76.3" fill="#FFFFFF" width="0" height="0"/>
<rect x="61.2" y="82.8" fill="#FFFFFF" width="0" height="0"/>
<polygon points="61.2,76.3 61.2,76.3 61.2,76.3 61.2,76.3 "/>
<polygon points="61.2,82.8 61.2,82.8 61.2,82.8 61.2,82.8 "/>
<polygon points="61.3,76.3 61.3,76.3 61.3,76.3 61.2,76.3 61.2,76.3 "/>
<polygon points="61.2,76.3 61.2,76.3 61.3,76.3 61.3,76.3 61.2,76.3 61.2,76.3 61.2,76.3 "/>
<path d="M61.2,82.8L61.2,82.8L61.2,82.8L61.2,82.8C61.2,82.8,61.3,82.8,61.2,82.8L61.2,82.8L61.2,82.8z"/>
<path fill="#FFFFFF" d="M61.2,76.3L61.2,76.3L61.2,76.3z"/>
<polygon fill="#FFFFFF" points="61.2,76.3 61.2,76.3 61.2,76.3 "/>
<path fill="#FFFFFF" d="M61.2,82.8L61.2,82.8L61.2,82.8C61.3,82.8,61.2,82.8,61.2,82.8L61.2,82.8z"/>
<path d="M21.6,156.3L5.3,133.1c-1.1-1.6-1.7-2.6-2-3.2H3.2c0,0.7,0.2,1.9,0.2,3.8v22.5H0v-30.1h4.2l15.7,22.2c0.8,1.2,1.6,2.4,2,3.2  H22c0-0.7-0.2-1.7-0.2-3.7v-21.7h3.3v30.1H21.6z"/>
<path d="M40.4,156.8c-6.2,0-10.5-2.1-10.5-6.9c0-6.4,7.2-8.2,15.9-8.9v-1.4c0-3.6-2.3-5-6.3-5c-2.4,0-5,0.5-7,1.4l-0.9-2.2  c2.4-1.1,5.3-1.6,8.2-1.6c5.9,0,9.6,2.2,9.6,7.7v15.4C47.1,156.2,43.8,156.8,40.4,156.8 M45.7,142.8c-7.4,0.8-12.2,1.9-12.2,7  c0,3.3,2.8,4.8,7,4.8c1.9,0,3.9-0.3,5.3-0.9V142.8z"/>
<path d="M63.5,156.7c-5,0-6.7-3.1-6.7-6.1v-15.7H53v-2.2h3.8v-5.5l3.7-1.1v6.6h5.3v2.2h-5.3v15.9c0,1.8,1.4,3.5,4.1,3.5  c0.4,0,0.8,0,1.3-0.1v2.2C65.3,156.6,64.4,156.7,63.5,156.7"/>
<path d="M72.5,128.2c-1.3,0-2.4-0.9-2.4-2.1c0-1.2,1.1-2.1,2.4-2.1c1.3,0,2.4,1,2.4,2.1C74.9,127.3,73.8,128.2,72.5,128.2   M70.6,132.7h3.8v23.6h-3.8V132.7z"/>
<path d="M90.2,156.8c-7.2,0-11-5.3-11-12.3c0-7,3.8-12.3,11-12.3c7.2,0,11,5.3,11,12.3C101.3,151.4,97.4,156.8,90.2,156.8   M90.2,134.5c-5.1,0-7.2,4.6-7.2,9.9c0,5.4,2.1,9.9,7.2,9.9c5.1,0,7.2-4.5,7.2-9.9C97.5,139,95.4,134.5,90.2,134.5"/>
<path d="M121.9,156.3v-15.5c0-4.4-2.5-6.3-6.9-6.3c-1.8,0-3.8,0.3-5.4,0.9v20.9h-3.8v-22.4c2.6-1.1,6-1.7,9.2-1.7  c6.6,0,10.6,2.5,10.6,8.6v15.5H121.9z"/>
<path d="M140.6,156.8c-6.2,0-10.5-2.1-10.5-6.9c0-6.4,7.2-8.2,15.9-8.9v-1.4c0-3.6-2.3-5-6.3-5c-2.4,0-5,0.5-7,1.4l-0.9-2.2  c2.4-1.1,5.3-1.6,8.2-1.6c5.9,0,9.6,2.2,9.6,7.7v15.4C147.3,156.2,144.1,156.8,140.6,156.8 M146,142.8c-7.4,0.8-12.2,1.9-12.2,7  c0,3.3,2.8,4.8,7,4.8c1.9,0,3.9-0.3,5.3-0.9V142.8z"/>
<rect x="155.4" y="121.9" width="3.8" height="34.3"/>
<path d="M189.8,156.8c-8.8,0-13.8-7-13.8-15.6c0-8.7,5.1-15.6,13.9-15.6c2.8,0,5.2,0.5,7,1.6l-1.1,2.3c-1.4-0.8-3.5-1.2-5.5-1.2  c-6.8,0-10.1,5.9-10.1,12.9c0,7,3.4,12.8,10.1,12.8c2,0,4.1-0.5,5.5-1.2l1.1,2.4C195,156.2,192.6,156.8,189.8,156.8"/>
<path d="M212.3,134.9c-1-0.2-2.1-0.4-3.3-0.4c-1.6,0-3.2,0.2-4.2,0.7v21h-3.8v-22.5c2.7-1.1,5.4-1.6,10.2-1.6c0.7,0,1.4,0,1.9,0.1  L212.3,134.9z"/>
<path d="M218.9,128.2c-1.3,0-2.4-0.9-2.4-2.1c0-1.2,1.1-2.1,2.4-2.1c1.3,0,2.4,1,2.4,2.1C221.2,127.3,220.2,128.2,218.9,128.2   M217,132.7h3.8v23.6H217V132.7z"/>
<path d="M257.5,156.3v-15.9c0-3.8-2.1-5.9-6-5.9c-2.4,0-4.2,1-5.7,2.5v19.3H242v-17c0-3-2.2-4.8-6.3-4.8c-2,0-3.8,0.3-5.4,0.9v20.9  h-3.7v-22.4c2.6-1,5.8-1.7,9.1-1.7c3.9,0,6.7,1.1,8.5,3c2.1-1.8,4.6-3,7.8-3c5.8,0,9.3,2.9,9.3,8.2v15.9H257.5z"/>
<path d="M269.6,145.9c0.4,5.5,3.9,8.3,9.1,8.3c2.5,0,5.1-0.5,7-1.4l1,2.3c-2.3,1.1-5.2,1.6-8.3,1.6c-7.3,0-12.4-3.9-12.4-12.4  c0-8.1,4.8-12.2,11.2-12.2c6.5,0,10.5,3.7,10.5,11.5L269.6,145.9z M277,134.4c-4.2,0-7.6,3-7.6,9.4v0.1l14.5-1.8  C284,136.7,281.2,134.4,277,134.4"/>
<path d="M326.2,156.3l-3.6-9.3h-13.3l-3.6,9.3h-3.9l12.6-30.1h3.5l12.6,30.1H326.2z M317.2,133.1c-0.5-1.3-0.9-2.6-1.2-3.9h-0.1  c-0.4,1.3-0.8,2.6-1.3,3.9l-4.5,11.6h11.6L317.2,133.1z"/>
<path d="M342.4,166.2c-3.1,0-6.4-0.6-8.8-1.7l1.1-2.4c2,0.9,4.9,1.5,7.5,1.5c4.5,0,7.2-2.4,7.2-6.6v-1.4c-1.5,0.7-3.8,1.1-6,1.1  c-6.7,0-10.9-4.6-10.9-11.8c0-7.4,4.3-12.7,12.6-12.7c3.1,0,5.7,0.5,8.1,1.6v23.1C353.1,163,348.9,166.2,342.4,166.2 M349.3,135.3  c-1.3-0.6-2.8-0.9-4.5-0.9c-5.8,0-8.6,4.2-8.6,10.4c0,6.1,2.8,9.6,8.3,9.6c1.7,0,3.8-0.4,4.9-1V135.3z"/>
<path d="M361.4,145.9c0.4,5.5,3.9,8.3,9.1,8.3c2.5,0,5.1-0.5,7-1.4l1,2.3c-2.3,1.1-5.3,1.6-8.3,1.6c-7.3,0-12.4-3.9-12.4-12.4  c0-8.1,4.8-12.2,11.2-12.2c6.5,0,10.5,3.7,10.5,11.5L361.4,145.9z M368.8,134.4c-4.2,0-7.6,3-7.6,9.4v0.1l14.5-1.8  C375.8,136.7,373,134.4,368.8,134.4"/>
<path d="M400.4,156.3v-15.5c0-4.4-2.5-6.3-6.9-6.3c-1.8,0-3.8,0.3-5.4,0.9v20.9h-3.8v-22.4c2.6-1.1,6-1.7,9.2-1.7  c6.6,0,10.6,2.5,10.6,8.6v15.5H400.4z"/>
<path d="M419.7,156.8c-7,0-10.9-5.4-10.9-12.3c0-6.9,3.8-12.3,10.9-12.3c2.4,0,4.6,0.5,6.3,1.6l-1,2.1c-1.3-0.8-3-1.3-4.9-1.3  c-5.1,0-7.5,4.5-7.5,9.8c0,5.3,2.4,9.8,7.5,9.8c1.9,0,3.5-0.4,4.9-1.3l1.1,2.3C424.3,156.3,422.1,156.8,419.7,156.8"/>
<path d="M437.6,165.7h-4.2l4.6-9.4l-9.4-23.6h4.1l6.2,17.4c0.6,1.6,0.7,2.7,0.9,3.2h0.1c0.2-0.6,0.4-1.6,1-3.2l6.3-17.4h3.5  L437.6,165.7z"/>
<rect x="0" y="0" fill="none" width="450.8" height="166.2"/>
</svg>