<?xml version="1.0" encoding="UTF-8"?>
<svg width="451px" height="167px" viewBox="0 0 451 167" version="1.1" xmlns="http://www.w3.org/2000/svg" xmlns:xlink="http://www.w3.org/1999/xlink">
    <title>nca-logo</title>
    <g id="Page-1" stroke="none" stroke-width="1" fill="none" fill-rule="evenodd">
        <g id="nca-logo" fill="#FFFFFF" fill-rule="nonzero">
            <path d="M376.9,103 C376.3,104.8 375.1,105.6 373.1,105.6 L356,105.6 C354.5,105.6 353.9,104.8 353.9,103.8 C353.9,103.3 354.1,102.9 354.2,102.3 L389.9,3.5 C390.4,1.7 391.6,1 393.6,1 L411.8,1 C413.8,1 415,1.6 415.5,3.5 L450.7,102.3 C450.8,102.9 451,103.4 451,103.8 C451,104.9 450.4,105.6 448.9,105.6 L431.3,105.6 C429.2,105.6 427.9,104.8 427.5,103 L421,84.5 L383.2,84.5 L376.9,103 Z M402.3,27.7 L388.7,66.9 L415.6,66.9 L402.3,27.7 Z" id="Shape"></path>
            <path d="M249.1,103.2 L249.1,3.7 C249.1,2.5 248,1.4 246.8,1.4 L230.3,1.4 C229.1,1.4 228,2.5 228,3.7 L228,69 L178,3.8 C176.6,2 175.7,1.4 173.9,1.4 L158.6,1.4 C157.2,1.4 156.2,2.5 156.2,3.7 L156.2,103.2 C156.2,104.4 157.3,105.5 158.6,105.5 L175,105.5 C176.2,105.5 177.3,104.4 177.3,103.2 L177.3,38.1 L227.3,103.2 C228.7,105.2 229.7,105.5 231.6,105.5 L246.9,105.5 C248,105.5 249.1,104.4 249.1,103.2 M348.5,96.6 L341.5,81.6 C340.9,80.2 340.1,80.2 338.7,80.8 C332.1,84.3 324.5,86.9 315,86.9 C296.7,86.9 282.6,73.1 282.6,53.3 C282.6,34.2 297.3,19.8 314.8,19.8 C324.3,19.8 331.3,22.7 337.7,25.9 C338.9,26.5 340.1,26.4 340.8,25 L347.8,10.3 C348.4,9.1 348.3,8 346.7,7.1 C339.6,3.5 330,0 315.3,0 C284.1,0 259.5,22.9 259.5,53.3 C259.5,86.2 281.2,107 314.8,107 C329.3,107 339.3,103.6 347.4,99.5 C348.8,98.9 349.1,98 348.5,96.6" id="Shape"></path>
            <path d="M45,78.4 C45,78.4 44.2,80.3 42,82 C44,82.4 44.9,82.8 46.4,83.5 L46.4,83.5 C47.4,82.1 48,81.4 49.5,80 C46.6,79.6 45,78.4 45,78.4 L45,78.4 Z" id="Path"></path>
            <path d="M77.8,78.4 L77.8,78.4 C76.3,79.1 75.4,79.4 73.4,79.9 C75.6,81.7 76.4,83.5 76.4,83.5 L76.4,83.5 C76.4,83.5 78.1,82.3 80.9,81.9 C79.4,80.5 78.7,79.8 77.8,78.4" id="Path"></path>
            <path d="M61.2,76.3 L61.2,76.3 L61.2,76.3 L61.2,76.3 L61.2,76.3 L61.2,76.3 L61.2,76.3 L61.2,76.3 L61.2,76.3 L61.2,76.3 L61.2,76.3 L61.2,76.3 L61.2,76.3 C61.2,76.3 59.6,78.2 56.4,79.6 C58.6,80.8 59.6,81.4 61.2,82.8 L61.2,82.8 C61.2,82.8 61.2,82.8 61.2,82.8 L61.2,82.8 L61.2,82.8 L61.2,82.8 L61.2,82.8 L61.2,82.8 L61.2,82.8 L61.2,82.8 L61.2,82.8 L61.2,82.8 C62.8,81.5 63.7,80.8 66,79.7 C62.9,78.2 61.3,76.3 61.2,76.3" id="Path"></path>
            <path d="M119.3,1.5 L3.3,1.5 C3.3,1.5 0,1.5 0,4.8 L0,102.3 C0,102.3 0,105.6 3.3,105.6 L119.3,105.6 C119.3,105.6 122.6,105.6 122.6,102.3 L122.6,4.7 C122.6,4.7 122.6,1.5 119.3,1.5 M53.7,17.9 L54.1,17.9 C54.9,21 59.8,20.8 59.8,20.8 C59.8,16 55.6,15.2 55.6,15.2 L55.6,14.8 L66.9,14.8 L66.9,15.2 C66.9,15.2 62.7,15.9 62.7,20.8 C62.7,20.8 67.6,21 68.5,17.9 L68.9,17.9 L68.9,26.2 L68.5,26.2 C68.5,26.2 67.9,23.4 62.7,22.9 L62.7,26 C65.3,26.6 67.3,28.9 67.3,31.7 C67.3,35 64.6,37.6 61.3,37.6 C58,37.6 55.3,35 55.3,31.7 C55.3,28.9 57.3,26.6 59.9,26 L59.9,22.9 C54.7,23.4 54.1,26.2 54.1,26.2 L53.7,26.2 L53.7,17.9 Z M56.2,37.7 C61.6,41.3 66.3,37.7 66.3,37.7 C66.3,37.7 65.4,44.6 65.4,47.6 C65.4,50.7 67.3,56 67.3,56 L55.3,56 C55.3,56 57.2,50.7 57.3,47.6 C57.2,44.5 56.2,37.7 56.2,37.7 M14.9,59 C14.9,58.3 15.2,57.7 15.8,57.3 C15.5,56.8 15.2,56.2 14.9,55.6 C14.7,55.6 14.5,55.7 14.3,55.7 C12.8,55.7 11.7,54.7 11.7,53.4 C11.7,52.4 12.4,51.6 13.4,51.2 C13.3,50.7 13.2,50.1 13.1,49.5 C11.8,49.4 10.7,48.4 10.7,47.2 C10.7,46 11.7,45.1 12.9,45 C13,44.4 13,43.8 13.1,43.2 C12.1,42.9 11.3,42 11.3,41 C11.3,39.7 12.5,38.7 14,38.7 C14.3,38.7 14.5,38.8 14.8,38.8 C15.1,38.3 15.4,37.8 15.8,37.4 C15.3,37 15,36.4 15,35.7 C15,34.4 16.2,33.4 17.7,33.4 C18.5,33.4 19.2,33.7 19.6,34.2 C20.1,33.9 20.7,33.6 21.3,33.4 C21.3,33.3 21.2,33.2 21.2,33 C21.2,31.7 22.4,30.7 23.8,30.7 C25,30.7 26,31.4 26.3,32.3 C26.9,32.3 27.7,32.2 28.5,32.3 C28.8,31.3 29.8,30.5 31,30.5 C32.5,30.5 33.6,31.5 33.6,32.8 C33.6,32.8 33.6,32.8 33.6,32.8 C34.2,32.9 34.9,33.1 35.6,33.3 C36,32.5 36.9,31.9 38,31.9 C39.5,31.9 40.6,32.9 40.6,34.2 C40.6,34.4 40.5,34.6 40.5,34.8 C41.2,35 41.8,35.2 42.4,35.4 C42.9,34.7 43.7,34.2 44.7,34.2 C46.2,34.2 47.4,35.2 47.4,36.5 C47.4,36.7 47.3,36.8 47.3,37 C49.1,37.5 52.1,38 54.8,37.4 C53.4,38.9 49.4,40 46.8,39.9 C44.3,39.8 43.2,39.7 38.9,38.6 C34.6,37.5 31.5,36.9 27.8,37.4 C24.2,37.9 22.1,39.1 20.3,41.2 C18.5,43.3 17.8,47.3 17.9,48.8 C18,50.3 18,52.7 19.2,56.2 C20.4,59.7 22.9,64 22.9,64 C22.9,64 20.9,63.1 18.7,61 C18.3,61.2 17.9,61.3 17.5,61.3 C16.1,61.4 14.9,60.3 14.9,59 M97,83.3 C92.7,84.7 89.9,84.8 89.9,84.8 C92.6,86.4 94.3,89 94.3,89 L92.8,92.1 C83.5,86.1 61.2,86.1 61.2,86.1 C61.2,86.1 39,86.1 29.6,92.1 L28.1,89 C28.1,89 29.8,86.4 32.5,84.8 C32.5,84.8 29.7,84.6 25.4,83.3 L18.2,68.3 L26.6,64.6 L26.8,65.2 C26.8,65.2 21.8,67.8 24.1,73.8 C24.1,73.8 29.5,71.8 29,67.3 L29.5,67.1 L34.2,77.1 L33.7,77.3 C33.7,77.3 31.7,74.2 25.3,76 C25.3,76 30.7,83.2 39,79.7 C42.3,78.6 42.7,73 39.1,72.9 C39.1,72.9 36.3,72.8 36.5,75.8 C36.5,75.8 31.5,73.7 35,69.8 C36.8,68.4 39,69.4 40.6,70.2 C38.9,67.9 36.6,63.8 38.9,59.7 C42.8,61.8 43.7,65.4 43.7,69.3 C44.8,67 45.6,66.5 47.2,66 C49.6,65.6 52.3,68.3 50.2,71.5 C49.6,70.3 47.4,69.4 46,71.1 C44.6,72.7 46.2,76.1 50.3,76.6 C54.4,77.1 59.7,74.5 59.9,67.2 C56.7,67.4 53.6,69.4 53.1,71.5 L52.6,71.5 L52.6,60.5 L53.1,60.5 C53.1,60.5 54,64.6 59.9,64.6 C59.9,61.4 58.3,58.3 54.7,58 L54.7,57.5 L68.4,57.5 L68.4,58 C64.8,58.3 63.2,61.4 63.2,64.6 C69.1,64.6 70,60.5 70,60.5 L70.5,60.5 L70.5,71.5 L70,71.5 C69.5,69.3 66.4,67.4 63.2,67.2 C63.4,74.5 68.7,77.1 72.8,76.6 C76.9,76.1 78.4,72.8 77.1,71.1 C75.7,69.5 73.5,70.3 72.9,71.5 C70.8,68.3 73.5,65.6 75.9,66 C77.5,66.5 78.3,67 79.4,69.3 C79.4,65.4 80.3,61.8 84.2,59.7 C86.5,63.7 84.1,67.8 82.5,70.2 C84.1,69.4 86.3,68.4 88.1,69.8 C91.7,73.7 86.6,75.8 86.6,75.8 C86.8,72.9 84,72.9 84,72.9 C80.4,73 80.7,78.6 84.1,79.7 C92.4,83.2 97.8,76 97.8,76 C91.3,74.2 89.4,77.3 89.4,77.3 L88.9,77.1 L93.6,67.1 L94.1,67.3 C93.6,71.8 99,73.8 99,73.8 C101.3,67.8 96.3,65.2 96.3,65.2 L96.5,64.6 L104.9,68.3 L97,83.3 Z M109.5,49.6 C109.4,50.2 109.3,50.8 109.2,51.3 C110.2,51.6 110.9,52.5 110.9,53.5 C110.9,54.8 109.7,55.8 108.2,55.8 C108,55.8 107.8,55.7 107.6,55.7 C107.3,56.3 107,56.8 106.7,57.4 C107.2,57.8 107.6,58.4 107.6,59.1 C107.6,60.4 106.4,61.4 104.9,61.4 C104.4,61.4 104,61.3 103.7,61.1 C101.5,63.2 99.5,64.1 99.5,64.1 C99.5,64.1 101.9,59.8 103.2,56.3 C104.4,52.8 104.4,50.5 104.5,48.9 C104.6,47.4 103.9,43.4 102.1,41.3 C100.3,39.2 98.2,38 94.6,37.5 C90.9,37 87.8,37.6 83.5,38.7 C79.2,39.8 78.1,39.9 75.6,40 C73.1,40.1 69.1,39 67.6,37.5 C70.3,38.1 73.3,37.6 75.1,37.1 C75.1,36.9 75,36.8 75,36.6 C75,35.3 76.2,34.3 77.6,34.3 C78.6,34.3 79.4,34.8 79.9,35.5 C80.5,35.3 81.1,35.1 81.8,34.9 C81.7,34.7 81.7,34.5 81.7,34.3 C81.7,33 82.9,32 84.3,32 C85.4,32 86.3,32.6 86.7,33.4 C87.4,33.2 88.1,33 88.7,32.9 C88.7,32.9 88.7,32.9 88.7,32.9 C88.7,31.6 89.9,30.6 91.3,30.6 C92.6,30.6 93.5,31.4 93.8,32.4 C94.7,32.4 95.4,32.4 96,32.4 C96.3,31.5 97.3,30.8 98.5,30.8 C100,30.8 101.1,31.8 101.1,33.1 C101.1,33.2 101,33.3 101,33.5 C101.6,33.7 102.1,34 102.7,34.3 C103.2,33.8 103.9,33.5 104.6,33.5 C106.1,33.5 107.2,34.5 107.2,35.8 C107.2,36.5 106.9,37 106.4,37.5 C106.8,37.9 107.1,38.4 107.4,38.9 C107.7,38.8 107.9,38.8 108.2,38.8 C109.7,38.8 110.8,39.8 110.8,41.1 C110.8,42.1 110,43 109,43.3 C109.1,43.9 109.2,44.5 109.2,45.1 C110.5,45.3 111.4,46.2 111.4,47.3 C111.9,48.6 110.8,49.5 109.5,49.6" id="Shape"></path>
            <rect id="Rectangle" x="61.2" y="76.3" width="1" height="1"></rect>
            <rect id="Rectangle" x="61.2" y="82.8" width="1" height="1"></rect>
            <polygon id="Path" points="61.3 76.3 61.3 76.3 61.3 76.3 61.2 76.3 61.2 76.3"></polygon>
            <polygon id="Path" points="61.2 76.3 61.2 76.3 61.3 76.3 61.3 76.3 61.2 76.3 61.2 76.3"></polygon>
            <path d="M61.2,82.8 L61.2,82.8 L61.2,82.8 L61.2,82.8 C61.2,82.8 61.3,82.8 61.2,82.8 L61.2,82.8 L61.2,82.8 Z" id="Path"></path>
            <path d="M61.2,82.8 L61.2,82.8 L61.2,82.8 C61.3,82.8 61.2,82.8 61.2,82.8 L61.2,82.8 Z" id="Path"></path>
            <path d="M21.6,156.3 L5.3,133.1 C4.2,131.5 3.6,130.5 3.3,129.9 L3.2,129.9 C3.2,130.6 3.4,131.8 3.4,133.7 L3.4,156.2 L0,156.2 L0,126.1 L4.2,126.1 L19.9,148.3 C20.7,149.5 21.5,150.7 21.9,151.5 L22,151.5 C22,150.8 21.8,149.8 21.8,147.8 L21.8,126.1 L25.1,126.1 L25.1,156.2 L21.6,156.2 L21.6,156.3 Z" id="Path"></path>
            <path d="M40.4,156.8 C34.2,156.8 29.9,154.7 29.9,149.9 C29.9,143.5 37.1,141.7 45.8,141 L45.8,139.6 C45.8,136 43.5,134.6 39.5,134.6 C37.1,134.6 34.5,135.1 32.5,136 L31.6,133.8 C34,132.7 36.9,132.2 39.8,132.2 C45.7,132.2 49.4,134.4 49.4,139.9 L49.4,155.3 C47.1,156.2 43.8,156.8 40.4,156.8 M45.7,142.8 C38.3,143.6 33.5,144.7 33.5,149.8 C33.5,153.1 36.3,154.6 40.5,154.6 C42.4,154.6 44.4,154.3 45.8,153.7 L45.8,142.8 L45.7,142.8 Z" id="Shape"></path>
            <path d="M63.5,156.7 C58.5,156.7 56.8,153.6 56.8,150.6 L56.8,134.9 L53,134.9 L53,132.7 L56.8,132.7 L56.8,127.2 L60.5,126.1 L60.5,132.7 L65.8,132.7 L65.8,134.9 L60.5,134.9 L60.5,150.8 C60.5,152.6 61.9,154.3 64.6,154.3 C65,154.3 65.4,154.3 65.9,154.2 L65.9,156.4 C65.3,156.6 64.4,156.7 63.5,156.7" id="Path"></path>
            <path d="M72.5,128.2 C71.2,128.2 70.1,127.3 70.1,126.1 C70.1,124.9 71.2,124 72.5,124 C73.8,124 74.9,125 74.9,126.1 C74.9,127.3 73.8,128.2 72.5,128.2 M70.6,132.7 L74.4,132.7 L74.4,156.3 L70.6,156.3 L70.6,132.7 Z" id="Shape"></path>
            <path d="M90.2,156.8 C83,156.8 79.2,151.5 79.2,144.5 C79.2,137.5 83,132.2 90.2,132.2 C97.4,132.2 101.2,137.5 101.2,144.5 C101.3,151.4 97.4,156.8 90.2,156.8 M90.2,134.5 C85.1,134.5 83,139.1 83,144.4 C83,149.8 85.1,154.3 90.2,154.3 C95.3,154.3 97.4,149.8 97.4,144.4 C97.5,139 95.4,134.5 90.2,134.5" id="Shape"></path>
            <path d="M121.9,156.3 L121.9,140.8 C121.9,136.4 119.4,134.5 115,134.5 C113.2,134.5 111.2,134.8 109.6,135.4 L109.6,156.3 L105.8,156.3 L105.8,133.9 C108.4,132.8 111.8,132.2 115,132.2 C121.6,132.2 125.6,134.7 125.6,140.8 L125.6,156.3 L121.9,156.3 Z" id="Path"></path>
            <path d="M140.6,156.8 C134.4,156.8 130.1,154.7 130.1,149.9 C130.1,143.5 137.3,141.7 146,141 L146,139.6 C146,136 143.7,134.6 139.7,134.6 C137.3,134.6 134.7,135.1 132.7,136 L131.8,133.8 C134.2,132.7 137.1,132.2 140,132.2 C145.9,132.2 149.6,134.4 149.6,139.9 L149.6,155.3 C147.3,156.2 144.1,156.8 140.6,156.8 M146,142.8 C138.6,143.6 133.8,144.7 133.8,149.8 C133.8,153.1 136.6,154.6 140.8,154.6 C142.7,154.6 144.7,154.3 146.1,153.7 L146.1,142.8 L146,142.8 Z" id="Shape"></path>
            <rect id="Rectangle" x="155.4" y="121.9" width="3.8" height="34.3"></rect>
            <path d="M189.8,156.8 C181,156.8 176,149.8 176,141.2 C176,132.5 181.1,125.6 189.9,125.6 C192.7,125.6 195.1,126.1 196.9,127.2 L195.8,129.5 C194.4,128.7 192.3,128.3 190.3,128.3 C183.5,128.3 180.2,134.2 180.2,141.2 C180.2,148.2 183.6,154 190.3,154 C192.3,154 194.4,153.5 195.8,152.8 L196.9,155.2 C195,156.2 192.6,156.8 189.8,156.8" id="Path"></path>
            <path d="M212.3,134.9 C211.3,134.7 210.2,134.5 209,134.5 C207.4,134.5 205.8,134.7 204.8,135.2 L204.8,156.2 L201,156.2 L201,133.7 C203.7,132.6 206.4,132.1 211.2,132.1 C211.9,132.1 212.6,132.1 213.1,132.2 L212.3,134.9 Z" id="Path"></path>
            <path d="M218.9,128.2 C217.6,128.2 216.5,127.3 216.5,126.1 C216.5,124.9 217.6,124 218.9,124 C220.2,124 221.3,125 221.3,126.1 C221.2,127.3 220.2,128.2 218.9,128.2 M217,132.7 L220.8,132.7 L220.8,156.3 L217,156.3 L217,132.7 Z" id="Shape"></path>
            <path d="M257.5,156.3 L257.5,140.4 C257.5,136.6 255.4,134.5 251.5,134.5 C249.1,134.5 247.3,135.5 245.8,137 L245.8,156.3 L242,156.3 L242,139.3 C242,136.3 239.8,134.5 235.7,134.5 C233.7,134.5 231.9,134.8 230.3,135.4 L230.3,156.3 L226.6,156.3 L226.6,133.9 C229.2,132.9 232.4,132.2 235.7,132.2 C239.6,132.2 242.4,133.3 244.2,135.2 C246.3,133.4 248.8,132.2 252,132.2 C257.8,132.2 261.3,135.1 261.3,140.4 L261.3,156.3 L257.5,156.3 Z" id="Path"></path>
            <path d="M269.6,145.9 C270,151.4 273.5,154.2 278.7,154.2 C281.2,154.2 283.8,153.7 285.7,152.8 L286.7,155.1 C284.4,156.2 281.5,156.7 278.4,156.7 C271.1,156.7 266,152.8 266,144.3 C266,136.2 270.8,132.1 277.2,132.1 C283.7,132.1 287.7,135.8 287.7,143.6 L269.6,145.9 Z M277,134.4 C272.8,134.4 269.4,137.4 269.4,143.8 L269.4,143.9 L283.9,142.1 C284,136.7 281.2,134.4 277,134.4" id="Shape"></path>
            <path d="M326.2,156.3 L322.6,147 L309.3,147 L305.7,156.3 L301.8,156.3 L314.4,126.2 L317.9,126.2 L330.5,156.3 L326.2,156.3 Z M317.2,133.1 C316.7,131.8 316.3,130.5 316,129.2 L315.9,129.2 C315.5,130.5 315.1,131.8 314.6,133.1 L310.1,144.7 L321.7,144.7 L317.2,133.1 Z" id="Shape"></path>
            <path d="M342.4,166.2 C339.3,166.2 336,165.6 333.6,164.5 L334.7,162.1 C336.7,163 339.6,163.6 342.2,163.6 C346.7,163.6 349.4,161.2 349.4,157 L349.4,155.6 C347.9,156.3 345.6,156.7 343.4,156.7 C336.7,156.7 332.5,152.1 332.5,144.9 C332.5,137.5 336.8,132.2 345.1,132.2 C348.2,132.2 350.8,132.7 353.2,133.8 L353.2,156.9 C353.1,163 348.9,166.2 342.4,166.2 M349.3,135.3 C348,134.7 346.5,134.4 344.8,134.4 C339,134.4 336.2,138.6 336.2,144.8 C336.2,150.9 339,154.4 344.5,154.4 C346.2,154.4 348.3,154 349.4,153.4 L349.4,135.3 L349.3,135.3 Z" id="Shape"></path>
            <path d="M361.4,145.9 C361.8,151.4 365.3,154.2 370.5,154.2 C373,154.2 375.6,153.7 377.5,152.8 L378.5,155.1 C376.2,156.2 373.2,156.7 370.2,156.7 C362.9,156.7 357.8,152.8 357.8,144.3 C357.8,136.2 362.6,132.1 369,132.1 C375.5,132.1 379.5,135.8 379.5,143.6 L361.4,145.9 Z M368.8,134.4 C364.6,134.4 361.2,137.4 361.2,143.8 L361.2,143.9 L375.7,142.1 C375.8,136.7 373,134.4 368.8,134.4" id="Shape"></path>
            <path d="M400.4,156.3 L400.4,140.8 C400.4,136.4 397.9,134.5 393.5,134.5 C391.7,134.5 389.7,134.8 388.1,135.4 L388.1,156.3 L384.3,156.3 L384.3,133.9 C386.9,132.8 390.3,132.2 393.5,132.2 C400.1,132.2 404.1,134.7 404.1,140.8 L404.1,156.3 L400.4,156.3 Z" id="Path"></path>
            <path d="M419.7,156.8 C412.7,156.8 408.8,151.4 408.8,144.5 C408.8,137.6 412.6,132.2 419.7,132.2 C422.1,132.2 424.3,132.7 426,133.8 L425,135.9 C423.7,135.1 422,134.6 420.1,134.6 C415,134.6 412.6,139.1 412.6,144.4 C412.6,149.7 415,154.2 420.1,154.2 C422,154.2 423.6,153.8 425,152.9 L426.1,155.2 C424.3,156.3 422.1,156.8 419.7,156.8" id="Path"></path>
            <path d="M437.6,165.7 L433.4,165.7 L438,156.3 L428.6,132.7 L432.7,132.7 L438.9,150.1 C439.5,151.7 439.6,152.8 439.8,153.3 L439.9,153.3 C440.1,152.7 440.3,151.7 440.9,150.1 L447.2,132.7 L450.7,132.7 L437.6,165.7 Z" id="Path"></path>
        </g>
    </g>
</svg>