<?xml version="1.0" encoding="UTF-8"?>
<svg width="198px" height="70px" viewBox="0 0 198 70" version="1.1" xmlns="http://www.w3.org/2000/svg" xmlns:xlink="http://www.w3.org/1999/xlink">
    <title>npower-logo</title>
    <defs>
        <path d="M34.5948,0 C15.4688,0.170875 0,15.7275 0,34.9072 C0,54.1796 15.6299,69.8046 34.9073,69.8046 L162.71,69.8046 C181.885,69.8046 197.446,54.3505 197.612,35.2198 L197.612,34.5947 C197.446,15.5615 182.051,0.166 163.022,0 L34.5948,0 Z M3.42288,34.9072 C3.42288,17.5146 17.5195,3.42275 34.9073,3.42275 L162.71,3.42275 C180.097,3.42275 194.19,17.5146 194.19,34.9072 C194.19,52.29 180.097,66.3866 162.71,66.3866 L34.9073,66.3866 C17.5195,66.3866 3.42288,52.29 3.42288,34.9072 Z M123.813,26.3965 L123.818,36.1376 C123.818,38.1786 122.515,39.7411 120.132,39.7411 C117.745,39.7411 116.446,38.0126 116.446,36.0986 L116.446,24.4921 C116.446,24.1455 116.162,23.8622 115.816,23.8622 L113.755,23.8622 C112.353,23.8622 111.226,24.9951 111.226,26.3965 L111.231,36.1181 C111.231,38.1542 109.927,39.7411 107.543,39.7411 C105.273,39.7411 103.857,38.1542 103.857,36.1181 L103.852,24.4921 C103.852,24.1455 103.57,23.8622 103.227,23.8622 L101.167,23.8622 C99.7709,23.8622 98.6371,24.9951 98.6371,26.3965 L98.6371,36.0595 C98.6371,41.0156 101.831,44.829 107.373,44.829 C109.838,44.829 112.231,43.8427 113.843,42.2362 C115.463,43.8427 117.935,44.829 120.396,44.829 C126.167,44.829 129.038,40.6737 129.038,36.0644 L129.028,24.4921 C129.028,24.1455 128.75,23.8622 128.403,23.8622 L126.343,23.8622 C124.946,23.8622 123.813,24.9951 123.813,26.3965 Z M163.061,23.8769 C158.34,23.8769 154.707,27.3192 154.707,32.6317 L154.707,42.2851 C154.707,43.6816 155.835,44.8095 157.231,44.8095 L159.297,44.8095 C159.643,44.8095 159.927,44.5312 159.927,44.1845 L159.927,32.4852 C159.927,30.4052 161.543,28.9306 163.378,28.9599 L170.151,28.9599 C171.548,28.9599 172.681,27.832 172.681,26.4355 L172.681,24.497 C172.681,24.1552 172.397,23.8769 172.046,23.8769 L163.061,23.8769 Z M82.8759,23.8769 C77.7984,23.8769 74.5171,27.7392 74.5171,32.4657 L74.5171,36.0644 C74.5171,41.2597 78.0321,44.8046 82.8759,44.8046 L88.4809,44.8046 C93.2034,44.8046 96.8409,41.3769 96.8409,36.0644 L96.8409,32.4657 C96.8409,27.7392 93.5546,23.8769 88.4809,23.8769 L82.8759,23.8769 Z M79.7359,36.0644 L79.7359,32.6171 C79.7359,30.5322 81.1184,28.9599 83.1934,28.9599 L88.1684,28.9599 C90.1221,28.9599 91.6209,30.415 91.6209,32.6171 L91.6209,36.0644 C91.6209,38.2567 90.1221,39.7167 88.1684,39.7167 L83.1934,39.7167 C81.1184,39.7167 79.7359,38.1396 79.7359,36.0644 Z M51.9534,23.8769 L51.9534,42.2997 C51.9534,43.6962 53.0809,44.8095 54.4821,44.8095 L56.5434,44.8095 C56.8896,44.8095 57.1734,44.5361 57.1734,44.1942 L57.1734,39.3602 L65.5521,39.3602 C69.8584,39.3602 72.9546,36.4111 72.9546,31.6747 C72.9546,26.9824 69.8584,23.8769 65.5521,23.8769 L51.9534,23.8769 Z M57.1734,28.9697 L65.3659,28.9697 C66.7971,28.9697 67.7396,30.1465 67.7396,31.5722 C67.7396,33.0077 66.7971,34.2626 65.3659,34.2626 L57.1734,34.2626 L57.1734,28.9697 Z M35.874,23.8769 C31.0303,23.8769 27.5146,27.4414 27.5146,32.6317 L27.5146,42.2851 C27.5146,43.6816 28.6474,44.8095 30.0439,44.8095 L32.1045,44.8095 C32.456,44.8095 32.7344,44.5312 32.7344,44.1845 L32.7344,32.6171 C32.7344,30.4247 34.2285,28.9746 36.1865,28.9746 L44.1259,28.9746 L44.1259,42.2851 C44.1259,43.6816 45.2534,44.8095 46.6509,44.8095 L48.7159,44.8095 C49.0621,44.8095 49.3409,44.5312 49.3409,44.1845 L49.3409,23.8769 L35.874,23.8769 Z M139.292,23.8769 C134.566,23.8769 130.932,27.329 130.932,32.6415 L130.932,36.0986 C130.932,41.289 134.517,44.8046 139.243,44.8046 L149.682,44.8046 C151.08,44.8046 152.212,43.7304 152.212,42.334 L152.202,40.3466 C152.202,39.9951 151.923,39.7167 151.577,39.7167 L139.302,39.7167 C137.573,39.7167 136.157,38.5741 136.157,37.2119 L146.147,37.2119 C149.902,37.2119 152.807,34.1845 152.807,30.371 C152.807,26.8554 149.731,23.8769 146.147,23.8769 L139.292,23.8769 Z M139.302,28.9599 L145.991,28.9599 C146.861,28.9599 147.578,29.6727 147.578,30.5664 C147.578,31.3965 146.9,32.1581 145.991,32.1581 L136.167,32.163 C136.167,30.2392 137.246,28.9599 139.302,28.9599 Z" id="path-1"></path>
    </defs>
    <g id="Page-1" stroke="none" stroke-width="1" fill="none" fill-rule="evenodd">
        <g id="npower-logo">
            <mask id="mask-2" fill="white">
                <use xlink:href="#path-1"></use>
            </mask>
            <g id="Shape"></g>
            <polygon id="Path" fill="#FFFFFF" fill-rule="nonzero" mask="url(#mask-2)" points="197.612 69.8046 197.612 0 0 0 0 69.8046"></polygon>
        </g>
    </g>
</svg>