<?xml version="1.0" encoding="UTF-8"?>
<svg width="307px" height="59px" viewBox="0 0 307 59" version="1.1" xmlns="http://www.w3.org/2000/svg" xmlns:xlink="http://www.w3.org/1999/xlink">
    <title>sainsburys-logo</title>
    <g id="Page-1" stroke="none" stroke-width="1" fill="none" fill-rule="evenodd">
        <g id="sainsburys-logo" transform="translate(0.000000, 0.280262)" fill="#FFFFFF" fill-rule="nonzero">
            <path d="M73.63,8.74973818 C70.77,8.74973818 68.86,6.99973818 68.86,4.34973818 C68.86,2.14973818 70.4,0.229738176 73.63,0.229738176 C76.73,0.229738176 78.26,2.22973818 78.26,4.42973818 C78.26,7.12973818 76.51,8.82973818 73.63,8.82973818 M46.2,46.3197382 C40.03,46.3197382 34.76,42.8397382 34.76,36.2197382 C34.76,28.2197382 43.64,26.4697382 47.52,25.9497382 C53.9,25.1497382 54.48,24.7097382 54.48,23.0197382 C54.48,19.4397382 53.84,16.5197382 49.35,16.5197382 C46.33,16.5197382 43.92,17.3897382 41.61,18.7697382 L40.41,19.5697382 C40.01,19.8697382 39.31,20.6697382 38.51,20.6697382 C38.11,20.6697382 37.31,20.2497382 37.31,19.1997382 L37.31,15.9197382 C37.31,15.2397382 37.61,14.5997382 38.41,14.1397382 C41.41,12.6797382 45.91,11.8697382 49.91,11.8697382 C60.31,11.8697382 63.41,15.9697382 63.41,21.9197382 L63.41,44.7397382 C63.41,45.2397382 63.11,45.5997382 62.51,45.5997382 L55.81,45.5997382 C55.51,45.5997382 55.11,45.2497382 55.11,44.7397382 L54.91,42.8397382 C52.61,44.8797382 49.81,46.3397382 46.41,46.3397382 M54.71,28.7597382 C46.61,28.7597382 43.51,32.4097382 43.51,36.3797382 C43.51,39.1397382 45.01,41.9497382 48.91,41.9497382 C52.31,41.9497382 54.81,39.3897382 54.81,38.4197382 L54.81,28.7597382 M161.71,46.4597382 C156.51,46.4597382 152.61,44.6297382 150.01,42.6597382 C148.91,41.8597382 148.71,40.4597382 148.71,39.2597382 L148.71,1.48973818 C148.71,0.969738176 149.11,0.589738176 149.41,0.589738176 L156.51,0.589738176 C157.01,0.589738176 157.41,0.969738176 157.41,1.48973818 L157.41,16.0697382 C158.81,14.8697382 162.01,12.3297382 167.01,12.3297382 C174.61,12.3297382 179.41,18.9297382 179.41,27.7297382 C179.41,39.0297382 171.61,46.5297382 161.91,46.5297382 M157.31,39.9297382 C157.31,40.6297382 157.49,41.3297382 158.31,41.8297382 C159.01,42.3297382 160.11,42.6297382 162.31,42.6297382 C166.98,42.6297382 170.29,37.8297382 170.29,29.6297382 C170.29,26.6297382 169.59,17.9297382 162.92,17.9297382 C160.22,17.9297382 158.32,19.4297382 157.22,20.2297382 L157.22,40.2297382 L157.22,40.0297382 M247.22,57.7297382 C246.32,57.7297382 245.42,57.7297382 244.18,57.4297382 C243.23,57.2297382 242.71,56.6297382 242.71,55.9297382 L242.71,51.7197382 C242.71,51.2197382 243.15,50.7197382 243.67,50.7197382 C244.47,50.7197382 245.07,50.9197382 245.91,51.1197382 C247.31,51.4197382 248.61,51.6197382 249.81,51.6197382 C253.91,51.6197382 256.91,49.5197382 257.01,45.4197382 L243.71,14.6197382 C243.41,13.8197382 243.31,13.6197382 243.31,13.4197382 C243.31,12.9197382 243.61,12.7197382 244.01,12.7197382 L252.01,12.7197382 C252.61,12.7197382 252.91,12.9197382 253.11,13.5197382 L261.11,34.5197382 L268.81,13.5197382 C268.91,13.0197382 269.31,12.7197382 269.81,12.7197382 L273.11,12.7197382 C273.41,12.7197382 273.71,13.0197382 273.71,13.4197382 C273.71,13.7197382 273.51,13.9197382 273.41,14.3197382 L260,48.9197382 C258.13,53.7197382 252.85,57.6697382 247.2,57.6697382 M13.3,46.5897382 C9.22,46.5897382 4.98,45.6897382 1.22,43.8897382 C0.49,43.3897382 0.35,43.0897382 0.35,42.3897382 L0.35,38.7197382 C0.35,38.0497382 0.58,37.3897382 1.82,37.3897382 C2.48,37.3897382 2.92,37.7397382 3.86,38.4197382 C7.63,41.0497382 11.22,42.1197382 14.26,42.1197382 C19.38,42.1197382 22.86,39.0197382 22.86,35.1797382 C22.9,25.1497382 0,28.2197382 0,13.4197382 C0,6.56973818 5.28,0.579738176 15.03,0.579738176 C19.88,0.579738176 24.28,1.50973818 26.76,2.47973818 C27.43,2.77973818 27.56,3.11973818 27.56,3.79973818 L27.56,8.04973818 C27.56,8.69973818 27.36,9.20973818 26.56,9.20973818 C25.91,9.20973818 25.39,8.80973818 24.58,8.20973818 C21.65,6.10973818 18.85,4.80973818 15.18,4.80973818 C11.08,4.80973818 7.86,7.00973818 7.86,10.4097382 C7.86,18.8097382 31.09,17.9097382 31.09,31.4097382 C31.09,41.6097382 22.59,46.4097382 13.29,46.4097382 M77.19,45.4097382 L70.09,45.4097382 C69.69,45.4097382 69.29,45.0097382 69.29,44.5097382 L69.29,13.5097382 C69.29,13.0097382 69.69,12.6097382 69.99,12.6097382 L76.99,12.6097382 C77.49,12.6097382 77.89,13.0097382 77.89,13.5097382 L77.89,44.7197382 C77.89,45.2497382 77.49,45.5897382 76.99,45.5897382 M197.59,46.2897382 C190.29,46.2897382 182.99,43.2897382 182.99,34.9897382 L182.99,13.6197382 C182.99,13.1197382 183.29,12.7197382 183.69,12.7197382 L190.79,12.7197382 C191.29,12.7197382 191.69,13.1197382 191.69,13.6197382 L191.69,36.7197382 C191.69,40.1597382 193.89,42.2897382 197.59,42.2897382 C202.09,42.2897382 203.59,39.7497382 203.59,34.9897382 L203.59,13.5197382 C203.59,13.0197382 203.89,12.6197382 204.29,12.6197382 L211.29,12.6197382 C211.79,12.6197382 212.19,13.0197382 212.19,13.5197382 L212.19,34.1197382 C212.19,43.2197382 204.79,46.2797382 197.49,46.2797382 M113.39,45.6597382 L106.29,45.6597382 C105.89,45.6597382 105.59,45.2797382 105.59,44.7597382 L105.59,22.7597382 C105.59,20.2597382 105.19,17.3197382 100.39,17.3197382 C97.89,17.3197382 94.89,18.7697382 93.49,19.5697382 L93.49,44.7697382 C93.49,45.2697382 93.19,45.6697382 92.59,45.6697382 L85.59,45.6697382 C85.26,45.6697382 84.89,45.2697382 84.89,44.7697382 L84.89,13.5697382 C84.89,13.0297382 85.29,12.6697382 85.85,12.6697382 L92.85,12.6697382 C93.35,12.6697382 93.77,13.0297382 93.77,13.5697382 L93.77,15.2397382 C95.77,13.8997382 100.27,11.9397382 104.37,11.9397382 C111.47,11.9397382 114.57,16.0397382 114.57,22.0397382 L114.57,44.7697382 C114.57,45.2697382 114.27,45.6697382 113.67,45.6697382 M131.07,46.4697382 C127.57,46.4697382 123.91,45.6197382 121.07,44.3397382 C120.23,43.9097382 120.02,43.2697382 120.02,42.4597382 L120.02,39.5797382 C120.02,38.5497382 120.52,38.2497382 121.22,38.2497382 C121.72,38.2497382 122.22,38.4797382 122.62,38.8497382 C125.62,41.1197382 129.12,42.2197382 131.92,42.2197382 C135.22,42.2197382 137.62,40.8197382 137.62,38.1197382 C137.62,31.8197382 119.22,34.2197382 119.22,22.5597382 C119.22,15.4197382 125.32,12.1897382 132.22,12.1897382 C135.32,12.1897382 138.52,12.8297382 141.52,14.0597382 C142.42,14.4297382 142.62,15.1597382 142.62,15.9597382 L142.62,18.3897382 C142.62,19.4097382 142.22,19.7097382 141.52,19.7097382 C141.22,19.7097382 140.62,19.4097382 140.12,19.1097382 C137.52,17.3097382 134.02,16.3097382 131.02,16.3097382 C128.02,16.3097382 125.62,17.4097382 125.62,19.8097382 C125.62,25.6097382 144.42,22.9097382 144.42,34.5097382 C144.42,43.3097382 138.02,46.3097382 131.32,46.3097382 M226.82,45.4097382 L219.82,45.4097382 C219.47,45.4097382 219.12,45.0097382 219.12,44.5097382 L219.12,13.5097382 C219.12,13.0097382 219.47,12.6097382 219.82,12.6097382 L226.62,12.6097382 C227.17,12.6097382 227.52,13.0097382 227.52,13.5097382 L227.67,17.4097382 C227.71,17.4097382 227.72,17.4097382 227.73,17.3097382 C229.13,15.2097382 232.43,11.9097382 236.48,11.9097382 C237.45,11.9097382 238.28,11.9097382 239.68,12.2097382 C240.68,12.4097382 241.18,13.0097382 241.18,13.7097382 L241.18,18.3097382 C241.18,18.8097382 240.72,19.3097382 240.18,19.3097382 C239.38,19.3097382 238.68,19.0097382 237.73,18.7097382 C236.78,18.5097382 235.68,18.4097382 234.58,18.4097382 C231.18,18.4097382 227.78,19.7097382 227.78,24.4097382 L227.78,44.2097382 C227.78,44.7097382 227.43,45.1097382 226.93,45.1097382 M277.43,11.9097382 C275.73,12.4097382 279.13,8.30973818 278.58,6.10973818 C277.98,4.00973818 275.55,1.10973818 277.28,0.449738176 C278.98,-0.220261824 282.18,-0.210261824 283.08,0.949738176 C285.08,4.78973818 282.38,11.0997382 277.41,11.8497382 L277.43,11.9097382 Z M293,46.4197382 C289.44,46.4197382 285.82,45.5597382 283,44.2797382 C282.14,43.8797382 281.93,43.2297382 281.93,42.4197382 L281.93,39.5597382 C281.93,38.5297382 282.38,38.2297382 283.1,38.2297382 C283.64,38.2297382 284.1,38.5297382 284.5,38.8297382 C287.47,41.1297382 290.96,42.2297382 293.8,42.2297382 L293.84,42.2297382 C297.06,42.2297382 299.54,40.8297382 299.54,38.1297382 C299.54,31.8297382 281.04,34.2297382 281.04,22.6297382 C281.04,15.5297382 287.14,12.3297382 294.04,12.3297382 C297.14,12.3297382 300.4,12.9297382 303.34,14.2297382 C304.24,14.6297382 304.44,15.3297382 304.44,16.1297382 L304.44,18.6297382 C304.44,19.6297382 304.01,19.9297382 303.24,19.9297382 C302.91,19.9297382 302.31,19.6297382 301.88,19.3297382 C299.28,17.5297382 295.74,16.5297382 292.8,16.5297382 C289.8,16.5297382 287.4,17.6297382 287.4,20.0297382 C287.4,25.8297382 306.1,23.2297382 306.1,34.8297382 C306.1,43.6297382 299.7,46.7297382 292.98,46.7297382" id="Shape"></path>
        </g>
    </g>
</svg>