<svg width="850" height="500" viewBox="0 0 850 500" fill="none" xmlns="http://www.w3.org/2000/svg">
<g clip-path="url(#clip0_1_41)">
<path d="M0.100006 0.900047H12.3V499.3H0.100006V0.900047ZM108.2 261.6H84.7V338.2H108.2C118.3 338.2 125.8 334.9 131 328.4C136.1 321.9 138.7 312.2 138.7 299.5C138.7 287.3 136.1 277.9 130.9 271.4C125.6 264.8 118.1 261.6 108.2 261.6ZM71.1 350.4V250H109.4C123.4 250 134.1 254.2 141.6 262.5C149 270.9 152.7 282.9 152.7 298.7C152.7 315 148.9 327.7 141.1 336.8C133.4 345.9 122.6 350.4 108.8 350.4H71.1V350.4ZM175 307.3H215.1C215.1 300.5 213.3 295.2 209.9 291.5C206.5 287.8 201.7 285.9 195.4 285.9C189.4 285.9 184.6 287.7 181.1 291.4C177.6 295 175.6 300.3 175 307.3ZM214.8 326.8H227C225.7 334.8 222.2 341.2 216.5 345.8C210.8 350.4 203.7 352.8 195 352.8C184.9 352.8 176.9 349.4 171 342.6C165.1 335.8 162.2 326.5 162.2 314.7C162.2 302.2 165.1 292.5 170.9 285.5C176.7 278.5 184.7 275 195 275C205.5 275 213.6 278.2 219.4 284.7C225.1 291.2 228 300.3 228 312C228 313.5 228 314.6 228 315.3C228 316 227.9 316.7 227.8 317.4H175.1C175.2 325.1 177.1 331 180.8 335.2C184.5 339.4 189.6 341.5 196.1 341.5C201.1 341.5 205.2 340.2 208.5 337.6C211.8 335.2 213.9 331.6 214.8 326.8ZM250.5 314.4C250.5 323.5 252.3 330.3 255.9 334.9C259.5 339.5 264.9 341.8 272.2 341.8C279.1 341.8 284.4 339.3 288.2 334.3C292 329.3 293.8 322.2 293.8 312.9C293.8 304.6 291.9 298 288 293.3C284.1 288.5 278.8 286.1 272.1 286.1C265.2 286.1 259.9 288.6 256.1 293.5C252.4 298.3 250.5 305.3 250.5 314.4ZM238.9 377.9V277.4H250.9V287.7C253.9 283.3 257.4 280.1 261.2 278.1C265 276.1 269.5 275 274.7 275C284.4 275 292.2 278.5 298 285.5C303.8 292.5 306.7 301.9 306.7 313.7C306.7 325.6 303.8 335.1 297.9 342.1C292 349.1 284.3 352.7 274.6 352.7C269.5 352.7 265 351.8 261.1 349.9C257.2 348.1 253.8 345.3 251 341.5V377.9H238.9V377.9ZM362.6 340.7C358.8 344.7 354.7 347.7 350.4 349.7C346.1 351.7 341.4 352.7 336.7 352.7C329.2 352.7 323.4 350.8 319.2 346.9C315 343 312.9 337.6 312.9 330.8C312.9 324.2 315 319 319.1 315.2C323.2 311.4 329.5 309 337.9 307.9C340 307.7 342.9 307.4 346.6 306.9C352.8 306.3 356.7 305.6 358.1 305.1C359.5 304.6 360.4 303.8 360.9 303C361.4 302.1 361.6 300.2 361.6 297.2C361.6 293.5 360.2 290.7 357.5 288.8C354.8 286.9 350.7 286 345.2 286C339.5 286 335.2 287.1 332.3 289.4C329.4 291.7 328 295 328 299.5H316.4V299C316.4 291.6 319 285.8 324.2 281.5C329.4 277.2 336.5 275.1 345.6 275.1C355.4 275.1 362.6 276.9 367.2 280.6C371.8 284.3 374.1 290 374.1 297.8V334.4C374.1 337.5 374.4 339.6 375.1 340.5C375.8 341.4 377 341.9 378.8 341.9C379.2 341.9 379.6 341.9 380.1 341.8C380.6 341.7 381.2 341.6 382 341.5V351C380.5 351.4 379.2 351.7 378.1 351.9C377 352.1 375.9 352.1 374.9 352.1C370.8 352.1 367.7 351.2 365.7 349.4C363.7 347.6 362.6 344.9 362.6 341.4V340.7ZM361.4 313.3C358.1 315.1 352.5 316.5 344.6 317.5C341.8 317.9 339.7 318.2 338.3 318.4C333.8 319.1 330.6 320.4 328.7 322.4C326.7 324.3 325.8 327.1 325.8 330.7C325.8 334.3 326.9 337.1 329.2 339.1C331.5 341.1 334.7 342 338.9 342C345.5 342 350.9 340.3 355.1 337C359.3 333.7 361.4 329.4 361.4 324.3V313.3ZM389.5 350.4V277.4H401.4V290.5C403.3 285.6 406 281.9 409.3 279.5C412.6 277.1 416.7 275.8 421.6 275.8C422.5 275.8 423.2 275.8 423.6 275.8C424 275.8 424.4 275.9 424.8 276V289C424.4 288.9 424.1 288.9 423.7 288.9C423.3 288.9 422.7 288.9 421.9 288.9C415.4 288.9 410.4 290.7 406.9 294.3C403.5 297.9 401.8 303.1 401.8 309.9V350.5L389.5 350.4ZM458.5 332C458.5 335.3 459 337.5 459.9 338.6C460.8 339.7 462.6 340.2 465.1 340.2C465.8 340.2 466.7 340.2 467.7 340.1C468.7 340.1 470.1 340 471.7 339.8V350.2C469.7 350.6 467.8 350.8 466.2 351C464.6 351.2 463.1 351.3 461.9 351.3C456.1 351.3 452.1 350.2 449.8 348C447.5 345.8 446.3 341.8 446.3 336.1V287.1H435.4V277.3H446.3V257H458.6V277.4H471.8V287.2H458.6L458.5 332ZM571.7 350.4V305.5C571.7 298.1 570.7 293.1 568.7 290.4C566.7 287.7 563.2 286.3 558.3 286.3C552.4 286.3 547.8 288.1 544.5 291.8C541.2 295.5 539.6 300.6 539.6 307.2V350.4H527.1V305.5C527.1 298.1 526.1 293.1 524.1 290.4C522.1 287.7 518.6 286.3 513.7 286.3C507.8 286.3 503.2 288.2 499.9 291.9C496.6 295.6 494.9 300.7 494.9 307.3V350.5H482.6V277.5H494.3V287.8C497 283.7 500.3 280.7 504 278.7C507.7 276.7 512.1 275.7 517.1 275.7C521.6 275.7 525.5 276.6 528.8 278.5C532 280.3 534.8 283.2 537.1 287.2C540.3 283.2 543.8 280.3 547.5 278.5C551.3 276.7 555.6 275.7 560.5 275.7C565.2 275.7 569.3 276.6 572.8 278.3C576.3 280 579 282.5 580.9 285.7C581.9 287.6 582.7 289.8 583.1 292.4C583.6 295 583.8 299.1 583.8 304.7V350.7L571.7 350.4ZM608.3 307.3H648.4C648.4 300.5 646.6 295.2 643.2 291.5C639.8 287.8 635 285.9 628.7 285.9C622.7 285.9 617.9 287.7 614.4 291.4C611 295 608.9 300.3 608.3 307.3ZM648.2 326.8H660.3C659 334.8 655.5 341.2 649.8 345.8C644.1 350.4 637 352.8 628.3 352.8C618.2 352.8 610.2 349.4 604.3 342.6C598.4 335.8 595.5 326.5 595.5 314.7C595.5 302.2 598.4 292.5 604.2 285.5C610 278.5 618 275 628.3 275C638.8 275 646.9 278.2 652.7 284.7C658.5 291.2 661.3 300.3 661.3 312C661.3 313.5 661.3 314.6 661.3 315.3C661.3 316 661.2 316.7 661.1 317.4H608.4C608.5 325.1 610.4 331 614.1 335.2C617.8 339.4 622.9 341.5 629.4 341.5C634.4 341.5 638.5 340.2 641.8 337.6C645.1 335.2 647.2 331.6 648.2 326.8ZM719.2 350.4V305.5C719.2 298.3 718.1 293.4 715.9 290.6C713.7 287.8 709.9 286.5 704.5 286.5C697.6 286.5 692.3 288.4 688.5 292.3C684.7 296.2 682.8 301.7 682.8 308.8V350.4H670.5V277.4H682.2V288C685 283.8 688.4 280.6 692.2 278.6C696.1 276.6 700.5 275.5 705.6 275.5C711.1 275.5 715.7 276.3 719.5 278C723.3 279.7 726.2 282.1 728.2 285.5C729.3 287.3 730.2 289.4 730.7 291.7C731.2 294.1 731.5 297.9 731.5 303.1V350.4H719.2ZM762.3 332C762.3 335.3 762.8 337.5 763.7 338.6C764.6 339.7 766.4 340.2 768.9 340.2C769.6 340.2 770.5 340.2 771.5 340.1C772.5 340 773.9 340 775.5 339.8V350.2C773.5 350.6 771.6 350.8 770 351C768.4 351.2 766.9 351.3 765.7 351.3C759.9 351.3 755.9 350.2 753.6 348C751.3 345.8 750.1 341.8 750.1 336.1V287.1H739.2V277.3H750V257H762.3V277.4H775.5V287.2H762.3V332ZM74.1 497.5V434.2H62.1V424.5H74.1V413.7C74.1 407.7 75.5 403.1 78.2 400.1C80.9 397.1 85.1 395.6 90.6 395.6C91.5 395.6 92.6 395.7 93.9 395.8C95.2 395.9 97.1 396.2 99.7 396.6V407.6C98.4 407.4 97.3 407.2 96.4 407.1C95.5 407 94.8 406.9 94.3 406.9C91.4 406.9 89.4 407.7 88.3 409.3C87.2 410.9 86.6 413.9 86.6 418.4V424.5H99.8V434.2H86.6V497.5H74.1ZM114.9 460.9C114.9 469.9 116.8 476.9 120.7 481.7C124.6 486.5 130.1 488.9 137.4 488.9C144.6 488.9 150.1 486.5 153.9 481.7C157.7 476.9 159.6 470 159.6 460.9C159.6 451.9 157.7 445 153.9 440.2C150.1 435.4 144.6 433 137.4 433C130.1 433 124.6 435.4 120.7 440.2C116.8 444.9 114.9 451.8 114.9 460.9ZM102.3 460.9C102.3 448.7 105.4 439.1 111.5 432.3C117.6 425.5 126.2 422.1 137.2 422.1C148.3 422.1 156.9 425.5 163 432.3C169.1 439.1 172.2 448.6 172.2 460.9C172.2 473.2 169.1 482.7 163 489.5C156.9 496.3 148.3 499.7 137.3 499.7C126.2 499.7 117.6 496.3 111.4 489.5C105.4 482.8 102.3 473.2 102.3 460.9ZM182.5 497.5V424.5H194.4V437.6C196.4 432.7 199 429 202.3 426.6C205.6 424.2 209.7 422.9 214.6 422.9C215.5 422.9 216.2 422.9 216.6 422.9C217 422.9 217.4 423 217.8 423.1V436.1C217.4 436.1 217.1 436 216.7 436C216.3 436 215.7 436 214.9 436C208.3 436 203.4 437.8 199.9 441.4C196.5 445 194.8 450.2 194.8 457V497.6L182.5 497.5ZM267 497.5V397.1H338.6V409.6H280.5V439.6H334.2V451.3H280.5V485H339.8V497.6L267 497.5ZM398.7 460.5C398.7 451.5 396.9 444.6 393.2 440C389.5 435.4 384.1 433.1 376.9 433.1C370 433.1 364.6 435.6 360.9 440.6C357.1 445.6 355.2 452.7 355.2 462C355.2 470.3 357.1 476.9 361 481.6C364.9 486.4 370.2 488.8 377 488.8C383.9 488.8 389.2 486.3 393 481.4C396.8 476.6 398.7 469.6 398.7 460.5ZM410.1 397.1V497.5H398.2V488.3C395.1 492.1 391.5 495 387.6 496.9C383.6 498.8 379.3 499.8 374.5 499.8C364.8 499.8 357 496.3 351.2 489.3C345.4 482.3 342.5 473 342.5 461.2C342.5 449.2 345.4 439.7 351.2 432.7C357 425.6 364.8 422.1 374.5 422.1C379.6 422.1 384.1 423 388 424.9C391.9 426.8 395.3 429.6 398.2 433.4V397.1H410.1ZM437 424.5V469.3C437 476.5 438.1 481.5 440.4 484.3C442.7 487.1 446.5 488.5 451.8 488.5C458.9 488.5 464.3 486.4 467.9 482.3C471.5 478.1 473.3 472 473.3 463.9V424.6H485.6V497.6H473.9V486.7C471.4 490.9 468.1 494.1 464 496.2C460 498.3 455.2 499.4 449.7 499.4C444.6 499.4 440.2 498.5 436.4 496.8C432.6 495.1 429.7 492.6 427.7 489.4C426.6 487.6 425.7 485.5 425.2 483.2C424.7 480.8 424.4 477 424.4 471.8V424.5H437ZM549.1 448.7C548.7 443.7 546.9 439.8 543.7 437.1C540.5 434.4 536 433 530.4 433C523.8 433 518.6 435.4 515 440.2C511.4 445 509.6 451.8 509.6 460.7C509.6 469.6 511.3 476.5 514.8 481.3C518.3 486.1 523.2 488.5 529.6 488.5C535.3 488.5 539.9 487 543.3 484.1C546.7 481.2 548.9 476.9 549.7 471.2H561.4C560.8 480.2 557.6 487.1 551.9 492.2C546.2 497.2 538.6 499.7 529 499.7C519 499.7 511.1 496.3 505.4 489.4C499.7 482.5 496.8 473.1 496.8 461.2C496.8 449 499.8 439.4 505.7 432.5C511.7 425.6 519.8 422.1 530.3 422.1C539.5 422.1 546.8 424.5 552.4 429.3C557.9 434.1 560.9 440.6 561.2 448.8L549.1 448.7ZM618.4 487.7C614.6 491.7 610.5 494.7 606.2 496.7C601.9 498.7 597.2 499.7 592.5 499.7C585 499.7 579.2 497.8 575 493.9C570.8 490 568.7 484.6 568.7 477.8C568.7 471.2 570.8 466 574.9 462.2C579 458.4 585.3 456 593.7 454.9C595.8 454.7 598.7 454.4 602.4 453.9C608.6 453.3 612.5 452.7 613.9 452.1C615.3 451.6 616.2 450.8 616.7 450C617.2 449.1 617.4 447.2 617.4 444.2C617.4 440.5 616 437.7 613.3 435.8C610.6 433.9 606.5 433 601 433C595.3 433 591 434.1 588.1 436.4C585.2 438.7 583.8 442 583.8 446.5H572.2V446C572.2 438.6 574.8 432.8 580 428.5C585.2 424.2 592.3 422.1 601.4 422.1C611.2 422.1 618.4 423.9 623 427.6C627.6 431.3 629.9 437 629.9 444.7V481.2C629.9 484.3 630.2 486.4 630.9 487.3C631.6 488.2 632.8 488.7 634.6 488.7C635 488.7 635.4 488.7 635.9 488.6C636.4 488.5 637 488.4 637.8 488.3V497.8C636.3 498.2 635 498.5 633.9 498.7C632.8 498.9 631.7 498.9 630.7 498.9C626.6 498.9 623.5 498 621.5 496.2C619.5 494.4 618.4 491.7 618.4 488.2V487.7ZM617.2 460.3C613.9 462.1 608.3 463.5 600.4 464.5C598.3 464.8 596.2 465.1 594.1 465.4C589.6 466.1 586.4 467.4 584.5 469.4C582.5 471.3 581.6 474.1 581.6 477.7C581.6 481.3 582.7 484.1 585 486.1C587.3 488.1 590.5 489 594.7 489C601.3 489 606.7 487.3 610.9 484C615.1 480.7 617.2 476.4 617.2 471.3V460.3ZM661 479.1C661 482.4 661.5 484.5 662.4 485.6C663.3 486.7 665 487.2 667.6 487.2C668.3 487.2 669.2 487.2 670.2 487.1C671.2 487.1 672.6 487 674.2 486.8V497.2C672.2 497.6 670.3 497.8 668.7 498C667.1 498.2 665.6 498.3 664.4 498.3C658.6 498.3 654.6 497.2 652.3 495C650 492.8 648.8 488.8 648.8 483.1V434.1H637.9V424.4H648.8V404H661V424.4H674.2V434.1H661V479.1ZM684.7 411V397H697V411H684.7ZM684.7 497.5V424.5H697V497.5H684.7ZM720.5 460.9C720.5 469.9 722.4 476.9 726.3 481.7C730.2 486.5 735.7 488.9 743 488.9C750.2 488.9 755.7 486.5 759.5 481.7C763.3 476.9 765.2 470 765.2 460.9C765.2 451.9 763.3 445 759.5 440.2C755.7 435.4 750.2 433 743 433C735.7 433 730.2 435.4 726.3 440.2C722.4 444.9 720.5 451.8 720.5 460.9ZM707.9 460.9C707.9 448.7 711 439.1 717.1 432.3C723.2 425.5 731.8 422.1 742.8 422.1C753.9 422.1 762.5 425.5 768.6 432.3C774.7 439.1 777.8 448.6 777.8 460.9C777.8 473.2 774.7 482.7 768.6 489.5C762.5 496.3 753.9 499.7 742.9 499.7C731.8 499.7 723.2 496.3 717.1 489.5C711 482.8 707.9 473.2 707.9 460.9ZM837.5 497.5V452.6C837.5 445.4 836.4 440.5 834.2 437.7C832 434.9 828.2 433.6 822.8 433.6C815.9 433.6 810.6 435.5 806.8 439.4C803 443.3 801.1 448.8 801.1 455.9V497.5H788.8V424.5H800.5V435.1C803.3 430.9 806.7 427.7 810.5 425.7C814.4 423.7 818.8 422.6 823.9 422.6C829.4 422.6 834 423.4 837.8 425.1C841.6 426.8 844.5 429.2 846.5 432.6C847.6 434.4 848.5 436.4 849 438.8C849.5 441.2 849.8 445 849.8 450.2V497.5H837.5ZM164.7 32.4C163.6 34.6 162.6 35.9 162.7 37.5C162.9 39.2 164.6 40.4 165.5 42.1C166.3 40.1 167.5 38.6 167.4 37.1C167.2 35.6 165.1 33.5 164.7 32.4ZM194 32.4C195.1 34.6 196.1 35.9 196 37.5C195.8 39.2 194.1 40.4 193.2 42.1C192.4 40.1 191.2 38.6 191.3 37.1C191.5 35.6 193.6 33.5 194 32.4ZM147.8 31.1C148.9 31.1 149.8 30.2 149.8 29.1C149.8 28 148.9 27.1 147.8 27.1C146.7 27.1 145.8 28 145.8 29.1C145.8 30.2 146.7 31.1 147.8 31.1ZM149.1 34C149.1 32.9 148.2 32 147.1 32C146 32 145.1 32.9 145.1 34C145.1 35.1 146 36 147.1 36C148.2 36 149.1 35.1 149.1 34ZM150.1 38.8C150.1 37.7 149.2 36.8 148.1 36.8C147 36.8 146.1 37.7 146.1 38.8C146.1 39.9 147 40.8 148.1 40.8C149.2 40.8 150.1 39.9 150.1 38.8ZM158.8 21.7C159.9 21.7 160.8 20.8 160.8 19.7C160.8 18.6 159.9 17.7 158.8 17.7C157.7 17.7 156.8 18.6 156.8 19.7C156.8 20.8 157.7 21.7 158.8 21.7ZM153.8 23.2C154.9 23.2 155.8 22.4 155.9 21.3C155.9 20.2 155.1 19.3 154 19.2C153.9 19.2 153.9 19.2 153.8 19.2C152.7 19.3 151.9 20.2 151.9 21.3C152 22.4 152.8 23.2 153.8 23.2ZM150 26.6C151.1 26.6 152 25.7 152 24.6C152 23.5 151.1 22.6 150 22.6C148.9 22.6 148 23.5 148 24.6C148 25.7 148.9 26.6 150 26.6ZM163.9 22.2C165 22.2 165.9 21.3 165.9 20.2C165.9 19.1 165 18.2 163.9 18.2C162.8 18.2 161.9 19.1 161.9 20.2C162 21.3 162.9 22.2 163.9 22.2ZM168.9 23.6C170 23.6 170.9 22.7 170.9 21.6C170.9 20.5 170 19.6 168.9 19.6C167.8 19.6 166.9 20.5 166.9 21.6C166.9 22.7 167.8 23.6 168.9 23.6ZM173.5 25.8C174.6 25.8 175.5 24.9 175.5 23.8C175.5 22.7 174.6 21.8 173.5 21.8C172.4 21.8 171.5 22.7 171.5 23.8C171.5 24.9 172.4 25.8 173.5 25.8ZM208.8 29.2C208.8 30.3 209.7 31.2 210.8 31.2C211.9 31.2 212.8 30.3 212.8 29.2C212.8 28.1 211.9 27.2 210.8 27.2C209.7 27.2 208.8 28.1 208.8 29.2ZM211.5 32C210.4 32 209.5 32.9 209.5 34C209.5 35.1 210.4 36 211.5 36C212.6 36 213.5 35.1 213.5 34C213.5 32.9 212.6 32 211.5 32ZM210.5 36.8C209.4 36.8 208.5 37.7 208.5 38.8C208.5 39.9 209.4 40.8 210.5 40.8C211.6 40.8 212.5 39.9 212.5 38.8C212.5 37.7 211.6 36.8 210.5 36.8ZM199.9 21.7C201 21.7 201.9 20.8 201.9 19.7C201.9 18.6 201 17.7 199.9 17.7C198.8 17.7 197.9 18.6 197.9 19.7C197.9 20.8 198.8 21.7 199.9 21.7ZM204.8 23.2C205.8 23.7 207 23.3 207.5 22.3C208 21.3 207.6 20.1 206.6 19.6C205.6 19.1 204.4 19.5 203.9 20.5C203.4 21.5 203.8 22.7 204.8 23.2ZM208.7 26.6C209.8 26.6 210.7 25.7 210.7 24.6C210.7 23.5 209.8 22.6 208.7 22.6C207.6 22.6 206.7 23.5 206.7 24.6C206.7 25.7 207.6 26.6 208.7 26.6ZM194.7 22.2C195.8 22.2 196.7 21.3 196.7 20.2C196.7 19.1 195.8 18.2 194.7 18.2C193.6 18.2 192.7 19.1 192.7 20.2C192.7 21.3 193.6 22.2 194.7 22.2ZM189.8 23.6C190.9 23.6 191.8 22.7 191.8 21.6C191.8 20.5 190.9 19.6 189.8 19.6C188.7 19.6 187.8 20.5 187.8 21.6C187.8 22.7 188.7 23.6 189.8 23.6ZM183.2 23.8C183.3 24.9 184.2 25.7 185.3 25.7C186.3 25.6 187.1 24.8 187.2 23.8C187.2 22.7 186.3 21.8 185.2 21.8C184.1 21.8 183.2 22.7 183.2 23.8ZM175.9 34.5H178.1V26C177.3 25.9 176.6 25.7 175.9 25.3V34.5ZM182.7 25.3C182 25.6 181.3 25.9 180.5 26V34.5H182.7V25.3ZM178 16V11C175.5 11.5 173.6 13.5 173.1 16H178ZM180.6 16H185.4C185 13.5 183.1 11.5 180.6 11V16ZM173.2 18.4C173.9 21.8 177.3 23.9 180.6 23.1C183 22.6 184.8 20.7 185.3 18.4H173.2ZM182.7 10.1C181.3 9.00004 180.2 7.40004 180 5.70004C181.6 6.00004 183.4 7.20004 184.5 8.60004V1.80005C183.4 3.20005 181.6 4.40004 180 4.70004C180.2 3.00004 181.2 1.50005 182.6 -0.199951H176C177.4 1.50005 178.4 3.00004 178.6 4.70004C177 4.40004 175.2 3.20005 174.1 1.80005V8.60004C175.2 7.20004 177 6.00004 178.6 5.70004C178.4 7.40004 177.3 9.00004 175.9 10.1H182.7ZM190 146.2C183.8 144.6 176.3 142 169.4 138.8V138.7C169.6 137.3 169.1 135.7 168 134.5C166.9 133.3 165.5 132.6 164.1 132.6C163.5 132.6 162.8 132.7 162.2 133C161.2 132.1 160.2 131.1 159.3 130.1C156.7 127 154.6 123.4 153.2 119.5C152.4 117.2 151.8 114.9 151.4 112.4C151.1 114.4 148.8 117.1 144.9 117.1C145 116.7 144.9 115.7 144.6 115.6C143.6 116.7 142 118 138.5 116.7C139 119.5 139.8 122.2 140.8 124.8C142.8 130.3 145.9 135.4 149.8 139.8C151.1 141.2 152.4 142.6 153.8 143.8C153.8 144.1 153.8 144.3 153.8 144.6C153.8 146.1 155.2 148.4 157.2 149.4C158.9 150.2 160.7 150 162.3 148.8C165.3 150.4 169.2 151.9 173.3 153.1C178 154.4 182.5 155.1 186 155.1C189 155.1 193.1 153.7 197 151.2C198.6 150.2 200.1 149.1 201.2 148C201.4 147.9 201.5 147.7 201.6 147.6C198.5 148.1 193.8 147.2 190 146.2ZM167.2 136.9L166.5 136.4C165.3 135.5 164.3 135.5 163.2 136.4C162.7 136.8 162.2 137.4 161.8 137.9L161.1 138.7L161.6 139.1C162.9 140.1 163.1 141.2 162.7 141.9C162.6 142.2 162.3 142.3 162 142.4C161.4 142.6 160.5 142.3 159.6 141.8L159.1 141.5L158.8 142L158.6 142.4C158.5 142.6 158.4 142.7 158.3 142.9C157.8 143.9 157.5 144.6 157.5 145.2C157.5 145.4 157.5 145.5 157.6 145.7C157.8 146.4 158.4 146.7 158.8 147H159C159.6 147.4 160.4 147.8 161 148.2C159.9 148.8 158.7 148.9 157.6 148.3C155.9 147.5 154.8 145.5 154.8 144.5C154.8 143 155.5 141.1 156.7 139.2L156.9 138.9L156.7 138.6C156.4 138.1 156.1 137.5 155.8 136.9C156.4 137 157.1 137.1 157.7 137.3L158 137.4L158.2 137.2C159 136.4 161.6 133.7 164 133.7C165.1 133.7 166.2 134.3 167.1 135.2C167.7 135.9 168.1 136.8 168.2 137.6C167.9 137.4 167.5 137.2 167.2 136.9ZM171.2 148.7C169.7 148.7 168.5 147.5 168.5 146C168.5 144.5 169.7 143.3 171.2 143.3C172.7 143.3 173.9 144.5 173.9 146C173.9 147.5 172.7 148.7 171.2 148.7ZM182.9 152.4C181.5 152.4 180.5 151.2 180.5 149.9C180.5 148.6 181.6 147.6 182.9 147.5C184.2 147.5 185.3 148.6 185.3 149.9C185.3 151.3 184.3 152.4 182.9 152.4ZM186.1 164.7C185.6 164.7 185.2 164.8 184.8 164.9V157.4C181.1 157.2 177.5 156.7 173.9 155.8V164.9C173.5 164.8 173 164.7 172.6 164.7C170 164.7 168.4 166.9 168.4 168.9C168.4 170.8 169.5 172.6 170.5 173.7C171 172.5 171.4 171.6 172.1 171.6C173.4 171.6 172.8 178.1 176.6 178.3C176.5 178.6 176.4 179 176.4 179.3C176.4 180.9 177.7 182.3 179.4 182.3C181 182.3 182.4 181 182.4 179.3C182.4 179 182.3 178.6 182.2 178.3C186 178.1 185.4 171.6 186.7 171.6C187.3 171.6 187.8 172.5 188.3 173.7C189.3 172.6 190.4 170.8 190.4 168.9C190.4 166.9 188.8 164.7 186.1 164.7ZM179.4 181C178.5 181 177.7 180.3 177.7 179.3C177.7 178.4 178.4 177.6 179.4 177.6C180.3 177.6 181.1 178.3 181.1 179.3C181 180.2 180.3 181 179.4 181ZM188.3 171.5C187.9 170.7 187.2 170.2 186.6 170.2C184 170.2 185 176.9 182 176.9C180.7 176.9 180 176 180 175.1C180 174.2 180.7 173.9 180.7 173.1C180.7 172.3 180.1 172.1 179.4 172.1C178.8 172.1 178.1 172.4 178.1 173.1C178.1 173.9 178.8 174.1 178.8 175.1C178.8 176.1 178.1 176.9 176.8 176.9C173.8 176.9 174.8 170.2 172.2 170.2C171.6 170.2 171 170.7 170.5 171.5C170 170.5 169.7 169.6 169.7 168.9C169.7 167.7 170.6 166 172.6 166C176 166 175.2 170.6 176.8 170.6C177.5 170.6 178.1 170.2 178.1 169.5C178.1 168.2 175.7 166.9 175.7 165C175.7 163.1 177.4 161.5 179.3 160C181.2 161.5 182.9 163.1 182.9 165C182.9 166.9 180.5 168.1 180.5 169.5C180.5 170.2 181 170.6 181.7 170.6C183.3 170.6 182.5 166 185.9 166C187.9 166 188.8 167.7 188.8 168.9C189.1 169.6 188.8 170.6 188.3 171.5Z" fill="black"/>
<path d="M273.8 173.6C273.7 173.2 273.2 173 272.8 173.1C264.1 175.6 253.2 168.4 242.7 161.4C233.9 155.5 225.5 150 218.4 150C215.8 150 213.4 150.6 211.4 151.7C208.9 153.1 207 155.2 205.9 158.1C204.7 161 203.4 163 202.4 164.6C201.2 166.5 200.3 167.9 200.3 169.6C200.3 171 200.9 172.3 202.1 173.5C203.1 174.5 204.6 175.5 206.7 176.6C207.2 176.8 207.6 177 208 177.3C209.7 178.1 210.8 178.7 211 179.7C207.5 181.2 203.1 182.5 198 183.4C192.3 184.4 186 184.9 179.3 184.9C172.7 184.9 166.4 184.4 160.7 183.4C155.6 182.5 151.1 181.3 147.7 179.7C147.8 178.2 148.9 177.7 150.8 176.8C151.3 176.6 151.7 176.4 152.2 176.1C153.9 175.2 155.6 174.3 156.7 173.3C157.9 172.2 158.5 171 158.5 169.6C158.5 167.9 157.6 166.5 156.4 164.6C155.4 163 154.1 161 152.9 158.1C151.7 155.2 149.8 153 147.3 151.7C145.3 150.6 142.9 150 140.3 150C133.2 150 124.8 155.5 116 161.4C105.5 168.4 94.7 175.6 85.9 173.1C85.5 172.9 85 173.2 84.9 173.6C84.7 174 85 174.5 85.4 174.6C88.1 175.8 90.4 177.6 92.7 179.4C95.9 181.9 98.8 184.2 102.1 184.2C105.2 184.2 108.5 183.2 112.6 181.1C116.1 179.3 119.8 176.8 123.3 174.4C130.2 169.7 137.3 164.8 144.1 164.3C143.4 165 142.7 165.6 142.1 166.2C140.1 168 138.4 169.5 138.4 172.7C138.4 175.2 139.2 176.9 140.4 179.4C140.7 180.1 141.1 180.9 141.5 181.8C142.3 183.5 142.6 184.8 143 186.7C143.2 187.5 143.4 188.4 143.7 189.5C144.1 191.1 144.9 194.1 149.9 196.6C155.7 199.5 165.6 201 179.4 201C193.2 201 203.1 199.5 208.9 196.6C213.9 194.1 214.7 191.1 215.1 189.5C215.4 188.4 215.6 187.5 215.8 186.7C216.3 184.9 216.6 183.5 217.3 181.8C217.9 180.6 218.4 179.6 218.9 178.7C219.9 176.8 220.8 175.2 220.8 173C220.8 169.9 219 168.2 216.9 166.3C216.2 165.7 215.5 165 214.8 164.3C221.6 164.8 228.7 169.7 235.6 174.4C239.1 176.8 242.8 179.3 246.3 181.1C250.4 183.2 253.7 184.2 256.8 184.2C260.1 184.2 263 181.9 266.2 179.4C268.5 177.7 270.8 175.8 273.5 174.6C273.7 174.5 273.9 174 273.8 173.6ZM221.3 103.7C220.3 103 218.8 101.5 217.9 99.8001C216.9 97.7001 212.5 89.1001 211.9 88.0001C211.3 87.1001 211 86.2001 211 85.5001C211 84.6001 211.4 83.9001 211.9 83.2001C212.2 82.8001 213.2 81.8001 213.5 81.3001C213.8 80.9001 214 80.5001 214.3 80.3001C212.7 77.6001 211.1 75.5001 209 73.2001C206.5 70.3001 203.6 67.9001 200.5 65.9001C202.2 64.8001 203.8 63.3001 203.8 60.7001C203.8 59.2001 203.2 58.0001 202.1 57.0001C203.8 51.4001 207 44.7001 209.7 41.7001L204.1 39.3001C205.6 41.5001 205.7 44.1001 205.3 45.6001C203.8 44.6001 202.6 43.2001 202.2 41.4001C201.9 43.1001 201 45.9001 200.1 47.5001C201.7 46.7001 203 46.4001 204.7 47.1001C203.8 48.4001 201.3 50.3001 197.6 49.5001C195.6 49.0001 193.6 48.0001 193.7 46.4001C193.7 45.5001 194.4 44.4001 195.7 44.5001C196.9 44.6001 197 46.5001 196.6 47.3001C198.2 46.4001 199.9 41.7001 197.4 41.0001C195.4 40.5001 193.6 43.2001 193 45.2001C192.6 42.7001 191.6 40.3001 189.6 40.4001C187 40.6001 187.9 45.3001 188.8 46.6001C189 44.9001 189.9 44.0001 190.6 44.1001C191.3 44.1001 192.2 44.6001 192 46.1001C191.8 47.6001 189.7 48.6001 187.2 48.6001C184.8 48.6001 180.7 47.9001 180.3 43.3001C181.8 43.6001 184.3 44.8001 185.3 46.3001C185 43.8001 185 41.2001 185.3 38.7001C184 40.5001 181.9 41.4001 180.4 41.7001C180.8 39.7001 182.5 37.7001 184.5 36.4001H174.3C176.3 37.6001 177.9 39.7001 178.4 41.7001C176.9 41.4001 174.8 40.5001 173.6 38.7001C173.9 41.6001 173.9 43.5001 173.6 46.3001C174.6 44.8001 177 43.6001 178.5 43.3001C178.1 47.9001 173.9 48.6001 171.6 48.6001C169.1 48.6001 167 47.7001 166.8 46.1001C166.6 44.6001 167.6 44.1001 168.3 44.1001C169.1 44.0001 170 44.9001 170.1 46.6001C171 45.4001 171.8 40.6001 169.3 40.4001C167.3 40.3001 166.3 42.7001 165.9 45.2001C165.2 43.1001 163.4 40.4001 161.5 41.0001C159 41.7001 160.7 46.4001 162.3 47.3001C161.9 46.5001 162 44.6001 163.2 44.5001C164.5 44.4001 165.1 45.5001 165.2 46.4001C165.3 47.9001 163.3 49.0001 161.3 49.5001C157.6 50.4001 155.2 48.4001 154.2 47.2001C155.9 46.5001 157.2 46.8001 158.8 47.6001C157.9 46.0001 157 43.2001 156.7 41.5001C156.3 43.4001 155 44.8001 153.5 45.8001C153.1 43.6001 153.5 41.3001 154.7 39.4001L149.1 41.8001C151.8 44.8001 154.9 51.5002 156.7 57.1002C155.6 58.1002 155 59.3001 155 60.8001C155 63.4001 156.7 65.0001 158.3 66.0001C155.2 68.1001 152.3 70.5001 149.8 73.3001C145.9 77.7001 142.9 82.7001 140.8 88.2001C141.6 89.0001 144.9 92.7001 145.7 93.7001C147.1 95.5001 147.9 97.2002 148 98.6002C148.1 101.1 148.6 102.1 150 103.9C150.4 104.4 151 106.4 151.1 107.7H179V138C177.9 138.1 176.7 138.4 175.8 139.5C179 140.8 182.1 142 185.2 142.9C185.5 140.9 185.9 139.7 186.9 138.5C186.9 138.5 182.9 138.1 180.7 138V107.7H207.9C207.8 111.8 207.1 115.9 205.7 119.7C204.3 123.6 202.2 127.2 199.6 130.3C197.1 133.3 194 135.7 190.6 137.4C190.1 137.7 190.1 138.1 189.5 138.3C189 138.8 188.5 139.7 188.2 140.8C187.9 141.7 187.7 142.3 187.6 143.6C188.9 144 189.6 144.2 190.8 144.5C200.4 146.9 202.7 146.2 203.3 145.8C205.5 144.1 207.5 142.2 209.3 140.2C213.2 135.8 216.2 130.7 218.3 125.2C220.5 119.4 221.6 113.2 221.6 106.8C221.3 105.2 221.3 104.9 221.3 103.7ZM178.9 105.8H151C151.1 101.5 151.8 97.3001 153.2 93.3001C154.6 89.4001 156.7 85.8001 159.3 82.7001C161.8 79.7001 164.9 77.3002 168.3 75.6002C171.6 74.0002 175.2 73.1001 178.8 73.0001V105.8H178.9ZM179.4 59.3001C170.1 59.3001 163.7 62.0001 160 64.5001C157.8 63.2001 156.9 62.0001 156.9 60.5001C156.9 55.2001 171.8 54.7001 179.4 54.7001C187 54.7001 201.9 55.2001 201.9 60.5001C201.9 62.0001 201 63.2001 198.8 64.5001C195.1 62.1001 188.7 59.3001 179.4 59.3001ZM180.5 105.8V73.0001C183.9 73.2001 187.2 74.0001 190.4 75.5001C193.8 77.2001 196.8 79.6002 199.4 82.6002C202 85.7002 204.1 89.3001 205.5 93.2001C206.9 97.2001 207.7 101.4 207.7 105.7L180.5 105.8Z" fill="black"/>
<path d="M203.5 100.4C204 100.7 203.8 101.5 203.2 101.4C202.6 96.4001 200.8 91.7001 198 87.6001L198.1 87.5001C198.7 87.3001 199.2 86.7001 199.3 86.1001C198.6 86.0001 197.9 86.3001 197.5 86.9001C197.3 86.6001 197.1 86.4001 196.9 86.1001C195.2 84.0001 193.2 82.1001 191 80.6001C189 79.2001 186.8 78.2001 184.4 77.6001C184.4 77.1001 185.1 77.0001 185.4 77.5001C185.5 76.6001 184.7 76.2001 184.3 76.4001C184.1 76.5001 183.9 76.7001 183.8 77.1001C183.5 76.7001 183 76.5001 182.6 76.4001C182.6 77.0001 182.7 77.4001 183 77.7001C182.6 77.7001 182.4 77.9001 182.3 78.1001C182.1 78.5001 182.4 79.3001 183.2 79.4001C182.8 79.1001 183 78.4001 183.5 78.4001V89.1001C182.9 88.9001 182.2 89.1001 181.7 89.6001C182.3 90.2001 182.9 90.2001 183.5 90.1001V101.7C182.9 101.8 182.8 101 183.2 100.7C182.3 100.7 182 101.5 182.2 101.9C182.3 102.2 182.6 102.4 183.1 102.3C182.8 102.6 182.6 103.1 182.6 103.5C183 103.5 183.5 103.3 183.8 103C183.7 103.5 184 103.8 184.2 103.9C184.6 104.1 185.4 103.7 185.4 102.9C185.1 103.3 184.4 103.2 184.4 102.7H192.4C192.2 103.3 192.4 104 192.9 104.5C193.4 103.9 193.5 103.3 193.4 102.7H202.4C202.4 103.3 201.7 103.4 201.4 103C201.4 103.9 202.2 104.2 202.6 104C202.9 103.9 203.1 103.6 203 103.1C203.3 103.4 203.8 103.5 204.2 103.5C204.2 103 204 102.6 203.7 102.3C204.2 102.3 204.5 102.1 204.6 101.9C204.7 101.2 204.3 100.4 203.5 100.4ZM195.7 86.3001C195.5 86.5001 195.3 86.8001 195.4 87.1001C195.5 87.4001 195.7 87.6001 196.2 87.6001C195.9 87.9001 195.6 88.3001 195.6 88.7001C196.1 88.8001 196.6 88.6001 196.9 88.4001C196.8 88.9001 197 89.2001 197.2 89.3001C197.4 89.4001 197.7 89.4001 197.9 89.3001C200 92.7001 201.4 96.4001 202 100.4C201.7 100.2 201.3 100.1 201 100.1C201 100.6 201.2 101 201.5 101.4H194.7C194.7 101 194.5 100.6 194.2 100.5C193.9 100.4 193.6 100.4 193.3 100.8C193.3 100.4 193.1 99.9001 192.8 99.6001C192.5 99.9001 192.3 100.3 192.3 100.8C192 100.4 191.7 100.4 191.4 100.5C191.1 100.6 190.9 101 191 101.4H185.2C185.5 101.1 185.6 100.7 185.6 100.2C185.2 100.2 184.8 100.3 184.4 100.6V91.2001C184.8 91.3001 185.2 91.0001 185.3 90.8001C185.4 90.5001 185.4 90.2001 185 89.9001C185.5 89.9001 185.9 89.7001 186.2 89.4001C185.9 89.1001 185.5 88.9001 185 88.9001C185.4 88.6001 185.4 88.3001 185.3 88.0001C185.2 87.7001 184.8 87.5001 184.4 87.6001V79.6001C184.6 79.8001 185 80.0001 185.4 80.0001C185.4 79.6001 185.3 79.2001 185.1 78.9001C186.9 79.5001 188.7 80.4001 190.4 81.5001C192.3 82.7001 194.1 84.4001 195.7 86.3001Z" fill="black"/>
<path d="M198.7 97.5C199 97.4 199.3 97.1 199.5 96.8C199.1 96.9 198.8 96.7 198.7 96.7C199 96.5 199.3 96.7 199 96.2C198.7 95.7 198.5 95.7 198.1 96C197.8 96.3 195.6 95.9 195.6 94.3C195.8 94.6 196 94.8 196.3 94.9C196.4 94.9 196.5 95 196.6 95C196.7 95 196.8 95 196.9 95C197.1 95.1 197.3 95.1 197.5 95.1H197.6V95C198 94.9 198.4 94.6 198.4 94.1C198.5 93.2 197.6 92.8 196.7 92C196.4 91.7 196.1 91.5 195.8 91.2C195.5 90.6 195.7 90 194.9 88.8C194.8 88.4 194.8 88.1 194.6 87.8C194 88.9 194.2 90.3 195.1 91.2C196 92.2 197.9 93.1 197.9 94C197.9 94.2 197.7 94.4 197.4 94.4C197.3 94.4 197.2 94.4 197.1 94.4C197 94.4 197 94.4 196.9 94.3C196.8 94.3 196.6 94.2 196.5 94.1C196.3 94 196 93.8 195.8 93.6C195 92.8 194.3 91.8 193.8 91.1C192.9 90 193.3 88.8 193.5 87.9C194.1 87 193.1 85.2 192.5 84.8C192.5 84.8 192.6 84.4 192.5 83.9C192.4 84 192.1 84 191.9 84C191.7 83.7 191.7 83.6 191.4 83.6C191 83.5 191 83.3 191 83.2C190.8 83.4 190.7 83.6 190.5 83.6C190.2 83.6 190 83.6 189.9 83.7C189.7 83.9 189.6 84 189.2 83.9C188.8 83.9 188.8 84.1 188.9 84.4C188.9 84.6 188.9 84.8 189.2 84.9H189.3L189.6 85.2L189.8 84.8C190 84.7 190.4 84.6 190.5 85C190.6 85.2 190.6 85.3 190.3 85.3C190 85.3 189.8 85.3 189.5 85.4C189.3 85.4 189.3 85.7 189.3 85.8C189.3 86 189.5 86.1 190 86C190.4 85.9 191.2 85.8 191.2 86.2C191.2 87.2 190.1 87.1 189.9 88.3C189.6 88.1 189.4 87.9 189.2 87.7C189 87.3 188.7 87 188.4 86.7C188.2 86.4 187.9 86.2 187.6 86C187.2 85.8 187.2 85.6 187.2 85.2C187.2 84.9 187.3 84.5 187.3 84.2C187.3 84.2 187.2 84 187.2 83.9C187.1 83.7 186.8 83.5 186.7 83.6C186.8 83.7 186.9 83.7 186.9 83.9C186.8 84 186.8 84.1 186.7 84.1C186.6 84.2 186.6 84.3 186.7 84.4C186.7 84.4 186.7 84.4 186.7 84.5C186.7 84.6 186.7 84.6 186.7 84.7C186.7 84.8 186.7 84.7 186.7 84.7C186.6 84.5 186.5 84.1 186.3 84.1C186.3 84.1 186.2 84.1 186.1 84.1C186.1 83.9 185.8 83.7 185.5 83.9C185.6 83.9 185.7 83.9 185.7 84C185.7 84.1 185.7 84.2 185.6 84.3C185.6 84.5 185.8 84.7 186 84.7H186.1V84.8C185.7 84.6 185.5 84.8 185.5 85C185.5 85 185.5 85.1 185.5 85.2C185.3 85.3 185.3 85.5 185.6 85.7C185.6 85.6 185.6 85.5 185.7 85.4C185.7 85.4 185.7 85.4 185.8 85.4C185.8 85.5 185.9 85.5 185.9 85.5C185.9 85.5 186 85.5 186.1 85.4H186.2L186.3 85.5C186.3 85.5 186.3 85.5 186.3 85.6C186 85.9 186.1 86.1 186.4 86.2C186.2 86.5 185.7 86.4 185.8 85.9C185.4 86.5 186 86.9 186.6 86.7C186.6 86.9 186.6 87.3 186.7 87.4C186.7 87.4 186.7 87.3 186.8 87.3C186.8 87.3 186.8 87.3 186.8 87.4C186.8 87.5 186.9 87.7 187.1 87.7C187.1 87.6 187.1 87.5 187.2 87.5C187.3 87.6 187.4 87.8 187.5 87.9C187.7 88.4 188.3 89.5 189.4 90C188.8 90.3 188.4 90.8 188 91.3C187.7 91.6 187.2 92 186.9 91.8C186.8 91.7 186.7 91.6 186.6 91.5C186.5 91.4 186.3 91.4 186.2 91.4C186.1 91.4 186.1 91.4 186 91.5C185.8 91.4 185.5 91.5 185.4 91.7C185.5 91.7 185.6 91.6 185.8 91.8C185.8 91.9 185.8 92 185.8 92C185.8 92.1 185.9 92.3 186.5 92.3C186.5 92.3 186.6 92.3 186.6 92.4C186.5 92.5 186.4 92.5 186.3 92.5C186 92.4 185.9 92.2 185.7 92.5C185.7 92.6 185.6 92.6 185.6 92.7C185.6 92.7 185.6 92.7 185.5 92.7C185.3 92.8 185 93.2 185.3 93.4C185.3 93.3 185.3 93.1 185.5 93C185.5 93.1 185.6 93.1 185.6 93.1C185.8 93.4 186 93.5 186.4 92.9C186.4 92.8 186.5 92.9 186.4 92.9C186.4 93.2 186.1 93.6 186.5 93.6C186.5 93.6 186.6 93.6 186.7 93.6V93.7C186.8 94 187.2 94.1 187.4 94C187.3 93.9 187.1 93.9 187 93.6C187.1 93.6 187.2 93.6 187.2 93.6C187.4 93.4 187.2 93.1 187.3 93C187.3 92.9 187.4 93 187.4 93C187.5 93.1 187.7 93.4 188 93.2C188.1 93.1 188.2 93 188.2 92.8C188.6 92.6 189 92.5 189.3 92.6C189.2 92.4 189.5 92.1 189.9 92C190.3 91.9 190.5 92 190.7 92.1C190.8 91.8 190.9 91.6 191.1 91.4C191 93.1 193.3 93.1 193.9 94.1C193.2 93.8 192.4 93.6 192 93.7C191.4 93.8 190.5 94.3 190.3 95C190.2 95.5 190.7 96.4 191.3 96.8C190.6 96.9 190.4 96.7 189.8 96.9C189.8 96.9 189.8 96.9 189.7 96.9C189.2 97 189.1 96 188.5 96.3C188.4 96.3 188.4 96.4 188.3 96.4C188.1 96.4 187.7 96.7 187.8 96.9C187.9 96.8 188 96.7 188.2 96.7C188.2 96.8 188.2 96.8 188.2 96.8C188.2 96.9 188.2 97 188.4 97C188.5 97 188.6 96.9 188.6 96.9C188.6 96.9 188.7 96.9 188.7 97C188.7 97.2 187.9 96.9 188.1 97.5C188.1 97.5 188.2 97.6 188.2 97.7C188.2 97.9 188.3 98.1 188.7 98C188.6 98 188.5 97.9 188.5 97.8H188.6C188.6 97.8 188.7 97.8 188.7 97.7C188.7 97.7 188.8 97.7 188.8 97.8V97.9C188.8 97.9 188.8 98.1 188.9 98.1C188.9 98.3 189.2 98.6 189.6 98.3C189.5 98.3 189.3 98.2 189.3 98.1C189.4 98.1 189.4 98.1 189.5 98C189.5 98 189.6 97.9 189.6 97.8C189.6 97.7 189.6 97.7 189.7 97.7C189.7 97.7 189.8 97.7 189.9 97.7C190 97.7 190 97.7 190 97.8C190.1 97.9 190.3 98.1 190.5 98C190.6 98 190.7 97.9 190.7 97.8C190.8 97.9 190.9 97.9 191 98C190.9 97.8 191.1 97.6 191.6 97.9L192 97.6C192 97.6 192.5 97.8 192.7 97.6C193 97.3 192.8 97.3 192.8 97C192.6 96.5 192.4 96.5 192.3 96C192.1 95.1 193.3 94.7 194 94.8C194.1 95.3 194.9 96.8 196.1 97.2C196.9 97.5 197.2 96.6 197.5 96.7C197.6 96.7 197.6 96.8 197.6 96.9C197.6 97.3 197.6 97.6 197.5 97.8C197.4 98 197 97.8 196.7 97.8C196.6 97.8 196.5 97.8 196.4 97.9C196.2 97.9 195.9 98.2 195.9 98.4C196 98.3 196.1 98.2 196.3 98.2V98.3C196.3 98.6 196.7 98.7 196.9 98.5H197C196.8 98.6 196.5 99 196.8 99.1C196.8 99.1 196.9 99.2 197 99.2C197 99.4 197.1 99.6 197.3 99.6C197.2 99.5 197.2 99.4 197.3 99.2C197.4 99.2 197.5 99.2 197.5 99.2C197.7 99.2 197.6 98.8 197.9 98.7C197.9 98.7 198 98.7 197.9 98.7C197.8 98.9 197.8 99.2 198 99.3C198 99.3 198.1 99.3 198.2 99.3C198.3 99.5 198.5 99.6 198.8 99.5C198.7 99.5 198.6 99.4 198.5 99.3C198.6 99.2 198.6 99.1 198.7 99.1C198.9 98.6 198.4 98.6 198.4 98.4C198.4 98.1 198.9 98.3 198.9 97.8V97.7C199.1 97.6 199.4 97.4 199.4 97.2C199.1 97.6 198.9 97.6 198.7 97.5ZM175.7 112.9H175.2V112.5C175.3 110.9 174.3 109.7 172.5 109.7C170.9 109.7 167.9 111.7 163.7 111.7C161.9 111.7 159.8 110.8 158.4 110L157.9 111.3V111.2C157.9 110.6 157.4 110.2 156.9 110.2C156.3 110.2 155.8 110.7 155.9 111.3C155.9 111.9 156.4 112.4 157 112.3C157.3 112.3 157.6 112.2 157.8 111.9L157.3 113.2C157.5 113.3 157.7 113.4 157.9 113.4C157.3 119.8 162 128 170.4 130.5C171.6 130.2 172.9 130.4 172.9 131.7C172.9 132.5 172.5 132.9 171.7 132.9C171.2 132.9 170.9 132.6 170.9 132.3C170.9 131.7 171.9 132.1 172 131.7C172.1 131.2 171.8 131 171.2 131C170.6 131 169.7 131.4 169.7 132.4C169.7 133.6 170.6 134.2 171.6 134.2C172.5 134.2 174.5 133.7 174.2 131.4C174.7 131.4 175.2 131.3 175.3 130.9L175.4 129.6L174.9 129.5L175.3 114.8H175.6C176.1 114.8 176.6 114.6 176.6 114C176.6 113.2 176.2 112.9 175.7 112.9ZM160.6 114L170.8 128.7C165.3 126.6 159.9 121.7 160.6 114ZM171.1 127.3L161.8 113.9C162.1 113.9 162.4 113.9 162.7 113.9C163.2 113.9 163.7 113.9 164.1 113.8L171.5 124.5C171.3 125.6 171.2 126.5 171.1 127.3ZM171.7 123.1L165.1 113.7C165.8 113.5 166.5 113.3 167.2 113.1L172.1 120.1L171.7 123.1ZM173.3 112.7H172.9C172.5 112.7 171.9 112.9 171.9 113.5C171.9 114.1 172.3 114.4 172.8 114.4H173.1L173 114.8C172.9 115.6 172.7 117 172.4 118.6L168.2 112.6C170.1 111.8 171.7 111 172.6 111C173.3 111 173.5 111.3 173.3 112.7ZM173.9 83.2C175.9 83.2 176.9 82.6 176.9 81.9C176.9 79.7 171.4 81.1 171.4 79.7C171.4 79.5 171.6 79.3 171.8 79.1H171.9C174.7 78.8 174.7 77 176.7 76.6C174.3 76.3 174 78.1 173 78.2C173.5 77.9 173.7 77.3 173.7 77.1C173.2 77.7 172.2 77.8 171.6 78.5C171.5 78.6 171.5 78.8 171.5 78.9C171.1 79.1 170.9 79.4 170.9 79.7C170.9 81.8 176.4 80.4 176.4 81.9C176.4 82.4 175.4 82.8 173.9 82.8C172.8 82.8 171.9 82 169.8 82.5C169.8 82.2 170.5 81.5 170.2 81.1C170.4 81 170.6 80.9 170.6 80.7C170.5 80.6 170.3 80.5 170.2 80.5C170.3 80.4 170.2 80.3 170.1 80.2L170 79.9C169.9 79.8 169.8 79.7 169.5 79.6C169.3 79.5 169.1 79.5 169 79.5C168.9 79.5 168.7 79.5 168.7 79.5C168.6 79.5 168.4 79.5 168.4 79.6C168.3 79.5 168.2 79.4 168 79.4C167.9 79.6 167.9 79.8 167.9 80C167.7 80 167.5 80.5 167.3 80.5C167.4 80.6 167.4 80.7 167.5 80.7C167.3 81 167.3 81.3 167.1 81.4C167.1 81.5 167.2 81.5 167.2 81.6C167 82 166.9 82.6 166.9 82.9C166.8 82.8 166.6 82.6 166.4 82.5C166.1 82.3 166.1 82.2 166.2 81.8C166.2 81.5 166.4 81.3 166.4 81C166.4 81 166.4 80.8 166.4 80.7C166.4 80.5 166.1 80.4 166 80.4C166.1 80.5 166.2 80.5 166.1 80.7C166 80.8 166 80.8 165.9 80.8C165.8 80.9 165.8 81 165.9 81.1C165.9 81.1 165.9 81.1 165.9 81.2V81.3C165.9 81.4 165.9 81.3 165.9 81.3C165.9 81.1 165.8 80.8 165.6 80.8C165.6 80.8 165.5 80.8 165.4 80.8C165.4 80.6 165.2 80.4 164.9 80.7C165 80.7 165.1 80.7 165.1 80.8C165 80.9 165 81 165 81C165 81.2 165.1 81.3 165.4 81.3C165.5 81.3 165.5 81.3 165.5 81.3V81.4C165.1 81.2 164.9 81.4 164.9 81.5C164.9 81.5 164.9 81.6 164.9 81.7C164.8 81.8 164.7 82 164.9 82.1C164.9 82 164.9 81.9 165 81.9C165 81.9 165 81.9 165.1 81.9L165.2 82C165.2 82 165.3 82 165.5 81.9H165.6C165.6 81.9 165.7 81.9 165.7 82C165.7 82 165.7 82 165.7 82.1C165.4 82.3 165.4 82.6 165.7 82.6C165.7 82.6 165.8 82.6 165.7 82.7C165.6 83.2 165 83 165.1 82.6C164.7 83.1 165.2 83.5 165.8 83.2H165.9C165.9 83.3 166 83.4 166 83.4C166 83.4 166 83.3 166.1 83.3C166.1 83.3 166.1 83.3 166.1 83.4C166.1 83.5 166.1 83.7 166.3 83.7C166.3 83.6 166.3 83.5 166.4 83.5C166.5 83.5 166.6 83.9 166.9 84.2C166.5 84.4 166.1 84.5 165.7 84.6C165.6 84.6 164.9 84.5 164.7 84.6C164.4 84.8 163.6 85.1 163.4 84.7C163.3 84.6 163.4 84.5 163.3 84.3C163.2 84.2 163.1 84.1 163.1 84.1C163.1 84.1 163 84.1 162.9 84.1C162.8 84 162.5 83.9 162.4 84C162.5 84 162.6 84 162.7 84.2C162.7 84.3 162.6 84.3 162.6 84.4C162.5 84.5 162.6 84.7 163.1 84.8C163.1 84.8 163.2 84.9 163.1 84.9C163 84.9 162.9 84.9 162.8 84.9C162.6 84.7 162.6 84.5 162.4 84.7C162.3 84.7 162.3 84.7 162.2 84.8C162.2 84.8 162.2 84.8 162.1 84.8C161.9 84.8 161.5 85 161.7 85.3C161.7 85.2 161.8 85.1 162 85.1C162 85.2 162 85.2 162.1 85.3C162.1 85.6 162.3 85.7 162.8 85.4C162.9 85.4 162.9 85.4 162.8 85.4C162.7 85.6 162.3 85.8 162.6 86C162.6 86 162.7 86 162.7 86.1C162.6 86.4 163 86.6 163.1 86.6C163 86.5 162.9 86.3 162.9 86.2H163.1C163.3 86.1 163.2 85.8 163.4 85.7H163.5C163.5 85.8 163.6 86.1 163.9 86.1C164.2 86.1 164.3 85.8 164.3 85.7C164.4 85.8 164.5 85.9 164.4 86C164.5 86 164.6 85.9 164.6 85.8C164.7 85.9 164.7 86.1 164.5 86.3C164.6 86.3 164.9 86.1 165 85.8C165 85.8 165.1 85.9 165.1 86C165.2 86 165.4 86.1 165.7 86C165.7 86.1 165.7 86.2 165.7 86.3L165.8 86.2C165.9 86.2 165.8 86.5 166 86.7C166.1 86 166.5 86.2 166.9 85.9C167 85.9 167 85.9 166.9 85.9C166.9 86 166.8 86.1 166.7 86.1C166.9 86.1 167.3 85.9 167.3 85.7C167.3 85.6 167.4 85.6 167.6 85.5C167.8 85.5 168 85.5 168.1 85.3C168.1 85.4 168.2 85.6 168.1 85.7C168.6 85.7 169.1 85.2 169.3 85.1C170.3 84.9 168.7 84.1 170.8 84.3C171 84.3 171.2 84.2 171.4 84.1C171.2 84.4 171.2 85.1 171.6 85.1C171.8 85.1 172 85.2 172.1 85.3C172.1 85.3 172.1 85.3 172.1 85.4C171.9 85.4 171.8 85.5 171.6 85.5C171.1 85.8 171.1 84.7 170.5 84.9L170.4 85C170.2 85 169.9 85.3 169.9 85.5C170 85.4 170.1 85.3 170.2 85.3V85.4C170.2 85.5 170.2 85.6 170.4 85.6C170.5 85.6 170.5 85.6 170.6 85.6H170.7C170.7 85.8 170.1 85.5 170.2 86C170.2 86 170.3 86.1 170.3 86.2C170.3 86.4 170.4 86.5 170.7 86.4C170.7 86.4 170.5 86.3 170.6 86.2C170.7 86.2 170.7 86.2 170.7 86.2C170.7 86.2 170.7 86.2 170.8 86.1C170.8 86.1 170.9 86.1 170.9 86.2L170.8 86.3C170.8 86.3 170.8 86.5 170.9 86.5C170.9 86.7 171.2 86.9 171.5 86.7C171.4 86.7 171.2 86.7 171.2 86.6C171.2 86.6 171.3 86.6 171.3 86.5C171.4 86.5 171.4 86.4 171.4 86.3C171.4 86.3 171.4 86.3 171.5 86.3H171.6C171.7 86.3 171.7 86.3 171.7 86.3C171.7 86.4 171.9 86.5 172.1 86.5C172.5 86.4 172.2 86.1 172.4 86C172.5 86 172.5 86 172.6 86C172.9 86.1 173.3 86.1 173.4 85.9C173.5 85.8 173.4 85.3 173.1 85.1C172.9 85 173.1 84.8 172.9 84.5C173.2 84.6 173.5 84.8 174 84.8C174.8 84.8 174 84.7 174.4 84.5C174.8 84.3 175.2 84.4 175.3 84.4C175.4 84.4 175.5 84.5 175.5 84.6C175.4 85 175.5 85 175.5 85.2C175.4 85.4 175.1 85.2 174.9 85.2C174.8 85.2 174.7 85.3 174.7 85.3C174.5 85.3 174.3 85.5 174.3 85.7C174.4 85.6 174.5 85.6 174.7 85.5V85.6C174.7 85.9 175 86 175.2 85.8H175.3C175.1 85.9 174.9 86.2 175.1 86.3C175.1 86.3 175.2 86.3 175.2 86.4C175.2 86.6 175.3 86.7 175.4 86.8C175.4 86.7 175.3 86.7 175.4 86.5C175.5 86.5 175.5 86.5 175.5 86.5C175.7 86.5 175.6 86.2 175.8 86.1C175.7 86.3 175.7 86.5 175.9 86.6H176C176.1 86.8 176.2 86.9 176.5 86.7C176.5 86.7 176.3 86.6 176.3 86.5C176.3 86.4 176.4 86.4 176.4 86.3C176.5 85.9 176.2 85.9 176.2 85.7C176.2 85.5 176.6 85.6 176.6 85.2C176.6 85.1 176.6 85 176.4 84.9C176.5 84.9 176.6 84.9 176.7 84.8C176.4 84.8 176.5 84.6 176.4 84.4C176.4 84.4 176.4 84.4 176.4 84.3C176.5 84.2 176.6 84.1 176.5 83.9C176.4 84 176.1 84.2 176 83.9C176 83.9 176 83.7 175.7 83.7C175.2 83.7 174.9 83.4 173.9 83.2C173.9 83.3 173.9 83.3 173.9 83.2ZM169.3 80.7C169.5 80.8 169.7 80.9 169.9 81C169.6 81.1 169.7 81.2 169.5 81.2C169.4 81.1 169.3 80.8 169.3 80.7ZM168.9 80.5C168.8 80.7 168.6 80.8 168.5 80.6C168.3 80.5 168.5 80.4 168.3 80.1C168.5 80.3 168.7 80.4 168.9 80.5ZM168.3 81.8C168.3 81.7 168.4 81.6 168.5 81.6C168.6 81.6 168.7 81.6 168.7 81.5C168.8 81.4 168.6 81.3 168.5 81.2C168.6 81.2 168.7 81.1 168.6 81.1C168.5 81 168.4 81.2 168.4 81.1C168.4 81 168.5 81 168.5 81C168.6 80.9 168.6 81 168.7 81L169.2 81.3C169.3 81.3 169.3 81.4 169.3 81.4C169.3 81.5 169.3 81.5 169.3 81.6C169.2 81.6 169.2 81.4 169.2 81.4C169.1 81.4 169.1 81.5 169.2 81.6C169.1 81.5 169 81.5 168.9 81.6C168.8 81.7 168.9 81.8 168.9 81.9C168.9 82 168.9 82.1 168.9 82.2C168.9 82.3 168.7 82.5 168.5 82.4C168.2 82.1 168.2 81.9 168.3 81.8ZM176.7 90.7C176.7 90.1 176 89.7 174.1 89.7C172.1 89.7 167.8 90.4 167.8 89.3C167.8 88.8 168.7 88.8 169.7 88.9C169.8 89 169.9 89.1 170.1 89.1C172.6 89.8 175.6 88.5 177.1 88.9C175.3 87.5 173.8 89 171.9 88.5C173 88.5 173.4 88.2 173.5 87.9C172.6 88.5 171 87.6 170 88.3C169.9 88.3 169.9 88.4 169.8 88.4C168.4 88.4 167.3 88.4 167.3 89.3C167.3 91.2 172.5 90.1 174.2 90.1C175.8 90.1 176.2 90.3 176.2 90.6C176.2 91.1 174.6 91.2 173.7 91.2C172.3 91.2 168 90.5 165.4 91C165.6 90.6 166.1 90 165.8 89.7C166 89.6 166.2 89.4 166.2 89.2C166.1 89.1 165.9 89 165.7 89C165.8 88.9 165.7 88.8 165.6 88.7L165.5 88.4C165.4 88.3 165.2 88.1 164.9 88C164.6 87.9 164.4 87.9 164.3 87.8C164.2 87.8 164 87.9 163.9 87.9C163.8 87.9 163.6 87.9 163.6 88C163.5 87.9 163.3 87.8 163.1 87.8C163 88 163 88.3 163 88.5C162.8 88.5 162.5 89.1 162.3 89C162.4 89.2 162.5 89.2 162.5 89.3C162.3 89.6 162.2 90.1 162 90.1C162.1 90.3 162.2 90.4 162.3 90.4C162.3 90.6 162.3 90.9 162.2 91.2L161.8 91H161.7C161.6 91 161.6 91 161.5 90.9C161.6 90.9 161.6 90.9 161.7 90.9L161.5 90.8C161.3 90.6 161 90.3 160.6 90.1C160.2 89.9 160.2 89.7 160.2 89.3C160.2 88.9 160.4 88.6 160.4 88.3C160.4 88.3 160.3 88.1 160.3 88C160.3 87.8 160 87.6 159.8 87.7C159.9 87.8 160 87.8 160 88C159.9 88.1 159.9 88.1 159.8 88.2C159.7 88.3 159.7 88.4 159.8 88.5C159.8 88.5 159.8 88.5 159.8 88.6C159.8 88.7 159.8 88.7 159.8 88.8C159.8 88.9 159.8 88.8 159.8 88.8C159.7 88.6 159.6 88.2 159.4 88.2C159.4 88.2 159.3 88.2 159.2 88.2C159.2 87.9 158.9 87.7 158.6 88.1C158.7 88.1 158.8 88.1 158.8 88.2C158.8 88.3 158.7 88.4 158.7 88.5C158.7 88.8 158.8 88.8 159.1 88.9C159.2 88.9 159.2 88.9 159.2 88.9V89C158.8 88.8 158.6 89 158.6 89.2C158.6 89.2 158.6 89.3 158.6 89.4C158.4 89.5 158.4 89.7 158.7 89.9C158.7 89.8 158.7 89.7 158.8 89.6C158.8 89.6 158.8 89.6 158.9 89.6L159 89.7C159.1 89.7 159.1 89.7 159.3 89.6H159.4C159.4 89.6 159.5 89.6 159.5 89.7V89.8C159.2 90.1 159.2 90.4 159.6 90.4C159.7 90.4 159.7 90.4 159.7 90.5C159.6 91.1 158.9 90.9 159 90.4C158.6 91 159.2 91.5 159.8 91.2C159.8 91.2 159.8 91.2 159.9 91.2C159.9 91.3 160 91.4 160.1 91.4C160.1 91.4 160.1 91.3 160.2 91.3C160.2 91.3 160.2 91.3 160.2 91.4C160.2 91.5 160.2 91.7 160.4 91.7C160.4 91.6 160.4 91.5 160.5 91.5C160.6 91.5 160.8 91.9 161.3 92.2C161.7 92.4 161.9 92.8 162.2 92.5C162.2 92.9 162.5 93.3 162.4 93.3C162.3 93.3 161.3 93.2 161 93.4C160.6 93.6 159.7 93.9 159.5 93.6C159.4 93.5 159.4 93.4 159.3 93.1C159.2 93 159.1 92.9 159 92.9C159 92.9 158.9 92.9 158.8 92.9C158.6 92.7 158.3 92.7 158.2 92.8C158.3 92.8 158.4 92.8 158.5 93C158.5 93.1 158.4 93.2 158.4 93.2C158.3 93.3 158.4 93.5 158.9 93.7C158.9 93.7 159 93.8 158.9 93.8C158.8 93.8 158.7 93.9 158.6 93.8C158.4 93.6 158.3 93.4 158.1 93.5C158.1 93.5 158 93.6 157.9 93.6C157.9 93.6 157.9 93.6 157.8 93.6C157.6 93.6 157.2 93.9 157.3 94.2C157.4 94.1 157.5 94 157.6 93.9C157.6 94 157.7 94.1 157.7 94.1C157.8 94.4 157.9 94.6 158.5 94.2C158.6 94.1 158.6 94.2 158.5 94.2C158.3 94.5 158 94.7 158.3 94.9L158.4 95C158.3 95.3 158.7 95.6 158.9 95.6C158.8 95.5 158.7 95.3 158.7 95.1C158.8 95.1 158.9 95.1 158.9 95.1C159.2 95 159.1 94.6 159.2 94.5C159.3 94.5 159.3 94.5 159.3 94.5C159.3 94.7 159.4 95 159.7 94.9C160 94.9 160.2 94.6 160.2 94.4C160.3 94.5 160.4 94.6 160.4 94.8C160.5 94.8 160.6 94.7 160.6 94.6C160.7 94.8 160.7 95 160.5 95.2C160.6 95.2 161 95 161 94.6C161 94.7 161.1 94.7 161.1 94.8C161.2 94.8 161.4 94.9 161.8 94.8H161.9C161.9 94.9 161.9 95.1 161.9 95.1L162 94.9C162.1 94.9 162 95.2 162.2 95.4C162.3 94.5 162.7 94.9 163.3 94.5C163.4 94.5 163.4 94.5 163.3 94.5C163.3 94.6 163.2 94.7 163.1 94.8C163.7 94.9 164.6 94 164.8 93.6C165 93.6 165.3 93.5 165.4 93.6C167.1 93.8 165.9 92.1 168.7 92.5C168.9 92.5 169.2 92.3 169.4 92.2C169.2 92.6 169.2 93.3 169.6 93.4C169.8 93.4 170.1 93.5 170.2 93.7C170.2 93.7 170.2 93.7 170.2 93.8C170 93.8 169.8 93.9 169.7 93.9C169.1 94.3 169.1 93 168.5 93.3C168.4 93.3 168.4 93.4 168.3 93.4C168.1 93.4 167.7 93.7 167.8 93.9C167.9 93.8 168 93.7 168.2 93.7C168.2 93.8 168.2 93.8 168.2 93.8C168.2 93.9 168.2 94 168.4 94C168.5 94 168.5 93.9 168.6 93.9C168.6 93.9 168.7 93.9 168.7 94C168.7 94.2 167.9 93.9 168.1 94.5C168.1 94.5 168.2 94.6 168.2 94.7C168.2 94.9 168.3 95.1 168.7 95C168.6 95 168.5 94.9 168.5 94.8C168.6 94.8 168.6 94.8 168.7 94.8C168.7 94.8 168.8 94.8 168.8 94.7C168.8 94.7 168.9 94.7 168.9 94.8V94.9C168.9 94.9 168.9 95.1 169 95.1C169 95.3 169.3 95.6 169.6 95.3C169.5 95.3 169.3 95.3 169.3 95.1C169.4 95.1 169.5 95 169.5 95C169.5 95 169.6 94.9 169.6 94.8C169.6 94.8 169.6 94.7 169.7 94.7C169.7 94.7 169.8 94.7 169.9 94.7C170 94.7 170 94.7 170 94.7C170.1 94.9 170.2 95 170.5 94.9C170.9 94.8 170.6 94.4 170.9 94.3C171 94.3 171.1 94.3 171.1 94.3C171.4 94.4 171.9 94.4 172 94.2C172.1 94 172 93.4 171.7 93.2C171.5 93.1 171.7 92.8 171.5 92.6C171.9 92.8 172.3 92.9 172.7 92.9C173.6 92.9 173.8 92.8 174.2 92.5C174.6 92.2 175.1 92.4 175.3 92.4C175.4 92.4 175.5 92.5 175.5 92.6C175.4 93.1 175.5 93.1 175.4 93.3C175.3 93.5 174.9 93.3 174.7 93.3C174.5 93.3 174.4 93.4 174.4 93.4C174.2 93.4 173.9 93.6 173.9 93.9C174 93.8 174.1 93.7 174.3 93.7V93.8C174.3 94.1 174.7 94.2 174.9 94H175C174.8 94.1 174.5 94.4 174.8 94.5C174.8 94.5 174.9 94.6 175 94.6C175 94.8 175.1 95 175.3 95C175.2 94.9 175.2 94.8 175.3 94.6C175.4 94.6 175.4 94.6 175.5 94.6C175.7 94.6 175.6 94.2 175.8 94.1C175.8 94.1 175.9 94.1 175.8 94.1C175.7 94.3 175.7 94.6 175.9 94.7C175.9 94.7 176 94.7 176.1 94.7C176.2 94.9 176.4 95 176.6 94.9C176.6 94.9 176.4 94.8 176.4 94.7C176.4 94.6 176.5 94.5 176.5 94.5C176.6 94 176.2 94 176.2 93.8C176.2 93.6 176.7 93.7 176.7 93.2C176.7 93.1 176.7 93 176.5 92.9C176.6 92.9 176.8 92.9 176.8 92.7C176.4 92.7 176.5 92.4 176.5 92.2V92.1C176.6 92 176.7 91.9 176.7 91.6C176.6 91.8 176.2 91.9 176.1 91.6C176.1 91.6 176.1 91.3 175.7 91.4C175.1 91.5 174.7 91.3 173.6 91.2C174.8 91.7 176.7 91.4 176.7 90.7ZM164.6 89C164.8 89.1 165.1 89.2 165.4 89.3C165 89.4 165.1 89.5 164.9 89.5C164.6 89.5 164.5 89.2 164.6 89ZM164.1 88.8C164 89 163.8 89.1 163.6 89C163.4 88.8 163.6 88.8 163.4 88.5C163.6 88.5 164 88.7 164.1 88.8ZM163.4 90.3C163.5 90.2 163.5 90.1 163.6 90.1C163.7 90.1 163.8 90.1 163.8 90C163.9 89.8 163.7 89.8 163.6 89.7C163.7 89.7 163.8 89.6 163.7 89.5C163.6 89.4 163.5 89.6 163.4 89.5C163.4 89.4 163.5 89.4 163.5 89.3C163.6 89.2 163.6 89.3 163.7 89.3L164.3 89.6C164.4 89.6 164.4 89.7 164.4 89.8C164.4 89.9 164.4 90 164.4 90C164.3 90 164.3 89.8 164.2 89.8C164.1 89.8 164.1 89.9 164.2 90C164 90 163.9 89.9 163.8 90C163.7 90.1 163.8 90.2 163.8 90.3C163.9 90.4 163.8 90.5 163.8 90.6C163.7 90.7 163.6 90.9 163.4 90.8C163.3 90.7 163.3 90.5 163.4 90.3ZM165 93.7C165 93.7 165 93.8 165 93.7V93.7ZM175.8 99.2C175.8 98.6 175.2 98.3 173.3 98.3C171.5 98.3 165.7 99 165.7 97.9C165.7 97.2 167.6 97.5 169 97.5C169.1 97.6 169.2 97.7 169.4 97.8C171.8 98.5 174.3 96.9 176 97.4C174.6 96.2 172.9 97.5 171.1 97.2C172.2 97.2 173.3 97 173.3 96.7C172.5 97.2 170.2 96.3 169.2 96.9C169.1 96.9 169.1 97 169 97C167.2 97 165.1 96.8 165.1 97.8C165.1 99.7 171.6 98.6 173.2 98.6C174.8 98.6 175.1 98.8 175.1 99.1C175.1 99.5 173.5 99.6 172.7 99.6C171.3 99.6 165.2 98.8 162.8 99.5C162.9 99.1 163.5 98.5 163.2 98.1C163.4 98 163.6 97.8 163.6 97.6C163.5 97.5 163.3 97.4 163.1 97.4C163.2 97.3 163.1 97.2 163 97.1L162.9 96.8C162.8 96.7 162.6 96.6 162.3 96.4C162 96.3 161.8 96.3 161.8 96.3C161.7 96.3 161.5 96.4 161.5 96.3C161.4 96.3 161.2 96.3 161.2 96.4C161.1 96.3 160.9 96.2 160.8 96.2C160.7 96.4 160.7 96.6 160.7 96.9C160.5 96.9 160.2 97.5 160 97.4C160.1 97.6 160.1 97.6 160.2 97.6C160 97.9 159.9 98.3 159.7 98.3C159.8 98.4 159.9 98.5 159.9 98.5C159.9 98.7 159.8 98.9 159.8 99.1L159.6 99C159.5 99 159.3 99 159.3 99C159.2 99 159.1 99 159 99C158.7 99 158.5 98.5 158 98.2C157.6 98 157.6 97.8 157.6 97.4C157.6 97.1 157.8 96.8 157.7 96.5C157.7 96.5 157.6 96.3 157.6 96.2C157.5 96 157.3 95.8 157.1 95.9C157.2 96 157.3 96 157.3 96.2C157.2 96.3 157.2 96.3 157.2 96.4C157.1 96.5 157.1 96.6 157.2 96.7C157.2 96.7 157.2 96.7 157.2 96.8V96.9C157.2 97 157.2 96.9 157.2 96.9C157.1 96.7 157 96.3 156.8 96.3C156.8 96.3 156.7 96.3 156.6 96.3C156.6 96.1 156.3 95.9 156.1 96.2C156.2 96.2 156.3 96.2 156.3 96.3C156.3 96.4 156.3 96.5 156.2 96.5C156.2 96.7 156.4 96.8 156.6 96.8C156.7 96.8 156.7 96.8 156.7 96.8V96.9C156.3 96.7 156.1 96.9 156.1 97.1C156.1 97.1 156.1 97.2 156.1 97.3C155.9 97.4 155.9 97.6 156.2 97.8C156.2 97.7 156.2 97.6 156.3 97.5L156.4 97.6C156.4 97.6 156.5 97.6 156.6 97.5H156.7L156.8 97.6V97.7C156.5 98 156.6 98.2 156.9 98.3C156.9 98.3 157 98.3 157 98.4C157 98.9 156.3 98.8 156.3 98.3C155.9 98.9 156.6 99.4 157.1 99.1H157.2C157.2 99.2 157.3 99.3 157.4 99.3C157.4 99.3 157.4 99.2 157.5 99.2C157.5 99.2 157.5 99.2 157.5 99.3C157.5 99.4 157.6 99.6 157.8 99.6C157.8 99.5 157.8 99.4 157.9 99.4C158 99.4 158.4 100.1 159.1 100.5C159.2 100.5 159.5 100.5 159.5 100.3C159.5 100.4 159.6 100.4 159.7 100.5C159.7 100.8 159.9 101.3 159.9 101.3C159.8 101.3 158.6 101.2 158.4 101.4C158.1 101.6 157.2 101.9 157 101.5C156.9 101.4 156.9 101.3 156.8 101.1C156.7 101 156.6 100.9 156.5 100.9C156.5 100.9 156.4 100.9 156.3 100.9C156.2 100.7 155.8 100.7 155.7 100.8C155.8 100.8 156 100.9 156 101C156 101.1 155.9 101.2 155.9 101.2C155.8 101.3 155.9 101.5 156.4 101.7C156.4 101.7 156.5 101.8 156.4 101.8C156.3 101.8 156.2 101.9 156.1 101.8C155.9 101.6 155.9 101.4 155.6 101.5C155.6 101.5 155.5 101.5 155.4 101.6C155.4 101.6 155.4 101.6 155.3 101.6C155.1 101.6 154.7 101.9 154.9 102.2C154.9 102.1 155 102 155.2 101.9C155.2 102 155.2 102 155.2 102.1C155.3 102.4 155.4 102.6 156 102.2C156.1 102.2 156.1 102.2 156 102.2C155.9 102.4 155.5 102.7 155.8 102.9L155.9 103C155.8 103.3 156.2 103.6 156.4 103.5C156.3 103.4 156.2 103.2 156.2 103C156.3 103 156.3 103.1 156.4 103C156.7 102.9 156.6 102.6 156.7 102.5C156.8 102.5 156.8 102.5 156.8 102.5C156.8 102.6 156.9 102.9 157.2 102.9C157.5 102.9 157.7 102.6 157.6 102.4C157.7 102.5 157.8 102.6 157.8 102.7C157.9 102.6 158 102.6 158 102.5C158.1 102.7 158 102.9 157.9 103.1C158 103.1 158.4 102.9 158.4 102.6C158.4 102.6 158.5 102.7 158.5 102.8C158.6 102.9 158.8 102.9 159.1 102.8C159.1 102.9 159.1 103.1 159.1 103.1L159.2 102.9C159.3 102.9 159.2 103.2 159.4 103.4C159.5 102.6 160.4 103 161 102.7C161.1 102.7 161.1 102.7 161.1 102.7C161.1 102.8 161 102.9 160.9 103C161.1 103 161.4 102.9 161.6 102.7L161.5 102.8L162.3 102.4C162.3 102.3 162.3 102.2 162.3 102.2C162.4 102.2 162.5 102.2 162.6 102.1C163.1 102.1 163.1 101.7 163.3 101.7C166.3 102.1 164.6 100.4 168.2 100.7C168.4 100.7 168.4 100.6 168.6 100.5C168.4 100.9 168.4 101.4 168.8 101.5C169 101.5 169.3 101.6 169.4 101.8V101.9C169.2 101.9 169.1 102 168.9 102C168.3 102.4 168.3 101.2 167.7 101.4C167.6 101.4 167.6 101.5 167.5 101.5C167.3 101.5 166.9 101.8 167 102C167.1 101.9 167.2 101.8 167.4 101.8C167.4 101.9 167.4 101.9 167.4 101.9C167.4 102 167.4 102.1 167.6 102.1C167.7 102.1 167.8 102 167.8 102C167.8 102 167.9 102 167.9 102.1C167.9 102.3 167.2 102 167.3 102.6C167.3 102.6 167.4 102.7 167.4 102.8C167.4 103 167.5 103.2 167.9 103.1C167.8 103.1 167.7 103 167.7 102.9H167.9C167.9 102.9 168 102.9 168 102.8C168 102.8 168.1 102.8 168.1 102.9V103C168.1 103 168.1 103.2 168.2 103.2C168.2 103.4 168.5 103.7 168.8 103.4C168.7 103.4 168.5 103.4 168.5 103.2L168.6 103.1C168.7 103.1 168.7 103 168.7 102.9C168.7 102.9 168.7 102.8 168.8 102.8H168.9C169 102.8 169 102.8 169 102.8C169.1 103 169.2 103.1 169.5 103C169.9 102.9 169.6 102.5 169.9 102.4C170 102.4 170.1 102.4 170.1 102.4C170.4 102.5 170.9 102.5 171 102.3C171.1 102.1 171 101.6 170.7 101.4C170.5 101.3 170.7 101.1 170.5 100.8C170.8 100.9 171.2 101.1 171.7 101.1C172.6 101.1 172.8 101 173.1 100.7C173.5 100.4 174 100.6 174.1 100.6C174.2 100.6 174.3 100.7 174.3 100.8C174.2 101.2 174.3 101.3 174.2 101.5C174.1 101.7 173.7 101.5 173.5 101.5C173.3 101.5 173.2 101.6 173.2 101.6C173 101.6 172.7 101.8 172.8 102.1C172.9 102.1 173 101.9 173.2 101.9V102C173.2 102.3 173.6 102.4 173.7 102.2H173.8C173.6 102.3 173.3 102.6 173.6 102.7C173.6 102.7 173.7 102.7 173.8 102.8C173.8 103 173.9 103.2 174.1 103.2C174 103.1 174 103 174.1 102.9H174.2C174.4 102.9 174.3 102.5 174.5 102.4C174.4 102.6 174.4 102.9 174.6 102.9C174.6 102.9 174.7 102.9 174.8 102.9C174.9 103.1 175.1 103.2 175.3 103.1C175.2 103.1 175.1 103 175.1 102.9C175.2 102.8 175.2 102.8 175.2 102.7C175.3 102.2 175 102.2 175 102.1C175 101.9 175.5 102 175.5 101.6C175.5 101.5 175.4 101.4 175.3 101.3C175.4 101.3 175.6 101.3 175.6 101.2C175.3 101.2 175.4 100.9 175.3 100.7V100.6C175.4 100.5 175.5 100.4 175.4 100.1C175.3 100.3 174.9 100.4 174.9 100.1C174.9 100.1 174.9 99.9 174.5 99.9C173.9 100 173.6 99.8 172.5 99.7C173.9 100.1 175.8 99.9 175.8 99.2ZM162.3 97.7C162.4 97.8 162.8 97.9 163 98C162.7 98.1 162.7 98.2 162.5 98.2C162.3 98.2 162.2 97.9 162.3 97.7ZM161.8 97.5C161.7 97.7 161.5 97.8 161.3 97.6C161.1 97.4 161.3 97.4 161.1 97.1C161.4 97.3 161.6 97.4 161.8 97.5ZM161.1 99C161.2 98.9 161.2 98.8 161.3 98.8C161.4 98.8 161.5 98.8 161.5 98.7C161.6 98.6 161.4 98.5 161.3 98.4C161.4 98.4 161.5 98.3 161.4 98.2C161.3 98.1 161.2 98.3 161.1 98.2C161.1 98.1 161.2 98.1 161.2 98.1C161.3 98 161.3 98.1 161.4 98.1L162 98.4C162.1 98.4 162.1 98.5 162.1 98.6C162.1 98.7 162.1 98.8 162.1 98.8C162 98.8 162 98.6 161.9 98.6C161.8 98.6 161.8 98.7 161.9 98.8C161.8 98.8 161.6 98.7 161.6 98.8C161.5 98.9 161.6 99 161.6 99.1C161.6 99.2 161.6 99.3 161.6 99.4C161.5 99.5 161.4 99.7 161.2 99.6C161 99.3 161.1 99.1 161.1 99ZM202.2 113.5C202.3 113.3 202.4 113.2 202.4 112.9C202.3 113.1 201.9 113.3 201.9 112.9C201.9 112.9 201.9 112.7 201.6 112.7C201 112.8 200.5 112.7 199.4 112.6C199.3 112.6 199.3 112.5 199.4 112.5C200.5 112.4 202.4 112.3 202.4 111.6C202.4 111 201.8 110.7 199.9 110.7C198.1 110.7 192.3 111.4 192.3 110.3C192.3 109.6 194.2 109.9 195.6 110C195.7 110.1 195.8 110.2 196 110.2C198.4 110.9 201.1 109.1 202.6 109.5C200.7 108.9 199.5 110 197.7 109.6C198.8 109.6 199.9 109.4 199.9 109.1C199.1 109.6 196.8 108.7 195.8 109.3C195.7 109.3 195.7 109.4 195.6 109.4C193.8 109.4 191.7 109.2 191.7 110.2C191.7 112 198.2 111 199.7 111C201.3 111 201.6 111.2 201.6 111.5C201.6 112 200.1 112.1 199.2 112.1C197.7 112.1 191.7 111.3 189.3 112C189.4 111.6 190 111 189.8 110.6C190 110.5 190.2 110.3 190.2 110.1C190.1 110 189.9 109.9 189.7 109.9C189.8 109.8 189.7 109.7 189.6 109.6L189.5 109.3C189.3 109.1 189.2 109 189 108.9C188.7 108.8 188.6 108.8 188.4 108.8C188.3 108.8 188.1 108.9 188.1 108.8C188 108.8 187.8 108.8 187.8 108.9C187.7 108.8 187.5 108.7 187.4 108.7C187.3 108.9 187.3 109.1 187.4 109.4C187.2 109.4 186.9 110 186.7 109.9C186.8 110.1 186.8 110.1 186.9 110.1C186.7 110.4 186.6 110.8 186.4 110.8C186.5 111 186.6 111.1 186.7 111.1C186.7 111.3 186.7 111.5 186.7 111.7L186.4 111.6C186.3 111.6 186.1 111.6 186.1 111.6C186 111.6 185.9 111.6 185.8 111.5C185.5 111.5 185.3 111 184.8 110.7C184.4 110.5 184.4 110.3 184.4 109.9C184.4 109.6 184.6 109.3 184.5 109C184.5 108.9 184.4 108.8 184.4 108.7C184.3 108.5 184.1 108.3 183.9 108.4C184 108.5 184.1 108.6 184.1 108.7C184 108.8 184 108.9 183.9 108.9C183.8 109 183.8 109.1 183.9 109.2C183.9 109.2 183.9 109.2 183.9 109.3C183.9 109.3 183.9 109.4 183.9 109.5C183.9 109.6 183.9 109.5 183.9 109.5C183.8 109.3 183.7 108.9 183.5 108.9H183.3C183.3 108.7 183 108.5 182.8 108.8C182.9 108.8 183 108.8 183 108.9C183 109 182.9 109.1 182.9 109.1C182.9 109.3 183.1 109.4 183.3 109.4C183.4 109.4 183.4 109.4 183.4 109.5V109.6C183 109.4 182.8 109.6 182.8 109.8C182.8 109.8 182.8 109.9 182.8 110C182.7 110.1 182.6 110.3 182.9 110.5C182.9 110.4 182.9 110.3 183 110.2L183.1 110.3C183.1 110.3 183.2 110.3 183.3 110.2H183.4L183.5 110.3V110.4C183.2 110.7 183.3 111 183.6 111C183.6 111 183.7 111 183.7 111.1C183.7 111.6 183 111.5 183 111C182.6 111.6 183.3 112.1 183.8 111.8H183.9C183.9 111.9 184 112 184.1 112C184.1 112 184.1 111.9 184.2 111.9C184.2 111.9 184.2 111.9 184.2 112C184.2 112.1 184.3 112.3 184.5 112.3C184.5 112.2 184.5 112.1 184.6 112.1C184.7 112.1 185 112.9 185.8 113.3C185.8 113.2 186.1 113.1 186.2 113C186.2 113.1 186.3 113.3 186.5 113.3L186.6 113.2C186.6 113.5 187 113.9 186.9 113.9C186.8 113.9 186.1 113.8 185.8 113.9C185.5 114.1 184.6 114.4 184.3 114.1C184.2 114 184.2 113.9 184.1 113.7C184 113.6 183.9 113.5 183.8 113.5H184C183.9 113.4 183.5 113.3 183.4 113.4C183.5 113.4 183.6 113.4 183.7 113.6L183.6 113.8C183.5 113.9 183.6 114.1 184.1 114.3C184.1 114.3 184.2 114.4 184.1 114.4C184 114.4 183.9 114.5 183.8 114.4C183.6 114.3 183.6 114 183.3 114.2C183.3 114.2 183.2 114.2 183.1 114.3H183C182.8 114.3 182.4 114.6 182.6 114.9C182.6 114.8 182.8 114.7 182.9 114.6L183 114.8C183.1 115.1 183.2 115.3 183.7 114.9C183.8 114.9 183.8 114.9 183.7 114.9C183.6 115.1 183.2 115.4 183.5 115.6L183.6 115.7V115.8C183.6 116.1 183.9 116.4 184.1 116.3C184 116.2 183.9 116 183.9 115.8C184 115.8 184 115.9 184.1 115.8C184.4 115.7 184.2 115.4 184.4 115.3H184.5C184.5 115.4 184.6 115.7 184.9 115.7C185.2 115.7 185.4 115.4 185.3 115.3C185.4 115.4 185.5 115.5 185.4 115.7C185.5 115.6 185.6 115.6 185.6 115.5C185.7 115.7 185.7 115.9 185.5 116.1C185.8 116 186 115.8 186 115.5C186.1 115.5 186.1 115.6 186.1 115.7C186.2 115.8 186.4 115.8 186.7 115.7C186.7 115.8 186.7 116 186.7 116L186.8 115.8C186.9 115.8 186.8 116.1 187 116.3C187.1 115.5 187.5 115.8 188 115.5C188.1 115.5 188.1 115.5 188.1 115.5C188.1 115.6 188 115.7 187.9 115.8C188.1 116 188.8 115.5 188.8 115.2C188.8 115.1 189.1 115.1 189.3 115C189.8 115 189.8 114.6 190 114.6C193 115 191.3 113.3 194.9 113.6C195.1 113.6 195.2 113.4 195.3 113.3C195.1 113.6 195.1 114.3 195.5 114.4C195.7 114.4 195.9 114.5 196.1 114.7V114.8C195.9 114.8 195.8 114.9 195.6 114.9C195.1 115.3 195 114.1 194.4 114.3C194.3 114.3 194.3 114.4 194.2 114.4C194 114.4 193.6 114.7 193.7 114.9C193.8 114.8 193.9 114.7 194.1 114.7V114.8C194.1 114.9 194.1 115 194.3 115C194.4 115 194.5 114.9 194.5 114.9C194.5 114.9 194.6 114.9 194.6 115C194.6 115.2 193.9 114.9 194 115.5C194 115.6 194.1 115.6 194.1 115.7C194.1 115.9 194.2 116.1 194.5 116C194.4 116 194.3 115.9 194.4 115.8C194.5 115.8 194.5 115.8 194.5 115.8C194.5 115.8 194.6 115.8 194.6 115.7C194.6 115.7 194.7 115.7 194.7 115.8V115.9V116.1C194.7 116.3 195 116.6 195.3 116.3C195.2 116.3 195 116.2 195 116.1L195.2 116C195.3 116 195.3 115.9 195.3 115.8C195.3 115.7 195.3 115.7 195.3 115.7H195.5C195.6 115.7 195.6 115.7 195.6 115.7C195.7 115.8 195.8 116 196.1 115.9C196.5 115.8 196.2 115.4 196.5 115.4C196.6 115.4 196.7 115.4 196.7 115.4C197 115.5 197.5 115.5 197.5 115.3C197.6 115.1 197.5 114.6 197.2 114.4C197 114.3 197.2 114.1 197 113.8C197.3 113.9 197.7 114.1 198.2 114.1C199.1 114.1 199.3 114 199.7 113.7C200.1 113.4 200.6 113.6 200.7 113.6C200.8 113.6 200.9 113.7 200.8 113.8C200.7 114.2 200.8 114.3 200.7 114.5C200.6 114.7 200.3 114.5 200 114.5C199.9 114.5 199.8 114.5 199.7 114.6C199.5 114.6 199.2 114.8 199.2 115.1C199.3 115 199.4 114.9 199.6 114.9V115C199.6 115.3 199.9 115.4 200.1 115.2H200.2C200 115.3 199.7 115.6 199.9 115.7L200 115.8C200 116 200.1 116.2 200.2 116.2C200.2 116.1 200.1 116 200.3 115.8H201C201.2 115.8 201.1 115.4 201.4 115.3C201.3 115.5 201.2 115.8 201.4 115.8H201.5C201.6 116 201.7 116.1 202 116C201.9 116 201.8 115.9 201.8 115.8C201.9 115.7 201.9 115.6 201.9 115.6C202.1 115.1 201.7 115.1 201.7 115C201.7 114.8 202.2 114.9 202.2 114.5C202.2 114.4 202.1 114.3 202 114.2C202.1 114.2 202.3 114.2 202.3 114.1C202.2 114 202.3 113.7 202.2 113.5ZM188.9 110.1C189.1 110.2 189.4 110.3 189.6 110.4C189.3 110.5 189.3 110.6 189.1 110.6C188.9 110.5 188.8 110.2 188.9 110.1ZM188.4 109.8C188.3 110 188.1 110.1 187.9 110C187.7 109.8 187.9 109.8 187.7 109.5C188 109.6 188.3 109.8 188.4 109.8ZM187.7 111.3C187.8 111.2 187.8 111.1 187.9 111.1C188 111.1 188.1 111.1 188.1 111C188.1 110.9 188 110.8 187.9 110.7C188 110.7 188.1 110.6 188 110.5C187.9 110.4 187.8 110.6 187.8 110.5C187.8 110.4 187.9 110.4 187.9 110.3C188 110.3 188 110.3 188.1 110.3L188.7 110.6C188.8 110.6 188.8 110.7 188.8 110.8C188.8 110.9 188.8 111 188.8 111C188.7 111 188.7 110.8 188.6 110.8C188.5 110.8 188.5 110.9 188.6 111C188.4 111 188.3 110.9 188.2 111C188.1 111.1 188.2 111.2 188.3 111.3C188.3 111.4 188.3 111.5 188.3 111.6C188.2 111.7 188.1 111.9 187.9 111.8C187.6 111.7 187.6 111.4 187.7 111.3ZM187.4 109.8C187.4 109.8 187.3 109.8 187.4 109.8C187.3 109.9 187.4 109.8 187.4 109.8ZM193.9 118.2C194 118.3 194.1 118.4 194.3 118.5C196.6 119.2 199.2 117.4 200.6 117.8C198.8 117.2 197.7 118.3 195.9 117.9C196.9 117.9 198 117.7 198 117.4C197.2 117.9 195 117.1 194.1 117.6C194 117.6 194 117.7 194 117.7C192.7 117.7 191.7 117.7 191.7 118.5C191.7 120.3 196.4 119.2 197.9 119.2C199.4 119.2 199.2 119.4 199.2 119.6C199.2 120 197.5 120.1 196.7 120.1C195.4 120.1 191.6 119.4 189.2 119.9C189.4 119.5 189.8 119 189.6 118.7C189.8 118.6 190 118.4 190 118.2C189.9 118.1 189.7 118 189.6 118C189.7 117.9 189.6 117.8 189.5 117.7L189.4 117.4C189.3 117.3 189.1 117.1 188.9 117C188.6 116.9 188.5 116.9 188.4 116.8C188.3 116.8 188.1 116.8 188.1 116.8C188 116.8 187.8 116.8 187.8 116.9C187.7 116.8 187.6 116.7 187.4 116.7C187.3 116.9 187.3 117.1 187.3 117.3C187.1 117.3 186.9 117.9 186.7 117.8C186.8 117.9 186.8 118 186.9 118C186.7 118.3 186.6 118.7 186.5 118.7C186.6 118.8 186.6 118.8 186.7 118.9C186.6 119.1 186.6 119.3 186.6 119.6L186.4 119.5H186.3C186 119.5 185.8 119.5 185.4 119.2C185 119 185 118.8 185 118.5C185 118.2 185.1 117.9 185.1 117.6C185.1 117.5 185.1 117.4 185 117.3C184.9 117.1 184.7 117 184.5 117C184.6 117.1 184.7 117.2 184.7 117.3C184.6 117.3 184.6 117.4 184.6 117.5C184.5 117.6 184.5 117.7 184.6 117.8C184.6 117.8 184.6 117.8 184.6 117.9V118C184.6 118.1 184.6 118 184.6 118C184.5 117.8 184.4 117.5 184.2 117.5H184.1C184.1 117.3 183.9 117.1 183.6 117.4C183.7 117.4 183.8 117.4 183.8 117.5C183.8 117.6 183.7 117.7 183.7 117.7C183.7 117.9 183.9 118 184.1 118C184.1 118 184.2 118 184.2 118.1V118.2C183.8 118 183.6 118.2 183.6 118.4C183.6 118.4 183.6 118.5 183.6 118.6C183.5 118.7 183.4 118.9 183.7 119.1C183.7 119 183.7 118.9 183.8 118.9C183.8 118.9 183.8 118.9 183.9 118.9C183.9 119 184 119 184 119C184 119 184.1 119 184.2 118.9H184.3L184.4 119C184.4 119 184.4 119 184.4 119.1C184.1 119.4 184.2 119.6 184.5 119.7C184.6 119.7 184.6 119.7 184.6 119.8C184.6 120.3 183.9 120.2 183.9 119.7C183.5 120.3 184.2 120.7 184.7 120.4C184.7 120.5 184.8 120.6 184.9 120.6C184.9 120.6 184.9 120.5 185 120.5C185 120.5 185 120.5 185 120.6C185 120.7 185.1 120.9 185.2 120.9C185.2 120.8 185.2 120.7 185.3 120.7C185.4 120.7 185.4 120.5 186 120.8C186 120.9 186.1 121 186.2 121L186.7 120.9C186.6 121.2 186.8 121.8 186.7 121.8C186.6 121.8 185.9 121.7 185.7 121.8C185.4 122 184.6 122.3 184.3 121.9C184.2 121.8 184.2 121.7 184.1 121.5C184 121.4 183.9 121.3 183.8 121.3H183.6C183.5 121.2 183.2 121.1 183 121.2C183.1 121.2 183.2 121.2 183.3 121.4C183.3 121.5 183.2 121.5 183.2 121.6C183.1 121.7 183.2 121.9 183.7 122.1C183.7 122.1 183.8 122.2 183.7 122.2C183.6 122.2 183.5 122.2 183.4 122.2C183.2 122 183.2 121.8 182.9 122C182.9 122 182.8 122 182.7 122.1C182.7 122.1 182.7 122.1 182.6 122.1C182.4 122.1 182 122.4 182.2 122.6C182.2 122.5 182.4 122.4 182.5 122.4C182.5 122.5 182.5 122.5 182.5 122.6C182.6 122.9 182.7 123.1 183.2 122.7C183.3 122.7 183.3 122.7 183.3 122.7C183.2 122.9 182.8 123.2 183.1 123.3L183.2 123.4C183.2 123.4 183.2 123.4 183.2 123.5C183.2 123.8 183.5 124 183.7 124C183.6 123.9 183.5 123.7 183.5 123.5C183.6 123.5 183.6 123.6 183.7 123.5C184 123.4 183.8 123.1 184 123H184.1C184.1 123.1 184.2 123.4 184.5 123.4C184.8 123.4 184.9 123.1 184.9 123C185 123.1 185.1 123.2 185 123.3C185 123.3 185.2 123.2 185.2 123.1C185.3 123.2 185.3 123.4 185.1 123.6C185.2 123.6 185.5 123.4 185.6 123.1C185.7 123.1 185.7 123.2 185.7 123.3C185.8 123.3 186 123.4 186.3 123.3C186.3 123.4 186.3 123.5 186.3 123.6L186.4 123.4C186.5 123.4 186.4 123.7 186.6 123.9C186.7 123.1 187.3 123.3 187.8 123C187.9 123 187.9 123 187.9 123C187.9 123.1 187.8 123.2 187.7 123.3C188.2 123.6 188.8 122.9 188.9 122.5C189 122.5 189 122.4 189 122.3C189 122.4 189 122.5 188.9 122.5C189.4 122.5 189.4 122.1 189.6 122.1C191.1 122.2 190 120.8 192.4 121.2C192.6 121.2 192.9 121.1 193 120.9C192.8 121.2 192.8 121.9 193.2 122C193.4 122 193.7 122.1 193.8 122.2V122.3C193.6 122.3 193.5 122.3 193.3 122.4C192.8 122.7 192.8 121.6 192.2 121.8C192.1 121.8 192.1 121.9 192 121.9C191.8 121.9 191.5 122.2 191.5 122.4C191.6 122.3 191.7 122.2 191.9 122.2V122.3C191.9 122.4 191.9 122.5 192.1 122.5C192.2 122.5 192.3 122.4 192.3 122.4C192.3 122.4 192.4 122.4 192.4 122.5C192.4 122.7 191.7 122.4 191.8 123C191.8 123 191.9 123.1 191.9 123.2C191.9 123.4 192 123.6 192.3 123.5C192.2 123.5 192.1 123.4 192.2 123.3H192.3C192.3 123.3 192.4 123.3 192.4 123.2C192.4 123.2 192.5 123.2 192.5 123.3V123.4C192.5 123.4 192.5 123.6 192.6 123.6C192.6 123.8 192.9 124 193.2 123.8C193.1 123.8 192.9 123.7 192.9 123.6C193 123.6 193 123.5 193 123.5C193.1 123.5 193.1 123.4 193.1 123.3C193.1 123.3 193.1 123.3 193.2 123.3H193.3C193.4 123.3 193.4 123.3 193.4 123.3C193.5 123.4 193.6 123.6 193.8 123.5C194.2 123.4 193.8 123 194.1 123C194.2 123 194.3 123 194.3 123C194.6 123.1 195 123.1 195.1 122.9C195.2 122.8 195.1 122.2 194.8 122C194.6 121.9 194.8 121.7 194.6 121.4C194.9 121.5 195.3 121.7 195.7 121.7C196.5 121.7 196.9 121.6 197.3 121.4C197.8 121.2 198.2 121.3 198.3 121.3C198.4 121.3 198.5 121.4 198.4 121.5C198.2 121.9 198.3 122 198.2 122.1C198.1 122.3 197.8 122.1 197.5 122.1C197.4 122.1 197.3 122.1 197.2 122.2C197 122.3 196.7 122.4 196.7 122.7C196.8 122.7 196.9 122.5 197.1 122.5V122.6C197.1 122.9 197.3 123 197.6 122.8H197.7C197.5 122.9 197.1 123.2 197.3 123.3C197.3 123.3 197.4 123.3 197.4 123.4C197.3 123.6 197.4 123.8 197.5 123.8C197.5 123.7 197.5 123.6 197.6 123.5C197.7 123.5 197.7 123.5 197.7 123.5C197.9 123.5 197.9 123.1 198.1 123C198.1 123 198.2 123 198.1 123C198 123.2 197.9 123.5 198 123.5H198.1C198.1 123.7 198.3 123.8 198.6 123.6C198.5 123.6 198.4 123.5 198.4 123.4L198.6 123.2C198.8 122.8 198.5 122.8 198.5 122.6C198.6 122.4 198.9 122.5 199.1 122.1C199.1 122 199.1 121.9 199 121.8C199.1 121.8 199.2 121.8 199.4 121.6C199.1 121.6 199.2 121.4 199.2 121.2V121.1C199.3 121 199.4 120.9 199.5 120.6C199.4 120.8 199 120.9 199 120.6C199 120.6 199 120.4 198.7 120.4C198.2 120.4 197.4 120.3 196.4 120.2C196.3 120.2 196.3 120.1 196.4 120.1C197.4 120 199.5 119.9 199.5 119.2C199.5 118.7 199.4 118.3 197.6 118.3C195.8 118.3 191.8 118.9 191.8 118C192.2 118.1 193 118.1 193.9 118.2ZM188.1 118.1C188 118.3 187.8 118.4 187.6 118.2C187.5 118 187.6 118 187.4 117.7C187.7 117.8 188 118 188.1 118.1ZM188.5 119.1C188.4 119.1 188.4 118.9 188.4 118.9C188.3 118.9 188.3 119 188.4 119.1C188.3 119.1 188.1 119 188.1 119.1C188 119.2 188.1 119.3 188.1 119.4C188.2 119.5 188.1 119.6 188.1 119.7C188.1 119.8 187.9 120 187.7 119.9C187.5 119.8 187.5 119.6 187.6 119.5C187.7 119.4 187.7 119.3 187.8 119.3C187.9 119.3 188 119.3 188 119.2C188 119.1 187.9 119 187.8 118.9C187.9 118.9 188 118.8 187.9 118.7C187.8 118.6 187.7 118.7 187.7 118.7C187.7 118.6 187.8 118.6 187.8 118.6C187.8 118.6 187.9 118.6 188 118.6L188.6 118.9C188.7 118.9 188.7 119 188.7 119.1C188.5 119 188.6 119.1 188.5 119.1ZM188.8 118.7C188.6 118.7 188.5 118.4 188.6 118.2C188.8 118.3 189 118.4 189.3 118.5C188.9 118.6 189 118.7 188.8 118.7ZM192 126.4C192 126.5 192.2 126.6 192.4 126.7C194.7 127.3 197.3 125.6 198.7 126C196.9 125.4 195.8 126.5 194 126.1C195 126.1 196.1 125.9 196.1 125.6C195.3 126.1 193.1 125.2 192.2 125.8C192.1 125.8 192.1 125.9 192 126C191.3 126.2 190.7 126.5 190.7 127.1C190.7 128.6 196.5 127.4 196.5 127.9C196.5 128.3 195.4 128.7 193.8 128.7C192.6 128.7 190.6 127.9 188.1 128.6C188.3 128.2 188.8 127.5 188.6 127.2C188.8 127.1 189 127 189 126.8C188.9 126.7 188.7 126.6 188.6 126.6C188.7 126.5 188.6 126.4 188.5 126.3C188.5 126.3 188.4 126.1 188.4 126C188.3 125.9 188.2 125.8 187.9 125.7C187.7 125.6 187.5 125.6 187.4 125.5C187.3 125.5 187.1 125.6 187.1 125.6C187 125.6 186.8 125.6 186.8 125.7C186.7 125.6 186.6 125.6 186.4 125.5C186.3 125.7 186.3 125.9 186.3 126.1C186.1 126.1 185.9 126.6 185.7 126.6C185.8 126.8 185.8 126.8 185.9 126.8C185.7 127.1 185.7 127.5 185.5 127.5C185.6 127.6 185.7 127.7 185.7 127.7C185.6 128.2 185.6 128.6 185.6 129.1C185.2 128.7 184.7 127.9 184.4 127.7C184.1 127.5 184.1 127.3 184.1 127C184.1 126.7 184.2 126.5 184.2 126.2C184.2 126.1 184.2 126 184.1 125.9C184 125.7 183.8 125.6 183.7 125.6C183.8 125.7 183.9 125.7 183.9 125.9C183.8 126 183.8 126 183.8 126.1C183.7 126.2 183.7 126.3 183.8 126.4C183.8 126.4 183.8 126.4 183.8 126.5C183.8 126.6 183.8 126.6 183.8 126.6C183.8 126.7 183.8 126.6 183.8 126.6C183.7 126.4 183.6 126.1 183.5 126.1H183.4C183.4 125.9 183.2 125.7 182.9 126C183 126 183.1 126 183.1 126.1C183.1 126.2 183.1 126.3 183.1 126.3C183.1 126.5 183.2 126.6 183.5 126.6H183.6V126.7C183.2 126.5 183.1 126.7 183 126.9C183 126.9 183 127 183 127.1C182.9 127.2 182.8 127.4 183.1 127.5C183.1 127.4 183.1 127.3 183.2 127.3C183.2 127.3 183.2 127.3 183.3 127.3L183.4 127.4C183.4 127.4 183.5 127.4 183.6 127.3C183.6 127.3 183.6 127.3 183.7 127.3C183.7 127.3 183.8 127.3 183.8 127.4C183.8 127.4 183.8 127.4 183.8 127.5C183.5 127.7 183.6 128 183.9 128.1C183.9 128.1 184 128.1 184 128.2C184 128.7 183.3 128.6 183.4 128.1C183.1 128.6 183.7 129.1 184.1 128.8C184.1 128.8 184.1 128.8 184.2 128.8C184.2 128.9 184.3 129 184.4 129C184.4 129 184.4 128.9 184.5 128.9C184.5 128.9 184.5 128.9 184.5 129C184.5 129.1 184.5 129.3 184.7 129.3C184.7 129.2 184.7 129.1 184.8 129.1C184.9 129.1 184.8 129.8 185.5 130.2C185.6 130.6 185.9 130.8 186.3 130.8C186.4 131.1 186.6 131.3 186.5 131.3C186.4 131.3 185.6 131.2 185.4 131.3C185.2 131.4 184.9 131.5 184.7 131.6V131.7C184.7 131.7 184.7 131.7 184.7 131.6C184.5 131.6 184.3 131.6 184.1 131.5C184 131.4 184 131.3 184 131.1C183.9 131 183.8 130.9 183.8 130.9H183.6C183.5 130.8 183.2 130.7 183.1 130.8C183.2 130.8 183.3 130.8 183.4 131C183.4 131.1 183.3 131.1 183.3 131.2C183.2 131.3 183.3 131.5 183.8 131.6C183.8 131.6 183.9 131.7 183.8 131.7C183.7 131.7 183.6 131.8 183.5 131.7C183.3 131.6 183.3 131.3 183 131.5L182.9 131.6C182.9 131.6 182.9 131.6 182.8 131.6C182.6 131.6 182.3 131.8 182.4 132.1C182.4 132 182.5 131.9 182.7 131.9C182.7 132 182.7 132 182.8 132.1C182.8 132.3 182.9 132.6 183.4 132.2C183.5 132.2 183.5 132.2 183.4 132.2C183.3 132.4 182.9 132.6 183.2 132.8C183.2 132.8 183.3 132.8 183.3 132.9C183.3 132.9 183.3 132.9 183.3 133C183.2 133.3 183.6 133.5 183.7 133.5C183.6 133.4 183.5 133.3 183.5 133.1C183.6 133.1 183.6 133.2 183.7 133.1C183.9 133 183.8 132.7 184 132.6H184.1C184.1 132.7 184.2 133 184.5 133C184.8 133 184.9 132.7 184.9 132.6C185 132.7 185.1 132.8 185 132.9C185.1 132.9 185.2 132.8 185.2 132.7C185.3 132.8 185.3 133 185.1 133.2C185.3 133.1 185.5 132.9 185.6 132.7C185.6 132.8 185.7 132.8 185.7 132.9C185.8 133 186 133 186.3 132.9C186.3 133 186.3 133.1 186.3 133.2L186.4 133C186.5 133 186.4 133.3 186.6 133.5C186.7 132.8 187.1 133.1 187.5 132.7C187.6 132.7 187.6 132.7 187.5 132.7C187.5 132.8 187.4 132.9 187.3 132.9C187.5 132.9 188 132.7 188 132.4C188 132.3 188.3 132 188.4 131.1C188.5 131.1 188.5 131.1 188.6 131.1C189.2 131.1 189.5 130.6 190.1 130.6C190 130.8 189.9 131.2 189.9 131.5C189.9 131.8 190.3 132.2 190.5 132.3C190.3 132.3 190.2 132.4 190.1 132.4C189.6 132.7 189.6 131.6 189.1 131.8C189 131.8 189 131.9 189 131.9C188.8 131.9 188.5 132.1 188.5 132.4C188.6 132.3 188.7 132.2 188.8 132.2V132.3C188.8 132.4 188.8 132.5 189 132.5C189.1 132.5 189.1 132.5 189.2 132.5C189.2 132.5 189.3 132.5 189.3 132.6C189.3 132.8 188.6 132.5 188.8 133C188.8 133 188.9 133.1 188.9 133.2C188.9 133.4 189 133.5 189.3 133.4C189.2 133.3 189.1 133.3 189.2 133.2C189.3 133.2 189.3 133.2 189.3 133.2C189.3 133.2 189.4 133.2 189.4 133.1C189.4 133.1 189.5 133.1 189.5 133.2V133.3V133.5C189.5 133.7 189.8 133.9 190.1 133.7C190 133.7 189.8 133.7 189.8 133.6C189.9 133.6 189.9 133.6 189.9 133.5C189.9 133.5 190 133.4 190 133.3C190 133.2 190 133.2 190 133.2H190.1C190.2 133.2 190.2 133.2 190.2 133.3C190.3 133.4 190.4 133.5 190.6 133.5C191 133.4 190.7 133.1 190.9 133C191 133 191 133 191.1 133C191.4 133.1 191.6 133.1 191.7 133C191.8 132.9 191.7 132.4 191.4 132.2C191.2 132.1 191.7 131 190.8 130.5C191.2 130.6 192.5 130.8 192.7 130.5C193.1 130.6 193.5 130.9 193.6 130.9C193.6 131 193.7 131.1 193.6 131.1C193.3 131.3 193.3 131.4 193.1 131.5C193 131.4 192.9 131.2 192.8 131.2C192.7 131.1 192.6 131.2 192.5 131.2C192.3 131.2 192 131.2 192 131.4C192.1 131.4 192.2 131.3 192.4 131.4V131.5C192.4 131.6 192.4 131.6 192.5 131.7C192.3 131.7 191.9 131.6 192 131.9C192 131.9 192 132 192 132.1C191.9 132.2 191.8 132.4 191.9 132.5C191.9 132.4 192 132.4 192.1 132.3C192.1 132.4 192.2 132.4 192.2 132.4C192.3 132.5 192.5 132.2 192.7 132.3C192.5 132.4 192.3 132.5 192.4 132.7C192.4 132.7 192.4 132.8 192.5 132.8C192.4 132.9 192.5 133.2 192.7 133.2C192.7 133.1 192.6 133 192.7 132.9C192.8 132.9 192.9 132.9 192.9 132.9C193.3 132.7 193 132.4 193.2 132.3C193.3 132.2 193.5 132.5 193.8 132.3C193.9 132.2 193.9 132.1 193.9 132C194 132.1 194.1 132.2 194.2 132.1C194 131.9 194.2 131.8 194.3 131.6C194.3 131.6 194.3 131.6 194.4 131.6C194.5 131.6 194.7 131.6 194.8 131.4C194.6 131.4 194.2 131.2 194.5 131.1C194.9 131 195 130.7 194.8 130.5C194.5 130.1 193.9 130.1 193.8 129.6H194C196 129.6 197.2 129.1 197.2 128.4C197.1 127.1 191.3 128.5 191.3 127.5C191.2 126.7 191.6 126.5 192 126.4ZM187.8 126.6C187.9 126.7 188.3 126.8 188.4 126.9C188.1 127 188.2 127.1 188 127.1C187.8 127 187.7 126.7 187.8 126.6ZM187.4 126.4C187.3 126.5 187.1 126.7 187 126.5C186.9 126.4 187 126.3 186.8 126.1C187 126.2 187.2 126.3 187.4 126.4ZM186.7 127.7C186.8 127.6 186.8 127.5 186.9 127.5C187 127.5 187.1 127.5 187.1 127.4C187.1 127.3 187 127.2 186.9 127.1C187 127.1 187.1 127 187 126.9C186.9 126.8 186.8 126.9 186.8 126.9C186.8 126.8 186.9 126.8 186.9 126.7C187 126.7 187 126.7 187.1 126.7L187.6 127C187.7 127.1 187.7 127.1 187.7 127.2C187.7 127.3 187.7 127.4 187.7 127.4C187.6 127.4 187.7 127.2 187.6 127.2C187.5 127.2 187.5 127.3 187.6 127.4C187.5 127.4 187.4 127.3 187.3 127.4C187.2 127.5 187.3 127.6 187.4 127.7C187.4 127.8 187.4 127.9 187.4 128C187.4 128.1 187.2 128.3 187 128.2C186.7 128 186.7 127.8 186.7 127.7ZM96.8 23.9C96.8 23.1 96.2 22.5 95.4 22.5C94.6 22.5 94 23.2 94 24C94 24.7 94.6 25.3 95.4 25.4C96.2 25.3 96.8 24.7 96.8 23.9ZM96.3 20.1C96.3 19.3 95.7 18.7 94.9 18.7C94.1 18.8 93.5 19.5 93.6 20.2C93.7 20.9 94.2 21.4 94.9 21.5C95.7 21.5 96.3 20.9 96.3 20.1ZM97.1 18.4C97.9 18.4 98.6 17.8 98.6 17C98.6 16.2 98 15.5 97.2 15.5H97.1C96.3 15.6 95.7 16.3 95.8 17C95.9 17.8 96.4 18.4 97.1 18.4ZM100.9 18.2C101.7 18.2 102.4 17.6 102.4 16.8C102.4 16 101.8 15.3 101 15.3H100.9C100.1 15.4 99.5 16.1 99.6 16.8C99.7 17.6 100.2 18.1 100.9 18.2ZM117.1 15.6C117.7 16.2 118.6 16.2 119.1 15.6C119.7 15 119.7 14.1 119.1 13.6C118.5 13 117.6 13 117.1 13.6C116.6 14.1 116.6 15 117.1 15.6ZM116.8 12.5C117.4 11.9 117.4 11 116.8 10.5C116.2 9.9 115.3 9.9 114.8 10.5C114.2 11.1 114.2 12 114.8 12.5C115.4 13 116.2 13.1 116.8 12.5ZM113 11.9C113.5 11.3 113.5 10.4 113 9.9C112.4 9.3 111.5 9.3 111 9.9C110.5 10.5 110.4 11.4 111 11.9C111.5 12.4 112.5 12.4 113 11.9ZM109.8 14.3C110.4 13.7 110.4 12.8 109.8 12.3C109.2 11.8 108.3 11.8 107.8 12.3C107.2 12.9 107.2 13.8 107.8 14.3C108.3 14.9 109.2 14.9 109.8 14.3ZM100.7 12.3L101.8 14.8L103.2 13.1C103.3 13.1 103.3 13.2 103.4 13.2C103.5 14 103.6 15.5 103.6 16.3C103.6 17.3 104.4 18.1 105.4 18.1C106.4 18.1 107.2 17.3 107.2 16.3C107.2 15.6 106.8 15 106.3 14.7C105.6 14.1 104.9 13.5 104.3 12.8C104.3 12.7 104.4 12.7 104.4 12.6L106.8 12.8L105.8 10.2L104 11.7C104 11.7 103.9 11.7 103.9 11.6L103.8 9L101.3 10L103 12C103 12.1 102.9 12.1 102.9 12.2L100.7 12.3ZM117.2 16.8C117.8 17.7 118 18.1 118 18.8C117.6 18.6 117.1 18.2 116.5 17.4L116.8 20.7C117.2 20.1 117.5 19.7 118 19.5C117.9 21.7 117 22.6 116.3 22.7C115.5 22.9 114.8 22.4 114.6 21.6C114.4 20.6 115.3 20 116.1 20.9C116.3 18.9 114.6 18.9 114 19.8C114.8 17.9 114.5 16.6 112.8 15.6C111.7 17.4 112.2 18.6 113.5 20C112.2 19.3 111 20.5 112.2 21.9C112.4 20.6 113.6 20.9 113.8 21.9C114 22.8 113.2 23.9 111.8 24.3C109.8 24.9 109.1 23.6 108.6 22.5C108.9 22.2 110 22.3 111.2 23L110.2 19.8C109.9 20.7 109.2 21.4 108.2 21.8C108.1 20.9 108.8 19 108.8 19L104.9 20.6C104.9 20.6 106.7 21.5 107.3 22.2C106.5 22.5 105.7 22.7 104.5 22.2L106.1 25.2C106.4 23.9 107.1 23 107.6 22.9C108 24 108.5 25.4 106.6 26.4C105.3 27 103.9 26.8 103.5 26C103 25.1 103.6 24.1 104.6 24.8C104.4 23 102.8 23 102.3 24.4C102.3 22.5 101.8 21.3 99.8 20.8C99.3 22.7 100 23.9 101.9 24.7C100.8 24.6 99.6 25.7 101.1 27C101.1 25.8 102.1 25.6 102.7 26.5C103.1 27.1 102.9 28 102.3 28.4C102.3 28.4 102.3 28.4 102.2 28.4C101.6 28.8 100.3 28.8 98.7 27.3C99.2 27.1 99.7 27.2 100.4 27.3L98.3 24.7C98.4 25.6 98.4 26.3 98.2 26.7C97.8 26.2 97.6 25.7 97.4 24.7L95.8 26.1C97.3 27 99.1 28.5 101.2 31.4C103.4 30 107.4 28.1 109.9 27.1C112.4 26.1 116.6 24.7 119.1 24.1C118.6 20.5 118.8 18.3 119.3 16.5L117.2 16.8ZM148.5 107.4C149.1 105.9 146.3 104.2 145.9 102C145.6 99.8 145.8 97.7 143.3 94.8C140.8 91.9 132.3 82.8 129.7 79.9C130.3 79.8 131.9 79.5 133.4 81C134.3 81.9 136.1 83.6 137.8 85.3C140.1 79.5 142.9 75.2 146.9 70.8C147.4 70.2 147.9 69.7 148.5 69.1C147 69.5 144.8 69.9 143.4 70.8C143.3 68.3 143.5 66.3 141.8 64.7C142.5 61.2 141.9 57 134 51.8C138 52.8 140.4 56.4 143.5 53.6C140.7 53.5 140.7 47.5 130.7 42.5C134.5 42.4 137.5 48.6 141.9 45.1C137.7 44.6 136.4 37.2 128.9 35C131.5 35.3 134.2 36.6 136.4 33.6C133.8 34.2 132.3 31.8 129.5 31.6C130.6 28.4 130.3 26.4 129.2 24C127.3 24.1 125.3 24.7 123.8 25.9C123.6 24.1 121.7 24 120.1 24.1C120.2 24.9 120.6 26 119.7 26.1C118.4 26.4 113.9 27.6 110.5 28.9C107.1 30.2 103.1 32.7 102 33.5C101.3 34 100.7 32.9 100.3 32.3C99.1 33.3 97.9 34.7 98.8 36C96.9 36.2 94.8 36.7 93 38.1C93 40.3 94.8 42.5 97.6 43.7C93 48.3 97.2 52.5 93.1 56.5C98.8 56.7 97.8 48.8 100.7 47.6C100.4 53.2 97.3 54.2 97.3 60.2C97.3 63.4 99.2 66.9 97.5 69C102.3 67.6 101 57 104 53.8C104.5 55.6 104.2 57.4 103.6 59.2C101.9 64.1 103.8 70.9 101.2 73.1C106.1 72.6 106.7 64.8 110.7 61.9C107.3 69 103.7 84 98.6 91.5C90.3 102.7 85.4 116.4 77.8 116.4C74.4 116.4 71.9 114.3 71.9 110.1C71.9 97.3 93.8 88.6 93.8 75C93.8 69 88.9 66.6 85.8 66.6C83.7 66.6 81.2 67.6 79.1 69.4C78.3 69.1 77.4 68.9 76.5 68.8C68.8 68.8 70.8 82.7 64.1 82.6C66.8 84.1 71.4 81.2 74.1 77.3C73 86.3 60 83.9 61 94.7C62.8 86.2 83.5 87.5 83.5 74.6C83.5 73.1 82.8 71.9 81.7 71C83.3 70 84.7 69.6 86.1 69.6C88.6 69.6 90.8 71.4 90.8 75.1C90.8 86.5 69 96.1 69 110.1C69 112.5 69.7 114.4 70.8 116C69.3 116.7 67.7 116.4 66.4 114.8C66.3 118.4 71.4 120.7 74.7 118.9C75.4 119.2 76.2 119.3 77 119.4C76 122.1 72.7 122.9 71 122.8C76.3 127 85.6 121.5 85.1 116.7C89.3 113.3 92 107.5 95.1 103.6C94.9 104.5 94.7 105.4 94.6 106.2C91.5 111.9 88.6 116.9 87.7 124.4C87 130.7 83.9 136.3 79.5 136.3C78.5 136.3 77 135 76.2 135.7C74.8 136.9 76.1 138.1 76.1 139.3C76.1 141.1 72.7 142.8 72.7 148.3C72.7 150.8 74.1 153.7 73.6 155.4C75 154.7 76.9 152.3 77.6 149.3C79.1 156.5 74.5 156.2 77.8 162.7C78.2 160.6 80.3 159.7 81.6 160.6C82.9 161.5 82.3 162.1 81.3 163.1C80.3 164.1 79.4 168.9 83.8 168.6C83 168.1 82.9 166.8 85.1 166.3C88.1 165.7 89 167.1 92.2 167.1C94.2 167.1 94.7 164.5 96.3 164.5C97.9 164.5 97.9 165.7 97.3 166.6C99.8 165.9 100.3 164.6 100.3 163.1C100.3 161.7 99.1 160.8 100 160.2C100.9 159.6 103.8 160.3 102.7 162.7C104.2 162.4 105 161.3 105 159.5C105 157.7 102.9 156.6 100.9 156.9C100.6 155.7 98.8 155.1 97.3 155.1C93.7 155.1 94.3 157.9 91.8 157.9C87.9 157.9 84.1 152.8 84.1 144.2C84.1 139.6 89 138.4 92.5 136.9C96 135.4 102.1 131.6 105.8 125.5C108.7 120.7 108.8 115.4 108.4 109.1C113.3 111.9 113.9 116 113.9 119C113.9 122.8 111.9 124.4 110.3 125.1C109 125.7 108.5 125.5 108.4 126.2C108.2 127.2 108.9 127.7 109.5 128.1C111.3 129 110.9 130.7 111.4 132.6C111.9 134.4 113.5 137.4 116.3 139.5C116.6 138.4 116.5 136.5 116.3 134.1C120.1 136 117.1 143.6 124.4 143.6C123 142.8 123.4 140.8 124.2 140.5C125 140.2 126 141 127.4 143C128.8 145 128.4 144.8 131.9 144.8C135.4 144.8 133.8 143.6 135.7 143.6C137.5 143.6 137.4 145.7 136.4 147.3C139.5 146.4 140.4 144 139.4 141.6C142.1 140.1 143.6 142.2 144 143.7C146.7 141 144 137.7 141.9 137.5C142 136.5 141 135.4 139.9 135.4C138.8 135.3 137.7 135.3 136.4 135.3C135.1 135.4 134.4 137.2 132.9 137.2C128.3 137.2 119.2 128.8 119.2 125.2C119.2 121.6 127.9 119.4 127.9 113.8C127.9 106.5 120.7 104 114.6 99.3C116.8 96.9 123.1 96.3 126.7 98.1C127.1 96.1 128.4 96.6 128.9 93C130.2 96.1 128.9 98.8 130.2 100.1C131.2 98.6 133.8 98.8 133.7 95C134.5 97.4 132.7 101.1 134.5 102.7C134.8 100.7 136 100.3 136.7 100.3C137.4 100.3 138.1 100.8 138.1 102C138.1 104.9 134.5 103.6 134.5 106.9C134.5 108.3 136.3 108.8 136.3 109.7C136.3 110.6 134.9 112 133.1 110.8C133.7 112.1 134.8 113.2 136.3 113.2C137.9 113.2 139.6 111.9 140.3 110.3C141.1 112.4 140.5 114.7 139 115C140.6 115.8 144.4 115 143.9 110.2C146 110.6 147.2 112 145.9 114.6C147.7 114.2 149.3 113.3 149.3 111.5C149.3 109.7 147.8 109.3 148.5 107.4ZM107.1 41.3C105.1 41.5 105.2 39.6 101.6 38.7C104.1 38.2 107.2 37 110 35.9C110.6 38.3 109.7 41.1 107.1 41.3ZM121.3 56.3C118.7 57.4 116.7 55.2 116.2 53.6C115.7 52 115.3 50.8 115.9 50.2C117 49.1 117.4 48.3 116.7 46.9C115.9 45.3 114.3 46.1 112.5 46.5C113.3 45 113.4 43.9 112.3 44.1C110.9 44.3 110.9 46.5 110.2 46.2C109.4 45.9 109.9 44.7 109.9 44C109.9 43.1 110.5 42.7 111.5 42.3L118.9 39.5C119.9 39.1 120.5 39 121.2 39.6C121.7 40.1 122.9 40.7 122.5 41.4C122.1 42.1 120.6 40.6 119.5 41.4C118.6 42.1 119.4 42.8 121 43.3C119.4 44.2 117.7 44.9 118.2 46.5C118.7 47.9 119.5 48.3 121.1 48.3C121.9 48.3 122.5 49.5 123.2 51C123.8 52.5 124 55.2 121.3 56.3ZM121.7 35.6C119.7 37.2 117.1 35.7 115.9 33.7C118.6 32.6 121.8 31.3 124 30C122 33 123.3 34.4 121.7 35.6ZM287.9 142.6C288 146 290.8 148.7 294.2 148.6C297.5 148.5 300.1 145.9 300.2 142.6C300.2 139.2 297.4 136.4 294.1 136.4C290.6 136.4 287.9 139.2 287.9 142.6ZM289.5 142.6C289.5 140.1 291.6 138 294.1 138C296.6 138 298.7 140 298.7 142.6C298.7 145.1 296.7 147.2 294.1 147.2C291.5 147.2 289.5 145.1 289.5 142.6ZM264.9 148.3C264.1 148.8 263.6 149.6 263.4 150.6C263.2 151.7 263.5 152.8 264.3 153.7C265.1 154.5 266.1 155.1 267.4 155.4C268.6 155.6 269.8 155.5 270.9 154.9C272 154.3 272.7 153.4 272.9 152.4C273.3 150.3 271.5 148.1 268.9 147.7C267.4 147.3 266 147.5 264.9 148.3ZM267.7 153.7C265.9 153.4 264.7 152.1 264.9 150.8C265 150.3 265.3 149.8 265.8 149.5C266.5 149 267.5 148.8 268.5 149C270.1 149.3 271.3 150.4 271.3 151.6C271.3 151.7 271.3 151.8 271.3 151.9C271.1 153.3 269.5 154 267.7 153.7ZM231.1 62C229.2 63.5 228.6 66 229.8 67.6C231 69.2 233.6 69.2 235.5 67.8C236.5 67 237.2 65.8 237.4 64.7C237.5 63.8 237.3 63 236.8 62.3C236.3 61.6 235.5 61.2 234.6 61.1C233.4 60.8 232.1 61.2 231.1 62ZM230.7 65.6C230.7 64.8 231.2 63.9 232 63.2C232.7 62.7 233.6 62.4 234.3 62.5C234.8 62.5 235.2 62.8 235.5 63.1C235.8 63.5 235.9 63.9 235.8 64.4C235.7 65.2 235.2 66 234.5 66.5C233.3 67.4 231.7 67.5 231 66.6C230.8 66.3 230.7 65.9 230.7 65.6ZM257.7 138C256.8 138.9 256.2 140.2 256.2 141.7V141.8C256.2 143.2 256.7 144.5 257.6 145.4C258.3 146.1 259.2 146.5 260.1 146.5C261 146.5 261.9 146.1 262.6 145.5C263.5 144.6 264.1 143.2 264.1 141.8C264.1 140.6 263.8 139.4 263.1 138.4C262.4 137.4 261.4 136.9 260.3 136.9C259.3 137 258.4 137.4 257.7 138ZM260.1 145C259.6 145 259.1 144.8 258.7 144.4C258.1 143.8 257.7 142.8 257.8 141.8C257.8 140.8 258.2 139.8 258.8 139.2C259.2 138.8 259.7 138.6 260.2 138.6C261.5 138.6 262.5 140.1 262.5 141.9C262.5 142.9 262.1 143.9 261.5 144.5C261.1 144.8 260.6 145 260.1 145ZM227.6 88.4C226.7 88.7 225.9 89.4 225.5 90.2C224.6 92.2 225.7 94.7 228.1 95.8C229.4 96.4 230.9 96.5 232.1 96.1C233 95.8 233.8 95.1 234.2 94.3C234.6 93.5 234.6 92.5 234.3 91.6C233.9 90.4 232.9 89.3 231.6 88.7C230.3 88.1 228.8 87.9 227.6 88.4ZM228.9 94.4C227.3 93.6 226.5 92.1 227 90.9C227.3 90.3 227.8 90 228.2 89.9C229 89.6 230 89.7 231 90.1C231.9 90.5 232.6 91.3 232.9 92.1C233 92.5 233.1 93.1 232.9 93.6C232.6 94.2 232.1 94.5 231.7 94.6C230.8 94.9 229.8 94.8 228.9 94.4Z" fill="black"/>
<path d="M292.2 82C294.2 87.5 298.2 89.5 301.2 88.1C294.4 87.3 299.9 75.7 291.2 75.7C290.7 75.7 290.2 75.8 289.8 75.9C288.3 74.3 286.6 73.7 284.1 73.7C280.4 73.7 274 77.3 274 84.6C274 100.5 292.4 101.9 292.4 115.9C292.4 120 289.3 122.5 285.8 122.5C282.7 122.5 280.2 119 277.6 113.6C276.4 111 273.7 107.5 270.8 103.8C271.6 104.4 272.6 104.7 273.5 104.8C274.5 104.8 275.4 104.5 276.1 103.9C276.8 103.3 277.2 102.4 277.2 101.4V101.3C277.2 100 276.7 98.7 275.7 97.7C274.7 96.6 273.4 96 272.1 96C271.1 96 270.2 96.3 269.5 96.9C268.8 97.5 268.5 98.4 268.4 99.4V99.5C268.4 100 268.5 100.6 268.7 101.1C264.7 95.9 261 90.8 261 88.1C261 85.7 262.7 83.5 264.8 80.9L265.5 81.3L266.1 80.7C266.8 79.9 268.4 78.2 271.6 74.8L271.8 74.6L272.6 73.8L270.6 72.2C271.1 71 271.6 69.7 271.9 68.3C272.5 70.8 273.8 72.5 275.6 72C274.4 69.4 276.8 65.8 275.2 59.4C276.7 61.9 278.9 63.2 280.4 62.7C276.3 59.1 281.6 54 276.3 46.2C278 46.8 279.2 46.5 280 45.6C275.1 44.9 277.4 38.7 268.9 36.5C271 36.1 272.3 34.9 271.9 33.8C269.7 35.4 267.7 30.8 260.3 30.9C259.8 28.1 257.3 25.2 254.4 23.8C254.9 25.9 254.4 27.9 253.9 29.5L229.9 5.89998C229.2 5.19998 228.8 5.09998 228.6 5.29998C228.4 5.49998 228.4 5.99998 228.9 6.49998L249.5 32.4C247.9 32.9 246.4 33.6 244.8 34.2C243.7 34.6 243 35.7 243 36.9C239.2 38.8 235.8 41.2 234.1 42.7C232.8 43.9 231.8 44.1 232.9 46.7C233.3 47.7 232 50.1 235 48.3C237 47.1 241.4 44.7 242.1 46.2C242.5 47 240.3 48 238.7 48.6C237.2 49.2 235.6 50.3 235.8 50.9C236 51.5 237.2 50.9 237.3 51.5C237.4 52.2 237.9 52.8 238.5 52.8C239.1 52.8 239.9 51.5 240.4 51.9C240.9 52.3 240.2 55.1 239.7 55.9C242 55.6 243.5 53.4 243.6 51.7C243.7 50 244.1 49.5 244.5 49.3C244.9 49.1 245.3 51.2 244.8 52.4C246 52.1 247.3 50.5 247.1 47.5C247.7 47 248.4 46.6 248.8 46.6C249.6 46.6 251.1 48.8 253.4 48.8C257.5 48.8 259.8 45.5 260 43.9C260.2 42.6 260.1 41.4 259.4 40.5C260.9 41.7 261.3 43.5 261.3 44.9C261.3 50.7 251.1 53.4 246.9 57.4C246.7 57.5 246.6 57.7 246.4 57.8L241.6 55.9L241.3 57C240.5 59.7 239.7 62.3 238.8 64.9L238.5 65.7L238.9 66C236 69.8 233.8 74 233.2 78.4C232 77.2 230.9 76.2 229.7 75.2C229.8 74.8 229.9 74.3 230 73.9C230.1 72.6 229.7 71.4 228.9 70.5C228.3 69.8 227.5 69.4 226.7 69.4C225.8 69.4 225 69.7 224.4 70.3C224.2 70.4 224.1 70.6 224 70.7C223.8 70.6 223.7 70.4 223.5 70.3C221.9 69.1 220 67.6 218.8 66.3C218.3 65.7 217.8 65.4 216.7 65.4C216.3 65.4 215.3 65.4 214.6 65.4C213.9 65.4 213.5 65.9 212.7 66.7C212.3 67 211.2 67.9 210 68.8C210.6 69.4 211.2 70 211.7 70.7C212 71 212.3 71.4 212.6 71.8L213.4 71.2C213.9 70.8 214.6 70.7 215.2 70.7C215.8 70.7 216.7 71.2 217.3 72.1C219.7 75.3 222.2 78.4 224.8 81.4C224.5 81.5 224.1 81.6 223.8 81.8C222.4 82.4 219.3 82.3 217.9 82.1C216.5 82 216.2 81.6 215.3 83.1C214.9 83.7 214.5 84.3 214 84.9C213.5 85.5 213.2 86.1 214.2 87.8C215.6 90.2 219.1 96.5 220.3 99.4C221.5 102.2 222.8 102.7 225.1 103.6C227.4 104.5 231.2 106.7 231.6 107.2L231.8 105C231.1 104.3 229 103.5 228.2 103.2C227.4 102.9 227.2 102.6 228.1 102.6C229.1 102.6 231.8 103.6 233.6 104.3C233 102.2 231 99.8 229.8 98.5C228.2 98 226.5 98 225.9 98.5C226 99 225.6 99.4 225.1 99.5C225 99.5 225 99.5 224.9 99.5C224.3 99.5 223.9 99 224 98.4C224.2 97.8 225.2 97.5 225 96.3C224.8 95.1 223.3 94.9 222.3 94.8C220.9 92.8 219.3 89.9 218.6 88.7C217.9 87.5 218.3 86.9 218.8 86.5C220 85.5 222.4 87 227.3 87.3C229 87.4 231.1 87.5 233.3 87.6C233.9 93.3 236.2 98.7 244.1 100.6C248 101.6 251.9 104.4 253.3 108.1C237.5 107.8 235 114 235 119.8C235 126.4 240.6 126 240.6 131C240.6 135.3 227.3 137.1 223.3 137.7C219.9 138.2 218 139 216.3 140.6C214.7 142.2 213 143.8 210.1 146.8C210.1 146.8 211.4 147.1 212.6 147L214.8 144.1C215.5 143.1 215.9 142.3 216.4 142.4C216.8 142.5 216.5 143.2 216 144.3L214.2 147.4C222 147.9 222.5 145 222.5 143.9C222.5 142.7 220.6 141.9 221.7 141.2C222.8 140.5 223.8 141 224.7 142C225.6 143 225.9 143.9 228 143.1C228 143.1 245 136.1 247.1 135.1C249 134.2 248.5 133.4 247.3 132.4C246 131.4 245.8 129.7 245.8 127.9C245.8 122.8 248.9 121.2 254.4 121.3C254.3 122.2 254.2 123 254.2 123.8C254.2 131.8 266.3 139.6 269.6 139.6C271.1 139.6 273 138.5 273.1 143.3C273.2 146.8 273.9 149.4 273.3 153.5C272.7 157.6 271.5 158.2 269 160C266.5 161.7 264.2 167.2 263.2 168.3C264.3 169 265.5 169.1 266.4 166.5C267.2 164.3 268 162.8 269 162.2C268 164.6 267.3 168.1 266.9 169.2C270 169.7 275 166.9 275 164.7C275 162.5 273.3 162.7 273.3 161.2C273.3 160.6 274.1 159.8 275 159.8C276.2 159.8 277.2 160.8 277.3 161.2C278.7 160.5 279.5 159.1 279.5 155.9C279.5 154.7 279.4 153.4 279.4 152C279.5 152.2 279.6 152.4 279.7 152.5C280.3 153.4 281.3 154 282.5 154.1C283.6 154.2 284.8 153.9 285.9 153.2C287.1 152.4 288 151.2 288.2 150C288.3 149.7 288.3 149.5 288.3 149.2C288.3 148.5 288.1 147.9 287.7 147.3C287.2 146.5 286.4 146 285.4 145.8C284.1 145.5 282.7 145.8 281.5 146.6C280.4 147.3 279.6 148.4 279.2 149.6C279 145.2 278.6 141.1 278.8 139.5C279 137 279.1 136 278.2 135.6C277.4 135.2 276.5 136.6 275.3 136.6C274.1 136.6 270.5 133.3 270.5 129.9C270.5 126.4 274.2 122 274.1 117.2C274 115.7 275 114.9 275.6 116.3C276.3 117.9 277.4 120.1 279 121.9C278 127.9 284.6 133.7 290 129.4C287.3 129.8 285.5 127.4 284.3 125C284.8 125.1 285.2 125.1 285.8 125.1C286.1 125.1 286.3 125.1 286.6 125.1C288.5 127.4 294.5 127.2 296.1 121.4C295 122.6 292.9 123.5 291.3 123.3C293.6 121.5 294.7 118.7 294.7 115.6C294.7 100.5 276.4 98.7 276.4 85C276.4 79.9 280.9 76.6 284 76.6C285.2 76.6 286.1 77 286.8 77.5C285.6 78.7 285 80.5 285.1 82.7C285.6 93.6 303.3 93 303.6 98.2C306 90.2 292.7 92.6 292.2 82ZM245 40.4C245.9 38.8 245 36.3 248 36.3C249.5 36.3 250.8 37.8 252.6 38.3C249.7 38.5 247.1 39.2 245 40.4ZM228.8 73.7C228.8 74.5 228.4 75.3 227.9 75.9C227.6 76.2 227.2 76.4 226.7 76.4C225.7 76.3 224.9 75.2 224.9 73.8V73.6C224.9 72.7 225.3 71.9 225.8 71.4C226.1 71.1 226.6 70.9 227 70.9C227.5 70.9 227.9 71.2 228.1 71.5C228.6 72 228.9 72.8 228.8 73.7ZM281.2 150C281.4 149.2 282 148.3 282.8 147.7C283.7 147.1 284.7 146.9 285.5 147.1C285.9 147.2 286.4 147.4 286.8 147.9C287.1 148.4 287.1 149 287 149.4C286.8 150.3 286.2 151.1 285.4 151.7C283.9 152.7 282.1 152.6 281.4 151.5C281.2 151 281.1 150.5 281.2 150ZM270.2 99.3C270.2 98.8 270.4 98.3 270.8 97.9C271.2 97.6 271.7 97.4 272.2 97.4C273.1 97.4 274 97.9 274.7 98.6C275.4 99.4 275.8 100.3 275.8 101.2C275.8 101.7 275.6 102.2 275.2 102.6C274.8 102.9 274.3 103.1 273.8 103.1C272.9 103.1 272 102.6 271.3 101.9C270.6 101.2 270.2 100.2 270.2 99.3ZM240.1 65.2C241 62.5 242.6 57.2 242.6 57.2L245.4 58.3C244.6 58.6 243.6 59.4 242.7 60.2C243.3 60.5 244.5 60.5 245.2 60L244.1 62.8C243.8 62.4 243.1 61.3 242.3 61.2C241.7 63.5 243.1 64.3 244.2 64.8C245.9 65.7 247 65.8 247.5 65C248 64 246.9 62.7 245.5 63.3C245.3 61.8 246.2 61.1 247.1 61.1C247.9 61.1 248.5 61.8 248.7 62.7C248.6 60.3 249.7 58.5 251.9 57.8C252.7 60.1 252 61.7 250.3 63.3C251.2 62.9 252.3 63 252.7 63.6C253.2 64.4 253 65.5 251.7 66.2C251.4 64.7 249.6 64.5 249.1 65.5C248.6 66.5 249.4 67.4 250.9 68.3C252.7 69.3 254.2 68.7 255.1 67.1C254.5 66.9 253.5 67 252.5 67.6L254.4 64.1C254.5 64.6 254.8 65.5 255.6 66.1C255.9 65.3 256.3 64 255.7 62.7L259.7 65C258.3 65.1 257.4 66.1 256.8 66.8C257.8 67.1 258.7 67 259.2 66.8L257.1 70.1C257.1 69 256.7 68 256.3 67.6C255.4 69.2 255.6 70.8 257.4 71.9C259 72.8 260.1 73 260.7 72.1C261.3 71.2 260.3 69.7 258.8 70.2C258.7 68.7 259.6 68 260.6 68.1C261.4 68.2 261.9 69 262.1 70C262.7 67.7 263.7 66.3 266.1 65.9C266.6 68.1 265.5 70 263.4 71.1C264.3 70.8 265.2 71 265.6 71.6C266.1 72.4 265.8 73.5 264.5 74.1C264.3 72.6 262.6 72.3 262 73.2C261.6 74 262.2 74.9 263.8 75.9C264.8 76.5 266.2 77.3 267.9 75.7C267.3 75.1 266.1 74.9 265.6 74.9L267.5 72.5C267.4 73.4 268.1 74.4 268.6 74.8C268.9 73.6 269 72.4 268.9 71.5L271.2 73.4C271.2 73.4 267.4 77.4 265.6 79.5L240.1 65.2ZM265 127.8C264 129.2 262.3 129.7 261.1 128.9C260 128.1 259.9 126.3 260.9 124.9C261.9 123.5 263.6 123 264.7 123.7C265.9 124.6 266 126.4 265 127.8ZM272.2 116.4C271.2 117.8 269.5 118.3 268.4 117.5C267.3 116.7 267.2 114.9 268.2 113.5C269.2 112.1 270.9 111.6 272 112.4C273.1 113.1 273.2 114.9 272.2 116.4Z" fill="black"/>
<rect width="14" height="500" fill="#004E87"/>
</g>
<defs>
<clipPath id="clip0_1_41">
<rect width="850" height="500" fill="white"/>
</clipPath>
</defs>
</svg>
