<svg width="600" height="274" viewBox="0 0 600 274" fill="none" xmlns="http://www.w3.org/2000/svg">
<g clip-path="url(#clip0_1_64)">
<path d="M-0.400024 0.100006H5.99998V260.2H-0.400024V0.100006ZM85.5 16.6C84.9 17.7 84.4 18.4 84.5 19.3C84.6 20.2 85.5 20.8 86 21.7C86.4 20.7 87 19.9 87 19.1C86.8 18.2 85.7 17.1 85.5 16.6ZM100.7 16.6C101.3 17.7 101.8 18.4 101.7 19.3C101.6 20.2 100.7 20.8 100.2 21.7C99.8 20.7 99.2 19.9 99.2 19.1C99.4 18.2 100.5 17.1 100.7 16.6ZM76.6 15.9C77.2 15.9 77.6 15.4 77.6 14.9C77.6 14.3 77.1 13.9 76.6 13.9C76 13.9 75.6 14.4 75.6 14.9C75.6 15.4 76.1 15.9 76.6 15.9ZM77.3 17.4C77.3 16.8 76.8 16.4 76.3 16.4C75.7 16.4 75.3 16.9 75.3 17.4C75.3 18 75.8 18.4 76.3 18.4C76.8 18.4 77.3 18 77.3 17.4ZM77.8 19.9C77.8 19.3 77.3 18.9 76.8 18.9C76.2 18.9 75.8 19.4 75.8 19.9C75.8 20.5 76.3 20.9 76.8 20.9C77.4 20.9 77.8 20.5 77.8 19.9ZM82.4 11C83 11 83.4 10.5 83.4 10C83.4 9.4 82.9 9 82.4 9C81.8 9 81.4 9.5 81.4 10C81.3 10.5 81.8 11 82.4 11ZM79.8 11.8C80.4 11.8 80.8 11.4 80.9 10.8C80.9 10.2 80.5 9.8 79.9 9.7H79.8C79.2 9.7 78.8 10.2 78.8 10.8C78.8 11.3 79.2 11.8 79.8 11.8ZM77.8 13.5C78.4 13.5 78.8 13 78.8 12.5C78.8 11.9 78.3 11.5 77.8 11.5C77.2 11.5 76.8 12 76.8 12.5C76.7 13.1 77.2 13.5 77.8 13.5ZM85 11.2C85.6 11.2 86 10.7 86 10.2C86 9.6 85.5 9.2 85 9.2C84.4 9.2 84 9.7 84 10.2C84 10.8 84.5 11.2 85 11.2ZM87.6 12C88.2 12 88.6 11.5 88.6 11C88.6 10.4 88.1 10 87.6 10C87 10 86.6 10.5 86.6 11C86.6 11.5 87.1 12 87.6 12ZM90 13.1C90.6 13.1 91 12.6 91 12.1C91 11.5 90.5 11.1 90 11.1C89.4 11.1 89 11.6 89 12.1C89 12.6 89.5 13.1 90 13.1ZM108.5 14.9C108.5 15.5 109 15.9 109.5 15.9C110.1 15.9 110.5 15.4 110.5 14.9C110.5 14.4 110 13.9 109.5 13.9C108.9 13.8 108.5 14.3 108.5 14.9ZM109.9 16.4C109.3 16.4 108.8 16.9 108.8 17.4C108.8 18 109.3 18.4 109.9 18.4C110.5 18.4 110.9 17.9 110.9 17.4C110.9 16.8 110.4 16.4 109.9 16.4ZM109.3 18.9C108.7 18.9 108.3 19.4 108.3 19.9C108.3 20.5 108.8 20.9 109.3 20.9C109.8 20.9 110.3 20.4 110.3 19.9C110.4 19.3 109.9 18.9 109.3 18.9ZM103.8 11C104.4 11 104.8 10.5 104.8 10C104.8 9.4 104.3 9 103.8 9C103.2 9 102.8 9.5 102.8 10C102.8 10.5 103.2 11 103.8 11ZM106.4 11.8C106.9 12.1 107.6 11.9 107.8 11.3C108.1 10.8 107.8 10.2 107.3 9.89999C106.8 9.59999 106.1 9.89999 105.9 10.4C105.6 10.9 105.8 11.5 106.4 11.8ZM108.4 13.5C109 13.5 109.4 13 109.4 12.5C109.4 11.9 108.9 11.5 108.4 11.5C107.8 11.5 107.4 12 107.4 12.5C107.4 13.1 107.8 13.5 108.4 13.5ZM101.1 11.2C101.7 11.2 102.1 10.7 102.1 10.2C102.1 9.6 101.6 9.2 101.1 9.2C100.5 9.2 100.1 9.7 100.1 10.2C100.1 10.8 100.5 11.2 101.1 11.2ZM98.5 12C99.1 12 99.5 11.5 99.5 11C99.5 10.4 99 10 98.5 10C97.9 10 97.5 10.5 97.5 11C97.5 11.5 98 12 98.5 12ZM95.1 12.1C95.1 12.7 95.6 13.1 96.2 13.1C96.7 13 97.1 12.6 97.2 12.1C97.2 11.5 96.7 11.1 96.2 11.1C95.6 11 95.1 11.5 95.1 12.1ZM91.3 17.7H92.4V13.3C92 13.3 91.6 13.1 91.3 12.9V17.7ZM94.8 12.9C94.4 13.1 94.1 13.2 93.6 13.3V17.7H94.8V12.9ZM92.4 8V5.39999C91.1 5.69999 90.1 6.7 89.8 8H92.4ZM93.7 8H96.2C96 6.7 95 5.69999 93.7 5.39999V8ZM89.9 9.3C90.3 11.1 92 12.2 93.8 11.8C95.1 11.5 96 10.5 96.3 9.3H89.9ZM94.8 4.89999C94.1 4.29999 93.5 3.50001 93.4 2.60001C94.2 2.80001 95.2 3.40001 95.8 4.10001V0.600006C95.2 1.30001 94.3 2.00001 93.4 2.10001C93.5 1.20001 94 0.4 94.8 -0.5H91.4C92.1 0.4 92.7 1.20001 92.8 2.10001C92 1.90001 91 1.30001 90.5 0.600006V4.10001C91.1 3.40001 92 2.70001 92.8 2.60001C92.7 3.50001 92.1 4.29999 91.4 4.89999H94.8ZM98.6 75.9C95.4 75.1 91.5 73.7 87.9 72C88 71.3 87.7 70.4 87.2 69.8C86.6 69.2 85.9 68.8 85.2 68.8C84.9 68.8 84.5 68.8 84.2 69C83.7 68.5 83.2 68 82.7 67.5C81.3 65.9 80.2 64 79.5 62C79.1 60.8 78.8 59.6 78.6 58.3C78.4 59.3 77.2 60.8 75.2 60.8C75.3 60.6 75.2 60.1 75 60C74.5 60.6 73.6 61.3 71.8 60.6C72.1 62.1 72.5 63.5 73 64.8C74 67.7 75.7 70.3 77.7 72.6C78.4 73.3 79.1 74.1 79.8 74.7V75.1C79.8 75.9 80.5 77.1 81.6 77.6C82.5 78 83.4 77.9 84.3 77.3C85.9 78.1 87.9 78.9 90 79.5C92.5 80.2 94.8 80.5 96.6 80.5C98.2 80.5 100.3 79.8 102.3 78.5C103.1 78 103.9 77.4 104.5 76.8C104.6 76.8 104.7 76.6 104.7 76.6C103.1 76.9 100.6 76.5 98.6 75.9ZM86.8 71.1L86.4 70.8C85.8 70.3 85.2 70.3 84.7 70.8C84.4 71 84.2 71.3 84 71.6L83.6 72L83.9 72.2C84.6 72.7 84.7 73.3 84.5 73.7C84.5 73.9 84.3 73.9 84.1 74C83.8 74.1 83.3 73.9 82.8 73.7L82.5 73.5L82.3 73.8L82.2 74C82.2 74.1 82.1 74.2 82 74.3C81.7 74.8 81.6 75.2 81.6 75.5C81.6 75.6 81.6 75.7 81.6 75.8C81.7 76.2 82 76.3 82.2 76.5H82.3C82.6 76.7 83 76.9 83.3 77.1C82.7 77.4 82.1 77.5 81.5 77.2C80.6 76.8 80 75.7 80 75.2C80 74.4 80.4 73.4 81 72.4L81.1 72.2L81 72C80.8 71.7 80.7 71.4 80.5 71.1C80.8 71.1 81.2 71.2 81.5 71.3L81.7 71.4L81.8 71.3C82.2 70.9 83.6 69.5 84.8 69.5C85.4 69.5 85.9 69.8 86.4 70.3C86.7 70.7 86.9 71.1 87 71.6C87.1 71.4 86.9 71.2 86.8 71.1ZM88.8 77.2C88 77.2 87.4 76.6 87.4 75.8C87.4 75 88 74.4 88.8 74.4C89.6 74.4 90.2 75 90.2 75.8C90.3 76.6 89.6 77.2 88.8 77.2ZM94.9 79.2C94.2 79.2 93.6 78.6 93.6 77.9C93.6 77.2 94.2 76.7 94.9 76.6C95.6 76.6 96.2 77.2 96.2 77.9C96.2 78.6 95.7 79.2 94.9 79.2ZM96.6 85.6C96.3 85.6 96.1 85.7 95.9 85.7V81.8C94 81.7 92.1 81.4 90.2 81V85.7C90 85.6 89.7 85.6 89.5 85.6C88.1 85.6 87.3 86.8 87.3 87.8C87.3 88.8 87.9 89.7 88.4 90.3C88.7 89.7 88.9 89.2 89.2 89.2C89.9 89.2 89.6 92.6 91.6 92.7C91.5 92.9 91.5 93.1 91.5 93.2C91.5 94 92.2 94.8 93.1 94.8C93.9 94.8 94.7 94.1 94.7 93.2C94.7 93 94.7 92.8 94.6 92.7C96.6 92.6 96.3 89.2 96.9 89.2C97.2 89.2 97.5 89.7 97.7 90.3C98.2 89.7 98.8 88.8 98.8 87.8C98.9 86.7 98 85.6 96.6 85.6ZM93.1 94.1C92.6 94.1 92.2 93.7 92.2 93.2C92.2 92.7 92.6 92.3 93.1 92.3C93.6 92.3 94 92.7 94 93.2C94 93.7 93.6 94.1 93.1 94.1ZM97.8 89.1C97.6 88.7 97.2 88.4 96.9 88.4C95.5 88.4 96.1 91.9 94.5 91.9C93.8 91.9 93.5 91.4 93.5 91C93.5 90.5 93.9 90.4 93.9 90C93.9 89.6 93.6 89.5 93.2 89.5C92.9 89.5 92.5 89.7 92.5 90C92.5 90.4 92.9 90.5 92.9 91C92.9 91.5 92.5 91.9 91.9 91.9C90.3 91.9 90.9 88.4 89.5 88.4C89.2 88.4 88.9 88.7 88.6 89.1C88.3 88.6 88.2 88.1 88.2 87.7C88.2 87.1 88.7 86.2 89.7 86.2C91.5 86.2 91.1 88.6 91.9 88.6C92.3 88.6 92.6 88.4 92.6 88C92.6 87.3 91.3 86.6 91.3 85.7C91.3 84.8 92.2 83.9 93.2 83.1C94.2 83.9 95.1 84.7 95.1 85.7C95.1 86.7 93.8 87.3 93.8 88C93.8 88.4 94.1 88.6 94.4 88.6C95.2 88.6 94.8 86.2 96.6 86.2C97.6 86.2 98.1 87.1 98.1 87.7C98.2 88.2 98 88.7 97.8 89.1ZM142.4 90.2C142.3 90 142.1 89.9 141.9 89.9C137.4 91.2 131.7 87.4 126.2 83.8C121.6 80.7 117.2 77.8 113.5 77.8C112.1 77.8 110.9 78.1 109.8 78.7C108.5 79.4 107.5 80.5 106.9 82C106.3 83.5 105.6 84.6 105.1 85.4C104.5 86.4 104 87.1 104 88C104 88.7 104.3 89.4 104.9 90C105.4 90.5 106.2 91 107.3 91.6C107.6 91.7 107.8 91.8 108 92C108.9 92.4 109.5 92.7 109.6 93.3C107.8 94.1 105.5 94.8 102.8 95.2C99.8 95.7 96.5 96 93 96C89.6 96 86.3 95.7 83.3 95.2C80.6 94.7 78.3 94.1 76.5 93.3C76.6 92.5 77.1 92.3 78.1 91.8C78.4 91.7 78.6 91.6 78.8 91.4C79.7 90.9 80.6 90.5 81.2 89.9C81.8 89.3 82.1 88.7 82.1 88C82.1 87.1 81.6 86.4 81 85.4C80.5 84.6 79.8 83.5 79.2 82C78.6 80.5 77.6 79.3 76.3 78.7C75.3 78.1 74 77.8 72.6 77.8C68.9 77.8 64.5 80.7 59.9 83.8C54.4 87.5 48.8 91.2 44.2 89.9C44 89.8 43.7 89.9 43.7 90.2C43.6 90.4 43.7 90.7 44 90.7C45.4 91.3 46.6 92.3 47.8 93.2C49.5 94.5 51 95.7 52.7 95.7C54.3 95.7 56 95.2 58.2 94.1C60 93.2 62 91.9 63.8 90.6C67.4 88.1 71.1 85.6 74.7 85.3C74.3 85.7 74 86 73.7 86.3C72.7 87.2 71.8 88 71.8 89.7C71.8 91 72.2 91.9 72.8 93.2C73 93.6 73.2 94 73.4 94.5C73.8 95.4 74 96.1 74.2 97.1C74.3 97.5 74.4 98 74.6 98.6C74.8 99.4 75.2 101 77.8 102.3C80.8 103.8 86 104.6 93.2 104.6C100.4 104.6 105.6 103.8 108.6 102.3C111.2 101 111.6 99.4 111.8 98.6C112 98 112.1 97.6 112.2 97.1C112.5 96.2 112.6 95.4 113 94.5C113.3 93.9 113.6 93.4 113.8 92.9C114.3 91.9 114.8 91.1 114.8 89.9C114.8 88.3 113.9 87.4 112.8 86.4C112.4 86.1 112.1 85.7 111.7 85.4C115.2 85.7 119 88.2 122.6 90.7C124.4 92 126.4 93.3 128.2 94.2C130.3 95.3 132.1 95.8 133.7 95.8C135.4 95.8 136.9 94.6 138.6 93.3C139.8 92.4 141 91.4 142.4 90.8C142.3 90.7 142.4 90.4 142.4 90.2ZM115 53.8C114.5 53.4 113.7 52.7 113.2 51.8C112.7 50.7 110.4 46.2 110.1 45.6C109.8 45.1 109.6 44.7 109.6 44.3C109.6 43.8 109.8 43.5 110.1 43.1C110.3 42.9 110.8 42.4 110.9 42.1C111.1 41.9 111.2 41.7 111.3 41.6C110.5 40.2 109.6 39.1 108.5 37.9C107.2 36.4 105.7 35.1 104.1 34.1C105 33.5 105.8 32.7 105.8 31.4C105.8 30.6 105.5 30 104.9 29.5C105.8 26.6 107.4 23.1 108.9 21.5L106 20.2C106.8 21.3 106.8 22.7 106.6 23.5C105.8 23 105.2 22.2 105 21.3C104.8 22.2 104.4 23.7 103.9 24.5C104.7 24.1 105.4 23.9 106.3 24.3C105.8 25 104.5 26 102.6 25.6C101.6 25.3 100.5 24.8 100.6 24C100.6 23.5 101 23 101.6 23C102.2 23 102.3 24 102.1 24.5C102.9 24 103.8 21.6 102.5 21.2C101.5 20.9 100.5 22.3 100.2 23.4C100 22.1 99.5 20.8 98.4 20.9C97 21 97.5 23.5 98 24.1C98.1 23.2 98.6 22.7 98.9 22.8C99.3 22.8 99.7 23.1 99.6 23.8C99.5 24.6 98.4 25.1 97.1 25.1C95.8 25.1 93.7 24.7 93.5 22.3C94.3 22.5 95.6 23.1 96.1 23.9C95.9 22.6 95.9 21.2 96.1 19.9C95.4 20.8 94.3 21.3 93.5 21.5C93.7 20.5 94.6 19.4 95.6 18.7H90.3C91.3 19.3 92.2 20.4 92.4 21.5C91.6 21.3 90.5 20.9 89.9 19.9C90.1 21.4 90.1 22.4 89.9 23.9C90.4 23.1 91.7 22.5 92.5 22.3C92.3 24.7 90.1 25.1 88.9 25.1C87.6 25.1 86.5 24.6 86.4 23.8C86.3 23 86.8 22.8 87.2 22.8C87.6 22.7 88.1 23.2 88.1 24.1C88.6 23.5 89 21 87.7 20.9C86.7 20.8 86.1 22.1 85.9 23.4C85.5 22.3 84.6 20.9 83.6 21.2C82.3 21.6 83.2 24 84 24.5C83.8 24.1 83.8 23.1 84.5 23C85.2 22.9 85.5 23.5 85.5 24C85.6 24.8 84.5 25.4 83.5 25.6C81.6 26.1 80.3 25 79.8 24.4C80.7 24 81.4 24.2 82.2 24.6C81.7 23.8 81.3 22.3 81.1 21.4C80.9 22.4 80.2 23.1 79.4 23.6C79.2 22.5 79.4 21.2 80 20.3L77.1 21.6C78.5 23.2 80.1 26.7 81.1 29.6C80.5 30.1 80.2 30.8 80.2 31.5C80.2 32.9 81.1 33.7 81.9 34.2C80.3 35.3 78.8 36.5 77.5 38C75.5 40.3 73.9 42.9 72.8 45.8C73.2 46.2 74.9 48.1 75.4 48.7C76.1 49.6 76.5 50.5 76.6 51.3C76.7 52.6 76.9 53.1 77.6 54.1C77.8 54.4 78.1 55.4 78.2 56.1H92.8V71.9C92.2 72 91.6 72.1 91.1 72.7C92.8 73.4 94.4 74 96 74.5C96.2 73.5 96.4 72.8 96.9 72.2C96.9 72.2 94.8 72 93.7 71.9V56.1H108C108 58.2 107.6 60.4 106.9 62.4C106.2 64.4 105.1 66.3 103.7 67.9C102.4 69.5 100.8 70.7 99 71.6C98.7 71.8 98.7 72 98.4 72.1C98.1 72.4 97.9 72.8 97.7 73.4C97.5 73.9 97.4 74.2 97.4 74.9C98.1 75.1 98.4 75.2 99.1 75.4C104.1 76.7 105.3 76.3 105.6 76.1C106.8 75.2 107.8 74.2 108.7 73.2C110.7 70.9 112.3 68.2 113.4 65.4C114.5 62.4 115.1 59.1 115.1 55.8C115 54.5 115 54.4 115 53.8ZM92.9 54.9H78.3C78.3 52.7 78.7 50.5 79.4 48.4C80.1 46.4 81.2 44.5 82.6 42.9C83.9 41.3 85.5 40.1 87.3 39.2C89 38.4 90.9 37.9 92.8 37.9L92.9 54.9ZM93.1 30.6C88.3 30.6 84.9 32 83 33.3C81.9 32.6 81.4 32 81.4 31.2C81.4 28.4 89.2 28.2 93.1 28.2C97.1 28.2 104.8 28.5 104.8 31.2C104.8 32 104.3 32.6 103.2 33.3C101.3 32.1 98 30.6 93.1 30.6ZM93.7 54.9V37.8C95.5 37.9 97.2 38.3 98.9 39.1C100.7 40 102.2 41.2 103.6 42.8C105 44.4 106.1 46.3 106.8 48.3C107.5 50.4 107.9 52.6 107.9 54.8L93.7 54.9ZM105.7 52C106 52.2 105.9 52.6 105.5 52.5C105.2 49.9 104.2 47.4 102.8 45.3L102.9 45.2C103.2 45.1 103.5 44.8 103.5 44.5C103.1 44.5 102.8 44.6 102.6 44.9C102.5 44.7 102.4 44.6 102.3 44.5C101.4 43.4 100.4 42.4 99.2 41.6C98.2 40.9 97 40.3 95.8 40C95.8 39.7 96.2 39.7 96.3 39.9C96.3 39.4 95.9 39.2 95.7 39.3C95.6 39.4 95.5 39.5 95.4 39.7C95.3 39.5 95 39.4 94.8 39.3C94.8 39.6 94.9 39.8 95 40C94.8 40 94.7 40.1 94.6 40.2C94.5 40.4 94.7 40.8 95.1 40.9C94.9 40.7 95 40.4 95.3 40.4V46C95 45.9 94.6 46 94.4 46.3C94.7 46.6 95 46.6 95.3 46.6V52.7C95 52.7 94.9 52.3 95.1 52.2C94.6 52.2 94.5 52.6 94.6 52.8C94.7 53 94.8 53.1 95.1 53C94.9 53.2 94.8 53.4 94.8 53.6C95 53.6 95.3 53.5 95.4 53.3C95.3 53.6 95.5 53.7 95.6 53.8C95.8 53.9 96.2 53.7 96.2 53.3C96 53.5 95.7 53.5 95.7 53.2H99.9C99.8 53.5 99.9 53.9 100.2 54.1C100.5 53.8 100.5 53.5 100.5 53.2H105.2C105.2 53.5 104.8 53.6 104.7 53.4C104.7 53.9 105.1 54 105.3 53.9C105.5 53.8 105.6 53.7 105.5 53.4C105.7 53.5 105.9 53.6 106.1 53.6C106.1 53.3 106 53.1 105.8 53C106.1 53 106.2 52.9 106.3 52.8C106.3 52.5 106.1 52 105.7 52ZM101.6 44.7C101.5 44.8 101.4 45 101.4 45.1C101.4 45.3 101.6 45.4 101.8 45.4C101.6 45.6 101.5 45.8 101.5 46C101.8 46.1 102 45.9 102.2 45.8C102.2 46.1 102.3 46.2 102.4 46.3C102.5 46.3 102.7 46.3 102.8 46.3C103.9 48.1 104.6 50 104.9 52.1C104.7 52 104.5 51.9 104.4 51.9C104.4 52.2 104.5 52.4 104.7 52.6H101.2C101.2 52.4 101.1 52.2 100.9 52.1C100.7 52 100.6 52 100.4 52.3C100.4 52.1 100.3 51.8 100.1 51.7C99.9 51.9 99.8 52.1 99.8 52.3C99.6 52.1 99.5 52.1 99.3 52.1C99.1 52.2 99 52.4 99.1 52.6H96.1C96.3 52.4 96.3 52.2 96.3 52C96.1 52 95.9 52.1 95.7 52.2V47.3C95.9 47.3 96.1 47.2 96.2 47.1C96.3 46.9 96.3 46.8 96 46.6C96.3 46.6 96.5 46.5 96.6 46.3C96.5 46.1 96.2 46 96 46C96.2 45.8 96.2 45.7 96.2 45.5C96.1 45.3 95.9 45.2 95.7 45.3V41.1C95.8 41.2 96 41.3 96.2 41.3C96.2 41.1 96.1 40.9 96 40.7C96.9 41 97.9 41.5 98.8 42.1C99.8 42.8 100.8 43.7 101.6 44.7ZM103.2 50.5C103.4 50.5 103.5 50.3 103.6 50.1C103.4 50.2 103.2 50 103.2 50C103.4 49.9 103.5 50 103.4 49.7C103.2 49.4 103.1 49.4 102.9 49.6C102.7 49.8 101.6 49.5 101.6 48.7C101.7 48.9 101.8 49 102 49C102.1 49 102.1 49.1 102.2 49.1H102.4C102.5 49.2 102.6 49.2 102.7 49.2V49.1C102.9 49 103.1 48.9 103.1 48.6C103.2 48.1 102.7 47.9 102.2 47.5C102 47.4 101.9 47.2 101.7 47.1C101.5 46.8 101.7 46.5 101.2 45.8C101.2 45.6 101.2 45.4 101 45.3C100.7 45.9 100.8 46.6 101.3 47.1C101.8 47.6 102.8 48.1 102.8 48.6C102.8 48.7 102.7 48.8 102.5 48.8H102.3C102.2 48.8 102.2 48.8 102.2 48.7C102.1 48.7 102 48.6 102 48.6C101.9 48.6 101.7 48.4 101.6 48.3C101.2 47.9 100.8 47.4 100.6 47C100.1 46.4 100.3 45.8 100.4 45.3C100.7 44.8 100.2 43.9 99.9 43.7C99.9 43.7 100 43.5 99.9 43.2C99.9 43.3 99.7 43.3 99.6 43.3C99.5 43.1 99.5 43.1 99.3 43.1C99.1 43 99.1 42.9 99.1 42.9C99 43 98.9 43.1 98.8 43.1C98.6 43.1 98.5 43.1 98.5 43.1C98.4 43.2 98.3 43.3 98.1 43.2C97.9 43.2 97.9 43.3 97.9 43.5C97.9 43.6 97.9 43.7 98.1 43.8H98.2L98.4 44L98.5 43.8C98.6 43.8 98.8 43.7 98.9 43.9C98.9 44 98.9 44.1 98.8 44.1C98.6 44.1 98.5 44.1 98.4 44.2C98.3 44.2 98.3 44.4 98.3 44.4C98.3 44.5 98.4 44.6 98.7 44.5C98.9 44.4 99.3 44.4 99.3 44.6C99.3 45.1 98.7 45.1 98.6 45.7C98.4 45.6 98.3 45.5 98.2 45.4C98.1 45.2 97.9 45 97.8 44.9C97.7 44.7 97.5 44.6 97.4 44.5C97.2 44.4 97.2 44.3 97.2 44.1C97.2 43.9 97.2 43.7 97.2 43.6C97.2 43.6 97.2 43.5 97.2 43.4C97.1 43.3 97 43.2 96.9 43.2C96.9 43.2 97 43.2 97 43.4C96.9 43.5 96.9 43.5 96.9 43.5C96.8 43.5 96.8 43.6 96.9 43.7V43.8V43.9C96.8 43.8 96.8 43.6 96.7 43.6H96.6C96.6 43.5 96.4 43.4 96.3 43.5C96.4 43.5 96.4 43.5 96.4 43.6C96.4 43.7 96.4 43.7 96.3 43.8C96.3 43.9 96.4 44 96.5 44H96.6C96.4 43.9 96.3 44 96.3 44.1V44.2C96.2 44.3 96.2 44.4 96.4 44.5C96.4 44.4 96.4 44.4 96.5 44.3C96.5 44.4 96.6 44.4 96.6 44.4C96.6 44.4 96.6 44.4 96.7 44.3H96.8V44.4C96.6 44.6 96.7 44.7 96.9 44.7C96.8 44.9 96.5 44.8 96.6 44.5C96.4 44.8 96.7 45 97 44.9C97 45 97 45.2 97.1 45.3V45.2V45.3C97.1 45.3 97.2 45.5 97.3 45.5C97.3 45.4 97.3 45.4 97.4 45.4C97.4 45.5 97.5 45.6 97.6 45.6C97.7 45.9 98 46.4 98.6 46.7C98.3 46.9 98.1 47.1 97.9 47.4C97.7 47.6 97.5 47.8 97.3 47.7C97.2 47.7 97.2 47.6 97.1 47.6C97 47.5 96.9 47.5 96.9 47.5C96.8 47.5 96.8 47.5 96.8 47.6C96.7 47.5 96.5 47.6 96.5 47.7C96.6 47.7 96.6 47.6 96.7 47.7V47.8C96.7 47.9 96.8 48 97.1 48C97.1 48 97.2 48 97.2 48.1C97.1 48.2 97.1 48.2 97 48.2C96.8 48.1 96.8 48 96.7 48.2C96.7 48.3 96.6 48.3 96.6 48.3H96.5C96.4 48.3 96.2 48.6 96.4 48.7C96.4 48.6 96.4 48.5 96.5 48.5C96.5 48.6 96.6 48.6 96.6 48.6C96.7 48.8 96.8 48.8 97 48.5C97 48.4 97.1 48.5 97 48.5C97 48.7 96.8 48.9 97.1 48.9H97.2C97.2 49.1 97.5 49.1 97.6 49.1C97.5 49 97.4 49 97.4 48.9H97.5C97.6 48.8 97.5 48.6 97.5 48.6C97.5 48.5 97.6 48.6 97.6 48.6C97.7 48.7 97.8 48.8 97.9 48.7C98 48.6 98 48.6 98 48.5C98.2 48.4 98.4 48.3 98.6 48.4C98.5 48.3 98.7 48.1 98.9 48.1C99.1 48 99.2 48.1 99.3 48.2C99.4 48 99.4 47.9 99.5 47.8C99.5 48.7 100.7 48.7 101 49.2C100.6 49 100.2 48.9 100 49C99.7 49.1 99.2 49.3 99.1 49.7C99 50 99.3 50.4 99.6 50.6C99.2 50.7 99.1 50.5 98.8 50.7H98.7C98.4 50.8 98.4 50.2 98.1 50.4C98 50.4 98 50.4 98 50.4C97.9 50.4 97.7 50.6 97.7 50.7C97.8 50.6 97.8 50.6 97.9 50.6V50.7C97.9 50.8 97.9 50.8 98 50.8C98.1 50.8 98.1 50.7 98.1 50.7C98.1 50.7 98.1 50.7 98.1 50.8C98.1 50.9 97.7 50.7 97.8 51.1V51.2C97.8 51.3 97.8 51.4 98.1 51.4C98.1 51.4 98 51.4 98 51.3H98.1C98.1 51.3 98.1 51.3 98.1 51.2C98.1 51.2 98.2 51.2 98.2 51.3V51.4C98.2 51.4 98.2 51.5 98.3 51.5C98.3 51.6 98.5 51.8 98.7 51.6L98.5 51.5C98.6 51.5 98.6 51.5 98.6 51.4C98.6 51.4 98.6 51.4 98.6 51.3C98.6 51.2 98.6 51.2 98.7 51.2H98.8C98.9 51.2 98.9 51.2 98.9 51.3C98.9 51.4 99.1 51.5 99.2 51.4C99.2 51.4 99.3 51.4 99.3 51.3C99.4 51.4 99.4 51.4 99.5 51.4C99.4 51.3 99.5 51.2 99.8 51.4L100 51.2C100 51.2 100.3 51.3 100.4 51.2C100.5 51 100.5 51 100.5 50.9C100.4 50.6 100.3 50.6 100.2 50.4C100.1 49.9 100.7 49.7 101.1 49.8C101.2 50.1 101.6 50.8 102.2 51.1C102.6 51.3 102.8 50.8 102.9 50.8V50.9C102.9 51.1 102.9 51.3 102.9 51.4C102.8 51.5 102.6 51.4 102.5 51.4C102.4 51.4 102.4 51.4 102.3 51.5C102.2 51.5 102 51.7 102 51.8C102.1 51.7 102.1 51.7 102.2 51.7V51.8C102.2 52 102.4 52 102.5 51.9H102.6C102.5 52 102.3 52.2 102.5 52.2L102.6 52.3C102.6 52.4 102.7 52.5 102.8 52.5C102.8 52.4 102.8 52.4 102.8 52.3H102.9C103 52.3 102.9 52.1 103.1 52C103.1 52 103.2 52 103.1 52C103 52.1 103 52.3 103.2 52.3H103.3C103.4 52.4 103.5 52.5 103.6 52.4C103.5 52.4 103.5 52.3 103.4 52.3C103.5 52.2 103.5 52.2 103.5 52.2C103.6 51.9 103.3 51.9 103.3 51.8C103.3 51.6 103.6 51.7 103.6 51.5V51.4C103.7 51.3 103.9 51.2 103.9 51.1C103.4 50.6 103.3 50.6 103.2 50.5ZM91.2 58.6H90.9V58.4C91 57.6 90.4 56.9 89.5 56.9C88.7 56.9 87.1 57.9 84.9 57.9C84 57.9 82.9 57.4 82.1 57L81.8 57.7V57.6C81.8 57.3 81.5 57.1 81.3 57.1C81 57.1 80.7 57.4 80.8 57.7C80.8 58 81.1 58.3 81.4 58.2C81.6 58.2 81.7 58.2 81.8 58L81.5 58.7C81.6 58.7 81.7 58.8 81.8 58.8C81.5 62.1 83.9 66.4 88.3 67.7C88.9 67.5 89.6 67.6 89.6 68.3C89.6 68.7 89.4 68.9 89 68.9C88.7 68.9 88.6 68.7 88.6 68.6C88.6 68.3 89.1 68.5 89.2 68.3C89.3 68 89.1 67.9 88.8 67.9C88.5 67.9 88 68.1 88 68.6C88 69.2 88.5 69.5 89 69.5C89.5 69.5 90.5 69.2 90.4 68C90.7 68 90.9 68 91 67.7V67L90.7 66.9L90.9 59.2H91.1C91.4 59.2 91.6 59.1 91.6 58.8C91.7 58.7 91.5 58.6 91.2 58.6ZM83.3 59.1L88.6 66.8C85.8 65.7 82.9 63.2 83.3 59.1ZM88.8 66.1L84 59.1H84.5C84.8 59.1 85 59.1 85.2 59L89.1 64.6C88.9 65.2 88.8 65.7 88.8 66.1ZM89.1 63.9L85.7 59L86.8 58.7L89.3 62.4L89.1 63.9ZM89.9 58.5H89.7C89.5 58.5 89.2 58.6 89.2 58.9C89.2 59.2 89.4 59.4 89.7 59.4H89.9L89.8 59.6C89.8 60 89.6 60.8 89.5 61.6L87.3 58.5C88.3 58.1 89.1 57.7 89.6 57.7C89.9 57.6 90 57.7 89.9 58.5ZM90.3 43.1C91.3 43.1 91.9 42.8 91.9 42.4C91.9 41.3 89 42 89 41.3C89 41.2 89.1 41.1 89.2 41H89.3C90.8 40.8 90.8 39.9 91.8 39.7C90.6 39.5 90.4 40.5 89.9 40.5C90.2 40.3 90.3 40 90.3 39.9C90 40.2 89.5 40.3 89.2 40.6C89.1 40.7 89.1 40.8 89.1 40.8C88.9 40.9 88.8 41.1 88.8 41.2C88.8 42.3 91.7 41.6 91.7 42.3C91.7 42.6 91.2 42.8 90.4 42.8C89.8 42.8 89.4 42.4 88.3 42.6C88.3 42.5 88.7 42.1 88.5 41.9C88.6 41.8 88.7 41.8 88.7 41.7C88.7 41.6 88.5 41.6 88.5 41.6C88.6 41.5 88.5 41.5 88.4 41.4V41.2C88.3 41.2 88.3 41.1 88.1 41C88 40.9 87.9 40.9 87.8 40.9H87.6C87.6 40.9 87.4 40.9 87.4 41C87.3 40.9 87.3 40.9 87.2 40.9C87.1 41 87.1 41.1 87.1 41.2C87 41.2 86.9 41.5 86.8 41.5C86.8 41.6 86.8 41.6 86.9 41.6C86.8 41.8 86.8 41.9 86.7 42C86.7 42.1 86.8 42.1 86.8 42.1C86.7 42.3 86.6 42.6 86.6 42.8C86.5 42.7 86.4 42.6 86.3 42.6C86.1 42.5 86.1 42.5 86.2 42.2C86.2 42 86.3 41.9 86.3 41.8V41.6C86.3 41.5 86.1 41.4 86.1 41.4C86.2 41.5 86.2 41.5 86.2 41.6C86.1 41.7 86.1 41.7 86.1 41.7C86 41.7 86 41.8 86.1 41.9V42C86.1 42.1 86.1 42 86.1 42C86.1 41.9 86 41.7 85.9 41.7H85.8C85.8 41.6 85.7 41.5 85.5 41.6C85.5 41.6 85.6 41.6 85.6 41.7C85.5 41.7 85.5 41.8 85.5 41.8C85.5 41.9 85.6 42 85.7 42H85.8V42.1C85.6 42 85.5 42.1 85.5 42.2V42.3C85.5 42.3 85.4 42.5 85.5 42.5C85.5 42.4 85.5 42.4 85.5 42.4H85.6L85.7 42.5C85.7 42.5 85.8 42.5 85.9 42.4H86C86 42.4 86.1 42.4 86.1 42.5V42.6C85.9 42.7 85.9 42.9 86.1 42.9C86.1 42.9 86.1 42.9 86.1 43C86 43.3 85.7 43.2 85.8 42.9C85.6 43.2 85.9 43.4 86.2 43.2H86.3L86.4 43.3C86.4 43.3 86.4 43.2 86.5 43.2V43.3C86.5 43.4 86.5 43.5 86.6 43.5C86.6 43.5 86.6 43.4 86.7 43.4C86.8 43.4 86.8 43.6 87 43.8C86.8 43.9 86.6 44 86.4 44C86.3 44 86 43.9 85.9 44C85.7 44.1 85.3 44.3 85.2 44C85.1 44 85.2 43.9 85.1 43.8L85 43.7H84.9C84.8 43.6 84.7 43.6 84.6 43.6C84.6 43.6 84.7 43.6 84.7 43.7C84.7 43.8 84.7 43.8 84.7 43.8C84.6 43.9 84.7 44 85 44C85 44 85.1 44.1 85 44.1H84.8C84.7 44 84.7 43.9 84.6 44C84.5 44 84.5 44 84.5 44H84.4C84.3 44 84.1 44.1 84.2 44.3C84.2 44.2 84.3 44.2 84.4 44.2C84.4 44.2 84.4 44.2 84.5 44.3C84.5 44.5 84.6 44.5 84.9 44.4C85 44.4 85 44.4 84.9 44.4C84.8 44.5 84.6 44.6 84.8 44.7C84.8 44.9 85 45 85 45C84.9 45 84.9 44.8 84.9 44.8H85C85.1 44.7 85.1 44.6 85.2 44.5C85.2 44.6 85.3 44.7 85.4 44.7C85.6 44.7 85.6 44.5 85.6 44.5C85.6 44.6 85.7 44.6 85.6 44.7C85.7 44.7 85.7 44.6 85.7 44.6C85.8 44.7 85.8 44.8 85.6 44.9C85.7 44.9 85.8 44.8 85.9 44.6L86 44.7C86.1 44.7 86.2 44.7 86.3 44.7V44.9V44.8C86.4 44.8 86.3 45 86.4 45.1C86.5 44.7 86.7 44.8 86.9 44.7C87 44.7 87 44.7 86.9 44.7C86.9 44.8 86.8 44.8 86.8 44.8C86.9 44.8 87.1 44.7 87.1 44.6C87.1 44.5 87.1 44.5 87.3 44.5C87.4 44.5 87.5 44.5 87.6 44.4C87.6 44.5 87.6 44.6 87.6 44.6C87.9 44.6 88.1 44.3 88.2 44.3C88.7 44.2 87.9 43.8 89 43.9C89.1 43.9 89.2 43.8 89.3 43.8C89.2 44 89.2 44.3 89.4 44.3C89.5 44.3 89.6 44.3 89.7 44.4V44.5C89.6 44.5 89.6 44.6 89.4 44.6C89.1 44.8 89.1 44.2 88.8 44.3L88.7 44.4C88.6 44.4 88.4 44.6 88.4 44.7C88.5 44.6 88.5 44.6 88.6 44.6V44.7C88.6 44.8 88.6 44.8 88.7 44.8H88.8H88.9C88.9 44.9 88.6 44.8 88.6 45C88.6 45 88.7 45 88.7 45.1C88.7 45.2 88.8 45.3 88.9 45.2L88.8 45.1H88.9L89 45C89 45 89.1 45 89.1 45.1L89 45.2C89 45.2 89 45.3 89.1 45.3C89.1 45.4 89.3 45.5 89.4 45.4C89.4 45.4 89.2 45.4 89.2 45.3H89.3C89.4 45.3 89.4 45.2 89.4 45.2H89.5H89.6C89.6 45.3 89.7 45.3 89.8 45.3C90 45.2 89.9 45.1 90 45H90.1C90.3 45 90.5 45 90.5 44.9C90.5 44.8 90.5 44.6 90.3 44.5C90.2 44.4 90.3 44.3 90.2 44.2C90.4 44.3 90.5 44.3 90.8 44.3C91.2 44.3 90.8 44.3 91 44.2C91.2 44.1 91.4 44.1 91.5 44.1L91.6 44.2C91.5 44.4 91.6 44.4 91.6 44.5C91.5 44.6 91.4 44.5 91.3 44.5L91.2 44.6C91.1 44.6 91 44.7 91 44.8C91 44.7 91.1 44.7 91.2 44.7C91.2 44.9 91.4 44.9 91.5 44.8H91.6C91.5 44.9 91.4 45 91.5 45.1C91.5 45.1 91.6 45.1 91.6 45.2C91.6 45.3 91.7 45.4 91.7 45.4C91.7 45.3 91.7 45.3 91.7 45.2H91.8C91.9 45.2 91.9 45 92 45C92 45.1 92 45.2 92.1 45.3H92.2C92.3 45.4 92.3 45.5 92.5 45.4L92.4 45.3C92.4 45.2 92.5 45.2 92.5 45.2C92.6 45 92.4 45 92.4 44.9C92.4 44.8 92.6 44.8 92.6 44.6C92.6 44.6 92.6 44.5 92.5 44.4C92.6 44.4 92.6 44.4 92.7 44.3C92.5 44.3 92.6 44.2 92.5 44.1V44C92.6 43.9 92.6 43.9 92.6 43.8C92.5 43.9 92.4 44 92.3 43.8C92.3 43.8 92.3 43.7 92.1 43.7C90.9 43.3 90.8 43.2 90.3 43.1ZM87.9 41.8C88 41.9 88.1 41.9 88.2 42C88 42.1 88.1 42.1 88 42.1C87.9 42 87.9 41.8 87.9 41.8ZM87.6 41.7C87.5 41.8 87.4 41.9 87.4 41.8C87.3 41.7 87.4 41.7 87.3 41.5C87.4 41.6 87.5 41.6 87.6 41.7ZM87.3 42.3L87.4 42.2C87.4 42.2 87.5 42.2 87.5 42.1C87.6 42 87.5 42 87.4 41.9C87.5 41.9 87.5 41.8 87.5 41.8C87.4 41.7 87.4 41.9 87.4 41.8C87.4 41.7 87.5 41.7 87.5 41.7C87.6 41.6 87.6 41.7 87.6 41.7L87.9 41.9C88 41.9 88 42 88 42V42.1C87.9 42.1 87.9 42 87.9 42V42.1C87.9 42 87.8 42 87.7 42.1C87.6 42.2 87.7 42.2 87.7 42.3V42.5C87.7 42.5 87.6 42.6 87.5 42.6C87.3 42.5 87.3 42.4 87.3 42.3ZM91.7 47C91.7 46.7 91.3 46.5 90.3 46.5C89.3 46.5 87 46.9 87 46.3C87 46 87.5 46 88 46.1C88.1 46.1 88.1 46.2 88.2 46.2C89.5 46.6 91.1 45.9 91.9 46.1C91 45.4 90.2 46.1 89.2 45.9C89.8 45.9 90 45.7 90 45.6C89.5 45.9 88.7 45.4 88.2 45.8C88.1 45.8 88.1 45.9 88.1 45.9C87.4 45.9 86.8 45.9 86.8 46.4C86.8 47.4 89.5 46.8 90.4 46.8C91.2 46.8 91.4 46.9 91.4 47.1C91.4 47.4 90.6 47.4 90.1 47.4C89.4 47.4 87.1 47 85.8 47.3C85.9 47.1 86.2 46.8 86 46.6C86.1 46.5 86.2 46.4 86.2 46.3C86.1 46.2 86 46.2 85.9 46.2C85.9 46.2 85.9 46.1 85.8 46L85.7 45.8C85.6 45.7 85.5 45.6 85.4 45.6C85.2 45.6 85.1 45.6 85.1 45.5C85 45.5 84.9 45.6 84.9 45.6H84.7C84.6 45.6 84.5 45.5 84.4 45.5C84.3 45.6 84.3 45.8 84.3 45.9C84.2 45.9 84 46.2 83.9 46.2C84 46.3 84 46.3 84 46.4C83.9 46.5 83.8 46.8 83.7 46.8C83.8 46.9 83.8 47 83.9 47C83.9 47.1 83.9 47.3 83.8 47.4L83.6 47.3H83.5C83.4 47.3 83.4 47.3 83.4 47.2H83.5H83.4C83.3 47.1 83.1 46.9 82.9 46.8C82.7 46.7 82.7 46.6 82.7 46.4C82.7 46.2 82.8 46 82.8 45.9C82.8 45.9 82.8 45.8 82.8 45.7C82.8 45.6 82.6 45.5 82.5 45.5C82.6 45.6 82.6 45.6 82.6 45.7L82.5 45.8C82.4 45.9 82.4 45.9 82.5 46V46.1V46.2C82.5 46.3 82.5 46.2 82.5 46.2C82.4 46.1 82.4 45.9 82.3 45.9H82.2C82.2 45.7 82 45.6 81.9 45.8C81.9 45.8 82 45.8 82 45.9C82 46 81.9 46 81.9 46.1C81.9 46.3 82 46.3 82.1 46.3C81.9 46.2 81.8 46.3 81.8 46.4V46.5C81.7 46.5 81.7 46.7 81.8 46.8C81.8 46.8 81.8 46.7 81.9 46.6H82L82.1 46.7C82.2 46.7 82.2 46.7 82.3 46.6H82.4C82.4 46.6 82.5 46.6 82.5 46.7V46.8C82.3 47 82.3 47.1 82.5 47.1C82.6 47.1 82.6 47.1 82.6 47.2C82.5 47.5 82.2 47.4 82.2 47.1C82 47.4 82.3 47.7 82.6 47.5H82.7L82.8 47.6C82.8 47.6 82.8 47.5 82.9 47.5V47.6C82.9 47.7 82.9 47.8 83 47.8C83 47.7 83 47.7 83.1 47.7C83.1 47.7 83.3 47.9 83.5 48.1C83.7 48.2 83.8 48.4 84 48.3C84 48.5 84.2 48.7 84.1 48.7C84 48.7 83.5 48.7 83.4 48.8C83.2 48.9 82.7 49.1 82.6 48.9C82.5 48.8 82.5 48.8 82.5 48.6C82.4 48.5 82.4 48.5 82.3 48.5H82.2C82.1 48.4 81.9 48.4 81.9 48.4C82 48.4 82 48.4 82.1 48.5C82.1 48.6 82 48.6 82 48.6C81.9 48.6 82 48.8 82.3 48.9C82.3 48.9 82.4 49 82.3 49C82.2 49 82.2 49.1 82.1 49C82 48.9 81.9 48.8 81.8 48.8C81.8 48.8 81.8 48.9 81.7 48.9H81.6C81.5 48.9 81.3 49.1 81.3 49.2C81.4 49.2 81.4 49.1 81.5 49.1C81.5 49.2 81.5 49.2 81.5 49.2C81.6 49.4 81.6 49.5 81.9 49.2C82 49.2 82 49.2 81.9 49.2C81.8 49.4 81.6 49.5 81.8 49.6L81.9 49.7C81.8 49.9 82.1 50 82.2 50C82.1 50 82.1 49.8 82.1 49.7H82.2C82.4 49.6 82.3 49.4 82.4 49.4H82.5C82.5 49.5 82.6 49.7 82.7 49.6C82.9 49.6 83 49.4 83 49.3C83.1 49.4 83.1 49.4 83.1 49.5C83.2 49.5 83.2 49.4 83.2 49.4C83.3 49.5 83.3 49.6 83.2 49.7C83.2 49.7 83.5 49.6 83.5 49.4C83.5 49.4 83.5 49.4 83.5 49.5C83.6 49.5 83.7 49.6 83.9 49.5H84V49.7V49.6C84.1 49.6 84 49.8 84.1 49.9C84.2 49.4 84.4 49.6 84.7 49.4C84.8 49.4 84.8 49.4 84.7 49.4C84.7 49.5 84.6 49.5 84.6 49.6C84.9 49.7 85.4 49.2 85.5 49C85.6 49 85.8 48.9 85.8 49C86.7 49.1 86.1 48.2 87.5 48.4C87.6 48.4 87.8 48.3 87.9 48.2C87.8 48.4 87.8 48.8 88 48.8C88.1 48.8 88.3 48.9 88.3 49V49.1C88.2 49.1 88.1 49.2 88 49.2C87.7 49.4 87.7 48.7 87.4 48.9C87.3 48.9 87.3 49 87.3 49C87.2 49 87 49.2 87 49.3C87.1 49.2 87.1 49.2 87.2 49.2V49.3C87.2 49.4 87.2 49.4 87.3 49.4C87.4 49.4 87.4 49.3 87.4 49.3C87.4 49.3 87.4 49.3 87.4 49.4C87.4 49.5 87 49.3 87.1 49.7V49.8C87.1 49.9 87.2 50 87.4 50L87.3 49.9H87.4C87.4 49.9 87.5 49.9 87.5 49.8C87.5 49.8 87.6 49.8 87.6 49.9V50C87.6 50 87.6 50.1 87.7 50.1C87.7 50.2 87.9 50.4 88 50.2C88 50.2 87.8 50.2 87.8 50.1C87.9 50.1 87.9 50 87.9 50V49.9V49.8H88H88.1C88.1 49.9 88.2 50 88.4 49.9C88.6 49.8 88.4 49.6 88.6 49.6H88.7C88.9 49.7 89.1 49.7 89.2 49.5C89.3 49.4 89.2 49.1 89.1 49C89 48.9 89.1 48.8 89 48.7C89.2 48.8 89.4 48.9 89.6 48.9C90.1 48.9 90.2 48.8 90.4 48.7C90.6 48.5 90.9 48.6 91 48.6L91.1 48.7C91 49 91.1 49 91 49.1C91 49.2 90.7 49.1 90.6 49.1C90.5 49.1 90.4 49.2 90.4 49.2C90.3 49.2 90.1 49.3 90.1 49.5C90.2 49.4 90.2 49.4 90.3 49.4V49.5C90.3 49.7 90.5 49.7 90.6 49.6H90.7C90.6 49.6 90.4 49.8 90.6 49.9C90.6 49.9 90.6 50 90.7 50C90.7 50.1 90.8 50.2 90.9 50.2C90.8 50.1 90.8 50.1 90.9 50H91C91.1 50 91.1 49.8 91.2 49.7C91.2 49.7 91.3 49.7 91.2 49.7C91.2 49.8 91.2 50 91.3 50H91.4C91.5 50.1 91.6 50.2 91.7 50.1L91.6 50L91.7 49.9C91.8 49.6 91.5 49.6 91.5 49.5C91.5 49.4 91.8 49.4 91.8 49.2C91.8 49.1 91.8 49.1 91.7 49C91.8 49 91.8 49 91.8 48.9C91.6 48.9 91.7 48.7 91.7 48.6V48.5C91.8 48.4 91.8 48.4 91.8 48.2C91.8 48.3 91.5 48.3 91.5 48.2C91.5 48.2 91.5 48 91.3 48.1C91 48.2 90.8 48 90.2 48C90.7 47.5 91.7 47.3 91.7 47ZM85.4 46.1C85.5 46.2 85.7 46.2 85.8 46.3C85.6 46.3 85.6 46.4 85.5 46.4C85.4 46.4 85.3 46.2 85.4 46.1ZM85.1 46C85 46.1 84.9 46.2 84.8 46.1C84.7 46 84.8 46 84.7 45.8C84.9 45.8 85.1 45.9 85.1 46ZM84.8 46.8C84.8 46.7 84.8 46.7 84.9 46.7C85 46.7 85 46.7 85 46.6C85 46.5 84.9 46.5 84.9 46.4C85 46.4 85 46.3 85 46.3C84.9 46.3 84.9 46.4 84.8 46.3C84.8 46.3 84.8 46.3 84.8 46.2C84.9 46.1 84.9 46.2 84.9 46.2L85.2 46.3V46.4V46.5C85.2 46.5 85.2 46.4 85.1 46.4C85 46.4 85 46.4 85.1 46.5C85 46.5 84.9 46.4 84.9 46.5C84.8 46.6 84.9 46.6 84.9 46.7C84.9 46.7 84.9 46.8 84.9 46.9C84.8 47 84.8 47.1 84.7 47C84.7 47 84.7 46.9 84.8 46.8ZM85.6 48.5C85.6 48.5 85.6 48.6 85.6 48.5V48.5ZM91.2 51.4C91.2 51.1 90.9 50.9 89.9 50.9C89 50.9 85.9 51.3 85.9 50.7C85.9 50.3 86.9 50.5 87.6 50.5C87.7 50.6 87.7 50.6 87.8 50.7C89.1 51.1 90.4 50.2 91.2 50.5C90.5 49.9 89.6 50.5 88.6 50.4C89.2 50.4 89.8 50.3 89.8 50.1C89.4 50.4 88.2 49.9 87.7 50.2C87.7 50.2 87.7 50.3 87.6 50.3C86.7 50.3 85.6 50.2 85.6 50.7C85.6 51.7 89 51.1 89.8 51.1C90.6 51.1 90.8 51.2 90.8 51.4C90.8 51.6 90 51.7 89.5 51.7C88.8 51.7 85.6 51.3 84.3 51.6C84.4 51.4 84.7 51.1 84.5 50.9C84.6 50.8 84.7 50.7 84.7 50.6C84.6 50.5 84.5 50.5 84.4 50.5C84.5 50.4 84.4 50.4 84.3 50.3V50.1C84.2 50 84.1 50 84 49.9C83.8 49.9 83.7 49.9 83.7 49.9C83.6 49.9 83.5 49.9 83.5 49.9H83.3C83.2 49.9 83.1 49.8 83.1 49.8C83 49.9 83 50 83 50.2C82.9 50.2 82.7 50.5 82.6 50.5C82.6 50.6 82.6 50.6 82.7 50.6C82.6 50.8 82.5 51 82.4 51L82.5 51.1C82.5 51.2 82.4 51.3 82.4 51.4L82.3 51.3H82.1H81.9C81.7 51.3 81.6 51 81.4 50.9C81.2 50.8 81.2 50.7 81.2 50.5C81.2 50.3 81.3 50.2 81.2 50C81.2 50 81.2 49.9 81.2 49.8C81.1 49.7 81 49.6 80.9 49.6C81 49.7 81 49.7 81 49.8C81 49.9 81 49.9 81 49.9C80.9 50 80.9 50 81 50.1V50.2V50.3C81 50.4 81 50.3 81 50.3C80.9 50.2 80.9 50 80.8 50H80.7C80.7 49.9 80.5 49.8 80.4 49.9C80.5 49.9 80.5 49.9 80.5 50V50.1C80.5 50.2 80.6 50.3 80.7 50.3H80.8V50.4C80.6 50.3 80.5 50.4 80.5 50.5V50.6C80.4 50.7 80.4 50.8 80.6 50.9C80.6 50.8 80.6 50.8 80.6 50.7L80.7 50.8C80.7 50.8 80.8 50.8 80.8 50.7H80.9V50.8V50.9C80.7 51.1 80.8 51.2 81 51.2C81 51.2 81.1 51.2 81.1 51.3C81.1 51.6 80.7 51.5 80.7 51.2C80.5 51.5 80.9 51.8 81.1 51.6H81.2C81.2 51.7 81.2 51.7 81.3 51.7C81.3 51.7 81.3 51.6 81.4 51.6V51.7C81.4 51.7 81.5 51.9 81.6 51.9C81.6 51.8 81.6 51.8 81.7 51.8C81.8 51.8 82 52.2 82.3 52.4C82.3 52.4 82.5 52.4 82.5 52.3C82.5 52.3 82.5 52.3 82.6 52.4C82.6 52.6 82.7 52.8 82.7 52.8C82.6 52.8 82 52.7 81.9 52.8C81.7 52.9 81.3 53.1 81.2 52.9C81.1 52.8 81.1 52.8 81.1 52.7C81.1 52.7 81 52.6 80.9 52.6H80.8C80.8 52.5 80.5 52.5 80.5 52.6C80.5 52.6 80.7 52.6 80.7 52.7L80.6 52.8C80.5 52.9 80.6 53 80.9 53.1C80.9 53.1 81 53.1 80.9 53.1C80.8 53.1 80.8 53.2 80.7 53.1C80.6 53 80.6 52.9 80.4 52.9C80.4 52.9 80.3 52.9 80.3 53C80.2 53 80 53.2 80.1 53.3C80.1 53.2 80.2 53.2 80.3 53.1V53.2C80.4 53.4 80.4 53.5 80.7 53.3C80.8 53.3 80.8 53.3 80.7 53.3C80.6 53.4 80.4 53.6 80.6 53.7L80.7 53.8C80.6 54 80.9 54.1 81 54.1C80.9 54 80.9 54 80.9 53.8C80.9 53.8 80.9 53.9 81 53.8C81.2 53.7 81.1 53.6 81.2 53.5C81.2 53.6 81.3 53.7 81.4 53.7C81.6 53.7 81.7 53.5 81.6 53.4C81.6 53.5 81.7 53.5 81.7 53.6C81.8 53.5 81.8 53.5 81.8 53.5C81.8 53.6 81.8 53.7 81.7 53.8C81.8 53.8 82 53.7 82 53.5L82.1 53.6C82.2 53.7 82.3 53.7 82.4 53.6V53.8V53.7C82.5 53.7 82.4 53.9 82.5 54C82.6 53.6 83 53.8 83.3 53.6C83.3 53.6 83.3 53.7 83.2 53.8C83.3 53.8 83.5 53.7 83.6 53.6H83.5L83.9 53.4V53C84 53 84 53 84.1 52.9C84.4 52.9 84.4 52.7 84.5 52.7C86.1 52.9 85.2 52 87.1 52.2C87.2 52.2 87.2 52.1 87.3 52.1C87.2 52.3 87.2 52.6 87.4 52.6C87.5 52.6 87.7 52.7 87.7 52.8V52.9C87.6 52.9 87.5 53 87.4 53C87.1 53.2 87.1 52.6 86.8 52.7C86.8 52.7 86.8 52.8 86.7 52.8C86.6 52.8 86.4 53 86.4 53.1C86.5 53 86.5 53 86.6 53V53.1C86.6 53.2 86.6 53.2 86.7 53.2L86.8 53.1C86.8 53.1 86.9 53.1 86.9 53.2C86.9 53.3 86.5 53.1 86.6 53.5V53.6C86.6 53.7 86.7 53.8 86.9 53.8C86.8 53.8 86.8 53.7 86.8 53.7H86.9C86.9 53.7 87 53.7 87 53.6C87 53.6 87.1 53.6 87.1 53.7V53.8V53.9C87.1 54 87.3 54.2 87.4 54C87.3 54 87.2 54 87.2 53.9L87.3 53.8V53.7C87.3 53.7 87.3 53.6 87.4 53.6H87.5H87.6C87.7 53.7 87.7 53.8 87.9 53.7C88.1 53.6 87.9 53.4 88.1 53.4H88.2C88.4 53.5 88.6 53.5 88.7 53.3C88.7 53.2 88.7 52.9 88.5 52.8C88.4 52.8 88.5 52.6 88.4 52.5C88.6 52.5 88.8 52.6 89 52.6C89.5 52.6 89.6 52.6 89.7 52.4C89.9 52.2 90.2 52.3 90.2 52.3C90.3 52.3 90.3 52.4 90.3 52.4C90.3 52.6 90.3 52.7 90.3 52.8C90.2 52.9 90 52.8 89.9 52.8C89.8 52.8 89.7 52.9 89.7 52.9C89.6 52.9 89.4 53 89.5 53.2C89.6 53.2 89.6 53.1 89.7 53.1V53.2C89.7 53.4 89.9 53.4 90 53.3H90.1C90 53.3 89.8 53.5 90 53.6H90.1C90.1 53.7 90.1 53.8 90.3 53.8C90.2 53.7 90.2 53.7 90.3 53.6H90.4C90.5 53.6 90.4 53.4 90.5 53.3C90.4 53.4 90.4 53.6 90.6 53.6H90.7C90.7 53.7 90.9 53.8 91 53.7C90.9 53.7 90.9 53.6 90.9 53.6C91 53.5 91 53.5 91 53.5C91.1 53.2 90.9 53.2 90.9 53.2C90.9 53.1 91.2 53.1 91.2 52.9C91.2 52.8 91.1 52.8 91.1 52.7C91.1 52.7 91.3 52.7 91.3 52.6C91.1 52.6 91.2 52.4 91.1 52.3V52.2C91.1 52.1 91.2 52.1 91.1 51.9C91.1 52 90.8 52.1 90.8 51.9C90.8 51.9 90.8 51.8 90.6 51.8C90.3 51.9 90.1 51.8 89.6 51.7C90.3 51.9 91.2 51.8 91.2 51.4ZM84.2 50.6C84.3 50.7 84.5 50.7 84.6 50.8C84.4 50.9 84.4 50.9 84.3 50.9C84.2 50.9 84.1 50.7 84.2 50.6ZM83.9 50.5C83.8 50.6 83.7 50.7 83.6 50.6C83.5 50.5 83.6 50.5 83.5 50.3C83.7 50.4 83.8 50.5 83.9 50.5ZM83.6 51.3C83.7 51.3 83.7 51.2 83.7 51.2C83.7 51.2 83.8 51.2 83.8 51.1C83.9 51.1 83.8 51 83.7 51C83.8 51 83.8 50.9 83.8 50.9C83.7 50.8 83.7 51 83.6 50.9C83.6 50.8 83.7 50.8 83.7 50.8C83.8 50.7 83.8 50.8 83.8 50.8L84.1 51C84.2 51 84.2 51 84.2 51.1V51.2C84.1 51.2 84.1 51.1 84.1 51.1C84 51.1 84 51.1 84.1 51.2C84 51.2 83.9 51.1 83.9 51.2C83.8 51.3 83.9 51.3 83.9 51.4V51.6C83.8 51.7 83.8 51.8 83.7 51.7C83.5 51.5 83.6 51.4 83.6 51.3ZM105 58.9C105 58.8 105.1 58.7 105.1 58.6C105 58.7 104.8 58.8 104.8 58.6C104.8 58.6 104.8 58.5 104.6 58.5C104.3 58.5 104 58.5 103.5 58.5C103.4 58.5 103.4 58.4 103.5 58.4C104.1 58.3 105.1 58.3 105.1 57.9C105.1 57.6 104.8 57.4 103.8 57.4C102.9 57.4 99.8 57.8 99.8 57.2C99.8 56.8 100.8 57 101.5 57C101.6 57.1 101.6 57.1 101.7 57.1C103 57.5 104.4 56.5 105.1 56.7C104.1 56.4 103.5 57 102.5 56.8C103.1 56.8 103.7 56.7 103.7 56.5C103.3 56.8 102.1 56.3 101.6 56.6C101.6 56.6 101.6 56.6 101.5 56.6C100.6 56.6 99.5 56.5 99.5 57C99.5 57.9 102.9 57.4 103.7 57.4C104.5 57.4 104.7 57.5 104.7 57.7C104.7 58 103.9 58 103.4 58C102.6 58 99.5 57.6 98.2 57.9C98.3 57.7 98.6 57.4 98.5 57.2C98.6 57.1 98.7 57.1 98.7 56.9C98.6 56.8 98.5 56.8 98.4 56.8C98.5 56.8 98.4 56.7 98.3 56.6V56.4C98.2 56.3 98.1 56.2 98 56.2C97.8 56.1 97.8 56.1 97.7 56.1C97.6 56.1 97.6 56.2 97.6 56.1C97.5 56.1 97.4 56.1 97.4 56.2C97.3 56.1 97.2 56.1 97.2 56.1C97.1 56.2 97.1 56.3 97.2 56.5C97.1 56.5 96.9 56.8 96.8 56.8C96.8 56.9 96.8 56.9 96.9 56.9C96.8 57 96.7 57.3 96.6 57.3C96.7 57.4 96.7 57.5 96.8 57.5V57.8L96.6 57.7H96.4C96.3 57.7 96.3 57.7 96.2 57.6C96 57.6 95.9 57.3 95.7 57.2C95.5 57.1 95.5 57 95.5 56.8C95.5 56.6 95.6 56.5 95.6 56.3C95.6 56.3 95.5 56.2 95.5 56.1C95.5 56 95.3 55.9 95.2 55.9C95.3 55.9 95.3 56 95.3 56.1C95.2 56.2 95.2 56.2 95.2 56.2C95.2 56.2 95.2 56.3 95.2 56.4V56.5V56.6C95.2 56.7 95.2 56.6 95.2 56.6C95.2 56.5 95.1 56.3 95 56.3H94.9C94.9 56.2 94.7 56.1 94.6 56.2C94.7 56.2 94.7 56.2 94.7 56.3V56.4C94.7 56.5 94.8 56.6 94.9 56.6C95 56.6 95 56.6 95 56.7V56.8C94.8 56.7 94.7 56.8 94.7 56.9V57C94.6 57.1 94.6 57.2 94.8 57.3C94.8 57.2 94.8 57.2 94.8 57.2L94.9 57.3C94.9 57.3 95 57.3 95 57.2H95.1V57.3C94.9 57.5 95 57.6 95.2 57.6C95.2 57.6 95.2 57.6 95.2 57.7C95.2 58 94.8 57.9 94.8 57.6C94.6 57.9 95 58.2 95.2 58C95.2 58.1 95.3 58.1 95.3 58.1C95.3 58.1 95.3 58 95.4 58V58.1C95.4 58.2 95.5 58.3 95.6 58.3C95.6 58.3 95.6 58.2 95.7 58.2C95.8 58.2 95.9 58.6 96.3 58.8C96.3 58.8 96.5 58.7 96.5 58.6C96.5 58.7 96.5 58.8 96.7 58.8H96.8C96.8 59 97 59.2 97 59.2C97 59.2 96.6 59.1 96.4 59.2C96.2 59.3 95.8 59.5 95.6 59.3C95.5 59.2 95.5 59.2 95.5 59.1C95.4 59.1 95.4 59 95.3 59H95.4C95.3 58.9 95.1 58.9 95.1 58.9C95.1 58.9 95.2 58.9 95.2 59V59.1C95.1 59.2 95.2 59.3 95.5 59.4C95.5 59.4 95.6 59.5 95.5 59.5C95.4 59.5 95.4 59.6 95.3 59.5C95.2 59.4 95.2 59.3 95 59.4C95 59.4 94.9 59.4 94.9 59.5H95C94.9 59.5 94.7 59.7 94.8 59.8C94.8 59.7 94.9 59.7 95 59.6V59.7C95.1 59.9 95.1 60 95.4 59.8C95.5 59.8 95.5 59.8 95.4 59.8C95.4 59.9 95.1 60.1 95.3 60.2L95.4 60.3V60.4C95.4 60.6 95.5 60.7 95.7 60.7C95.6 60.6 95.6 60.5 95.6 60.4C95.7 60.4 95.7 60.5 95.7 60.4C95.9 60.3 95.8 60.2 95.9 60.1H96C96 60.2 96.1 60.3 96.2 60.3C96.4 60.3 96.5 60.1 96.4 60.1C96.4 60.2 96.5 60.2 96.4 60.3C96.5 60.2 96.5 60.2 96.5 60.2C96.6 60.3 96.6 60.4 96.4 60.5C96.6 60.5 96.7 60.3 96.7 60.2C96.8 60.2 96.8 60.2 96.8 60.3C96.9 60.4 97 60.4 97.1 60.3V60.5V60.4C97.2 60.4 97.1 60.6 97.2 60.7C97.3 60.3 97.5 60.4 97.7 60.3H97.8C97.8 60.3 97.7 60.4 97.7 60.5C97.8 60.6 98.2 60.3 98.2 60.2C98.2 60.2 98.4 60.2 98.5 60.1C98.8 60.1 98.8 59.9 98.9 59.9C100.5 60.1 99.6 59.2 101.5 59.4C101.6 59.4 101.7 59.3 101.7 59.2C101.6 59.4 101.6 59.7 101.8 59.8C101.9 59.8 102 59.9 102.1 60V60.1C102 60.1 101.9 60.2 101.8 60.2C101.5 60.4 101.5 59.8 101.2 59.9C101.2 59.9 101.2 60 101.1 60C101 60 100.8 60.2 100.8 60.3C100.9 60.2 100.9 60.2 101 60.2V60.3C101 60.4 101 60.4 101.1 60.4L101.2 60.3C101.2 60.3 101.3 60.3 101.3 60.4C101.3 60.5 100.9 60.3 101 60.7C101 60.7 101.1 60.7 101.1 60.8C101.1 60.9 101.2 61 101.3 61C101.2 61 101.2 60.9 101.2 60.9H101.3C101.3 60.9 101.4 60.9 101.4 60.8C101.4 60.8 101.5 60.8 101.5 60.9V61V61.1C101.5 61.2 101.7 61.4 101.8 61.2L101.6 61.1H101.7V61V60H101.8H101.9C102 60.1 102 60.2 102.2 60.1C102.4 60 102.3 59.8 102.4 59.8H102.5C102.7 59.9 102.9 59.9 102.9 59.7C102.9 59.6 102.9 59.3 102.7 59.2C102.6 59.1 102.7 59 102.6 58.9C102.8 59 103 59.1 103.2 59.1C103.7 59.1 103.8 59 104 58.9C104.2 58.7 104.5 58.9 104.5 58.9C104.5 58.9 104.6 58.9 104.6 59C104.5 59.2 104.6 59.3 104.5 59.4C104.4 59.5 104.3 59.4 104.1 59.4C104.1 59.4 104 59.4 103.9 59.5C103.8 59.5 103.6 59.6 103.6 59.8C103.7 59.7 103.7 59.7 103.8 59.7V59.8C103.8 59.9 104 60 104.1 59.9H104.2C104.1 60 103.9 60.1 104.1 60.2V60.3C104.1 60.4 104.1 60.5 104.2 60.5C104.2 60.4 104.1 60.4 104.3 60.3H104.7C104.8 60.3 104.7 60.1 104.9 60C104.8 60.1 104.8 60.3 104.9 60.3H105C105 60.4 105.1 60.5 105.3 60.4L105.2 60.3C105.3 60.2 105.3 60.2 105.3 60.2C105.4 59.9 105.2 59.9 105.2 59.9C105.2 59.8 105.5 59.8 105.5 59.6C105.5 59.5 105.4 59.5 105.4 59.4C105.5 59.4 105.6 59.4 105.6 59.4C105 59.1 105.1 59 105 58.9ZM98.1 57.1C98.2 57.2 98.4 57.2 98.5 57.2C98.3 57.3 98.3 57.3 98.2 57.3C98.1 57.3 98 57.2 98.1 57.1ZM97.8 57C97.7 57.1 97.7 57.2 97.5 57.1C97.4 57 97.5 57 97.4 56.8C97.6 56.8 97.8 57 97.8 57ZM97.5 57.7C97.6 57.6 97.6 57.6 97.6 57.6C97.7 57.6 97.7 57.6 97.7 57.5C97.7 57.4 97.6 57.4 97.6 57.3C97.7 57.3 97.7 57.2 97.7 57.2C97.6 57.1 97.6 57.3 97.6 57.2C97.6 57.1 97.7 57.1 97.7 57.1H97.8L98.1 57.2C98.2 57.2 98.2 57.3 98.2 57.3V57.4C98.1 57.4 98.1 57.3 98.1 57.3C98 57.3 98 57.3 98.1 57.4C98 57.4 97.9 57.3 97.9 57.4C97.9 57.5 97.9 57.5 97.9 57.6V57.8C97.9 57.9 97.8 58 97.7 57.9C97.4 57.9 97.4 57.8 97.5 57.7ZM97.3 57C97.3 57 97.2 57 97.3 57C97.2 57 97.3 57 97.3 57ZM100.7 61.3C100.8 61.4 100.8 61.4 100.9 61.5C102.1 61.9 103.5 60.9 104.2 61.1C103.3 60.8 102.7 61.4 101.7 61.2C102.2 61.2 102.8 61.1 102.8 60.9C102.4 61.2 101.2 60.7 100.8 61C100.7 61 100.7 61.1 100.7 61.1C100 61.1 99.5 61.1 99.5 61.5C99.5 62.4 102 61.9 102.7 61.9C103.5 61.9 103.4 62 103.4 62.1C103.4 62.3 102.5 62.4 102.1 62.4C101.4 62.4 99.4 62 98.2 62.3C98.3 62.1 98.5 61.8 98.4 61.7C98.5 61.6 98.6 61.5 98.6 61.4C98.5 61.3 98.4 61.3 98.4 61.3C98.5 61.3 98.4 61.2 98.4 61.1L98.3 60.9C98.2 60.9 98.1 60.7 98 60.7C97.8 60.6 97.8 60.6 97.7 60.6H97.6C97.5 60.6 97.4 60.6 97.4 60.7C97.3 60.6 97.3 60.6 97.2 60.6C97.1 60.7 97.1 60.8 97.1 60.9C97 60.9 96.9 61.2 96.8 61.2C96.8 61.3 96.8 61.3 96.9 61.3C96.8 61.5 96.7 61.7 96.7 61.7L96.8 61.8C96.7 61.9 96.7 62 96.7 62.2L96.6 62.1H96.5C96.3 62.1 96.2 62.1 96 61.9C95.8 61.8 95.8 61.7 95.8 61.5C95.8 61.3 95.9 61.2 95.9 61C95.9 61 95.9 60.9 95.8 60.9C95.7 60.8 95.6 60.7 95.5 60.7C95.6 60.7 95.6 60.8 95.6 60.9C95.5 60.9 95.5 60.9 95.5 61C95.4 61 95.4 61.1 95.5 61.2V61.3C95.5 61.4 95.5 61.3 95.5 61.3C95.4 61.2 95.4 61 95.3 61H95.2C95.2 60.9 95.1 60.8 94.9 60.9C94.9 60.9 95 60.9 95 61L94.9 61.1C94.9 61.2 95 61.3 95.1 61.3C95.1 61.3 95.2 61.3 95.2 61.4V61.5C95 61.4 94.9 61.5 94.9 61.6V61.7C94.8 61.8 94.8 61.9 94.9 62C94.9 61.9 94.9 61.9 95 61.9H95.1H95.2H95.3V62C95.1 62.2 95.2 62.3 95.4 62.3C95.5 62.3 95.5 62.3 95.5 62.4C95.5 62.7 95.1 62.6 95.1 62.3C94.9 62.6 95.3 62.8 95.5 62.7C95.5 62.8 95.6 62.8 95.6 62.8C95.6 62.8 95.6 62.7 95.7 62.7V62.8C95.7 62.9 95.8 63 95.8 63C95.8 63 95.8 62.9 95.9 62.9C95.9 62.9 95.9 62.8 96.3 63L96.4 63.1L96.7 63C96.6 63.2 96.7 63.5 96.7 63.5C96.6 63.5 96.3 63.5 96.2 63.5C96 63.6 95.6 63.8 95.5 63.6C95.4 63.5 95.4 63.5 95.4 63.4C95.3 63.3 95.3 63.3 95.2 63.3H95.1C95 63.2 94.9 63.2 94.8 63.2C94.9 63.2 94.9 63.2 95 63.3C95 63.4 94.9 63.4 94.9 63.4C94.8 63.5 94.9 63.6 95.2 63.7C95.2 63.7 95.3 63.8 95.2 63.8H95.1C95 63.7 95 63.6 94.8 63.7C94.8 63.7 94.7 63.7 94.7 63.8H94.6C94.5 63.8 94.3 64 94.4 64.1C94.4 64 94.5 64 94.6 64V64.1C94.7 64.3 94.7 64.4 95 64.2H95.1C95 64.3 94.8 64.5 95 64.5L95.1 64.6V64.7C95.1 64.9 95.3 65 95.4 65C95.4 64.9 95.3 64.8 95.3 64.7C95.4 64.7 95.4 64.8 95.4 64.7C95.6 64.6 95.5 64.5 95.6 64.4H95.7C95.7 64.5 95.8 64.6 95.9 64.6C96.1 64.6 96.1 64.4 96.1 64.4C96.2 64.5 96.2 64.5 96.2 64.6C96.2 64.6 96.3 64.6 96.3 64.5C96.4 64.6 96.4 64.7 96.2 64.8C96.3 64.8 96.4 64.7 96.5 64.5C96.6 64.5 96.6 64.6 96.6 64.6C96.6 64.6 96.7 64.7 96.9 64.6V64.8L97 64.7C97.1 64.7 97 64.9 97.1 65C97.2 64.6 97.5 64.7 97.7 64.5H97.8C97.8 64.6 97.7 64.6 97.7 64.7C98 64.9 98.3 64.5 98.3 64.3C98.4 64.3 98.4 64.2 98.4 64.2C98.4 64.3 98.4 64.3 98.3 64.3C98.6 64.3 98.6 64.1 98.7 64.1C99.5 64.2 98.9 63.4 100.2 63.6C100.3 63.6 100.5 63.5 100.5 63.4C100.4 63.6 100.4 63.9 100.6 64C100.7 64 100.9 64.1 100.9 64.1C100.8 64.1 100.7 64.1 100.6 64.2C100.3 64.4 100.3 63.8 100 63.9C99.9 63.9 99.9 64 99.9 64C99.8 64 99.6 64.2 99.6 64.3C99.6 64.2 99.7 64.2 99.8 64.2C99.8 64.3 99.8 64.3 99.9 64.3C100 64.3 100 64.2 100 64.2C100 64.2 100.1 64.2 100.1 64.3C100.1 64.4 99.7 64.2 99.8 64.6L99.9 64.7C99.9 64.8 99.9 64.9 100.1 64.9C100 64.9 100 64.8 100 64.8H100.1H100.2V64.9C100.2 64.9 100.2 65 100.3 65C100.3 65.1 100.5 65.2 100.6 65.1C100.5 65.1 100.5 65 100.5 65V64.9C100.6 64.9 100.6 64.8 100.6 64.8H100.7H100.8H100.9C100.9 64.9 101 65 101.1 64.9C101.3 64.8 101.1 64.6 101.3 64.6H101.4C101.6 64.7 101.8 64.7 101.8 64.5C101.9 64.4 101.8 64.1 101.6 64C101.5 64 101.6 63.9 101.5 63.7C101.7 63.8 101.9 63.9 102.1 63.9C102.5 63.9 102.7 63.8 102.9 63.7C103.2 63.6 103.4 63.7 103.4 63.7C103.5 63.7 103.5 63.7 103.5 63.8C103.4 64 103.4 64.1 103.4 64.1C103.4 64.2 103.2 64.1 103 64.1C102.9 64.1 102.9 64.1 102.8 64.2C102.7 64.2 102.5 64.3 102.5 64.5C102.5 64.5 102.6 64.4 102.7 64.4V64.5C102.7 64.7 102.8 64.7 103 64.6H103.1C103 64.7 102.8 64.8 102.9 64.9C102.9 64.9 103 64.9 103 65C102.9 65.1 103 65.2 103.1 65.2C103.1 65.1 103.1 65.1 103.1 65H103.2C103.3 65 103.3 64.8 103.4 64.7C103.3 64.8 103.3 65 103.3 65H103.4C103.4 65.1 103.5 65.2 103.7 65.1C103.6 65.1 103.6 65 103.6 65L103.7 64.9C103.8 64.7 103.6 64.7 103.6 64.6C103.7 64.5 103.8 64.5 103.9 64.3C103.9 64.2 103.9 64.2 103.8 64.1C103.9 64.1 103.9 64.1 104 64C103.8 64 103.9 63.9 103.9 63.8V63.7C104 63.6 104 63.6 104.1 63.4C104 63.5 103.8 63.6 103.8 63.4C103.8 63.4 103.8 63.3 103.6 63.3C103.3 63.3 102.9 63.3 102.4 63.2C102.3 63.2 102.3 63.1 102.4 63.1C102.9 63 104 63 104 62.6C104 62.3 103.9 62.1 103 62.1C102.1 62.1 100 62.4 100 61.9C99.8 61.3 100.2 61.3 100.7 61.3ZM97.7 61.3C97.6 61.4 97.5 61.5 97.4 61.4C97.3 61.3 97.4 61.3 97.3 61.1C97.5 61.1 97.6 61.2 97.7 61.3ZM97.9 61.8C97.8 61.8 97.8 61.7 97.8 61.7C97.8 61.7 97.8 61.7 97.9 61.8C97.8 61.8 97.7 61.7 97.7 61.8C97.6 61.9 97.7 61.9 97.7 62V62.1C97.7 62.2 97.6 62.3 97.5 62.2C97.4 62.2 97.4 62.1 97.5 62C97.5 62 97.5 61.9 97.6 61.9C97.7 61.9 97.7 61.9 97.7 61.8C97.7 61.7 97.6 61.7 97.6 61.6C97.7 61.6 97.7 61.5 97.7 61.5C97.6 61.4 97.6 61.5 97.6 61.5C97.6 61.4 97.7 61.4 97.7 61.4H97.8L98.1 61.6C98.1 61.6 98.1 61.6 98.1 61.7C97.9 61.7 97.9 61.8 97.9 61.8ZM98 61.6C97.9 61.6 97.8 61.4 97.9 61.3C98 61.4 98.1 61.4 98.3 61.5C98.1 61.5 98.1 61.6 98 61.6ZM99.7 65.6C99.7 65.7 99.8 65.7 99.9 65.7C101.1 66 102.5 65.1 103.2 65.3C102.3 65 101.7 65.6 100.7 65.3C101.2 65.3 101.8 65.2 101.8 65C101.4 65.3 100.2 64.8 99.8 65.1C99.7 65.1 99.7 65.2 99.7 65.2C99.3 65.3 99 65.5 99 65.8C99 66.6 102 66 102 66.2C102 66.4 101.4 66.6 100.6 66.6C100 66.6 98.9 66.2 97.6 66.5C97.7 66.3 98 65.9 97.9 65.8C98 65.7 98.1 65.7 98.1 65.6C98 65.5 97.9 65.5 97.9 65.5C97.9 65.5 97.9 65.4 97.8 65.3C97.8 65.3 97.7 65.2 97.7 65.1C97.6 65 97.6 65 97.4 64.9C97.3 64.8 97.2 64.8 97.1 64.8C97 64.8 96.9 64.8 96.9 64.8C96.8 64.8 96.7 64.8 96.7 64.9C96.7 64.8 96.6 64.8 96.5 64.8C96.4 64.9 96.4 65 96.4 65.1C96.3 65.1 96.2 65.4 96.1 65.4C96.1 65.5 96.1 65.5 96.2 65.5C96.1 65.7 96.1 65.9 96 65.9L96.1 66C96 66.3 96 66.5 96 66.7C95.8 66.5 95.5 66.1 95.4 66C95.2 65.9 95.2 65.8 95.2 65.6C95.2 65.4 95.3 65.3 95.3 65.2C95.3 65.1 95.3 65.1 95.2 65C95.1 64.9 95 64.8 95 64.8C95.1 64.9 95.1 64.9 95.1 65C95.1 65.1 95.1 65.1 95.1 65.1C95 65.2 95 65.2 95.1 65.3V65.4C95 65.3 95 65.1 94.9 65.1C94.9 65 94.8 64.9 94.6 65.1H94.7V65.2C94.7 65.3 94.8 65.4 94.9 65.4H95C94.8 65.3 94.7 65.4 94.7 65.5V65.6C94.7 65.7 94.6 65.8 94.8 65.8C94.8 65.7 94.8 65.7 94.9 65.7H95L95.1 65.8C95.1 65.8 95.1 65.8 95.2 65.7C95.2 65.7 95.3 65.7 95.3 65.8V65.9C95.1 66 95.2 66.2 95.3 66.2C95.3 66.2 95.4 66.2 95.4 66.3C95.4 66.6 95 66.5 95.1 66.2C94.9 66.5 95.2 66.7 95.5 66.6H95.6C95.6 66.7 95.7 66.7 95.7 66.7C95.7 66.7 95.7 66.7 95.8 66.7C95.8 66.8 95.8 66.9 95.9 66.9C95.9 66.8 95.9 66.8 96 66.8C96 66.8 96 67.2 96.4 67.4C96.5 67.6 96.6 67.7 96.8 67.7C96.9 67.9 97 68 96.9 68C96.8 68 96.4 68 96.3 68C96.2 68 96 68.1 95.9 68.2V68.3V68.2C95.8 68.2 95.7 68.2 95.6 68.1C95.5 68 95.5 68 95.5 67.9L95.4 67.8H95.3C95.2 67.8 95.1 67.7 95 67.8C95.1 67.8 95.1 67.8 95.2 67.9C95.2 68 95.1 68 95.1 68C95 68 95.1 68.1 95.4 68.2V68.3C95.3 68.3 95.3 68.3 95.2 68.3C95.1 68.2 95.1 68.1 94.9 68.2V68.3H94.8C94.7 68.3 94.5 68.4 94.6 68.6C94.6 68.5 94.6 68.5 94.8 68.5C94.8 68.6 94.8 68.6 94.9 68.6C94.9 68.7 95 68.9 95.2 68.7C95.1 68.8 94.9 68.9 95.1 69C95.1 69 95.2 69 95.2 69.1V69.2C95.1 69.4 95.4 69.5 95.4 69.5C95.4 69.4 95.3 69.4 95.3 69.3C95.4 69.3 95.4 69.4 95.4 69.3C95.5 69.2 95.5 69.1 95.6 69H95.7C95.7 69.1 95.8 69.2 95.9 69.2C96.1 69.2 96.1 69 96.1 69C96.2 69.1 96.2 69.1 96.2 69.2C96.3 69.2 96.3 69.1 96.3 69.1C96.4 69.1 96.4 69.3 96.2 69.4C96.3 69.3 96.4 69.2 96.5 69.1C96.5 69.1 96.6 69.1 96.6 69.2C96.6 69.3 96.7 69.3 96.9 69.2V69.4L97 69.3C97.1 69.3 97 69.5 97.1 69.6C97.2 69.2 97.4 69.4 97.6 69.2C97.7 69.2 97.7 69.2 97.6 69.2L97.5 69.3C97.6 69.3 97.9 69.2 97.9 69C97.9 68.9 98 68.8 98.1 68.3H98.2C98.5 68.3 98.7 68 99 68C99 68.1 98.9 68.3 98.9 68.5C98.9 68.7 99.1 68.9 99.2 68.9C99.1 68.9 99 69 99 69C98.7 69.2 98.7 68.6 98.5 68.7C98.4 68.7 98.4 68.8 98.4 68.8C98.3 68.8 98.1 68.9 98.1 69.1C98.2 69 98.2 69 98.3 69C98.3 69.1 98.3 69.1 98.4 69.1H98.5C98.5 69.1 98.6 69.1 98.6 69.2C98.6 69.3 98.2 69.1 98.3 69.4L98.4 69.5C98.4 69.6 98.5 69.7 98.6 69.6C98.5 69.5 98.5 69.5 98.5 69.5H98.6C98.6 69.5 98.7 69.5 98.7 69.4C98.7 69.4 98.8 69.4 98.8 69.5V69.6C98.8 69.7 99 69.8 99.1 69.7H98.9C99 69.7 99 69.7 99 69.6L99.1 69.5C99.2 69.5 99.2 69.5 99.2 69.5C99.3 69.6 99.3 69.6 99.4 69.6C99.6 69.5 99.5 69.4 99.6 69.3H99.7C99.9 69.4 100 69.4 100 69.3C100.1 69.2 100 69 99.8 68.9C99.7 68.8 100 68.3 99.5 68C99.7 68.1 100.4 68.2 100.5 68C100.7 68.1 100.9 68.2 101 68.2C101 68.3 101.1 68.3 101 68.3C100.8 68.4 100.8 68.4 100.7 68.5C100.6 68.4 100.6 68.4 100.6 68.4C100.5 68.3 100.5 68.4 100.4 68.4C100.3 68.4 100.1 68.4 100.1 68.5C100.2 68.5 100.2 68.5 100.3 68.5V68.6C100.3 68.7 100.3 68.7 100.3 68.7C100.2 68.7 100 68.6 100 68.8V68.9C100 69 99.9 69.1 100 69.1C100 69 100 69 100.1 69C100.1 69.1 100.2 69.1 100.2 69.1C100.3 69.2 100.4 69 100.5 69C100.4 69.1 100.3 69.1 100.3 69.2C100.3 69.3 100.3 69.4 100.4 69.4C100.4 69.3 100.3 69.3 100.4 69.2H100.5C100.7 69.1 100.5 68.9 100.6 68.9C100.7 68.9 100.8 69 100.9 68.9C100.9 68.9 100.9 68.8 100.9 68.7C101 68.8 101 68.8 101.1 68.8C101 68.7 101.1 68.6 101.2 68.5C101.3 68.5 101.4 68.5 101.4 68.4C101.3 68.4 101.1 68.3 101.2 68.3C101.4 68.2 101.5 68.1 101.4 68C101.2 67.8 100.9 67.8 100.9 67.5H101C102 67.5 102.7 67.2 102.7 66.9C102.6 66.2 99.6 66.9 99.6 66.4C99.3 65.8 99.5 65.7 99.7 65.6ZM97.5 65.7C97.6 65.7 97.8 65.8 97.8 65.9C97.7 66 97.7 66 97.6 66C97.5 65.9 97.5 65.8 97.5 65.7ZM97.3 65.6C97.2 65.7 97.1 65.7 97.1 65.7C97 65.6 97.1 65.6 97 65.5L97.3 65.6ZM96.9 66.3C96.9 66.2 96.9 66.2 97 66.2C97.1 66.2 97.1 66.2 97.1 66.1C97.1 66 97 66 97 65.9C97.1 65.9 97.1 65.9 97.1 65.8C97 65.7 97 65.8 97 65.8C97 65.7 97.1 65.7 97.1 65.7H97.2L97.5 65.9C97.5 65.9 97.5 65.9 97.5 66V66.1V66C97.4 66 97.4 66.1 97.5 66.1C97.4 66.1 97.4 66 97.3 66.1C97.3 66.2 97.3 66.2 97.4 66.3V66.5C97.4 66.6 97.3 66.7 97.2 66.6C96.9 66.4 96.9 66.3 96.9 66.3ZM50 12.1C50 11.7 49.7 11.4 49.3 11.4C48.9 11.4 48.6 11.8 48.6 12.2C48.6 12.6 48.9 12.9 49.3 12.9C49.7 12.9 50 12.5 50 12.1ZM49.8 10.1C49.8 9.70001 49.5 9.39999 49.1 9.39999C48.7 9.49999 48.4 9.8 48.4 10.2C48.5 10.6 48.7 10.8 49.1 10.9C49.4 10.9 49.8 10.6 49.8 10.1ZM50.2 9.3C50.6 9.3 51 9.00001 51 8.60001C51 8.20001 50.7 7.8 50.3 7.8C49.9 7.8 49.6 8.20001 49.6 8.60001C49.6 8.90001 49.8 9.3 50.2 9.3ZM52.2 9.2C52.6 9.2 53 8.9 53 8.5C53 8.1 52.7 7.7 52.3 7.7C51.9 7.8 51.6 8.1 51.6 8.5C51.5 8.8 51.8 9.1 52.2 9.2ZM60.6 7.8C60.9 8.1 61.4 8.1 61.6 7.8C61.9 7.5 61.9 7 61.6 6.8C61.3 6.5 60.8 6.5 60.6 6.8C60.4 7 60.4 7.5 60.6 7.8ZM60.5 6.2C60.8 5.9 60.8 5.4 60.5 5.2C60.2 4.9 59.7 4.9 59.5 5.2C59.2 5.5 59.2 6 59.5 6.2C59.7 6.4 60.1 6.5 60.5 6.2ZM58.5 5.89999C58.8 5.59999 58.8 5.09999 58.5 4.89999C58.2 4.59999 57.7 4.59999 57.5 4.89999C57.2 5.19999 57.2 5.69999 57.5 5.89999C57.7 6.09999 58.2 6.09999 58.5 5.89999ZM56.8 7.10001C57.1 6.80001 57.1 6.30001 56.8 6.10001C56.5 5.80001 56 5.80001 55.8 6.10001C55.5 6.40001 55.5 6.90001 55.8 7.10001C56 7.40001 56.5 7.40001 56.8 7.10001ZM52.1 6.10001L52.7 7.39999L53.4 6.5C53.5 6.5 53.5 6.5 53.5 6.5C53.6 6.9 53.6 7.70001 53.6 8.10001C53.6 8.60001 54 9 54.5 9C55 9 55.4 8.60001 55.4 8.10001C55.4 7.70001 55.2 7.4 54.9 7.3C54.5 7 54.2 6.7 53.9 6.3C53.9 6.3 53.9 6.3 53.9 6.2L55.1 6.3L54.6 5L53.7 5.8C53.7 5.8 53.6 5.8 53.6 5.7V4.3L52.3 4.8L53.2 5.8C53.2 5.9 53.2 5.89999 53.2 5.89999L52.1 6.10001ZM60.7 8.39999C61 8.89999 61.1 9.09999 61.1 9.39999C60.9 9.29999 60.6 9.1 60.3 8.7L60.5 10.4C60.7 10.1 60.9 9.9 61.1 9.8C61 11 60.6 11.4 60.2 11.5C59.8 11.6 59.4 11.3 59.3 10.9C59.2 10.4 59.7 10.1 60.1 10.5C60.2 9.5 59.3 9.49999 59 9.89999C59.4 8.89999 59.3 8.2 58.4 7.7C57.8 8.6 58.1 9.3 58.8 10C58.1 9.6 57.5 10.3 58.1 11C58.2 10.3 58.8 10.5 58.9 11C59 11.5 58.6 12 57.9 12.3C56.9 12.6 56.5 11.9 56.2 11.4C56.4 11.2 56.9 11.3 57.6 11.7L57 10C56.8 10.5 56.5 10.8 56 11C56 10.5 56.3 9.5 56.3 9.5L54.3 10.3C54.3 10.3 55.2 10.8 55.6 11.1C55.2 11.3 54.8 11.4 54.1 11.1L54.9 12.7C55.1 12 55.4 11.6 55.7 11.5C55.9 12.1 56.2 12.8 55.2 13.3C54.5 13.6 53.8 13.5 53.6 13.1C53.3 12.6 53.7 12.1 54.2 12.5C54.1 11.6 53.3 11.6 53 12.3C53 11.3 52.7 10.7 51.7 10.4C51.4 11.4 51.8 12 52.8 12.4C52.2 12.4 51.6 12.9 52.4 13.6C52.4 13 52.9 12.9 53.2 13.3C53.4 13.6 53.3 14.1 53 14.3H52.9C52.6 14.5 51.9 14.5 51.1 13.7C51.4 13.6 51.6 13.6 52 13.7L50.9 12.3C51 12.8 51 13.1 50.8 13.3C50.6 13 50.5 12.8 50.4 12.3L49.6 13C50.4 13.5 51.3 14.3 52.4 15.8C53.5 15.1 55.6 14.1 56.9 13.6C58.2 13.1 60.4 12.3 61.7 12C61.4 10.1 61.5 9 61.8 8L60.7 8.39999ZM77 55.7C77.3 54.9 75.8 54 75.6 52.9C75.4 51.8 75.5 50.7 74.2 49.1C72.9 47.6 68.5 42.8 67.1 41.3C67.4 41.3 68.3 41.1 69 41.9C69.5 42.4 70.4 43.3 71.3 44.1C72.5 41.1 74 38.8 76 36.5C76.3 36.2 76.5 35.9 76.8 35.6C76 35.8 74.9 36 74.1 36.5C74.1 35.2 74.2 34.1 73.3 33.3C73.7 31.5 73.4 29.3 69.2 26.6C71.3 27.1 72.5 29 74.2 27.5C72.7 27.4 72.7 24.3 67.5 21.7C69.5 21.6 71 24.9 73.3 23.1C71.1 22.8 70.4 19 66.5 17.8C67.9 18 69.3 18.6 70.4 17.1C69 17.4 68.3 16.2 66.8 16.1C67.4 14.4 67.2 13.4 66.6 12.1C65.6 12.2 64.6 12.5 63.8 13.1C63.7 12.2 62.7 12.1 61.9 12.2C62 12.6 62.2 13.2 61.7 13.2C61 13.4 58.7 14 56.9 14.7C55.1 15.4 53 16.7 52.5 17.1C52.1 17.4 51.8 16.8 51.6 16.5C51 17 50.3 17.8 50.8 18.4C49.8 18.5 48.7 18.8 47.8 19.5C47.8 20.7 48.7 21.8 50.2 22.4C47.8 24.8 50 27 47.8 29.1C50.8 29.2 50.3 25.1 51.8 24.4C51.6 27.3 50 27.8 50 31C50 32.7 51 34.5 50.1 35.6C52.6 34.9 51.9 29.3 53.5 27.7C53.8 28.6 53.6 29.6 53.3 30.5C52.4 33.1 53.4 36.6 52 37.8C54.6 37.5 54.9 33.5 57 32C55.2 35.7 53.3 43.5 50.7 47.4C46.4 53.2 43.8 60.4 39.8 60.4C38 60.4 36.7 59.3 36.7 57.1C36.7 50.4 48.1 45.9 48.1 38.8C48.1 35.7 45.5 34.4 43.9 34.4C42.8 34.4 41.5 34.9 40.4 35.9C40 35.7 39.5 35.6 39.1 35.6C35.1 35.6 36.1 42.9 32.6 42.8C34 43.6 36.4 42.1 37.8 40C37.2 44.7 30.4 43.4 31 49.1C31.9 44.7 42.7 45.3 42.7 38.6C42.7 37.8 42.3 37.2 41.8 36.7C42.6 36.2 43.4 36 44.1 36C45.4 36 46.6 36.9 46.6 38.9C46.6 44.8 35.2 49.9 35.2 57.2C35.2 58.5 35.6 59.4 36.1 60.3C35.3 60.7 34.5 60.5 33.8 59.7C33.7 61.6 36.4 62.8 38.1 61.8C38.5 62 38.9 62 39.3 62.1C38.8 63.5 37.1 63.9 36.2 63.9C39 66.1 43.8 63.2 43.6 60.7C45.8 58.9 47.2 55.9 48.8 53.9C48.7 54.4 48.6 54.8 48.5 55.3C46.9 58.3 45.4 60.9 44.9 64.8C44.5 68.1 42.9 71 40.6 71C40.1 71 39.3 70.3 38.9 70.7C38.2 71.3 38.8 72 38.8 72.6C38.8 73.5 37 74.4 37 77.3C37 78.6 37.7 80.1 37.5 81C38.2 80.6 39.2 79.4 39.6 77.8C40.4 81.6 38 81.4 39.7 84.8C39.9 83.7 41 83.2 41.7 83.7C42.4 84.2 42.1 84.5 41.5 85C41 85.5 40.5 88 42.8 87.9C42.4 87.6 42.3 87 43.5 86.7C45.1 86.4 45.5 87.1 47.2 87.1C48.2 87.1 48.5 85.7 49.3 85.7C50.1 85.7 50.1 86.3 49.8 86.8C51.1 86.4 51.4 85.8 51.4 85C51.4 84.3 50.8 83.8 51.2 83.5C51.7 83.2 53.2 83.6 52.6 84.8C53.4 84.6 53.8 84.1 53.8 83.1C53.8 82.2 52.7 81.6 51.7 81.7C51.5 81.1 50.6 80.8 49.8 80.8C47.9 80.8 48.2 82.3 46.9 82.3C44.9 82.3 42.9 79.6 42.9 75.1C42.9 72.7 45.5 72.1 47.3 71.3C49.1 70.5 52.3 68.5 54.2 65.4C55.7 62.9 55.8 60.1 55.6 56.8C58.2 58.3 58.5 60.4 58.5 62C58.5 64 57.5 64.8 56.6 65.2C55.9 65.5 55.7 65.4 55.6 65.8C55.5 66.3 55.9 66.6 56.2 66.8C57.1 67.3 56.9 68.2 57.2 69.2C57.5 70.1 58.3 71.7 59.7 72.8C59.9 72.2 59.8 71.2 59.7 70C61.7 71 60.1 75 63.9 75C63.2 74.6 63.4 73.5 63.8 73.4C64.2 73.2 64.7 73.7 65.5 74.7C66.2 75.7 66 75.6 67.9 75.6C69.7 75.6 68.9 75 69.9 75C70.8 75 70.8 76.1 70.3 76.9C71.9 76.4 72.4 75.2 71.9 73.9C73.3 73.1 74.1 74.2 74.3 75C75.7 73.6 74.3 71.9 73.2 71.8C73.2 71.3 72.7 70.7 72.2 70.7C71.6 70.6 71 70.6 70.4 70.6C69.7 70.7 69.4 71.6 68.6 71.6C66.2 71.6 61.4 67.2 61.4 65.3C61.4 63.4 65.9 62.3 65.9 59.4C65.9 55.6 62.1 54.3 59 51.8C60.1 50.5 63.4 50.2 65.3 51.2C65.5 50.2 66.2 50.4 66.4 48.5C67.1 50.1 66.4 51.5 67.1 52.2C67.6 51.4 69 51.5 68.9 49.5C69.3 50.8 68.4 52.7 69.3 53.5C69.5 52.5 70.1 52.2 70.5 52.2C70.9 52.2 71.2 52.5 71.2 53.1C71.2 54.6 69.3 53.9 69.3 55.7C69.3 56.4 70.2 56.7 70.2 57.2C70.2 57.7 69.5 58.4 68.5 57.8C68.8 58.5 69.4 59.1 70.2 59.1C71 59.1 71.9 58.4 72.3 57.6C72.7 58.7 72.4 59.9 71.6 60C72.4 60.4 74.4 60 74.2 57.5C75.3 57.7 75.9 58.4 75.2 59.8C76.1 59.6 77 59.1 77 58.2C77.4 56.9 76.6 56.7 77 55.7ZM55.4 21.2C54.4 21.3 54.4 20.3 52.5 19.8C53.8 19.5 55.4 18.9 56.9 18.3C57.2 19.6 56.8 21.1 55.4 21.2ZM62.8 29C61.4 29.6 60.4 28.4 60.1 27.6C59.8 26.8 59.6 26.1 59.9 25.8C60.5 25.2 60.7 24.8 60.3 24.1C59.9 23.3 59 23.7 58.1 23.9C58.5 23.1 58.6 22.5 58 22.6C57.3 22.7 57.3 23.9 56.9 23.7C56.5 23.5 56.7 22.9 56.7 22.6C56.7 22.1 57 21.9 57.5 21.7L61.4 20.2C61.9 20 62.2 19.9 62.6 20.3C62.9 20.6 63.5 20.9 63.3 21.2C63.1 21.6 62.3 20.8 61.7 21.2C61.2 21.6 61.6 21.9 62.5 22.2C61.7 22.7 60.8 23 61 23.9C61.3 24.6 61.7 24.8 62.5 24.8C62.9 24.8 63.2 25.4 63.6 26.2C64.1 27 64.2 28.5 62.8 29ZM63 18.2C62 19 60.6 18.3 60 17.2C61.4 16.6 63.1 15.9 64.2 15.3C63.2 16.9 63.8 17.6 63 18.2ZM149.7 74.1C149.8 75.9 151.2 77.3 153 77.2C154.7 77.1 156.1 75.8 156.1 74.1C156.1 72.3 154.6 70.9 152.9 70.9C151.1 70.8 149.7 72.3 149.7 74.1ZM150.6 74.1C150.6 72.8 151.7 71.7 153 71.7C154.3 71.7 155.4 72.7 155.4 74.1C155.4 75.4 154.4 76.5 153 76.5C151.6 76.5 150.6 75.4 150.6 74.1ZM137.7 77C137.3 77.3 137 77.7 136.9 78.2C136.8 78.8 136.9 79.3 137.4 79.8C137.8 80.2 138.3 80.5 139 80.7C139.6 80.8 140.2 80.8 140.8 80.4C141.4 80.1 141.7 79.6 141.8 79.1C142 78 141.1 76.9 139.7 76.6C139 76.5 138.3 76.6 137.7 77ZM139.2 79.9C138.3 79.7 137.6 79.1 137.7 78.4C137.8 78.1 137.9 77.9 138.2 77.7C138.6 77.4 139.1 77.3 139.6 77.4C140.4 77.6 141.1 78.1 141.1 78.8V79C141 79.6 140.1 80 139.2 79.9ZM120.1 32C119.1 32.8 118.8 34.1 119.4 34.9C120 35.7 121.4 35.7 122.4 35C122.9 34.6 123.3 34 123.4 33.4C123.5 32.9 123.3 32.5 123.1 32.1C122.8 31.7 122.4 31.5 122 31.5C121.3 31.4 120.6 31.6 120.1 32ZM119.9 33.9C119.9 33.5 120.2 33 120.6 32.6C121 32.3 121.4 32.2 121.8 32.2C122.1 32.2 122.3 32.4 122.4 32.5C122.6 32.7 122.6 32.9 122.6 33.2C122.5 33.6 122.3 34 121.9 34.3C121.3 34.8 120.4 34.8 120.1 34.3C119.9 34.2 119.9 34 119.9 33.9ZM134 71.7C133.5 72.2 133.2 72.9 133.2 73.6C133.2 74.3 133.5 75 133.9 75.5C134.3 75.9 134.7 76.1 135.2 76.1C135.7 76.1 136.1 75.9 136.5 75.6C137 75.1 137.3 74.4 137.3 73.7C137.3 73.1 137.1 72.5 136.8 71.9C136.4 71.4 135.9 71.1 135.3 71.1C134.8 71.1 134.3 71.4 134 71.7ZM135.2 75.3C134.9 75.3 134.7 75.2 134.5 75C134.2 74.7 134 74.2 134 73.6C134 73.1 134.2 72.6 134.5 72.2C134.7 72 135 71.9 135.2 71.9C135.9 71.9 136.4 72.7 136.4 73.6C136.4 74.1 136.2 74.6 135.9 75C135.7 75.2 135.5 75.3 135.2 75.3ZM118.3 45.8C117.8 46 117.4 46.3 117.2 46.7C116.7 47.7 117.3 49 118.6 49.6C119.3 49.9 120.1 50 120.7 49.8C121.2 49.6 121.6 49.3 121.8 48.9C122 48.5 122 48 121.9 47.5C121.7 46.9 121.2 46.3 120.5 46C119.7 45.6 118.9 45.5 118.3 45.8ZM118.9 48.9C118.1 48.5 117.6 47.7 117.9 47.1C118.1 46.8 118.3 46.6 118.5 46.6C118.9 46.4 119.4 46.5 120 46.7C120.5 46.9 120.8 47.3 121 47.7C121 47.9 121.1 48.2 121 48.5C120.8 48.8 120.6 49 120.4 49C119.9 49.2 119.4 49.1 118.9 48.9ZM152 42.4C153 45.3 155.1 46.3 156.7 45.6C153.2 45.2 156 39.1 151.5 39.1C151.2 39.1 151 39.2 150.8 39.2C150 38.4 149.1 38.1 147.8 38.1C145.9 38.1 142.5 40 142.5 43.8C142.5 52.1 152.1 52.8 152.1 60.1C152.1 62.2 150.5 63.5 148.7 63.5C147.1 63.5 145.8 61.7 144.4 58.9C143.8 57.5 142.4 55.7 140.9 53.8C141.3 54.1 141.8 54.3 142.3 54.3C142.8 54.3 143.3 54.1 143.7 53.8C144.1 53.5 144.3 53 144.3 52.5V52.4C144.3 51.7 144 51 143.5 50.5C143 49.9 142.3 49.6 141.6 49.6C141.1 49.6 140.6 49.8 140.3 50.1C139.9 50.4 139.8 50.9 139.7 51.4C139.7 51.7 139.8 52 139.9 52.2C137.8 49.5 135.9 46.8 135.9 45.4C135.9 44.1 136.8 43 137.9 41.6L138.3 41.8L138.6 41.5C139 41.1 139.8 40.2 141.5 38.4L141.6 38.3L142 37.9L141 37.1C141.3 36.5 141.5 35.8 141.7 35.1C142 36.4 142.7 37.3 143.6 37C143 35.6 144.2 33.8 143.4 30.4C144.2 31.7 145.3 32.4 146.1 32.1C144 30.2 146.7 27.6 144 23.5C144.9 23.8 145.5 23.7 145.9 23.2C143.3 22.8 144.5 19.6 140.1 18.5C141.2 18.3 141.9 17.7 141.7 17.1C140.5 17.9 139.5 15.5 135.6 15.6C135.3 14.1 134 12.6 132.5 11.9C132.8 13 132.5 14 132.2 14.9L119.7 2.60001C119.3 2.20001 119.1 2.2 119 2.3C118.9 2.4 118.9 2.69999 119.2 2.89999L129.9 16.4C129.1 16.7 128.3 17 127.4 17.3C126.8 17.5 126.5 18.1 126.5 18.7C124.5 19.7 122.7 20.9 121.9 21.7C121.2 22.3 120.7 22.4 121.3 23.8C121.5 24.3 120.8 25.6 122.4 24.6C123.5 24 125.7 22.7 126.1 23.5C126.3 23.9 125.2 24.4 124.3 24.8C123.5 25.1 122.7 25.7 122.8 26C122.9 26.3 123.5 26 123.6 26.3C123.7 26.7 123.9 27 124.2 27C124.5 27 124.9 26.3 125.2 26.5C125.5 26.7 125.1 28.2 124.8 28.6C126 28.4 126.8 27.3 126.8 26.4C126.9 25.5 127.1 25.2 127.3 25.1C127.5 25 127.7 26.1 127.5 26.7C128.1 26.6 128.8 25.7 128.7 24.1C129 23.8 129.4 23.6 129.6 23.6C130 23.6 130.8 24.7 132 24.7C134.1 24.7 135.3 23 135.4 22.1C135.5 21.4 135.4 20.8 135.1 20.3C135.9 20.9 136.1 21.9 136.1 22.6C136.1 25.6 130.8 27 128.6 29.1C128.5 29.2 128.4 29.3 128.3 29.3L125.8 28.3L125.6 28.9C125.2 30.3 124.8 31.7 124.3 33L124.1 33.4L124.3 33.6C122.8 35.6 121.6 37.8 121.3 40.1C120.7 39.5 120.1 38.9 119.5 38.4C119.6 38.2 119.6 37.9 119.7 37.7C119.7 37 119.5 36.4 119.1 35.9C118.8 35.5 118.4 35.3 118 35.3C117.5 35.3 117.1 35.5 116.8 35.8C116.7 35.9 116.6 36 116.6 36C116.5 35.9 116.4 35.8 116.3 35.8C115.5 35.2 114.5 34.4 113.8 33.7C113.5 33.4 113.3 33.2 112.7 33.2H111.6C111.2 33.2 111 33.5 110.6 33.9C110.4 34.1 109.8 34.5 109.2 35C109.5 35.3 109.8 35.6 110.1 36C110.3 36.1 110.4 36.4 110.6 36.6L111 36.3C111.3 36.1 111.6 36 111.9 36C112.2 36 112.7 36.3 113 36.7C114.3 38.4 115.6 40 116.9 41.5C116.7 41.6 116.5 41.6 116.4 41.7C115.7 42 114 42 113.3 41.9C112.6 41.8 112.4 41.6 111.9 42.4C111.7 42.7 111.5 43 111.2 43.3C110.9 43.6 110.8 43.9 111.3 44.8C112 46.1 113.9 49.3 114.5 50.9C115.1 52.4 115.8 52.6 117 53.1C118.2 53.6 120.2 54.7 120.4 55L120.5 53.9C120.1 53.5 119 53.1 118.6 53C118.2 52.8 118.1 52.7 118.6 52.7C119.1 52.7 120.5 53.2 121.5 53.6C121.2 52.5 120.1 51.3 119.5 50.6C118.7 50.3 117.8 50.3 117.5 50.6C117.6 50.9 117.3 51.1 117.1 51.1H117C116.7 51.1 116.5 50.8 116.5 50.5C116.6 50.2 117.1 50 117 49.4C116.9 48.8 116.1 48.7 115.6 48.6C114.9 47.6 114 46 113.7 45.4C113.4 44.8 113.5 44.5 113.8 44.3C114.4 43.8 115.7 44.6 118.2 44.7C119.1 44.8 120.2 44.8 121.3 44.9C121.6 47.9 122.8 50.7 126.9 51.7C128.9 52.2 131 53.7 131.7 55.6C123.5 55.5 122.1 58.7 122.1 61.7C122.1 65.1 125 64.9 125 67.5C125 69.7 118.1 70.7 116 71C114.2 71.3 113.2 71.7 112.3 72.5C111.5 73.3 110.6 74.2 109.1 75.7C109.1 75.7 109.8 75.9 110.4 75.8L111.5 74.3C111.9 73.8 112.1 73.4 112.3 73.4C112.5 73.5 112.4 73.8 112.1 74.4L111.2 76C115.3 76.3 115.5 74.7 115.5 74.2C115.5 73.6 114.5 73.2 115.1 72.8C115.7 72.4 116.2 72.7 116.7 73.2C117.2 73.7 117.3 74.2 118.4 73.8C118.4 73.8 127.3 70.1 128.4 69.6C129.4 69.1 129.1 68.7 128.5 68.2C127.8 67.7 127.7 66.8 127.7 65.9C127.7 63.2 129.3 62.4 132.2 62.5C132.2 63 132.1 63.4 132.1 63.8C132.1 68 138.4 72 140.1 72C140.9 72 141.9 71.4 141.9 73.9C142 75.7 142.3 77.1 142 79.2C141.7 81.3 141.1 81.7 139.8 82.6C138.5 83.5 137.3 86.4 136.8 86.9C137.4 87.3 138 87.3 138.5 86C138.9 84.8 139.3 84.1 139.9 83.8C139.4 85.1 139 86.9 138.8 87.5C140.4 87.8 143 86.3 143 85.2C143 84 142.1 84.2 142.1 83.4C142.1 83.1 142.5 82.7 143 82.7C143.6 82.7 144.1 83.2 144.2 83.4C144.9 83 145.4 82.3 145.4 80.6C145.4 80 145.3 79.3 145.3 78.6C145.4 78.7 145.4 78.8 145.5 78.9C145.8 79.4 146.3 79.7 147 79.7C147.6 79.8 148.2 79.6 148.8 79.2C149.4 78.8 149.9 78.2 150 77.5C150.1 77.4 150.1 77.2 150.1 77.1C150.1 76.7 150 76.4 149.8 76.1C149.5 75.7 149.1 75.4 148.6 75.3C147.9 75.1 147.2 75.3 146.6 75.7C146 76.1 145.6 76.6 145.4 77.3C145.3 75 145.1 72.9 145.2 72C145.3 70.7 145.4 70.2 144.9 70C144.5 69.8 144 70.5 143.4 70.5C142.8 70.5 140.9 68.8 140.9 67C140.9 65.2 142.8 62.9 142.8 60.4C142.7 59.6 143.3 59.2 143.6 59.9C144 60.7 144.5 61.9 145.4 62.8C144.9 65.9 148.3 69 151.1 66.7C149.7 66.9 148.7 65.7 148.1 64.4C148.4 64.5 148.6 64.5 148.9 64.5H149.3C150.3 65.7 153.4 65.6 154.3 62.6C153.7 63.2 152.6 63.7 151.8 63.6C153 62.7 153.6 61.2 153.6 59.6C153.6 51.7 144 50.8 144 43.6C144 40.9 146.4 39.2 148 39.2C148.6 39.2 149.1 39.4 149.5 39.7C148.9 40.3 148.6 41.3 148.6 42.4C148.9 48.1 158.1 47.8 158.3 50.5C159.2 46.7 152.2 48 152 42.4ZM127.3 20.7C127.8 19.9 127.3 18.6 128.9 18.6C129.7 18.6 130.4 19.4 131.3 19.6C129.8 19.7 128.4 20.1 127.3 20.7ZM118.9 38.1C118.9 38.5 118.7 38.9 118.4 39.2C118.3 39.4 118 39.5 117.8 39.5C117.3 39.4 116.9 38.9 116.9 38.1V38C116.9 37.5 117.1 37.1 117.4 36.8C117.6 36.6 117.8 36.5 118 36.5C118.3 36.5 118.5 36.7 118.6 36.8C118.8 37.2 118.9 37.6 118.9 38.1ZM146.2 77.9C146.3 77.5 146.6 77 147 76.7C147.5 76.4 148 76.3 148.4 76.4C148.6 76.4 148.9 76.6 149.1 76.8C149.3 77.1 149.3 77.4 149.2 77.6C149.1 78.1 148.8 78.5 148.4 78.8C147.6 79.3 146.7 79.3 146.3 78.7C146.2 78.4 146.2 78.2 146.2 77.9ZM140.5 51.5C140.5 51.2 140.6 51 140.8 50.8C141 50.6 141.3 50.5 141.5 50.5C142 50.5 142.4 50.8 142.8 51.1C143.2 51.5 143.4 52 143.4 52.5C143.4 52.8 143.3 53 143.1 53.2C142.9 53.4 142.6 53.5 142.4 53.5C141.9 53.5 141.5 53.2 141.1 52.9C140.7 52.5 140.5 51.9 140.5 51.5ZM124.8 33.7C125.3 32.3 126.1 29.5 126.1 29.5L127.6 30.1C127.2 30.3 126.7 30.7 126.2 31.1C126.5 31.3 127.1 31.3 127.5 31L126.9 32.5C126.7 32.3 126.4 31.7 126 31.7C125.7 32.9 126.4 33.3 127 33.6C127.9 34.1 128.5 34.1 128.7 33.7C129 33.2 128.4 32.5 127.7 32.8C127.6 32 128.1 31.7 128.5 31.7C128.9 31.7 129.2 32.1 129.3 32.5C129.3 31.2 129.8 30.3 131 29.9C131.4 31.1 131 31.9 130.2 32.8C130.7 32.6 131.2 32.6 131.5 33C131.8 33.4 131.7 34 131 34.3C130.8 33.5 129.9 33.4 129.6 33.9C129.3 34.4 129.8 34.9 130.5 35.4C131.4 35.9 132.2 35.6 132.7 34.8C132.4 34.7 131.9 34.7 131.3 35.1L132.3 33.3C132.4 33.6 132.5 34 132.9 34.3C133 33.9 133.3 33.2 133 32.5L135.1 33.7C134.4 33.8 133.9 34.3 133.6 34.6C134.1 34.8 134.6 34.7 134.9 34.6L133.8 36.3C133.8 35.7 133.6 35.2 133.4 35C132.9 35.8 133 36.7 134 37.2C134.8 37.7 135.4 37.8 135.7 37.3C136 36.8 135.5 36 134.7 36.3C134.6 35.5 135.1 35.2 135.6 35.2C136 35.3 136.3 35.7 136.4 36.2C136.7 35 137.2 34.3 138.5 34.1C138.8 35.2 138.2 36.2 137.1 36.8C137.6 36.6 138 36.7 138.3 37.1C138.6 37.5 138.4 38.1 137.7 38.4C137.6 37.6 136.7 37.5 136.4 37.9C136.2 38.3 136.5 38.8 137.3 39.3C137.8 39.6 138.6 40 139.4 39.2C139.1 38.9 138.5 38.8 138.2 38.8L139.2 37.5C139.2 38 139.5 38.5 139.8 38.7C140 38.1 140 37.4 140 37L141.2 38C141.2 38 139.2 40.1 138.3 41.2L124.8 33.7ZM137.8 66.3C137.3 67 136.4 67.3 135.8 66.9C135.2 66.5 135.2 65.5 135.7 64.8C136.2 64.1 137.1 63.8 137.7 64.2C138.3 64.7 138.3 65.6 137.8 66.3ZM141.5 60.4C141 61.1 140.1 61.4 139.5 61C138.9 60.6 138.9 59.6 139.4 58.9C139.9 58.2 140.8 57.9 141.4 58.3C142 58.7 142.1 59.6 141.5 60.4ZM36.5 182.5V130.6H74V136.7H43.3V152.6H72V158.7H43.3V176.4H75.2V182.5H36.5V182.5ZM113.6 182.5V130.6H107.3V149.2C106.2 147.7 104.8 146.4 103 145.5C101.2 144.5 99.2 144.1 96.9 144.1C93.8 144.1 91 144.9 88.5 146.5C86 148.1 84.1 150.5 82.9 153.5C81.7 156.6 81 160 81 163.7C81 167.5 81.7 171 83.1 173.9C84.5 176.9 86.4 179.2 88.9 180.8C91.4 182.4 94.2 183.3 97.2 183.3C101.8 183.3 105.3 181.4 107.7 177.7V182.4H113.6V182.5ZM87.6 163.7C87.6 158.7 88.5 155.1 90.5 152.8C92.4 150.5 94.8 149.3 97.6 149.3C100.5 149.3 102.9 150.5 104.9 152.9C106.9 155.3 107.9 159.1 107.9 164.2C107.9 168.9 106.9 172.3 105 174.6C103.1 176.9 100.7 178 97.9 178C95.1 178 92.7 176.8 90.7 174.4C88.6 172.1 87.6 168.5 87.6 163.7ZM153.5 182.5V144.9H147.1V165C147.1 168.2 146.7 170.7 146.1 172.4C145.4 174.1 144.2 175.4 142.5 176.4C140.8 177.4 139 177.9 137.1 177.9C135.2 177.9 133.6 177.4 132.3 176.5C131 175.5 130.2 174.2 129.7 172.6C129.4 171.4 129.3 169.2 129.3 165.9V145.1H123V168.4C123 171.1 123.1 173.1 123.4 174.3C123.8 176.2 124.4 177.7 125.4 179C126.3 180.3 127.8 181.4 129.7 182.2C131.6 183 133.7 183.5 135.9 183.5C140.9 183.5 144.9 181.4 147.8 177.1V182.6H153.5V182.5ZM187.5 168.7C187.1 171.9 186 174.3 184.3 175.8C182.6 177.3 180.5 178.1 178 178.1C174.9 178.1 172.4 177 170.4 174.7C168.5 172.4 167.5 168.7 167.5 163.7C167.5 158.7 168.5 155.1 170.5 152.8C172.5 150.5 175.1 149.3 178.3 149.3C180.4 149.3 182.2 149.9 183.7 151.2C185.2 152.5 186.2 154.4 186.8 156.9L193 155.9C192.3 152.1 190.6 149.2 188 147.1C185.4 145 182.1 144 178 144C174.8 144 171.8 144.8 169 146.3C166.3 147.8 164.2 150.1 162.8 153.2C161.5 156.2 160.8 159.8 160.8 163.9C160.8 170.2 162.4 175 165.5 178.4C168.6 181.8 172.8 183.4 177.9 183.4C182 183.4 185.5 182.2 188.3 179.7C191.1 177.3 192.9 173.9 193.6 169.6L187.5 168.7ZM223.2 177.9C223.4 179.7 223.8 181.2 224.5 182.5H231.2C230.4 181.1 229.9 179.6 229.6 178C229.3 176.4 229.2 172.7 229.2 166.8V158.3C229.2 155.5 229.1 153.5 228.9 152.4C228.5 150.7 227.9 149.2 226.9 148.1C226 146.9 224.5 146 222.5 145.2C220.5 144.4 217.9 144.1 214.7 144.1C211.5 144.1 208.6 144.5 206.2 145.4C203.7 146.3 201.9 147.6 200.6 149.2C199.3 150.8 198.4 153 197.8 155.7L204 156.6C204.7 153.9 205.7 152.1 207.2 151C208.6 150 210.8 149.4 213.8 149.4C217 149.4 219.4 150.1 221.1 151.6C222.3 152.7 222.9 154.5 222.9 157.1C222.9 157.3 222.9 157.9 222.9 158.8C220.5 159.7 216.7 160.4 211.5 161C209 161.3 207.1 161.6 205.8 162C204.1 162.5 202.6 163.2 201.2 164.1C199.8 165 198.7 166.2 197.9 167.8C197.1 169.3 196.6 171 196.6 172.8C196.6 175.9 197.7 178.5 199.9 180.5C202.1 182.5 205.3 183.5 209.4 183.5C211.9 183.5 214.2 183.1 216.4 182.3C218.6 181.3 220.9 179.9 223.2 177.9ZM222.7 166C222.7 168.8 222.4 170.9 221.7 172.4C220.8 174.3 219.4 175.7 217.5 176.8C215.6 177.9 213.4 178.4 211 178.4C208.5 178.4 206.6 177.8 205.4 176.7C204.1 175.6 203.5 174.1 203.5 172.4C203.5 171.3 203.8 170.3 204.4 169.4C205 168.5 205.8 167.8 206.9 167.3C208 166.8 209.8 166.4 212.5 166C217.1 165.3 220.6 164.5 222.9 163.6V166H222.7ZM252.4 176.8C251.2 177 250.3 177.1 249.6 177.1C248.7 177.1 247.9 176.9 247.4 176.6C246.9 176.3 246.5 175.9 246.3 175.4C246.1 174.9 246 173.7 246 171.9V149.9H252.4V144.9H246V131.8L239.7 135.6V144.9H235V149.9H239.7V171.5C239.7 175.3 240 177.8 240.5 179C241 180.2 241.9 181.2 243.2 181.9C244.5 182.6 246.3 183 248.6 183C250 183 251.6 182.8 253.4 182.4L252.4 176.8ZM258.2 137.9H264.6V130.6H258.2V137.9ZM258.2 182.5H264.6V144.9H258.2V182.5ZM271.4 163.7C271.4 170 273 174.9 276.3 178.3C279.5 181.7 283.8 183.4 289.1 183.4C292.4 183.4 295.4 182.6 298.2 181.1C301 179.6 303.1 177.4 304.5 174.6C306 171.8 306.7 168 306.7 163.2C306.7 157.2 305.1 152.6 301.8 149.2C298.5 145.8 294.3 144.1 289.1 144.1C284.4 144.1 280.5 145.5 277.3 148.3C273.3 151.6 271.4 156.7 271.4 163.7ZM277.9 163.7C277.9 158.9 279 155.3 281 152.9C283.1 150.5 285.7 149.3 288.9 149.3C292 149.3 294.7 150.5 296.8 152.9C298.9 155.3 300 158.8 300 163.5C300 168.4 299 172.1 296.9 174.5C294.8 176.9 292.2 178.1 289 178.1C285.8 178.1 283.2 176.9 281.1 174.5C279 172.1 277.9 168.5 277.9 163.7ZM319.9 182.5V162C319.9 157.2 320.9 153.9 322.9 152.2C324.9 150.5 327.2 149.6 329.9 149.6C331.6 149.6 333.1 150 334.3 150.8C335.6 151.6 336.4 152.6 336.9 153.9C337.4 155.2 337.6 157.1 337.6 159.7V182.6H344V159.5C344 156.6 343.9 154.5 343.6 153.3C343.2 151.5 342.6 149.9 341.6 148.6C340.7 147.3 339.2 146.2 337.3 145.4C335.4 144.6 333.3 144.2 331.1 144.2C325.9 144.2 321.9 146.3 319.1 150.4V145H313.4V182.6H319.9V182.5ZM402.7 176.4C405.4 179.6 408.1 182.1 410.7 183.7L415 178.6C412 176.5 409.3 173.8 406.9 170.6C408.8 167.7 410.4 163.9 411.5 159.4L404.9 158C404.3 160.7 403.5 163.1 402.4 165.2L393.1 153.3C399.6 149.8 402.9 145.6 402.9 140.7C402.9 137.7 401.8 135.1 399.5 132.9C397.2 130.7 394.4 129.6 390.8 129.6C387.1 129.6 384 130.7 381.6 133.1C379.2 135.4 377.9 138.1 377.9 141.2C377.9 142.8 378.3 144.4 379.1 146.1C379.9 147.8 381.4 150 383.8 152.6C379.7 154.6 376.6 156.8 374.5 159.4C372.4 162 371.4 164.9 371.4 168.1C371.4 171.7 372.7 175 375.2 177.9C378.3 181.5 382.5 183.3 387.8 183.3C390.7 183.3 393.4 182.7 395.8 181.5C398.3 180.5 400.6 178.7 402.7 176.4ZM398.7 171.3C397.5 173.2 395.8 174.7 393.8 175.9C391.8 177.1 389.8 177.7 387.9 177.7C384.8 177.7 382.5 176.6 380.8 174.3C379.1 172 378.3 169.8 378.3 167.8C378.3 166.1 378.9 164.3 380.1 162.6C381.3 160.8 383.6 158.9 387.1 156.9L398.7 171.3ZM386.9 146C386.1 145 385.5 144.1 385 143.2C384.6 142.3 384.4 141.5 384.4 140.7C384.4 139.1 385 137.7 386.1 136.6C387.3 135.5 388.7 134.9 390.4 134.9C392.1 134.9 393.5 135.5 394.6 136.6C395.7 137.7 396.3 139.2 396.3 140.9C396.3 142.4 395.9 143.7 395.1 145C394.3 146.2 392.5 147.7 389.7 149.3L386.9 146ZM439 165.8C439.1 169.3 440 172.4 441.9 175.1C443.7 177.8 446.2 179.9 449.4 181.3C452.6 182.7 456.5 183.4 461.2 183.4C464.9 183.4 468.2 182.7 471.2 181.4C474.2 180 476.4 178.1 478 175.7C479.6 173.3 480.4 170.7 480.4 167.9C480.4 165.1 479.7 162.7 478.2 160.5C476.8 158.4 474.5 156.6 471.5 155.2C469.4 154.3 465.6 153.2 460 151.9C454.4 150.6 451 149.4 449.6 148.2C448.3 147 447.6 145.5 447.6 143.6C447.6 141.5 448.6 139.6 450.5 138.1C452.4 136.6 455.4 135.8 459.6 135.8C463.6 135.8 466.6 136.6 468.6 138.3C470.6 140 471.8 142.5 472.2 145.7L478.8 145.2C478.7 142.2 477.8 139.4 476.2 137C474.6 134.6 472.4 132.8 469.4 131.5C466.5 130.3 463.1 129.6 459.2 129.6C455.7 129.6 452.5 130.2 449.7 131.4C446.8 132.6 444.7 134.3 443.2 136.6C441.7 138.9 441 141.3 441 143.9C441 146.3 441.6 148.4 442.8 150.4C444 152.3 445.9 153.9 448.3 155.2C450.2 156.2 453.5 157.3 458.3 158.4C463.1 159.6 466.2 160.4 467.5 160.9C469.7 161.7 471.2 162.7 472.2 164C473.1 165.2 473.6 166.6 473.6 168.3C473.6 169.9 473.1 171.4 472.1 172.7C471.1 174.1 469.6 175.1 467.6 175.9C465.6 176.7 463.3 177.1 460.7 177.1C457.7 177.1 455.1 176.6 452.7 175.6C450.3 174.6 448.6 173.2 447.5 171.6C446.4 169.9 445.7 167.8 445.4 165.2L439 165.8ZM494.8 182.5V167.6L499.3 163.3L511.7 182.5H519.6L503.8 158.9L518.2 145H510L494.9 160.3V130.7H488.5V182.6H494.8V182.5ZM524.1 137.9H530.5V130.6H524.1V137.9ZM524.1 182.5H530.5V144.9H524.1V182.5ZM539.5 182.5H545.9V130.6H539.5V182.5ZM555.2 182.5H561.6V130.6H555.2V182.5ZM568.3 171.3C569 175.3 570.6 178.3 573.2 180.3C575.8 182.3 579.5 183.3 584.4 183.3C587.4 183.3 590 182.8 592.3 181.8C594.6 180.8 596.4 179.3 597.7 177.4C598.9 175.5 599.6 173.5 599.6 171.4C599.6 169.2 599.1 167.4 598.1 165.9C597.1 164.4 595.7 163.3 593.9 162.6C592.1 161.8 589 160.9 584.5 159.6C581.4 158.7 579.5 158.2 578.9 158C577.8 157.6 577 157 576.5 156.3C576 155.6 575.7 154.9 575.7 154.1C575.7 152.8 576.3 151.7 577.6 150.7C578.9 149.7 580.9 149.2 583.9 149.2C586.4 149.2 588.3 149.7 589.7 150.8C591.1 151.9 591.9 153.4 592.2 155.3L598.4 154.4C598 152 597.3 150 596.2 148.6C595.1 147.1 593.5 146 591.3 145.1C589.1 144.3 586.5 143.8 583.5 143.8C581.5 143.8 579.7 144.1 578 144.6C576.3 145.1 574.9 145.7 573.9 146.5C572.6 147.4 571.5 148.6 570.8 150.1C570 151.5 569.7 153.1 569.7 154.8C569.7 156.6 570.2 158.3 571.1 159.8C572 161.3 573.4 162.5 575.2 163.4C577 164.3 580.2 165.3 584.9 166.5C588.4 167.4 590.5 168.1 591.4 168.7C592.7 169.5 593.3 170.7 593.3 172.1C593.3 173.7 592.6 175.1 591.2 176.3C589.8 177.5 587.6 178.1 584.7 178.1C581.8 178.1 579.5 177.4 577.9 176.1C576.3 174.8 575.3 172.8 574.9 170.3L568.3 171.3ZM43.5 259.1V235.5H67.9V229.4H43.5V213.3H71.6V207.2H36.6V259.1H43.5V259.1ZM109.6 259.1V221.5H103.2V241.6C103.2 244.8 102.9 247.3 102.2 248.9C101.5 250.6 100.3 251.9 98.6 252.9C96.9 253.9 95.1 254.4 93.2 254.4C91.3 254.4 89.7 253.9 88.4 253C87.1 252 86.3 250.7 85.9 249.1C85.6 247.9 85.5 245.7 85.5 242.4V221.6H79.1V244.9C79.1 247.6 79.2 249.6 79.5 250.8C79.9 252.7 80.5 254.2 81.5 255.5C82.4 256.8 83.9 257.9 85.8 258.7C87.7 259.5 89.8 260 92 260C97 260 101 257.9 103.9 253.6V259.1H109.6V259.1ZM125.5 259.1V238.6C125.5 233.8 126.5 230.5 128.5 228.8C130.5 227.1 132.8 226.2 135.5 226.2C137.2 226.2 138.7 226.6 139.9 227.4C141.2 228.2 142 229.2 142.5 230.5C143 231.8 143.2 233.7 143.2 236.3V259.2H149.6V236C149.6 233 149.5 231 149.2 229.8C148.8 228 148.2 226.4 147.2 225.1C146.3 223.8 144.8 222.7 142.9 221.9C141 221.1 138.9 220.7 136.6 220.7C131.4 220.7 127.4 222.8 124.6 226.9V221.5H118.9V259.1H125.5V259.1ZM189.2 259.1V207.2H182.9V225.8C181.8 224.3 180.4 223 178.6 222.1C176.8 221.1 174.8 220.7 172.5 220.7C169.4 220.7 166.6 221.5 164.1 223.1C161.6 224.7 159.7 227.1 158.5 230.1C157.3 233.2 156.6 236.6 156.6 240.3C156.6 244.2 157.3 247.6 158.7 250.5C160.1 253.5 162 255.8 164.5 257.4C167 259.1 169.8 259.9 172.8 259.9C177.4 259.9 180.9 258 183.3 254.3V259H189.2V259.1ZM163.1 240.4C163.1 235.4 164.1 231.8 166 229.5C167.9 227.2 170.3 226 173.1 226C176 226 178.4 227.2 180.4 229.6C182.4 232 183.4 235.8 183.4 240.9C183.4 245.6 182.4 249 180.5 251.3C178.6 253.6 176.2 254.7 173.4 254.7C170.6 254.7 168.2 253.5 166.2 251.1C164.2 248.8 163.1 245.2 163.1 240.4ZM198.7 214.6H205.1V207.3H198.7V214.6ZM198.7 259.1H205.1V221.5H198.7V259.1ZM220.7 259.1V238.6C220.7 233.8 221.7 230.5 223.7 228.8C225.7 227.1 228 226.2 230.7 226.2C232.4 226.2 233.9 226.6 235.1 227.4C236.4 228.2 237.2 229.2 237.7 230.5C238.2 231.8 238.4 233.7 238.4 236.3V259.2H244.8V236C244.8 233 244.7 231 244.4 229.8C244 228 243.4 226.4 242.4 225.1C241.4 223.8 240 222.7 238.1 221.9C236.2 221.1 234.1 220.7 231.9 220.7C226.7 220.7 222.7 222.8 219.9 226.9V221.5H214.2V259.1H220.7V259.1ZM252.9 262.2C252.8 266.3 254.1 269.3 256.9 271.3C259.7 273.3 263.3 274.3 267.8 274.3C271.6 274.3 274.8 273.6 277.3 272.2C279.9 270.8 281.8 268.9 283 266.4C284.2 264 284.8 259.8 284.8 254V221.5H278.9V226C276 222.4 272.4 220.6 267.9 220.6C264.6 220.6 261.7 221.4 259.2 223.1C256.7 224.8 254.8 227.1 253.6 230.1C252.3 233.1 251.6 236.4 251.6 240C251.6 245.2 253 249.7 255.9 253.4C258.7 257.1 262.7 259 267.9 259C272.1 259 275.5 257.4 278.3 254.1C278.3 258.3 278.2 261 277.8 262.3C277.2 264.4 276.2 266.1 274.5 267.3C272.9 268.5 270.6 269.1 267.7 269.1C265 269.1 262.8 268.5 261.2 267.3C260 266.4 259.3 265 259 263.1L252.9 262.2ZM258.2 239.7C258.2 235.2 259.2 231.7 261.2 229.5C263.2 227.2 265.6 226 268.4 226C271.3 226 273.7 227.2 275.8 229.5C277.8 231.8 278.9 235.3 278.9 239.9C278.9 244.7 277.9 248.3 275.9 250.5C273.9 252.8 271.5 253.9 268.5 253.9C265.5 253.9 263.1 252.8 261.1 250.5C259.2 248.2 258.2 244.6 258.2 239.7ZM312 259.1L317.7 243.4H339.4L345.4 259.1H353.2L332 207.2H324.6L304.7 259.1H312V259.1ZM325.4 222.6C326.6 219.3 327.5 216 328.2 212.7C329 215.5 330.2 219.1 331.9 223.5L337.3 237.9H319.7L325.4 222.6ZM356.2 262.2C356.1 266.3 357.4 269.3 360.2 271.3C363 273.3 366.6 274.3 371.1 274.3C374.9 274.3 378.1 273.6 380.6 272.2C383.2 270.8 385.1 268.9 386.3 266.4C387.5 264 388.1 259.8 388.1 254V221.5H382.2V226C379.3 222.4 375.7 220.6 371.2 220.6C367.9 220.6 365 221.4 362.5 223.1C360 224.8 358.1 227.1 356.9 230.1C355.6 233.1 354.9 236.4 354.9 240C354.9 245.2 356.3 249.7 359.2 253.4C362 257.1 366 259 371.2 259C375.4 259 378.8 257.4 381.6 254.1C381.6 258.3 381.5 261 381.1 262.3C380.5 264.4 379.5 266.1 377.8 267.3C376.2 268.5 373.9 269.1 371 269.1C368.3 269.1 366.1 268.5 364.5 267.3C363.3 266.4 362.6 265 362.3 263.1L356.2 262.2ZM361.5 239.7C361.5 235.2 362.5 231.7 364.5 229.5C366.5 227.2 368.9 226 371.7 226C374.6 226 377 227.2 379.1 229.5C381.1 231.8 382.2 235.3 382.2 239.9C382.2 244.7 381.2 248.3 379.2 250.5C377.2 252.8 374.8 253.9 371.8 253.9C368.8 253.9 366.4 252.8 364.4 250.5C362.5 248.2 361.5 244.6 361.5 239.7ZM423 247C422 249.7 420.7 251.6 419.1 252.9C417.4 254.1 415.5 254.7 413.1 254.7C410 254.7 407.3 253.6 405.2 251.4C403.1 249.2 401.9 246 401.7 241.9H429.7C429.7 241.1 429.7 240.6 429.7 240.2C429.7 234 428.1 229.2 424.9 225.8C421.7 222.4 417.6 220.7 412.6 220.7C407.4 220.7 403.2 222.4 399.9 225.9C396.6 229.4 395 234.3 395 240.6C395 246.7 396.6 251.5 399.8 254.9C403 258.3 407.4 260 412.9 260C417.3 260 420.9 258.9 423.7 256.8C426.5 254.7 428.4 251.7 429.5 247.8L423 247ZM402 236.7C402.2 233.4 403.3 230.8 405.3 228.8C407.3 226.8 409.8 225.9 412.7 225.9C415.9 225.9 418.6 227.1 420.6 229.6C421.9 231.2 422.7 233.5 423 236.7H402V236.7ZM443.4 259.1V238.6C443.4 233.8 444.4 230.5 446.4 228.8C448.4 227.1 450.7 226.2 453.4 226.2C455.1 226.2 456.6 226.6 457.8 227.4C459.1 228.2 459.9 229.2 460.4 230.5C460.9 231.8 461.1 233.7 461.1 236.3V259.2H467.5V236C467.5 233 467.4 231 467.1 229.8C466.7 228 466.1 226.4 465.1 225.1C464.2 223.8 462.7 222.7 460.8 221.9C458.9 221.1 456.8 220.7 454.6 220.7C449.4 220.7 445.4 222.8 442.6 226.9V221.5H437V259.1H443.4V259.1ZM501.4 245.4C501 248.6 499.9 250.9 498.2 252.5C496.5 254 494.4 254.8 491.9 254.8C488.8 254.8 486.3 253.7 484.3 251.4C482.4 249.1 481.4 245.4 481.4 240.4C481.4 235.4 482.4 231.8 484.4 229.5C486.4 227.2 489 226.1 492.2 226.1C494.3 226.1 496.1 226.7 497.6 228C499.1 229.3 500.1 231.2 500.7 233.7L506.9 232.7C506.2 228.9 504.5 226 501.9 223.9C499.3 221.8 496 220.8 491.9 220.8C488.7 220.8 485.7 221.6 482.9 223.1C480.2 224.6 478.1 226.9 476.8 229.9C475.5 232.9 474.8 236.5 474.8 240.6C474.8 246.9 476.4 251.7 479.5 255.1C482.6 258.5 486.8 260.1 491.9 260.1C496 260.1 499.5 258.9 502.3 256.4C505.1 254 506.9 250.6 507.6 246.3L501.4 245.4ZM512.3 273.6C513.8 274.1 515.2 274.4 516.4 274.4C518.4 274.4 520.2 273.9 521.6 272.9C523.1 271.9 524.4 270.4 525.5 268.3C526.3 266.7 527.5 263.9 529.1 259.8L543.4 221.6H537L529 243.5C528 246.3 527.1 249.1 526.4 252.1C525.6 249.1 524.7 246.2 523.7 243.4L515.9 221.6H509L523.3 259.3C523 260 522.8 260.5 522.7 260.9C521.8 263.4 521.2 265 520.8 265.6C520.3 266.4 519.6 267.1 518.7 267.6C517.9 268.1 516.7 268.3 515.3 268.3C514.3 268.3 513 268.1 511.7 267.7L512.3 273.6Z" fill="black"/>
</g>
<defs>
<clipPath id="clip0_1_64">
<rect width="600" height="274" fill="white"/>
</clipPath>
</defs>
</svg>
