<svg width="924" height="394" viewBox="0 0 924 394" fill="none" xmlns="http://www.w3.org/2000/svg">
<g clip-path="url(#clip0_1_25)">
<path d="M0.461548 -0.339111H13.7135V391.458H0.461548V-0.339111Z" fill="#7F3F98"/>
<path d="M145.465 17.5222V25.3965C149.498 25.5886 152.379 26.3568 153.916 26.7409C153.147 22.1315 149.882 18.6745 145.465 17.5222ZM140.664 11.9525C140.664 14.6413 140.087 16.3698 139.319 17.5222C139.319 17.5222 140.664 17.1381 142.392 17.1381C143.544 17.1381 145.273 17.5222 145.465 17.5222C144.697 16.3698 144.121 14.6413 144.121 11.9525C150.074 11.9525 151.419 14.6413 151.419 16.946H152.571V3.50196H151.419C151.419 5.80665 149.882 8.49546 144.121 8.49546C144.121 2.54167 146.809 1.19727 149.114 1.19727V0.0449219H135.67V1.19727C137.975 1.19727 140.664 2.73373 140.664 8.49546C134.71 8.49546 133.365 5.80665 133.365 3.50196H132.213V16.946H133.365C133.365 14.6413 134.71 11.9525 140.664 11.9525V11.9525ZM139.319 17.5222C135.094 18.6745 131.829 22.3236 130.869 26.7409C132.405 26.3568 135.286 25.5886 139.319 25.3965V17.5222ZM146.617 212.461C146.617 215.149 148.922 217.454 151.611 217.454C154.3 217.454 156.604 215.149 156.604 212.461C156.604 209.772 154.3 207.467 151.611 207.467C148.73 207.659 146.617 209.772 146.617 212.461ZM149.114 212.461C149.114 211.116 150.266 209.964 151.611 209.964C152.955 209.964 154.108 211.116 154.108 212.461C154.108 213.805 152.955 214.957 151.611 214.957C150.074 214.957 149.114 213.997 149.114 212.461ZM137.591 147.353C137.591 144.856 135.67 142.936 133.173 142.936H108.206C106.093 142.936 104.365 144.664 104.365 146.777C104.365 148.313 105.517 149.466 107.053 149.466C108.59 149.466 109.742 148.313 109.742 146.585C110.318 147.161 110.895 147.545 111.663 147.929C111.279 149.466 110.895 151.578 110.703 154.075C110.318 153.499 109.742 153.307 109.166 153.307C108.206 153.307 107.246 154.075 107.246 155.227C107.246 156.188 108.014 157.148 109.166 157.148C109.742 157.148 110.318 156.764 110.703 156.38C110.703 157.724 110.703 159.069 110.895 160.605C110.511 160.413 110.126 160.221 109.742 160.221C108.782 160.221 107.822 160.989 107.822 162.142C107.822 163.102 108.59 164.062 109.742 164.062C110.318 164.062 111.087 163.678 111.279 163.102C111.279 163.294 111.279 163.486 111.471 163.678C111.855 164.83 112.239 165.983 112.623 166.943C112.431 166.751 112.047 166.751 111.663 166.751C110.703 166.751 109.742 167.519 109.742 168.672C109.742 169.632 110.511 170.592 111.663 170.592C112.623 170.592 113.391 169.824 113.583 169.056C114.16 170.208 114.928 171.36 115.888 172.513H115.504C114.544 172.513 113.583 173.281 113.583 174.433C113.583 175.586 114.352 176.354 115.504 176.354C116.464 176.354 117.425 175.586 117.425 174.433V174.241C120.305 177.122 123.955 179.619 128.372 181.347L127.604 187.109C127.604 187.109 129.332 187.877 132.021 188.646C134.71 189.414 137.207 189.798 137.207 189.798L137.591 147.353ZM114.928 149.658C114.928 149.658 115.12 149.658 115.312 149.85L128.948 177.506C112.047 169.824 113.775 155.996 114.928 149.658ZM129.332 175.394L116.848 150.234C117.617 150.426 118.385 150.426 119.153 150.426L129.908 172.129L129.332 175.394ZM130.1 169.824L120.498 150.234C121.266 150.234 121.842 150.042 122.418 149.85L130.484 166.367L130.1 169.824ZM130.869 164.254L123.57 149.658C124.147 149.466 124.723 149.274 125.299 148.89L131.253 160.797L130.869 164.254ZM131.637 158.685L126.451 148.313C127.027 147.929 127.604 147.545 127.988 147.161L132.021 155.227L131.637 158.685ZM132.981 149.082L132.405 153.307L129.14 146.585C129.524 146.393 129.908 146.393 130.292 146.393C131.829 146.201 133.173 147.545 132.981 149.082V149.082ZM121.074 36.1518C121.074 34.6153 122.418 33.2709 123.955 33.2709C125.491 33.2709 126.835 34.6153 126.835 36.1518C126.835 37.8803 125.491 39.0326 123.955 39.0326C122.418 39.2247 121.074 37.8803 121.074 36.1518ZM82.8542 56.5099C82.8542 54.9734 84.1986 53.629 85.7351 53.629C87.4636 53.629 88.6159 54.9734 88.6159 56.5099C88.6159 58.2384 87.2715 59.3907 85.7351 59.3907C84.1986 59.3907 82.8542 58.0463 82.8542 56.5099ZM81.3177 49.0196C81.3177 47.2911 82.6622 46.1388 84.1986 46.1388C85.7351 46.1388 87.0795 47.4832 87.0795 49.0196C87.0795 50.5561 85.7351 51.9005 84.1986 51.9005C82.6622 52.0925 81.3177 50.7481 81.3177 49.0196ZM81.8939 41.5294C81.8939 39.9929 83.2383 38.6485 84.7748 38.6485C86.5033 38.6485 87.6557 39.9929 87.6557 41.5294C87.6557 43.0658 86.3113 44.4102 84.7748 44.4102C83.2383 44.4102 81.8939 43.0658 81.8939 41.5294ZM85.9271 34.9994C85.9271 33.4629 87.2715 32.1185 88.808 32.1185C90.5365 32.1185 91.6889 33.4629 91.6889 34.9994C91.6889 36.5359 90.3445 37.8803 88.808 37.8803C87.2715 38.0723 85.9271 36.7279 85.9271 34.9994ZM92.073 30.5821C92.073 29.0456 93.4174 27.7012 94.9538 27.7012C96.4903 27.7012 97.8347 29.0456 97.8347 30.5821C97.8347 32.3106 96.4903 33.4629 94.9538 33.4629C93.4174 33.655 92.073 32.3106 92.073 30.5821ZM99.5632 29.2377C99.5632 27.7012 100.908 26.3568 102.444 26.3568C104.173 26.3568 105.325 27.7012 105.325 29.2377C105.325 30.7741 103.981 32.1185 102.444 32.1185C100.908 32.3106 99.5632 30.9662 99.5632 29.2377ZM106.861 30.7741C106.861 29.2377 108.206 27.8933 109.742 27.8933C111.471 27.8933 112.623 29.2377 112.623 30.7741C112.623 32.3106 111.279 33.655 109.742 33.655C108.206 33.8471 106.861 32.5027 106.861 30.7741ZM113.968 33.655C113.968 32.1185 115.312 30.7741 116.848 30.7741C118.577 30.7741 119.729 32.1185 119.729 33.655C119.729 35.3835 118.385 36.5359 116.848 36.5359C115.312 36.5359 113.968 35.1915 113.968 33.655ZM163.71 36.1518C163.71 34.6153 162.366 33.2709 160.83 33.2709C159.293 33.2709 157.949 34.6153 157.949 36.1518C157.949 37.8803 159.293 39.0326 160.83 39.0326C162.366 39.2247 163.71 37.8803 163.71 36.1518ZM201.93 56.5099C201.93 54.9734 200.586 53.629 199.049 53.629C197.321 53.629 196.168 54.9734 196.168 56.5099C196.168 58.2384 197.513 59.3907 199.049 59.3907C200.586 59.3907 201.93 58.0463 201.93 56.5099ZM203.466 49.0196C203.466 47.2911 202.122 46.1388 200.586 46.1388C199.049 46.1388 197.705 47.4832 197.705 49.0196C197.705 50.5561 199.049 51.9005 200.586 51.9005C202.122 52.0925 203.466 50.7481 203.466 49.0196ZM202.698 41.5294C202.698 39.9929 201.354 38.6485 199.817 38.6485C198.089 38.6485 196.936 39.9929 196.936 41.5294C196.936 43.0658 198.281 44.4102 199.817 44.4102C201.546 44.4102 202.698 43.0658 202.698 41.5294ZM198.857 34.9994C198.857 33.4629 197.513 32.1185 195.976 32.1185C194.44 32.1185 193.095 33.4629 193.095 34.9994C193.095 36.5359 194.44 37.8803 195.976 37.8803C197.513 38.0723 198.857 36.7279 198.857 34.9994ZM192.711 30.5821C192.711 29.0456 191.367 27.7012 189.83 27.7012C188.102 27.7012 186.949 29.0456 186.949 30.5821C186.949 32.3106 188.294 33.4629 189.83 33.4629C191.367 33.655 192.711 32.3106 192.711 30.5821ZM185.221 29.2377C185.221 27.7012 183.877 26.3568 182.34 26.3568C180.612 26.3568 179.459 27.7012 179.459 29.2377C179.459 30.7741 180.804 32.1185 182.34 32.1185C183.877 32.3106 185.221 30.9662 185.221 29.2377ZM177.731 30.7741C177.731 29.2377 176.386 27.8933 174.85 27.8933C173.121 27.8933 171.969 29.2377 171.969 30.7741C171.969 32.3106 173.313 33.655 174.85 33.655C176.578 33.8471 177.731 32.5027 177.731 30.7741ZM170.625 33.655C170.625 32.1185 169.28 30.7741 167.744 30.7741C166.207 30.7741 164.863 32.1185 164.863 33.655C164.863 35.3835 166.207 36.5359 167.744 36.5359C169.472 36.5359 170.625 35.1915 170.625 33.655ZM167.744 78.5965C167.744 76.868 166.207 75.3315 164.479 75.3315C162.75 75.3315 161.214 76.868 161.214 78.5965C161.214 80.325 162.75 81.8615 164.479 81.8615C166.207 81.8615 167.744 80.325 167.744 78.5965ZM146.425 98.1864V135.446H179.459V98.1864H146.425ZM178.499 134.485H147.386V99.3387H178.307L178.499 134.485Z" fill="black"/>
<path d="M150.651 100.491H148.73V133.141H177.155V100.491H159.101H150.651ZM175.234 101.451V102.412H176.194V131.22H175.234V132.18H150.651V131.22H149.69V102.412H150.651V101.451H175.234Z" fill="black"/>
<path d="M173.89 109.902L172.353 111.438C172.353 111.438 172.161 111.438 172.161 111.63L169.28 114.319C168.32 115.087 168.128 116.432 168.896 117.392L170.625 119.697C170.817 119.889 170.817 120.081 170.817 120.465C170.817 120.657 170.625 121.041 170.432 121.041C170.24 121.233 170.048 121.233 169.664 121.233C169.472 121.233 169.088 121.041 169.088 120.849C169.088 120.849 167.36 118.545 166.591 117.392V114.127L170.625 110.286V107.021L169.28 105.677L171.009 103.948H163.903L162.174 105.677V107.597C162.366 107.405 162.75 107.405 162.942 107.405C163.71 107.405 164.479 108.173 164.479 108.942C164.479 109.71 163.71 110.478 162.942 110.478C162.75 110.478 162.366 110.478 162.174 110.286V112.591H159.677L156.796 108.558C157.181 108.173 157.373 107.597 157.373 107.021C157.373 105.869 156.412 105.1 155.452 105.1C155.068 105.1 154.684 105.293 154.3 105.485V108.75H154.492L157.181 112.591L158.525 114.511H161.79L160.061 116.24H156.604C156.412 115.472 155.644 115.087 154.876 115.087C154.108 115.087 153.339 115.664 153.147 116.24C153.147 116.432 152.955 116.624 152.955 117.008C152.955 117.392 153.147 117.968 153.339 118.16H161.214L162.558 120.081H157.181L159.293 122.962L160.445 124.498H157.757C157.565 123.73 156.796 123.154 155.836 123.154C155.068 123.154 154.3 123.73 153.916 124.498V125.074C153.916 125.651 154.108 126.035 154.492 126.419H164.287L162.942 124.498L161.79 122.962H164.863L166.015 124.498L167.36 126.419H171.969V128.532H171.393C171.201 127.763 170.432 127.187 169.472 127.187C168.512 127.187 167.936 127.763 167.552 128.532V129.108C167.552 129.684 167.744 130.068 168.128 130.452H173.89V124.306H170.048L168.128 121.809C168.512 122.194 168.896 122.578 169.472 122.578C170.048 122.578 170.625 122.578 171.201 122.194C171.777 121.809 171.969 121.233 172.161 120.657C172.161 120.081 172.161 119.505 171.777 118.929L170.048 116.624C169.664 116.24 169.856 115.472 170.24 115.28L171.009 114.511C171.777 115.087 172.737 115.087 173.505 114.511C173.89 114.127 174.082 113.743 174.082 113.167L173.89 109.902ZM146.809 78.5965L142.392 83.0139L137.975 78.5965L142.392 74.1792L146.809 78.5965ZM117.04 78.5965C117.04 76.868 118.577 75.3315 120.305 75.3315C122.034 75.3315 123.57 76.868 123.57 78.5965C123.57 80.325 122.034 81.8615 120.305 81.8615C118.577 81.8615 117.04 80.325 117.04 78.5965ZM177.155 162.334V161.373C177.155 160.029 176.194 159.069 174.85 159.069H166.591C166.591 158.108 165.631 157.148 164.671 157.148C164.095 157.148 163.71 157.34 163.326 157.724L160.83 160.221H174.85C175.426 160.221 175.81 160.605 175.81 161.181C175.81 161.757 175.426 162.142 174.85 162.142H158.525V159.837L161.406 156.956H150.074L152.955 159.837V164.062L148.346 160.413C148.73 160.029 148.922 159.453 148.922 158.877C148.922 157.724 147.962 156.956 147.001 156.956C146.617 156.956 146.041 157.148 145.657 157.34V160.797L152.763 166.559L149.498 167.519C149.306 166.751 148.538 166.175 147.578 166.175C146.425 166.175 145.657 167.135 145.657 168.095C145.657 168.479 145.849 169.056 146.041 169.248H150.074L167.744 163.678V166.367L165.439 167.327C165.247 166.367 164.479 165.791 163.518 165.791C162.366 165.791 161.598 166.751 161.598 167.711C161.598 168.095 161.79 168.672 161.982 168.864H166.399L169.088 167.519L170.817 166.751L170.048 165.022V164.638H176.578C176.578 164.83 176.386 165.215 176.386 165.407C176.194 165.791 176.002 166.367 175.81 166.751C175.426 166.367 174.85 166.175 174.274 166.175C173.121 166.175 172.353 167.135 172.353 168.095C172.353 168.479 172.545 169.056 172.737 169.248H176.77C177.347 168.095 177.731 166.751 177.923 165.983C178.499 164.254 178.883 162.718 178.883 162.142C179.075 162.334 177.155 162.334 177.155 162.334V162.334ZM155.836 162.526L153.916 160.605H157.757L155.836 162.526ZM177.347 148.121C177.539 147.737 177.539 147.545 177.539 147.161C177.539 145.817 176.578 144.856 175.234 144.856H166.591C166.591 143.896 165.631 142.936 164.671 142.936C164.095 142.936 163.71 143.128 163.326 143.512L160.83 146.009H175.426C176.002 146.009 176.386 146.393 176.386 146.969C176.386 147.545 176.002 147.929 175.426 147.929H158.525V145.625L161.406 142.744H150.074L152.955 145.625V149.85L148.346 146.201C148.73 145.817 148.922 145.241 148.922 144.856C148.922 143.704 147.962 142.936 147.001 142.936C146.617 142.936 146.041 143.128 145.657 143.32V146.777L152.571 152.347L149.306 153.307C149.114 152.539 148.346 151.963 147.386 151.963C146.233 151.963 145.465 152.923 145.465 153.883C145.465 154.267 145.657 154.843 145.849 155.228H149.882L167.552 149.658V152.539L165.247 153.307C165.055 152.539 164.287 151.963 163.326 151.963C162.174 151.963 161.406 152.923 161.406 153.883C161.406 154.267 161.598 154.843 161.79 155.228H166.207L170.625 153.883L172.737 153.115L171.009 151.578L169.856 150.426H177.731V152.539C177.347 152.155 176.77 151.77 176.194 151.77C175.042 151.77 174.274 152.731 174.274 153.691C174.274 154.075 174.466 154.651 174.658 155.035H179.651V147.929L177.347 148.121ZM155.836 148.313L153.916 146.393H157.757L155.836 148.313ZM170.048 173.089H166.591C166.591 172.129 165.631 171.168 164.671 171.168C164.095 171.168 163.71 171.36 163.326 171.744L160.83 174.241H170.24C170.817 174.241 171.201 174.625 171.201 175.202C171.201 175.778 170.817 176.162 170.24 176.162H158.909V174.241L161.79 171.36H150.458L153.339 174.241V179.043L148.73 174.817C149.114 174.433 149.498 173.857 149.498 173.281C149.498 172.129 148.538 171.36 147.578 171.36C147.194 171.36 146.617 171.552 146.233 171.744V175.009L153.531 181.731L153.916 181.347L149.306 186.917C148.922 186.533 148.346 186.533 147.962 186.533C146.809 186.725 146.041 187.685 146.233 188.646C146.233 189.03 146.425 189.414 146.617 189.798C147.386 189.798 148.346 189.606 149.882 189.414L155.068 183.268C155.836 183.076 156.412 182.692 157.181 182.5L159.293 184.42L158.141 184.996C157.565 184.612 156.796 184.42 156.22 184.612C155.26 184.996 154.684 186.149 155.068 187.109C155.26 187.493 155.452 187.685 155.644 187.877C155.644 187.877 156.412 187.685 157.181 187.301C157.949 186.917 158.717 186.725 158.717 186.725C159.677 186.341 160.445 185.957 161.214 185.573V180.387C162.558 179.619 163.71 178.851 164.671 177.89L166.591 179.619C166.207 180.003 165.823 180.195 165.247 180.579C164.671 180.195 163.903 180.195 163.326 180.579C162.942 180.771 162.558 181.347 162.366 181.731V182.5C162.366 182.692 162.558 183.076 162.558 183.268C162.75 183.652 163.134 183.844 163.518 184.036C164.479 183.46 165.247 182.884 166.207 182.308C166.783 181.924 167.552 181.347 168.128 180.771L168.704 180.195V177.698H170.048C171.393 177.698 172.353 176.738 172.353 175.394C172.353 174.241 171.393 173.089 170.048 173.089V173.089ZM155.836 176.738L153.916 174.817H157.757L155.836 176.738ZM136.246 129.492C136.438 129.108 136.438 128.916 136.438 128.532C136.438 127.187 135.478 126.227 134.134 126.227H125.491C125.491 125.267 124.531 124.306 123.57 124.306C122.994 124.306 122.61 124.498 122.226 124.882L119.729 127.379H134.326C134.902 127.379 135.286 127.763 135.286 128.339C135.286 128.916 134.902 129.3 134.326 129.3H117.617V126.995L120.498 124.114H109.166L112.047 126.995V131.22L107.438 127.571C107.822 127.187 108.014 126.611 108.014 126.227C108.014 125.074 107.053 124.306 106.093 124.306C105.517 124.306 105.133 124.498 104.749 124.69V128.147L111.663 133.717L108.398 134.677C108.206 133.909 107.438 133.333 106.477 133.333C105.325 133.333 104.557 134.293 104.557 135.254C104.557 135.83 104.749 136.214 104.941 136.598H108.974L126.643 131.028V133.909L124.339 134.677C124.147 133.909 123.378 133.333 122.418 133.333C121.266 133.333 120.498 134.293 120.498 135.254C120.498 135.83 120.69 136.214 120.882 136.598H124.915L129.332 135.254L131.445 134.677L129.716 133.141L128.564 131.989H136.438V134.101C136.054 133.717 135.478 133.333 134.902 133.333C133.749 133.333 132.981 134.293 132.981 135.254C132.981 135.83 133.173 136.214 133.365 136.598H138.359V129.492H136.246ZM114.544 129.684L112.623 127.763H116.464L114.544 129.684ZM136.246 115.856C136.438 115.472 136.438 115.28 136.438 114.895C136.438 113.551 135.478 112.591 134.134 112.591H125.491C125.491 111.63 124.531 110.67 123.57 110.67C122.994 110.67 122.61 110.862 122.226 111.246L119.729 113.743H134.134C134.71 113.743 135.094 114.127 135.094 114.703C135.094 115.28 134.71 115.664 134.134 115.664H117.425V113.359L120.305 110.478H108.974L111.855 113.359V117.584L107.246 113.935C107.63 113.551 107.822 112.975 107.822 112.591C107.822 111.438 106.861 110.67 105.901 110.67C105.325 110.67 104.941 110.862 104.557 111.054V114.511L111.471 120.081L108.206 121.041C108.014 120.273 107.246 119.697 106.285 119.697C105.133 119.697 104.365 120.657 104.365 121.617C104.365 122.002 104.557 122.578 104.749 122.962H108.782L126.451 117.392V120.273L124.147 121.041C123.955 120.273 123.186 119.697 122.226 119.697C121.074 119.697 120.305 120.657 120.305 121.617C120.305 122.002 120.498 122.578 120.69 122.962H124.915L129.332 121.617L131.445 120.849L129.716 119.313L128.564 118.16H136.438V120.273C136.054 119.889 135.478 119.505 134.902 119.505C133.749 119.505 132.981 120.465 132.981 121.425C132.981 121.809 133.173 122.386 133.365 122.77H138.359V115.472H136.246V115.856ZM114.544 116.048L112.623 114.127H116.464L114.544 116.048ZM136.246 102.028C136.438 101.643 136.438 101.451 136.438 101.067C136.438 99.7229 135.478 98.7626 134.134 98.7626H125.491C125.491 97.8023 124.531 96.842 123.57 96.842C122.994 96.842 122.61 97.0341 122.226 97.4182L119.729 99.9149H134.134C134.71 99.9149 135.094 100.299 135.094 100.875C135.094 101.451 134.71 101.835 134.134 101.835H117.425V99.5308L120.305 96.6499H108.974L111.855 99.5308V103.756L107.246 100.107C107.63 99.7229 107.822 99.1467 107.822 98.7626C107.822 97.6102 106.861 96.842 105.901 96.842C105.325 96.842 104.941 97.0341 104.557 97.2261V100.683L111.471 106.253L108.206 107.213C108.014 106.445 107.246 105.869 106.285 105.869C105.133 105.869 104.365 106.829 104.365 107.789C104.365 108.365 104.557 108.75 104.749 109.134H108.782L126.451 103.564V106.445L124.147 107.213C123.955 106.445 123.186 105.869 122.226 105.869C121.074 105.869 120.305 106.829 120.305 107.789C120.305 108.365 120.498 108.75 120.69 109.134H124.723L129.14 107.789L131.253 107.213L129.524 105.677L128.372 104.524H136.246V106.637C135.862 106.253 135.286 105.869 134.71 105.869C133.557 105.869 132.789 106.829 132.789 107.789C132.789 108.365 132.981 108.75 133.173 109.134H138.167V101.835L136.246 102.028ZM114.544 102.412L112.623 100.491H116.464L114.544 102.412ZM196.36 137.174C197.705 136.79 198.281 135.446 197.897 134.293C197.705 133.717 197.321 133.141 196.744 132.949C196.168 132.565 195.592 132.565 195.016 132.757C194.44 132.949 193.864 133.333 193.671 133.909C193.287 134.485 193.287 135.061 193.479 135.638C193.864 136.79 195.208 137.366 196.36 137.174ZM189.638 142.36L190.022 144.472L197.705 143.32C197.897 143.32 205.387 147.161 205.387 147.161L205.003 144.472L199.625 141.783C200.009 141.399 204.043 137.75 204.043 137.75L203.658 135.061L203.466 135.254C203.466 135.254 197.513 140.823 197.321 141.015C197.321 141.207 189.638 142.36 189.638 142.36V142.36ZM195.592 149.85C195.592 150.426 195.784 151.002 196.36 151.578C196.744 151.963 197.321 152.347 198.089 152.155C198.665 152.155 199.241 151.963 199.817 151.386C200.201 151.002 200.393 150.426 200.393 149.658C200.393 149.082 200.201 148.505 199.625 147.929C199.241 147.545 198.665 147.161 197.897 147.161C196.552 147.353 195.592 148.505 195.592 149.85V149.85ZM190.214 153.691L190.022 155.804C190.022 155.804 195.976 156.572 196.36 156.764C196.36 156.956 196.168 158.492 196.168 158.492V159.453C196.168 160.413 196.36 161.373 196.936 162.142C197.513 162.91 198.473 163.486 199.817 163.678C202.506 164.062 204.427 162.718 204.811 160.029L205.387 155.804L190.214 153.691ZM202.506 157.532C202.506 157.724 202.314 159.645 202.314 159.645C202.122 161.565 200.586 161.565 200.009 161.373C198.857 161.181 198.089 160.413 198.089 159.453V159.069C198.089 159.069 198.281 157.532 198.281 157.148C198.665 156.956 202.314 157.34 202.506 157.532V157.532ZM188.87 162.334L186.373 169.632L188.486 170.4C188.486 170.4 190.214 165.215 190.214 165.022C190.406 165.215 193.864 166.175 194.248 166.367C194.056 166.751 192.519 171.36 192.519 171.36L194.632 172.129C194.632 172.129 196.168 167.327 196.36 167.135C196.552 167.327 200.009 168.287 200.201 168.479C200.009 168.864 198.473 173.665 198.473 173.665L200.586 174.433L203.082 167.135L188.87 162.334ZM185.989 170.976L185.029 172.513C185.029 172.513 193.479 177.89 194.248 178.466C193.287 178.466 180.612 179.619 180.612 179.619L179.651 181.155L192.327 189.222L193.479 187.493C193.479 187.493 185.029 182.116 184.261 181.539C185.221 181.539 198.089 180.195 198.089 180.195L199.049 178.659L185.989 170.976ZM180.996 189.03C179.459 189.222 178.115 189.606 177.155 188.646C176.77 188.261 176.386 187.109 177.347 186.149C178.307 185.189 179.651 184.996 181.188 185.189H181.764L179.459 182.884C177.923 183.076 176.77 183.46 175.81 184.612C175.042 185.381 174.658 186.341 174.658 187.301C174.658 188.453 175.042 189.414 176.002 190.374C177.923 192.295 180.035 191.911 181.956 191.526C183.3 191.142 184.453 190.95 185.413 191.718C185.605 192.103 185.797 192.295 185.797 192.679C185.797 193.255 185.605 193.639 185.029 194.215C184.261 194.983 183.3 195.368 181.956 195.176H181.572L183.684 197.288C184.837 197.096 185.797 196.712 186.565 195.944C187.526 194.983 187.91 194.023 187.91 193.063C187.91 192.103 187.526 190.95 186.565 190.182C184.837 188.261 182.724 188.646 180.996 189.03V189.03ZM171.777 188.261L165.439 192.487L166.591 194.407C166.591 194.407 171.009 191.334 171.393 191.142C171.585 191.334 173.505 194.407 173.697 194.599C173.505 194.791 169.28 197.672 169.28 197.672L170.432 199.593C170.432 199.593 174.658 196.712 174.85 196.712C175.042 196.904 176.962 199.785 177.155 200.169C176.962 200.361 172.545 203.242 172.545 203.242L173.697 205.162L180.035 200.937L171.777 188.261ZM116.272 198.248C116.08 198.056 110.511 194.599 110.318 194.407C110.511 194.215 113.775 189.03 113.775 189.03L111.855 187.877V188.069L103.981 200.553L105.901 201.705C105.901 201.705 109.166 196.52 109.358 196.328C109.55 196.52 115.12 199.977 115.312 200.169C115.12 200.361 111.855 205.547 111.855 205.547L113.775 206.699L121.842 194.023L119.921 192.871C119.729 192.871 116.464 197.864 116.272 198.248ZM108.59 187.109C108.782 185.189 108.014 183.46 106.861 182.116C103.596 178.466 99.1791 179.235 96.2982 181.731C94.5697 183.268 93.6094 185.189 93.6094 187.109C93.4174 189.03 94.1856 190.758 95.53 192.295C98.2188 195.368 102.828 195.56 106.093 192.679C107.438 191.142 108.398 189.222 108.59 187.109ZM106.285 187.109C106.285 188.453 105.517 189.99 104.365 190.95C102.06 193.063 98.9871 193.063 97.0665 190.758C96.1062 189.798 95.7221 188.453 95.9141 187.301C95.9141 185.957 96.6824 184.612 97.8347 183.46C98.9871 182.5 100.524 181.924 101.868 181.924C103.212 181.924 104.365 182.5 105.133 183.46C105.901 184.612 106.285 185.765 106.285 187.109V187.109ZM100.716 174.625C100.716 174.625 91.4968 178.851 90.7286 179.235C91.1127 178.466 97.0665 166.751 97.0665 166.751L96.2982 165.022H96.1062L82.6622 171.36L83.6224 173.281C83.6224 173.281 92.8412 169.056 93.6094 168.672C93.2253 169.44 87.2715 181.155 87.2715 181.155L88.0398 182.692L101.484 176.354L100.716 174.625ZM81.1257 164.638L81.7019 166.943L96.1062 163.294L95.7221 160.989L95.53 161.181L81.1257 164.638ZM88.808 156.188C88.2318 155.804 87.6556 155.612 87.0795 155.804C86.5033 155.804 85.9271 156.188 85.543 156.764C85.1589 157.34 84.9668 157.916 85.1589 158.492C85.1589 159.069 85.543 159.645 86.1192 160.029C86.6954 160.413 87.2715 160.605 87.8477 160.413C89.1921 160.221 89.9603 159.069 89.7683 157.724C89.5762 156.956 89.1921 156.572 88.808 156.188ZM87.8477 150.426C88.808 149.082 89.5762 147.929 90.9206 147.929C91.3047 147.929 91.6889 148.121 92.073 148.506C92.4571 148.89 92.6492 149.466 92.6492 150.042C92.6492 151.194 91.8809 152.347 90.5365 153.307L90.1524 153.691H93.4174C94.3777 152.539 94.7618 151.386 94.7618 149.85C94.7618 148.89 94.3777 147.929 93.8015 147.161C93.0333 146.393 91.8809 146.009 90.7286 146.009C88.0398 146.009 86.8874 147.737 85.7351 149.466C84.9668 150.618 84.3907 151.77 83.2383 151.77C82.8542 151.77 82.4701 151.578 82.278 151.386C81.8939 151.002 81.7019 150.426 81.7019 149.85C81.7019 148.89 82.278 147.737 83.2383 146.969L83.6224 146.777H80.7416C79.9733 147.737 79.5892 148.698 79.5892 149.85C79.5892 151.194 79.9733 152.155 80.7416 152.923C81.5098 153.691 82.4701 154.075 83.6224 154.075C85.543 153.691 86.6954 151.963 87.8477 150.426V150.426ZM86.8874 144.088C89.0001 144.664 91.1127 144.28 92.8412 143.32C94.3777 142.36 95.53 140.823 95.9141 138.903C96.2982 136.982 96.1062 135.061 95.1459 133.525C94.1856 131.796 92.265 130.452 90.1524 130.068C85.9271 128.916 81.8939 131.22 80.9336 135.254C80.7416 135.83 80.7416 136.406 80.7416 136.982C80.7416 138.326 81.1257 139.479 81.7019 140.439C83.0463 142.36 84.7748 143.704 86.8874 144.088V144.088ZM83.4304 135.83C83.8145 134.485 84.5827 133.525 85.543 132.757C86.6954 131.989 88.2318 131.796 89.7683 132.181C91.3047 132.565 92.6491 133.525 93.2253 134.677C93.8015 135.83 93.9936 136.982 93.8015 138.326C93.0333 141.015 90.3445 142.552 87.2715 141.783C84.3907 141.207 82.6622 138.711 83.4304 135.83" fill="black"/>
<path d="M211.341 150.426C211.341 131.988 204.235 114.703 191.175 101.643C189.638 100.107 188.102 98.7624 186.373 97.226V94.5372C189.062 94.3451 191.367 92.0404 191.367 89.3516C191.367 86.4708 189.062 84.1661 186.181 84.1661H185.797L190.791 81.8614L188.87 77.6361L196.36 60.1589L193.095 58.8145L185.413 76.6758L181.38 78.5964L184.069 84.3581H100.716L103.404 78.5964L99.1791 76.6758L91.4968 58.8145L88.2318 60.1589L95.7221 77.6361L93.8015 81.8614L98.795 84.1661H98.6029C95.7221 84.1661 93.4174 86.4708 93.4174 89.3516C93.4174 92.0404 95.53 94.3451 98.2188 94.5372V97.226C96.6824 98.5704 94.9539 100.107 93.4174 101.643C80.3575 114.703 73.2513 131.988 73.2513 150.426C73.2513 164.638 77.4766 178.274 85.7351 189.99C93.8015 201.321 104.749 209.964 117.809 214.765C117.809 214.765 118.577 214.957 119.729 215.533C119.921 217.454 121.074 219.183 122.802 219.759C124.723 220.527 126.835 219.759 127.988 218.414H128.18V238.004C128.18 245.302 134.326 251.064 142.008 251.064C149.69 251.064 155.836 245.11 155.836 238.004V224.944L189.638 208.811C190.791 208.427 191.751 207.851 192.711 207.083C195.4 204.586 195.784 200.745 194.056 195.752C197.129 192.295 199.817 188.645 201.93 184.612C208.076 174.241 211.341 162.526 211.341 150.426ZM175.426 87.431L185.413 89.5437L175.426 91.6563V87.431ZM143.352 192.295V140.439H182.916V150.234C182.916 159.837 181.188 166.367 178.691 171.168C176.578 174.625 174.082 177.89 171.009 180.771L170.432 181.347C163.134 188.261 153.339 192.102 143.352 192.295V192.295ZM155.26 194.023C154.492 195.752 153.916 197.672 153.531 199.785C149.69 198.44 146.041 197.096 142.392 195.752C146.809 195.944 151.227 195.175 155.26 194.023ZM143.352 138.71V94.7292H182.916V138.71H143.352ZM157.181 87.431L167.168 89.5437L157.181 91.6563V87.431ZM138.743 87.431L148.73 89.5437L138.743 91.6563V87.431ZM120.113 87.431L130.1 89.5437L120.113 91.6563V87.431ZM102.06 87.431L112.047 89.5437L102.06 91.6563V87.431ZM102.06 129.3V94.7292H141.624V138.71H102.06V129.3ZM102.06 140.439H141.624V192.295C133.557 192.102 125.683 189.606 118.961 184.996C118.769 184.804 118.385 184.612 118.193 184.42L118.001 184.228C117.809 184.036 117.617 184.036 117.425 183.844C117.233 183.652 117.04 183.46 116.848 183.46L116.656 183.268C112.431 180.003 108.782 175.778 106.093 170.976C103.596 166.175 102.06 159.645 102.06 150.234V140.439ZM120.882 212.268C120.305 212.076 119.729 211.884 119.345 211.692C107.053 207.083 96.4903 198.824 89.0001 188.069C81.3178 177.122 77.0925 164.062 77.0925 150.426C77.0925 132.949 83.8145 116.624 96.2983 104.14C97.0665 103.372 97.8347 102.604 98.6029 102.027V119.889C95.9141 117.968 92.8412 116.048 92.6492 115.856C92.8412 115.664 95.1459 112.014 95.1459 112.014L93.2253 110.862V111.054L87.0795 120.273L89.0001 121.425C89.0001 121.425 91.3048 117.968 91.4968 117.584C91.6889 117.776 95.7221 120.273 98.6029 122.386V128.723L85.9271 122.962V123.154L84.9669 125.074L98.6029 131.412V139.095C97.6427 142.744 97.0665 146.585 97.0665 150.618C97.0665 158.876 99.3712 166.559 103.212 173.281C105.709 178.082 108.974 181.347 112.047 184.228C113.391 185.38 114.736 186.533 116.272 187.685C116.464 187.685 116.464 187.877 116.656 187.877C116.848 188.069 117.04 188.069 117.233 188.261C117.425 188.453 117.617 188.453 117.809 188.645L118.001 188.837C119.153 189.606 120.305 190.374 121.65 190.95C123.378 191.718 125.683 192.871 128.372 194.023L125.491 201.129L124.147 200.553C123.378 200.169 122.418 200.553 122.034 201.321C121.65 202.089 122.034 203.05 122.802 203.434L124.147 204.01L120.882 212.268ZM152.763 238.196C152.763 239.541 152.379 240.885 151.803 242.037C151.227 242.998 150.266 243.574 149.306 243.574C147.962 243.574 146.809 242.806 146.425 241.461C146.425 241.269 146.233 240.693 146.041 239.733C146.425 239.925 146.809 239.925 147.194 239.925C148.922 239.925 150.266 238.58 150.266 237.044C150.266 235.315 148.922 234.163 147.194 234.163C146.233 234.163 145.465 234.547 144.889 235.123C143.929 231.282 142.968 227.057 142.968 227.057H141.624C141.624 227.057 140.664 231.282 139.703 235.123C139.127 234.547 138.359 234.163 137.591 234.163C135.862 234.163 134.71 235.507 134.71 237.044C134.71 238.772 136.054 239.925 137.591 239.925C137.975 239.925 138.359 239.925 138.743 239.733C138.551 240.501 138.359 241.269 138.359 241.461C137.975 242.614 136.822 243.574 135.478 243.574C134.326 243.574 133.365 242.998 132.789 242.037C132.213 240.885 132.021 239.541 132.021 238.196V219.759C138.167 221.679 145.849 223.984 152.955 225.52L152.763 238.196ZM154.3 222.063C143.544 219.759 131.061 215.726 123.762 213.229C124.531 211.5 125.683 208.427 127.027 205.162L128.948 205.931V206.315C128.948 209.004 131.253 211.308 133.942 211.308C136.63 211.308 138.935 209.004 138.935 206.315C138.935 203.626 136.63 201.321 133.942 201.321C132.405 201.321 131.253 201.897 130.292 203.05L128.18 202.089C129.332 199.209 130.292 196.52 131.061 194.983C138.359 198.056 147.77 201.705 156.796 204.586C166.399 207.467 174.082 209.196 179.843 209.772C169.664 214.765 155.068 221.679 154.3 222.063V222.063ZM190.599 204.394C189.638 205.354 187.334 206.315 182.532 206.315C185.797 204.01 188.678 201.513 191.367 198.632C192.135 201.321 191.943 203.242 190.599 204.394V204.394ZM176.962 205.931C172.353 205.354 166.015 203.818 157.757 201.321C157.373 201.129 156.988 201.129 156.604 200.937C157.373 196.136 158.909 193.063 161.598 191.526C165.823 189.606 169.664 186.917 173.121 183.652C176.194 180.963 179.267 177.698 181.572 173.089C185.413 166.367 187.718 158.492 187.718 150.234C187.718 146.393 187.142 142.36 186.181 138.71V131.412L188.294 136.79L190.406 136.022C190.406 136.022 188.294 130.836 188.294 130.644C188.678 130.452 200.201 125.843 200.201 125.843L199.433 123.73H199.241L186.373 128.915V127.955L195.016 115.664L194.248 114.319H194.056L186.373 116.048V101.643C187.142 102.412 187.91 102.988 188.678 103.756C200.97 116.048 207.884 132.565 207.884 150.042C207.884 161.373 205.003 172.705 199.241 182.5C193.864 192.294 186.181 200.169 176.962 205.931V205.931ZM187.142 123.538L186.373 124.69V122.386L187.142 123.538V123.538ZM186.565 118.544C186.949 118.544 190.791 117.584 191.367 117.392C190.983 117.968 188.678 121.233 188.486 121.425C188.294 121.233 186.757 118.928 186.565 118.544Z" fill="black"/>
<path d="M193.864 39.8009C191.175 35.7677 186.757 34.0392 183.492 34.0392C178.883 34.0392 174.082 35.9597 169.472 37.8803C164.287 39.9929 158.909 42.1056 153.531 41.7215C154.108 39.8009 154.876 37.8803 155.836 36.3438L152.571 34.8074C153.147 33.655 153.724 32.3106 153.916 30.7742C153.531 30.5821 149.114 29.0457 142.008 29.0457C134.902 29.0457 130.869 30.5821 130.485 30.7742C130.677 32.3106 131.061 33.655 131.829 34.8074L128.564 36.3438C129.524 37.8803 130.293 39.8009 130.869 41.7215C125.491 42.2976 120.113 39.9929 114.928 37.8803C110.319 35.9597 105.517 34.0392 100.908 34.0392C97.6427 34.0392 93.2254 35.7677 90.5366 39.8009C88.4239 43.0659 86.6954 49.2117 91.3048 59.0066V58.8146L98.0268 55.9337L98.4109 57.0861C96.2983 58.0464 94.1857 60.5431 96.6824 66.3048C102.444 63.8081 102.636 60.5431 101.676 58.4305L102.828 58.0464L105.709 64.5763L108.59 71.1063L107.438 71.4904C106.477 69.3778 103.981 67.2651 98.2189 69.7619C100.716 75.5236 105.133 77.8283 108.59 77.8283C114.544 77.8283 118.769 74.1792 118.193 70.5301C117.809 67.8413 115.312 66.881 114.352 67.0731C113.199 67.2651 112.431 68.6095 112.623 69.3778C112.623 69.5698 112.815 69.7619 112.815 69.9539L112.623 70.146C111.087 69.9539 109.742 68.8016 109.358 67.2651C108.974 65.3445 110.319 63.424 112.239 63.0399C113.391 62.8478 114.544 63.2319 115.504 64.0001L115.888 63.424C114.736 62.8478 113.968 61.8875 113.776 60.5431C113.199 57.4702 116.656 54.3973 116.848 54.3973C116.848 54.3973 121.266 55.9337 121.842 59.0066C122.034 60.351 121.65 61.5034 120.882 62.4637L121.458 62.8478C121.842 61.8875 122.802 60.9272 124.147 60.7352C126.067 60.351 127.988 61.6954 128.372 63.616C128.756 65.1525 127.796 66.881 126.451 67.4572L126.259 67.2651V66.689C126.067 65.7287 124.915 64.9604 123.763 65.1525C122.802 65.3445 120.882 67.0731 121.458 69.7619C122.418 74.3713 126.259 77.6362 130.869 77.6362C135.478 77.6362 140.472 73.7951 140.472 68.0333C133.75 68.0333 132.213 71.1063 132.213 73.7951H130.869V58.4305H132.213C132.213 60.9272 133.942 64.1922 140.472 64.1922C140.472 57.4702 137.399 55.9337 134.71 55.9337V54.5893H149.882V55.9337C147.386 55.9337 144.121 57.6622 144.121 64.1922C150.843 64.1922 152.379 61.1193 152.379 58.4305H153.724V73.7951H152.763C152.763 71.2983 151.035 68.0333 144.505 68.0333C144.505 73.7951 149.306 77.6362 154.108 77.6362C158.717 77.6362 162.75 74.3713 163.518 69.7619C164.095 67.0731 162.174 65.1525 161.214 65.1525C160.061 64.9604 158.909 65.7287 158.717 66.689V67.2651L158.525 67.4572C157.181 66.6889 156.22 65.1525 156.604 63.616C156.989 61.6954 158.909 60.351 160.83 60.7352C161.982 60.9272 162.942 61.6955 163.518 62.8478L164.095 62.4637C163.326 61.5034 162.942 60.351 163.134 59.0066C163.711 55.9337 168.128 54.3973 168.128 54.3973C168.128 54.3973 171.777 57.4702 171.201 60.5431C171.009 61.8875 170.048 62.8478 169.088 63.424L169.472 64.0001C170.24 63.2319 171.393 62.8478 172.737 63.0399C174.658 63.424 176.002 65.3445 175.618 67.2651C175.234 68.9936 173.89 70.146 172.353 70.146L172.161 69.9539C172.353 69.7619 172.353 69.5698 172.353 69.3778C172.545 68.4175 171.777 67.2651 170.625 67.0731C169.664 66.881 167.168 67.8413 166.783 70.5301C166.207 74.1792 170.625 77.8283 176.386 77.8283C179.843 77.8283 184.261 75.5236 186.757 69.7619C180.996 67.2651 178.499 69.3778 177.539 71.4904L176.386 71.1063L179.267 64.5763L182.148 58.0464L183.3 58.4305C182.34 60.5431 182.532 63.8081 188.294 66.3048C190.791 60.5431 188.678 58.0464 186.565 57.0861L186.949 55.9337L193.672 58.8146V59.0066C197.705 49.0196 195.976 43.0659 193.864 39.8009V39.8009ZM132.213 48.2514C128.948 48.2514 126.259 49.9799 124.723 52.6687C122.994 49.5958 119.153 47.6752 115.504 48.4435C112.815 49.0196 110.511 50.9402 109.55 53.2449C108.014 50.7482 105.325 49.2117 102.252 49.2117C98.4109 49.2117 95.146 51.7085 93.9936 55.1655C91.881 49.5958 91.881 44.9864 93.9936 41.7215C96.1062 38.4565 99.7553 37.4962 101.292 37.4962C105.325 37.4962 109.55 39.2247 113.968 40.9532C119.729 43.2579 125.683 45.7547 132.213 44.7944C132.405 45.9467 132.597 46.907 132.789 48.0594C132.597 48.2514 132.405 48.2514 132.213 48.2514V48.2514ZM142.392 30.3901C144.121 30.3901 145.657 31.7345 145.849 33.463C144.889 32.6947 143.737 32.1186 142.392 32.1186C141.048 32.1186 139.895 32.6947 138.935 33.463C139.127 31.7345 140.664 30.3901 142.392 30.3901ZM142.392 33.655C144.121 33.655 145.657 34.9994 145.849 36.728C144.889 35.9597 143.737 35.3836 142.392 35.3836C141.048 35.3836 139.895 35.9597 138.935 36.728C139.127 34.9994 140.664 33.655 142.392 33.655ZM142.392 53.0529C140.472 53.0529 138.935 51.5164 138.935 49.5958C138.935 47.6752 140.472 46.1388 142.392 46.1388C144.313 46.1388 145.849 47.6752 145.849 49.5958C145.849 51.5164 144.313 53.0529 142.392 53.0529ZM145.657 45.5626C144.697 44.7944 143.544 44.4103 142.392 44.4103C141.048 44.4103 140.087 44.7944 139.127 45.5626C138.935 45.1785 138.935 44.7944 138.935 44.4103C138.935 42.4897 140.472 40.9532 142.392 40.9532C144.313 40.9532 145.849 42.4897 145.849 44.4103C145.849 44.7944 145.849 45.1785 145.657 45.5626ZM145.849 40.7612C144.889 39.9929 143.737 39.4168 142.392 39.4168C141.048 39.4168 139.895 39.9929 138.935 40.7612V40.5691C138.935 38.6485 140.472 37.1121 142.392 37.1121C144.313 37.1121 145.849 38.6485 145.849 40.5691V40.7612ZM190.791 55.1655C189.638 51.7085 186.373 49.2117 182.532 49.2117C179.459 49.2117 176.77 50.7482 175.234 53.2449C174.082 50.9402 171.969 49.0196 169.28 48.4435C165.439 47.6752 161.79 49.4038 160.061 52.6687C158.525 50.172 155.836 48.2514 152.571 48.2514H151.995C152.187 47.2911 152.379 46.1388 152.571 44.9864C159.101 45.9467 165.055 43.45 170.817 41.1453C175.234 39.4168 179.459 37.6882 183.492 37.6882C185.029 37.6882 188.678 38.6485 190.791 41.9135C192.903 44.9864 192.903 49.5958 190.791 55.1655ZM161.598 97.2261L162.366 98.7626H163.134L162.942 99.3387L163.134 98.9546H163.326L163.518 98.7626L164.287 97.2261H162.942H161.598ZM147.002 98.5705L146.809 98.7626V99.3387L145.465 99.1467V98.1864L144.505 96.4579L144.697 96.2658L146.425 97.2261H147.386V98.5705L147.002 98.3785" fill="black"/>
<path d="M147.962 98.1864C147.77 98.1864 147.578 97.9944 147.578 97.8023C147.578 97.6103 147.77 97.4182 147.962 97.4182C148.154 97.4182 148.154 97.4182 148.346 97.6103H148.538V97.2262C148.538 96.65 148.154 96.2659 147.578 96.2659C147.001 96.2659 146.617 96.65 146.617 97.2262C146.617 97.8023 147.001 98.1864 147.578 98.1864H147.962V98.1864ZM146.425 99.7229C146.425 99.5308 146.233 99.3388 146.041 99.3388C145.849 99.3388 145.657 99.5308 145.657 99.7229C145.657 99.915 145.657 99.915 145.849 100.107V100.299H145.465C144.889 100.299 144.505 99.915 144.505 99.3388C144.505 98.7626 144.889 98.3785 145.465 98.3785C146.041 98.3785 146.425 98.7626 146.425 99.3388V99.7229V99.7229ZM147.001 135.254L146.809 135.062V134.485L145.465 134.677V135.446L144.505 137.174L144.697 137.558L146.425 136.406H147.386V135.062L147.001 135.254" fill="black"/>
<path d="M147.962 135.445C147.77 135.445 147.578 135.638 147.578 135.83C147.578 136.022 147.77 136.214 147.962 136.214C148.154 136.214 148.154 136.214 148.346 136.022H148.538V136.406C148.538 136.982 148.154 137.366 147.578 137.366C147.001 137.366 146.617 136.982 146.617 136.406C146.617 135.83 147.001 135.445 147.578 135.445H147.962V135.445ZM146.425 134.101C146.425 134.293 146.233 134.485 146.041 134.485C145.849 134.485 145.657 134.293 145.657 134.101C145.657 133.909 145.657 133.909 145.849 133.717V133.525H145.465C144.889 133.525 144.505 133.909 144.505 134.485C144.505 135.061 144.889 135.445 145.465 135.445C146.041 135.445 146.425 135.061 146.425 134.485V134.101V134.101ZM178.883 135.253L179.075 135.061V134.485L180.419 134.677V135.445L181.38 137.174L181.188 137.558L179.459 136.406H178.499V135.061L178.883 135.253" fill="black"/>
<path d="M177.923 135.446C178.115 135.446 178.307 135.638 178.307 135.83C178.307 136.022 178.115 136.214 177.923 136.214C177.731 136.214 177.731 136.214 177.539 136.022H177.347V136.406C177.347 136.982 177.731 137.366 178.307 137.366C178.883 137.366 179.267 136.982 179.267 136.406C179.267 135.83 178.883 135.446 178.307 135.446H177.923V135.446ZM179.459 134.101C179.459 134.293 179.651 134.485 179.843 134.485C180.035 134.485 180.228 134.293 180.228 134.101C180.228 133.909 180.228 133.909 180.035 133.717V133.525H180.42C180.996 133.525 181.38 133.909 181.38 134.485C181.38 135.062 180.996 135.446 180.42 135.446C179.843 135.446 179.459 135.062 179.459 134.485V134.101V134.101ZM178.883 98.5706L179.075 98.7626V99.3388L180.42 99.1467V98.1864L181.38 96.4579L181.188 96.2659L179.459 97.2262H178.499V98.5706L178.883 98.3785" fill="black"/>
<path d="M177.923 98.1864C178.115 98.1864 178.307 97.9944 178.307 97.8023C178.307 97.6103 178.115 97.4182 177.923 97.4182C177.731 97.4182 177.731 97.4182 177.539 97.6103H177.347V97.2262C177.347 96.65 177.731 96.2659 178.307 96.2659C178.883 96.2659 179.267 96.65 179.267 97.2262C179.267 97.8023 178.883 98.1864 178.307 98.1864H177.923V98.1864ZM179.459 99.7229C179.459 99.5308 179.651 99.3388 179.843 99.3388C180.035 99.3388 180.227 99.5308 180.227 99.7229C180.227 99.915 180.227 99.915 180.035 100.107V100.299H180.419C180.996 100.299 181.38 99.915 181.38 99.3388C181.38 98.7626 180.996 98.3785 180.419 98.3785C179.843 98.3785 179.459 98.7626 179.459 99.3388V99.7229ZM161.406 100.875H164.287V102.028H161.406V100.875ZM162.174 102.22H163.71L163.134 103.372H162.75L162.174 102.22Z" fill="black"/>
<path d="M165.055 102.028L164.863 102.22C164.671 102.22 164.479 102.028 164.479 101.836C164.479 101.643 164.671 101.451 164.863 101.451H164.479C164.095 101.451 163.711 101.836 163.711 102.22C163.711 102.604 164.095 102.988 164.479 102.988C164.863 102.988 165.247 102.604 165.247 102.22C165.055 102.22 165.055 102.22 165.055 102.028V102.028ZM160.83 102.028L161.022 102.22C161.214 102.22 161.406 102.028 161.406 101.836C161.406 101.643 161.214 101.451 161.022 101.451H161.406C161.79 101.451 162.174 101.836 162.174 102.22C162.174 102.604 161.79 102.988 161.406 102.988C161.022 102.988 160.638 102.604 160.638 102.22C160.83 102.22 160.83 102.22 160.83 102.028V102.028ZM164.287 136.598L163.519 135.061L162.942 134.869H162.75L163.134 134.485L162.75 134.869H162.558L162.366 135.061L161.598 136.598H162.942H164.287ZM161.598 131.412H164.479V132.565H161.598V131.412Z" fill="black"/>
<path d="M163.711 131.604H162.174L162.75 130.26H163.134L163.711 131.604ZM160.83 131.796L161.022 131.604C161.214 131.604 161.406 131.796 161.406 131.988C161.406 132.18 161.214 132.373 161.022 132.373H161.406C161.79 132.373 162.174 131.988 162.174 131.604C162.174 131.22 161.79 130.836 161.406 130.836C161.022 130.836 160.638 131.22 160.638 131.604C160.83 131.604 160.83 131.604 160.83 131.796V131.796ZM165.055 131.796L164.863 131.604C164.671 131.604 164.479 131.796 164.479 131.988C164.479 132.18 164.671 132.373 164.863 132.373H164.479C164.095 132.373 163.711 131.988 163.711 131.604C163.711 131.22 164.095 130.836 164.479 130.836C164.863 130.836 165.247 131.22 165.247 131.604C165.055 131.604 165.055 131.604 165.055 131.796V131.796ZM180.42 115.471L178.883 116.24V117.008L178.499 116.816L178.883 117.2H178.691L178.883 117.392L180.42 118.16V116.816V115.471ZM175.426 115.471H176.578V118.352H175.426V115.471ZM175.426 116.048V117.584L174.274 117.008V116.624L175.426 116.048ZM176.194 118.736V118.544V118.736Z" fill="black"/>
<path d="M175.81 118.929L175.618 118.737C175.618 118.545 175.81 118.352 176.002 118.352C176.194 118.352 176.386 118.545 176.386 118.737V118.352C176.386 117.968 176.002 117.584 175.618 117.584C175.234 117.584 174.85 117.968 174.85 118.352C174.85 118.737 175.234 119.121 175.618 119.121L175.81 118.929V118.929ZM175.81 114.895L175.618 115.087C175.618 115.28 175.81 115.472 176.002 115.472C176.194 115.472 176.386 115.28 176.386 115.087V115.472C176.386 115.856 176.002 116.24 175.618 116.24C175.234 116.24 174.85 115.856 174.85 115.472C174.85 115.087 175.234 114.703 175.618 114.703L175.81 114.895V114.895ZM145.465 115.472L147.002 116.24V117.008L147.386 116.816L147.002 117.2H147.194L147.002 117.392L145.465 118.16V116.816V115.472ZM149.114 115.472H150.267V118.352H149.114V115.472ZM150.459 116.048V117.584L151.611 117.008V116.624L150.459 116.048ZM149.69 118.737V118.545V118.737Z" fill="black"/>
<path d="M150.266 118.929L150.459 118.737C150.459 118.545 150.266 118.352 150.074 118.352C149.882 118.352 149.69 118.545 149.69 118.737V118.352C149.69 117.968 150.074 117.584 150.459 117.584C150.843 117.584 151.227 117.968 151.227 118.352C151.227 118.737 150.843 119.121 150.459 119.121C150.459 119.121 150.266 119.121 150.266 118.929V118.929ZM150.266 114.895L150.459 115.087C150.459 115.28 150.266 115.472 150.074 115.472C149.882 115.472 149.69 115.28 149.69 115.087V115.472C149.69 115.856 150.074 116.24 150.459 116.24C150.843 116.24 151.227 115.856 151.227 115.472C151.227 115.087 150.843 114.703 150.459 114.703C150.459 114.703 150.266 114.703 150.266 114.895V114.895ZM94.3777 279.681V327.887H153.531V279.681H168.512V391.842H153.531V340.563H94.3777V391.842H79.3972V279.681H94.3777ZM186.949 334.609C188.678 329.424 191.175 325.006 194.44 321.165C197.705 317.324 201.93 314.251 206.923 312.139C211.917 310.026 217.487 308.874 223.825 308.874C230.355 308.874 235.924 310.026 240.918 312.139C245.719 314.251 249.944 317.324 253.209 321.165C256.474 325.006 259.163 329.424 260.7 334.609C262.428 339.795 263.196 345.365 263.196 351.318C263.196 357.272 262.428 362.842 260.7 368.027C258.971 373.213 256.474 377.63 253.209 381.471C249.944 385.313 245.719 388.193 240.918 390.498C236.116 392.611 230.355 393.763 223.825 393.763C217.487 393.763 211.725 392.611 206.923 390.498C201.93 388.385 197.897 385.313 194.44 381.471C191.175 377.63 188.486 373.213 186.949 368.027C185.221 362.842 184.453 357.272 184.453 351.318C184.453 345.365 185.221 339.795 186.949 334.609V334.609ZM200.586 364.378C201.93 368.219 203.659 371.484 205.963 373.981C208.268 376.478 210.957 378.591 214.03 379.935C217.103 381.279 220.368 382.048 223.825 382.048C227.282 382.048 230.547 381.279 233.619 379.935C236.692 378.591 239.381 376.67 241.686 373.981C243.991 371.484 245.719 368.219 247.064 364.378C248.408 360.537 248.984 356.12 248.984 351.318C248.984 346.325 248.408 342.1 247.064 338.258C245.719 334.417 243.991 331.152 241.686 328.656C239.381 325.967 236.692 324.046 233.619 322.702C230.547 321.357 227.282 320.589 223.825 320.589C220.368 320.589 217.103 321.357 214.03 322.702C210.957 324.046 208.268 325.967 205.963 328.656C203.659 331.344 201.93 334.417 200.586 338.258C199.241 342.1 198.665 346.517 198.665 351.318C198.665 356.12 199.241 360.537 200.586 364.378ZM289.7 310.602V322.51H290.084C296.23 313.291 304.873 308.682 316.396 308.682C321.39 308.682 325.999 309.642 330.032 311.754C334.066 313.867 336.946 317.324 338.675 322.51C341.364 318.092 345.013 314.635 349.43 312.331C353.848 309.834 358.841 308.682 364.027 308.682C368.06 308.682 371.709 309.066 375.166 310.026C378.431 310.986 381.312 312.331 383.616 314.251C385.921 316.172 387.842 318.477 389.186 321.549C390.531 324.622 391.107 328.079 391.107 332.305V391.842H377.663V338.643C377.663 336.146 377.471 333.841 377.087 331.536C376.702 329.424 375.934 327.503 374.782 325.775C373.629 324.238 372.093 322.894 369.98 321.934C367.868 320.973 365.371 320.589 362.106 320.589C355.576 320.589 350.391 322.51 346.549 326.159C342.708 329.808 340.98 334.993 340.98 341.331V391.842H327.536V338.643C327.536 335.954 327.344 333.649 326.767 331.344C326.383 329.232 325.423 327.311 324.271 325.583C323.118 324.046 321.582 322.702 319.661 321.741C317.741 320.781 315.244 320.397 312.171 320.397C308.33 320.397 305.065 321.165 302.184 322.702C299.495 324.238 297.191 326.159 295.462 328.271C293.734 330.384 292.389 332.689 291.621 335.185C290.853 337.49 290.469 339.411 290.469 341.139V391.65H277.025V310.602H289.7ZM466.777 386.657C460.632 391.266 453.141 393.571 443.923 393.571C437.393 393.571 431.823 392.611 427.022 390.498C422.22 388.385 418.187 385.505 414.922 381.663C411.657 377.822 409.16 373.405 407.624 368.219C406.087 363.034 405.127 357.272 404.935 351.126C404.935 344.98 405.895 339.219 407.816 334.225C409.736 329.04 412.425 324.622 415.69 320.781C419.147 316.94 423.18 314.059 427.79 311.947C432.399 309.834 437.585 308.874 443.154 308.874C450.453 308.874 456.406 310.41 461.208 313.291C466.009 316.364 469.85 320.013 472.731 324.622C475.612 329.232 477.533 334.225 478.685 339.795C479.837 345.173 480.221 350.358 480.029 355.352H419.147C418.955 359.001 419.531 362.266 420.492 365.531C421.452 368.796 422.988 371.484 425.101 373.981C427.214 376.478 429.902 378.398 433.167 379.935C436.432 381.471 440.274 382.048 444.691 382.048C450.261 382.048 455.062 380.703 458.519 378.206C462.168 375.518 464.473 371.676 465.625 366.299H478.877C476.764 375.133 472.731 382.048 466.777 386.657V386.657ZM463.512 334.417C462.36 331.536 460.632 329.232 458.711 327.119C456.598 325.006 454.294 323.47 451.413 322.318C448.724 321.165 445.651 320.589 442.194 320.589C438.737 320.589 435.664 321.165 432.783 322.318C430.094 323.47 427.598 325.199 425.677 327.311C423.757 329.424 422.028 331.921 420.876 334.609C419.723 337.298 418.955 340.371 418.763 343.444H465.433C465.433 340.371 464.665 337.298 463.512 334.417ZM532.845 313.675C535.15 306.569 538.415 300.423 543.024 294.853C547.442 289.476 553.203 285.058 559.925 281.793C566.647 278.528 574.522 276.992 583.356 276.992C592.191 276.992 600.065 278.528 606.787 281.793C613.509 285.058 619.079 289.476 623.689 294.853C628.106 300.231 631.563 306.569 633.868 313.675C636.172 320.781 637.325 328.079 637.325 335.762C637.325 343.444 636.172 350.742 633.868 357.848C631.563 364.954 628.298 371.1 623.689 376.67C619.271 382.048 613.509 386.465 606.787 389.538C600.065 392.803 592.191 394.339 583.356 394.339C574.522 394.339 566.647 392.803 559.925 389.538C553.203 386.273 547.634 382.048 543.024 376.67C538.607 371.292 535.15 364.954 532.845 357.848C530.541 350.742 529.388 343.444 529.388 335.762C529.388 328.079 530.541 320.781 532.845 313.675ZM546.481 352.471C548.018 358.04 550.322 362.842 553.395 367.259C556.468 371.676 560.502 375.133 565.495 377.822C570.489 380.511 576.25 381.856 583.164 381.856C589.886 381.856 595.84 380.511 600.834 377.822C605.827 375.133 609.86 371.676 612.933 367.259C616.006 362.842 618.311 357.848 619.847 352.471C621.384 346.901 621.96 341.331 621.96 335.762C621.96 330.192 621.192 324.622 619.847 319.053C618.311 313.483 616.006 308.682 612.933 304.264C609.86 299.847 605.827 296.39 600.834 293.701C595.84 291.012 590.078 289.668 583.164 289.668C576.442 289.668 570.489 291.012 565.495 293.701C560.502 296.39 556.468 299.847 553.395 304.264C550.322 308.682 548.018 313.675 546.481 319.053C544.945 324.622 544.369 330.192 544.369 335.762C544.369 341.331 545.137 346.901 546.481 352.471ZM642.894 322.318V310.602H656.53V298.503C656.53 291.973 658.451 286.979 662.292 283.522C666.133 280.065 671.703 278.336 679.001 278.336C680.345 278.336 681.69 278.529 683.226 278.721C684.763 278.913 686.299 279.297 687.452 279.681V291.396C686.299 291.012 684.955 290.628 683.611 290.628C682.266 290.436 680.922 290.436 679.769 290.436C676.504 290.436 674.008 291.012 672.279 292.357C670.551 293.701 669.59 296.006 669.59 299.655V310.986H685.339V322.702H669.59V392.227H656.146V322.702H642.894V322.318Z" fill="black"/>
<path d="M684.571 322.318V310.602H698.207V298.502C698.207 291.973 700.127 286.979 703.969 283.522C707.81 280.065 713.379 278.336 720.678 278.336C722.022 278.336 723.366 278.528 724.903 278.721C726.439 278.913 727.976 279.297 729.128 279.681V291.396C727.976 291.012 726.631 290.628 725.287 290.628C723.943 290.436 722.598 290.436 721.446 290.436C718.181 290.436 715.684 291.012 713.956 292.357C712.227 293.701 711.267 296.006 711.267 299.655V310.986H727.015V322.702H711.651V392.227H698.207V322.702H684.571V322.318ZM738.155 296.006V279.681H751.599V296.006H738.155ZM751.599 310.602V391.842H738.155V310.602H751.599ZM818.819 324.814C815.554 321.933 810.945 320.589 805.375 320.589C800.574 320.589 796.54 321.549 793.275 323.278C790.01 325.006 787.514 327.503 785.593 330.384C783.672 333.265 782.328 336.722 781.368 340.563C780.6 344.404 780.023 348.245 780.023 352.471C780.023 356.312 780.408 359.961 781.368 363.418C782.328 367.067 783.672 370.14 785.593 372.829C787.514 375.518 790.01 377.822 792.891 379.551C795.964 381.279 799.613 382.048 803.647 382.048C810.176 382.048 815.362 380.319 819.203 376.862C822.852 373.405 825.157 368.604 826.117 362.266H839.753C838.217 372.253 834.568 380.127 828.614 385.505C822.66 390.882 814.402 393.763 804.031 393.763C797.885 393.763 792.315 392.803 787.706 390.69C782.904 388.77 778.871 385.889 775.798 382.24C772.533 378.59 770.228 374.173 768.5 369.18C766.963 364.186 766.003 358.616 766.003 352.471C766.003 346.325 766.771 340.755 768.308 335.378C769.844 330 772.341 325.391 775.414 321.549C778.679 317.708 782.52 314.443 787.514 312.331C792.315 310.026 797.885 308.874 804.415 308.874C809.024 308.874 813.249 309.45 817.283 310.602C821.316 311.754 824.965 313.483 828.038 315.788C831.111 318.092 833.607 320.973 835.72 324.43C837.641 327.887 838.985 332.113 839.561 336.914H825.733C824.389 331.536 822.276 327.503 818.819 324.814V324.814ZM910.239 386.657C904.093 391.266 896.602 393.571 887.384 393.571C880.854 393.571 875.284 392.611 870.483 390.498C865.681 388.385 861.648 385.505 858.383 381.663C855.118 377.822 852.621 373.405 851.085 368.219C849.548 363.034 848.588 357.272 848.396 351.126C848.396 344.98 849.356 339.219 851.277 334.225C853.197 329.04 855.886 324.622 859.151 320.781C862.608 316.94 866.641 314.059 871.251 311.947C875.86 309.834 881.046 308.874 886.615 308.874C893.914 308.874 899.867 310.41 904.669 313.291C909.47 316.364 913.311 320.013 916.192 324.622C919.073 329.232 920.994 334.225 922.146 339.795C923.298 345.172 923.683 350.358 923.49 355.352H862.608C862.416 359.001 862.992 362.266 863.953 365.531C864.913 368.796 866.449 371.484 868.562 373.981C870.675 376.478 873.363 378.398 876.628 379.935C879.893 381.471 883.735 382.048 888.152 382.048C893.722 382.048 898.523 380.703 901.98 378.206C905.629 375.518 907.934 371.676 909.086 366.299H922.338C920.225 375.133 916.384 382.048 910.239 386.657V386.657ZM907.166 334.417C906.013 331.536 904.285 329.232 902.364 327.119C900.251 325.006 897.947 323.47 895.066 322.318C892.377 321.165 889.304 320.589 885.847 320.589C882.39 320.589 879.317 321.165 876.436 322.318C873.748 323.47 871.251 325.198 869.33 327.311C867.41 329.424 865.681 331.92 864.529 334.609C863.376 337.298 862.608 340.371 862.416 343.444H909.086C909.086 340.371 908.318 337.298 907.166 334.417Z" fill="black"/>
</g>
<defs>
<clipPath id="clip0_1_25">
<rect width="924" height="394" fill="white"/>
</clipPath>
</defs>
</svg>
