<svg width="1097" height="214" viewBox="0 0 1097 214" fill="none" xmlns="http://www.w3.org/2000/svg">
<g clip-path="url(#clip0_1_60)">
<path d="M-0.548523 129.132C2.74248 122.364 6.03349 115.78 9.69016 109.378C5.48499 99.1352 2.19398 88.5267 -0.548523 77.7352V129.132ZM19.5631 -0.731445C19.5631 -0.731445 -0.548523 -0.731463 -0.548523 24.1438V37.4959C1.27981 60.1762 6.03348 82.3078 14.0781 102.976C25.231 85.2343 38.7606 69.1386 55.2156 55.0549C87.5771 27.2532 131.274 8.04804 190.695 -0.365639L19.5631 -0.731445Z" fill="#A8BD3A"/>
<path d="M213.001 12.6199C145.17 19.0216 98.73 38.4097 65.6371 66.7601C47.7195 82.1242 33.8241 99.8661 22.1228 120.169C48.0851 170.651 97.8158 207.964 180.639 213.268H188.684C188.684 213.268 214.098 214.182 214.098 185.832V12.437L213.001 12.6199ZM38.5778 156.567C30.8988 147.605 23.9511 137.545 18.2833 127.119C11.1528 141.02 4.75364 155.652 -0.548523 171.382V213.268L135.114 213.451C92.8793 203.208 61.2491 183.088 38.5778 156.567Z" fill="#003D59"/>
<path d="M296.007 94.9282C275.164 94.9282 266.022 77.7351 266.022 56.518C266.022 35.4838 275.164 18.1077 296.007 18.1077C316.85 18.1077 325.992 35.6667 325.992 56.518C325.992 77.7351 316.667 94.9282 296.007 94.9282ZM296.007 24.3265C280.649 24.3265 275.164 41.1539 275.164 56.3351C275.164 71.5163 280.101 88.1607 296.007 88.1607C311.914 88.1607 316.667 71.3334 316.667 56.3351C316.667 40.971 311.365 24.3265 296.007 24.3265ZM351.771 40.6051V93.465H343.544V40.7881H334.951V35.6667H343.544V27.253C343.544 16.8274 349.76 8.9624 362.01 8.9624C362.924 8.9624 364.021 9.14532 364.021 9.14532V14.4496H363.107C357.256 14.4496 352.137 18.2906 352.137 26.1556V35.4838H364.387V40.6051H351.771ZM386.51 40.6051V93.465H378.282V40.7881H369.689V35.6667H378.282V27.253C378.282 16.8274 384.498 8.9624 396.748 8.9624C397.662 8.9624 398.759 9.14532 398.759 9.14532V14.4496H397.845C391.995 14.4496 386.875 18.2906 386.875 26.1556V35.4838H399.125V40.6051H386.51ZM412.289 24.5094C409.364 24.5094 406.987 22.3146 406.987 19.3881C406.987 16.4616 409.364 14.0838 412.289 14.0838C415.214 14.0838 417.591 16.4616 417.591 19.3881C417.591 22.3146 415.397 24.5094 412.289 24.5094ZM408.084 35.4838H416.494V93.465H408.084V35.4838ZM452.878 94.9282C439.166 94.9282 428.561 83.2222 428.561 64.5658C428.561 45.5436 439.166 34.2034 453.244 34.2034C460.191 34.2034 464.762 36.2154 467.505 38.2274L465.311 43.3487C463.482 41.8855 460.009 40.2393 455.255 40.2393C443.554 40.2393 437.337 50.2992 437.337 64.2C437.337 78.4667 444.102 88.5265 454.889 88.5265C459.277 88.5265 462.751 87.0633 465.128 85.4171L467.322 90.9043C464.945 92.9163 459.826 94.9282 452.878 94.9282ZM481.035 67.8582C482.132 81.5761 489.628 88.3436 501.512 88.3436C508.642 88.3436 514.127 86.5145 517.235 84.8684L519.612 90.7214C515.956 92.7334 509.191 94.5624 500.78 94.5624C484.508 94.5624 472.99 84.8684 472.99 64.0171C472.99 44.0804 483.594 33.8376 498.221 33.8376C513.03 33.8376 521.989 42.8 521.989 62.1881L481.035 67.8582ZM497.855 39.6906C488.531 39.6906 480.486 47.0069 480.669 63.2855L513.579 58.7129C513.579 45.1778 506.997 39.6906 497.855 39.6906ZM575.559 40.6051V93.465H567.332V40.7881H558.739V35.6667H567.332V27.253C567.332 16.8274 573.548 8.9624 585.798 8.9624C586.712 8.9624 587.809 9.14532 587.809 9.14532V14.4496H586.895C581.044 14.4496 575.925 18.2906 575.925 26.1556V35.4838H588.175V40.6051H575.559ZM618.342 94.9282C601.156 94.9282 593.477 81.5761 593.477 64.5658C593.477 47.3727 601.156 34.2034 618.342 34.2034C635.529 34.2034 643.208 47.5556 643.208 64.5658C643.208 81.759 635.529 94.9282 618.342 94.9282ZM618.342 39.8735C605.544 39.8735 602.07 52.8599 602.07 64.5658C602.07 76.6376 605.91 88.7094 618.342 88.7094C631.141 88.7094 634.797 76.4547 634.797 64.5658C634.797 52.6769 630.958 39.8735 618.342 39.8735ZM679.774 40.9709C674.472 39.5077 666.61 39.8735 662.954 42.0684V93.465H654.543V38.0445C660.577 35.4838 666.793 34.0205 677.58 34.0205H681.968C681.968 34.2035 679.774 40.9709 679.774 40.9709ZM315.022 210.708L282.295 160.043C279.918 156.202 278.089 152.544 278.089 152.544H277.907C277.907 152.544 278.272 156.75 278.272 161.323V210.708H267.668V136.814H279.735L310.817 184.369C313.559 188.576 315.205 191.868 315.205 191.868H315.387C315.387 191.868 315.022 187.662 315.022 183.272V136.631H325.809V210.525L315.022 210.708ZM361.096 212.171C344.092 212.171 336.048 205.403 336.048 194.246C336.048 178.516 352.32 174.492 371.7 172.663V169.371C371.7 161.506 366.398 159.128 358.353 159.128C352.685 159.128 346.103 160.774 342.63 162.421L339.704 155.47C343.727 153.824 351.223 151.263 360.547 151.263C373.528 151.263 383.219 156.568 383.219 171.383V208.147C378.465 210.525 370.786 212.171 361.096 212.171ZM371.883 178.699C357.439 180.162 347.932 182.906 347.932 194.063C347.932 201.745 353.417 205.221 362.193 205.221C366.215 205.221 369.689 204.306 371.883 203.209V178.699ZM417.043 211.988C404.793 211.988 400.222 204.123 400.222 196.258V160.226H392.177V152.727H400.222V139.74L412.655 136.265V152.727H423.808V160.226H412.655V195.527C412.655 200.099 415.214 203.574 420.517 203.574C421.614 203.574 422.711 203.391 423.808 203.026V210.525C422.711 211.256 420.334 211.988 417.043 211.988ZM439.714 142.85C435.875 142.85 432.584 139.923 432.584 136.448C432.584 132.973 435.875 130.046 439.714 130.046C443.554 130.046 446.845 132.973 446.845 136.448C447.027 139.923 443.736 142.85 439.714 142.85ZM433.498 152.909H446.113V210.708H433.498V152.909ZM483.046 212.171C465.311 212.171 456.535 199.002 456.535 181.809C456.535 164.615 465.311 151.263 483.046 151.263C500.78 151.263 509.374 164.615 509.374 181.809C509.557 199.185 500.78 212.171 483.046 212.171ZM483.046 159.311C472.441 159.311 469.15 170.468 469.15 181.809C469.15 193.149 472.441 203.757 483.046 203.757C493.65 203.757 496.941 193.149 496.941 181.809C496.941 170.468 493.833 159.311 483.046 159.311ZM555.448 210.708V169.188C555.448 161.872 549.231 159.128 541.918 159.128C538.078 159.128 534.422 159.86 532.045 160.774V210.708H519.612V155.47C524.914 153.092 533.691 151.263 542.649 151.263C557.825 151.263 567.88 156.385 567.88 169.188V210.891H555.448V210.708ZM602.801 212.171C585.798 212.171 577.753 205.403 577.753 194.246C577.753 178.516 594.208 174.492 613.406 172.663V169.371C613.406 161.506 608.104 159.128 600.059 159.128C594.391 159.128 587.809 160.774 584.335 162.421L581.41 155.47C585.432 153.824 592.928 151.263 602.253 151.263C615.234 151.263 624.924 156.568 624.924 171.383V208.147C620.171 210.525 612.492 212.171 602.801 212.171ZM613.589 178.699C599.145 180.162 589.637 182.906 589.637 194.063C589.637 201.745 595.123 205.221 603.899 205.221C607.921 205.221 611.395 204.306 613.589 203.209V178.699V178.699ZM637.905 210.708V126.205H650.338V210.708H637.905ZM709.028 212.171C700.252 212.171 692.938 210.159 688.916 207.964L692.39 199.002C695.315 200.648 700.8 202.477 706.651 202.477C715.244 202.477 721.46 197.538 721.46 190.039C721.46 173.761 690.744 180.162 690.744 157.116C690.744 145.41 700.252 135.168 715.244 135.168C723.106 135.168 729.688 137.362 733.162 139.374L730.053 147.422C727.311 145.776 722.375 143.947 717.072 143.947C709.211 143.947 703.725 148.703 703.725 155.653C703.725 171.566 735.173 164.615 735.173 189.125C734.99 202.477 724.02 212.171 709.028 212.171ZM766.255 211.988C754.005 211.988 749.434 204.123 749.434 196.258V160.226H741.389V152.727H749.434V139.74L761.867 136.265V152.727H773.019V160.226H761.867V195.527C761.867 200.099 764.609 203.574 769.728 203.574C770.825 203.574 771.922 203.391 773.019 203.026V210.525C771.922 211.256 769.363 211.988 766.255 211.988ZM804.832 212.171C787.829 212.171 779.784 205.403 779.784 194.246C779.784 178.516 796.239 174.492 815.437 172.663V169.371C815.437 161.506 810.135 159.128 802.09 159.128C796.422 159.128 789.84 160.774 786.366 162.421L783.441 155.47C787.463 153.824 794.959 151.263 804.284 151.263C817.265 151.263 826.955 156.568 826.955 171.383V208.147C822.384 210.525 814.34 212.171 804.832 212.171ZM815.437 178.699C800.993 180.162 791.485 182.906 791.485 194.063C791.485 201.745 796.971 205.221 805.747 205.221C809.769 205.221 813.243 204.306 815.437 203.209V178.699ZM860.779 211.988C848.529 211.988 843.959 204.123 843.959 196.258V160.226H835.914V152.727H843.959V139.74L856.391 136.265V152.727H867.544V160.226H856.391V195.527C856.391 200.099 859.134 203.574 864.253 203.574C865.35 203.574 866.447 203.391 867.544 203.026V210.525C866.264 211.256 863.887 211.988 860.779 211.988ZM883.451 142.85C879.611 142.85 876.32 139.923 876.32 136.448C876.32 132.973 879.611 130.046 883.451 130.046C887.29 130.046 890.581 132.973 890.581 136.448C890.581 139.923 887.473 142.85 883.451 142.85ZM877.234 152.909H889.85V210.708H877.234V152.909ZM916.543 212.171C909.413 212.171 902.465 210.159 898.992 207.964L902.283 200.099C904.659 201.745 909.596 203.574 915.081 203.574C921.297 203.574 926.417 199.55 926.417 194.612C926.417 180.711 901.003 187.296 901.003 168.456C901.003 159.86 908.682 151.446 921.297 151.446C928.428 151.446 933.73 153.275 937.569 155.653L934.278 162.786C932.45 161.506 928.61 159.494 923.857 159.494C917.458 159.494 913.618 163.335 913.618 167.725C913.618 180.711 939.398 174.858 939.398 194.246C939.215 203.391 930.622 212.171 916.543 212.171ZM970.845 211.988C958.595 211.988 954.024 204.123 954.024 196.258V160.226H945.98V152.727H954.024V139.74L966.457 136.265V152.727H977.61V160.226H966.457V195.527C966.457 200.099 969.017 203.574 974.319 203.574C975.416 203.574 976.513 203.391 977.61 203.026V210.525C976.513 211.256 973.953 211.988 970.845 211.988ZM993.516 142.85C989.677 142.85 986.386 139.923 986.386 136.448C986.386 132.973 989.677 130.046 993.516 130.046C997.356 130.046 1000.65 132.973 1000.65 136.448C1000.83 139.923 997.539 142.85 993.516 142.85ZM987.3 152.909H999.915V210.708H987.3V152.909ZM1035.57 212.171C1021.31 212.171 1010.52 200.648 1010.52 181.626C1010.52 162.421 1021.67 151.263 1035.75 151.263C1042.88 151.263 1048 153.275 1050.56 155.47L1047.82 162.421C1045.99 161.14 1042.88 159.677 1038.86 159.677C1028.8 159.677 1023.5 168.274 1023.5 181.443C1023.5 194.795 1029.53 203.391 1038.68 203.391C1042.52 203.391 1045.62 201.928 1047.64 200.465L1050.74 207.964C1048 210.159 1043.06 212.171 1035.57 212.171ZM1073.6 212.171C1066.47 212.171 1059.52 210.159 1056.05 207.964L1059.34 200.099C1061.71 201.745 1066.65 203.574 1072.13 203.574C1078.35 203.574 1083.47 199.55 1083.47 194.612C1083.47 180.711 1058.06 187.296 1058.06 168.456C1058.06 159.86 1065.74 151.446 1078.35 151.446C1085.48 151.446 1090.78 153.275 1094.81 155.653L1091.52 162.786C1089.69 161.506 1085.85 159.494 1081.09 159.494C1074.69 159.494 1070.85 163.335 1070.85 167.725C1070.85 180.711 1096.63 174.858 1096.63 194.246C1096.27 203.391 1087.49 212.171 1073.6 212.171Z" fill="#003D59"/>
</g>
<defs>
<clipPath id="clip0_1_60">
<rect width="1097" height="214" fill="white"/>
</clipPath>
</defs>
</svg>
