<svg xmlns="http://www.w3.org/2000/svg" viewBox="0 0 800 800" width="800" height="800" preserveAspectRatio="xMidYMid meet" style="width: 100%; height: 100%; transform: translate3d(0px, 0px, 0px); content-visibility: visible;"><defs><clipPath id="__lottie_element_1923"><rect width="800" height="800" x="0" y="0"></rect></clipPath></defs><g clip-path="url(#__lottie_element_1923)"><g transform="matrix(1.413007140159607,0.07766637206077576,-0.07766637206077576,1.413007140159607,384.24578857421875,304.2376708984375)" opacity="1" style="display: block;"><g opacity="1" transform="matrix(1,0,0,1,0,0)"><path fill="rgb(76,201,240)" fill-opacity="1" d=" M-24.443256378173828,-108.69961547851562 C-24.443256378173828,-108.69961547851562 -25.223257064819336,-108.0796127319336 -24.234256744384766,-106.27061462402344 C-17.4682559967041,-105.06661224365234 -60.205101013183594,-42.51371765136719 -51.5531005859375,-42.43171691894531 C-51.549102783203125,-42.4337158203125 -30.08429527282715,24.105907440185547 -42.64729690551758,18.60890769958496 C-39.562294006347656,20.631908416748047 -35.98029327392578,34.503910064697266 -38.08929443359375,37.05890655517578 C-29.38929557800293,37.72490692138672 -34.43329620361328,43.81190872192383 -30.572294235229492,46.964908599853516 C21.133705139160156,47.9569091796875 147.9940948486328,40.649513244628906 177.10609436035156,41.018516540527344 C178.13809204101562,41.08651351928711 179.9600830078125,40.96915817260742 180.41009521484375,41.002159118652344 C179.9880828857422,41.009159088134766 179.5140838623047,36.72251510620117 178.08409118652344,31.52251434326172 C175.23709106445312,14.33851432800293 205.16143798828125,-30.23699951171875 196.7924346923828,-42.80799865722656 C193.35643005371094,-52.924644470214844 183.33999633789062,-96.86599731445312 177.31300354003906,-105.68199920654297 C178.3679962158203,-106.13200378417969 185.86300659179688,-128.18800354003906 183.11000061035156,-129.7530059814453 C162.03399658203125,-134.83099365234375 2.03774356842041,-151.1356201171875 -9.771256446838379,-142.07861328125 C-8.048256874084473,-144.74061584472656 -18.185256958007812,-141.16162109375 -17.85125732421875,-141.0316162109375 C-8.533256530761719,-137.401611328125 -27.5932559967041,-130.46861267089844 -24.962257385253906,-119.2096176147461 C-22.839256286621094,-119.30961608886719 -23.811256408691406,-108.86861419677734 -24.443256378173828,-108.69961547851562z"></path></g></g><g transform="matrix(1.413007140159607,0.07766637206077576,-0.07766637206077576,1.413007140159607,364.89361572265625,213.8148193359375)" opacity="1" style="display: block;"><g opacity="1" transform="matrix(1,0,0,1,0,0)"><path fill="rgb(106,0,244)" fill-opacity="1" d=" M108.91036224365234,-5.807770729064941 C88.77536010742188,13.685229301452637 115.03961181640625,28.682592391967773 110.09361267089844,62.3609504699707 C103.49060821533203,64.93894958496094 83.54762268066406,117.11595153808594 85.18262481689453,117.13095092773438 C77.6666259765625,119.8719482421875 82.5569839477539,131.79495239257812 71.11598205566406,136.78895568847656 C57.280982971191406,130.58795166015625 -108.18006896972656,137.56118774414062 -107.57506561279297,137.78018188476562 C-127.466064453125,132.1141815185547 -154.71270751953125,126.39653778076172 -144.32470703125,128.39654541015625 C-146.1457061767578,118.31654357910156 -164.22006225585938,112.80354309082031 -162.4520721435547,113.25753784179688 C-155.92506408691406,114.78754425048828 -140.4269561767578,36.6805305480957 -151.86094665527344,-3.5634689331054688 C-140.85394287109375,-2.5654690265655518 -143.0651092529297,-11.578841209411621 -134.56710815429688,-16.266841888427734 C-142.7091064453125,-21.278841018676758 -112.05066680908203,-47.839874267578125 -130.9306640625,-47.0308723449707 C-45.60466766357422,-50.96587371826172 113.47393798828125,-81.873291015625 108.91036224365234,-5.807770729064941z"></path></g></g><g transform="matrix(1.413007140159607,0.07766637206077576,-0.07766637206077576,1.413007140159607,241.8190460205078,422.7845458984375)" opacity="1" style="display: block;"><g opacity="1" transform="matrix(1,0,0,1,0,0)"><path fill="rgb(45,0,247)" fill-opacity="1" d=" M-0.23511989414691925,-35.60258483886719 C-0.23511989414691925,-35.60258483886719 104.9573974609375,-33.52486801147461 113.49239349365234,-33.21786880493164 C120.29439544677734,-31.30986785888672 125.5033950805664,-33.591224670410156 127.93839263916016,-27.09722328186035 C127.36739349365234,-28.62122344970703 145.9717559814453,-26.049867630004883 151.47975158691406,-28.720867156982422 C153.1487579345703,-29.672866821289062 160.5113983154297,-38.423866271972656 168.5273895263672,-24.661867141723633 C164.88839721679688,-30.909866333007812 161.6763916015625,-0.2772230803966522 162.0334014892578,-1.120223045349121 C162.25839233398438,-1.2002230882644653 167.49569702148438,26.809288024902344 167.3501434326172,26.578075408935547 C172.817138671875,44.57207489013672 157.302001953125,69.85900115966797 165.0330047607422,100.18099975585938 C161.7740020751953,107.02899932861328 149.25,106.31999969482422 146.906005859375,105.6969985961914 C146.22799682617188,110.3270034790039 11.310685157775879,126.04036712646484 -5.589230537414551,116.2994613647461 C-9.652230262756348,111.73446655273438 -16.521230697631836,114.20481872558594 -19.604230880737305,111.84781646728516 C-24.497230529785156,103.42581939697266 -37.433231353759766,107.35681915283203 -37.887229919433594,100.36181640625 C-39.25223159790039,101.04582214355469 -46.39323043823242,98.0474624633789 -52.97222900390625,94.85446166992188 C-53.89923095703125,82.71546173095703 -58.14247512817383,15.788415908813477 -55.4494743347168,-20.518585205078125 C-54.679473876953125,-20.979583740234375 -59.424476623535156,-33.25358581542969 -57.23047637939453,-35.84058380126953 C-45.020477294921875,-36.36558532714844 -39.42147445678711,-29.69822883605957 -34.32947540283203,-33.97922897338867 C-29.12247657775879,-31.41322898864746 -19.564119338989258,-36.1105842590332 -14.84712028503418,-35.60258483886719 C-12.41211986541748,-37.226585388183594 -1.479119896888733,-35.10658264160156 -0.23511989414691925,-35.60258483886719z"></path></g></g><g transform="matrix(1.413007140159607,0.07766637206077576,-0.07766637206077576,1.413007140159607,442.8267517089844,467.6309509277344)" opacity="1" style="display: block;"><g opacity="1" transform="matrix(1,0,0,1,0,0)"><path fill="rgb(255,190,11)" fill-opacity="1" d=" M125.03299713134766,-39.592105865478516 C134.07200622558594,-40.81517791748047 127.56099700927734,-10.330509185791016 138.1929931640625,-10.4326810836792 C135.78900146484375,-10.186538696289062 124.55999755859375,30.56800079345703 127.83000183105469,29.04400062561035 C122.34200286865234,32.45600128173828 118.3740005493164,29.759000778198242 110.27400207519531,32.99800109863281 C107.36399841308594,32.637001037597656 106.14199829101562,47.108001708984375 108.54499816894531,48.91299819946289 C112.48999786376953,60.58300018310547 104.71299743652344,58.244998931884766 116.9209976196289,59.987998962402344 C102.28700256347656,60.31800079345703 106.79199981689453,62.95000076293945 99.7030029296875,66.5469970703125 C28.5,64.38800048828125 12.109384536743164,68.50914764404297 -17.71161460876465,66.70614624023438 C-25.921615600585938,66.3491439819336 -33.394615173339844,66.28014373779297 -35.471614837646484,65.88314819335938 C-37.927616119384766,65.02314758300781 -31.146615982055664,43.89814376831055 -21.75761604309082,34.112144470214844 C-45.20461654663086,27.812145233154297 -65.57958984375,-35.811519622802734 -58.97058868408203,-39.86220169067383 C-55.10158920288086,-42.23367691040039 -62.5535888671875,-53.194801330566406 -65.0015869140625,-53.979312896728516 C-48.78759002685547,-55.17251968383789 -57.69358825683594,-61.7382926940918 -50.789588928222656,-64.09154510498047 C-49.91059112548828,-64.07561492919922 77.12000274658203,-88.83302307128906 109.98600006103516,-86.7196273803711 C112.81099700927734,-85.25440979003906 115.13700103759766,-88.66683197021484 118.4530029296875,-86.34744262695312 C116.66500091552734,-86.66224670410156 134.53900146484375,-60.48269271850586 130.72000122070312,-56.59455871582031 C141.00799560546875,-57.32170104980469 126.66699981689453,-40.83175277709961 125.03299713134766,-39.592105865478516z"></path></g></g><g transform="matrix(1.4141143560409546,-0.05386922508478165,0.05386922508478165,1.4141143560409546,-111.61040496826172,54.21958923339844)" opacity="1" style="display: none;"><g opacity="1" transform="matrix(-0.5232378244400024,0.14142271876335144,-0.14142271876335144,-0.5232378244400024,451.046630859375,408.7968444824219)"><g opacity="1" transform="matrix(1,0,0,1,269.6839904785156,293.3370056152344)"><g opacity="1" transform="matrix(1,0,0,1,0,0)"><path stroke-linecap="butt" stroke-linejoin="miter" fill-opacity="0" stroke-miterlimit="10" stroke="rgb(255,255,255)" stroke-opacity="1" stroke-width="8" d=" M-1.7680000066757202,-49.80799865722656 C-1.7680000066757202,-49.80799865722656 -1.0369999408721924,-35.59000015258789 -1.0369999408721924,-35.59000015258789 C-1.0369999408721924,-35.59000015258789 -0.9919999837875366,-28.465999603271484 -0.9919999837875366,-28.465999603271484 C-0.9919999837875366,-28.465999603271484 0.20000000298023224,-14.274999618530273 0.20000000298023224,-14.274999618530273 C0.20000000298023224,-14.274999618530273 -0.22699999809265137,-7.131999969482422 -0.22699999809265137,-7.131999969482422 C-0.22699999809265137,-7.131999969482422 0.09099999815225601,14.227999687194824 0.09099999815225601,14.227999687194824 C0.09099999815225601,14.227999687194824 1.1449999809265137,21.325000762939453 1.1449999809265137,21.325000762939453 C1.1449999809265137,21.325000762939453 1.7680000066757202,35.56399917602539 1.7680000066757202,35.56399917602539 C1.7680000066757202,35.56399917602539 1.2120000123977661,49.80799865722656 1.2120000123977661,49.80799865722656"></path></g></g><g opacity="1" transform="matrix(1,0,0,1,268.8760070800781,292.35198974609375)"><g opacity="1" transform="matrix(1,0,0,1,0,0)"><path stroke-linecap="butt" stroke-linejoin="miter" fill-opacity="0" stroke-miterlimit="10" stroke="rgb(255,255,255)" stroke-opacity="1" stroke-width="8" d=" M-46.45800018310547,0.5580000281333923 C-46.45800018310547,0.5580000281333923 -31,-0.3490000069141388 -31,-0.3490000069141388 C-31,-0.3490000069141388 -15.508000373840332,-0.4359999895095825 -15.508000373840332,-0.4359999895095825 C-15.508000373840332,-0.4359999895095825 -7.757999897003174,-0.5630000233650208 -7.757999897003174,-0.5630000233650208 C-7.757999897003174,-0.5630000233650208 -0.014000000432133675,-0.28299999237060547 -0.014000000432133675,-0.28299999237060547 C-0.014000000432133675,-0.28299999237060547 15.484000205993652,-0.5450000166893005 15.484000205993652,-0.5450000166893005 C15.484000205993652,-0.5450000166893005 23.222000122070312,0.07900000363588333 23.222000122070312,0.07900000363588333 C23.222000122070312,0.07900000363588333 38.715999603271484,-0.029999999329447746 38.715999603271484,-0.029999999329447746 C38.715999603271484,-0.029999999329447746 46.45800018310547,0.5630000233650208 46.45800018310547,0.5630000233650208"></path></g></g></g></g><g style="display: none;" transform="matrix(-0.06522563099861145,0.4021371006965637,-0.4021371006965637,-0.06522563099861145,1023.6976318359375,-2749.23828125)" opacity="1"><g opacity="1" transform="matrix(1,0,0,1,0,0)"><path stroke-linecap="butt" stroke-linejoin="miter" fill-opacity="0" stroke-miterlimit="10" stroke="rgb(255,255,255)" stroke-opacity="1" stroke-width="20" d=" M8071.15380859375,63.733001708984375 C8092.48486328125,64.58399963378906 8156.4130859375,95.23600006103516 8165.47900390625,106.73500061035156 C8180.8017578125,126.16999816894531 8184.46484375,151.23399353027344 8184.46484375,177.9040069580078 C8184.46484375,177.9040069580078 8184.46484375,177.9040069580078 8184.46484375,177.9040069580078 C8184.46484375,209.43600463867188 8175.6181640625,242.8679962158203 8151.02099609375,258.6470031738281 C8127.4169921875,273.78900146484375 8101.80908203125,292.0920104980469 8070.27685546875,292.0920104980469 C8007.212890625,292.0920104980469 7956.087890625,240.968994140625 7956.087890625,177.9040069580078 C7956.087890625,114.83899688720703 8007.212890625,63.71500015258789 8070.27685546875,63.71500015258789 C8070.56103515625,63.71500015258789 8070.85302734375,63.72100067138672 8071.15380859375,63.733001708984375"></path></g><g opacity="1" transform="matrix(1,0,0,1,0,0)"><g opacity="1" transform="matrix(1,0,0,1,0,0)"><path stroke-linecap="butt" stroke-linejoin="round" fill-opacity="0" stroke="rgb(255,255,255)" stroke-opacity="1" stroke-width="20" d=" M8060.7998046875,255.10000610351562 C8060.37890625,250.65499877929688 8060.59521484375,245.89199829101562 8061.26904296875,241.6269989013672 C8084.91796875,245.06399536132812 8089.8662109375,259.1969909667969 8068.1259765625,269.6619873046875"></path></g><g opacity="1" transform="matrix(1,0,0,1,0,0)"><path stroke-linecap="butt" stroke-linejoin="round" fill-opacity="0" stroke="rgb(255,255,255)" stroke-opacity="1" stroke-width="20" d=" M8024.833984375,126.822998046875 C8009.13720703125,111.2509994506836 8095.81689453125,62.0260009765625 8110.033203125,123.322998046875 C8114.80712890625,143.91000366210938 8099.7119140625,159.55299377441406 8082.54296875,176.44500732421875 C8065.44189453125,193.27000427246094 8062.4140625,199.28900146484375 8061.625,220.15699768066406"></path></g></g></g><g transform="matrix(0.6203762888908386,0.034099169075489044,-0.034099169075489044,0.6203762888908386,165.99722290039062,312.1322326660156)" opacity="1" style="display: block;"><g opacity="1" transform="matrix(1.0156049728393555,-0.013135440647602081,0.013135440647602081,1.0156049728393555,424.0272216796875,201.1100616455078)"><g opacity="1" transform="matrix(1,0,0,1,0,0)"><path fill="rgb(255,255,255)" fill-opacity="1" d=" M53.856998443603516,-29.334999084472656 C45.37300109863281,-30.19099998474121 45.39799880981445,-24.218000411987305 47,-20.665000915527344 C75.4540023803711,35.49800109863281 179.1840057373047,61.53900146484375 207.6929931640625,-7.451000213623047 C209.3459930419922,-11.45199966430664 210.74600219726562,-15.772000312805176 211.86399841308594,-20.423999786376953 C227.66200256347656,-86.1729965209961 73.8499984741211,-83.81700134277344 53.856998443603516,-29.334999084472656z"></path></g></g><g opacity="1" transform="matrix(1,0,0,1,-2.58892822265625,-9.651885986328125)"><g opacity="1" transform="matrix(1,0,0,1,562.8099975585938,179.45199584960938)"><path fill="rgb(255,190,11)" fill-opacity="1" d=" M7.413000106811523,33.448001861572266 C-52.80500030517578,51.22600173950195 -41.21099853515625,-58.87900161743164 19.17099952697754,-30.790000915527344 C19.17099952697754,-30.790000915527344 11.965999603271484,-19.982999801635742 11.965999603271484,-19.982999801635742 C30.32200050354004,-9.416999816894531 48.72200012207031,21.253000259399414 7.413000106811523,33.448001861572266z"></path></g></g></g><g transform="matrix(1.0178319215774536,0.05594543740153313,-0.05594543740153313,1.0178319215774536,-240.58261108398438,33.24193572998047)" opacity="1" style="display: block;"><g opacity="1" transform="matrix(1.0156049728393555,-0.013135440647602081,0.013135440647602081,1.0156049728393555,424.0272216796875,201.1100616455078)"><g opacity="1" transform="matrix(1,0,0,1,0,0)"><path fill="rgb(255,255,255)" fill-opacity="1" d=" M53.856998443603516,-29.334999084472656 C45.37300109863281,-30.19099998474121 45.39799880981445,-24.218000411987305 47,-20.665000915527344 C75.4540023803711,35.49800109863281 179.1840057373047,61.53900146484375 207.6929931640625,-7.451000213623047 C209.3459930419922,-11.45199966430664 210.74600219726562,-15.772000312805176 211.86399841308594,-20.423999786376953 C227.66200256347656,-86.1729965209961 73.8499984741211,-83.81700134277344 53.856998443603516,-29.334999084472656z"></path></g></g><g opacity="1" transform="matrix(1,0,0,1,27.146484375,21.957809448242188)"><g opacity="1" transform="matrix(1,0,0,1,571.0880126953125,155.3699951171875)"><path fill="rgb(106,0,244)" fill-opacity="1" d=" M7.413000106811523,33.448001861572266 C-52.80500030517578,51.22600173950195 -41.21099853515625,-58.87900161743164 19.17099952697754,-30.790000915527344 C19.17099952697754,-30.790000915527344 11.965999603271484,-19.982999801635742 11.965999603271484,-19.982999801635742 C30.32200050354004,-9.416999816894531 48.72200012207031,21.253000259399414 7.413000106811523,33.448001861572266z"></path></g></g></g><g transform="matrix(0.7951675653457642,0.04370662942528725,-0.04370662942528725,0.7951675653457642,-118.45475006103516,323.8143005371094)" opacity="1" style="display: block;"><g opacity="1" transform="matrix(1.0156049728393555,-0.013135440647602081,0.013135440647602081,1.0156049728393555,424.0272216796875,201.1100616455078)"><g opacity="1" transform="matrix(1,0,0,1,0,0)"><path fill="rgb(255,255,255)" fill-opacity="1" d=" M54.37049865722656,-28.649999618530273 C47.78900146484375,-31.91699981689453 43.135501861572266,-26.148500442504883 47,-20.665000915527344 C80.12449645996094,28.923500061035156 167.4344940185547,37.83449935913086 209.40499877929688,-8.221500396728516 C215.2239990234375,-12.304499626159668 213.6094970703125,-19.6564998626709 209.4669952392578,-20.16699981689453 C192.35850524902344,-43.38399887084961 83.08899688720703,-37.154998779296875 54.37049865722656,-28.649999618530273z"></path></g></g><g opacity="1" transform="matrix(1,0,0,1,29.9666748046875,6.508270263671875)"><g opacity="1" transform="matrix(1,0,0,1,546.114990234375,164.2740020751953)"><path fill="rgb(45,0,247)" fill-opacity="1" d=" M7.413000106811523,33.448001861572266 C-52.80500030517578,51.22600173950195 -41.21099853515625,-58.87900161743164 19.17099952697754,-30.790000915527344 C19.17099952697754,-30.790000915527344 11.965999603271484,-19.982999801635742 11.965999603271484,-19.982999801635742 C30.32200050354004,-9.416999816894531 48.72200012207031,21.253000259399414 7.413000106811523,33.448001861572266z"></path></g></g></g><g transform="matrix(1.413007140159607,0.07766637206077576,-0.07766637206077576,1.413007140159607,-113.48026275634766,-42.29741668701172)" opacity="1" style="display: block;"><g opacity="1" transform="matrix(1,0,0,1,379.7130126953125,273.2850036621094)"><g opacity="1" transform="matrix(1,0,0,1,0,0)"><path fill="rgb(0,0,0)" fill-opacity="1" d=" M-49.88399887084961,212.05599975585938 C-37.20199966430664,124.81400299072266 -151.06100463867188,120.60600280761719 -167.281005859375,4.410999774932861 C-176.56300354003906,-60.077999114990234 -162.77499389648438,-120.36100006103516 -114.51399993896484,-166.16600036621094 C-58.481998443603516,-206.76300048828125 27.393999099731445,-236.43800354003906 87.50399780273438,-189.1179962158203 C169.88099670410156,-133.218994140625 199.38099670410156,-1.871000051498413 137.8260040283203,77.63200378417969 C119.7239990234375,106.58599853515625 85.52400207519531,118.31500244140625 60.95899963378906,140.38099670410156 C38.94599914550781,162.302001953125 68.50900268554688,202.3470001220703 65.95700073242188,160.1820068359375 C72.62200164794922,137.572998046875 92.97799682617188,134.7519989013672 109.50399780273438,122.2229995727539 C135.51800537109375,101.64099884033203 155.7760009765625,75.51100158691406 170.81900024414062,46.340999603271484 C172.5679931640625,27.04800033569336 182.5260009765625,9.458000183105469 184.5279998779297,-9.555000305175781 C183.38999938964844,-28.67099952697754 184.33999633789062,-47.77399826049805 181.66000366210938,-66.68499755859375 C163.52099609375,-128.9340057373047 130.6649932861328,-192.68899536132812 64.75399780273438,-214.14500427246094 C30.32900047302246,-238.30999755859375 -10.28600025177002,-224.2270050048828 -47.49399948120117,-216.8820037841797 C-67.2229995727539,-213.08999633789062 -80.44300079345703,-197.0800018310547 -98.46800231933594,-191.02099609375 C-114.072998046875,-186.79100036621094 -122.64600372314453,-167.70599365234375 -135.96200561523438,-159.8070068359375 C-185.35899353027344,-115.70999908447266 -196.76100158691406,-27.947999954223633 -171.6009979248047,30.72800064086914 C-164.53599548339844,91.1780014038086 -108.06800079345703,120.91799926757812 -72.4209976196289,163.23500061035156 C-59.47700119018555,177.27000427246094 -57.54899978637695,199.78900146484375 -66.197998046875,216.51400756835938 C-70.64600372314453,236.2030029296875 -48.69499969482422,226.7550048828125 -49.88399887084961,212.05599975585938z"></path></g></g></g><g transform="matrix(1.4151400327682495,0,0,1.4151400327682495,-151.06689453125,-17.529052734375)" opacity="1" style="display: block;"><g opacity="1" transform="matrix(1,0,0,1,402.43499755859375,504.718994140625)"><g opacity="1" transform="matrix(1,0,0,1,0,0)"><path fill="rgb(0,0,0)" fill-opacity="1" d=" M45.37214279174805,-35.033565521240234 C30.396141052246094,-31.714567184448242 16.149036407470703,-36.206565856933594 1.0870373249053955,-33.46256637573242 C-4.901962757110596,-35.74256896972656 -8.120858192443848,-35.993568420410156 -13.880858421325684,-33.408565521240234 C-22.109859466552734,-36.27256774902344 -28.712963104248047,-33.34356689453125 -36.359962463378906,-30.631567001342773 C-47.58596420288086,-26.210567474365234 -61.920963287353516,-32.568565368652344 -66.8599624633789,-19.179567337036133 C-87.6849594116211,21.96343231201172 -24.25450897216797,4.356571197509766 -4.113508701324463,4.504571437835693 C8.54349136352539,2.4835712909698486 20.655467987060547,-0.1126822903752327 32.670467376708984,5.603317737579346 C40.049468994140625,6.282317638397217 49.850563049316406,1.0864559412002563 55.35356140136719,4.927455902099609 C58.195560455322266,11.662455558776855 41.16472244262695,10.517306327819824 35.55485916137695,12.479893684387207 C26.036420822143555,15.370802879333496 16.39049530029297,12.553262710571289 6.67549467086792,12.726262092590332 C-10.39550495147705,17.195262908935547 -27.743505477905273,13.85726261138916 -45.140506744384766,15.640262603759766 C-63.78550720214844,25.451263427734375 -77.1993179321289,21.612520217895508 -68.85900115966797,43.944000244140625 C-61.34000015258789,50.07699966430664 -33.50199890136719,50.61800003051758 -25.20599937438965,47.185001373291016 C-19.21500015258789,49.012001037597656 -16.475000381469727,48.987998962402344 -10.696999549865723,46.82500076293945 C-3.115999937057495,50.22700119018555 3.7009999752044678,49.63100051879883 11.347000122070312,47.27000045776367 C21.920000076293945,50.766998291015625 49.09199905395508,56.07099914550781 40.582000732421875,36.60499954223633 C37.96900177001953,32.709999084472656 36.893001556396484,37.53099822998047 33.361000061035156,37.5880012512207 C27.363000869750977,35.972999572753906 24.11199951171875,36.630001068115234 18.711999893188477,38.6619987487793 C13.336999893188477,35.8129997253418 10.345000267028809,33.87300109863281 4.013999938964844,35.4640007019043 C-1.7730000019073486,37.178001403808594 -5.215000152587891,37.57600021362305 -10.947999954223633,36.027000427246094 C-21.408000946044922,39.75699996948242 -30.211000442504883,37.10499954223633 -40.40299987792969,35.61899948120117 C-47.737998962402344,39.650001525878906 -58.30010986328125,36.98500442504883 -59.02830123901367,34.23948287963867 C-50.684303283691406,32.336483001708984 -44.35850524902344,28.384262084960938 -35.528507232666016,29.727262496948242 C-21.80650520324707,26.91326332092285 -6.989401340484619,27.682262420654297 7.128598690032959,28.63726234436035 C21.038599014282227,27.66326332092285 32.88572692871094,22.95235252380371 46.66183090209961,22.118579864501953 C76.59383392333984,17.870580673217773 83.44947052001953,-7.975682258605957 47.678470611572266,-9.201682090759277 C33.21751403808594,-8.606637954711914 29.811386108398438,-14.31342887878418 17.46538734436035,-9.799428939819336 C0.5203869938850403,-7.43242883682251 -18.262508392333984,-12.943428993225098 -34.464508056640625,-5.354428768157959 C-42.967918395996094,-8.460253715515137 -48.970306396484375,-4.831371307373047 -56.771305084228516,-7.947371006011963 C-59.32230758666992,-9.089370727539062 -56.2694091796875,-10.476370811462402 -55.93540954589844,-11.75537109375 C-58.515411376953125,-17.248371124267578 -52.885860443115234,-17.094566345214844 -47.85785675048828,-16.06456756591797 C-28.447858810424805,-17.730567932128906 -10.087963104248047,-26.054567337036133 8.830037117004395,-20.7315673828125 C16.735036849975586,-20.93956756591797 23.2690372467041,-21.917566299438477 30.88503646850586,-22.506567001342773 C36.52103805541992,-22.06456756591797 49.23503875732422,-19.210567474365234 52.50403594970703,-22.612567901611328 C56.87303924560547,-27.964567184448242 52.089141845703125,-37.528568267822266 45.37214279174805,-35.033565521240234z"></path></g></g></g><g style="display: none;" transform="matrix(-0.015404540114104748,-0.3815838098526001,0.3815838098526001,-0.015404540114104748,-834.5910034179688,871.4676513671875)" opacity="1"><g opacity="1" transform="matrix(1,0,0,1,0,0)"><path stroke-linecap="butt" stroke-linejoin="miter" fill-opacity="0" stroke-miterlimit="10" stroke="rgb(255,255,255)" stroke-opacity="1" stroke-width="21" d=" M1236.7740478515625,3544.259033203125 C1327.696044921875,3497.5810546875 1525.072998046875,3524.6669921875 1459.032958984375,3674.97900390625 C1405.7039794921875,3796.360107421875 1279.4119873046875,3767.77001953125 1228.282958984375,3690.39501953125 C1200.5770263671875,3648.467041015625 1188.447998046875,3569.069091796875 1236.7740478515625,3544.259033203125z"></path></g><g opacity="1" transform="matrix(1,0,0,1,0,0)"><path stroke-linecap="butt" stroke-linejoin="miter" fill-opacity="0" stroke-miterlimit="10" stroke="rgb(255,255,255)" stroke-opacity="1" stroke-width="21" d=" M1419.489990234375,3502 C1392.7569580078125,3567.970947265625 1310.9019775390625,3675.825927734375 1291.550048828125,3746.632080078125"></path></g><g opacity="1" transform="matrix(1,0,0,1,0,0)"><path stroke-linecap="butt" stroke-linejoin="miter" fill-opacity="0" stroke-miterlimit="10" stroke="rgb(255,255,255)" stroke-opacity="1" stroke-width="21" d=" M1306.18896484375,3513.407958984375 C1314.1290283203125,3610.80908203125 1398.8060302734375,3686.715087890625 1418.083984375,3778.968994140625"></path></g><g opacity="1" transform="matrix(1,0,0,1,0,0)"><path stroke-linecap="butt" stroke-linejoin="miter" fill-opacity="0" stroke-miterlimit="10" stroke="rgb(255,255,255)" stroke-opacity="1" stroke-width="21" d=" M1472.06005859375,3637.547119140625 C1472.06005859375,3637.547119140625 1236.31201171875,3637.547119140625 1236.31201171875,3637.547119140625"></path></g></g><g style="display: block;" transform="matrix(-0.1282220035791397,1.0014386177062988,-1.0014386177062988,-0.1282220035791397,879.9196166992188,-76.39622497558594)" opacity="1"><g opacity="1" transform="matrix(0.5899999737739563,0,0,0.5899999737739563,355.85400390625,349.3139953613281)"><g opacity="1" transform="matrix(1,0,0,1,0,0)"><path stroke-linecap="butt" stroke-linejoin="miter" fill-opacity="0" stroke-miterlimit="10" stroke="rgb(255,255,255)" stroke-opacity="1" stroke-width="13" d=" M0.24300000071525574,10.07699966430664 C-0.10100000351667404,4.660999774932861 -0.24300000071525574,-10.07699966430664 -0.24300000071525574,-10.07699966430664"></path></g></g><g opacity="1" transform="matrix(0.5899999737739563,0,0,0.5899999737739563,362.36199951171875,329.5060119628906)"><g opacity="1" transform="matrix(1,0,0,1,0,0)"><path stroke-linecap="butt" stroke-linejoin="miter" fill-opacity="0" stroke-miterlimit="10" stroke="rgb(255,255,255)" stroke-opacity="1" stroke-width="13" d=" M-1.8880000114440918,55.9640007019043 C5.752999782562256,57.11899948120117 12.081999778747559,53.20399856567383 12.081999778747559,53.20399856567383 C17.06999969482422,44.07600021362305 14.307000160217285,25.052000045776367 14.307000160217285,25.052000045776367 C14.307000160217285,25.052000045776367 14.307000160217285,25.052000045776367 14.307000160217285,25.052000045776367 C14.307000160217285,25.052000045776367 21.099000930786133,5.598999977111816 23.75,-0.019999999552965164 C26.485000610351562,-5.817999839782715 34.119998931884766,-16.844999313354492 34.64699935913086,-23.233999252319336 C35.19200134277344,-29.83799934387207 29.10700035095215,-42.93000030517578 24.554000854492188,-47.744998931884766 C20.020000457763672,-52.54100036621094 9.194999694824219,-56.176998138427734 -0.46399998664855957,-56.176998138427734 C-27.47800064086914,-56.176998138427734 -34.680999755859375,-39.220001220703125 -34.680999755859375,-22.19300079345703 C-34.680999755859375,-6.802999973297119 -21.881999969482422,0.20100000500679016 -18.920000076293945,5.979000091552734 C-16.02899932861328,11.618000030517578 -14.0600004196167,16.850000381469727 -14.0600004196167,16.850000381469727 C-14.0600004196167,16.850000381469727 -11.27299976348877,23.4950008392334 -11.27299976348877,23.4950008392334 C-11.27299976348877,23.4950008392334 9.3149995803833,26.51300048828125 13.402000427246094,26.589000701904297"></path></g></g><g opacity="1" transform="matrix(0.5899999737739563,0,0,0.5899999737739563,364.0220031738281,271.6610107421875)"><g opacity="1" transform="matrix(1,0,0,1,0,0)"><path stroke-linecap="butt" stroke-linejoin="miter" fill-opacity="0" stroke-miterlimit="10" stroke="rgb(255,255,255)" stroke-opacity="1" stroke-width="13" d=" M-0.08299999684095383,18.77899932861328 C-0.08299999684095383,14.083000183105469 2.1640000343322754,4.35099983215332 0.39800000190734863,0 C-2.812999963760376,-7.908999919891357 0.2240000069141388,-18.77899932861328 0.2240000069141388,-18.77899932861328"></path></g></g><g opacity="1" transform="matrix(0.5899999737739563,0,0,0.5899999737739563,334.9079895019531,277.52398681640625)"><g opacity="1" transform="matrix(1,0,0,1,0,0)"><path stroke-linecap="butt" stroke-linejoin="miter" fill-opacity="0" stroke-miterlimit="10" stroke="rgb(255,255,255)" stroke-opacity="1" stroke-width="13" d=" M9.416999816894531,15.496000289916992 C8.050000190734863,8.28499984741211 0.3109999895095825,-0.18799999356269836 0.3109999895095825,-0.18799999356269836 C0.3109999895095825,-0.18799999356269836 -9.416999816894531,-15.496000289916992 -9.416999816894531,-15.496000289916992"></path></g></g><g opacity="1" transform="matrix(0.5899999737739563,0,0,0.5899999737739563,394.2460021972656,277.4110107421875)"><g opacity="1" transform="matrix(1,0,0,1,0,0)"><path stroke-linecap="butt" stroke-linejoin="miter" fill-opacity="0" stroke-miterlimit="10" stroke="rgb(255,255,255)" stroke-opacity="1" stroke-width="13" d=" M-9.272000312805176,15.583999633789062 C-9.272000312805176,15.583999633789062 -2.6710000038146973,3.6689999103546143 -0.04500000178813934,-0.027000000700354576 C2.5810000896453857,-3.7230000495910645 9.272000312805176,-11.050999641418457 9.272000312805176,-15.583999633789062"></path></g></g><g opacity="1" transform="matrix(0.5899999737739563,0,0,0.5899999737739563,321.3330078125,299.5450134277344)"><g opacity="1" transform="matrix(1,0,0,1,0,0)"><path stroke-linecap="butt" stroke-linejoin="miter" fill-opacity="0" stroke-miterlimit="10" stroke="rgb(255,255,255)" stroke-opacity="1" stroke-width="13" d=" M15.486000061035156,4.98799991607666 C8.824999809265137,-5.394000053405762 -15.486000061035156,-4.985000133514404 -15.486000061035156,-4.985000133514404"></path></g></g><g opacity="1" transform="matrix(0.5899999737739563,0,0,0.5899999737739563,403.6960144042969,299.6189880371094)"><g opacity="1" transform="matrix(1,0,0,1,0,0)"><path stroke-linecap="butt" stroke-linejoin="miter" fill-opacity="0" stroke-miterlimit="10" stroke="rgb(255,255,255)" stroke-opacity="1" stroke-width="13" d=" M-15.482000350952148,4.999000072479248 C-8.322999954223633,-4.999000072479248 15.482000350952148,-4.999000072479248 15.482000350952148,-4.999000072479248"></path></g></g></g></g></svg>