<svg id="Слой_1" data-name="Слой 1" xmlns="http://www.w3.org/2000/svg" viewBox="0 0 317.95 99.36">
  <title>logo</title>
  <g>
    <path d="M116.7,197.3q-1.44-11.23-18.07-11.23T82,196.43A7.27,7.27,0,0,0,85.52,203a32.23,32.23,0,0,0,8.86,3.67q5.33,1.44,11.59,2.66a59.55,59.55,0,0,1,11.59,3.46,24.62,24.62,0,0,1,8.86,6.12q3.53,3.89,3.53,10.66,0,10.51-7.92,16.06t-21.46,5.54q-14.4,0-22.9-7.2a22,22,0,0,1-8.35-16.56H80.55q1,9.94,11.23,13.39a25.06,25.06,0,0,0,7.42,1.15,50.73,50.73,0,0,0,6.84-.43,27.89,27.89,0,0,0,6.19-1.58q6.91-2.73,6.91-9.36a7.75,7.75,0,0,0-3.53-6.84,31,31,0,0,0-8.86-3.89q-5.33-1.51-11.59-2.74a62.76,62.76,0,0,1-11.59-3.38,24.69,24.69,0,0,1-8.86-5.9q-3.53-3.74-3.53-10.37,0-9.79,7.13-15.19t21.1-5.4q13.25,0,20.88,6.34a20.81,20.81,0,0,1,7.34,14.11H116.7Z" transform="translate(-69.32 -151.79)"/>
    <path d="M203.53,238.48q-8.64,12.67-25.78,12.67-15.55,0-25.34-10.8-9.5-10.66-9.5-26.35t9.5-26.35q9.79-10.8,26.06-10.8t25.06,12.82V178h10.8v72h-10.8V238.48Zm-24.34,2.88q11.66,0,18.43-8.06,6.48-7.63,6.48-19.3t-6.48-19.3q-6.77-8.06-18.43-8.06t-18.72,8.06q-6.77,7.63-6.77,19.3t6.77,19.3Q167.67,241.36,179.19,241.36Z" transform="translate(-69.32 -151.79)"/>
    <path d="M244.42,250V187.5H229.73V178h14.69V152.22h10.8V178h16.56v9.5H255.22V250h-10.8Z" transform="translate(-69.32 -151.79)"/>
    <path d="M298.42,151.79V165.9H286.75V151.79h11.66ZM287.19,178H298v72h-10.8V178Z" transform="translate(-69.32 -151.79)"/>
    <path d="M352.42,241.36q14.54,0,20.88-12.1h11.81a34.77,34.77,0,0,1-11.88,15.84q-8.14,6-21,6-16.27,0-26.5-10.8-9.94-10.51-9.94-26.35t9.5-26.35q10.08-10.8,26.21-10.8t26.21,10.8q9.5,10.37,9.5,26.35v4.32H326.93a26.12,26.12,0,0,0,7.92,16.42Q341.76,241.36,352.42,241.36Zm-0.86-54.72a23.83,23.83,0,0,0-16.7,6.19,25.57,25.57,0,0,0-7.78,15.41h49a25.59,25.59,0,0,0-7.78-15.41A23.83,23.83,0,0,0,351.55,186.64Z" transform="translate(-69.32 -151.79)"/>
  </g>
</svg>
