<svg width="138" height="86" viewBox="0 0 138 86" fill="none" xmlns="http://www.w3.org/2000/svg">
<g clip-path="url(#clip0_101_323)">
<path d="M2.525 52.217V0.101H15.554V54.035C15.554 54.843 15.6213 55.5837 15.756 56.257C15.8907 56.863 16.059 57.368 16.261 57.772C16.5303 58.176 16.8333 58.5127 17.17 58.782C17.5067 59.0513 17.877 59.2533 18.281 59.388C18.685 59.4553 19.1227 59.489 19.594 59.489C20.0653 59.489 20.503 59.4553 20.907 59.388C21.311 59.2533 21.6813 59.0513 22.018 58.782C22.3547 58.5127 22.624 58.176 22.826 57.772C23.0953 57.368 23.2973 56.863 23.432 56.257C23.5667 55.5837 23.634 54.843 23.634 54.035V0.101H36.764V52.217C36.764 55.1797 36.4947 57.772 35.956 59.994C35.4847 62.1487 34.7777 64.0003 33.835 65.549C32.8923 67.0303 31.714 68.2423 30.3 69.185C28.9533 70.0603 27.371 70.7 25.553 71.104C23.735 71.5753 21.7487 71.811 19.594 71.811C17.5067 71.811 15.5877 71.5753 13.837 71.104C12.0863 70.7 10.504 70.0603 9.09 69.185C7.676 68.2423 6.464 67.0303 5.454 65.549C4.51133 64.0003 3.77067 62.1487 3.232 59.994C2.76067 57.772 2.525 55.1797 2.525 52.217Z" fill="black"/>
<path d="M42.0839 70.801V0.101H55.1129V70.801H42.0839Z" fill="black"/>
<path d="M60.4225 52.217V0.101H73.4515V54.035C73.4515 54.843 73.5188 55.5837 73.6535 56.257C73.7881 56.863 73.9565 57.368 74.1585 57.772C74.4278 58.176 74.7308 58.5127 75.0675 58.782C75.4041 59.0513 75.7745 59.2533 76.1785 59.388C76.5825 59.4553 77.0201 59.489 77.4915 59.489C77.9628 59.489 78.4005 59.4553 78.8045 59.388C79.2085 59.2533 79.5788 59.0513 79.9155 58.782C80.2521 58.5127 80.5215 58.176 80.7235 57.772C80.9928 57.368 81.1948 56.863 81.3295 56.257C81.4641 55.5837 81.5315 54.843 81.5315 54.035V0.101H94.6615V52.217C94.6615 55.1797 94.3921 57.772 93.8535 59.994C93.3821 62.1487 92.6751 64.0003 91.7325 65.549C90.7898 67.0303 89.6115 68.2423 88.1975 69.185C86.8508 70.0603 85.2685 70.7 83.4505 71.104C81.6325 71.5753 79.6461 71.811 77.4915 71.811C75.4041 71.811 73.4851 71.5753 71.7345 71.104C69.9838 70.7 68.4015 70.0603 66.9875 69.185C65.5735 68.2423 64.3615 67.0303 63.3515 65.549C62.4088 64.0003 61.6681 62.1487 61.1295 59.994C60.6581 57.772 60.4225 55.1797 60.4225 52.217Z" fill="black"/>
<path d="M96.7683 70.7L106.969 34.946L97.5763 0.201998L112.625 0L117.17 25.957L121.614 0L136.764 0.201998L127.371 34.845L137.572 70.7L122.018 70.902L117.17 43.733L112.12 70.902L96.7683 70.7Z" fill="black"/>
<path d="M0 80.901H137.976V85.951H0V80.901Z" fill="black"/>
</g>
<defs>
<clipPath id="clip0_101_323">
<rect width="138" height="86" fill="white"/>
</clipPath>
</defs>
</svg>
