<svg width="275" height="203" viewBox="0 0 275 203" fill="none" xmlns="http://www.w3.org/2000/svg">
<g clip-path="url(#clip0_39_531)">
<path fill-rule="evenodd" clip-rule="evenodd" d="M50.4462 11.7887C49.4572 6.78969 45.4472 4.26469 40.5472 4.26469C32.1322 4.26469 28.5682 11.1947 28.5682 18.5697C28.5682 26.6377 32.1322 33.3707 40.5962 33.3707C46.7842 33.3707 50.3482 29.0147 50.7932 23.1727H55.4962C54.6052 31.9837 49.1102 37.3317 40.2002 37.3317C29.2112 37.3317 23.8652 29.2117 23.8652 18.9167C23.8652 8.66969 29.7062 0.304688 40.5962 0.304688C47.9722 0.304688 54.0602 4.26469 55.1492 11.7887H50.4462Z" fill="white"/>
<path fill-rule="evenodd" clip-rule="evenodd" d="M59.293 10.8984H63.253V16.2944H63.352C65.381 12.1854 68.203 10.1564 72.757 10.3044V14.7594C65.976 14.7594 63.501 18.6214 63.501 25.1054V36.4904H59.293V10.8984Z" fill="white"/>
<path fill-rule="evenodd" clip-rule="evenodd" d="M85.6496 33.3717C90.0546 33.3717 93.6186 29.9067 93.6186 23.7187C93.6186 17.4827 90.0546 14.0177 85.6496 14.0177C81.2436 14.0177 77.6796 17.4827 77.6796 23.7187C77.6796 29.9067 81.2436 33.3717 85.6496 33.3717ZM85.6496 10.3047C93.7666 10.3047 98.0736 16.1957 98.0736 23.7187C98.0736 31.1937 93.7666 37.0837 85.6496 37.0837C77.5316 37.0837 73.2246 31.1937 73.2246 23.7187C73.2246 16.1957 77.5316 10.3047 85.6496 10.3047Z" fill="white"/>
<path fill-rule="evenodd" clip-rule="evenodd" d="M126.293 36.4904H121.838L116.641 16.1444H116.542L111.394 36.4904H106.84L98.623 10.8984H103.276L109.067 31.8354H109.166L114.314 10.8984H118.918L124.264 31.8354H124.363L130.105 10.8984H134.461L126.293 36.4904Z" fill="white"/>
<path fill-rule="evenodd" clip-rule="evenodd" d="M137.258 10.8987H141.218V14.9577H141.317C143.099 11.7897 145.97 10.3047 149.633 10.3047C156.365 10.3047 158.444 14.1667 158.444 19.6607V36.4907H154.237V19.1647C154.237 16.0467 152.257 14.0177 149.039 14.0177C143.941 14.0177 141.466 17.4317 141.466 22.0357V36.4907H137.258V10.8987Z" fill="white"/>
<path fill-rule="evenodd" clip-rule="evenodd" d="M50.4462 63.7897C49.4572 58.7917 45.4472 56.2657 40.5472 56.2657C32.1322 56.2657 28.5682 63.1957 28.5682 70.5707C28.5682 78.6387 32.1322 85.3717 40.5962 85.3717C46.7842 85.3717 50.3482 81.0157 50.7932 75.1737H55.4962C54.6052 83.9847 49.1102 89.3327 40.2002 89.3327C29.2112 89.3327 23.8652 81.2127 23.8652 70.9187C23.8652 60.6717 29.7062 52.3047 40.5962 52.3047C47.9722 52.3047 54.0602 56.2657 55.1492 63.7897H50.4462Z" fill="white"/>
<path fill-rule="evenodd" clip-rule="evenodd" d="M70.5988 85.3717C75.0038 85.3717 78.5678 81.9067 78.5678 75.7187C78.5678 69.4827 75.0038 66.0177 70.5988 66.0177C66.1928 66.0177 62.6288 69.4827 62.6288 75.7187C62.6288 81.9067 66.1928 85.3717 70.5988 85.3717ZM70.5988 62.3047C78.7158 62.3047 83.0228 68.1957 83.0228 75.7187C83.0228 83.1937 78.7158 89.0837 70.5988 89.0837C62.4808 89.0837 58.1738 83.1937 58.1738 75.7187C58.1738 68.1957 62.4808 62.3047 70.5988 62.3047Z" fill="white"/>
<path fill-rule="evenodd" clip-rule="evenodd" d="M86.8086 62.8987H90.7676V66.6607H90.8676C92.7476 63.7897 95.6196 62.3047 99.1336 62.3047C102.252 62.3047 105.123 63.5437 106.163 66.6607C107.895 63.9377 110.915 62.3047 114.182 62.3047C119.28 62.3047 122.696 64.4337 122.696 69.7287V88.4907H118.488V71.7087C118.488 68.5417 117.647 66.0177 113.538 66.0177C109.479 66.0177 106.856 68.5917 106.856 72.5507V88.4907H102.648V71.7087C102.648 68.3927 101.609 66.0177 97.8466 66.0177C92.8476 66.0177 91.0156 70.6217 91.0156 72.5507V88.4907H86.8086V62.8987Z" fill="white"/>
<path fill-rule="evenodd" clip-rule="evenodd" d="M127.85 62.8987H131.81V66.6607H131.909C133.789 63.7897 136.661 62.3047 140.175 62.3047C143.293 62.3047 146.164 63.5437 147.204 66.6607C148.936 63.9377 151.956 62.3047 155.223 62.3047C160.321 62.3047 163.737 64.4337 163.737 69.7287V88.4907H159.529V71.7087C159.529 68.5417 158.688 66.0177 154.579 66.0177C150.52 66.0177 147.897 68.5917 147.897 72.5507V88.4907H143.689V71.7087C143.689 68.3927 142.65 66.0177 138.888 66.0177C133.889 66.0177 132.057 70.6217 132.057 72.5507V88.4907H127.85V62.8987Z" fill="white"/>
<path fill-rule="evenodd" clip-rule="evenodd" d="M186.643 73.2447C186.445 69.2347 183.425 66.0177 179.268 66.0177C174.862 66.0177 172.238 69.3337 171.941 73.2447H186.643ZM190.702 80.3717C189.563 86.0157 185.504 89.0837 179.763 89.0837C171.595 89.0837 167.734 83.4417 167.486 75.6197C167.486 67.9477 172.536 62.3047 179.515 62.3047C188.573 62.3047 191.345 70.7697 191.098 76.9577H171.941C171.793 81.4127 174.317 85.3717 179.911 85.3717C183.376 85.3717 185.801 83.6877 186.544 80.3717H190.702Z" fill="white"/>
<path fill-rule="evenodd" clip-rule="evenodd" d="M194.49 62.8984H198.45V68.2954H198.549C200.578 64.1854 203.399 62.1564 207.954 62.3044V66.7594C201.172 66.7594 198.697 70.6214 198.697 77.1054V88.4904H194.49V62.8984Z" fill="white"/>
<path fill-rule="evenodd" clip-rule="evenodd" d="M227.208 71.1157C226.564 67.8987 224.336 66.0177 220.871 66.0177C214.783 66.0177 212.902 70.8187 212.902 76.0157C212.902 80.7187 215.03 85.3717 220.376 85.3717C224.436 85.3717 226.861 82.9967 227.405 79.1347H231.712C230.771 85.3717 226.861 89.0837 220.426 89.0837C212.605 89.0837 208.447 83.6387 208.447 76.0157C208.447 68.3437 212.407 62.3047 220.525 62.3047C226.316 62.3047 230.969 65.0277 231.563 71.1157H227.208Z" fill="white"/>
<path fill-rule="evenodd" clip-rule="evenodd" d="M235.475 88.4885H239.682V62.8965H235.475V88.4885ZM235.475 58.2935H239.682V53.1445H235.475V58.2935Z" fill="white"/>
<path fill-rule="evenodd" clip-rule="evenodd" d="M260.792 75.2737C259.159 76.4617 255.991 76.5117 253.169 77.0057C250.397 77.4997 248.021 78.4907 248.021 81.6097C248.021 84.3807 250.397 85.3717 252.971 85.3717C258.515 85.3717 260.792 81.9067 260.792 79.5807V75.2737ZM267.623 88.3907C266.88 88.8367 265.94 89.0837 264.603 89.0837C262.425 89.0837 261.04 87.8967 261.04 85.1237C258.713 87.8457 255.595 89.0837 252.031 89.0837C247.377 89.0837 243.566 87.0047 243.566 81.9067C243.566 76.1157 247.872 74.8777 252.228 74.0357C256.881 73.1447 260.841 73.4417 260.841 70.2737C260.841 66.6117 257.822 66.0177 255.149 66.0177C251.585 66.0177 248.961 67.1057 248.764 70.8677H244.556C244.804 64.5317 249.704 62.3047 255.396 62.3047C260 62.3047 264.999 63.3437 264.999 69.3337V82.4997C264.999 84.4807 264.999 85.3717 266.336 85.3717C266.683 85.3717 267.079 85.3227 267.623 85.1237V88.3907Z" fill="white"/>
<path fill-rule="evenodd" clip-rule="evenodd" d="M270.736 88.4885H274.944V53.1445H270.736V88.4885Z" fill="white"/>
<path fill-rule="evenodd" clip-rule="evenodd" d="M46.0414 115.493C45.4974 110.444 42.1314 108.266 37.2804 108.266C33.3204 108.266 29.3604 109.702 29.3604 114.305C29.3604 118.661 35.0034 119.305 40.6954 120.592C46.3384 121.88 51.9814 123.858 51.9814 130.788C51.9814 138.313 44.6054 141.333 38.1714 141.333C30.2514 141.333 23.5684 137.471 23.5684 128.858H28.0234C28.0234 134.797 32.9734 137.372 38.3194 137.372C42.5764 137.372 47.2784 136.036 47.2784 130.936C47.2784 126.087 41.6364 125.245 35.9934 124.006C30.3504 122.77 24.6574 121.135 24.6574 114.651C24.6574 107.473 31.0434 104.305 37.4784 104.305C44.7054 104.305 50.1994 107.721 50.4964 115.493H46.0414Z" fill="white"/>
<path fill-rule="evenodd" clip-rule="evenodd" d="M73.6922 125.245C73.4942 121.235 70.4742 118.018 66.3162 118.018C61.9112 118.018 59.2872 121.335 58.9902 125.245H73.6922ZM77.7502 132.372C76.6122 138.016 72.5532 141.085 66.8122 141.085C58.6442 141.085 54.7832 135.442 54.5352 127.62C54.5352 119.948 59.5842 114.305 66.5642 114.305C75.6222 114.305 78.3942 122.77 78.1462 128.958H58.9902C58.8422 133.413 61.3662 137.372 66.9602 137.372C70.4252 137.372 72.8502 135.688 73.5932 132.372H77.7502Z" fill="white"/>
<path fill-rule="evenodd" clip-rule="evenodd" d="M81.5371 114.898H85.4971V120.295H85.5961C87.6251 116.185 90.4471 114.156 95.0011 114.304V118.759C88.2201 118.759 85.7451 122.621 85.7451 129.105V140.49H81.5371V114.898Z" fill="white"/>
<path fill-rule="evenodd" clip-rule="evenodd" d="M110.173 140.49H105.668L96.1641 114.898H100.867L108.044 136.232H108.143L115.123 114.898H119.528L110.173 140.49Z" fill="white"/>
<path fill-rule="evenodd" clip-rule="evenodd" d="M122.314 140.489H126.522V114.897H122.314V140.489ZM122.314 110.294H126.522V105.145H122.314V110.294Z" fill="white"/>
<path fill-rule="evenodd" clip-rule="evenodd" d="M149.241 123.116C148.597 119.899 146.37 118.018 142.905 118.018C136.816 118.018 134.935 122.819 134.935 128.016C134.935 132.719 137.063 137.372 142.41 137.372C146.469 137.372 148.894 134.997 149.438 131.135H153.745C152.805 137.372 148.894 141.085 142.459 141.085C134.638 141.085 130.48 135.639 130.48 128.016C130.48 120.344 134.44 114.305 142.558 114.305C148.35 114.305 153.002 117.028 153.597 123.116H149.241Z" fill="white"/>
<path fill-rule="evenodd" clip-rule="evenodd" d="M175.219 125.245C175.02 121.235 172.001 118.018 167.843 118.018C163.437 118.018 160.815 121.335 160.518 125.245H175.219ZM179.277 132.372C178.139 138.016 174.081 141.085 168.339 141.085C160.172 141.085 156.31 135.442 156.062 127.62C156.062 119.948 161.111 114.305 168.091 114.305C177.149 114.305 179.921 122.77 179.673 128.958H160.518C160.37 133.413 162.894 137.372 168.488 137.372C171.953 137.372 174.377 135.688 175.12 132.372H179.277Z" fill="white"/>
<path fill-rule="evenodd" clip-rule="evenodd" d="M0.328125 192.821H3.79612V0.421875H0.328125V192.821Z" fill="#006CA9"/>
<path fill-rule="evenodd" clip-rule="evenodd" d="M50.1394 168.317C50.0894 162.102 46.8084 160.113 40.7414 160.113C36.3654 160.113 31.6914 162.15 31.6914 167.222C31.6914 171.002 34.6754 172.196 37.6584 173.09L41.4374 174.234C46.3114 175.726 50.9844 177.317 50.9844 183.284C50.9844 186.765 48.7964 194.222 37.2604 194.222C29.3044 194.222 23.4874 190.393 23.8844 181.791H27.2664C26.9174 188.704 31.0454 191.338 37.5094 191.338C42.1334 191.338 47.6034 189.05 47.6034 183.732C47.6034 178.709 42.7304 177.814 38.8024 176.67L35.3204 175.627C31.1944 174.434 28.3104 171.946 28.3104 167.372C28.3104 160.261 34.5754 157.227 40.8904 157.227C48.1014 157.227 53.9184 160.113 53.5214 168.317H50.1394Z" fill="#8A8B8A"/>
<path fill-rule="evenodd" clip-rule="evenodd" d="M73.161 193.477H70.277L71.172 188.803H71.072C69.133 191.836 65.751 194.222 61.923 194.222C57.448 194.222 54.166 192.233 54.166 187.312C54.166 186.517 54.315 185.47 54.563 184.278L58.094 167.82H61.227L57.647 184.379C57.448 185.173 57.299 186.119 57.299 186.963C57.299 190.345 59.885 191.587 62.669 191.587C67.194 191.587 71.321 187.51 72.713 180.997L75.548 167.82H78.68L73.161 193.477Z" fill="#8A8B8A"/>
<path fill-rule="evenodd" clip-rule="evenodd" d="M83.4508 184.179C83.4508 188.654 86.0368 191.588 90.6118 191.588C97.8218 191.588 101.551 183.632 101.551 177.369C101.551 172.993 99.3638 169.71 94.6398 169.71C87.4298 169.71 83.4508 177.815 83.4508 184.179ZM83.6498 167.821H86.4848L85.4908 172.445H85.5898C87.7768 169.063 90.4128 167.074 94.9378 167.074C101.501 167.074 104.684 171.3 104.684 177.566C104.684 185.423 99.2638 194.223 90.6618 194.223C86.6338 194.223 83.1528 192.534 82.4568 188.357H82.3568L79.2248 202.975H76.0918L83.6498 167.821Z" fill="#8A8B8A"/>
<path fill-rule="evenodd" clip-rule="evenodd" d="M110.5 184.179C110.5 188.654 113.086 191.588 117.661 191.588C124.871 191.588 128.601 183.632 128.601 177.369C128.601 172.993 126.413 169.71 121.688 169.71C114.478 169.71 110.5 177.815 110.5 184.179ZM110.699 167.821H113.534L112.539 172.445H112.639C114.827 169.063 117.462 167.074 121.987 167.074C128.551 167.074 131.733 171.3 131.733 177.566C131.733 185.423 126.313 194.223 117.71 194.223C113.683 194.223 110.202 192.534 109.506 188.357H109.406L106.274 202.975H103.141L110.699 167.821Z" fill="#8A8B8A"/>
<path fill-rule="evenodd" clip-rule="evenodd" d="M139.588 157.973H142.721L135.063 193.476H131.93L139.588 157.973Z" fill="#8A8B8A"/>
<path fill-rule="evenodd" clip-rule="evenodd" d="M147.297 157.973H150.43L149.336 162.996H146.203L147.297 157.973ZM145.159 167.819H148.292L142.772 193.476H139.639L145.159 167.819Z" fill="#8A8B8A"/>
<path fill-rule="evenodd" clip-rule="evenodd" d="M169.027 178.859C169.027 178.164 169.076 177.516 169.076 176.87C169.076 172.595 166.392 169.71 162.065 169.71C156.893 169.71 153.363 174.085 152.269 178.859H169.027ZM151.872 181.494C151.772 182.091 151.723 182.788 151.723 183.483C151.723 188.109 154.109 191.588 159.181 191.588C163.259 191.588 166.392 188.953 167.585 185.224H170.717C169.027 190.942 165.099 194.223 159.032 194.223C152.269 194.223 148.59 189.997 148.59 183.335C148.59 175.23 153.662 167.074 162.463 167.074C168.629 167.074 172.209 171.102 172.209 177.07C172.209 178.511 172.159 179.953 171.96 181.494H151.872Z" fill="#8A8B8A"/>
<path fill-rule="evenodd" clip-rule="evenodd" d="M177.18 167.819H180.014L178.721 173.735H178.821C180.81 170.056 183.544 167.421 188.119 167.469C188.665 167.469 189.263 167.469 189.81 167.52L189.114 170.652C188.517 170.652 187.92 170.604 187.324 170.604C181.704 170.703 178.721 175.228 177.677 180.05L174.792 193.476H171.66L177.18 167.819Z" fill="#8A8B8A"/>
</g>
<defs>
<clipPath id="clip0_39_531">
<rect width="275" height="203" fill="white"/>
</clipPath>
</defs>
</svg>
