<svg width="330" height="66" viewBox="0 0 330 66" fill="none" xmlns="http://www.w3.org/2000/svg">
<path d="M27.512 16.04C33.4 16.04 38.2 16.872 41.912 18.536C45.624 20.136 48.344 22.184 50.072 24.68C51.864 27.176 52.792 29.736 52.856 32.36L32.504 38.312C32.504 35.752 32.184 33.896 31.544 32.744C30.968 31.528 29.944 30.92 28.472 30.92C27.192 30.92 26.136 31.24 25.304 31.88C24.536 32.456 23.96 33.512 23.576 35.048C23.256 36.52 23.096 38.6 23.096 41.288C23.096 44.04 23.32 46.12 23.768 47.528C24.28 48.936 24.952 49.896 25.784 50.408C26.616 50.856 27.544 51.08 28.568 51.08C29.528 51.08 30.296 50.856 30.872 50.408C31.448 49.896 31.896 49.16 32.216 48.2C32.6 47.24 32.824 46.088 32.888 44.744L52.664 50.888C52.6 53.576 51.576 56.072 49.592 58.376C47.608 60.616 44.824 62.44 41.24 63.848C37.72 65.256 33.528 65.96 28.664 65.96C22.904 65.96 17.944 65 13.784 63.08C9.624 61.096 6.424 58.248 4.184 54.536C2.008 50.824 0.92 46.312 0.92 41C0.92 35.688 2.008 31.176 4.184 27.464C6.424 23.752 9.528 20.936 13.496 19.016C17.528 17.032 22.2 16.04 27.512 16.04Z" fill="#DC7D2F"/>
<path d="M83.6038 35.048C83.6038 33.576 83.2518 32.424 82.5478 31.592C81.9078 30.76 80.8838 30.344 79.4758 30.344C78.1318 30.344 77.0118 30.728 76.1158 31.496C75.2198 32.264 74.7078 33.8 74.5798 36.104L55.9558 33.416C56.4038 28.104 58.7078 23.88 62.8678 20.744C67.0278 17.608 73.0758 16.04 81.0118 16.04C86.5798 16.04 91.1558 16.808 94.7398 18.344C98.3878 19.88 101.076 22.024 102.804 24.776C104.596 27.528 105.492 30.728 105.492 34.376V49.256C105.492 51.88 106.74 53.192 109.236 53.192C109.94 53.192 110.484 53.096 110.868 52.904L109.908 64.232C107.54 65.384 104.692 65.96 101.364 65.96C98.3558 65.96 95.6678 65.544 93.2998 64.712C90.9958 63.816 89.1718 62.504 87.8278 60.776C86.5478 58.984 85.9078 56.712 85.9078 53.96V53H88.0198C87.9558 55.432 87.1558 57.64 85.6198 59.624C84.1478 61.544 82.1638 63.08 79.6678 64.232C77.1718 65.384 74.3238 65.96 71.1238 65.96C67.7318 65.96 64.8518 65.448 62.4838 64.424C60.1798 63.4 58.4198 61.928 57.2038 60.008C55.9878 58.088 55.3798 55.816 55.3798 53.192C55.3798 49.672 56.4998 46.824 58.7398 44.648C60.9798 42.408 64.2118 40.872 68.4358 40.04L85.1398 36.584L85.0438 44.36L79.8598 45.608C78.5158 45.928 77.5558 46.472 76.9798 47.24C76.4038 47.944 76.1158 48.84 76.1158 49.928C76.1158 50.952 76.4358 51.784 77.0758 52.424C77.7158 53.064 78.6118 53.384 79.7638 53.384C80.2758 53.384 80.7558 53.288 81.2038 53.096C81.7158 52.904 82.1318 52.616 82.4518 52.232C82.8358 51.848 83.1238 51.4 83.3158 50.888C83.5078 50.312 83.6038 49.672 83.6038 48.968V35.048Z" fill="#D25325"/>
<path d="M138.793 16.04C144.681 16.04 149.481 16.872 153.193 18.536C156.905 20.136 159.625 22.184 161.353 24.68C163.145 27.176 164.073 29.736 164.137 32.36L143.785 38.312C143.785 35.752 143.465 33.896 142.825 32.744C142.249 31.528 141.225 30.92 139.753 30.92C138.473 30.92 137.417 31.24 136.585 31.88C135.817 32.456 135.241 33.512 134.857 35.048C134.537 36.52 134.377 38.6 134.377 41.288C134.377 44.04 134.601 46.12 135.049 47.528C135.561 48.936 136.233 49.896 137.065 50.408C137.897 50.856 138.825 51.08 139.849 51.08C140.809 51.08 141.577 50.856 142.153 50.408C142.729 49.896 143.177 49.16 143.497 48.2C143.881 47.24 144.105 46.088 144.169 44.744L163.945 50.888C163.881 53.576 162.857 56.072 160.873 58.376C158.889 60.616 156.105 62.44 152.521 63.848C149.001 65.256 144.809 65.96 139.945 65.96C134.185 65.96 129.225 65 125.065 63.08C120.905 61.096 117.705 58.248 115.465 54.536C113.289 50.824 112.201 46.312 112.201 41C112.201 35.688 113.289 31.176 115.465 27.464C117.705 23.752 120.809 20.936 124.777 19.016C128.809 17.032 133.481 16.04 138.793 16.04Z" fill="#739A2E"/>
<path d="M194.885 0.679998V45.416C194.885 47.592 195.333 49.16 196.229 50.12C197.189 51.016 198.661 51.464 200.645 51.464C201.925 51.464 203.045 51.368 204.005 51.176C204.965 50.984 205.861 50.664 206.693 50.216L207.653 62.696C206.053 63.72 203.877 64.52 201.125 65.096C198.373 65.672 195.781 65.96 193.349 65.96C188.869 65.96 185.093 65.416 182.021 64.328C179.013 63.176 176.709 61.352 175.109 58.856C173.573 56.36 172.805 53.032 172.805 48.872V6.824L194.885 0.679998ZM206.981 17V31.88H165.413V17H206.981Z" fill="#A73255"/>
<path d="M227.45 65.96C224.122 65.96 221.306 65.416 219.002 64.328C216.698 63.176 214.938 61.384 213.722 58.952C212.506 56.52 211.898 53.352 211.898 49.448V17H233.978V44.36C233.978 46.216 234.266 47.56 234.842 48.392C235.482 49.224 236.41 49.64 237.626 49.64C238.33 49.64 238.938 49.512 239.45 49.256C240.026 48.936 240.474 48.488 240.794 47.912C241.178 47.336 241.466 46.6 241.658 45.704C241.85 44.744 241.946 43.656 241.946 42.44V17H264.026V65H244.154L243.674 54.824C242.266 58.536 240.186 61.32 237.434 63.176C234.746 65.032 231.418 65.96 227.45 65.96ZM291.973 17L301.957 39.56L310.597 38.312L329.029 65H304.069L293.893 42.44L285.061 43.112L267.109 17H291.973ZM328.645 17L310.981 43.112L301.285 42.44L291.397 65H266.725L284.869 38.312L293.797 39.56L304.069 17H328.645Z" fill="#C7AB3A"/>
</svg>
