<svg width="461" height="449" viewBox="0 0 461 449" fill="none" xmlns="http://www.w3.org/2000/svg">
<g clip-path="url(#clip0_0_3)">
<path d="M114.315 -23C144.169 15.8632 170.289 121.504 168.323 143.275C166.357 165.046 160.691 182.596 138.795 195.081C116.898 207.566 75 199.546 75 149.125C75 97.6685 156.667 101.218 177.556 118.725C208.209 144.414 245.34 219.745 207.191 256.512C183.572 279.277 142.42 288.663 114.861 306.652C57.0032 344.417 101.869 413 154.523 413C169.644 413 187.254 406.217 200.589 398.674C236.737 378.228 329.893 174.651 379.193 228.955C395 246.365 396.339 268.893 395.773 291.944C395.012 322.97 373.198 354.816 409.176 372.429C435.624 385.377 461 355.863 461 353.948" stroke="rgba(224, 224, 234,0.5)" stroke-width="3" stroke-linecap="butt" stroke-dasharray="12 12"/>
</g>
<defs>
<clipPath id="clip0_0_3">
<rect width="461" height="449" fill="white"/>
</clipPath>
</defs>
</svg>
