<svg width="185" height="37" viewBox="0 0 271 74" fill="none" xmlns="http://www.w3.org/2000/svg">
<path d="M34.4 9.64C40.096 9.64 44.928 10.504 48.896 12.232C52.864 13.96 55.872 16.488 57.92 19.816C59.968 23.144 60.992 27.208 60.992 32.008C60.992 36.808 59.968 40.872 57.92 44.2C55.872 47.528 52.864 50.056 48.896 51.784C44.928 53.512 40.096 54.376 34.4 54.376H23.168V73H0.8V9.64H34.4ZM30.752 38.536C33.184 38.536 35.104 38.024 36.512 37C37.92 35.912 38.624 34.248 38.624 32.008C38.624 29.768 37.92 28.136 36.512 27.112C35.104 26.024 33.184 25.48 30.752 25.48H23.168V38.536H30.752ZM128.581 9.64V45.736C128.581 55.208 126.021 62.28 120.901 66.952C115.845 71.624 108.197 73.96 97.9573 73.96C87.7173 73.96 80.0373 71.624 74.9173 66.952C69.8613 62.28 67.3333 55.208 67.3333 45.736V9.64H89.7973V47.464C89.7973 50.664 90.5013 53.096 91.9093 54.76C93.3173 56.36 95.3333 57.16 97.9573 57.16C100.645 57.16 102.693 56.36 104.101 54.76C105.509 53.096 106.213 50.664 106.213 47.464V9.64H128.581ZM136.925 73V9.64H173.213C181.213 9.704 187.165 11.144 191.069 13.96C194.973 16.712 196.925 20.904 196.925 26.536C196.925 30.312 195.773 33.512 193.469 36.136C191.165 38.76 187.549 40.424 182.621 41.128V41.224C188.125 41.8 192.157 43.432 194.717 46.12C197.277 48.808 198.557 52.2 198.557 56.296C198.557 61.864 196.669 66.056 192.893 68.872C189.181 71.624 183.453 73 175.709 73H136.925ZM158.333 58.408H169.757C171.741 58.408 173.213 58.024 174.173 57.256C175.197 56.424 175.709 55.24 175.709 53.704C175.709 52.232 175.197 51.112 174.173 50.344C173.213 49.576 171.741 49.192 169.757 49.192H158.333V58.408ZM158.333 34.216H168.317C172.157 34.216 174.077 32.68 174.077 29.608C174.077 26.536 172.157 25 168.317 25H158.333V34.216Z" fill="black"/>
<path d="M222.932 41.1728L215.789 24.7568C214.637 26.024 213.504 27.368 212.391 28.7888C211.316 30.1712 210.336 31.5728 209.453 32.9936C208.608 34.4144 207.917 35.7968 207.38 37.1408C206.842 38.4848 206.573 39.7712 206.573 41H199.085C199.085 39.5024 199.508 37.8704 200.352 36.104C201.197 34.2992 202.311 32.456 203.693 30.5744C205.076 28.6544 206.592 26.7728 208.244 24.9296C209.933 23.048 211.623 21.3008 213.312 19.688L204.269 0.679996L211.7 0.449595L218.324 15.944C219.514 14.6768 220.608 13.4096 221.607 12.1424C222.644 10.8368 223.565 9.5312 224.372 8.2256C225.178 6.92 225.812 5.6144 226.272 4.3088C226.772 3.0032 227.079 1.7552 227.194 0.564797L234.74 0.679996C234.432 1.9856 233.972 3.3104 233.357 4.6544C232.743 5.96 231.994 7.2848 231.111 8.6288C230.266 9.9344 229.287 11.2592 228.173 12.6032C227.098 13.9088 225.908 15.2528 224.602 16.6352C223.335 17.9792 221.991 19.3616 220.57 20.7824L230.362 40.9424L222.932 41.1728ZM248.519 41.576C246.714 41.576 245.082 41.5376 243.623 41.4608C242.202 41.4224 240.839 41.3648 239.533 41.288C238.227 41.2112 236.903 41.1152 235.559 41L242.01 0.622396C244.122 0.430397 246.08 0.295997 247.885 0.219198C249.728 0.142397 251.571 0.103996 253.415 0.103996C255.527 0.103996 257.447 0.315196 259.175 0.737595C260.903 1.16 262.439 1.7936 263.783 2.6384C265.165 3.4448 266.317 4.5008 267.239 5.8064C268.199 7.0736 268.928 8.5712 269.427 10.2992C269.927 11.9888 270.176 13.928 270.176 16.1168C270.176 20.1488 269.677 23.7584 268.679 26.9456C267.68 30.0944 266.24 32.7632 264.359 34.952C262.477 37.1024 260.211 38.7536 257.562 39.9056C254.912 41.0192 251.898 41.576 248.519 41.576ZM249.095 36.2768C250.784 36.2768 252.359 36.008 253.818 35.4704C255.315 34.9328 256.659 34.1264 257.85 33.0512C259.04 31.9376 260.039 30.5744 260.845 28.9616C261.69 27.3488 262.323 25.4864 262.746 23.3744C263.207 21.2624 263.437 18.9008 263.437 16.2896C263.437 14.792 263.264 13.4672 262.919 12.3152C262.611 11.1248 262.151 10.1072 261.536 9.2624C260.96 8.4176 260.25 7.7264 259.405 7.1888C258.599 6.6512 257.696 6.248 256.698 5.9792C255.699 5.7104 254.643 5.576 253.53 5.576C252.839 5.576 252.128 5.5952 251.399 5.6336C250.707 5.6336 250.055 5.6528 249.44 5.6912C248.826 5.7296 248.288 5.768 247.827 5.8064L242.989 36.0464C243.719 36.0848 244.391 36.1232 245.005 36.1616C245.619 36.2 246.234 36.2384 246.848 36.2768C247.501 36.2768 248.25 36.2768 249.095 36.2768Z" fill="#FF0000"/>
</svg>
