<?xml version="1.0" encoding="UTF-8"?>
<svg width="160px" height="50px" viewBox="0 0 160 50" version="1.1" xmlns="http://www.w3.org/2000/svg" xmlns:xlink="http://www.w3.org/1999/xlink">
    <title>Group 108</title>
    <defs>
        <polygon id="path-1" points="0 -1.13686838e-13 7.85200304 -1.13686838e-13 7.85200304 20.968 0 20.968"></polygon>
        <polygon id="path-3" points="0 48.987 158.638 48.987 158.638 0 0 0"></polygon>
    </defs>
    <g id="Page-1" stroke="none" stroke-width="1" fill="none" fill-rule="evenodd">
        <g id="NAS_GUIDELINES" transform="translate(-654.000000, -28.000000)">
            <g id="Group-108" transform="translate(654.905000, 28.347000)">
                <path d="M34.889,38.542 C34.336,36.152 33.01,34.104 31.561,32.987 L31.501,32.941 L31.437,32.982 L31.312,33.066 L31.363,33.15 C32.791,35.595 33.003,36.292 33.472,38.324 C33.81,39.787 33.974,41.472 33.866,43.505 C33.841,44.022 33.797,44.559 33.734,45.122 L33.724,45.208 L33.985,45.291 L34.027,45.217 C34.733,43.946 35.073,42.618 35.141,41.319 C35.191,40.369 35.095,39.431 34.889,38.542" id="Fill-62" fill="#000000"></path>
                <path d="M31.369,38.601 C31.057,36.999 30.451,35.409 29.691,33.918 L29.652,33.84 L29.566,33.866 L29.518,33.882 L29.426,33.911 L29.447,34.005 C29.55,34.47 29.601,34.961 29.693,35.437 C30.051,37.278 30.276,39.08 30.182,40.868 C30.059,43.211 29.392,45.537 27.755,47.929 L27.706,48.003 L27.913,48.197 L27.983,48.142 C30.422,46.237 31.457,43.874 31.585,41.422 C31.633,40.489 31.551,39.543 31.369,38.601" id="Fill-64" fill="#000000"></path>
                <path d="M27.622,34.249 L27.609,34.16 L27.369,34.158 L27.363,34.258 C27.206,36.848 27.05,39.383 26.203,41.801 C25.355,44.219 23.818,46.528 20.877,48.684 L20.805,48.736 L20.929,48.987 L21.015,48.962 C24.643,47.887 26.518,45.528 27.354,42.786 C27.693,41.681 27.868,40.514 27.929,39.343 C28.021,37.602 27.863,35.845 27.622,34.249" id="Fill-66" fill="#000000"></path>
                <path d="M25.32,33.787 L25.294,33.896 C24.631,36.628 22.458,43.779 14.422,47.063 L14.335,47.1 L14.415,47.38 L14.508,47.364 C18.669,46.685 21.29,45.005 22.932,42.648 C24.573,40.291 25.237,37.285 25.549,33.946 L25.557,33.862 L25.32,33.787 Z" id="Fill-68" fill="#000000"></path>
                <path d="M23.479,32.826 L23.425,32.934 C21.625,36.363 16.9,42.085 8.67,43.158 L8.578,43.171 L8.58,43.461 L8.673,43.472 C9.028,43.511 9.376,43.537 9.716,43.556 C10.485,43.597 11.214,43.584 11.906,43.522 C15.522,43.207 18.118,41.595 19.976,39.559 C21.835,37.522 22.96,35.065 23.658,33.044 L23.684,32.971 L23.479,32.826 Z" id="Fill-70" fill="#000000"></path>
                <path d="M22.007,31.367 L21.924,31.456 C20.055,33.426 15.997,37.489 8.831,37.868 C8.13,37.904 7.4,37.905 6.639,37.866 C5.822,37.823 4.967,37.732 4.077,37.589 L3.987,37.573 L3.901,37.847 L3.985,37.886 C5.955,38.815 7.797,39.276 9.507,39.367 C9.924,39.39 10.333,39.389 10.733,39.369 C15.813,39.1 19.581,35.531 22.12,31.628 L22.161,31.564 L22.007,31.367 Z" id="Fill-72" fill="#000000"></path>
                <path d="M21.024,29.528 L20.915,29.606 C19.297,30.74 15.666,32.703 10.646,32.792 C10.198,32.798 9.737,32.792 9.265,32.767 C6.814,32.637 4.06,32.043 1.058,30.698 L0.975,30.661 L0.823,30.907 L0.895,30.965 C3.99,33.437 6.98,34.483 9.71,34.625 C10.008,34.64 10.302,34.645 10.593,34.64 C15.132,34.561 18.842,32.072 21.07,29.817 L21.118,29.77 L21.024,29.528 Z" id="Fill-74" fill="#000000"></path>
                <path d="M20.634,27.5 L20.507,27.539 C19.93,27.715 17.554,28.36 14.088,28.3 C13.823,28.296 13.553,28.286 13.279,28.272 C9.447,28.071 4.714,26.865 0.284,23.134 L0.211,23.071 L0,23.276 L0.059,23.351 C3.734,27.993 7.571,29.63 11.162,29.817 L11.168,29.817 C11.33,29.826 11.491,29.831 11.653,29.834 C14.965,29.892 18.033,28.781 20.58,27.793 L20.652,27.765 L20.634,27.5 Z" id="Fill-76" fill="#000000"></path>
                <path d="M20.728,25.441 C20.178,25.443 19.541,25.415 18.844,25.377 C18.753,25.372 18.662,25.366 18.571,25.361 C18.478,25.358 18.386,25.352 18.292,25.347 C14.03,25.12 7.684,23.781 1.856,15.707 L1.803,15.633 L1.55,15.763 L1.579,15.847 C2.857,19.775 4.943,22.282 7.332,23.836 C9.721,25.39 12.408,25.989 14.895,26.118 L14.906,26.12 C17.125,26.237 19.175,25.984 20.733,25.705 L20.802,25.691 L20.861,25.441 L20.728,25.441 Z" id="Fill-78" fill="#000000"></path>
                <path d="M21.554,23.502 C19.273,22.837 16.382,22.059 13.497,20.02 C10.611,17.981 7.727,14.682 5.468,8.961 L5.435,8.876 L5.346,8.897 L5.157,8.942 L5.164,9.033 C5.742,15.366 8.621,18.92 11.958,20.937 C15.295,22.957 19.066,23.456 21.483,23.755 L21.55,23.764 L21.685,23.539 L21.554,23.502 Z" id="Fill-80" fill="#000000"></path>
                <path d="M22.916,21.891 C18.749,19.41 13.096,15.34 11.535,3.218 L11.522,3.124 L11.429,3.127 L11.229,3.131 L11.222,3.227 C11.202,3.482 11.186,3.734 11.174,3.982 C10.874,9.675 12.27,13.733 14.499,16.604 C16.726,19.477 19.781,21.157 22.787,22.12 L22.844,22.139 L23.038,21.963 L22.916,21.891 Z" id="Fill-82" fill="#000000"></path>
                <g id="Group-86" transform="translate(16.942997, 0.000000)">
                    <mask id="mask-2" fill="white">
                        <use xlink:href="#path-1"></use>
                    </mask>
                    <g id="Clip-85"></g>
                    <path d="M7.74900304,20.749 C5.48000304,18.449 0.547003041,12.124 1.10200304,1.528 C1.12600304,1.074 1.16000304,0.614 1.20400304,0.145 L1.21400304,0.048 L1.11700304,0.032 L0.916003041,-2.27373675e-13 L0.894003041,0.096 C0.685003041,1.014 0.515003041,1.892 0.382003041,2.731 C0.201003041,3.872 0.088003041,4.943 0.035003041,5.947 C-0.196996959,10.374 0.746003041,13.541 2.21900304,15.892 C3.69300304,18.241 5.69400304,19.77 7.56400304,20.939 L7.61300304,20.968 L7.85200304,20.856 L7.74900304,20.749 Z" id="Fill-84" fill="#000000" mask="url(#mask-2)"></path>
                </g>
                <path d="M117.22,24.443 L117.22,26.479 C116.303,26.985 115.261,27.245 113.916,27.245 C110.741,27.245 108.895,25.414 108.895,22.261 C108.895,19.477 110.367,17.181 113.356,17.181 C116.921,17.181 117.927,19.626 117.927,22.988 L111.28,22.988 C111.392,24.537 112.477,25.414 114.023,25.414 C115.241,25.414 116.284,24.966 117.22,24.443 M111.28,21.269 L115.539,21.269 C115.461,20.056 114.903,19.013 113.502,19.013 C112.105,19.013 111.392,19.982 111.28,21.269" id="Fill-87" fill="#000000"></path>
                <path d="M77.746,24.443 L77.746,26.479 C76.831,26.985 75.787,27.245 74.442,27.245 C71.269,27.245 69.42,25.414 69.42,22.261 C69.42,19.477 70.897,17.181 73.883,17.181 C77.448,17.181 78.457,19.626 78.457,22.988 L71.81,22.988 C71.922,24.537 73.006,25.414 74.556,25.414 C75.768,25.414 76.813,24.966 77.746,24.443 M71.81,21.269 L76.065,21.269 C75.993,20.056 75.433,19.013 74.033,19.013 C72.633,19.013 71.922,19.982 71.81,21.269" id="Fill-89" fill="#000000"></path>
                <path d="M27.74,27.023 L32.816,13.992 L35.768,13.992 L40.881,27.023 L37.986,27.023 L36.869,24.032 L31.585,24.032 L30.448,27.023 L27.74,27.023 Z M36.141,21.978 L34.255,16.603 L32.333,21.978 L36.141,21.978 Z" id="Fill-91" fill="#000000"></path>
                <mask id="mask-4" fill="white">
                    <use xlink:href="#path-3"></use>
                </mask>
                <g id="Clip-94"></g>
                <polygon id="Fill-93" fill="#000000" mask="url(#mask-4)" points="137.442 15.648 139.945 15.648 139.945 13.258 137.442 13.258"></polygon>
                <path d="M41.876,30.94 L41.876,17.404 L44.266,17.404 L44.266,18.768 C44.864,17.835 45.815,17.182 47.291,17.182 C50.239,17.182 51.323,19.535 51.323,22.185 C51.323,24.82 50.239,27.246 47.233,27.246 C46.171,27.246 45.292,26.985 44.413,25.918 L44.414,30.94 L41.876,30.94 Z M46.636,19.123 C45.032,19.123 44.395,20.841 44.395,22.185 C44.395,23.546 44.939,25.302 46.598,25.302 C48.244,25.302 48.71,23.508 48.71,22.185 C48.71,20.897 48.262,19.123 46.636,19.123 L46.636,19.123 Z" id="Fill-95" fill="#000000" mask="url(#mask-4)"></path>
                <path d="M52.607,30.94 L52.607,17.404 L55,17.404 L55,18.768 C55.595,17.835 56.547,17.182 58.022,17.182 C60.972,17.182 62.056,19.535 62.056,22.185 C62.056,24.82 60.972,27.246 57.966,27.246 C56.903,27.246 56.025,26.985 55.149,25.918 L55.149,30.94 L52.607,30.94 Z M57.368,19.123 C55.761,19.123 55.128,20.841 55.128,22.185 C55.128,23.546 55.669,25.302 57.331,25.302 C58.974,25.302 59.44,23.508 59.44,22.185 C59.44,20.897 58.993,19.123 57.368,19.123 L57.368,19.123 Z" id="Fill-96" fill="#000000" mask="url(#mask-4)"></path>
                <path d="M63.366,27.023 L63.366,17.404 L65.586,17.404 L65.586,19.587 C65.737,18.693 66.763,17.182 68.256,17.182 C68.5,17.182 68.761,17.182 69.025,17.256 L69.025,19.778 C68.797,19.647 68.351,19.57 67.9,19.57 C65.866,19.57 65.866,22.112 65.866,23.493 L65.866,27.023 L63.366,27.023 Z" id="Fill-97" fill="#000000" mask="url(#mask-4)"></path>
                <path d="M79.775,27.023 L79.775,17.404 L82.145,17.404 L82.145,18.713 C82.97,17.612 84.031,17.182 85.336,17.182 C87.615,17.182 88.606,18.787 88.606,20.952 L88.606,27.023 L86.103,27.023 L86.103,21.885 C86.103,20.714 86.085,19.123 84.478,19.123 C82.668,19.123 82.275,21.085 82.275,22.317 L82.275,27.023 L79.775,27.023 Z" id="Fill-98" fill="#000000" mask="url(#mask-4)"></path>
                <path d="M91.301,24.125 L91.301,19.234 L89.454,19.234 L89.454,17.404 L91.301,17.404 L91.301,15.48 L93.804,14.678 L93.804,17.404 L96.026,17.404 L96.026,19.234 L93.804,19.234 L93.804,23.715 C93.804,24.538 94.027,25.302 94.982,25.302 C95.426,25.302 95.856,25.211 96.117,25.04 L96.193,27.022 C95.672,27.169 95.091,27.245 94.345,27.245 C92.384,27.245 91.301,26.032 91.301,24.125" id="Fill-99" fill="#000000" mask="url(#mask-4)"></path>
                <path d="M108.293,17.5 L108.069,19.477 C107.624,19.274 107.137,19.123 106.37,19.123 C104.823,19.123 103.834,20.356 103.834,22.167 C103.834,23.938 104.671,25.302 106.426,25.302 C107.137,25.302 107.923,25.04 108.349,24.856 L108.463,26.928 C107.734,27.152 106.99,27.246 105.959,27.246 C102.808,27.246 101.221,25.098 101.221,22.167 C101.221,19.385 102.863,17.182 105.866,17.182 C106.874,17.182 107.604,17.292 108.293,17.5" id="Fill-100" fill="#000000" mask="url(#mask-4)"></path>
                <path d="M125.309,17.536 L125.14,19.421 C124.375,19.159 123.815,19.013 122.901,19.013 C122.227,19.013 121.424,19.253 121.424,20.075 C121.424,21.606 125.773,20.635 125.773,24.108 C125.773,26.347 123.779,27.245 121.743,27.245 C120.791,27.245 119.821,27.077 118.906,26.833 L119.056,24.78 C119.84,25.172 120.663,25.414 121.52,25.414 C122.156,25.414 123.164,25.172 123.164,24.238 C123.164,22.353 118.813,23.642 118.813,20.168 C118.813,18.095 120.624,17.181 122.585,17.181 C123.76,17.181 124.528,17.367 125.309,17.536" id="Fill-101" fill="#000000" mask="url(#mask-4)"></path>
                <path d="M158.174,17.536 L158.005,19.421 C157.241,19.159 156.681,19.013 155.766,19.013 C155.092,19.013 154.289,19.253 154.289,20.075 C154.289,21.606 158.638,20.635 158.638,24.108 C158.638,26.347 156.644,27.245 154.609,27.245 C153.657,27.245 152.686,27.077 151.77,26.833 L151.921,24.78 C152.704,25.172 153.527,25.414 154.384,25.414 C155.021,25.414 156.028,25.172 156.028,24.238 C156.028,22.353 151.677,23.642 151.677,20.168 C151.677,18.095 153.489,17.181 155.45,17.181 C156.625,17.181 157.392,17.367 158.174,17.536" id="Fill-102" fill="#000000" mask="url(#mask-4)"></path>
                <path d="M127.054,27.023 L127.054,13.821 L129.555,13.019 L129.555,18.713 C130.23,17.779 131.311,17.182 132.617,17.182 C134.895,17.182 135.887,18.787 135.887,20.952 L135.887,27.023 L133.385,27.023 L133.385,21.885 C133.385,20.714 133.365,19.123 131.761,19.123 C129.947,19.123 129.555,21.085 129.555,22.317 L129.555,27.023 L127.054,27.023 Z" id="Fill-103" fill="#000000" mask="url(#mask-4)"></path>
                <path d="M141.501,30.94 L141.501,17.404 L143.89,17.404 L143.89,18.768 C144.491,17.835 145.44,17.182 146.916,17.182 C149.865,17.182 150.948,19.535 150.948,22.185 C150.948,24.82 149.865,27.246 146.861,27.246 C145.798,27.246 144.92,26.985 144.041,25.918 L144.041,30.94 L141.501,30.94 Z M146.264,19.123 C144.656,19.123 144.023,20.841 144.023,22.185 C144.023,23.546 144.564,25.302 146.224,25.302 C147.868,25.302 148.334,23.508 148.334,22.185 C148.334,20.897 147.885,19.123 146.264,19.123 L146.264,19.123 Z" id="Fill-104" fill="#000000" mask="url(#mask-4)"></path>
                <polygon id="Fill-105" fill="#000000" mask="url(#mask-4)" points="97.509 27.023 100.011 27.023 100.011 17.404 97.509 17.404"></polygon>
                <polygon id="Fill-106" fill="#000000" mask="url(#mask-4)" points="97.509 15.648 100.011 15.648 100.011 13.258 97.509 13.258"></polygon>
                <polygon id="Fill-107" fill="#000000" mask="url(#mask-4)" points="137.442 27.023 139.945 27.023 139.945 17.404 137.442 17.404"></polygon>
            </g>
        </g>
    </g>
</svg>