<svg width="452" height="200" xmlns="http://www.w3.org/2000/svg">
  <path d="M117.138 33.061c.804 2.206 2.403 3.002 3.625 2.431-2.728-.315-.52-4.98-4.029-4.98-.198 0-.39.023-.565.06-.598-.629-1.279-.891-2.283-.891-1.489 0-4.043 1.433-4.043 4.396 0 6.372 7.403 6.935 7.403 12.57 0 1.65-1.244 2.67-2.637 2.67-1.244 0-2.246-1.399-3.292-3.586-.502-1.043-1.577-2.466-2.716-3.952.336.24.718.377 1.098.387a1.4 1.4 0 0 0 1.028-.378c.265-.247.419-.602.434-.999v-.056c0-.504-.216-1.023-.6-1.435-.404-.423-.931-.673-1.45-.685a1.402 1.402 0 0 0-1.029.374 1.4 1.4 0 0 0-.433 1v.053c0 .22.039.439.117.652-1.594-2.08-3.075-4.122-3.075-5.243 0-.985.683-1.854 1.523-2.897.039.02.289.164.289.164l.223-.25c.296-.326.918-1.004 2.196-2.375l.076-.083h-.005l.309-.324-.796-.639c.21-.48.392-1 .531-1.565.248 1.024.772 1.675 1.499 1.47-.48-1.06.487-2.476-.15-5.067.605.999 1.477 1.528 2.104 1.344-1.638-1.457.49-3.482-1.648-6.629.703.237 1.163.1 1.472-.247-1.95-.27-1.06-2.76-4.48-3.647.85-.15 1.35-.646 1.223-1.097-.901.651-1.692-1.212-4.66-1.166-.18-1.109-1.208-2.275-2.371-2.838.218.86.017 1.633-.21 2.278l-9.657-9.48c-.279-.267-.436-.328-.514-.233-.08.098-.07.272.11.468l8.29 10.396c-.627.218-1.24.477-1.88.712a1.125 1.125 0 0 0-.723 1.075c-1.533.77-2.885 1.712-3.559 2.322-.511.468-.916.578-.467 1.623.173.397-.358 1.377.842.66.789-.473 2.574-1.458 2.838-.838.14.325-.742.744-1.349.974-.605.235-1.259.7-1.166.933.093.23.576-.015.608.23.034.28.225.52.467.52.24 0 .551-.505.747-.336.194.167-.095 1.3-.291 1.59.94-.12 1.543-1.014 1.57-1.71.022-.7.213-.869.357-.965.147-.096.314.747.123 1.252.494-.106 1.011-.757.94-1.964.25-.199.504-.35.695-.35.316 0 .94.869 1.835.869 1.64 0 2.554-1.33 2.65-1.952.075-.507.039-.997-.236-1.369.59.473.78 1.212.78 1.766 0 2.326-4.11 3.421-5.797 5.027-.064.056-.123.116-.187.174l-1.93-.744-.13.424c-.004.024-.024.1-.112.364-.2.664-.622 2.038-.879 2.831-.002 0-.103.319-.103.319l.172.1c-1.146 1.521-2.065 3.223-2.273 4.976a16.807 16.807 0 0 0-1.406-1.285 2.31 2.31 0 0 0 .103-.532c.027-.521-.132-1.014-.44-1.361a1.296 1.296 0 0 0-.89-.448 1.293 1.293 0 0 0-.94.345 1.183 1.183 0 0 0-.166.181c-.07-.054-.138-.11-.206-.162-.637-.49-1.425-1.07-1.905-1.596-.201-.223-.407-.346-.838-.346-.164 0-.57-.02-.857-.02-.284 0-.45.22-.776.51-.155.134-.598.482-1.097.862.237.24.472.49.702.747.123.14.245.284.365.43.135-.102.248-.19.336-.259.203-.164.47-.206.715-.206.247 0 .595.184.837.552.174.264 1.734 2.311 3.03 3.736-.145.05-.282.101-.41.152-.553.233-1.802.187-2.355.142-.556-.046-.664-.183-1.041.407a6.941 6.941 0 0 1-.512.718c-.183.227-.33.482.064 1.146.57.964 1.984 3.5 2.454 4.645.467 1.144 1.023 1.328 1.922 1.695.901.37 2.437 1.251 2.618 1.452l.059-.877c-.265-.267-1.127-.59-1.45-.705-.326-.117-.411-.257-.02-.257.385 0 1.47.387 2.231.695-.23-.86-1.048-1.8-1.537-2.331-.652-.186-1.31-.186-1.575.02a.356.356 0 0 1-.367.409c-.253 0-.422-.218-.346-.45.084-.26.47-.346.387-.838-.08-.49-.693-.57-1.085-.615-.548-.796-1.187-1.961-1.474-2.434-.284-.47-.113-.737.083-.899.473-.387 1.453.206 3.417.328.68.042 1.547.086 2.429.128.257 2.277 1.17 4.447 4.344 5.236 1.553.384 3.147 1.52 3.696 3.01-6.336-.111-7.33 2.358-7.33 4.689 0 2.647 2.233 2.503 2.233 4.489 0 1.731-5.328 2.449-6.937 2.686-1.364.201-2.143.502-2.797 1.161-.651.654-1.317 1.286-2.508 2.473 0 0 .507.118 1.012.088l.901-1.165c.264-.387.448-.713.627-.683.179.032.056.325-.152.744l-.742 1.247c3.127.213 3.333-.948 3.333-1.426 0-.475-.774-.8-.323-1.1.443-.298.83-.092 1.187.326.356.42.476.774 1.34.446 0 0 6.815-2.824 7.677-3.215.774-.348.554-.686.091-1.07-.51-.42-.595-1.103-.595-1.815 0-2.065 1.241-2.701 3.46-2.657a8.044 8.044 0 0 0-.068.992c0 3.217 4.863 6.364 6.183 6.364.583 0 1.376-.436 1.428 1.501.034 1.43.32 2.437.066 4.088-.257 1.645-.735 1.898-1.72 2.593-.989.696-1.927 2.873-2.343 3.336.439.286.914.325 1.279-.738.303-.876.65-1.5 1.033-1.714-.385.967-.669 2.388-.85 2.816 1.244.216 3.26-.918 3.26-1.795 0-.874-.696-.805-.696-1.39 0-.26.314-.547.696-.547.497 0 .876.397.913.58.549-.293.899-.84.88-2.12-.01-.5-.03-1.021-.055-1.558.035.073.066.142.11.206.24.367.64.59 1.125.632.455.039.938-.093 1.359-.37.487-.323.828-.793.928-1.305.024-.105.034-.213.034-.314 0-.279-.076-.54-.223-.764a1.434 1.434 0 0 0-.913-.602c-.512-.108-1.082.02-1.57.338-.453.294-.776.727-.901 1.195-.1-1.751-.23-3.404-.179-4.068.071-.984.11-1.423-.223-1.57-.328-.146-.693.405-1.165.405-.48 0-1.908-1.32-1.908-2.709 0-1.393 1.504-3.186 1.428-5.089-.027-.595.347-.906.583-.362.291.649.717 1.53 1.364 2.248-.4 2.395 2.235 4.729 4.4 2.997-1.072.157-1.807-.793-2.282-1.75.186.031.38.048.583.048.107 0 .218 0 .325-.01.76.94 3.174.862 3.801-1.471-.421.49-1.295.86-1.922.778.908-.705 1.383-1.86 1.383-3.102 0-6.074-7.368-6.781-7.368-12.311 0-2.047 1.797-3.367 3.039-3.367.48 0 .847.147 1.146.367-.475.482-.732 1.215-.69 2.108.193 4.367 7.321 4.149 7.415 6.248.8-3.162-4.516-2.185-4.71-6.446M98.164 16.308c.345-.659 0-1.663 1.205-1.663.593 0 1.124.593 1.84.823-1.164.098-2.212.36-3.045.84m-6.514 13.38c-.02.351-.162.674-.382.873a.667.667 0 0 1-.47.183c-.414-.024-.737-.497-.737-1.055v-.088c.02-.353.154-.669.377-.867a.67.67 0 0 1 .48-.186c.21.015.362.137.453.237.196.22.301.559.279.904m21.056 30.66c.073-.34.316-.678.658-.906.348-.228.75-.318 1.093-.247.156.037.377.122.516.333a.78.78 0 0 1 .1.6c-.07.34-.313.68-.655.906-.6.392-1.323.353-1.61-.086a.8.8 0 0 1-.102-.602m-4.425-20.346a.778.778 0 0 1 .235-.563.795.795 0 0 1 .578-.203c.347.01.724.195 1.006.49.28.3.443.685.431 1.038-.007.156-.051.387-.237.556v.01a.813.813 0 0 1-.578.2c-.348-.01-.723-.193-1.004-.492-.282-.301-.444-.688-.431-1.033M96.185 26.275c.346-1.07.995-3.196.995-3.196l1.121.436c-.328.128-.725.439-1.072.764.25.113.71.132 1.016-.076l-.448 1.127c-.103-.182-.419-.588-.735-.657-.23.906.338 1.242.752 1.455.683.35 1.129.407 1.317.093.216-.39-.232-.93-.808-.686-.061-.59.27-.903.657-.903.31 0 .555.281.641.663-.039-.955.39-1.7 1.271-1.976.323.93.059 1.555-.639 2.229.365-.147.786-.125.958.13.213.325.134.77-.385 1.05-.12-.615-.83-.664-1.036-.27-.2.395.105.77.735 1.12.732.404 1.317.166 1.71-.473-.246-.08-.662-.032-1.051.213l.749-1.396c.037.206.157.554.473.82.11-.31.274-.861.044-1.356l1.609.928c-.544.051-.938.463-1.149.72.387.135.747.07.945 0l-.837 1.344c.015-.462-.147-.842-.34-1.013-.356.658-.272 1.283.443 1.714.624.372 1.1.448 1.337.078.242-.375-.157-.965-.745-.764-.024-.59.324-.88.71-.857.314.022.54.374.598.761.228-.938.644-1.484 1.607-1.667.2.903-.226 1.645-1.076 2.093.375-.122.742-.049.894.22.194.339.09.777-.45 1.022-.079-.62-.772-.74-1.002-.358-.179.321.096.679.742 1.095.392.255.963.576 1.636-.073-.22-.245-.732-.313-.935-.313l.749-.95c-.027.37.22.756.443.918.11-.468.179-.965.123-1.31l.942.751s-1.518 1.624-2.272 2.462zm9.987 25.168c-.409.57-1.1.776-1.548.458-.45-.316-.487-1.036-.08-1.607.399-.568 1.09-.779 1.542-.463.45.321.488 1.041.086 1.612m2.907-4.597c-.404.57-1.095.774-1.543.455-.45-.32-.482-1.043-.08-1.608.408-.571 1.096-.774 1.545-.458.453.318.482 1.043.078 1.611m-17.906-11.25c-.374.132-.67.39-.83.72-.377.79.096 1.804 1.053 2.262.524.253 1.105.3 1.597.128.377-.135.671-.385.83-.72.16-.328.172-.72.042-1.097-.174-.49-.573-.914-1.1-1.166-.519-.25-1.1-.299-1.592-.127m.495 2.414c-.646-.31-.982-.945-.752-1.42a.764.764 0 0 1 .468-.397c.336-.117.735-.08 1.112.1.367.177.656.478.771.804a.813.813 0 0 1-.014.62.824.824 0 0 1-.47.394c-.331.115-.74.076-1.115-.1m11.596 17.547c-.37.36-.59.9-.602 1.476v.051c0 .563.198 1.097.551 1.457.272.287.632.451.997.456.37 0 .73-.142 1.018-.416.373-.36.59-.904.605-1.482a2.19 2.19 0 0 0-.414-1.345c-.293-.386-.695-.604-1.133-.62-.37 0-.735.145-1.022.422m.96 2.804h-.002a.77.77 0 0 1-.553-.257c-.242-.252-.382-.647-.372-1.056.005-.413.156-.79.409-1.03a.779.779 0 0 1 .57-.248c.522.01.938.603.921 1.32-.005.407-.154.794-.409 1.036a.793.793 0 0 1-.563.235m-.015.637h-.002zM92.557 25.002c-.77.598-.994 1.6-.502 2.236.495.634 1.518.664 2.287.069.419-.323.693-.781.752-1.254a1.319 1.319 0 0 0-.252-.98 1.29 1.29 0 0 0-.877-.484c-.473-.064-.984.09-1.408.413m-.135 1.445c0-.32.194-.69.524-.945.284-.218.632-.328.936-.289.14.017.328.078.46.25a.684.684 0 0 1 .125.512c-.04.303-.23.614-.514.832-.483.375-1.122.395-1.403.044a.657.657 0 0 1-.128-.404m13.744 33.221a1.437 1.437 0 0 0-.613.916c-.078.431.057.87.382 1.237.304.338.742.578 1.237.668.495.086.99.017 1.393-.193.431-.23.71-.595.787-1.029.159-.86-.571-1.709-1.617-1.903-.568-.1-1.14 0-1.57.304m1.12 2.2c-.708-.128-1.203-.655-1.11-1.171a.818.818 0 0 1 .35-.512c.292-.198.691-.27 1.098-.198.636.112 1.116.58 1.116 1.048a.998.998 0 0 1-.007.122c-.095.52-.744.835-1.447.71m8.1-4.475a2.476 2.476 0 0 0 2.476 2.468 2.472 2.472 0 0 0 2.466-2.468 2.472 2.472 0 0 0-2.466-2.471 2.476 2.476 0 0 0-2.476 2.47m.632 0c0-1.013.827-1.836 1.844-1.836 1.016 0 1.831.823 1.831 1.837a1.835 1.835 0 0 1-1.831 1.839 1.846 1.846 0 0 1-1.844-1.84M59.371 43.27c.228-.61-.899-1.305-1.029-2.184-.127-.88-.022-1.715-1.028-2.893-.985-1.15-4.415-4.812-5.446-5.982.26-.024.869-.164 1.503.433.37.348 1.102 1.046 1.785 1.717.909-2.31 2.03-4.04 3.635-5.843.203-.233.413-.458.627-.676-.59.181-1.5.318-2.028.67-.042-1.006.037-1.821-.652-2.458.262-1.408.035-3.11-3.122-5.201 1.611.387 2.567 1.849 3.8.727-1.106-.032-1.133-2.447-5.13-4.457 1.528-.032 2.721 2.437 4.487 1.036-1.666-.196-2.219-3.157-5.224-4.075 1.039.117 2.118.627 3.01-.583-1.038.245-1.653-.718-2.775-.803.424-1.298.321-2.099-.125-3.066-.786.054-1.587.294-2.164.769-.089-.713-.838-.755-1.5-.703.035.308.182.757-.158.818-.54.105-2.322.585-3.703 1.119-1.379.536-2.956 1.516-3.411 1.832-.28.19-.52-.262-.691-.47-.487.413-.96.95-.607 1.488-.767.068-1.612.27-2.332.838 0 .891.74 1.756 1.84 2.24-1.854 1.842-.177 3.547-1.808 5.156 2.297.086 1.896-3.113 3.054-3.559-.118 2.251-1.372 2.65-1.372 5.075 0 1.295.77 2.7.079 3.553 1.922-.529 1.415-4.775 2.613-6.054.206.728.086 1.435-.16 2.163-.673 1.98.074 4.692-.972 5.57 1.962-.19 2.192-3.335 3.809-4.49-1.389 2.833-2.812 8.86-4.879 11.882-3.342 4.506-5.307 10.008-8.373 10.008-1.354 0-2.37-.83-2.37-2.539 0-5.126 8.792-8.652 8.792-14.113 0-2.427-1.984-3.36-3.226-3.36-.837 0-1.846.414-2.691 1.112-.365-.145-.727-.228-1.038-.228-3.108 0-2.28 5.588-4.986 5.532 1.07.603 2.924-.57 4.01-2.135-.455 3.624-5.666 2.66-5.267 7.01.733-3.405 9.04-2.906 9.04-8.073 0-.586-.297-1.073-.713-1.457.624-.4 1.212-.549 1.755-.549.992 0 1.903.742 1.903 2.204 0 4.58-8.74 8.44-8.74 14.057 0 .95.277 1.741.725 2.36-.612.263-1.247.14-1.773-.477-.051 1.447 2.018 2.358 3.318 1.634.29.1.59.161.906.183-.396 1.075-1.731 1.399-2.429 1.347 2.145 1.69 5.877-.526 5.672-2.437 1.702-1.368 2.78-3.717 4.013-5.262-.078.36-.144.715-.195 1.065-1.254 2.278-2.427 4.32-2.755 7.325-.275 2.512-1.543 4.775-3.309 4.775-.387 0-1.024-.504-1.325-.255-.548.473-.027.968-.027 1.435 0 .718-1.378 1.43-1.378 3.635 0 .996.578 2.184.36 2.843.563-.292 1.31-1.234 1.62-2.452.606 2.912-1.243 2.787.089 5.373.164-.857 1.019-1.21 1.54-.857.527.36.28.608-.107.997-.39.384-.745 2.317 1.02 2.204-.33-.218-.352-.73.522-.91 1.215-.246 1.573.31 2.868.31.8 0 1.021-1.046 1.656-1.046.634 0 .634.495.41.855 1.022-.277 1.213-.825 1.213-1.406 0-.575-.468-.935-.11-1.153.36-.223 1.545.024 1.075.987.61-.108.938-.549.938-1.296 0-.742-.855-1.182-1.653-1.045-.137-.47-.828-.718-1.462-.718-1.433 0-1.21 1.13-2.197 1.13-1.57 0-3.098-2.046-3.098-5.494 0-1.846 1.986-2.314 3.395-2.919 1.403-.607 3.871-2.12 5.346-4.601 1.158-1.938 1.192-4.063 1.043-6.58 1.981 1.136 2.214 2.77 2.214 3.962 0 1.54-.799 2.164-1.428 2.449-.534.244-.713.147-.767.46-.073.397.191.62.424.742.715.367.568 1.053.769 1.793.2.744.86 1.912 1.969 2.764.117-.458.086-1.192.02-2.15 1.525.75.303 3.808 3.261 3.808-.543-.31-.401-1.114-.088-1.227.316-.115.71.199 1.286.995.57.8.416.734 1.815.734 1.396 0 .771-.482 1.508-.482.745 0 .686.855.29 1.484 1.248-.38 1.625-1.325 1.204-2.302 1.097-.595 1.682.247 1.842.847 1.084-1.082 0-2.392-.85-2.483.027-.399-.348-.825-.801-.855a11.444 11.444 0 0 0-1.396-.029c-.512.03-.8.772-1.4.772-1.852 0-5.52-3.358-5.52-4.812 0-1.452 3.506-2.337 3.506-4.592 0-2.946-2.897-3.948-5.333-5.84.869-.975 3.406-1.206 4.841-.503.164-.82.69-.617.884-2.032.517 1.244-.017 2.316.51 2.845.409-.6 1.46-.511 1.393-2.054.32.967-.407 2.441.32 3.085.13-.79.6-.942.902-.942.299 0 .558.215.558.685 0 1.176-1.452.627-1.452 1.955 0 .558.708.749.708 1.114 0 .36-.58.918-1.286.448.235.512.7.965 1.305.965.645 0 1.333-.517 1.6-1.18.333.847.078 1.782-.527 1.907.64.318 2.162.015 1.986-1.932.86.144 1.308.725.799 1.76.705-.17 1.349-.514 1.349-1.268 0-.575-.627-.75-.348-1.499m-16.61-26.558c-.804.074-.782-.693-2.193-1.036.992-.203 2.268-.7 3.375-1.127.21.924-.169 2.072-1.183 2.163m5.677 6.017c-1.029.446-1.83-.458-2.028-1.073-.2-.622-.365-1.131-.125-1.366.446-.441.585-.781.318-1.332-.308-.632-.982-.331-1.702-.155.334-.605.36-1.036-.098-.98-.546.062-.555.948-.86.843-.305-.103-.131-.615-.131-.889.005-.372.245-.507.624-.676l2.983-1.131c.387-.14.651-.21.918.056.191.193.669.44.522.727-.147.29-.77-.343-1.207 0-.368.282-.047.568.614.767-.641.377-1.327.627-1.112 1.3.189.578.524.725 1.151.73.336 0 .576.487.858 1.07.289.58.374 1.643-.725 2.114m.178-8.317c-.798.627-1.86.051-2.34-.766 1.099-.454 2.37-.963 3.232-1.497-.794 1.22-.255 1.763-.892 2.263M46.807 6.84c.223.345.302.511.319.788-.172-.07-.37-.245-.595-.541l.117 1.332c.16-.237.29-.4.478-.48-.047.867-.397 1.227-.69 1.286a.565.565 0 0 1-.684-.443c-.074-.387.262-.63.602-.282.064-.8-.582-.789-.864-.45.333-.772.198-1.284-.487-1.698-.429.723-.248 1.195.296 1.746-.527-.27-1.004.184-.532.772.1-.512.549-.4.652.012.088.352-.247.803-.818.972-.823.252-1.087-.274-1.288-.72.176-.115.602-.076 1.07.225l-.394-1.305c-.191.465-.46.651-.786.793-.025-.382.252-1.143.252-1.143l-1.577.641s.73.348.98.642c-.334.125-.655.181-1.115-.022l.625 1.212c.127-.538.401-.864.612-.908.164.46.343 1.02-.417 1.418-.531.274-1.084.188-1.268-.128-.213-.362.03-.761.455-.463-.07-.754-.727-.744-.918-.178.007-.777-.193-1.244-1.009-1.46-.2.772.064 1.234.843 1.558-.441-.05-.914.389-.309.923 0-.487.406-.546.632-.218a.565.565 0 0 1-.184.793c-.255.164-.752.152-1.393-.44.193-.073.399-.047.678.015l-.845-1.039c.047.368.025.635-.049.803-.181-.208-.24-.384-.32-.788l-.647.575c.612.37 1.315.953 2.162 2.13.899-.56 2.503-1.334 3.5-1.74.996-.404 2.686-.97 3.717-1.195-.213-1.438-.115-2.341.061-3.032zm-6.63-1.782.46 1 .581-.696c.02.01.046.02.069.024.049.333.07.92.07 1.246a.73.73 0 1 0 1.07-.644 5.81 5.81 0 0 1-.802-.752.355.355 0 0 0 .034-.093l.97.088-.385-1.028-.725.614a.159.159 0 0 0-.036-.022l-.054-1.062-1.002.382.669.788a.243.243 0 0 0-.042.081zm3.652.788a.574.574 0 0 0 0-.806.578.578 0 0 0-.813 0 .58.58 0 0 0 .002.813.58.58 0 0 0 .81 0m1.296-.962a.577.577 0 0 0 0-.808.57.57 0 0 0-.813 0 .58.58 0 0 0 .002.813.575.575 0 0 0 .81 0m1.518.247a.568.568 0 0 0 0-.808.57.57 0 0 0-.808 0 .572.572 0 0 0 .808.808m.129 1.22a.575.575 0 0 0 .81 0 .571.571 0 1 0-.81-.806.573.573 0 0 0 0 .814m-6.506 1.058a.574.574 0 1 0 0-1.146.573.573 0 0 0 0 1.146m-1.524.101a.574.574 0 1 0 0-1.146.573.573 0 0 0 0 1.146m-.325.677a.573.573 0 1 0-1.145 0 .573.573 0 0 0 1.145 0m.2 1.526a.575.575 0 0 0-.576-.576.575.575 0 0 0-.568.576.572.572 0 0 0 1.143 0m38.261 41.168c.02.046.074.09.169.12.911.257 1.957-.426 2.515-.272-.72-.25-1.18.188-1.87.042.406 0 .834-.081.854-.189-.316.204-1.2-.142-1.577.088a.325.325 0 0 0-.071.07c-.28.06-.522.212-.522.42 0 .6 2.339.123 2.339.329 0 .161-.458.31-1.07.31-.47 0-1.276-.306-2.288-.053v-.01c.071-.172.287-.429.191-.544.086-.032.142-.1.142-.169a.272.272 0 0 0-.161-.073c.022-.049-.007-.086-.042-.125-.01 0-.027-.096-.049-.113a.833.833 0 0 0-.196-.132c-.098-.049-.161-.047-.206-.06-.022-.01-.107.023-.117.023-.047 0-.108 0-.115.046a.282.282 0 0 0-.15-.069.296.296 0 0 0-.024.245c-.083 0-.162.208-.238.184.03.059.054.083.076.086-.066.125-.095.264-.174.272a.4.4 0 0 0 .086.083 1.64 1.64 0 0 0-.041.57c-.14-.147-.356-.49-.5-.57-.135-.081-.137-.145-.137-.28 0-.115.054-.22.046-.33a.633.633 0 0 0-.032-.108c-.022-.073-.12-.127-.178-.115.032.024.068.051.073.12a.38.38 0 0 0-.051.061c-.027.032-.04.076.002.118.01.01.01.015.01.024a.138.138 0 0 1-.01.05c-.002.028-.01.016-.015 0-.027-.082-.07-.203-.142-.208h-.054c.002 0 .002-.01.002-.02 0-.083-.095-.149-.198-.047.022 0 .066.012.078.034a.487.487 0 0 0-.02.091c-.006.083.06.12.152.12.018 0 .03 0 .03.017.005.015.01.024.012.037.002.02-.002.017-.012.01-.157-.064-.22.01-.225.071 0 0-.002.047.005.064-.054.04-.071.118.034.182-.002-.032-.007-.083.03-.096.006 0 .016 0 .024-.01.014.015.041.037.041.039.01.01.035 0 .091-.034h.03l.046.032c.01.01.007.02.002.024-.103.1-.083.195.046.222.02 0 .027.012.027.03-.014.188-.262.151-.25-.04-.14.223.108.39.292.28.012-.012.017 0 .02 0 .01.034.024.064.063.069-.005-.012.007-.042.04-.044.012 0 .014.01.014.022.005.049.017.115.09.124-.012-.042 0-.076.023-.076.034 0-.002.292.27.449.046.159.178.247.325.232.044.115.112.223.093.223-.04 0-.363-.037-.45.01a.921.921 0 0 1-.3.103l-.017.022c.005-.01.007-.015.018-.022-.094.015-.182.01-.226-.051-.032-.044-.022-.088-.059-.157-.031-.044-.073-.076-.1-.078h-.078c-.05-.049-.162-.059-.211-.022.04.01.086.017.118.078-.01.024-.027.056-.03.064-.027.042-.007.106.186.174.012 0 .03.022.012.027-.031.015-.073.024-.107-.01-.081-.06-.09-.144-.184-.093-.002 0-.032.02-.059.03-.01 0-.014-.01-.024-.01-.086-.01-.22.1-.157.202a.163.163 0 0 1 .105-.093.27.27 0 0 0 .025.061c.012.1.059.184.26.044.024-.012.024.01.016.017-.049.083-.186.167-.075.24.002 0 .022.015.044.027-.007.01-.01.017-.01.022-.017.118.107.201.171.196-.03-.032-.078-.088-.061-.173.02.01.051.022.061.017.093-.04.05-.162.105-.196.018-.01.022 0 .022.012.01.049.032.156.152.15.11-.01.164-.109.155-.167-.002-.01 0-.012.01-.01.036.022.073.066.056.124.02 0 .064-.047.086-.086a.161.161 0 0 1-.05.199.278.278 0 0 0 .192-.196c.022.02.036.044.041.066.005 0 .005 0 .01-.01.04.022.118.027.233 0 .014 0 .02 0 .02.015-.013.042-.013.093.006.12 0-.012.035-.064.052-.064.032 0-.002.113.066.184.027-.292.186-.18.375-.302.022-.01.024 0 .02.015a.212.212 0 0 1-.084.095c.073 0 .282-.09.282-.198 0-.042.134-.166.173-.512h.076c.25-.02.363-.2.61-.213-.059.071-.083.243-.076.355.007.137.176.287.225.328.01.015.002.02-.007.022a.497.497 0 0 0-.183.05c-.201.132-.206-.302-.417-.22-.014 0-.046.033-.058.045-.09-.01-.204.096-.184.186a.23.23 0 0 1 .135-.08v.043c0 .037.007.07.08.07.042 0 .052-.02.084-.02.012 0 .027.01.027.023 0 .083-.27-.046-.216.18 0 .01.025.048.034.068-.01.064.052.132.167.095-.024-.017-.066-.046-.056-.083.02 0 .046.01.051.01.012 0 .025-.01.034-.037 0-.01 0-.012.007-.012.013 0 .022.012.022.022 0 .01-.02.027-.017.05 0 0 .015.06.022.065-.012.083.106.164.226.083-.032 0-.108-.012-.118-.054a.23.23 0 0 0 .059-.027c.02-.012.024-.046.024-.073 0-.024.013-.024.02-.024h.056c.027-.01.035 0 .04.02.026.042.088.093.166.061.142-.044.024-.169.137-.198.02 0 .056-.01.088 0 .113.029.201.05.23-.01.03-.05.018-.26-.105-.328-.07-.037.103-.483-.242-.69.164.038.678.11.766-.013.157.034.336.14.355.172.02.032.032.068-.014.093-.137.086-.115.132-.191.156h-.013c-.044-.044-.09-.112-.137-.137-.049-.029-.1-.01-.105 0-.076-.02-.184.01-.218.088a.288.288 0 0 1 .157-.01c-.005.012-.012.027-.012.034-.01.024.002.051.031.071h-.002.002c.005 0 .007.01.013.01.005.01.005.022-.013.022-.078-.015-.23-.024-.193.07l.017.058c-.054.044-.07.128-.034.174.012-.037.024-.056.098-.086.012.02.032.037.034.046.044.044.123-.076.206-.046.01 0 .017.01.007.015-.076.034-.155.088-.123.152l.027.05c-.027.057-.007.145.093.177-.01-.019-.027-.076-.012-.108.03 0 .076-.01.086-.01.154-.08.056-.183.11-.227.056-.054.127.093.25-.02.02-.015.044-.064.024-.118-.002-.01 0-.01.005-.015.032.034.06.073.12.044-.093-.08.01-.12.047-.181.007-.01.015-.017.027-.012.044.01.103-.01.164-.083-.069.012-.245-.091-.137-.132.154-.056.188-.145.117-.226-.122-.159-.377-.173-.384-.352h.23c.793 0 1.293-.218 1.28-.468-.029-.534-2.39.044-2.39-.345 0-.115.147-.206.331-.267m-1.714.078c.03.027.184.088.262.105-.122.024-.096.073-.169.066-.074 0-.11-.103-.093-.171m-.157-.081c-.04.054-.113.107-.171.049-.057-.054.002-.071-.064-.179.064.046.193.122.235.13m-.255.538c.025-.046.045-.083.067-.083.044 0 .073-.01.085-.052.02-.05-.027-.076-.076-.102.052-.02.076-.04.052-.064-.032-.027-.081.015-.088 0-.013-.027.024-.047.036-.061.022-.02.044-.01.071 0l.213.1c.022.02.04.03.04.06 0 .021.006.063-.015.072-.022 0-.017-.066-.054-.073-.034-.01-.034.024-.015.073-.051-.012-.098-.042-.122.01-.022.044-.017.071.02.105.014.022.001.061-.018.108-.02.047-.078.12-.152.078a.118.118 0 0 1-.044-.169m2.876-3.83c.022.049.07.091.169.12.916.262 1.959-.426 2.51-.267-.72-.252-1.173.181-1.866.042.406 0 .832-.086.855-.198-.316.208-1.203-.133-1.578.1a.244.244 0 0 0-.056.042c-.504-.012-.913-.012-.913.319 0 .71 1.9.291 2.498.291.592 0 .524.064.524.176 0 .17-.681.213-1.017.213-.511 0-2.069-.269-3.014-.08.076-.155.247-.356.154-.466.086-.034.145-.105.147-.181a.3.3 0 0 0-.176-.078c.029-.042-.002-.091-.04-.127-.01 0-.029-.103-.049-.118a.807.807 0 0 0-.21-.142c-.105-.051-.17-.051-.213-.06-.022-.01-.115.018-.128.016-.051 0-.11 0-.12.054a.259.259 0 0 0-.159-.07.334.334 0 0 0-.027.253c-.083.01-.171.223-.25.196.03.059.054.086.079.093-.069.125-.1.274-.176.284a.373.373 0 0 0 .07.078 1.153 1.153 0 0 0-.046.267l-.083-.03h-.037c-.113-.011-.179 0-.367-.107-.145-.08-.147-.152-.147-.294 0-.125.059-.235.051-.35a.76.76 0 0 0-.032-.112c-.029-.073-.132-.138-.193-.12a.167.167 0 0 1 .078.12.434.434 0 0 0-.053.066c-.03.037-.045.086.002.124.01.01.01.017.01.027 0 .012-.005.03-.007.06-.005.021-.015.01-.02 0-.032-.092-.071-.221-.152-.223h-.056l.002-.015c0-.093-.098-.167-.206-.06.025.01.066.013.086.04a.537.537 0 0 0-.03.096c-.002.093.069.125.167.13.017 0 .024 0 .03.02.004 0 .006.021.01.036.006.017-.003.015-.015.01-.162-.069-.226.01-.233.076 0 .01-.002.046.007.07-.059.036-.076.124.032.186 0-.027-.007-.086.032-.095.01 0 .017-.01.026-.013.013.02.04.038.042.043.012.01.04 0 .093-.033.012-.01.022-.011.037 0 .015.016.034.023.049.035.015.01.01.017.005.027-.108.105-.093.21.049.232.02 0 .022.02.022.037-.012.199-.274.16-.265-.039-.144.228.115.4.314.287.007-.01.012 0 .017 0 .012.037.032.07.069.076 0-.017.012-.044.041-.044.015 0 .015.01.015.022.002.049.022.115.095.13-.012-.04 0-.082.027-.082.037 0 .03-.088.275.047a.162.162 0 0 0 .09.093l.179-.032c-.022.138.02.346-.01.346-.044 0-.316-.03-.412.02-.13.07-.457.19-.55.056-.035-.05-.025-.096-.064-.164-.035-.05-.076-.083-.108-.083h-.078c-.054-.06-.174-.07-.226-.03.042.01.09.02.125.084-.017.022-.027.059-.032.064-.026.047-.012.115.196.186.007 0 .027.024.01.034a.113.113 0 0 1-.115-.015c-.08-.066-.09-.155-.186-.095-.007 0-.037.015-.068.027-.007 0-.013-.01-.027-.01-.086 0-.223.108-.162.213a.143.143 0 0 1 .11-.093c.01.024.02.05.02.06.02.111.068.194.284.045.022-.012.022.01.017.015-.054.093-.191.184-.083.255.005 0 .024.022.049.037-.007.01-.01.01-.013.022-.017.12.113.21.184.203a.22.22 0 0 1-.07-.184c.029.01.058.022.068.02.105-.042.051-.166.112-.208.015-.01.025 0 .025.012.01.049.032.167.16.157.117-.012.173-.11.158-.174-.002-.01.005-.012.017-.01a.12.12 0 0 1 .06.132c.016-.015.065-.047.087-.093.025.06.03.14-.051.22.051-.02.176-.077.2-.215.023.017.037.05.047.07.007 0 .007 0 .012-.01a.452.452 0 0 0 .245 0c.013 0 .015 0 .015.011-.012.05-.012.1.015.13 0-.017.032-.071.051-.071.03 0-.002.125.069.198.03-.31.279-.235.477-.365.02-.015.022-.01.02.01a.19.19 0 0 1-.086.103c.208.132.431-.159.495-.318a.202.202 0 0 0 .056-.061c.015.032.02.064-.034.095.203.01.181-.152.262-.142.62.049.144-.522 1.141-.348.066.01.189-.056.245-.108-.071.128-.076.402.064.426.066.01.188.056.237.098.01.015 0 .02-.01.024a.405.405 0 0 0-.196.05c-.208.136-.215-.319-.438-.23-.012 0-.049.026-.064.041-.088 0-.21.108-.19.199a.25.25 0 0 1 .146-.081c-.002.022-.002.044-.005.049-.005.032.01.073.083.073.052 0 .06-.024.089-.024.017 0 .027.01.027.027 0 .083-.277-.047-.228.186 0 0 .024.056.044.069-.01.07.049.144.174.105-.025-.015-.069-.054-.061-.086h.056c.007 0 .022-.01.027-.034 0-.012.005-.015.012-.015.015 0 .03.015.03.024 0 .012-.018.024-.018.047 0 0 .01.066.02.076-.012.083.113.176.24.091-.037-.01-.115-.022-.125-.066.025-.01.054-.02.061-.024.017-.015.025-.044.025-.083 0-.02.017-.02.024-.02.015 0 .04 0 .057-.01.029 0 .036.01.044.017.024.06.088.1.176.076.15-.056.017-.188.142-.21.02 0 .059-.016.09 0 .118.026.294.023.326-.03.035-.056.02-.271-.115-.347-.073-.034.01-.128-.064-.24.128.059.265.112.444.112.323 0 .475-.044.639-.134.188-.1.36-.051.404-.042.04 0 .069.029.04.083-.074.166-.03.186-.082.257-.054.066-.176.017-.274.01a.196.196 0 0 0-.105.039c-.09.022-.206.1-.22.19a.372.372 0 0 1 .168-.077.17.17 0 0 0-.01.039c-.017.113.098.15.191.07.013-.014.042 0 .02.02-.076.052-.228.16-.142.202.01 0 .034.017.059.029-.03.069.007.144.059.154-.01-.04-.007-.064.046-.137h.056c.074 0 .076-.15.17-.191h.012c-.05.086-.091.186-.022.208.002 0 .031.01.053.015.002.064.076.11.189.059-.022-.01-.074-.039-.074-.066.03-.029.067-.071.074-.078.093-.179-.056-.179-.037-.25.022-.086.177-.027.228-.203.002-.03.002-.086-.049-.108-.01 0-.01-.01-.007-.01h.005c.051 0 .093.012.142-.06-.132.011-.064-.096-.064-.165 0-.012 0-.024.01-.032.054-.029.098-.083.106-.186-.052.061-.213.127-.201.01 0-.01.017-.088-.118-.066-.22.015-.529-.022-.935-.06-.025 0-.042-.023 0-.033.406-.027 1.239-.088 1.239-.353 0-.215-.042-.357-.75-.357-.71 0-2.309.262-2.309-.135 0-.193.309-.179.684-.157m-2.312-.049c-.042.064-.115.118-.179.056-.054-.059.007-.078-.064-.195.069.05.201.13.243.14m.142.43c-.022.01-.02-.066-.061-.074-.037-.01-.032.027-.013.081-.054-.02-.1-.049-.13 0-.024.046-.012.073.02.113.02.022 0 .06-.017.112-.02.05-.086.12-.162.078-.083-.042-.068-.13-.046-.176.027-.049.046-.083.07-.083.052 0 .077-.01.094-.056.02-.056-.03-.08-.08-.115.05-.015.078-.039.05-.061-.036-.029-.083.02-.09 0-.01-.024.022-.044.042-.059.02-.017.039-.017.068 0l.23.105c.022.015.042.024.04.061 0 .02.012.066-.015.074m.122-.159c-.08 0-.112-.113-.095-.189.032.034.193.093.274.116-.125.027-.098.078-.179.073m5.395-2.1c-.002-.01-.002-.02.013-.028.044-.032.085-.09.078-.2-.05.066-.206.14-.21.01 0 0-.006-.096-.14-.071-.228.024-.444-.022-.87-.06-.027 0-.049-.021 0-.028.426-.034 1.213-.098 1.213-.373 0-.227-.258-.374-1.002-.374-.742 0-3.037.271-3.037-.147 0-.265.772-.157 1.345-.137.027.039.078.076.164.1.962.272 2.057-.446 2.637-.28-.756-.261-1.229.192-1.956.043.423 0 .874-.088.894-.203-.329.213-1.262-.147-1.654.1a.37.37 0 0 0-.068.054c-.705-.01-1.565-.093-1.565.323 0 .742 2.606.311 3.23.311.63 0 .764.064.764.181 0 .18-.622.226-.974.226-.588 0-3.02-.326-3.995-.027.052-.167.294-.417.184-.544.09-.042.152-.11.154-.193a.347.347 0 0 0-.18-.086c.029-.044-.01-.088-.047-.125-.005-.01-.027-.113-.054-.128a.835.835 0 0 0-.218-.151c-.106-.054-.177-.05-.22-.06-.025-.01-.126.02-.135.018-.052 0-.115 0-.125.056a.292.292 0 0 0-.174-.073.348.348 0 0 0-.02.266c-.093 0-.183.226-.27.201.033.066.06.091.087.098-.071.13-.106.292-.191.294.053.073.093.108.124.11-.007.078-.017.157-.02.223l-.126-.044h-.118a.741.741 0 0 0-.12-.022c-.118-.015-.21-.203-.409-.318-.147-.086-.15-.157-.15-.314 0-.127.06-.242.052-.36a.617.617 0 0 0-.037-.115c-.024-.083-.134-.147-.198-.132a.164.164 0 0 1 .078.132c-.027.027-.054.064-.06.07a.103.103 0 0 0 .006.13c.012.01.012.02.012.023a.15.15 0 0 1-.012.06c-.007.028-.012.011-.017 0-.027-.089-.076-.224-.154-.233h-.066c.002 0 .005-.01.005-.017 0-.093-.106-.172-.218-.056.03.01.076.012.093.042-.012.029-.025.088-.027.096-.005.098.064.134.166.134.025 0 .032.012.035.022.005.01.007.027.012.04.007.02-.005.016-.015.01-.166-.074-.242.01-.245.082 0 0-.002.046.002.064-.056.044-.07.135.04.201-.003-.027-.008-.093.036-.108h.022c.017.012.04.034.047.037.014.01.039 0 .098-.034h.041a.17.17 0 0 0 .05.032c.01.012.01.024 0 .03-.116.112-.096.225.056.252.017 0 .022.012.022.032-.013.21-.29.169-.28-.042-.151.242.12.423.324.3.017-.01.022 0 .027.01.01.035.029.074.066.074-.002-.01.012-.042.049-.042.012 0 .014.01.014.022.005.056.022.127.1.137-.01-.047 0-.083.025-.083.04 0 .174.306.483.475-.012-.027.115-.076.178-.113.015.06.05.113.106.135l.051-.024c-.02.14.15.29.12.29-.046 0-.33-.038-.428.011-.138.081-.485.203-.586.064-.034-.059-.024-.098-.068-.174-.032-.054-.076-.088-.11-.09h-.084c-.056-.057-.181-.07-.23-.028.04.012.088.02.127.088-.01.027-.031.061-.034.066-.027.05-.012.123.206.196.01 0 .032.022.014.034a.103.103 0 0 1-.122-.017c-.083-.064-.098-.159-.2-.1-.008 0-.035.017-.07.029h-.019c-.095-.01-.24.11-.176.225a.15.15 0 0 1 .117-.108l.02.07c.022.117.066.203.296.048.025-.01.022.01.015.012-.05.098-.206.194-.086.265l.047.042-.002.022c-.02.127.115.223.188.215-.032-.034-.085-.098-.073-.19.03.01.059.021.066.016.11-.044.059-.176.122-.218.015-.01.025 0 .03.015.01.054.032.174.164.162.122-.01.183-.115.166-.181-.002-.012.005-.015.017-.012.042.029.074.078.06.142a.255.255 0 0 0 .097-.095c.022.06.03.144-.054.23.052-.02.182-.083.21-.225a.208.208 0 0 1 .05.07s.005-.01.007-.01a.49.49 0 0 0 .26 0c.017 0 .017 0 .017.013-.01.05-.01.105.014.132.002-.012.035-.069.054-.069.037 0-.005.13.074.21.03-.332.208-.2.416-.332.025-.017.025-.01.022.012a.218.218 0 0 1-.095.107c.075.06.377-.13.377-.254 0-.03.117-.042.218-.061.21.012.183-.157.269-.147 1.222.164.52-.524 1.954-.382.066 0 .103-.081.16-.135-.074.135-.079.419.07.448.064.01.196.051.245.1.012.013 0 .023-.01.025a.64.64 0 0 0-.203.052c-.218.147-.225-.33-.463-.245-.012.01-.051.037-.066.054-.098 0-.22.112-.2.208a.233.233 0 0 1 .151-.091v.049c-.005.042.01.076.088.076.05 0 .06-.02.088-.02.018 0 .03.01.03.024 0 .09-.294-.044-.24.196.002.01.032.06.049.078-.015.073.049.147.179.105-.025-.02-.074-.056-.062-.09.022 0 .05 0 .057.01.014 0 .027-.01.034-.04 0-.01.002-.015.012-.01.015 0 .027.01.027.02 0 .015-.02.03-.017.052 0 0 .007.071.02.081-.013.088.117.186.25.091-.037 0-.118-.02-.133-.06.03-.013.059-.028.069-.03.02-.015.024-.049.024-.088 0-.022.012-.022.022-.022h.066c.027 0 .032.01.04.015.031.056.097.105.183.076.162-.056.027-.19.157-.22.022 0 .061-.01.095 0 .123.029.304.027.338-.032.037-.061.018-.284-.117-.363-.079-.037.002-.137-.069-.252.137.059.277.118.466.118.342 0 .45-.05.612-.143.176-.107.362-.054.418-.044.037.01.074.027.057.083-.054.18 0 .196-.044.277-.04.066-.182.01-.284 0a.154.154 0 0 0-.106.05c-.088.016-.193.095-.198.19.032-.022.09-.069.164-.076v.034c0 .123.132.162.213.081.007-.012.042 0 .025.017-.076.051-.213.167-.106.21 0 0 .03.02.054.033-.012.076.034.15.098.161-.02-.039-.022-.066.02-.144h.059c.073 0 .051-.15.144-.196h.012c-.034.088-.063.193.015.218.005 0 .034.012.059.015.02.066.095.115.2.064-.019-.012-.073-.037-.083-.071a.504.504 0 0 0 .061-.083c.071-.184-.085-.186-.078-.26.007-.09.181-.032.196-.22a.097.097 0 0 0-.066-.105c-.005-.01-.005-.01-.005-.015h.002c.051 0 .1.015.14-.056-.14.01-.089-.106-.103-.182m-5.376-1.388c.035.032.206.093.292.117-.135.03-.103.078-.184.078-.088 0-.122-.117-.108-.196m-.179-.093c-.039.074-.117.125-.186.061-.063-.066.007-.078-.068-.2.073.044.21.134.254.14m-.279.602c.027-.051.052-.093.079-.093.051 0 .078 0 .098-.06.017-.055-.037-.082-.089-.117.054-.017.089-.042.052-.066-.03-.029-.086.022-.093 0-.012-.027.027-.049.044-.068.022-.015.041-.012.076 0l.235.113c.027.02.046.029.044.066 0 .02.012.069-.015.076-.027.01-.024-.071-.063-.078-.037-.01-.037.032-.013.088-.058-.02-.11-.051-.14 0-.021.047-.016.076.02.117.018.022 0 .064-.017.125-.02.05-.085.12-.164.081a.136.136 0 0 1-.054-.188m-.193-.336h-.015zm.059-.262c-.01 0-.015 0-.017.01.002 0 .007-.01.017-.01m1.114 1.739c.005 0 0 0 0 0m-5.757-6.007c0-.227-.247-.374-.994-.374-.744 0-3.042.279-3.042-.142 0-.262.777-.157 1.345-.145.024.044.078.081.166.108.958.272 1.964-.372 2.65-.142-.544-.495-1.246.054-1.969-.098.426 0 .867-.088.892-.2-.331.215-1.264-.15-1.653.097a.202.202 0 0 0-.064.054c-.708-.01-1.575-.098-1.575.326 0 .744 2.61.308 3.24.308.627 0 .757.066.757.184 0 .176-.622.218-.975.218-.58 0-3.022-.316-3.992-.022.054-.169.29-.416.18-.546.095-.042.156-.11.158-.186a.366.366 0 0 0-.18-.091c.029-.04-.003-.091-.042-.125-.015-.01-.037-.11-.052-.13-.039-.029-.112-.095-.22-.15-.11-.048-.181-.048-.223-.06-.027-.01-.125.024-.137.019-.05-.01-.115-.01-.125.054a.31.31 0 0 0-.17-.073c-.043.083-.055.147-.024.267-.09 0-.183.227-.266.203.029.066.056.09.083.098-.074.132-.103.289-.189.299a.396.396 0 0 0 .084.086 1.204 1.204 0 0 0-.03.227l-.078-.029c-.05 0-.103 0-.115-.01a.573.573 0 0 0-.125-.017c-.118-.01-.204-.203-.404-.318-.147-.086-.152-.157-.152-.311 0-.13.061-.247.054-.367-.005-.01-.025-.078-.04-.113-.021-.083-.134-.147-.195-.127a.16.16 0 0 1 .078.13.226.226 0 0 0-.056.07c-.03.034-.042.086.005.13.007.01.01.015.01.024a.199.199 0 0 1-.01.06c-.005.023-.015.014-.017 0-.035-.094-.076-.229-.16-.234-.01 0-.046-.01-.058 0l.002-.02c0-.096-.106-.169-.218-.056.022 0 .066.01.085.04a.845.845 0 0 0-.024.097c-.005.098.068.135.171.138.02 0 .025 0 .032.017.002.015.01.032.012.042.007.02-.002.02-.017.015-.164-.076-.24 0-.242.076 0 .01-.005.049.002.066-.064.047-.076.134.036.2-.005-.027-.007-.093.04-.102.007 0 .012 0 .017-.01.02.017.046.037.049.044.012.01.044 0 .095-.034.017-.01.027-.01.044 0 .013.01.03.017.05.029.012.012.01.024 0 .032-.113.11-.094.218.056.244.017 0 .022.015.022.034-.013.209-.287.167-.277-.042-.152.24.122.427.323.304.015-.01.02 0 .025 0 .01.04.032.073.068.078 0-.015.01-.044.05-.044.006-.01.012.01.012.02.002.061.024.125.102.137-.014-.044-.002-.086.025-.086.04 0 .188.287.49.453.058-.015.144-.015.174-.086.002.024.029.05.066.071.01.14.098.311.07.311-.043 0-.521-.024-.617.03-.142.075-.482.2-.582.055-.035-.049-.027-.093-.071-.166-.03-.054-.076-.088-.11-.091h-.081c-.054-.061-.182-.07-.235-.027.044.01.088.017.134.09-.014.023-.034.06-.041.065-.025.049-.01.12.208.198.01 0 .03.022.012.03a.104.104 0 0 1-.122-.01c-.081-.067-.098-.163-.196-.106-.007 0-.04.02-.069.032-.007 0-.015 0-.024-.01-.096-.01-.243.115-.177.228a.162.162 0 0 1 .12-.103c.01.022.017.054.017.066.022.112.071.2.3.046.024-.01.024 0 .019.017-.057.093-.208.19-.093.264.005 0 .031.024.051.042 0 0-.005.012-.005.02-.022.123.113.223.189.216a.229.229 0 0 1-.071-.196c.029.012.058.027.063.017.108-.037.061-.172.12-.213.02-.015.035 0 .035.015.005.049.029.176.161.164.123-.012.184-.118.172-.184-.002-.01 0-.017.012-.01.041.027.076.073.063.135a.255.255 0 0 0 .094-.088.198.198 0 0 1-.052.222.307.307 0 0 0 .21-.217.19.19 0 0 1 .045.07c.002-.01.007-.01.01-.011a.461.461 0 0 0 .262-.01c.012 0 .015 0 .012.012-.005.056-.005.107.015.134.002-.012.037-.066.056-.066.034 0-.002.128.071.201.032-.323.419-.162.627-.294.025-.017.027-.012.02.01a.202.202 0 0 1-.091.11c.071.01.184-.039.274-.105l-.027.027.333-.15a.548.548 0 0 0 .018-.097c.041-.012.08-.017.115-.03-.002.01-.005.01-.012.01.215.016.193-.16.279-.146 1.217.162.519-.524 1.952-.385.07 0 .098-.031.159-.085-.076.14-.076.372.068.396.066.01.199.054.248.106.012.01.002.02-.01.022a.776.776 0 0 0-.201.05c-.223.145-.23-.33-.465-.24-.013 0-.05.034-.064.047-.096 0-.223.11-.199.211a.242.242 0 0 1 .15-.09c-.002.02-.002.043-.002.05-.007.04.007.073.086.073.05 0 .06-.022.095-.022.017 0 .025.012.025.027 0 .088-.294-.047-.238.199 0 0 .03.056.044.078-.01.069.052.144.184.105-.025-.017-.074-.051-.064-.088h.061c.005 0 .022 0 .027-.037.005-.01.005-.012.015-.012.012.01.024.012.024.024 0 .015-.017.024-.017.049 0 .01.015.07.025.08-.01.092.12.184.252.094-.037 0-.12-.02-.13-.064a.208.208 0 0 1 .061-.027c.022-.015.027-.051.027-.088.005-.02.015-.022.027-.022.015 0 .04 0 .056-.01.032 0 .042.01.047.02.024.059.095.105.184.078.156-.056.024-.196.151-.223a.135.135 0 0 1 .094 0c.122.032.31.024.342-.034.032-.061.017-.284-.117-.362-.081-.04.005-.135-.071-.25.14.056.281.115.468.115.34 0 .428-.052.578-.145.168-.103.36-.049.413-.042.042.01.079.027.069.086-.042.18.017.196-.022.272-.032.071-.181.017-.28.01-.063 0-.104.042-.104.052-.091.012-.187.091-.184.191.032-.02.09-.073.154-.08 0 .014.002.026.005.036.015.123.147.164.22.081.015-.015.045 0 .03.015-.074.051-.198.172-.09.216l.058.029c-.002.073.05.151.113.159-.022-.037-.03-.064.005-.142h.061c.073 0 .042-.152.125-.196.01-.01.017-.01.015 0-.03.083-.045.19.034.215.005 0 .034.01.059.012.022.066.107.118.208.064-.022-.012-.076-.037-.093-.073a.228.228 0 0 0 .054-.076c.056-.183-.1-.188-.1-.262 0-.088.18-.032.18-.22a.12.12 0 0 0-.08-.11c-.005 0-.005-.01-.002-.01.054 0 .102.01.13-.056-.138 0-.089-.105-.11-.181-.003-.015-.008-.024.006-.032.042-.03.074-.091.061-.196-.046.064-.193.137-.205.01-.005-.01-.015-.1-.15-.071-.227.022-.382-.03-.81-.066.428-.03 1.207-.12 1.207-.402m-5.451-.607c.032.027.203.093.291.117-.132.024-.103.073-.188.071-.089 0-.115-.115-.103-.188m-.179-.093c-.04.064-.122.12-.186.056-.061-.061.007-.076-.071-.204.076.054.218.143.257.147m-.274.6c.022-.052.041-.09.07-.09.055 0 .08-.013.096-.06.022-.059-.032-.088-.083-.117.054-.015.08-.042.054-.07-.032-.028-.088.02-.1 0-.01-.026.031-.045.046-.058.024-.032.044-.02.076 0l.237.113c.027.015.047.029.047.06 0 .023.01.074-.015.079-.027 0-.024-.071-.07-.078-.03-.01-.03.029-.008.083-.056-.017-.112-.044-.14.01-.024.044-.014.08.02.117.017.022.005.064-.017.118-.02.054-.088.13-.166.088-.089-.051-.076-.142-.047-.189m6.253-3.331c0-.242-.27-.397-1.051-.397-.784 0-2.547.292-2.547-.147 0-.218.343-.2.757-.176.03.037.08.07.169.093 1.011.294 2.199-.237 2.811-.066-.72-.546-1.32.02-2.089-.147.448 0 .603-.125.625-.25-.348.228-1.01-.115-1.42.14-.025.017-.047.037-.067.051-.56-.012-1.006-.012-1.006.355 0 .781 2.099.323 2.76.323.656 0 .796.066.796.194 0 .186-.654.233-1.024.233-.57 0-2.287-.3-3.33-.091.083-.17.271-.39.17-.512.094-.04.158-.12.162-.199a.351.351 0 0 0-.188-.088c.03-.049-.01-.098-.051-.137-.01-.015-.03-.12-.052-.137-.04-.029-.113-.103-.23-.152-.115-.056-.189-.056-.238-.069-.024 0-.13.022-.14.022-.053-.01-.122-.01-.131.056a.317.317 0 0 0-.182-.076.36.36 0 0 0-.024.277c-.096.01-.191.247-.282.218.035.066.064.093.09.1-.075.14-.11.307-.202.309.058.078.098.11.132.118-.012.102-.015.213-.022.298l-.167-.059h-.044c-.024 0-.044-.012-.066-.024.022 0 .05.01.071.015l-.095-.034c-.089-.069-.196-.203-.343-.291-.152-.088-.155-.164-.142-.323.005-.142.073-.265.073-.387a1.024 1.024 0 0 0-.034-.123c-.015-.086-.127-.152-.2-.137.036.029.075.059.077.14a.56.56 0 0 0-.068.073c-.027.037-.042.086 0 .137.007.01.01.015.007.027a.213.213 0 0 1-.012.064c-.007.024-.013.01-.015 0-.032-.098-.069-.24-.154-.245-.01 0-.05-.01-.066 0 .002 0 .007-.01.007-.017.007-.1-.103-.181-.228-.056.024 0 .073.01.093.042a.398.398 0 0 0-.03.103c-.014.1.06.135.167.14.02 0 .032.01.034.018a.333.333 0 0 0 .01.047c.005.017-.007.015-.02.01-.17-.078-.249.01-.256.088 0 0-.007.05 0 .07-.069.045-.089.139.024.215 0-.037-.005-.1.044-.115.007 0 .017 0 .027-.012.012.02.037.047.044.047.017.01.044 0 .103-.037.015-.01.027-.015.044 0 .015.01.034.022.05.037.014.01.014.022 0 .032-.126.115-.113.228.043.257.022 0 .03.015.03.034-.03.22-.319.176-.292-.042-.176.252.103.446.324.318.01-.012.017 0 .022 0 .007.044.029.078.068.083-.002-.012.015-.046.052-.049.012 0 .012.01.012.024 0 .06.02.13.098.14-.01-.042.007-.086.034-.086.04 0 .137.169.311.272.147.06.25.22.345.125-.017.149.123.325.093.325-.049 0-.453-.032-.55.02-.15.081-.515.21-.615.061-.04-.054-.025-.1-.071-.178-.035-.054-.084-.091-.12-.093h-.084c-.06-.064-.193-.07-.247-.03.044.01.096.02.137.094-.014.024-.032.068-.036.073-.032.047-.013.124.218.205.01 0 .029.027.01.034a.117.117 0 0 1-.125-.015c-.091-.07-.103-.171-.213-.11l-.071.037c-.007-.01-.018-.01-.022-.01-.1-.01-.258.11-.189.23a.19.19 0 0 1 .127-.103c.005.03.017.061.02.073.022.116.073.209.313.05.025-.02.025.01.018.011-.06.103-.213.199-.091.28.005 0 .027.022.054.042-.005.01-.007.017-.012.02-.022.137.125.24.2.232-.031-.037-.088-.103-.073-.2.027.01.064.016.066.014.118-.047.064-.186.127-.223.022-.017.032 0 .032.01.01.06.037.189.172.174.13-.012.193-.115.183-.19-.002-.01 0-.013.01-.01.044.023.084.075.066.141a.229.229 0 0 0 .1-.096.205.205 0 0 1-.053.238c.049-.02.189-.088.22-.233.018.022.04.05.05.078.001 0 .004-.01.012-.012a.572.572 0 0 0 .271 0c.015-.01.02 0 .02.015-.017.05-.017.108.012.135 0-.017.04-.07.056-.07.037 0-.005.133.081.216.027-.347.218-.213.434-.352.027-.015.027 0 .02.015a.19.19 0 0 1-.091.115c.237.05.617-.314.673-.465.098-.012.181-.024.228-.02.688.06.208-.62 1.315-.424a.566.566 0 0 0 .267-.122c-.078.142-.083.445.066.47.071.012.208.056.26.112.017.012.005.017-.007.024a.796.796 0 0 0-.213.05c-.23.159-.24-.35-.488-.253a.227.227 0 0 0-.07.049c-.096 0-.233.115-.209.218a.247.247 0 0 1 .16-.088v.054c-.008.034.01.078.092.078.047 0 .06-.024.093-.024.02 0 .035.01.035.027 0 .096-.314-.056-.255.208 0 0 .03.06.044.076-.01.078.054.16.191.115-.024-.017-.073-.052-.063-.095.024 0 .056.01.06.01.018 0 .03-.01.037-.044 0 0 0-.01.013-.01.014 0 .022.01.022.022 0 .017-.015.032-.015.056 0 .01.012.073.024.081-.014.095.125.199.262.1-.036 0-.122-.02-.137-.065.032-.012.061-.03.066-.03.022-.016.032-.055.032-.097 0-.02.012-.022.025-.022h.063c.032 0 .04 0 .047.017.027.059.098.117.19.083.167-.056.03-.206.163-.235.024 0 .068-.012.095 0 .132.034.33.029.365-.032.034-.068.017-.302-.127-.382-.081-.042.007-.145-.071-.262.147.059.293.117.49.117.362 0 .45-.049.612-.152.176-.107.377-.049.433-.044.047.01.083.03.069.093-.04.186.02.201-.022.29-.032.073-.189.011-.294 0-.064 0-.108.033-.11.048-.091.02-.191.095-.187.204a.331.331 0 0 1 .162-.088l.002.042c.012.13.152.171.233.086.01-.015.044 0 .027.019-.076.054-.204.173-.096.215.005 0 .037.03.066.04-.01.077.052.156.118.168-.027-.044-.035-.066.005-.157h.061c.08 0 .044-.156.132-.205.012-.01.022 0 .017 0-.031.09-.049.203.035.23.005 0 .036.01.063.012.025.07.113.125.22.066-.021-.01-.08-.037-.095-.076.017-.03.054-.071.057-.088.056-.189-.11-.191-.11-.272 0-.093.188-.029.188-.223 0-.037-.012-.095-.08-.12-.01 0-.01-.01-.008-.012h.005c.057 0 .108.012.137-.064-.144.01-.1-.112-.12-.186-.002-.015-.002-.024.01-.034.05-.029.079-.093.064-.206-.046.07-.203.14-.223.01-.002-.01-.012-.1-.15-.073-.237.024-.406-.027-.854-.066.514 0 1.274-.134 1.274-.423m-6.123.448c-.005 0-.005-.01.005-.01-.005 0-.005.01-.005.01m1.244-1.117c.032.032.218.1.304.12-.142.027-.103.088-.193.083-.091 0-.123-.122-.11-.203m-.19-.098c-.038.071-.124.13-.195.061-.064-.064.01-.086-.071-.213.073.054.22.144.267.152m-.292.632c.027-.054.047-.098.079-.098.051 0 .083-.01.1-.06.02-.06-.034-.087-.088-.127.056-.012.088-.042.056-.069-.036-.034-.09.027-.103 0-.012-.029.032-.044.05-.064.024-.022.044-.017.078 0l.245.118c.034.017.054.029.054.06-.002.03.01.077-.02.087-.024.01-.022-.076-.064-.086-.041 0-.041.037-.017.093-.059-.02-.115-.05-.144 0-.027.049-.015.083.02.125.021.024.001.068-.018.127-.02.054-.093.137-.176.088-.09-.049-.079-.147-.052-.196m.642 1.37.002-.01c.005.01 0 .01-.002.01m3.61-4.222c.801 0 1.198-.257 1.198-.506 0-.887-2.197-.338-2.197-.877 0-.088.061-.167.162-.243h.03c1.104-.1 1.12-.864 1.91-1.016-.95-.135-1.086.615-1.492.649.218-.105.296-.362.277-.458-.194.257-.62.28-.858.58a.194.194 0 0 0-.039.155c-.144.09-.232.193-.232.323 0 .84 2.23.262 2.23.874 0 .213-.384.355-.999.355-.455 0-.786-.328-1.643-.107.005-.142.29-.414.179-.544.08-.032.14-.1.14-.17a.303.303 0 0 0-.165-.075c.03-.04-.01-.086-.041-.118-.005-.01-.025-.1-.047-.12-.029-.024-.095-.083-.196-.13-.098-.048-.159-.048-.198-.053-.027-.01-.115.015-.122.015-.052-.01-.108-.01-.113.05a.26.26 0 0 0-.157-.065.313.313 0 0 0-.022.235c-.078.01-.166.208-.24.188.027.056.052.083.074.086-.064.12-.093.262-.167.27.022.027.04.049.059.066a2.405 2.405 0 0 0-.118.507h-.002a.772.772 0 0 0-.178-.142c-.128-.073-.12-.138-.098-.262.017-.113.09-.213.098-.314 0-.012-.012-.074-.017-.1-.015-.071-.11-.128-.172-.115.03.022.061.046.056.115-.026.019-.056.05-.063.054-.03.034-.05.076-.017.112.01.01.01.015.007.024 0 .015-.007.024-.017.05-.007.021-.01.01-.013 0-.017-.082-.041-.192-.115-.201h-.06c.001 0 .004-.01.004-.017.012-.083-.076-.147-.2-.051.024 0 .065.01.08.037-.02.024-.034.073-.04.083-.016.08.047.115.143.12.022 0 .03.01.03.012.004.01.006.024.006.037.002.017-.007.015-.014.012-.155-.066-.23 0-.248.059 0 0-.005.044-.005.064-.059.034-.088.107.01.17.002-.028.005-.08.05-.095h.024c.01.017.032.034.034.037.012.01.04.01.1-.027.01-.01.022-.01.04 0 .01.01.022.017.041.032.01 0 .007.012-.002.022-.125.093-.122.186.02.213.015 0 .017.01.015.027-.037.181-.297.14-.258-.037-.176.203.057.36.265.26.017 0 .02 0 .024.01.005.034.02.064.057.069-.005-.01.012-.042.046-.042.015 0 .015.01.015.02-.005.047.002.11.076.12-.007-.04.007-.073.034-.073.03 0 .088.151.203.279a2.524 2.524 0 0 1-.494.147c-.042 0-.304-.027-.387.02-.128.064-.439.18-.53.049-.029-.042-.021-.086-.058-.152-.03-.044-.071-.076-.098-.081h-.076c-.051-.056-.166-.066-.21-.024.039.012.08.015.12.078a.34.34 0 0 0-.035.066c-.024.037-.007.103.186.171.01.01.025.022.01.032-.031.012-.07.02-.11-.012-.076-.06-.086-.152-.179-.096-.007 0-.031.017-.06.032-.006 0-.016-.01-.023-.01-.083-.01-.22.1-.159.199.012-.024.044-.076.105-.088.013.024.017.054.02.06.02.101.064.18.267.043.024-.015.024.01.017.012-.047.088-.184.174-.08.242a.2.2 0 0 1 .05.034c-.004 0-.01.012-.01.02-.021.115.103.196.172.194a.19.19 0 0 1-.064-.174c.022 0 .054.017.059.017.096-.037.051-.16.103-.196.017-.012.027 0 .03.01.004.049.029.164.149.152.11-.015.161-.108.152-.167 0-.012 0-.015.01-.012.041.024.073.07.058.127a.161.161 0 0 0 .084-.083.168.168 0 0 1-.044.203c.044-.017.161-.07.19-.198a.18.18 0 0 1 .042.064c0-.01.002-.01.005-.01.047.015.12.022.238-.012.014 0 .017.01.014.017-.012.047-.012.091.013.118 0-.015.034-.06.046-.06.032 0 0 .116.071.19.025-.297.186-.182.372-.302.022-.017.025-.01.018.01a.199.199 0 0 1-.079.095c.069 0 .228-.069.228-.174 0-.02.059-.059.12-.1a.213.213 0 0 0 .213-.096c.01.032.04.117-.007.142.196.012.4-.208.475-.228.419-.088-.26-.39.598-.34.063.01.195-.042.25-.093-.067.13-.07.39.06.409a.54.54 0 0 1 .22.096c.01.012.006.017-.006.019a.627.627 0 0 0-.184.049c-.203.132-.205-.302-.421-.22-.007 0-.04.028-.054.038-.086 0-.2.106-.184.191.027-.024.074-.07.14-.076l-.002.044c-.005.032.01.066.08.066.042 0 .052-.017.084-.017.017 0 .022 0 .022.022 0 .083-.26-.046-.215.177 0 .01.024.05.039.069-.007.066.049.137.166.098-.02-.02-.066-.044-.056-.081h.056c.007 0 .02-.01.027-.037 0 0 .002-.012.007-.01.017 0 .027.01.027.02 0 .015-.017.027-.017.049 0 0 .012.059.022.069-.012.078.105.164.225.08-.034 0-.105-.02-.115-.055a.08.08 0 0 0 .052-.024c.02-.012.027-.042.027-.076.002-.02.012-.02.022-.02.017 0 .039 0 .056-.01.024 0 .032.01.041.015.02.054.081.098.162.068.142-.046.02-.17.137-.194.02-.01.061-.015.086 0 .113.024.28.022.308-.032.03-.054.015-.257-.105-.33-.07-.034.005-.12-.066-.223.125.05.255.103.424.103.308 0 .014-.044.152-.125.147-.098.323-.051.37-.042.039.01.073.024.06.073-.034.164.015.179-.019.252-.03.064-.162.01-.25.01-.054 0-.095.032-.095.039-.079.017-.167.086-.164.174.024-.02.073-.061.14-.071l.001.032c.01.11.132.147.201.073.007-.015.042 0 .025.015-.064.047-.177.15-.084.193.01 0 .035.015.054.022-.007.071.047.137.1.15-.02-.037-.024-.056.008-.133h.053c.069 0 .04-.132.113-.173h.015c-.027.078-.042.17.03.193.001 0 .031.01.055.015.02.056.091.1.187.054-.02-.01-.071-.034-.084-.064a.28.28 0 0 0 .05-.071c.046-.167-.094-.17-.094-.235 0-.081.164-.032.164-.196a.112.112 0 0 0-.07-.103c-.008 0-.008 0-.003-.01.044 0 .09.015.113-.052-.118.01-.08-.093-.1-.159-.002-.01-.002-.017.01-.029.036-.027.068-.076.053-.174-.039.054-.176.118-.188.01-.002-.01-.007-.088-.13-.066-.203.02-.301-.086-.69-.122-.023 0-.042-.02 0-.024m-2.445-.894h-.014.014m.578-.145c.03.024.184.088.26.103-.118.027-.088.076-.169.071-.073 0-.108-.1-.09-.174m-.165-.083c-.03.061-.107.108-.166.054-.059-.059.01-.073-.059-.183.064.047.191.122.225.13m-.245.538c.02-.042.04-.078.064-.078.047 0 .069-.01.083-.056.025-.049-.026-.07-.068-.105.049-.015.068-.03.044-.056-.032-.032-.076.02-.09-.01-.01-.022.031-.04.046-.054.02-.02.039-.015.064 0l.213.103c.026.01.044.022.044.05-.005.028.01.062-.015.072-.02.01-.02-.064-.059-.071-.032 0-.032.029-.012.078-.051-.02-.098-.042-.12.01-.022.042-.017.07.015.105.02.02.002.061-.015.108-.017.046-.076.115-.154.073-.079-.037-.066-.12-.04-.17m2.991 12.488-.188-.012.002-.179c.026-.656-.365-1.146-1.073-1.146-.63 0-1.847.816-3.549.816-.724 0-1.586-.353-2.125-.667l-.213.51c.002-.02.002-.032.002-.051a.42.42 0 1 0-.84 0 .42.42 0 0 0 .749.261l-.213.508c.071.032.145.064.223.09-.247 2.584 1.66 5.873 5.03 6.875.502-.135 1.011-.06 1.011.485 0 .335-.171.485-.47.485-.203 0-.33-.118-.33-.253 0-.225.394-.088.436-.247.05-.206-.084-.299-.314-.299-.235 0-.59.155-.59.546 0 .466.367.74.769.74.372 0 1.16-.21 1.05-1.134.182.01.385-.022.429-.193l.04-.524-.182-.024.14-5.914.134.012c.218.015.407-.086.421-.319.015-.237-.173-.348-.35-.365m-6.098.46 4.1 5.893c-2.197-.852-4.374-2.819-4.1-5.892m4.22 5.329-3.735-5.368c.125.01.243.01.343.01.194 0 .387-.01.576-.04l2.995 4.298a74.65 74.65 0 0 1-.18 1.102m.273-1.702-2.633-3.78a6.6 6.6 0 0 0 .845-.25l1.981 2.828c-.061.4-.127.808-.193 1.202m.639-4.158-.152-.015c-.176-.01-.4.073-.416.306-.017.235.15.368.367.382l.11.01c-.007.05-.017.1-.022.155L69 47.79l-1.673-2.393c.781-.313 1.416-.651 1.754-.651.269 0 .328.13.269.675m10.197-6.105a.612.612 0 0 0 .301-.276c-.159.054-.277-.02-.31-.04.107-.063.24.01.107-.195-.122-.204-.21-.208-.345-.064-.13.14-1-.037-.995-.688a.6.6 0 0 0 .3.247c.033.017.068.032.102.049.037.01.074.015.113.022a.672.672 0 0 0 .25.037h.046v-.022c.179-.04.323-.15.34-.34.032-.358-.308-.527-.685-.838a6.795 6.795 0 0 1-.353-.323c-.13-.257-.042-.49-.37-.963a2.01 2.01 0 0 0-.108-.416c-.17.306-.247.896.204 1.381.362.4 1.138.781 1.11 1.127-.008.076-.084.149-.2.169-.036 0-.07 0-.107-.012a.198.198 0 0 1-.071-.022.638.638 0 0 1-.164-.076 1.13 1.13 0 0 1-.27-.211c-.32-.304-.614-.74-.805-.987-.363-.458-.199-.904-.142-1.288.254-.348-.152-1.068-.394-1.242 0 0 .05-.161-.015-.37-.05.04-.164.033-.223.025-.064-.13-.093-.16-.181-.174-.155-.024-.152-.113-.17-.174-.087.083-.122.161-.215.169-.127 0-.18 0-.23.042-.093.07-.13.103-.272.096-.147 0-.144.083-.132.188.015.066.017.172.108.209.012.01.027.017.044.022l.117.137.076-.147c.062-.061.255-.071.29.06.026.092.043.123-.074.138-.13.017-.196.017-.316.024-.083 0-.08.108-.079.176.005.083.1.128.272.083.177-.044.48-.076.48.071 0 .39-.44.378-.54.838a.857.857 0 0 1-.273-.255 1.744 1.744 0 0 0-.328-.404c-.09-.093-.21-.2-.333-.274-.154-.093-.162-.167-.162-.326 0-.14.064-.264.057-.392a.473.473 0 0 0-.037-.117c-.03-.086-.144-.152-.21-.135a.176.176 0 0 1 .085.137c-.032.027-.059.07-.064.073-.029.037-.044.088.007.135.01 0 .01.015.01.029a.239.239 0 0 1-.01.066c-.007.022-.012.01-.02 0-.036-.096-.075-.238-.168-.247h-.064c.005-.01.007-.012.007-.02 0-.098-.113-.18-.233-.06.03.01.076.013.094.04a.642.642 0 0 0-.025.102c-.007.098.069.147.181.147.02 0 .03.01.032.02.007.015.007.03.015.044.002.017-.007.015-.017.012-.182-.08-.255 0-.262.081 0 .01 0 .054.007.073-.067.042-.079.137.036.21 0-.033-.005-.092.037-.11.012 0 .02 0 .027-.011a.14.14 0 0 0 .049.044c.012.01.046 0 .1-.034.015-.01.03-.012.044 0a.315.315 0 0 0 .054.034c.01.01.01.02 0 .024-.112.115-.09.218.042.254-.069.123-.274.076-.262-.11-.147.245.1.414.308.328.007.083.005.26.035.262-.002-.012.012-.046.049-.046.014 0 .017.01.017.024.002.056.027.128.108.14-.013-.04.002-.061.026-.076.03.056.074.12.1.169.101.183.307.646.767.845-.232.137-.394.338-.543.519-.13.125-.321.262-.439.19-.054-.036-.066-.082-.14-.134a.224.224 0 0 0-.144-.042.265.265 0 0 0-.076.034c-.083-.034-.205.01-.244.071.049 0 .1-.02.166.03-.002.031-.002.077-.005.08-.007.054.04.12.282.103.012 0 .039.01.03.024-.03.024-.067.056-.128.037-.11-.027-.16-.113-.238-.015-.002 0-.024.039-.049.064h-.024c-.093.029-.184.213-.074.291 0-.034.01-.105.069-.147.02.02.044.05.051.054.069.106.147.162.306-.08.017-.02.02 0 .02.01-.01.112-.118.271.027.293.002 0 .039.01.068.01 0 .012 0 .017.002.03.025.13.204.163.272.13-.046-.023-.125-.06-.152-.16.03 0 .066 0 .071-.01.089-.086-.017-.198.025-.26.01-.022.027-.015.034 0 .032.051.103.157.23.093a.207.207 0 0 0 .096-.154c.162-.069.308-.122.424-.083-.02-.083.075-.2.25-.247.173-.047.247 0 .303.056a.825.825 0 0 1 .174-.296c-.017.683.904.666 1.119 1.077-.282-.115-.588-.184-.76-.147-.224.042-.614.252-.668.507-.036.208.18.583.4.732-.265.05-.36-.029-.605.032-.002 0-.02-.01-.025-.01-.206.022-.237-.345-.487-.247-.012 0-.054.032-.066.046h-.005c-.096 0-.228.12-.206.218a.29.29 0 0 1 .157-.091c-.002.022-.002.049-.002.051-.002.039.01.083.09.083.054 0 .069-.024.1-.024a.03.03 0 0 1 .03.029c0 .093-.31-.056-.255.208.002 0 .032.056.05.073-.013.078.053.162.19.115-.026-.02-.078-.054-.066-.096.027 0 .057.01.062.01.017 0 .026-.01.034-.042.002-.01.005-.012.015-.012.017 0 .029.015.029.024 0 .012-.02.03-.02.056 0 0 .013.071.022.081-.01.096.125.194.262.098-.039 0-.125-.022-.132-.07.022 0 .061-.02.064-.028.02-.015.03-.05.03-.088 0-.027.01-.027.024-.027.017 0 .046 0 .068-.01.027 0 .035.012.04.024.031.054.102.11.193.078.054-.02.073-.047.083-.069.037.02.074.04.11.07-.026-.099.045-.18.258-.038l.156-.12s.204.086.282-.01c.127-.112.059-.117.059-.225-.09-.206-.14-.189-.186-.385-.066-.34.406-.533.68-.477.054.218.36.786.865.955.316.11.443-.238.546-.189.022.01.04.042.056.096-.02.152.007.294-.034.37-.034.073-.203.01-.318 0-.066 0-.118.042-.123.054-.095.015-.21.103-.205.213.036-.027.1-.083.178-.093a.429.429 0 0 1 .002.047c.017.132.167.179.253.088.01-.02.049 0 .029.017-.076.056-.22.186-.1.238.005 0 .041.02.068.029-.007.088.054.166.125.179-.024-.044-.032-.071.01-.162h.066c.086 0 .05-.167.142-.213.012-.012.025-.01.02 0-.035.098-.05.213.036.242.01 0 .04.01.071.015.027.076.118.13.243.068-.03-.015-.096-.042-.11-.08.024-.033.059-.074.06-.084.065-.205-.117-.21-.117-.293 0-.1.206-.037.206-.238 0-.01-.007-.022-.01-.032.1-.054.2-.115.208-.193a.525.525 0 0 1-.257-.05zm1.918 1.18c.188.123.127.429-.118.402a12.454 12.454 0 0 0-2.103-5.559c.01-.01.02-.017.031-.032a.7.7 0 0 0 .466-.573.72.72 0 0 0-.706.31c-.078-.104-.159-.205-.242-.31a10.472 10.472 0 0 0-2.373-2.221 8.745 8.745 0 0 0-2.638-1.21c.015-.215.3-.245.405-.059.031-.345-.267-.522-.441-.453-.096.037-.179.115-.196.272a.729.729 0 0 0-.497-.262.72.72 0 0 0 .156.524c-.147 0-.235.06-.291.144-.09.16.03.488.382.512-.169-.134-.098-.401.113-.387v4.283a.705.705 0 0 0-.71.184c.232.225.5.25.71.186v4.65c-.228.018-.292-.271-.106-.398-.35 0-.497.313-.418.477.051.108.154.186.352.169a.741.741 0 0 0-.186.49.695.695 0 0 0 .49-.186c-.017.196.066.3.174.355.159.076.475-.07.475-.417-.123.174-.402.12-.402-.09h3.23a.72.72 0 0 0 .184.705.707.707 0 0 0 .189-.706h3.597c.017.223-.264.287-.392.11.007.35.328.488.485.405.11-.051.186-.164.164-.358a.732.732 0 0 0 .495.174.727.727 0 0 0-.203-.485c.203.01.303-.07.355-.176.07-.167-.079-.48-.431-.47m-3.096-5.672c-.098.09-.14.216-.11.309.037.11.13.205.328.215-.12.1-.22.252-.254.46a.711.711 0 0 0 .511-.117c-.044.19.022.31.118.372.073.051.188.056.294 0a12.109 12.109 0 0 1 1.643 4.445.72.72 0 0 0-.409-.113c.01.226.1.392.22.505h-2.737c.022-.172-.067-.324-.182-.36-.11-.044-.24-.022-.37.13a.726.726 0 0 0-.215-.483.725.725 0 0 0-.21.483c-.128-.152-.26-.174-.373-.13-.11.037-.198.188-.181.36h-2.336a.723.723 0 0 0 .166-.463.69.69 0 0 0-.47.174V36.82c.176.029.338-.061.375-.176.039-.113.024-.245-.132-.373a.7.7 0 0 0 .482-.215.711.711 0 0 0-.482-.21c.156-.13.17-.263.132-.375-.037-.116-.199-.206-.375-.177v-3.203c.1.083.235.144.404.164a.742.742 0 0 0-.11-.458 8.575 8.575 0 0 1 2.108 1.031 10.05 10.05 0 0 1 2.165 1.991m10.24 6.984c-.388-.289-1.02-.876-1.348-1.57-.417-.864-2.158-4.29-2.432-4.748-.226-.38-.34-.72-.34-1.026 0-.36.18-.649.37-.908.139-.172.516-.542.658-.765.108-.168.21-.3.309-.406-.632-1.097-1.284-1.927-2.119-2.865a17.165 17.165 0 0 0-3.401-2.946c.668-.434 1.344-1.058 1.344-2.104 0-.61-.255-1.1-.7-1.491.7-2.25 1.961-4.96 3.034-6.147l-2.258-.953a3.54 3.54 0 0 1 .497 2.547c-.588-.411-1.09-.967-1.256-1.71-.115.687-.487 1.79-.83 2.455.651-.306 1.175-.449 1.836-.174-.38.516-1.351 1.303-2.835.95-.804-.194-1.602-.62-1.568-1.24.022-.37.294-.815.796-.766.49.051.52.796.365 1.132.644-.365 1.315-2.256.306-2.537-.793-.218-1.518.869-1.78 1.704-.15-1.006-.568-1.971-1.37-1.915-1.035.069-.697 1.986-.335 2.473.064-.673.431-1.03.74-1.006.272.02.641.213.578.825-.066.612-.933.987-1.935.987-.952 0-2.625-.294-2.784-2.133.62.11 1.592.58 2.005 1.198-.13-1.112-.13-1.903 0-3.057-.514.728-1.378 1.102-1.976 1.2.174-.788.852-1.62 1.64-2.116h-4.094c.789.495 1.465 1.325 1.639 2.109-.598-.103-1.443-.478-1.942-1.193.127 1.154.127 1.945 0 3.057.404-.608 1.349-1.073 1.969-1.193-.16 1.834-1.835 2.128-2.782 2.128-1 0-1.869-.375-1.935-.987-.061-.612.306-.806.583-.825.303-.024.673.333.737 1.006.36-.487.698-2.404-.338-2.473-.8-.056-1.22.909-1.369 1.915-.262-.835-.987-1.922-1.78-1.704-1.01.281-.338 2.172.306 2.537-.154-.336-.123-1.08.367-1.132.502-.049.774.397.794.767.036.62-.764 1.045-1.565 1.239-1.477.35-2.444-.424-2.831-.94.67-.287 1.2-.147 1.861.164-.345-.664-.715-1.768-.83-2.454-.172.754-.683 1.315-1.286 1.724-.132-.607-.095-1.66.495-2.562l-2.256.953c1.075 1.193 2.337 3.91 3.04 6.166-.436.39-.674.872-.674 1.472 0 1.046.671 1.675 1.34 2.104a17.097 17.097 0 0 0-3.402 2.946c-1.543 1.731-2.755 3.751-3.602 6.002.313.32 1.662 1.793 1.98 2.194.564.708.895 1.418.91 1.97.036 1.02.25 1.427.793 2.11.169.213.416 1.014.44 1.509H71.59v12.195c-.438.03-.906.142-1.288.608 1.298.521 2.527.989 3.766 1.373.113-.8.28-1.293.679-1.782 0 0-1.626-.162-2.498-.209V43.3h10.946a15.415 15.415 0 0 1-.891 4.827 13.758 13.758 0 0 1-2.456 4.27c-1.05 1.235-2.273 2.197-3.634 2.87-.218.108-.214.265-.434.353-.196.21-.384.573-.541.992-.137.365-.189.62-.25 1.11.514.159.791.242 1.28.362 3.846.962 4.798.678 5.014.512h.007a17.271 17.271 0 0 0 2.417-2.27 19.177 19.177 0 0 0 3.6-6.044 21 21 0 0 0 1.32-7.389c0-.468.012-.622-.017-1.085m-17.02.838H60.371c.03-1.734.323-3.419.899-5.008a13.74 13.74 0 0 1 2.456-4.274c1.05-1.229 2.275-2.194 3.632-2.87a9.934 9.934 0 0 1 4.232-1.033zm.193-18.666c-3.735 0-6.308 1.1-7.807 2.099-.867-.512-1.24-1.016-1.24-1.61 0-2.122 6-2.31 9.045-2.31h.004c3.044 0 9.048.188 9.048 2.31 0 .594-.377 1.098-1.246 1.61-1.496-1-4.07-2.099-7.805-2.099m.465 18.666v-13.17a9.93 9.93 0 0 1 3.965 1.018c1.362.676 2.584 1.641 3.634 2.87a13.796 13.796 0 0 1 2.457 4.274 15.3 15.3 0 0 1 .896 5.008zm37.455 27.264a.317.317 0 0 0-.39-.191c-3.511 1.018-7.868-1.884-12.083-4.695-3.543-2.36-6.893-4.594-9.761-4.594-1.063 0-2.008.228-2.819.666-1.004.553-1.75 1.428-2.23 2.593-.488 1.173-.995 1.974-1.402 2.62-.487.772-.842 1.326-.842 2.021 0 .566.242 1.078.732 1.567.407.41.99.806 1.84 1.26.183.094.362.18.536.264.698.34 1.131.57 1.212.962-1.389.612-3.189 1.12-5.226 1.477-2.302.401-4.827.607-7.496.607-2.67 0-5.192-.206-7.491-.607-2.043-.358-3.843-.865-5.236-1.482.059-.585.487-.815 1.249-1.178.181-.086.36-.169.546-.267.695-.37 1.357-.734 1.805-1.131.492-.438.722-.906.722-1.472 0-.693-.35-1.244-.835-2.02-.409-.644-.913-1.448-1.4-2.62-.48-1.166-1.235-2.04-2.237-2.59-.808-.437-1.755-.665-2.81-.665-2.874 0-6.221 2.228-9.767 4.594-4.212 2.806-8.569 5.713-12.08 4.69a.322.322 0 0 0-.393.198c-.056.16.02.335.172.404 1.07.473 2.013 1.207 2.921 1.915 1.267.985 2.462 1.918 3.78 1.918 1.246 0 2.588-.395 4.216-1.247 1.413-.74 2.88-1.736 4.298-2.706 2.777-1.898 5.642-3.852 8.36-4.07-.283.296-.56.544-.82.774-.803.715-1.496 1.337-1.496 2.598 0 .992.34 1.697.808 2.68.14.278.294.607.456.969.303.67.43 1.212.612 1.954.08.323.166.681.281 1.11.172.644.495 1.853 2.491 2.867 2.314 1.178 6.299 1.773 11.848 1.773 5.55 0 9.533-.595 11.848-1.773 1.996-1.014 2.319-2.223 2.49-2.867.115-.429.201-.787.28-1.11.18-.742.31-1.283.614-1.954.22-.492.434-.894.625-1.249.416-.781.744-1.398.744-2.295 0-1.263-.73-1.917-1.572-2.674-.27-.24-.556-.504-.85-.806 2.723.218 5.588 2.17 8.363 4.07 1.418.965 2.887 1.967 4.298 2.707 1.63.85 2.973 1.246 4.222 1.246 1.312 0 2.508-.935 3.776-1.922.909-.703 1.851-1.44 2.917-1.915a.322.322 0 0 0 .174-.404m-35.206-3.607c-.181 0-.348.027-.505.07v-2.997a20.941 20.941 0 0 1-4.383-.658v3.668a1.631 1.631 0 0 0-.532-.083c-1.053 0-1.704.884-1.704 1.705 0 .773.455 1.484.85 1.932.198-.468.377-.845.636-.845.522 0 .284 2.598 1.813 2.672a1.106 1.106 0 0 0-.079.416 1.193 1.193 0 1 0 2.31-.416c1.528-.071 1.27-2.672 1.797-2.672.26 0 .424.355.654.845.397-.448.847-1.159.847-1.932 0-.82-.649-1.705-1.704-1.705m-2.711 6.544a.666.666 0 1 1 .004-1.332.666.666 0 0 1-.004 1.332m3.573-3.781c-.181-.336-.443-.527-.674-.527-1.023 0-.622 2.699-1.841 2.699-.534 0-.818-.34-.818-.723 0-.377.267-.492.267-.798 0-.304-.24-.414-.507-.414-.262 0-.502.11-.502.414 0 .306.267.421.267.798 0 .382-.287.723-.82.723-1.218 0-.816-2.699-1.84-2.699-.228 0-.494.191-.67.527-.207-.383-.322-.77-.322-1.058 0-.493.382-1.176 1.178-1.176 1.37 0 1.05 1.861 1.702 1.861.292 0 .505-.174.505-.455 0-.532-.95-1.036-.95-1.795 0-.76.693-1.399 1.452-2.008.761.61 1.457 1.249 1.457 2.008 0 .759-.95 1.263-.95 1.795 0 .281.21.455.502.455.654 0 .333-1.86 1.702-1.86.798 0 1.18.682 1.18 1.175 0 .289-.117.675-.318 1.058m.701-10.161c-2.507-.63-5.49-1.702-8.277-2.968l.002-.032c.08-.566-.132-1.2-.568-1.693-.426-.492-1.004-.773-1.58-.773a2.26 2.26 0 0 0-.759.144c-.401-.36-.786-.752-1.15-1.183a13.715 13.715 0 0 1-2.46-4.27 15.096 15.096 0 0 1-.722-2.837c-.132.813-1.048 1.886-2.613 1.906.025-.17.005-.576-.14-.617-.408.455-1.028.952-2.448.45.22 1.107.526 2.197.92 3.25a19.164 19.164 0 0 0 3.603 6.041 17.415 17.415 0 0 0 1.604 1.607c-.012.108-.02.215-.02.323 0 .59.566 1.52 1.381 1.918.669.323 1.389.24 2.043-.233 1.214.649 2.77 1.256 4.44 1.72 1.875.523 3.69.812 5.108.812 1.222 0 2.836-.578 4.43-1.58.634-.403 1.232-.85 1.675-1.268.064-.056.12-.11.172-.162-1.24.174-3.11-.176-4.641-.555m-9.176-3.77-.265-.198c-.482-.365-.893-.362-1.33.015a5.04 5.04 0 0 0-.577.608l-.272.31.183.15c.512.411.59.86.444 1.122a.43.43 0 0 1-.267.205c-.252.066-.612-.024-.982-.247l-.196-.113-.115.194-.096.14a2.338 2.338 0 0 0-.134.208c-.22.384-.326.675-.326.913 0 .069.01.132.027.19.076.28.303.412.502.52l.122.073c.23.147.554.338.796.475-.453.255-.91.277-1.364.056-.688-.333-1.126-1.119-1.126-1.503 0-.595.267-1.347.754-2.119l.073-.115-.07-.122a4.94 4.94 0 0 1-.35-.688c.259.037.516.083.77.144l.13.03.089-.096c.3-.328 1.356-1.393 2.333-1.393.446 0 .897.225 1.237.617.255.289.41.63.456.957a11.499 11.499 0 0 1-.446-.333m1.621 4.768a1.073 1.073 0 0 1 0-2.145 1.073 1.073 0 0 1 0 2.145m4.697 1.453a.98.98 0 0 1 0-1.961c.539-.001.98.44.98.979a.985.985 0 0 1-.98.982m-.071-57.14c-.569-.445-1.004-1.09-1.088-1.762.65.115 1.377.587 1.808 1.148V.859c-.431.566-1.159 1.039-1.808 1.151.074-.666.485-1.27 1.044-1.966h-2.653c.559.695.965 1.3 1.041 1.966-.646-.112-1.379-.585-1.807-1.15v2.742c.428-.56 1.158-1.033 1.807-1.148-.08.673-.514 1.317-1.087 1.763zm-3.814 3.318a2.503 2.503 0 0 0 4.886 0zm2.966-.976h1.942a2.501 2.501 0 0 0-1.942-2.02zm-1.034 0v-2.02a2.496 2.496 0 0 0-1.957 2.02zm1.872 3.763c-.277.13-.578.227-.892.274v3.411h.892zm-2.72 3.685h.889v-3.411a3.086 3.086 0 0 1-.89-.274zm2.906-4.308a.796.796 0 1 0 1.592 0 .8.8 0 0 0-.796-.798c-.44 0-.796.36-.796.798m2.653-.075c.44 0 .796-.36.796-.8a.796.796 0 0 0-1.592 0c0 .44.358.8.796.8m1.973-.57a.795.795 0 1 0 0-1.59.797.797 0 0 0-.799.793c0 .441.36.796.799.796m5.614 1.783a.795.795 0 1 0 .001-1.59.795.795 0 0 0 0 1.59M81.99 9.472c.44 0 .796-.355.796-.796a.796.796 0 1 0-1.592 0c0 .44.357.796.796.796m-1.979-.61a.796.796 0 1 0 0-1.592.8.8 0 0 0-.798.795c0 .441.36.796.798.796m4.282 6.066a.796.796 0 0 0 0 1.591c.44 0 .8-.355.8-.796a.8.8 0 0 0-.8-.795m.388-1.93a.797.797 0 1 0 0 1.595.797.797 0 1 0 0-1.594M83.62 11.86c0 .441.36.796.796.796a.796.796 0 1 0-.796-.796m-14.204-1.364a.798.798 0 0 0 0-1.597.796.796 0 0 0-.796.798c0 .443.356.799.796.799m-1.857-.873a.798.798 0 1 0-.002-1.595.798.798 0 0 0 .002 1.595m-1.975-.57a.795.795 0 1 0 0-1.59.8.8 0 0 0-.798.793.8.8 0 0 0 .798.796m-5.613 1.783a.794.794 0 0 0 .796-.794.796.796 0 1 0-1.592 0c0 .439.356.794.796.794m1.556-1.363a.796.796 0 1 0-.798-.796c0 .44.355.796.798.796m1.98-.61a.796.796 0 1 0 0-1.592.796.796 0 0 0 0 1.591m-3.487 6.862a.8.8 0 0 0-.796-.796.8.8 0 0 0-.798.796c0 .44.36.793.798.793a.795.795 0 0 0 .796-.793m-.389-1.93a.796.796 0 1 0-1.592 0c0 .442.356.797.794.797a.798.798 0 0 0 .798-.796m-.531-1.137a.798.798 0 1 0 0-1.596.798.798 0 0 0 0 1.596m18.563.508c.458.879.854 1.39.793 2.067-.061.68-.771 1.16-1.11 1.841-.308-.793-.812-1.39-.754-2.013.062-.62.916-1.442 1.07-1.895m-11.782 0c-.46.879-.855 1.39-.793 2.067.06.68.771 1.16 1.109 1.841.306-.793.815-1.39.757-2.013-.064-.62-.919-1.442-1.073-1.895m379.494 165.454a8.159 8.159 0 0 0-1.744-2.613 8.264 8.264 0 0 0-2.586-1.746c-.994-.429-2.089-.644-3.288-.644-1.24 0-2.354.215-3.348.644a7.722 7.722 0 0 0-2.557 1.773 8.447 8.447 0 0 0-1.69 2.615 9.978 9.978 0 0 0-.73 3.176h16.702a9.792 9.792 0 0 0-.759-3.205m1.154 18.67c-2.178 1.65-4.913 2.474-8.212 2.474-2.324 0-4.34-.375-6.044-1.124-1.707-.75-3.14-1.8-4.302-3.15-1.161-1.35-2.033-2.96-2.616-4.836-.58-1.874-.908-3.916-.982-6.13 0-2.211.336-4.237 1.012-6.073.673-1.834 1.62-3.431 2.84-4.78a12.9 12.9 0 0 1 4.328-3.15c1.667-.75 3.497-1.124 5.483-1.124 2.588 0 4.733.536 6.44 1.604 1.705 1.068 3.071 2.427 4.105 4.078a16.115 16.115 0 0 1 2.138 5.397c.391 1.95.55 3.806.477 5.566h-21.763a11.46 11.46 0 0 0 .45 3.627 8.178 8.178 0 0 0 1.631 3.037c.75.881 1.705 1.584 2.868 2.108 1.16.527 2.53.789 4.104.789 2.026 0 3.683-.468 4.976-1.408 1.294-.936 2.148-2.361 2.56-4.271h4.724c-.637 3.262-2.045 5.718-4.217 7.366m-32.211-22.157c-1.2-1.011-2.811-1.518-4.837-1.518-1.724 0-3.169.318-4.33.955-1.163.64-2.088 1.484-2.784 2.53-.693 1.053-1.187 2.262-1.489 3.629a19.704 19.704 0 0 0-.45 4.246c0 1.35.159 2.662.477 3.936.319 1.276.816 2.41 1.492 3.401a7.536 7.536 0 0 0 2.642 2.393c1.087.597 2.38.899 3.882.899 2.36 0 4.207-.62 5.539-1.857 1.33-1.236 2.145-2.98 2.444-5.23h4.893c-.527 3.6-1.866 6.374-4.021 8.323-2.155 1.95-5.089 2.924-8.8 2.924-2.213 0-4.172-.357-5.877-1.07-1.706-.71-3.13-1.721-4.273-3.036-1.144-1.31-2.006-2.875-2.586-4.695-.583-1.817-.872-3.813-.872-5.988 0-2.174.28-4.21.843-6.102.563-1.893 1.415-3.541 2.559-4.95 1.143-1.405 2.576-2.51 4.3-3.315 1.727-.806 3.73-1.21 6.017-1.21 1.65 0 3.196.196 4.64.59 1.443.394 2.719 1.004 3.824 1.827a9.98 9.98 0 0 1 2.728 3.122c.712 1.257 1.163 2.746 1.349 4.472h-4.95c-.374-1.84-1.16-3.262-2.36-4.276m-23.616 24.012h-4.78V170.07h4.78zm-4.78-40.15h4.78v5.848h-4.78zm-18.89 40.15-10.798-29.073h5.344l8.152 24.237h.113l7.93-24.237h5.005l-10.628 29.074zm-22.893-29.073v6.13h.113c1.16-2.364 2.586-4.105 4.273-5.231 1.687-1.122 3.825-1.648 6.411-1.575v5.062c-1.912 0-3.543.265-4.893.789-1.349.524-2.436 1.293-3.261 2.304-.826 1.014-1.426 2.24-1.798 3.683-.377 1.445-.563 3.103-.563 4.979v12.933h-4.78v-29.074zm-14.27 8.548a8.16 8.16 0 0 0-1.744-2.613 8.264 8.264 0 0 0-2.586-1.746c-.995-.429-2.092-.644-3.29-.644-1.238 0-2.355.215-3.347.644a7.757 7.757 0 0 0-2.559 1.773 8.485 8.485 0 0 0-1.687 2.615 9.912 9.912 0 0 0-.73 3.176h16.701a9.791 9.791 0 0 0-.759-3.205m1.154 18.67c-2.177 1.65-4.913 2.474-8.211 2.474-2.324 0-4.34-.375-6.047-1.124-1.704-.75-3.14-1.8-4.3-3.15-1.163-1.35-2.035-2.96-2.616-4.836-.58-1.874-.908-3.916-.982-6.13 0-2.211.336-4.237 1.01-6.073.675-1.834 1.623-3.431 2.84-4.78a12.91 12.91 0 0 1 4.33-3.15c1.668-.75 3.497-1.124 5.483-1.124 2.588 0 4.734.536 6.44 1.604 1.705 1.068 3.071 2.427 4.105 4.078a16.059 16.059 0 0 1 2.135 5.397c.395 1.95.554 3.806.48 5.566h-21.763c-.04 1.276.113 2.486.448 3.627a8.218 8.218 0 0 0 1.633 3.037c.75.881 1.705 1.584 2.866 2.108 1.163.527 2.532.789 4.107.789 2.025 0 3.683-.468 4.976-1.408 1.293-.936 2.147-2.361 2.559-4.271h4.724c-.637 3.262-2.045 5.718-4.217 7.366m-34.95-32.813c-1.781-1.293-4.059-1.94-6.833-1.94-1.124 0-2.231.113-3.316.336-1.09.225-2.055.6-2.897 1.127a5.89 5.89 0 0 0-2.026 2.108c-.504.882-.759 1.979-.759 3.29 0 1.236.365 2.24 1.097 3.009.733.769 1.705 1.396 2.924 1.883 1.218.487 2.596.891 4.132 1.21 1.538.318 3.102.666 4.697 1.038 1.594.377 3.156.816 4.697 1.323 1.535.506 2.912 1.19 4.131 2.052a9.762 9.762 0 0 1 2.924 3.262c.732 1.312 1.097 2.963 1.097 4.949 0 2.135-.477 3.965-1.435 5.483a11.76 11.76 0 0 1-3.683 3.71c-1.499.955-3.176 1.65-5.033 2.082a24.562 24.562 0 0 1-5.539.646c-2.248 0-4.376-.281-6.382-.842-2.006-.563-3.766-1.416-5.285-2.56-1.518-1.143-2.72-2.605-3.6-4.385-.881-1.78-1.32-3.892-1.32-6.328h5.06c0 1.687.328 3.142.984 4.359a8.926 8.926 0 0 0 2.586 3.007c1.068.789 2.315 1.369 3.742 1.744a17.04 17.04 0 0 0 4.384.563c1.2 0 2.41-.113 3.627-.338 1.22-.225 2.314-.607 3.291-1.153a6.52 6.52 0 0 0 2.36-2.222c.6-.935.902-2.135.902-3.597 0-1.389-.367-2.513-1.097-3.375-.732-.862-1.707-1.565-2.924-2.108-1.22-.544-2.598-.985-4.134-1.323a785.105 785.105 0 0 1-4.694-1.04 62.61 62.61 0 0 1-4.697-1.237c-1.536-.468-2.915-1.087-4.132-1.856a8.838 8.838 0 0 1-2.924-2.98c-.732-1.218-1.1-2.746-1.1-4.583 0-2.025.415-3.776 1.24-5.257a10.798 10.798 0 0 1 3.289-3.657c1.369-.955 2.924-1.667 4.667-2.135a20.64 20.64 0 0 1 5.37-.703c2.063 0 3.973.242 5.736.73 1.763.487 3.309 1.256 4.641 2.307 1.33 1.05 2.38 2.37 3.147 3.964.769 1.592 1.19 3.495 1.266 5.709h-5.06c-.3-2.887-1.342-4.979-3.122-6.272m-62.166 5.595v4.611h.113c1.986-3.524 5.135-5.287 9.447-5.287 1.91 0 3.505.265 4.778.789 1.276.526 2.307 1.256 3.093 2.194.789.935 1.34 2.052 1.66 3.345.319 1.293.478 2.728.478 4.303v19.119h-4.78v-19.682c0-1.8-.524-3.226-1.575-4.274-1.05-1.05-2.493-1.574-4.33-1.574-1.461 0-2.728.222-3.795.673-1.068.45-1.96 1.087-2.672 1.913a8.215 8.215 0 0 0-1.602 2.897c-.357 1.104-.534 2.314-.534 3.627v16.42h-4.78v-29.074zm-31.377 19.26c.467 1.37 1.114 2.513 1.94 3.431a8.419 8.419 0 0 0 2.896 2.109 8.616 8.616 0 0 0 3.514.732c1.237 0 2.41-.245 3.515-.732a8.41 8.41 0 0 0 2.894-2.109c.826-.918 1.472-2.062 1.942-3.43.468-1.37.703-2.934.703-4.698 0-1.76-.235-3.325-.703-4.694-.47-1.37-1.116-2.52-1.942-3.458a8.21 8.21 0 0 0-2.894-2.135 8.616 8.616 0 0 0-3.515-.733c-1.236 0-2.41.245-3.514.733a8.22 8.22 0 0 0-2.897 2.135c-.825.938-1.472 2.089-1.94 3.458-.47 1.369-.702 2.934-.702 4.694 0 1.764.232 3.329.703 4.698m-4.864-10.685c.598-1.854 1.496-3.468 2.699-4.837 1.2-1.366 2.679-2.444 4.442-3.232 1.76-.786 3.786-1.18 6.073-1.18 2.324 0 4.36.394 6.1 1.18 1.744.788 3.216 1.866 4.416 3.232 1.198 1.37 2.099 2.983 2.699 4.837.6 1.856.901 3.852.901 5.987 0 2.138-.301 4.127-.901 5.961-.6 1.84-1.501 3.44-2.699 4.81-1.2 1.369-2.672 2.436-4.415 3.205-1.741.77-3.777 1.154-6.1 1.154-2.288 0-4.313-.385-6.074-1.154-1.763-.769-3.242-1.836-4.442-3.205-1.203-1.37-2.101-2.97-2.699-4.81-.6-1.834-.901-3.823-.901-5.96 0-2.136.301-4.132.901-5.988m-5.484 20.497h-4.78V170.07h4.78zm-4.778-40.15h4.78v5.848h-4.78zm-3.932 11.077v4.217h-5.791v18.053c0 .561.046 1.012.142 1.347.093.338.27.6.534.789.26.186.627.308 1.094.365.468.056 1.08.086 1.83.086h2.191v4.217h-3.653c-1.24 0-2.297-.083-3.18-.255-.88-.166-1.593-.477-2.135-.926-.546-.45-.947-1.087-1.21-1.912-.264-.825-.394-1.91-.394-3.262v-18.502h-4.949v-4.217h4.95v-8.715h4.78v8.715zm-23.14 14.059c-.6.448-1.385.773-2.36.979-.975.206-1.998.372-3.066.505-1.068.13-2.145.279-3.233.448-1.087.166-2.062.438-2.924.81-.862.373-1.567.904-2.108 1.595-.544.69-.816 1.633-.816 2.826 0 .783.16 1.444.478 1.986.318.54.732.98 1.236 1.315.507.338 1.098.58 1.773.73.674.146 1.387.222 2.136.222 1.575 0 2.924-.215 4.048-.644 1.127-.428 2.045-.97 2.757-1.623.71-.654 1.237-1.362 1.575-2.126.336-.764.505-1.484.505-2.155zm7.761 14.901c-.825.488-1.969.732-3.43.732-1.237 0-2.222-.347-2.952-1.04-.732-.693-1.097-1.83-1.097-3.402-1.312 1.572-2.84 2.709-4.582 3.402-1.743.693-3.629 1.04-5.652 1.04-1.312 0-2.559-.151-3.74-.45-1.182-.299-2.203-.77-3.065-1.406-.862-.637-1.546-1.472-2.053-2.503-.506-1.03-.759-2.277-.759-3.74 0-1.647.282-3 .845-4.047.561-1.05 1.3-1.903 2.221-2.56.919-.656 1.967-1.15 3.147-1.49a38.06 38.06 0 0 1 3.63-.843 44.071 44.071 0 0 1 3.739-.59c1.18-.13 2.221-.319 3.12-.564.901-.242 1.611-.597 2.138-1.067.524-.468.786-1.154.786-2.053 0-1.05-.196-1.893-.59-2.532a4.073 4.073 0 0 0-1.519-1.462 6.225 6.225 0 0 0-2.081-.673 15.682 15.682 0 0 0-2.275-.17c-2.025 0-3.713.385-5.062 1.154-1.35.77-2.082 2.221-2.194 4.36h-4.78c.075-1.8.45-3.319 1.126-4.558a8.5 8.5 0 0 1 2.699-3.007c1.124-.77 2.407-1.323 3.852-1.658 1.442-.338 2.99-.507 4.638-.507 1.313 0 2.615.093 3.908.279 1.293.189 2.467.57 3.515 1.151a6.72 6.72 0 0 1 2.53 2.442c.639 1.045.957 2.412.957 4.097v14.926c0 1.121.066 1.944.196 2.468.132.524.573.786 1.322.786.412 0 .901-.076 1.462-.225zm-35.64-18.64c-.357-1.293-.899-2.447-1.63-3.46a7.985 7.985 0 0 0-2.812-2.418c-1.144-.597-2.483-.898-4.021-.898-1.612 0-2.98.318-4.105.955a8.207 8.207 0 0 0-2.755 2.502c-.712 1.031-1.229 2.205-1.547 3.515a16.871 16.871 0 0 0-.478 3.991c0 1.426.169 2.804.507 4.134.338 1.332.872 2.503 1.602 3.514.732 1.014 1.677 1.83 2.84 2.447 1.161.62 2.567.93 4.217.93 1.648 0 3.027-.32 4.134-.957a7.671 7.671 0 0 0 2.67-2.532c.675-1.048 1.163-2.248 1.461-3.598.302-1.35.451-2.735.451-4.16 0-1.35-.179-2.672-.534-3.965m-17.179-21.396v15.011h.113c.786-1.609 2.025-2.782 3.71-3.514 1.687-.73 3.543-1.097 5.569-1.097 2.248 0 4.207.414 5.875 1.24 1.667.825 3.056 1.939 4.163 3.344 1.104 1.406 1.94 3.027 2.5 4.866.563 1.837.845 3.787.845 5.846 0 2.064-.274 4.011-.816 5.85-.543 1.837-1.368 3.439-2.473 4.808-1.107 1.369-2.495 2.444-4.163 3.232-1.668.789-3.607 1.183-5.821 1.183-.71 0-1.509-.078-2.39-.228-.88-.15-1.751-.391-2.613-.73a10.224 10.224 0 0 1-2.447-1.376 7.708 7.708 0 0 1-1.94-2.165h-.112v3.88h-4.78v-40.15zm-31.738 30.337c.467 1.368 1.114 2.512 1.94 3.43a8.419 8.419 0 0 0 2.896 2.109 8.616 8.616 0 0 0 3.514.732 8.624 8.624 0 0 0 3.515-.732 8.419 8.419 0 0 0 2.897-2.109c.823-.918 1.469-2.062 1.94-3.43.467-1.37.702-2.934.702-4.698 0-1.76-.235-3.325-.703-4.694-.47-1.37-1.116-2.52-1.94-3.458a8.22 8.22 0 0 0-2.896-2.135 8.624 8.624 0 0 0-3.515-.733c-1.236 0-2.41.245-3.514.733a8.22 8.22 0 0 0-2.897 2.135c-.825.938-1.472 2.089-1.94 3.458-.47 1.369-.702 2.934-.702 4.694 0 1.764.232 3.329.703 4.698m-4.864-10.685c.598-1.854 1.499-3.468 2.699-4.837 1.2-1.366 2.679-2.444 4.442-3.232 1.76-.786 3.786-1.18 6.073-1.18 2.324 0 4.36.394 6.1 1.18 1.744.788 3.216 1.866 4.416 3.232 1.2 1.37 2.099 2.983 2.699 4.837.6 1.856.899 3.852.899 5.987 0 2.138-.3 4.127-.9 5.961-.6 1.84-1.498 3.44-2.698 4.81-1.2 1.369-2.672 2.436-4.415 3.205-1.742.77-3.777 1.154-6.1 1.154-2.288 0-4.313-.385-6.074-1.154-1.763-.769-3.242-1.836-4.442-3.205-1.2-1.37-2.101-2.97-2.699-4.81-.6-1.834-.901-3.823-.901-5.96 0-2.136.301-4.132.901-5.988m-12.355-8.576v6.13h.113c1.16-2.364 2.586-4.105 4.273-5.231 1.688-1.122 3.825-1.648 6.412-1.575v5.062c-1.913 0-3.544.265-4.893.789-1.35.524-2.437 1.293-3.262 2.304-.826 1.014-1.426 2.24-1.798 3.683-.377 1.445-.563 3.103-.563 4.979v12.933h-4.78v-29.074zm-22.212 8.155c3.037.037 5.258-.58 6.664-1.857 1.406-1.273 2.108-3.11 2.108-5.51s-.702-4.226-2.108-5.483c-1.406-1.256-3.627-1.883-6.664-1.883H33.648v14.733zm1.8-19.232c4.048 0 7.114 1.039 9.194 3.12 2.081 2.08 3.122 4.996 3.122 8.745 0 3.75-1.04 6.674-3.122 8.772-2.08 2.102-5.146 3.13-9.194 3.093H33.647v16.42h-5.343v-40.15zm265.07-44.848a11.3 11.3 0 0 0 1.744-1.518 7.707 7.707 0 0 0 1.293-1.883c.338-.693.505-1.472.505-2.334 0-1.163-.412-2.165-1.234-3.01-.828-.842-1.952-1.264-3.377-1.264-1.122 0-2.173.346-3.147 1.039-.975.695-1.462 1.773-1.462 3.235 0 .6.12 1.2.365 1.797.242.603.553 1.193.928 1.773.374.583.786 1.154 1.236 1.715l1.35 1.687a73.7 73.7 0 0 0 1.8-1.237m-6.044 8.155c-.845.56-1.587 1.2-2.224 1.913a8.673 8.673 0 0 0-1.518 2.387c-.375.884-.561 1.923-.561 3.12 0 1.014.216 1.942.647 2.785a6.57 6.57 0 0 0 1.714 2.138 8.416 8.416 0 0 0 2.446 1.376c.919.34 1.864.51 2.841.51 1.834 0 3.475-.432 4.92-1.296 1.442-.862 2.652-2.023 3.627-3.485l-9.223-11.079a39.802 39.802 0 0 0-2.67 1.631m9.615 16.98c-2.079.939-4.227 1.409-6.438 1.409-2.701 0-4.873-.414-6.524-1.24-1.65-.822-2.924-1.816-3.823-2.98-.9-1.16-1.491-2.36-1.773-3.597-.279-1.237-.42-2.268-.42-3.093 0-1.575.254-2.96.758-4.163a11.821 11.821 0 0 1 2.026-3.233 15.41 15.41 0 0 1 2.98-2.586 40.28 40.28 0 0 1 3.627-2.165 200.834 200.834 0 0 0-1.631-2.25 24.3 24.3 0 0 1-1.433-2.165 10.435 10.435 0 0 1-1.014-2.304c-.242-.806-.365-1.717-.365-2.729 0-1.087.196-2.128.59-3.122a7.752 7.752 0 0 1 1.744-2.642c.767-.77 1.714-1.377 2.838-1.827 1.127-.45 2.42-.676 3.882-.676 1.237 0 2.446.169 3.627.507 1.18.338 2.221.852 3.12 1.548a7.784 7.784 0 0 1 2.165 2.586c.543 1.03.815 2.22.815 3.57 0 1.2-.206 2.317-.617 3.345a10.63 10.63 0 0 1-1.687 2.841 14.945 14.945 0 0 1-2.417 2.334 25.38 25.38 0 0 1-2.814 1.883l7.253 8.828c.752-2.098 1.183-4.177 1.296-6.242h4.555a53.229 53.229 0 0 1-.365 3.066 19.03 19.03 0 0 1-.507 2.334 17.78 17.78 0 0 1-.759 2.109 120.01 120.01 0 0 1-1.07 2.39l7.817 9.053h-6.24l-4.276-5.003c-1.2 1.874-2.838 3.28-4.92 4.215m-58.511-28.285v4.612h.112c1.986-3.524 5.136-5.285 9.448-5.285 1.913 0 3.505.262 4.78.786 1.274.524 2.305 1.256 3.094 2.194.786.936 1.34 2.052 1.658 3.345.318 1.293.48 2.728.48 4.303v19.119h-4.783v-19.682c0-1.8-.524-3.225-1.575-4.273-1.048-1.051-2.493-1.575-4.327-1.575-1.462 0-2.728.223-3.798.673-1.068.45-1.96 1.088-2.67 1.913a8.257 8.257 0 0 0-1.604 2.897c-.357 1.104-.534 2.314-.534 3.627v16.42h-4.78v-29.074zm-31.378 19.26c.468 1.37 1.117 2.513 1.94 3.431a8.418 8.418 0 0 0 2.897 2.109 8.614 8.614 0 0 0 3.514.732c1.237 0 2.41-.245 3.514-.732a8.418 8.418 0 0 0 2.897-2.109c.826-.918 1.47-2.062 1.94-3.43.468-1.37.703-2.934.703-4.697 0-1.761-.235-3.326-.703-4.695-.47-1.369-1.114-2.52-1.94-3.458a8.219 8.219 0 0 0-2.897-2.135 8.614 8.614 0 0 0-3.514-.733c-1.237 0-2.41.245-3.514.733a8.219 8.219 0 0 0-2.897 2.135c-.823.938-1.472 2.089-1.94 3.458-.47 1.369-.703 2.934-.703 4.695 0 1.763.233 3.328.703 4.697m-4.863-10.685c.6-1.854 1.498-3.468 2.698-4.837 1.2-1.366 2.68-2.446 4.443-3.232 1.763-.786 3.786-1.18 6.073-1.18 2.324 0 4.36.394 6.103 1.18 1.741.786 3.213 1.866 4.413 3.232 1.2 1.37 2.098 2.983 2.698 4.837.6 1.856.902 3.852.902 5.988 0 2.137-.302 4.126-.902 5.96-.6 1.84-1.498 3.44-2.698 4.81-1.2 1.369-2.672 2.437-4.413 3.205-1.744.77-3.779 1.154-6.103 1.154-2.287 0-4.31-.385-6.073-1.154-1.763-.768-3.243-1.836-4.443-3.205-1.2-1.37-2.098-2.97-2.698-4.81-.6-1.834-.899-3.823-.899-5.96 0-2.136.299-4.132.899-5.988m-22.567 14.003c.45.73 1.04 1.313 1.77 1.744a7.96 7.96 0 0 0 2.476.928 14.11 14.11 0 0 0 2.838.281c.75 0 1.538-.059 2.363-.169a8.656 8.656 0 0 0 2.278-.62 4.259 4.259 0 0 0 1.714-1.322c.45-.58.676-1.32.676-2.22 0-1.237-.47-2.175-1.406-2.812-.938-.637-2.108-1.153-3.516-1.548a59.105 59.105 0 0 0-4.582-1.067c-1.65-.319-3.176-.767-4.582-1.35-1.408-.58-2.579-1.396-3.517-2.446-.935-1.048-1.405-2.51-1.405-4.386 0-1.462.328-2.716.984-3.767a8.04 8.04 0 0 1 2.53-2.559c1.033-.656 2.194-1.143 3.487-1.462a16.073 16.073 0 0 1 3.852-.477c1.65 0 3.167.14 4.555.42 1.386.282 2.616.77 3.683 1.463 1.068.693 1.923 1.63 2.56 2.811.636 1.18 1.01 2.652 1.123 4.416h-4.777c-.079-.938-.321-1.717-.733-2.334a4.824 4.824 0 0 0-1.574-1.492 7.181 7.181 0 0 0-2.109-.815 10.851 10.851 0 0 0-2.334-.252c-.712 0-1.435.056-2.164.169a7.238 7.238 0 0 0-1.996.59 3.988 3.988 0 0 0-1.465 1.124c-.374.47-.56 1.077-.56 1.827 0 .825.288 1.51.871 2.052.58.544 1.32.994 2.221 1.352.9.355 1.913.656 3.037.898 1.124.245 2.248.498 3.375.76 1.197.262 2.37.582 3.514.957 1.144.375 2.155.87 3.037 1.49a7.3 7.3 0 0 1 2.135 2.333c.544.938.818 2.099.818 3.485 0 1.763-.367 3.225-1.1 4.388a8.548 8.548 0 0 1-2.865 2.812c-1.183.712-2.512 1.21-3.994 1.489-1.482.281-2.95.423-4.413.423-1.614 0-3.15-.169-4.611-.507-1.465-.338-2.758-.891-3.882-1.66-1.124-.767-2.025-1.78-2.698-3.034-.676-1.257-1.051-2.785-1.125-4.585h4.78c.037 1.05.28 1.94.73 2.672m-9.964 6.495h-4.78v-29.074h4.78zm-4.78-40.153h4.78v5.848h-4.78zm-13.546 11.08v6.129h.113c1.16-2.363 2.586-4.104 4.273-5.231 1.687-1.124 3.825-1.648 6.411-1.572v5.06c-1.912 0-3.543.264-4.893.788-1.35.524-2.436 1.29-3.262 2.304-.823 1.014-1.425 2.241-1.797 3.683-.375 1.445-.563 3.103-.563 4.98v12.932h-4.78v-29.074zm-22.21 8.154c3.036.037 5.257-.58 6.663-1.857 1.405-1.273 2.108-3.11 2.108-5.51s-.703-4.226-2.108-5.483c-1.406-1.256-3.627-1.883-6.664-1.883h-10.46v14.733zm1.8-19.234c4.047 0 7.11 1.04 9.192 3.122 2.082 2.08 3.12 4.996 3.12 8.745 0 3.75-1.038 6.674-3.12 8.772-2.081 2.102-5.145 3.13-9.193 3.093h-12.26v16.42h-5.343V99.918zm-73.667 0 12.653 33.741 12.708-33.741h7.31v40.152h-5.06v-33.403h-.112L89.814 140.07h-4.555l-12.541-33.403h-.113v33.403h-5.06V99.918zm-41.213 0v17.265h21.144V99.918h5.34v40.152h-5.34v-18.389H33.643v18.39h-5.344V99.918zM-.004 198.905h4.721V.043H-.004z"/>
</svg>
