<svg width="198" height="70" viewBox="0 0 198 70" fill="none" xmlns="http://www.w3.org/2000/svg">
<g clip-path="url(#clip0_304_2)">
<mask id="mask0_304_2" style="mask-type:luminance" maskUnits="userSpaceOnUse" x="0" y="0" width="198" height="70">
<path d="M34.5948 0C15.4688 0.170875 0 15.7275 0 34.9072C0 54.1796 15.6299 69.8046 34.9073 69.8046H162.71C181.885 69.8046 197.446 54.3505 197.612 35.2198V34.5947C197.446 15.5615 182.051 0.166 163.022 0H34.5948ZM3.42288 34.9072C3.42288 17.5146 17.5195 3.42275 34.9073 3.42275H162.71C180.097 3.42275 194.19 17.5146 194.19 34.9072C194.19 52.29 180.097 66.3866 162.71 66.3866H34.9073C17.5195 66.3866 3.42288 52.29 3.42288 34.9072ZM123.813 26.3965L123.818 36.1376C123.818 38.1786 122.515 39.7411 120.132 39.7411C117.745 39.7411 116.446 38.0126 116.446 36.0986V24.4921C116.446 24.1455 116.162 23.8622 115.816 23.8622H113.755C112.353 23.8622 111.226 24.9951 111.226 26.3965L111.231 36.1181C111.231 38.1542 109.927 39.7411 107.543 39.7411C105.273 39.7411 103.857 38.1542 103.857 36.1181L103.852 24.4921C103.852 24.1455 103.57 23.8622 103.227 23.8622H101.167C99.7709 23.8622 98.6371 24.9951 98.6371 26.3965V36.0595C98.6371 41.0156 101.831 44.829 107.373 44.829C109.838 44.829 112.231 43.8427 113.843 42.2362C115.463 43.8427 117.935 44.829 120.396 44.829C126.167 44.829 129.038 40.6737 129.038 36.0644L129.028 24.4921C129.028 24.1455 128.75 23.8622 128.403 23.8622H126.343C124.946 23.8622 123.813 24.9951 123.813 26.3965ZM163.061 23.8769C158.34 23.8769 154.707 27.3192 154.707 32.6317V42.2851C154.707 43.6816 155.835 44.8095 157.231 44.8095H159.297C159.643 44.8095 159.927 44.5312 159.927 44.1845V32.4852C159.927 30.4052 161.543 28.9306 163.378 28.9599H170.151C171.548 28.9599 172.681 27.832 172.681 26.4355V24.497C172.681 24.1552 172.397 23.8769 172.046 23.8769H163.061ZM82.8759 23.8769C77.7984 23.8769 74.5171 27.7392 74.5171 32.4657V36.0644C74.5171 41.2597 78.0321 44.8046 82.8759 44.8046H88.4809C93.2034 44.8046 96.8409 41.3769 96.8409 36.0644V32.4657C96.8409 27.7392 93.5546 23.8769 88.4809 23.8769H82.8759ZM79.7359 36.0644V32.6171C79.7359 30.5322 81.1184 28.9599 83.1934 28.9599H88.1684C90.1221 28.9599 91.6209 30.415 91.6209 32.6171V36.0644C91.6209 38.2567 90.1221 39.7167 88.1684 39.7167H83.1934C81.1184 39.7167 79.7359 38.1396 79.7359 36.0644ZM51.9534 23.8769V42.2997C51.9534 43.6962 53.0809 44.8095 54.4821 44.8095H56.5434C56.8896 44.8095 57.1734 44.5361 57.1734 44.1942V39.3602H65.5521C69.8584 39.3602 72.9546 36.4111 72.9546 31.6747C72.9546 26.9824 69.8584 23.8769 65.5521 23.8769H51.9534ZM57.1734 28.9697H65.3659C66.7971 28.9697 67.7396 30.1465 67.7396 31.5722C67.7396 33.0077 66.7971 34.2626 65.3659 34.2626H57.1734V28.9697ZM35.874 23.8769C31.0303 23.8769 27.5146 27.4414 27.5146 32.6317V42.2851C27.5146 43.6816 28.6474 44.8095 30.0439 44.8095H32.1045C32.456 44.8095 32.7344 44.5312 32.7344 44.1845V32.6171C32.7344 30.4247 34.2285 28.9746 36.1865 28.9746H44.1259V42.2851C44.1259 43.6816 45.2534 44.8095 46.6509 44.8095H48.7159C49.0621 44.8095 49.3409 44.5312 49.3409 44.1845V23.8769H35.874ZM139.292 23.8769C134.566 23.8769 130.932 27.329 130.932 32.6415V36.0986C130.932 41.289 134.517 44.8046 139.243 44.8046H149.682C151.08 44.8046 152.212 43.7304 152.212 42.334L152.202 40.3466C152.202 39.9951 151.923 39.7167 151.577 39.7167H139.302C137.573 39.7167 136.157 38.5741 136.157 37.2119H146.147C149.902 37.2119 152.807 34.1845 152.807 30.371C152.807 26.8554 149.731 23.8769 146.147 23.8769H139.292ZM139.302 28.9599H145.991C146.861 28.9599 147.578 29.6727 147.578 30.5664C147.578 31.3965 146.9 32.1581 145.991 32.1581L136.167 32.163C136.167 30.2392 137.246 28.9599 139.302 28.9599Z" fill="white"/>
</mask>
<g mask="url(#mask0_304_2)">
<path d="M197.612 69.8046V0H0V69.8046H197.612Z" fill="black"/>
</g>
</g>
<defs>
<clipPath id="clip0_304_2">
<rect width="197.612" height="69.8051" fill="white"/>
</clipPath>
</defs>
</svg>